<?xml version="1.0" encoding="UTF-8" standalone="no"?>
<svg width="24px" height="24px" viewBox="0 0 24 24" version="1.1" xmlns="http://www.w3.org/2000/svg" xmlns:xlink="http://www.w3.org/1999/xlink">
    <!-- Generator: Sketch 3.8.3 (29802) - http://www.bohemiancoding.com/sketch -->
    <title>icon-500px</title>
    <desc>Created with Sketch.</desc>
    <defs></defs>
    <g id="Site" stroke="none" stroke-width="1" fill="none" fill-rule="evenodd">
        <g id="Facebook-&amp;-Twitter-Sharing-Tile" transform="translate(-195.000000, -372.000000)">
            <g id="Photo-+-Sidebar" transform="translate(108.000000, 40.000000)">
                <g id="Sidebar">
                    <g id="Social" transform="translate(0.000000, 332.000000)">
                        <g id="icon-500px" transform="translate(87.000000, 0.000000)">
                            <rect id="Social-Bg" fill="#333333" x="0" y="0" width="24" height="24" rx="3"></rect>
                            <path d="M17.8039085,17.54888 L17.8039407,17.54888 C17.6903759,17.436304 17.593936,17.36984 17.5090843,17.345648 C17.4230416,17.321072 17.3462051,17.339376 17.2868476,17.398544 L17.2309987,17.453968 C16.6460822,18.035472 15.9649833,18.492016 15.2065972,18.810896 C14.4217835,19.14088 13.5878486,19.308208 12.7279688,19.308208 C11.8680569,19.308208 11.0341542,19.14088 10.2493727,18.810896 C9.49105099,18.492048 8.80998426,18.035536 8.22506776,17.454 C7.61565499,16.848208 7.15643872,16.171184 6.86019819,15.441712 C6.57132907,14.730448 6.47698147,14.195472 6.44598292,14.019696 C6.44308586,14.003216 6.4408004,13.990192 6.43899779,13.980784 C6.39924368,13.773776 6.20758704,13.759312 5.93214096,13.8012 C5.81761051,13.818608 5.46902975,13.871632 5.50221719,14.120944 L5.50302193,14.12664 C5.5953094,14.70376 5.75831734,15.269648 5.98760358,15.808528 C6.35610967,16.67464 6.88350343,17.452304 7.55517081,18.119952 C8.22683818,18.787696 9.00914108,19.311984 9.88035154,19.678256 C10.782303,20.057648 11.7403931,20.25 12.7279688,20.25 C13.7150295,20.25 14.6731518,20.057552 15.5756183,19.677968 C16.4465391,19.311824 17.228842,18.78744 17.9008313,18.119376 C17.9023764,18.11784 17.9390724,18.081648 17.9591587,18.059888 C18.0330982,17.979856 18.0974451,17.839824 17.8039085,17.54888 L17.8039085,17.54888 Z M12.7188592,5.964272 C11.77519,5.964272 10.7713586,6.153648 10.0338314,6.4708 C9.95499913,6.501488 9.90787361,6.564432 9.89750857,6.65288 C9.88781952,6.736304 9.91048097,6.846384 9.96687708,6.989616 C10.0126184,7.105808 10.1341018,7.414448 10.369311,7.325264 C11.124124,7.039024 11.9585418,6.881392 12.7188592,6.881392 C13.5804128,6.881392 14.4159572,7.04904 15.2023482,7.379664 C15.8271797,7.642448 16.4167637,8.022032 17.0577545,8.574192 C17.1044937,8.61448 17.1540978,8.634896 17.2051827,8.634896 C17.3301425,8.634896 17.4500165,8.512848 17.5525402,8.39848 C17.7236921,8.2076 17.8412484,8.048944 17.6726073,7.89016 C17.0604906,7.313712 16.3897245,6.883088 15.5616803,6.534992 C14.6611451,6.156304 13.7046645,5.964272 12.7188592,5.964272 L12.7188592,5.964272 Z M11.4323712,13.896272 C11.4334978,14.002288 11.5310966,14.095248 11.5893919,14.1508 L11.6077077,14.168368 C11.7076885,14.266128 11.8029374,14.315696 11.8907506,14.315696 C11.9634668,14.315696 12.0082746,14.28152 12.0241441,14.266832 C12.0681794,14.22616 12.5663772,13.724336 12.6139212,13.676464 L13.169513,14.226992 C13.220952,14.284592 13.2768652,14.313456 13.3420169,14.315248 C13.4307313,14.315248 13.5274288,14.2628 13.6293731,14.159376 C13.869121,13.916016 13.7491505,13.784784 13.6911449,13.72136 L13.1282138,13.161552 L13.715287,12.573808 C13.8440131,12.435312 13.7303518,12.288144 13.6169479,12.175408 C13.4522983,12.011696 13.2934429,11.969456 13.1915951,12.062736 L12.6078696,12.644048 L12.0175452,12.05704 C11.986257,12.027248 11.9467926,12.011504 11.9034332,12.011504 C11.824762,12.011504 11.7317019,12.064368 11.626764,12.168688 C11.4452148,12.349136 11.4062977,12.473872 11.500774,12.573392 L12.0912593,13.158608 L11.5042505,13.743184 C11.4559662,13.79112 11.4317918,13.842608 11.4323712,13.896272 L11.4323712,13.896272 Z M7.68898281,14.76296 C7.69252366,14.772656 7.77589462,15.001872 7.82421116,15.115472 C8.08942095,15.738864 8.46922557,16.298832 8.95306686,16.779856 C9.43658625,17.260464 9.99993576,17.638 10.6275356,17.901872 C11.2772175,18.175088 11.9672008,18.313616 12.6783325,18.313616 C13.3893356,18.313616 14.0793188,18.175056 14.7291295,17.901808 C15.3564718,17.638032 15.9198535,17.260464 16.403566,16.7796 C16.8872464,16.298832 17.2670188,15.738768 17.5324217,15.115056 C17.8072562,14.469104 17.9466048,13.783152 17.9466048,13.076304 C17.9466048,12.369424 17.8072562,11.683472 17.5324217,11.037584 C17.2670832,10.413904 16.8872786,9.85384 16.403566,9.372976 C15.9200144,8.89224 15.3566327,8.514672 14.7291295,8.250768 C14.0793832,7.977552 13.3893999,7.839024 12.6783325,7.839024 C11.9588315,7.839024 11.2399098,7.981392 10.599241,8.250768 C10.0871373,8.466128 9.22033678,9.02056 8.71296493,9.540752 L8.7099713,9.543792 L8.7099713,5.233584 L15.9931813,5.23352 C16.2582302,5.23064 16.2582302,4.862704 16.2582302,4.741776 C16.2582302,4.620912 16.2582302,4.253072 15.9923766,4.250064 L8.11729711,4.25 C7.90291463,4.25 7.77019707,4.42728 7.77019707,4.591536 L7.77019707,10.658384 C7.77019707,10.854096 8.01544934,10.99544 8.24331924,11.043888 C8.68833991,11.138384 8.79115337,10.996976 8.90014722,10.847344 L8.91460034,10.827504 C9.08098818,10.581776 9.60094615,10.061552 9.60616086,10.056368 C10.4175953,9.249712 11.5025766,8.805488 12.6611755,8.805488 C13.8142378,8.805488 14.8961289,9.249712 15.7075633,10.056368 C16.5217339,10.865808 16.9701345,11.938288 16.9701345,13.076304 C16.9701345,14.218448 16.5240515,15.290896 15.7140013,16.096176 C14.914316,16.891152 13.7971451,17.347088 12.6490078,17.347088 C11.8713402,17.347088 11.1206797,17.141104 10.477661,16.75128 L10.4803971,13.062384 C10.4803971,12.570512 10.6951337,12.035824 11.0547555,11.632048 C11.4659449,11.170448 12.0326099,10.91624 12.6504242,10.91624 C13.2487316,10.91624 13.8075101,11.142032 14.2238821,11.552048 C14.6372604,11.959152 14.864905,12.50152 14.864905,13.07928 C14.864905,14.312016 13.8898188,15.277648 12.6450485,15.277648 C12.4050754,15.277648 11.9688424,15.17224 11.9509128,15.167888 C11.6995768,15.093488 11.592643,15.440368 11.5574598,15.554704 C11.4221671,15.994416 11.6254764,16.081584 11.6676125,16.094608 C12.0681794,16.218192 12.3308462,16.241616 12.6754033,16.241616 C14.4326636,16.241616 15.8622664,14.819696 15.8622664,13.071984 C15.8622664,11.338288 14.4335327,9.927792 12.6773668,9.927792 C11.8173584,9.927792 11.0094326,10.254608 10.4024662,10.848016 C9.82443827,11.413168 9.49288579,12.166704 9.49288579,12.915248 L9.4925639,12.93384 C9.48976341,13.027184 9.4879286,15.238608 9.48738138,15.964336 L9.48409804,15.96072 C9.15380096,15.597136 8.82733444,15.040592 8.61089183,14.471984 C8.52604015,14.249136 8.3343835,14.288592 8.07284332,14.368656 C7.95863476,14.403632 7.61105188,14.510064 7.68792055,14.759856 L7.68898281,14.76296 L7.68898281,14.76296 Z" id="500px" fill="#FFFFFF"></path>
                        </g>
                    </g>
                </g>
            </g>
        </g>
    </g>
</svg>