<?xml version="1.0" encoding="UTF-8" standalone="no"?>
<svg width="24px" height="24px" viewBox="0 0 24 24" version="1.1" xmlns="http://www.w3.org/2000/svg" xmlns:xlink="http://www.w3.org/1999/xlink">
    <!-- Generator: Sketch 3.8.3 (29802) - http://www.bohemiancoding.com/sketch -->
    <title>icon-instagram</title>
    <desc>Created with Sketch.</desc>
    <defs></defs>
    <g id="Site" stroke="none" stroke-width="1" fill="none" fill-rule="evenodd">
        <g id="Facebook-&amp;-Twitter-Sharing-Tile" transform="translate(-166.000000, -372.000000)">
            <g id="Photo-+-Sidebar" transform="translate(108.000000, 40.000000)">
                <g id="Sidebar">
                    <g id="Social" transform="translate(0.000000, 332.000000)">
                        <g id="icon-instagram" transform="translate(58.000000, 0.000000)">
                            <rect id="Social-Bg" fill="#333333" x="0" y="0" width="24" height="24" rx="3"></rect>
                            <path d="M12.0000164,3.75 C9.75943452,3.75 9.47848577,3.75949704 8.59853555,3.79964661 C7.72041924,3.83969794 7.1206973,3.97917349 6.59593652,4.18313069 C6.05342608,4.39393231 5.59334344,4.67602726 5.13466897,5.13466897 C4.67602726,5.59334344 4.39393231,6.05342608 4.18313069,6.59593652 C3.97917349,7.1206973 3.83969794,7.72041924 3.79964661,8.59853555 C3.75949704,9.47848577 3.75,9.75943452 3.75,12.0000164 C3.75,14.2405655 3.75949704,14.5215142 3.79964661,15.4014645 C3.83969794,16.2795808 3.97917349,16.8793027 4.18313069,17.4040635 C4.39393231,17.9465739 4.67602726,18.4066566 5.13466897,18.865331 C5.59334344,19.3239727 6.05342608,19.6060677 6.59593652,19.8169021 C7.1206973,20.0208265 7.72041924,20.1603021 8.59853555,20.2003534 C9.47848577,20.240503 9.75943452,20.25 12.0000164,20.25 C14.2405655,20.25 14.5215142,20.240503 15.4014645,20.2003534 C16.2795808,20.1603021 16.8793027,20.0208265 17.4040635,19.8169021 C17.9465739,19.6060677 18.4066566,19.3239727 18.865331,18.865331 C19.3239727,18.4066566 19.6060677,17.9465739 19.8169021,17.4040635 C20.0208265,16.8793027 20.1603021,16.2795808 20.2003534,15.4014645 C20.240503,14.5215142 20.25,14.2405655 20.25,12.0000164 C20.25,9.75943452 20.240503,9.47848577 20.2003534,8.59853555 C20.1603021,7.72041924 20.0208265,7.1206973 19.8169021,6.59593652 C19.6060677,6.05342608 19.3239727,5.59334344 18.865331,5.13466897 C18.4066566,4.67602726 17.9465739,4.39393231 17.4040635,4.18313069 C16.8793027,3.97917349 16.2795808,3.83969794 15.4014645,3.79964661 C14.5215142,3.75949704 14.2405655,3.75 12.0000164,3.75 Z M12.0000164,5.23648383 C14.2028393,5.23648383 14.4637788,5.24490018 15.333708,5.28459127 C16.1380748,5.32126951 16.5749061,5.45566905 16.8656139,5.56865112 C17.2507026,5.71831143 17.5255274,5.89708509 17.8142048,6.18579522 C18.1029149,6.4744726 18.2816886,6.7492974 18.4313489,7.13438615 C18.5443309,7.42509393 18.6787305,7.86192519 18.7154087,8.66629204 C18.7550998,9.53622125 18.7635162,9.79716071 18.7635162,12.0000164 C18.7635162,14.2028393 18.7550998,14.4637788 18.7154087,15.333708 C18.6787305,16.1380748 18.5443309,16.5749061 18.4313489,16.8656139 C18.2816886,17.2507026 18.1029149,17.5255274 17.8142048,17.8142048 C17.5255274,18.1029149 17.2507026,18.2816886 16.8656139,18.4313489 C16.5749061,18.5443309 16.1380748,18.6787305 15.333708,18.7154087 C14.4639097,18.7550998 14.203003,18.7635162 12.0000164,18.7635162 C9.79699697,18.7635162 9.536123,18.7550998 8.66629204,18.7154087 C7.86192519,18.6787305 7.42509393,18.5443309 7.13438615,18.4313489 C6.7492974,18.2816886 6.4744726,18.1029149 6.18579522,17.8142048 C5.89711784,17.5255274 5.71831143,17.2507026 5.56865112,16.8656139 C5.45566905,16.5749061 5.32126951,16.1380748 5.28459127,15.333708 C5.24490018,14.4637788 5.23648383,14.2028393 5.23648383,12.0000164 C5.23648383,9.79716071 5.24490018,9.53622125 5.28459127,8.66629204 C5.32126951,7.86192519 5.45566905,7.42509393 5.56865112,7.13438615 C5.71831143,6.7492974 5.89708509,6.4744726 6.18579522,6.18579522 C6.4744726,5.89708509 6.7492974,5.71831143 7.13438615,5.56865112 C7.42509393,5.45566905 7.86192519,5.32126951 8.66629204,5.28459127 C9.53622125,5.24490018 9.79716071,5.23648383 12.0000164,5.23648383 Z M12.0000164,7.76351617 C9.66023954,7.76351617 7.76351617,9.66023954 7.76351617,12.0000164 C7.76351617,14.3397605 9.66023954,16.2364838 12.0000164,16.2364838 C14.3397605,16.2364838 16.2364838,14.3397605 16.2364838,12.0000164 C16.2364838,9.66023954 14.3397605,7.76351617 12.0000164,7.76351617 Z M12.0000164,14.75 C10.4812098,14.75 9.25,13.5187902 9.25,12.0000164 C9.25,10.4812098 10.4812098,9.25 12.0000164,9.25 C13.5187902,9.25 14.75,10.4812098 14.75,12.0000164 C14.75,13.5187902 13.5187902,14.75 12.0000164,14.75 Z M17.3938787,7.59613896 C17.3938787,8.14290669 16.9506288,8.5861239 16.403861,8.5861239 C15.8571261,8.5861239 15.4138761,8.14290669 15.4138761,7.59613896 C15.4138761,7.04937123 15.8571261,6.60612128 16.403861,6.60612128 C16.9506288,6.60612128 17.3938787,7.04937123 17.3938787,7.59613896 Z" id="Instagram" fill="#FFFFFF"></path>
                        </g>
                    </g>
                </g>
            </g>
        </g>
    </g>
</svg>