<?xml version="1.0" standalone="no"?>
<!DOCTYPE svg PUBLIC "-//W3C//DTD SVG 20010904//EN"
 "http://www.w3.org/TR/2001/REC-SVG-20010904/DTD/svg10.dtd">
<svg version="1.0" xmlns="http://www.w3.org/2000/svg"
 width="300.000000pt" height="300.000000pt" viewBox="0 0 300.000000 300.000000"
 preserveAspectRatio="xMidYMid meet">
<metadata>
Created by potrace 1.11, written by Peter Selinger 2001-2013
</metadata>
<g transform="translate(0.000000,300.000000) scale(0.100000,-0.100000)"
fill="#000000" stroke="none">
<path d="M843 2296 c-5 -9 -28 -16 -63 -18 l-55 -3 -3 -42 c-3 -46 -24 -58
-46 -28 -14 19 -142 30 -206 18 -35 -7 -46 -13 -48 -29 -2 -17 -12 -23 -46
-27 -145 -20 -162 -82 -152 -532 8 -386 33 -791 53 -840 4 -13 71 -15 464 -15
l458 0 58 -35 c32 -20 94 -47 138 -62 72 -24 95 -27 220 -27 125 0 148 3 220
27 44 15 106 42 138 62 l58 35 342 0 c301 0 345 2 366 16 51 36 51 33 51 753
0 411 -4 680 -10 695 -5 14 -24 35 -42 46 -32 19 -51 20 -809 20 l-777 0 -50
-34 c-46 -32 -50 -33 -55 -15 -4 16 -14 19 -60 19 -40 0 -56 4 -61 15 -7 20
-72 20 -83 1z m1817 -751 l0 -635 -245 0 -246 0 29 43 c83 120 123 249 123
397 0 53 -5 118 -11 145 -59 271 -278 489 -547 546 -72 15 -232 15 -298 -1
-325 -74 -555 -358 -555 -684 0 -151 40 -285 120 -400 l31 -46 -335 0 -335 0
-5 43 c-23 171 -45 969 -29 1042 8 36 12 40 48 46 22 4 159 12 305 18 327 14
349 18 420 76 l55 44 738 1 737 0 0 -635z m-880 379 c200 -59 356 -216 416
-419 25 -85 23 -229 -4 -320 -60 -196 -229 -358 -428 -409 -79 -20 -219 -20
-297 0 -262 68 -447 303 -448 569 0 114 12 167 63 273 83 170 257 296 453 326
52 8 189 -3 245 -20z"/>
</g>
</svg>
