<?xml version="1.0" encoding="UTF-8" standalone="no"?>
<svg width="24px" height="24px" viewBox="0 0 24 24" version="1.1" xmlns="http://www.w3.org/2000/svg" xmlns:xlink="http://www.w3.org/1999/xlink" xmlns:sketch="http://www.bohemiancoding.com/sketch/ns">
    <!-- Generator: Sketch 3.2.2 (9983) - http://www.bohemiancoding.com/sketch -->
    <title>icon-500px</title>
    <desc>Created with Sketch.</desc>
    <defs></defs>
    <g id="Site" stroke="none" stroke-width="1" fill="none" fill-rule="evenodd" sketch:type="MSPage">
        <g id="Middle-Aligned" sketch:type="MSArtboardGroup" transform="translate(-169.000000, -402.000000)">
            <g id="Sidebar" sketch:type="MSLayerGroup" transform="translate(140.000000, 90.000000)">
                <g id="Social" transform="translate(0.000000, 312.000000)" sketch:type="MSShapeGroup">
                    <g id="icon-500px" transform="translate(29.000000, 0.000000)">
                        <rect id="Background,-8px" fill="#333333" x="0" y="0" width="24" height="24" rx="4"></rect>
                        <path d="M4.00862069,8 L8.6637931,8 L8.6637931,9.31614567 L5.25,9.31614567 C5.09482759,9.90109931 5.01724138,10.4860529 4.93965517,11.1441258 C5.09482759,11.0710066 5.17241379,10.9247682 5.40517241,10.851649 C5.87068966,10.6322913 6.56896552,10.4860529 7.34482759,10.6322913 C8.12068966,10.7785298 8.6637931,11.3634834 8.97413793,11.948437 C9.43965517,10.851649 10.4482759,10.1204569 12,10.2666953 C13.3965517,10.4129337 14.1724138,11.3634834 14.8706897,12.0946754 C15.7241379,11.217245 16.5775862,10.0473377 18.4396552,10.2666953 C19.9913793,10.4129337 21,11.5097218 21,13.0452251 C21,14.5807284 20.0689655,15.8237548 18.5948276,15.9699932 C16.8103448,16.1893509 15.8017241,15.165682 14.9482759,14.2151323 C14.1724138,14.8732052 13.4741379,15.8237548 12,15.9699932 C10.4482759,16.1162316 9.51724138,15.3119204 9.05172414,14.2882515 C8.50862069,15.2388012 7.73275862,15.9699932 6.25862069,15.9699932 C4.47413793,16.0431124 3.07758621,15.165682 3,13.4839403 L4.70689655,13.4839403 C4.86206897,14.2882515 5.32758621,14.7269668 6.18103448,14.6538476 C6.95689655,14.5807284 7.5,13.9226555 7.5,13.1183443 C7.5,12.1677946 6.80172414,11.5097218 5.79310345,11.6559602 C5.32758621,11.7290794 5.01724138,12.0215562 4.78448276,12.314033 L3.31034483,12.314033 C3.38793103,10.9247682 3.69827586,9.46238408 4.00862069,8 L4.00862069,8 Z M10.2155172,13.1183443 C10.2155172,13.9226555 10.7586207,14.43449 11.612069,14.43449 C12.3103448,14.3613708 12.9310345,13.9957747 13.3189655,13.5570595 C13.3965517,13.4839403 13.7844828,13.1914635 13.7844828,13.1183443 C13.7844828,13.1183443 13.6293103,12.9721059 13.5517241,12.8989867 C13.0862069,12.4602714 12.3103448,11.6559602 11.3793103,11.8021986 C10.6810345,11.8753178 10.2155172,12.3871522 10.2155172,13.1183443 L10.2155172,13.1183443 Z M18.1293103,14.43449 C19.7586207,14.2882515 19.6034483,11.6559602 17.8189655,11.8021986 C16.8103448,11.8753178 16.2672414,12.6796291 15.7241379,13.1914635 C16.3448276,13.6301787 16.9655172,14.5076092 18.1293103,14.43449 L18.1293103,14.43449 Z" id="500px-Logo" fill="#FFFFFF"></path>
                    </g>
                </g>
            </g>
        </g>
    </g>
</svg>