<?xml version="1.0" standalone="no"?>
<!DOCTYPE svg PUBLIC "-//W3C//DTD SVG 1.1//EN" "http://www.w3.org/Graphics/SVG/1.1/DTD/svg11.dtd" >
<svg xmlns="http://www.w3.org/2000/svg" width="100%" height="100%">
<metadata>
Created by FontXChange 20110222 at Sat Mar 14 14:18:21 2015
 By Bradley Siefert
Copyright (C) 2004 Hoefler &#38; Frere-Jones Typography, Inc. www.typography.com
</metadata>
<defs>
<font id="WhitneyHTF-Book" horiz-adv-x="523" >
  <font-face 
    font-family="Whitney HTF"
    font-weight="400"
    font-stretch="normal"
    units-per-em="1000"
    panose-1="2 0 5 3 0 0 0 0 0 0"
    ascent="800"
    descent="-200"
    x-height="473"
    cap-height="690"
    bbox="-76 -200 980 939"
    underline-thickness="20"
    underline-position="-133"
    stemh="62"
    stemv="69"
    unicode-range="U+0020-FFFD"
  />
<missing-glyph horiz-adv-x="500" 
 />
    <glyph glyph-name=".notdef" unicode="&#xfffd;" horiz-adv-x="500" 
 />
    <glyph glyph-name="space" unicode=" " horiz-adv-x="226" 
 />
    <glyph glyph-name="exclam" unicode="!" horiz-adv-x="268" 
d="M174 690l-20 -490l-40 -9l-20 499h80zM173 0h-78v98h78v-98z" />
    <glyph glyph-name="quotedbl" unicode="&#x22;" horiz-adv-x="387" 
d="M317 676l-21 -195l-37 8l-22 187h80zM149 676l-21 -195l-38 8l-20 187h79z" />
    <glyph glyph-name="numbersign" unicode="#" horiz-adv-x="648" 
d="M206 180l-29 -187l-52 11l28 176h-109v56h118l32 204h-121l-9 56h139l29 182h53l-29 -182h185l30 187l51 -11l-28 -176h110v-56h-119l-32 -204h121l9 -56h-139l-28 -182h-53l28 182h-185zM247 440l-32 -204h185l32 204h-185z" />
    <glyph glyph-name="dollar" unicode="$" horiz-adv-x="536" 
d="M346 674c39 -6 74 -17 103 -30l-10 -62c-30 15 -65 29 -102 36l-39 -245c124 -44 178 -95 178 -189c0 -113 -82 -188 -219 -188h-17l-19 -119l-48 11l18 113c-52 7 -98 23 -137 40l9 62c41 -21 87 -38 138 -47l42 273c-116 40 -175 83 -175 179c0 108 82 172 205 172
c8 0 16 0 24 -1l12 76l49 -12zM248 51h15c100 0 152 53 152 128c0 59 -25 98 -126 135zM289 625c-8 1 -15 1 -23 1c-91 0 -137 -48 -137 -113c0 -64 35 -92 123 -124z" />
    <glyph glyph-name="percent" unicode="%" horiz-adv-x="880" 
d="M366 494c0 -118 -67 -190 -154 -190c-88 0 -155 72 -155 190c0 117 67 190 155 190c87 0 154 -73 154 -190zM681 670l-432 -677l-51 13l431 677zM307 494c0 79 -34 141 -96 141s-95 -61 -95 -141s35 -142 97 -142s94 62 94 142zM823 182c0 -117 -68 -190 -155 -190
s-154 73 -154 190s67 190 154 190s155 -73 155 -190zM763 182c0 80 -33 142 -95 142c-63 0 -95 -62 -95 -142c0 -79 34 -141 96 -141s94 61 94 141z" />
    <glyph glyph-name="ampersand" unicode="&#x26;" horiz-adv-x="683" 
d="M671 11l-71 -17l-111 110c-58 -75 -134 -115 -226 -115c-135 0 -219 74 -219 186c0 104 69 167 164 211c-47 50 -72 92 -72 155c0 89 68 160 180 160c61 0 115 -16 163 -43l-13 -69c-52 33 -104 52 -152 52c-70 0 -109 -42 -109 -97c0 -49 22 -83 74 -136l202 -205
c25 52 45 118 56 199l63 -13c-16 -91 -40 -169 -75 -230zM447 147l-197 197c-86 -36 -136 -92 -136 -163c0 -76 61 -133 150 -133c70 0 133 32 183 99z" />
    <glyph glyph-name="quotesingle" unicode="'" horiz-adv-x="219" 
d="M149 676l-21 -195l-38 8l-20 187h79z" />
    <glyph glyph-name="parenleft" unicode="(" horiz-adv-x="398" 
d="M349 -82l-66 -14c-131 115 -213 236 -213 407c0 176 89 311 253 416l11 -62c-131 -92 -194 -202 -194 -356c0 -148 69 -268 209 -391z" />
    <glyph glyph-name="parenright" unicode=")" horiz-adv-x="398" 
d="M328 316c0 -177 -89 -311 -253 -416l-11 62c131 92 195 201 195 356c0 148 -70 267 -210 391l66 14c131 -115 213 -236 213 -407z" />
    <glyph glyph-name="asterisk" unicode="*" horiz-adv-x="406" 
d="M357 576l-116 -51l64 -112l-17 -12l-85 97l-85 -97l-18 12l64 112l-115 51l6 20l124 -26l12 126h23l12 -126l124 26z" />
    <glyph glyph-name="plus" unicode="+" horiz-adv-x="570" 
d="M512 311h-198v-202h-58v202h-199v54h199v202h58v-202h198v-54z" />
    <glyph glyph-name="comma" unicode="," horiz-adv-x="219" 
d="M164 98l-96 -231l-35 9l51 222h80z" />
    <glyph glyph-name="hyphen" unicode="-" horiz-adv-x="364" 
d="M303 250h-242v66h242v-66z" />
    <glyph glyph-name="period" unicode="." horiz-adv-x="219" 
d="M148 0h-77v98h77v-98z" />
    <glyph glyph-name="slash" unicode="/" horiz-adv-x="517" 
d="M496 684l-472 -808l-59 12l472 809z" />
    <glyph glyph-name="zero" unicode="0" horiz-adv-x="616" 
d="M556 339c0 -215 -96 -352 -248 -352c-153 0 -248 136 -248 350c0 215 96 352 248 352c153 0 248 -136 248 -350zM488 338c0 177 -64 292 -180 292s-180 -115 -180 -292s64 -292 180 -292s180 115 180 292z" />
    <glyph glyph-name="one" unicode="1" horiz-adv-x="355" 
d="M249 0h-66v607l-145 -58l-9 54l166 76h54v-679z" />
    <glyph glyph-name="two" unicode="2" horiz-adv-x="535" 
d="M476 0h-426v49l249 265c72 77 97 124 97 187c0 81 -50 128 -134 128c-70 0 -131 -35 -184 -81l-10 66c50 42 115 75 198 75c125 0 199 -73 199 -184c0 -83 -35 -141 -118 -228l-209 -218h329z" />
    <glyph glyph-name="three" unicode="3" 
d="M464 183c0 -115 -94 -196 -230 -196c-73 0 -141 22 -189 53l11 66c58 -40 110 -59 182 -59c96 0 157 53 157 135c0 88 -60 145 -196 145h-30l-9 59h46c116 0 176 50 176 129c0 66 -46 114 -136 114c-71 0 -130 -26 -181 -65l-9 63c52 37 112 62 193 62
c137 0 202 -79 202 -171c0 -88 -58 -136 -129 -160c87 -25 142 -80 142 -175z" />
    <glyph glyph-name="four" unicode="4" horiz-adv-x="593" 
d="M560 160h-111v-160h-62v160h-346v47l327 472h81v-464h111v-55zM387 215v391l-273 -391h273z" />
    <glyph glyph-name="five" unicode="5" horiz-adv-x="534" 
d="M480 208c0 -139 -110 -220 -245 -220c-77 0 -137 20 -184 49l10 64c51 -32 106 -55 177 -55c94 0 175 53 175 159c0 89 -57 145 -161 145c-54 0 -91 -10 -126 -25l-45 11l24 340h340l10 -59h-294l-16 -227c29 10 64 19 113 19c137 0 222 -78 222 -201z" />
    <glyph glyph-name="six" unicode="6" horiz-adv-x="568" 
d="M131 346c55 38 115 61 183 61c125 0 206 -78 206 -202c0 -130 -95 -218 -221 -218c-138 0 -238 108 -238 287c0 229 141 357 352 416l9 -61c-159 -44 -267 -131 -291 -283zM127 281v-4c0 -137 70 -232 173 -232c92 0 152 62 152 157c0 87 -49 147 -149 147
c-65 0 -124 -27 -176 -68z" />
    <glyph glyph-name="seven" unicode="7" horiz-adv-x="532" 
d="M478 626l-280 -633l-64 15l269 608h-348l-9 60h432v-50z" />
    <glyph glyph-name="eight" unicode="8" horiz-adv-x="571" 
d="M312 376c70 35 114 86 114 144c0 65 -53 112 -138 112c-91 0 -138 -54 -138 -112c0 -67 39 -99 162 -144zM261 334c-83 -36 -137 -91 -137 -160c0 -80 68 -130 164 -130c88 0 159 50 159 129c0 76 -44 110 -186 161zM202 357c-70 33 -119 80 -119 162
c0 96 85 170 207 170c123 0 202 -73 202 -166c0 -78 -54 -131 -121 -169c89 -39 143 -89 143 -182c0 -107 -95 -185 -228 -185c-143 0 -229 82 -229 183c0 83 57 144 145 187z" />
    <glyph glyph-name="nine" unicode="9" horiz-adv-x="568" 
d="M435 320c-54 -38 -113 -60 -180 -60c-125 0 -206 80 -206 208c0 126 89 221 221 221c140 0 237 -108 237 -287c0 -228 -144 -363 -361 -416l-10 61c161 36 272 124 299 273zM442 385v14c0 140 -71 232 -173 232c-94 0 -153 -64 -153 -160c0 -91 51 -152 150 -152
c63 0 124 25 176 66z" />
    <glyph glyph-name="colon" unicode=":" horiz-adv-x="227" 
d="M153 376h-78v97h78v-97zM153 0h-78v98h78v-98z" />
    <glyph glyph-name="semicolon" unicode=";" horiz-adv-x="227" 
d="M159 376h-78v97h78v-97zM159 98l-96 -231l-36 9l52 222h80z" />
    <glyph glyph-name="less" unicode="&#x3c;" horiz-adv-x="570" 
d="M496 89l-438 223v52l438 223v-64l-370 -184l370 -185v-65z" />
    <glyph glyph-name="equal" unicode="=" horiz-adv-x="604" 
d="M527 418h-450v60h450v-60zM527 198h-450v60h450v-60z" />
    <glyph glyph-name="greater" unicode="&#x3e;" horiz-adv-x="570" 
d="M512 312l-438 -223v64l370 184l-370 185v65l438 -223v-52z" />
    <glyph glyph-name="question" unicode="?" horiz-adv-x="498" 
d="M442 533c0 -104 -70 -154 -183 -212l-9 -121l-44 -10l-12 166l28 12c113 55 150 96 150 162c0 70 -52 111 -130 111c-70 0 -131 -29 -186 -73l-9 67c53 40 121 68 198 68c115 0 197 -65 197 -170zM267 0h-78v98h78v-98z" />
    <glyph glyph-name="at" unicode="@" horiz-adv-x="841" 
d="M489 196l28 180c-21 9 -38 14 -63 14c-75 0 -147 -77 -147 -202c0 -58 22 -86 57 -86c36 0 72 29 125 94zM488 139c-50 -58 -88 -87 -137 -87c-55 0 -102 45 -102 131c0 151 100 255 210 255c43 0 84 -12 120 -27l-32 -205c-2 -11 -4 -31 -4 -50c0 -39 22 -68 69 -68
c72 0 136 77 136 223c0 182 -111 284 -285 284c-205 0 -371 -168 -371 -411c0 -199 117 -295 290 -295c83 0 157 18 216 48l5 -29c-56 -28 -135 -48 -225 -48c-200 0 -322 116 -322 323c0 252 178 442 410 442c198 0 316 -122 316 -313c0 -164 -78 -260 -178 -260
c-62 0 -107 32 -116 87z" />
    <glyph glyph-name="A" unicode="A" horiz-adv-x="691" 
d="M652 8l-67 -15l-89 230h-302l-85 -223h-70l272 694h71zM473 284l-128 329l-126 -329h254z" />
    <glyph glyph-name="B" unicode="B" horiz-adv-x="547" 
d="M496 199c0 -132 -97 -199 -245 -199h-159v690h160c142 0 213 -69 213 -172c0 -74 -42 -125 -105 -151c82 -23 136 -76 136 -168zM397 515c0 72 -48 115 -147 115h-90v-240h88c98 0 149 53 149 125zM428 195c0 94 -67 138 -175 138h-93v-273h97c105 0 171 49 171 135z" />
    <glyph glyph-name="C" unicode="C" horiz-adv-x="648" 
d="M584 56c-52 -39 -128 -69 -210 -69c-187 0 -313 144 -313 357c0 212 128 359 318 359c78 0 142 -23 194 -59l-11 -70c-54 39 -114 67 -184 67c-152 0 -246 -120 -246 -295c0 -177 95 -296 245 -296c74 0 141 29 197 72z" />
    <glyph glyph-name="D" unicode="D" horiz-adv-x="701" 
d="M639 346c0 -212 -140 -346 -362 -346h-185v690h188c230 0 359 -139 359 -344zM568 345c0 186 -115 283 -287 283h-120v-566h120c175 0 287 94 287 283z" />
    <glyph glyph-name="E" unicode="E" horiz-adv-x="504" 
d="M462 0h-370v690h360v-62h-291v-236h230l10 -62h-240v-268h301v-62z" />
    <glyph glyph-name="F" unicode="F" horiz-adv-x="477" 
d="M438 628h-277v-247h222l10 -62h-232v-319h-69v690h346v-62z" />
    <glyph glyph-name="G" unicode="G" horiz-adv-x="694" 
d="M612 57c-64 -42 -138 -70 -227 -70c-204 0 -324 146 -324 357c0 212 125 359 318 359c85 0 151 -22 204 -60l-12 -71c-51 41 -114 69 -193 69c-154 0 -246 -118 -246 -296s92 -295 254 -295c65 0 112 15 158 43v207h-166l-10 62h244v-305z" />
    <glyph glyph-name="H" unicode="H" horiz-adv-x="705" 
d="M613 0h-69v330h-383v-330h-69v690h69v-298h383v298h69v-690z" />
    <glyph glyph-name="I" unicode="I" horiz-adv-x="268" 
d="M168 0h-69v690h69v-690z" />
    <glyph glyph-name="J" unicode="J" horiz-adv-x="364" 
d="M276 168c0 -119 -73 -174 -178 -174c-22 0 -44 3 -61 6l-10 64c21 -6 45 -10 72 -10c68 0 108 37 108 115v521h69v-522z" />
    <glyph glyph-name="K" unicode="K" horiz-adv-x="606" 
d="M589 9l-74 -16l-354 363v-356h-69v690h69v-314l323 314h86l-332 -321z" />
    <glyph glyph-name="L" unicode="L" horiz-adv-x="466" 
d="M437 0h-345v690h69v-628h266z" />
    <glyph glyph-name="M" unicode="M" horiz-adv-x="907" 
d="M831 0h-67l-45 589l-239 -593h-54l-240 593l-45 -589h-64l55 690h85l237 -602l238 602h84z" />
    <glyph glyph-name="N" unicode="N" horiz-adv-x="705" 
d="M613 0h-53l-403 581v-581h-65v690h65l391 -563v563h65v-690z" />
    <glyph glyph-name="O" unicode="O" horiz-adv-x="745" 
d="M684 346c0 -211 -127 -359 -313 -359c-184 0 -310 146 -310 357c0 212 128 359 312 359c186 0 311 -146 311 -357zM613 344c0 177 -96 297 -241 297s-240 -120 -240 -295c0 -177 96 -297 241 -297s240 120 240 295z" />
    <glyph glyph-name="P" unicode="P" horiz-adv-x="533" 
d="M489 496c0 -136 -101 -205 -242 -205h-86v-291h-69v690h171c139 0 226 -70 226 -194zM419 494c0 89 -56 135 -161 135h-97v-277h89c105 0 169 46 169 142z" />
    <glyph glyph-name="Q" unicode="Q" horiz-adv-x="747" 
d="M684 346c0 -184 -95 -313 -238 -345l217 -81l-13 -65l-363 141c-142 55 -226 163 -226 348c0 212 128 359 312 359c186 0 311 -146 311 -357zM613 344c0 178 -96 297 -241 297c-146 0 -240 -118 -240 -296s96 -299 241 -299c146 0 240 120 240 298z" />
    <glyph glyph-name="R" unicode="R" horiz-adv-x="567" 
d="M419 498c0 84 -54 131 -154 131h-104v-265h92c102 0 166 46 166 134zM325 314l219 -306l-70 -15l-224 312h-89v-305h-69v690h176c135 0 221 -68 221 -188c0 -107 -69 -168 -164 -188z" />
    <glyph glyph-name="S" unicode="S" horiz-adv-x="512" 
d="M458 182c0 -118 -93 -190 -214 -190c-77 0 -139 19 -183 43l10 70c42 -27 106 -52 176 -52c81 0 142 46 142 124c0 68 -34 102 -139 148c-132 58 -180 102 -180 200c0 104 84 173 198 173c65 0 116 -15 152 -36l-10 -69c-39 26 -87 44 -145 44c-81 0 -126 -48 -126 -108
c0 -63 33 -93 139 -140c128 -56 180 -106 180 -207z" />
    <glyph glyph-name="T" unicode="T" horiz-adv-x="581" 
d="M553 628h-226v-628h-68v628h-224v62h508z" />
    <glyph glyph-name="U" unicode="U" horiz-adv-x="681" 
d="M600 263c0 -167 -99 -274 -261 -274s-258 108 -258 269v432h69v-423c0 -128 63 -216 190 -216c124 0 191 81 191 212v427h69v-427z" />
    <glyph glyph-name="V" unicode="V" horiz-adv-x="680" 
d="M641 690l-271 -694h-62l-269 686l68 15l233 -612l229 605h72z" />
    <glyph glyph-name="W" unicode="W" horiz-adv-x="1026" 
d="M980 690l-208 -691h-60l-200 596l-199 -596h-58l-207 683l68 15l172 -591l190 584h71l192 -584l170 584h69z" />
    <glyph glyph-name="X" unicode="X" horiz-adv-x="635" 
d="M279 360l-219 321l68 14l190 -282l183 277h75l-221 -328l241 -353l-68 -15s-211 315 -212 315c0 1 -205 -309 -205 -309h-75z" />
    <glyph glyph-name="Y" unicode="Y" horiz-adv-x="628" 
d="M595 690l-248 -403v-287h-69v286l-244 397l68 14l212 -350l206 343h75z" />
    <glyph glyph-name="Z" unicode="Z" horiz-adv-x="608" 
d="M555 0h-498v49l408 582h-379l-9 59h471v-49l-407 -582h405z" />
    <glyph glyph-name="bracketleft" unicode="[" horiz-adv-x="407" 
d="M351 -105h-254v795h250v-52h-186v-691h182z" />
    <glyph glyph-name="backslash" unicode="\" horiz-adv-x="517" 
d="M552 -112l-59 -13l-472 809l59 12z" />
    <glyph glyph-name="bracketright" unicode="]" horiz-adv-x="407" 
d="M309 -105h-249v52h186v691h-182l-9 52h254v-795z" />
    <glyph glyph-name="asciicircum" unicode="^" horiz-adv-x="456" 
d="M358 555l-36 -8l-95 85l-92 -82h-42l105 145h61z" />
    <glyph glyph-name="underscore" unicode="_" horiz-adv-x="466" 
d="M465 -105h-464v54h464v-54z" />
    <glyph glyph-name="grave" unicode="`" horiz-adv-x="456" 
d="M312 550h-46l-136 134l86 19z" />
    <glyph glyph-name="a" unicode="a" horiz-adv-x="489" 
d="M416 0h-50l-11 63c-44 -41 -99 -73 -167 -73c-82 0 -141 45 -141 129c0 111 90 163 304 184v31c0 64 -38 91 -98 91c-56 0 -111 -17 -163 -42l-9 59c55 24 109 41 176 41c105 0 159 -49 159 -146v-337zM351 117v134c-186 -19 -238 -64 -238 -128c0 -51 35 -77 85 -77
c51 0 107 28 153 71z" />
    <glyph glyph-name="b" unicode="b" horiz-adv-x="528" 
d="M479 250c0 -173 -99 -256 -230 -256c-66 0 -119 13 -172 31v681l66 12v-307c34 37 80 72 146 72c103 0 190 -75 190 -233zM412 247c0 115 -55 177 -130 177c-53 0 -97 -33 -139 -82v-272c30 -12 61 -19 109 -19c94 0 160 61 160 196z" />
    <glyph glyph-name="c" unicode="c" horiz-adv-x="466" 
d="M422 44c-46 -36 -97 -54 -160 -54c-121 0 -214 90 -214 246c0 159 96 247 216 247c64 0 115 -20 154 -48l-11 -66c-45 38 -90 57 -144 57c-90 0 -148 -73 -148 -189c0 -117 58 -189 154 -189c50 0 95 14 144 56z" />
    <glyph glyph-name="d" unicode="d" horiz-adv-x="531" 
d="M454 0h-50l-12 69c-36 -43 -83 -79 -152 -79c-104 0 -191 74 -191 233c0 173 101 257 216 257c48 0 90 -9 123 -24v250l66 12v-718zM388 134v261c-37 19 -72 28 -121 28c-85 0 -151 -64 -151 -197c0 -115 55 -177 130 -177c56 0 100 34 142 85z" />
    <glyph glyph-name="e" unicode="e" horiz-adv-x="491" 
d="M443 246v-14h-329c2 -116 56 -185 151 -185c63 0 118 28 167 70l10 -60c-47 -40 -108 -67 -181 -67c-124 0 -213 84 -213 247c0 152 88 246 204 246c129 0 191 -106 191 -237zM375 284c-7 85 -47 146 -123 146c-74 0 -122 -55 -135 -146h258z" />
    <glyph glyph-name="f" unicode="f" horiz-adv-x="298" 
d="M281 652c-9 2 -22 3 -40 3c-45 0 -72 -20 -72 -72v-110h97l9 -56h-106v-417h-65v417h-72v56h72v115c0 87 52 127 133 127c17 0 25 -1 34 -2z" />
    <glyph glyph-name="g" unicode="g" horiz-adv-x="502" 
d="M184 47c-65 -30 -96 -62 -96 -100c0 -49 62 -77 155 -77c96 0 158 37 158 84c0 37 -30 57 -114 73l-46 8c-24 5 -40 8 -57 12zM345 322c0 63 -46 112 -114 112c-67 0 -110 -49 -110 -114c0 -61 43 -110 112 -110s112 48 112 112zM351 443l118 38l11 -65l-95 -10
c16 -24 25 -52 25 -84c0 -100 -83 -161 -177 -161c-14 0 -28 1 -41 4c-20 -11 -31 -23 -31 -34c0 -19 19 -26 106 -42l35 -7c105 -19 162 -50 162 -120c0 -91 -103 -142 -225 -142s-216 41 -216 123c0 48 37 89 108 126c-24 14 -35 31 -35 49c0 25 17 44 47 63
c-52 26 -87 76 -87 141c0 100 83 161 175 161c47 0 88 -14 120 -40z" />
    <glyph glyph-name="h" unicode="h" 
d="M450 0h-66v326c0 61 -28 98 -88 98c-50 0 -101 -31 -153 -82v-342h-66v706l66 12v-312c49 43 102 77 166 77c94 0 141 -54 141 -144v-339z" />
    <glyph glyph-name="i" unicode="i" horiz-adv-x="233" 
d="M164 634c0 -26 -21 -48 -47 -48s-48 22 -48 48s22 48 48 48s47 -22 47 -48zM149 0h-65v473h65v-473z" />
    <glyph glyph-name="j" unicode="j" horiz-adv-x="233" 
d="M164 634c0 -26 -21 -48 -47 -48s-48 22 -48 48s22 48 48 48s47 -22 47 -48zM149 -73c0 -75 -45 -107 -107 -107c-13 0 -30 1 -38 3l-10 59c12 -3 25 -4 39 -4c32 0 51 16 51 56v539h65v-546z" />
    <glyph glyph-name="k" unicode="k" horiz-adv-x="466" 
d="M450 6l-72 -13l-235 258v-251h-66v706l66 12v-448l207 203h83l-220 -211z" />
    <glyph glyph-name="l" unicode="l" horiz-adv-x="234" 
d="M149 0h-65v706l65 12v-718z" />
    <glyph glyph-name="m" unicode="m" horiz-adv-x="819" 
d="M746 0h-66v326c0 61 -25 98 -86 98c-49 0 -98 -30 -150 -81v-343h-65v326c0 61 -25 98 -86 98c-49 0 -99 -30 -150 -80v-344h-66v473h51l11 -68c51 45 104 78 167 78c73 0 113 -30 130 -82c52 47 107 82 172 82c94 0 138 -54 138 -144v-339z" />
    <glyph glyph-name="n" unicode="n" 
d="M450 0h-66v326c0 61 -28 98 -88 98c-50 0 -101 -31 -153 -82v-342h-66v473h51l11 -70c52 46 106 80 170 80c94 0 141 -54 141 -145v-338z" />
    <glyph glyph-name="o" unicode="o" 
d="M475 236c0 -156 -94 -246 -215 -246s-212 90 -212 246c0 157 93 247 212 247c123 0 215 -90 215 -247zM407 236c0 109 -52 191 -147 191c-94 0 -145 -79 -145 -191c0 -109 52 -190 145 -190c96 0 147 78 147 190z" />
    <glyph glyph-name="p" unicode="p" horiz-adv-x="531" 
d="M482 250c0 -173 -101 -256 -216 -256c-47 0 -89 9 -123 23v-189l-66 -11v656h51l11 -68c37 42 84 78 153 78c103 0 190 -75 190 -233zM415 247c0 115 -55 177 -130 177c-56 0 -99 -33 -142 -85v-261c37 -18 72 -28 121 -28c85 0 151 65 151 197z" />
    <glyph glyph-name="q" unicode="q" horiz-adv-x="528" 
d="M451 -172l-66 -11v245c-34 -37 -80 -72 -146 -72c-103 0 -190 74 -190 233c0 173 99 257 230 257c66 0 119 -14 172 -31v-621zM385 132v271c-30 11 -61 20 -109 20c-94 0 -160 -62 -160 -197c0 -115 55 -177 130 -177c53 0 98 34 139 83z" />
    <glyph glyph-name="r" unicode="r" horiz-adv-x="344" 
d="M320 421c-78 -5 -145 -61 -177 -124v-297h-66v473h49l15 -97c35 53 90 105 168 107z" />
    <glyph glyph-name="s" unicode="s" horiz-adv-x="438" 
d="M391 128c0 -86 -67 -137 -176 -137c-63 0 -129 20 -170 43l11 64c44 -28 102 -51 165 -51c66 0 107 28 107 76c0 47 -28 68 -122 93c-105 27 -150 61 -150 139c0 74 63 128 161 128c56 0 105 -13 147 -32l-11 -63c-43 23 -91 37 -138 37c-65 0 -96 -28 -96 -67
s26 -59 106 -80c112 -30 166 -66 166 -150z" />
    <glyph glyph-name="t" unicode="t" horiz-adv-x="330" 
d="M289 0c-14 -4 -38 -8 -66 -8c-74 0 -123 29 -123 116v309h-73v56h73v164l65 11v-175h109l9 -56h-118v-298c0 -48 19 -69 70 -69c15 0 33 3 44 5z" />
    <glyph glyph-name="u" unicode="u" 
d="M446 0h-51l-11 70c-52 -46 -106 -80 -170 -80c-95 0 -141 55 -141 145v338h66v-326c0 -61 28 -97 88 -97c50 0 101 30 153 81v342h66v-473z" />
    <glyph glyph-name="v" unicode="v" horiz-adv-x="470" 
d="M440 473l-175 -477h-62l-172 471l65 12l140 -402l136 396h68z" />
    <glyph glyph-name="w" unicode="w" horiz-adv-x="730" 
d="M698 473l-157 -476h-56l-119 388l-120 -388h-55l-157 472l64 12l122 -393l118 387h58l118 -387l118 385h66z" />
    <glyph glyph-name="x" unicode="x" horiz-adv-x="470" 
d="M435 5l-65 -12l-136 202l-128 -195h-71l165 243l-155 225l65 13l125 -187l120 179h71l-156 -228z" />
    <glyph glyph-name="y" unicode="y" horiz-adv-x="480" 
d="M450 473l-200 -532c-34 -92 -76 -121 -146 -121c-10 0 -19 2 -26 3l-9 58c10 -2 24 -4 39 -4c39 0 62 17 80 63l22 57l-179 470l64 12l147 -403l140 397h68z" />
    <glyph glyph-name="z" unicode="z" horiz-adv-x="449" 
d="M407 0h-366v51l282 367h-258l-9 55h343v-51l-282 -367h281z" />
    <glyph glyph-name="braceleft" unicode="{" horiz-adv-x="469" 
d="M414 -105h-96c-98 0 -143 46 -143 130c0 46 12 90 12 139c0 78 -45 103 -106 103h-29l-8 51h38c61 0 105 24 105 102c0 48 -12 92 -12 138c0 85 45 132 143 132h91v-52h-89c-57 0 -82 -30 -82 -79c0 -41 13 -94 13 -138c0 -82 -41 -114 -101 -128v-2
c60 -14 101 -45 101 -128c0 -44 -13 -98 -13 -139c0 -48 22 -77 81 -77h86z" />
    <glyph glyph-name="bar" unicode="|" horiz-adv-x="267" 
d="M163 -179l-59 -10v902l59 10v-902z" />
    <glyph glyph-name="braceright" unicode="}" horiz-adv-x="469" 
d="M425 268h-38c-61 0 -105 -25 -105 -104c0 -48 13 -91 13 -138c0 -84 -45 -131 -143 -131h-92v52h89c58 0 83 29 83 78c0 41 -14 95 -14 138c0 83 41 115 102 128v2c-61 14 -102 46 -102 129c0 44 14 98 14 139c0 49 -24 77 -82 77h-86l-9 52h97c98 0 143 -45 143 -130
c0 -46 -13 -91 -13 -139c0 -78 45 -103 106 -103h30z" />
    <glyph glyph-name="asciitilde" unicode="~" horiz-adv-x="408" 
d="M352 328c-10 -67 -37 -102 -76 -102c-27 0 -44 8 -75 25c-35 19 -49 26 -64 26c-16 0 -28 -15 -36 -53l-45 9c10 68 37 103 76 103c27 0 44 -9 75 -26c36 -18 49 -25 65 -25c15 0 27 15 36 53z" />
    <glyph glyph-name="nbspace" unicode="&#xa0;" horiz-adv-x="113" 
 />
    <glyph glyph-name="exclamdown" unicode="&#xa1;" horiz-adv-x="268" 
d="M173 592h-78v98h78v-98zM174 0h-80l20 490l40 9z" />
    <glyph glyph-name="cent" unicode="&#xa2;" horiz-adv-x="489" 
d="M256 96l-17 -106l-48 11l17 104c-88 26 -152 107 -152 231c0 151 96 243 222 243h3l17 106l49 -11l-16 -100c39 -7 71 -21 97 -40l-10 -61c-31 24 -62 40 -96 48l-59 -371h15c52 0 97 15 146 53l8 -56c-45 -33 -98 -51 -161 -51h-15zM217 161l56 364
c-95 -2 -154 -72 -154 -188c0 -91 38 -152 98 -176z" />
    <glyph glyph-name="sterling" unicode="&#xa3;" horiz-adv-x="544" 
d="M159 362l47 151c38 119 97 176 206 176c30 0 54 -4 79 -10l-10 -60c-23 6 -44 9 -75 9c-74 0 -111 -41 -140 -133l-42 -133h184l9 -59h-211l-76 -244h355l9 -59h-433v47l80 256h-80v59h98z" />
    <glyph glyph-name="yen" unicode="&#xa5;" horiz-adv-x="614" 
d="M337 243v-92h167v-52h-167v-99h-61v99h-163l-10 52h173v92h-169v51h159l-222 373l64 16l200 -350l194 343h72l-227 -382h152l9 -51h-171z" />
    <glyph glyph-name="Scaron" unicode="&#x160;" horiz-adv-x="512" 
d="M458 182c0 -118 -93 -190 -214 -190c-77 0 -139 19 -183 43l10 70c42 -27 106 -52 176 -52c81 0 142 46 142 124c0 68 -34 102 -139 148c-132 58 -180 102 -180 200c0 104 84 173 198 173c65 0 116 -15 152 -36l-10 -69c-39 26 -87 44 -145 44c-81 0 -126 -48 -126 -108
c0 -63 33 -93 139 -140c128 -56 180 -106 180 -207zM391 900l-104 -145h-62l-99 140l36 8l95 -87l92 84h42z" />
    <glyph glyph-name="section" unicode="&#xa7;" horiz-adv-x="553" 
d="M496 354c0 -39 -16 -70 -33 -93l-55 11c15 21 27 47 27 73c0 38 -25 58 -101 77l-75 20c-96 24 -144 51 -144 121s67 121 160 121c60 0 104 -9 154 -29l-10 -61c-45 23 -95 36 -147 36c-61 0 -94 -28 -94 -64c0 -34 24 -50 92 -69l94 -24c86 -23 132 -55 132 -119z
M57 322c0 39 16 70 33 93l55 -11c-15 -21 -27 -47 -27 -73c0 -38 25 -58 100 -77l76 -20c96 -24 144 -51 144 -121s-67 -121 -160 -121c-60 0 -104 9 -154 29l10 61c45 -23 95 -36 147 -36c61 0 94 28 94 64c0 34 -24 50 -92 69l-94 24c-86 23 -132 55 -132 119z" />
    <glyph glyph-name="scaron" unicode="&#x161;" horiz-adv-x="438" 
d="M391 128c0 -86 -67 -137 -176 -137c-63 0 -129 20 -170 43l11 64c44 -28 102 -51 165 -51c66 0 107 28 107 76c0 47 -28 68 -122 93c-105 27 -150 61 -150 139c0 74 63 128 161 128c56 0 105 -13 147 -32l-11 -63c-43 23 -91 37 -138 37c-65 0 -96 -28 -96 -67
s26 -59 106 -80c112 -30 166 -66 166 -150zM352 695l-104 -145h-62l-99 140l36 8l95 -87l92 84h42z" />
    <glyph glyph-name="copyright" unicode="&#xa9;" horiz-adv-x="806" 
d="M747 345c0 -210 -137 -358 -344 -358s-345 147 -345 358c0 210 138 358 344 358c207 0 345 -147 345 -358zM713 345c0 200 -128 329 -311 329c-184 0 -309 -129 -309 -329s127 -329 311 -329s309 129 309 329zM537 187c-35 -25 -79 -42 -126 -42c-106 0 -180 83 -180 203
s75 204 181 204c46 0 84 -14 118 -36l-9 -54c-36 28 -70 41 -109 41c-78 0 -128 -63 -128 -155s51 -155 128 -155c40 0 77 15 117 45z" />
    <glyph glyph-name="ordfeminine" unicode="&#xaa;" horiz-adv-x="393" 
d="M313 359h-40l-6 38c-28 -24 -64 -44 -106 -44c-57 0 -95 33 -95 87c0 73 63 111 197 123v17c0 39 -23 56 -63 56c-35 0 -68 -10 -105 -27l-7 46c37 15 72 25 116 25c71 0 109 -31 109 -98v-223zM321 230h-252v47h245zM263 439v83c-115 -9 -147 -40 -147 -79
c0 -29 20 -47 53 -47c32 0 64 17 94 43z" />
    <glyph glyph-name="guillemotleft" unicode="&#xab;" horiz-adv-x="514" 
d="M460 473l-144 -236l141 -230l-51 -12l-165 242l163 236h56zM259 473l-144 -236l140 -230l-51 -12l-165 242l163 236h57z" />
    <glyph glyph-name="logicalnot" unicode="&#xac;" horiz-adv-x="570" 
d="M512 309h-455v58h455v-58z" />
    <glyph glyph-name="registered" unicode="&#xae;" horiz-adv-x="566" 
d="M510 467c0 -136 -93 -232 -227 -232c-135 0 -227 96 -227 233c0 136 93 232 227 232c135 0 227 -96 227 -233zM484 467c0 127 -85 210 -201 210c-117 0 -200 -83 -200 -209c0 -127 84 -210 200 -210c117 0 201 83 201 209zM390 353l-39 -9l-77 110h-28v-107h-37v258h70
c54 0 89 -28 89 -75c0 -38 -23 -62 -54 -71zM331 528c0 28 -19 43 -53 43h-33v-87h32c33 0 54 15 54 44z" />
    <glyph glyph-name="macron" unicode="&#xaf;" horiz-adv-x="456" 
d="M351 578h-246v61h246v-61z" />
    <glyph glyph-name="degree" unicode="&#xb0;" horiz-adv-x="428" 
d="M372 523c0 -92 -67 -158 -158 -158s-159 66 -159 158c0 91 68 158 159 158s158 -67 158 -158zM319 523c0 62 -44 111 -106 111c-61 0 -105 -49 -105 -111c0 -63 45 -111 106 -111c62 0 105 48 105 111z" />
    <glyph glyph-name="plusminus" unicode="&#xb1;" horiz-adv-x="593" 
d="M560 160h-111v-160h-62v160h-346v46l329 476l63 -14l-316 -452h270v187l62 14v-201h111v-56z" />
    <glyph glyph-name="twosuperior" unicode="&#xb2;" horiz-adv-x="500" 
d="M25 -200v1000h450v-1000h-450z" />
    <glyph glyph-name="threesuperior" unicode="&#xb3;" horiz-adv-x="500" 
d="M25 -200v1000h450v-1000h-450z" />
    <glyph glyph-name="Zcaron" unicode="&#x17d;" horiz-adv-x="608" 
d="M555 0h-498v49l408 582h-379l-9 59h471v-49l-407 -582h405zM444 891l-104 -145h-62l-99 140l36 8l95 -87l92 84h42z" />
    <glyph glyph-name="paragraph" unicode="&#xb6;" horiz-adv-x="527" 
d="M430 0h-60v626h-82v-143l-30 -183c-131 5 -215 67 -215 191c0 118 83 185 217 185h170v-676z" />
    <glyph glyph-name="periodcentered" unicode="&#xb7;" horiz-adv-x="214" 
d="M146 234h-78v98h78v-98z" />
    <glyph glyph-name="zcaron" unicode="&#x17e;" horiz-adv-x="449" 
d="M407 0h-366v51l282 367h-258l-9 55h343v-51l-282 -367h281zM361 695l-104 -145h-62l-99 140l36 8l95 -87l92 84h42z" />
    <glyph glyph-name="onesuperior" unicode="&#xb9;" horiz-adv-x="500" 
d="M25 -200v1000h450v-1000h-450z" />
    <glyph glyph-name="ordmasculine" unicode="&#xba;" horiz-adv-x="395" 
d="M339 517c0 -97 -54 -164 -142 -164c-86 0 -142 67 -142 164c0 96 56 163 142 163c88 0 142 -67 142 -163zM331 230h-266v47h258zM286 517c0 64 -28 118 -89 118c-60 0 -89 -53 -89 -118s29 -119 89 -119c61 0 89 53 89 119z" />
    <glyph glyph-name="guillemotright" unicode="&#xbb;" horiz-adv-x="514" 
d="M474 236l-162 -236h-57l144 236l-141 231l52 11zM273 236l-163 -236h-57l145 236l-141 231l51 11z" />
    <glyph glyph-name="OE" unicode="&#x152;" horiz-adv-x="874" 
d="M831 0h-414c-228 0 -358 140 -358 344c0 212 140 346 362 346h400v-62h-288v-236h228l9 -62h-237v-268h298v-62zM464 62v566h-48c-174 0 -287 -94 -287 -283c0 -185 116 -283 288 -283h47z" />
    <glyph glyph-name="oe" unicode="&#x153;" horiz-adv-x="851" 
d="M801 246v-14h-328c2 -116 59 -185 151 -185c63 0 117 28 167 70l9 -60c-47 -39 -107 -67 -180 -67c-85 0 -149 43 -180 116c-33 -73 -96 -116 -181 -116c-120 0 -211 90 -211 246c0 157 93 247 211 247c87 0 150 -42 182 -116c31 72 91 116 172 116
c127 0 188 -106 188 -237zM734 284c-7 85 -47 146 -122 146c-74 0 -124 -55 -136 -146h258zM408 236c0 109 -54 191 -149 191c-93 0 -144 -79 -144 -191c0 -109 52 -190 144 -190c96 0 149 78 149 190z" />
    <glyph glyph-name="Ydieresis" unicode="&#x178;" horiz-adv-x="628" 
d="M595 690l-248 -403v-287h-69v286l-244 397l68 14l212 -350l206 343h75zM442 739h-83v88h83v-88zM269 739h-82v88h82v-88z" />
    <glyph glyph-name="questiondown" unicode="&#xbf;" horiz-adv-x="498" 
d="M309 592h-78v98h78v-98zM451 55c-53 -40 -121 -68 -198 -68c-115 0 -196 65 -196 170c0 104 69 154 182 212l9 121l44 10l12 -166l-28 -12c-113 -55 -150 -96 -150 -162c0 -70 52 -111 130 -111c70 0 131 29 186 73z" />
    <glyph glyph-name="Agrave" unicode="&#xc0;" horiz-adv-x="691" 
d="M652 8l-67 -15l-89 230h-302l-85 -223h-70l272 694h71zM473 284l-128 329l-126 -329h254zM369 746h-46l-136 134l86 19z" />
    <glyph glyph-name="Aacute" unicode="&#xc1;" horiz-adv-x="691" 
d="M507 880l-137 -134h-46l97 153zM652 8l-67 -15l-89 230h-302l-85 -223h-70l272 694h71zM473 284l-128 329l-126 -329h254z" />
    <glyph glyph-name="Acircumflex" unicode="&#xc2;" horiz-adv-x="691" 
d="M652 8l-67 -15l-89 230h-302l-85 -223h-70l272 694h71zM473 284l-128 329l-126 -329h254zM476 741l-36 -8l-95 86l-92 -83h-42l105 145h61z" />
    <glyph glyph-name="Atilde" unicode="&#xc3;" horiz-adv-x="691" 
d="M652 8l-67 -15l-89 230h-302l-85 -223h-70l272 694h71zM473 284l-128 329l-126 -329h254zM494 855c-9 -67 -37 -103 -76 -103c-27 0 -43 8 -75 25c-35 18 -47 26 -63 26s-28 -15 -36 -53l-45 9c10 68 37 104 77 104c27 0 43 -9 75 -26c34 -18 47 -25 63 -25s27 15 36 52z
" />
    <glyph glyph-name="Adieresis" unicode="&#xc4;" horiz-adv-x="691" 
d="M652 8l-67 -15l-89 230h-302l-85 -223h-70l272 694h71zM473 284l-128 329l-126 -329h254zM474 753h-83v88h83v-88zM301 753h-82v88h82v-88z" />
    <glyph glyph-name="Aring" unicode="&#xc5;" horiz-adv-x="691" 
d="M652 8l-67 -15l-89 230h-302l-85 -223h-70l272 694h71zM473 284l-128 329l-126 -329h254zM444 840c0 -56 -42 -96 -98 -96s-98 40 -98 96c0 55 42 99 98 99s98 -44 98 -99zM404 840c0 35 -24 62 -58 62c-33 0 -59 -27 -59 -62s26 -60 59 -60c34 0 58 25 58 60z" />
    <glyph glyph-name="AE" unicode="&#xc6;" horiz-adv-x="869" 
d="M827 0h-368v223h-245l-129 -223h-74l405 690h401v-62h-291v-236h231l9 -62h-240v-268h301v-62zM459 283v358l-209 -358h209z" />
    <glyph glyph-name="Ccedilla" unicode="&#xc7;" horiz-adv-x="648" 
d="M584 56c-52 -39 -128 -69 -210 -69c-187 0 -313 144 -313 357c0 212 128 359 318 359c78 0 142 -23 194 -59l-11 -70c-54 39 -114 67 -184 67c-152 0 -246 -120 -246 -295c0 -177 95 -296 245 -296c74 0 141 29 197 72zM418 -74l-122 -114h-46l84 134z" />
    <glyph glyph-name="Egrave" unicode="&#xc8;" horiz-adv-x="504" 
d="M462 0h-370v690h360v-62h-291v-236h230l10 -62h-240v-268h301v-62zM312 746h-46l-136 134l86 19z" />
    <glyph glyph-name="Eacute" unicode="&#xc9;" horiz-adv-x="504" 
d="M462 0h-370v690h360v-62h-291v-236h230l10 -62h-240v-268h301v-62zM398 880l-137 -134h-46l97 153z" />
    <glyph glyph-name="Ecircumflex" unicode="&#xca;" horiz-adv-x="504" 
d="M462 0h-370v690h360v-62h-291v-236h230l10 -62h-240v-268h301v-62zM397 751l-36 -8l-95 86l-92 -83h-42l105 145h61z" />
    <glyph glyph-name="Edieresis" unicode="&#xcb;" horiz-adv-x="504" 
d="M462 0h-370v690h360v-62h-291v-236h230l10 -62h-240v-268h301v-62zM395 753h-83v88h83v-88zM222 753h-82v88h82v-88z" />
    <glyph glyph-name="Igrave" unicode="&#xcc;" horiz-adv-x="268" 
d="M168 0h-69v690h69v-690zM158 746h-46l-136 134l86 19z" />
    <glyph glyph-name="Iacute" unicode="&#xcd;" horiz-adv-x="268" 
d="M293 880l-137 -134h-46l97 153zM168 0h-69v690h69v-690z" />
    <glyph glyph-name="Icircumflex" unicode="&#xce;" horiz-adv-x="268" 
d="M168 0h-69v690h69v-690zM264 741l-36 -8l-95 86l-92 -83h-42l105 145h61z" />
    <glyph glyph-name="Idieresis" unicode="&#xcf;" horiz-adv-x="268" 
d="M168 0h-69v690h69v-690zM262 753h-83v88h83v-88zM89 753h-82v88h82v-88z" />
    <glyph glyph-name="Eth" unicode="&#xd0;" horiz-adv-x="721" 
d="M660 346c0 -212 -140 -346 -362 -346h-185v331h-76l-10 61h86v298h188c230 0 359 -139 359 -344zM589 345c0 186 -115 283 -287 283h-121v-236h172v-61h-172v-269h121c175 0 287 94 287 283z" />
    <glyph glyph-name="Ntilde" unicode="&#xd1;" horiz-adv-x="705" 
d="M613 0h-53l-403 581v-581h-65v690h65l391 -563v563h65v-690zM502 841c-9 -67 -37 -103 -76 -103c-27 0 -43 8 -75 25c-35 18 -47 26 -63 26s-28 -15 -36 -53l-45 9c10 68 37 104 77 104c27 0 43 -9 75 -26c34 -18 47 -25 63 -25s27 15 36 52z" />
    <glyph glyph-name="Ograve" unicode="&#xd2;" horiz-adv-x="745" 
d="M684 346c0 -211 -127 -359 -313 -359c-184 0 -310 146 -310 357c0 212 128 359 312 359c186 0 311 -146 311 -357zM613 344c0 177 -96 297 -241 297s-240 -120 -240 -295c0 -177 96 -297 241 -297s240 120 240 295zM406 755h-46l-136 134l86 19z" />
    <glyph glyph-name="Oacute" unicode="&#xd3;" horiz-adv-x="745" 
d="M517 889l-137 -134h-46l97 153zM684 346c0 -211 -127 -359 -313 -359c-184 0 -310 146 -310 357c0 212 128 359 312 359c186 0 311 -146 311 -357zM613 344c0 177 -96 297 -241 297s-240 -120 -240 -295c0 -177 96 -297 241 -297s240 120 240 295z" />
    <glyph glyph-name="Ocircumflex" unicode="&#xd4;" horiz-adv-x="745" 
d="M684 346c0 -211 -127 -359 -313 -359c-184 0 -310 146 -310 357c0 212 128 359 312 359c186 0 311 -146 311 -357zM613 344c0 177 -96 297 -241 297s-240 -120 -240 -295c0 -177 96 -297 241 -297s240 120 240 295zM501 755l-36 -8l-95 86l-92 -83h-42l105 145h61z" />
    <glyph glyph-name="Otilde" unicode="&#xd5;" horiz-adv-x="745" 
d="M684 346c0 -211 -127 -359 -313 -359c-184 0 -310 146 -310 357c0 212 128 359 312 359c186 0 311 -146 311 -357zM613 344c0 177 -96 297 -241 297s-240 -120 -240 -295c0 -177 96 -297 241 -297s240 120 240 295zM518 869c-9 -67 -37 -103 -76 -103c-27 0 -43 8 -75 25
c-35 18 -47 26 -63 26s-28 -15 -36 -53l-45 9c10 68 37 104 77 104c27 0 43 -9 75 -26c34 -18 47 -25 63 -25s27 15 36 52z" />
    <glyph glyph-name="Odieresis" unicode="&#xd6;" horiz-adv-x="745" 
d="M684 346c0 -211 -127 -359 -313 -359c-184 0 -310 146 -310 357c0 212 128 359 312 359c186 0 311 -146 311 -357zM613 344c0 177 -96 297 -241 297s-240 -120 -240 -295c0 -177 96 -297 241 -297s240 120 240 295zM499 762h-83v88h83v-88zM326 762h-82v88h82v-88z" />
    <glyph glyph-name="multiply" unicode="&#xd7;" horiz-adv-x="500" 
d="M25 -200v1000h450v-1000h-450z" />
    <glyph glyph-name="Oslash" unicode="&#xd8;" horiz-adv-x="745" 
d="M688 685l-79 -96c48 -61 75 -145 75 -243c0 -211 -127 -359 -313 -359c-77 0 -145 26 -197 73l-56 -68l-61 13l79 95c-48 62 -75 146 -75 244c0 212 128 359 312 359c79 0 145 -26 198 -73l55 68zM530 581c-41 39 -94 61 -158 61c-146 0 -242 -120 -242 -296
c0 -77 18 -143 50 -193zM615 344c0 77 -18 143 -49 193l-351 -428c40 -39 95 -61 158 -61c146 0 242 120 242 296z" />
    <glyph glyph-name="Ugrave" unicode="&#xd9;" horiz-adv-x="681" 
d="M600 263c0 -167 -99 -274 -261 -274s-258 108 -258 269v432h69v-423c0 -128 63 -216 190 -216c124 0 191 81 191 212v427h69v-427zM382 729h-46l-136 134l86 19z" />
    <glyph glyph-name="Uacute" unicode="&#xda;" horiz-adv-x="681" 
d="M482 863l-137 -134h-46l97 153zM600 263c0 -167 -99 -274 -261 -274s-258 108 -258 269v432h69v-423c0 -128 63 -216 190 -216c124 0 191 81 191 212v427h69v-427z" />
    <glyph glyph-name="Ucircumflex" unicode="&#xdb;" horiz-adv-x="681" 
d="M600 263c0 -167 -99 -274 -261 -274s-258 108 -258 269v432h69v-423c0 -128 63 -216 190 -216c124 0 191 81 191 212v427h69v-427zM470 738l-36 -8l-95 86l-92 -83h-42l105 145h61z" />
    <glyph glyph-name="Udieresis" unicode="&#xdc;" horiz-adv-x="681" 
d="M600 263c0 -167 -99 -274 -261 -274s-258 108 -258 269v432h69v-423c0 -128 63 -216 190 -216c124 0 191 81 191 212v427h69v-427zM468 740h-83v88h83v-88zM295 740h-82v88h82v-88z" />
    <glyph glyph-name="Yacute" unicode="&#xdd;" horiz-adv-x="628" 
d="M595 690l-248 -403v-287h-69v286l-244 397l68 14l212 -350l206 343h75zM461 857l-137 -134h-46l97 153z" />
    <glyph glyph-name="Thorn" unicode="&#xde;" horiz-adv-x="537" 
d="M492 358c0 -135 -101 -204 -243 -204h-88v-154h-69v690h69v-138h104c139 0 227 -69 227 -194zM422 356c0 89 -57 136 -161 136h-100v-278h92c105 0 169 47 169 142z" />
    <glyph glyph-name="germandbls" unicode="&#xdf;" horiz-adv-x="603" 
d="M564 145c0 -100 -69 -154 -169 -154c-50 0 -103 13 -146 37l10 62c46 -27 95 -44 142 -44c57 0 100 33 100 93c0 66 -42 122 -225 161l-8 51c59 70 93 131 93 200c0 66 -36 107 -95 107s-97 -44 -97 -115v-543h-65v417h-72v56h72v64c0 109 62 178 162 178
c101 0 161 -60 161 -161c0 -80 -39 -139 -98 -210c157 -37 235 -96 235 -199z" />
    <glyph glyph-name="agrave" unicode="&#xe0;" horiz-adv-x="489" 
d="M416 0h-50l-11 63c-44 -41 -99 -73 -167 -73c-82 0 -141 45 -141 129c0 111 90 163 304 184v31c0 64 -38 91 -98 91c-56 0 -111 -17 -163 -42l-9 59c55 24 109 41 176 41c105 0 159 -49 159 -146v-337zM351 117v134c-186 -19 -238 -64 -238 -128c0 -51 35 -77 85 -77
c51 0 107 28 153 71zM278 550h-46l-136 134l86 19z" />
    <glyph glyph-name="aacute" unicode="&#xe1;" horiz-adv-x="489" 
d="M416 0h-50l-11 63c-44 -41 -99 -73 -167 -73c-82 0 -141 45 -141 129c0 111 90 163 304 184v31c0 64 -38 91 -98 91c-56 0 -111 -17 -163 -42l-9 59c55 24 109 41 176 41c105 0 159 -49 159 -146v-337zM351 117v134c-186 -19 -238 -64 -238 -128c0 -51 35 -77 85 -77
c51 0 107 28 153 71zM388 684l-137 -134h-46l97 153z" />
    <glyph glyph-name="acircumflex" unicode="&#xe2;" horiz-adv-x="489" 
d="M416 0h-50l-11 63c-44 -41 -99 -73 -167 -73c-82 0 -141 45 -141 129c0 111 90 163 304 184v31c0 64 -38 91 -98 91c-56 0 -111 -17 -163 -42l-9 59c55 24 109 41 176 41c105 0 159 -49 159 -146v-337zM351 117v134c-186 -19 -238 -64 -238 -128c0 -51 35 -77 85 -77
c51 0 107 28 153 71zM375 555l-36 -8l-95 86l-92 -83h-42l105 145h61z" />
    <glyph glyph-name="atilde" unicode="&#xe3;" horiz-adv-x="489" 
d="M416 0h-50l-11 63c-44 -41 -99 -73 -167 -73c-82 0 -141 45 -141 129c0 111 90 163 304 184v31c0 64 -38 91 -98 91c-56 0 -111 -17 -163 -42l-9 59c55 24 109 41 176 41c105 0 159 -49 159 -146v-337zM351 117v134c-186 -19 -238 -64 -238 -128c0 -51 35 -77 85 -77
c51 0 107 28 153 71zM393 659c-9 -67 -37 -103 -76 -103c-27 0 -43 8 -75 25c-35 18 -47 26 -63 26s-28 -15 -36 -53l-45 9c10 68 37 104 77 104c27 0 43 -9 75 -26c34 -18 47 -25 63 -25s27 15 36 52z" />
    <glyph glyph-name="adieresis" unicode="&#xe4;" horiz-adv-x="489" 
d="M416 0h-50l-11 63c-44 -41 -99 -73 -167 -73c-82 0 -141 45 -141 129c0 111 90 163 304 184v31c0 64 -38 91 -98 91c-56 0 -111 -17 -163 -42l-9 59c55 24 109 41 176 41c105 0 159 -49 159 -146v-337zM351 117v134c-186 -19 -238 -64 -238 -128c0 -51 35 -77 85 -77
c51 0 107 28 153 71zM375 557h-83v88h83v-88zM202 557h-82v88h82v-88z" />
    <glyph glyph-name="aring" unicode="&#xe5;" horiz-adv-x="489" 
d="M416 0h-50l-11 63c-44 -41 -99 -73 -167 -73c-82 0 -141 45 -141 129c0 111 90 163 304 184v31c0 64 -38 91 -98 91c-56 0 -111 -17 -163 -42l-9 59c55 24 109 41 176 41c105 0 159 -49 159 -146v-337zM351 117v134c-186 -19 -238 -64 -238 -128c0 -51 35 -77 85 -77
c51 0 107 28 153 71zM343 644c0 -56 -42 -96 -98 -96s-98 40 -98 96c0 55 42 99 98 99s98 -44 98 -99zM303 644c0 35 -24 62 -58 62c-33 0 -59 -27 -59 -62s26 -60 59 -60c34 0 58 25 58 60z" />
    <glyph glyph-name="ae" unicode="&#xe6;" horiz-adv-x="790" 
d="M740 246v-14h-328c2 -116 60 -185 151 -185c62 0 117 28 167 70l9 -60c-47 -39 -107 -67 -180 -67c-70 0 -130 30 -169 85c-52 -48 -115 -85 -194 -85c-86 0 -149 46 -149 129c0 108 86 162 300 183v34c0 62 -34 89 -94 89c-56 0 -111 -17 -163 -42l-9 59
c54 24 109 41 173 41c82 0 125 -28 143 -85c34 55 88 85 154 85c128 0 189 -106 189 -237zM673 284c-7 85 -47 146 -122 146c-74 0 -124 -55 -136 -146h258zM366 121c-12 34 -19 73 -19 116v14c-183 -20 -234 -64 -234 -127c0 -49 35 -78 90 -78c57 0 112 28 163 75z" />
    <glyph glyph-name="ccedilla" unicode="&#xe7;" horiz-adv-x="466" 
d="M422 44c-46 -36 -97 -54 -160 -54c-121 0 -214 90 -214 246c0 159 96 247 216 247c64 0 115 -20 154 -48l-11 -66c-45 38 -90 57 -144 57c-90 0 -148 -73 -148 -189c0 -117 58 -189 154 -189c50 0 95 14 144 56zM320 -74l-122 -114h-46l84 134z" />
    <glyph glyph-name="egrave" unicode="&#xe8;" horiz-adv-x="491" 
d="M443 246v-14h-329c2 -116 56 -185 151 -185c63 0 118 28 167 70l10 -60c-47 -40 -108 -67 -181 -67c-124 0 -213 84 -213 247c0 152 88 246 204 246c129 0 191 -106 191 -237zM375 284c-7 85 -47 146 -123 146c-74 0 -122 -55 -135 -146h258zM281 550h-46l-136 134l86 19
z" />
    <glyph glyph-name="eacute" unicode="&#xe9;" horiz-adv-x="491" 
d="M443 246v-14h-329c2 -116 56 -185 151 -185c63 0 118 28 167 70l10 -60c-47 -40 -108 -67 -181 -67c-124 0 -213 84 -213 247c0 152 88 246 204 246c129 0 191 -106 191 -237zM375 284c-7 85 -47 146 -123 146c-74 0 -122 -55 -135 -146h258zM395 684l-137 -134h-46
l97 153z" />
    <glyph glyph-name="ecircumflex" unicode="&#xea;" horiz-adv-x="491" 
d="M443 246v-14h-329c2 -116 56 -185 151 -185c63 0 118 28 167 70l10 -60c-47 -40 -108 -67 -181 -67c-124 0 -213 84 -213 247c0 152 88 246 204 246c129 0 191 -106 191 -237zM375 284c-7 85 -47 146 -123 146c-74 0 -122 -55 -135 -146h258zM382 555l-36 -8l-95 86
l-92 -83h-42l105 145h61z" />
    <glyph glyph-name="edieresis" unicode="&#xeb;" horiz-adv-x="491" 
d="M443 246v-14h-329c2 -116 56 -185 151 -185c63 0 118 28 167 70l10 -60c-47 -40 -108 -67 -181 -67c-124 0 -213 84 -213 247c0 152 88 246 204 246c129 0 191 -106 191 -237zM375 284c-7 85 -47 146 -123 146c-74 0 -122 -55 -135 -146h258zM380 557h-83v88h83v-88z
M207 557h-82v88h82v-88z" />
    <glyph glyph-name="igrave" unicode="&#xec;" horiz-adv-x="233" 
d="M143 550h-39l-116 134l74 19zM151 0h-65v473h65v-473z" />
    <glyph glyph-name="iacute" unicode="&#xed;" horiz-adv-x="233" 
d="M250 684l-117 -134h-39l82 153zM151 0h-65v473h65v-473z" />
    <glyph glyph-name="icircumflex" unicode="&#xee;" horiz-adv-x="233" 
d="M235 555l-32 -8l-86 85l-82 -82h-38l94 145h56zM151 0h-65v473h65v-473z" />
    <glyph glyph-name="idieresis" unicode="&#xef;" horiz-adv-x="233" 
d="M233 557h-77v88h77v-88zM79 557h-77v88h77v-88zM151 0h-65v473h65v-473z" />
    <glyph glyph-name="eth" unicode="&#xf0;" horiz-adv-x="530" 
d="M474 301c0 -119 -31 -202 -83 -254c-38 -39 -84 -57 -139 -57c-115 0 -204 83 -204 223c0 130 89 234 202 234c64 0 113 -23 152 -55c-12 81 -43 141 -90 186l-44 -67h-61l65 99c-35 23 -75 40 -122 53l9 55c56 -14 103 -34 144 -60l40 60l56 -12l-53 -79
c84 -72 128 -180 128 -326zM409 321c-41 43 -94 70 -153 70c-84 0 -141 -77 -141 -174c0 -105 55 -171 143 -171c89 0 152 91 152 249c0 9 0 18 -1 26z" />
    <glyph glyph-name="ntilde" unicode="&#xf1;" 
d="M450 0h-66v326c0 61 -28 98 -88 98c-50 0 -101 -31 -153 -82v-342h-66v473h51l11 -70c52 46 106 80 170 80c94 0 141 -54 141 -145v-338zM414 659c-9 -67 -37 -103 -76 -103c-27 0 -43 8 -75 25c-35 18 -47 26 -63 26s-28 -15 -36 -53l-45 9c10 68 37 104 77 104
c27 0 43 -9 75 -26c34 -18 47 -25 63 -25s27 15 36 52z" />
    <glyph glyph-name="ograve" unicode="&#xf2;" 
d="M475 236c0 -156 -94 -246 -215 -246s-212 90 -212 246c0 157 93 247 212 247c123 0 215 -90 215 -247zM407 236c0 109 -52 191 -147 191c-94 0 -145 -79 -145 -191c0 -109 52 -190 145 -190c96 0 147 78 147 190zM288 550h-46l-136 134l86 19z" />
    <glyph glyph-name="oacute" unicode="&#xf3;" 
d="M416 684l-137 -134h-46l97 153zM475 236c0 -156 -94 -246 -215 -246s-212 90 -212 246c0 157 93 247 212 247c123 0 215 -90 215 -247zM407 236c0 109 -52 191 -147 191c-94 0 -145 -79 -145 -191c0 -109 52 -190 145 -190c96 0 147 78 147 190z" />
    <glyph glyph-name="ocircumflex" unicode="&#xf4;" 
d="M475 236c0 -156 -94 -246 -215 -246s-212 90 -212 246c0 157 93 247 212 247c123 0 215 -90 215 -247zM407 236c0 109 -52 191 -147 191c-94 0 -145 -79 -145 -191c0 -109 52 -190 145 -190c96 0 147 78 147 190zM391 555l-36 -8l-95 86l-92 -83h-42l105 145h61z" />
    <glyph glyph-name="otilde" unicode="&#xf5;" 
d="M475 236c0 -156 -94 -246 -215 -246s-212 90 -212 246c0 157 93 247 212 247c123 0 215 -90 215 -247zM407 236c0 109 -52 191 -147 191c-94 0 -145 -79 -145 -191c0 -109 52 -190 145 -190c96 0 147 78 147 190zM408 659c-9 -67 -37 -103 -76 -103c-27 0 -43 8 -75 25
c-35 18 -47 26 -63 26s-28 -15 -36 -53l-45 9c10 68 37 104 77 104c27 0 43 -9 75 -26c34 -18 47 -25 63 -25s27 15 36 52z" />
    <glyph glyph-name="odieresis" unicode="&#xf6;" 
d="M475 236c0 -156 -94 -246 -215 -246s-212 90 -212 246c0 157 93 247 212 247c123 0 215 -90 215 -247zM407 236c0 109 -52 191 -147 191c-94 0 -145 -79 -145 -191c0 -109 52 -190 145 -190c96 0 147 78 147 190zM388 557h-83v88h83v-88zM215 557h-82v88h82v-88z" />
    <glyph glyph-name="divide" unicode="&#xf7;" horiz-adv-x="570" 
d="M323 477h-76v90h76v-90zM512 311h-455v54h455v-54zM323 109h-76v90h76v-90z" />
    <glyph glyph-name="oslash" unicode="&#xf8;" 
d="M480 468l-53 -66c30 -41 48 -97 48 -166c0 -156 -94 -246 -215 -246c-49 0 -93 15 -128 43l-32 -40l-56 12l52 66c-30 40 -48 97 -48 165c0 157 93 247 212 247c51 0 95 -15 131 -44l33 42zM354 393c-24 23 -55 36 -94 36c-96 0 -148 -80 -148 -193c0 -43 9 -83 25 -114z
M385 351l-217 -272c24 -22 55 -35 92 -35c97 0 150 79 150 192c0 44 -9 83 -25 115z" />
    <glyph glyph-name="ugrave" unicode="&#xf9;" 
d="M446 0h-51l-11 70c-52 -46 -106 -80 -170 -80c-95 0 -141 55 -141 145v338h66v-326c0 -61 28 -97 88 -97c50 0 101 30 153 81v342h66v-473zM287 550h-46l-136 134l86 19z" />
    <glyph glyph-name="uacute" unicode="&#xfa;" 
d="M446 0h-51l-11 70c-52 -46 -106 -80 -170 -80c-95 0 -141 55 -141 145v338h66v-326c0 -61 28 -97 88 -97c50 0 101 30 153 81v342h66v-473zM404 684l-137 -134h-46l97 153z" />
    <glyph glyph-name="ucircumflex" unicode="&#xfb;" 
d="M446 0h-51l-11 70c-52 -46 -106 -80 -170 -80c-95 0 -141 55 -141 145v338h66v-326c0 -61 28 -97 88 -97c50 0 101 30 153 81v342h66v-473zM391 555l-36 -8l-95 86l-92 -83h-42l105 145h61z" />
    <glyph glyph-name="udieresis" unicode="&#xfc;" 
d="M446 0h-51l-11 70c-52 -46 -106 -80 -170 -80c-95 0 -141 55 -141 145v338h66v-326c0 -61 28 -97 88 -97c50 0 101 30 153 81v342h66v-473zM390 557h-83v88h83v-88zM217 557h-82v88h82v-88z" />
    <glyph glyph-name="yacute" unicode="&#xfd;" horiz-adv-x="480" 
d="M450 473l-200 -532c-34 -92 -76 -121 -146 -121c-10 0 -19 2 -26 3l-9 58c10 -2 24 -4 39 -4c39 0 62 17 80 63l22 57l-179 470l64 12l147 -403l140 397h68zM391 675l-137 -134h-46l97 153z" />
    <glyph glyph-name="thorn" unicode="&#xfe;" horiz-adv-x="531" 
d="M482 250c0 -173 -101 -256 -216 -256c-47 0 -89 9 -123 23v-192l-66 -12v893l66 12v-309c36 40 82 74 149 74c103 0 190 -75 190 -233zM415 247c0 115 -55 177 -130 177c-57 0 -99 -33 -142 -86v-260c37 -18 73 -28 120 -28c87 0 152 65 152 197z" />
    <glyph glyph-name="ydieresis" unicode="&#xff;" horiz-adv-x="480" 
d="M450 473l-200 -532c-34 -92 -76 -121 -146 -121c-10 0 -19 2 -26 3l-9 58c10 -2 24 -4 39 -4c39 0 62 17 80 63l22 57l-179 470l64 12l147 -403l140 397h68zM368 557h-83v88h83v-88zM195 557h-82v88h82v-88z" />
    <glyph glyph-name="NUL" horiz-adv-x="0" 
 />
    <glyph glyph-name="Lslash" unicode="&#x141;" horiz-adv-x="487" 
d="M458 0h-345v320l-78 -20l-10 59l88 23v308h68v-291l160 43v-62l-160 -42v-276h267z" />
    <glyph glyph-name="lslash" unicode="&#x142;" horiz-adv-x="275" 
d="M255 377l-85 -23v-354h-65v338l-79 -21l-10 57l89 24v308l65 12v-304l85 22v-59z" />
    <glyph glyph-name="onehalf" unicode="&#xbd;" horiz-adv-x="500" 
d="M25 -200v1000h450v-1000h-450z" />
    <glyph glyph-name="onequarter" unicode="&#xbc;" horiz-adv-x="500" 
d="M25 -200v1000h450v-1000h-450z" />
    <glyph glyph-name="threequarters" unicode="&#xbe;" horiz-adv-x="500" 
d="M25 -200v1000h450v-1000h-450z" />
    <glyph glyph-name="brokenbar" unicode="&#xa6;" horiz-adv-x="500" 
d="M25 -200v1000h450v-1000h-450z" />
    <glyph glyph-name="minus" unicode="&#x2212;" horiz-adv-x="500" 
d="M25 -200v1000h450v-1000h-450z" />
    <glyph glyph-name="dagger" unicode="&#x2020;" horiz-adv-x="498" 
d="M278 592l-18 -114h-22l-17 114v98h57v-98zM447 414h-45l-116 18v21l116 18h45v-57zM213 432l-118 -18h-44v57h44l118 -18v-21zM276 -1l-18 -115h-18l-18 115v306l16 102h22l16 -102v-306z" />
    <glyph glyph-name="bullet" unicode="&#x2022;" horiz-adv-x="417" 
d="M325 348l-16 -109l-100 -17l-100 17l-17 109l17 109l100 16l100 -16z" />
    <glyph glyph-name="trademark" unicode="&#x2122;" horiz-adv-x="801" 
d="M734 345h-47l-20 265l-107 -266h-38l-106 266l-21 -265h-45l26 345h56l110 -283l110 283h55zM301 647h-109v-302h-47v302h-109v43h258z" />
    <glyph glyph-name="acute" unicode="&#xb4;" horiz-adv-x="456" 
d="M327 684l-137 -134h-46l97 153z" />
    <glyph glyph-name="dieresis" unicode="&#xa8;" horiz-adv-x="456" 
d="M356 557h-83v88h83v-88zM183 557h-82v88h82v-88z" />
    <glyph glyph-name="notequal" unicode="&#x2260;" 
d="M463 189c0 -116 -91 -202 -230 -202c-69 0 -141 22 -188 53l11 66c59 -40 113 -59 182 -59c98 0 157 59 157 142c0 96 -73 141 -201 141h-30l-7 48l211 238h-305l-9 60h400v-50l-218 -243c131 -6 227 -63 227 -194z" />
    <glyph glyph-name="infinity" unicode="&#x221e;" horiz-adv-x="489" 
d="M416 0h-50l-11 63c-44 -41 -99 -73 -167 -73c-82 0 -141 45 -141 129c0 111 90 163 304 184v31c0 64 -38 91 -98 91c-56 0 -111 -17 -163 -42l-9 59c55 24 109 41 176 41c105 0 159 -49 159 -146v-337zM351 117v134c-186 -19 -238 -64 -238 -128c0 -51 35 -77 85 -77
c51 0 107 28 153 71z" />
    <glyph glyph-name="lessequal" unicode="&#x2264;" horiz-adv-x="884" 
d="M791 0h-66v577l-258 -580h-54l-257 580v-577h-63v690h85l264 -603l265 603h84v-690z" />
    <glyph glyph-name="greaterequal" unicode="&#x2265;" horiz-adv-x="693" 
d="M536 82c-68 -54 -141 -90 -221 -90c-139 0 -228 70 -228 228v470h69v-462c0 -117 56 -174 163 -174c78 0 147 38 213 97v539h69v-690h-53z" />
    <glyph glyph-name="mu" unicode="&#x3bc;" horiz-adv-x="570" 
d="M451 131l-167 169l-167 -168l-38 38l168 167l-169 167l40 41l168 -169l167 168l38 -38l-168 -167l169 -167z" />
    <glyph glyph-name="partialdiff" unicode="&#x2202;" horiz-adv-x="749" 
d="M698 50l-14 -64l-106 83c-53 -52 -126 -82 -207 -82c-185 0 -311 146 -311 357c0 212 128 359 313 359s311 -146 311 -357c0 -92 -24 -172 -68 -232zM613 344c0 177 -96 297 -242 297c-145 0 -240 -118 -240 -295s96 -297 242 -297c62 0 116 21 156 58l-178 133l81 16
l132 -104c32 50 49 115 49 192z" />
    <glyph glyph-name="summation" unicode="&#x2211;" horiz-adv-x="1015" 
d="M975 690l-254 -692h-61l-154 409l-152 -409h-61l-253 684l68 15l218 -606l147 403l-71 188l70 15l220 -606l211 599h72z" />
    <glyph glyph-name="product" unicode="&#x220f;" horiz-adv-x="500" 
d="M25 -200v1000h450v-1000h-450z" />
    <glyph glyph-name="pi" unicode="&#x3c0;" horiz-adv-x="806" 
d="M747 345c0 -210 -137 -358 -344 -358s-345 147 -345 358c0 210 138 358 344 358c207 0 345 -147 345 -358zM713 345c0 200 -128 329 -311 329c-184 0 -309 -129 -309 -329s127 -329 311 -329s309 129 309 329zM543 425c0 -80 -60 -122 -143 -122h-46v-153h-53v393h106
c81 0 136 -44 136 -118zM490 423c0 47 -33 73 -85 73h-51v-146h48c54 0 88 25 88 73z" />
    <glyph glyph-name="integral" unicode="&#x222b;" horiz-adv-x="529" 
d="M452 7c0 -118 -67 -187 -200 -187c-64 0 -123 15 -175 36l11 63c52 -27 108 -42 169 -42c91 0 129 48 129 127v67c-33 -36 -78 -72 -146 -72c-104 0 -191 74 -191 229c0 167 99 252 230 252c67 0 120 -14 173 -31v-442zM386 141v262c-30 11 -61 20 -110 20
c-94 0 -160 -61 -160 -192c0 -112 55 -173 130 -173c54 0 99 34 140 83z" />
    <glyph glyph-name="Omega" unicode="&#x3a9;" horiz-adv-x="596" 
d="M579 652c-9 2 -22 3 -40 3c-45 0 -72 -20 -72 -72v-110h98l8 -56h-106v-417h-65v417h-72v56h72v115c0 87 52 127 134 127c16 0 25 -1 34 -2zM281 652c-9 2 -22 3 -40 3c-45 0 -72 -20 -72 -72v-110h97l9 -56h-106v-417h-65v417h-72v56h72v115c0 87 52 127 133 127
c17 0 25 -1 34 -2z" />
    <glyph glyph-name="radical" unicode="&#x221a;" horiz-adv-x="830" 
d="M746 0h-66v706l66 12v-718zM579 652c-9 2 -22 3 -40 3c-45 0 -72 -20 -72 -72v-110h98l8 -56h-106v-417h-65v417h-72v56h72v115c0 87 52 127 134 127c16 0 25 -1 34 -2zM281 652c-9 2 -22 3 -40 3c-45 0 -72 -20 -72 -72v-110h97l9 -56h-106v-417h-65v417h-72v56h72v115
c0 87 52 127 133 127c17 0 25 -1 34 -2z" />
    <glyph glyph-name="florin" unicode="&#x192;" horiz-adv-x="381" 
d="M144 453c1 0 16 98 16 98c15 93 60 133 149 133c17 0 33 -2 43 -3v-60c-12 2 -29 4 -44 4c-52 0 -74 -25 -84 -83c0 0 -14 -89 -15 -89h102v-56h-110l-64 -397h-64l63 397h-69l9 56h68z" />
    <glyph glyph-name="approxequal" unicode="&#x2248;" horiz-adv-x="830" 
d="M760 635c0 -25 -21 -47 -47 -47c-25 0 -46 22 -46 47s21 47 46 47c26 0 47 -22 47 -47zM579 652c-9 2 -22 3 -40 3c-45 0 -72 -20 -72 -72v-110h98l8 -56h-106v-417h-65v417h-72v56h72v115c0 87 52 127 134 127c16 0 25 -1 34 -2zM281 652c-9 2 -22 3 -40 3
c-45 0 -72 -20 -72 -72v-110h97l9 -56h-106v-417h-65v417h-72v56h72v115c0 87 52 127 133 127c17 0 25 -1 34 -2zM746 0h-66v473h66v-473z" />
    <glyph glyph-name="Delta" unicode="&#x394;" horiz-adv-x="500" 
d="M25 -200v1000h450v-1000h-450z" />
    <glyph glyph-name="ellipsis" unicode="&#x2026;" horiz-adv-x="693" 
d="M617 0h-79v98h79v-98zM385 0h-78v98h78v-98zM155 0h-78v98h78v-98z" />
    <glyph glyph-name="endash" unicode="&#x2013;" horiz-adv-x="456" 
d="M397 251h-339v64h339v-64z" />
    <glyph glyph-name="emdash" unicode="&#x2014;" horiz-adv-x="912" 
d="M853 252h-795v63h795v-63z" />
    <glyph glyph-name="quotedblleft" unicode="&#x201c;" horiz-adv-x="388" 
d="M166 687l-35 -214h-80l78 223zM334 687l-34 -214h-80l78 223z" />
    <glyph glyph-name="quotedblright" unicode="&#x201d;" horiz-adv-x="388" 
d="M167 690l-77 -223l-37 9l35 214h79zM336 690l-77 -223l-37 9l34 214h80z" />
    <glyph glyph-name="quoteleft" unicode="&#x2018;" horiz-adv-x="219" 
d="M166 687l-35 -214h-80l78 223z" />
    <glyph glyph-name="quoteright" unicode="&#x2019;" horiz-adv-x="219" 
d="M167 690l-77 -223l-37 9l35 214h79z" />
    <glyph glyph-name="lozenge" unicode="&#x25ca;" horiz-adv-x="801" 
d="M734 345h-47l-20 265l-107 -266h-38l-106 266l-21 -265h-45l26 345h56l110 -283l110 283h55zM165 340c-38 0 -70 10 -95 24l5 46c28 -17 57 -29 92 -29c36 0 65 19 65 53c0 32 -18 49 -63 68c-69 30 -95 51 -95 103c0 53 44 90 104 90c33 0 61 -8 83 -20l-8 -45
c-24 15 -49 24 -77 24c-36 0 -58 -19 -58 -45c0 -30 17 -44 66 -65c65 -28 93 -53 93 -107c0 -61 -49 -97 -112 -97z" />
    <glyph glyph-name="fraction" unicode="&#x2044;" horiz-adv-x="439" 
d="M520 770l-540 -878l-56 14l540 878z" />
    <glyph glyph-name="currency" unicode="&#xa4;" horiz-adv-x="603" 
d="M122 402h-90v54h99c33 142 129 233 258 233c68 0 121 -19 167 -51l-11 -65c-48 36 -92 58 -156 58c-97 0 -165 -67 -192 -175h250l9 -54h-270c-2 -20 -3 -41 -3 -64c0 -17 1 -33 2 -49h267v-53h-260c25 -118 96 -191 195 -191c66 0 116 23 171 63l9 -61
c-49 -35 -111 -60 -183 -60c-134 0 -229 96 -257 249h-90l-8 53h91c-1 15 -2 31 -2 48c0 23 1 44 4 65z" />
    <glyph glyph-name="guilsinglleft" unicode="&#x2039;" horiz-adv-x="313" 
d="M259 473l-144 -236l140 -230l-51 -12l-165 242l163 236h57z" />
    <glyph glyph-name="guilsinglright" unicode="&#x203a;" horiz-adv-x="313" 
d="M273 236l-163 -236h-57l145 236l-141 231l51 11z" />
    <glyph glyph-name="fi" unicode="&#xfb01;" horiz-adv-x="532" 
d="M462 635c0 -25 -21 -47 -47 -47c-25 0 -46 22 -46 47s21 47 46 47c26 0 47 -22 47 -47zM281 652c-9 2 -22 3 -40 3c-45 0 -72 -20 -72 -72v-110h97l9 -56h-106v-417h-65v417h-72v56h72v115c0 87 52 127 133 127c17 0 25 -1 34 -2zM448 0h-66v473h66v-473z" />
    <glyph glyph-name="fl" unicode="&#xfb02;" horiz-adv-x="532" 
d="M448 0h-66v706l66 12v-718zM281 652c-9 2 -22 3 -40 3c-45 0 -72 -20 -72 -72v-110h97l9 -56h-106v-417h-65v417h-72v56h72v115c0 87 52 127 133 127c17 0 25 -1 34 -2z" />
    <glyph glyph-name="daggerdbl" unicode="&#x2021;" horiz-adv-x="517" 
d="M287 592l-18 -114h-21l-18 114v98h57v-98zM456 414h-45l-116 18v21l116 18h45v-57zM222 432l-117 -18h-45v57h45l117 -18v-21zM285 201l-16 -103h-21l-17 103v104l17 102h21l16 -102v-104zM456 35h-45l-116 17v21l116 18h45v-56zM222 52l-117 -17h-45v56h45l117 -18v-21z
M287 -185h-57v98l18 114h21l18 -114v-98z" />
    <glyph glyph-name="quotesinglbase" unicode="&#x201a;" horiz-adv-x="219" 
d="M160 98l-77 -222l-37 8l35 214h79z" />
    <glyph glyph-name="quotedblbase" unicode="&#x201e;" horiz-adv-x="387" 
d="M164 98l-77 -222l-37 8l34 214h80zM333 98l-77 -222l-37 8l34 214h80z" />
    <glyph glyph-name="perthousand" unicode="&#x2030;" horiz-adv-x="806" 
d="M747 345c0 -210 -137 -358 -344 -358s-345 147 -345 358c0 210 138 358 344 358c207 0 345 -147 345 -358zM713 345c0 200 -128 329 -311 329c-184 0 -309 -129 -309 -329s127 -329 311 -329s309 129 309 329zM444 323l122 -161l-56 -11l-121 164h-49v-161h-52v394h109
c80 0 132 -44 132 -115c0 -58 -35 -95 -85 -110zM395 500h-55v-139h51c52 0 84 25 84 71c0 42 -28 68 -80 68z" />
    <glyph glyph-name="apple" horiz-adv-x="694" 
d="M644 -200h-208l-8 14h-163l-8 -14h-207v303c18 0 32 14 32 32c0 17 -14 32 -32 32v554h100l30 79h334l29 -79h101v-921zM400 563v-172h15v78h38v14h-38v66h43v14h-58zM184 563v-172h15v79h47v-79h15v172h-15v-79h-47v79h-15zM460 394c4 -2 15 -4 21 -4c20 0 31 11 31 36
v137h-16v-137c0 -16 -5 -22 -16 -22c-5 0 -15 3 -20 6v-16zM523 323v-46h8v13l7 7l16 -20h9l-19 26l18 20h-10l-21 -24v24h-8zM488 292l10 -15h9l-12 17c6 2 10 8 10 15c0 6 -6 14 -16 14h-21v-46h8v15h12zM426 276c15 0 24 11 24 24c0 12 -10 24 -24 24s-23 -12 -23 -24
c0 -13 9 -24 23 -24zM370 301l-13 22h-9l18 -29v-17h8v17l18 29h-9zM193 323v-46h33v7h-25v13h22v7h-22v12h25v7h-33zM132 323v-46h8v32l25 -32h7v46h-8v-32l-25 32h-7zM241 323l15 -47h8l10 34h1l11 -34h8l14 47h-8l-10 -35h-1l-10 35h-8l-11 -35h-1l-10 35h-8zM327 479
c-7 13 -12 22 -12 32s6 19 14 19s13 -9 13 -19c0 -12 -5 -21 -15 -32zM342 423c-3 -10 -11 -21 -18 -21c-10 0 -17 12 -17 27c0 11 6 24 15 33zM488 299h-12v17h11c6 0 10 -3 10 -8s-4 -9 -9 -9zM426 283c-9 0 -15 8 -15 17c0 8 6 17 15 17s16 -9 16 -17
c0 -9 -7 -17 -16 -17zM349 438l-16 31c13 12 23 26 23 42c0 15 -9 31 -27 31c-17 0 -28 -16 -28 -31s6 -24 14 -39c-15 -12 -23 -28 -23 -45c0 -22 13 -39 31 -39c13 0 22 12 27 24h1l12 -24l11 8l-16 30c5 12 10 25 13 39l-13 3c-2 -9 -6 -21 -9 -30z" />
    <glyph glyph-name="dotlessi" unicode="&#x131;" horiz-adv-x="233" 
d="M151 0h-65v473h65v-473z" />
    <glyph glyph-name="circumflex" unicode="&#x2c6;" horiz-adv-x="456" 
d="M358 555l-36 -8l-95 86l-92 -83h-42l105 145h61z" />
    <glyph glyph-name="tilde" unicode="&#x2dc;" horiz-adv-x="456" 
d="M375 659c-9 -67 -37 -103 -76 -103c-27 0 -43 8 -75 25c-35 18 -47 26 -63 26s-28 -15 -36 -53l-45 9c10 68 37 104 77 104c27 0 43 -9 75 -26c34 -18 47 -25 63 -25s27 15 36 52z" />
    <glyph glyph-name="breve" unicode="&#x2d8;" horiz-adv-x="456" 
d="M354 695c-4 -92 -49 -144 -126 -144c-71 0 -119 50 -125 137l48 10c6 -55 30 -84 79 -84c43 0 70 27 76 81h48z" />
    <glyph glyph-name="dotaccent" unicode="&#x2d9;" horiz-adv-x="456" 
d="M270 554h-84v90h84v-90z" />
    <glyph glyph-name="ring" unicode="&#x2da;" horiz-adv-x="456" 
d="M326 644c0 -56 -42 -96 -98 -96s-98 40 -98 96c0 55 42 99 98 99s98 -44 98 -99zM286 644c0 35 -24 62 -58 62c-33 0 -59 -27 -59 -62s26 -60 59 -60c34 0 58 25 58 60z" />
    <glyph glyph-name="cedilla" unicode="&#xb8;" horiz-adv-x="456" 
d="M296 -70l-122 -114h-46l84 134z" />
    <glyph glyph-name="hungarumlaut" unicode="&#x2dd;" horiz-adv-x="456" 
d="M394 687l-134 -133h-42l96 152zM234 687l-135 -133h-42l96 152z" />
    <glyph glyph-name="ogonek" unicode="&#x2db;" horiz-adv-x="456" 
d="M328 -184h-45l-123 114l85 20z" />
    <glyph glyph-name="caron" unicode="&#x2c7;" horiz-adv-x="456" 
d="M363 695l-104 -145h-62l-99 140l36 8l95 -87l92 84h42z" />
  </font>
</defs>
</svg>
