<?xml version="1.0" standalone="no"?>
<!DOCTYPE svg PUBLIC "-//W3C//DTD SVG 1.1//EN" "http://www.w3.org/Graphics/SVG/1.1/DTD/svg11.dtd" >
<svg xmlns="http://www.w3.org/2000/svg" width="100%" height="100%">
<metadata>
Created by FontXChange 20110222 at Sat Mar 14 14:18:21 2015
 By Bradley Siefert
Copyright (C) 2004 Hoefler &#38; Frere-Jones Typography, Inc. www.typography.com
</metadata>
<defs>
<font id="WhitneyHTF-Medium" horiz-adv-x="527" >
  <font-face 
    font-family="Whitney HTF"
    font-weight="500"
    font-stretch="normal"
    units-per-em="1000"
    panose-1="2 0 6 3 0 0 0 0 0 0"
    ascent="800"
    descent="-200"
    x-height="477"
    cap-height="690"
    bbox="-79 -200 988 951"
    underline-thickness="20"
    underline-position="-133"
    stemh="86"
    stemv="89"
    unicode-range="U+0020-FFFD"
  />
<missing-glyph horiz-adv-x="500" 
 />
    <glyph glyph-name=".notdef" unicode="&#xfffd;" horiz-adv-x="500" 
 />
    <glyph glyph-name="space" unicode=" " horiz-adv-x="220" 
 />
    <glyph glyph-name="exclam" unicode="!" horiz-adv-x="272" 
d="M190 690l-25 -472l-58 -13l-24 485h107zM186 0h-100v119h100v-119z" />
    <glyph glyph-name="quotedbl" unicode="&#x22;" horiz-adv-x="409" 
d="M346 676l-25 -208l-52 12l-25 196h102zM164 676l-24 -208l-53 12l-24 196h101z" />
    <glyph glyph-name="numbersign" unicode="#" horiz-adv-x="661" 
d="M219 172l-28 -179l-68 15l26 164h-108v76h120l28 180h-115l-13 76h140l28 174h71l-28 -174h169l28 179l68 -15l-26 -164h108v-76h-120l-28 -180h116l13 -76h-142l-27 -174h-70l27 174h-169zM260 428l-29 -180h170l28 180h-169z" />
    <glyph glyph-name="dollar" unicode="$" 
d="M351 673c40 -7 74 -18 101 -31l-13 -84c-28 17 -63 32 -102 41c0 0 -34 -217 -34 -218c121 -43 177 -97 177 -196c0 -116 -82 -189 -227 -189h-9l-19 -118l-64 14l17 110c-55 8 -103 24 -136 41l12 84c42 -24 87 -42 138 -51c0 0 38 244 37 244c-119 42 -171 86 -171 183
c0 117 88 177 213 177h13l12 75l66 -15zM254 70h6c94 0 137 40 137 110c0 50 -20 86 -107 119zM274 607h-15c-80 0 -120 -37 -120 -96c0 -52 25 -79 103 -109c1 1 32 205 32 205z" />
    <glyph glyph-name="percent" unicode="%" horiz-adv-x="900" 
d="M370 485c0 -124 -72 -199 -163 -199s-163 75 -163 199c0 125 72 199 163 199s163 -74 163 -199zM699 666l-430 -673l-68 17l429 673zM292 485c0 75 -26 136 -85 136c-60 0 -85 -60 -85 -136c0 -74 27 -136 85 -136c60 0 85 61 85 136zM855 191c0 -124 -72 -199 -163 -199
s-163 75 -163 199c0 125 72 199 163 199s163 -74 163 -199zM777 191c0 75 -26 136 -85 136c-60 0 -85 -60 -85 -136c0 -74 27 -136 85 -136c60 0 85 61 85 136z" />
    <glyph glyph-name="ampersand" unicode="&#x26;" horiz-adv-x="681" 
d="M683 17l-97 -23l-101 99c-56 -67 -131 -106 -223 -106c-143 0 -227 67 -227 186c0 99 64 165 157 210c-44 46 -69 88 -69 153c0 90 68 167 188 167c66 0 123 -17 170 -43l-15 -94c-53 34 -106 55 -156 55c-63 0 -94 -34 -94 -83c0 -43 21 -75 69 -123l190 -190
c22 47 38 106 48 176l82 -18c-14 -82 -37 -156 -71 -217zM429 149l-183 180c-74 -35 -117 -86 -117 -146c0 -68 54 -116 134 -116c63 0 120 27 166 82z" />
    <glyph glyph-name="quotesingle" unicode="'" horiz-adv-x="227" 
d="M164 676l-24 -208l-53 12l-24 196h101z" />
    <glyph glyph-name="parenleft" unicode="(" horiz-adv-x="406" 
d="M363 -75l-86 -19c-140 122 -213 238 -213 407c0 176 90 310 253 413l14 -84c-118 -85 -172 -189 -172 -331c0 -138 57 -253 204 -386z" />
    <glyph glyph-name="parenright" unicode=")" horiz-adv-x="406" 
d="M341 314c0 -176 -89 -309 -252 -413l-15 84c118 86 173 189 173 332c0 138 -57 252 -204 386l86 19c140 -123 212 -239 212 -408z" />
    <glyph glyph-name="asterisk" unicode="*" horiz-adv-x="400" 
d="M359 569l-109 -52l58 -107l-26 -17l-82 87l-83 -87l-25 17l57 107l-108 52l10 29l118 -21l14 118h33l14 -118l119 21z" />
    <glyph glyph-name="plus" unicode="+" horiz-adv-x="572" 
d="M518 301h-193v-199h-78v199h-193v74h193v199h78v-199h193v-74z" />
    <glyph glyph-name="comma" unicode="," horiz-adv-x="227" 
d="M180 119l-104 -252l-49 12l50 240h103z" />
    <glyph glyph-name="hyphen" unicode="-" horiz-adv-x="354" 
d="M300 241h-246v87h246v-87z" />
    <glyph glyph-name="period" unicode="." horiz-adv-x="227" 
d="M163 0h-99v119h99v-119z" />
    <glyph glyph-name="slash" unicode="/" horiz-adv-x="536" 
d="M515 682l-472 -809l-80 17l472 809z" />
    <glyph glyph-name="zero" unicode="0" horiz-adv-x="619" 
d="M568 338c0 -224 -104 -351 -258 -351c-155 0 -259 127 -259 351s104 351 259 351c154 0 258 -127 258 -351zM476 338c0 176 -62 272 -166 272s-167 -96 -167 -272s63 -272 167 -272s166 96 166 272z" />
    <glyph glyph-name="one" unicode="1" horiz-adv-x="357" 
d="M262 0h-89v584l-141 -53l-10 72l162 75h78v-678z" />
    <glyph glyph-name="two" unicode="2" horiz-adv-x="534" 
d="M485 0h-441v69l250 261c61 64 88 107 88 162c0 76 -44 114 -123 114c-70 0 -131 -33 -184 -80l-13 87c50 43 118 76 202 76c131 0 211 -75 211 -191c0 -82 -37 -137 -120 -222l-193 -196h311z" />
    <glyph glyph-name="three" unicode="3" horiz-adv-x="514" 
d="M468 185c0 -119 -93 -198 -241 -198c-71 0 -142 21 -194 53l15 88c57 -39 113 -60 184 -60c89 0 144 40 144 116c0 82 -55 131 -185 131h-31l-13 80h51c112 0 165 40 165 113c0 58 -42 100 -127 100c-70 0 -129 -25 -179 -65l-13 84c52 38 112 62 196 62
c152 0 215 -86 215 -177c0 -84 -51 -132 -124 -156c87 -24 137 -77 137 -171z" />
    <glyph glyph-name="four" unicode="4" horiz-adv-x="589" 
d="M564 153h-108v-153h-83v153h-338v66l314 459h107v-451h108v-74zM373 227v350l-242 -350h242z" />
    <glyph glyph-name="five" unicode="5" 
d="M486 212c0 -147 -112 -225 -255 -225c-79 0 -140 22 -188 52l14 85c48 -34 109 -58 177 -58c91 0 162 43 162 141c0 79 -50 130 -143 130c-50 0 -84 -9 -115 -22l-67 15l24 346h356l12 -80h-293l-15 -197c26 8 60 17 108 17c138 0 223 -82 223 -204z" />
    <glyph glyph-name="six" unicode="6" horiz-adv-x="564" 
d="M145 361c48 32 104 53 171 53c130 0 210 -80 210 -207c0 -128 -99 -220 -233 -220c-141 0 -243 99 -243 286c0 234 151 363 366 416l12 -80c-138 -35 -253 -104 -283 -248zM137 276c1 -128 62 -210 159 -210c82 0 140 51 140 137c0 82 -43 132 -140 132
c-60 0 -113 -21 -159 -59z" />
    <glyph glyph-name="seven" unicode="7" horiz-adv-x="528" 
d="M483 606l-271 -613l-88 20l258 582h-335l-12 81h448v-70z" />
    <glyph glyph-name="eight" unicode="8" horiz-adv-x="568" 
d="M309 386c61 33 102 80 102 132c0 58 -45 95 -126 95c-84 0 -126 -43 -126 -97c0 -61 42 -85 150 -130zM261 323c-76 -34 -126 -85 -126 -146c0 -73 63 -114 150 -114c88 0 148 43 148 111c0 71 -44 97 -172 149zM186 356c-69 34 -115 77 -115 159c0 100 86 174 216 174
c131 0 212 -73 212 -169c0 -76 -53 -128 -118 -165c89 -42 142 -87 142 -184c0 -104 -92 -184 -240 -184c-155 0 -238 85 -238 186c0 80 59 140 141 183z" />
    <glyph glyph-name="nine" unicode="9" horiz-adv-x="564" 
d="M416 304c-47 -31 -104 -51 -168 -51c-131 0 -210 81 -210 212s98 224 232 224c142 0 244 -99 244 -286c0 -233 -155 -369 -375 -416l-13 80c139 30 255 98 290 237zM427 391v7c0 129 -63 212 -159 212c-84 0 -140 -51 -140 -141c0 -86 43 -137 139 -137
c61 0 113 21 160 59z" />
    <glyph glyph-name="colon" unicode=":" horiz-adv-x="236" 
d="M168 358h-100v119h100v-119zM168 0h-100v119h100v-119z" />
    <glyph glyph-name="semicolon" unicode=";" horiz-adv-x="236" 
d="M175 358h-100v119h100v-119zM178 119l-104 -252l-49 12l50 240h103z" />
    <glyph glyph-name="less" unicode="&#x3c;" horiz-adv-x="572" 
d="M504 82l-447 222v68l447 222v-86l-355 -169l355 -170v-87z" />
    <glyph glyph-name="equal" unicode="=" horiz-adv-x="590" 
d="M518 410h-445v80h445v-80zM518 186h-445v80h445v-80z" />
    <glyph glyph-name="greater" unicode="&#x3e;" horiz-adv-x="572" 
d="M515 304l-447 -222v86l355 169l-355 170v87l447 -222v-68z" />
    <glyph glyph-name="question" unicode="?" horiz-adv-x="518" 
d="M463 526c0 -108 -72 -155 -191 -209l-9 -99l-58 -13l-13 165l41 17c94 39 136 71 136 135c0 61 -49 96 -116 96c-78 0 -140 -35 -196 -81l-13 92c61 45 132 74 214 74c122 0 205 -68 205 -177zM284 0h-100v119h100v-119z" />
    <glyph glyph-name="at" unicode="@" horiz-adv-x="836" 
d="M476 194l28 174c-21 7 -33 10 -58 10c-64 0 -129 -74 -129 -192c0 -50 17 -72 49 -72c34 0 65 24 110 80zM481 131c-50 -57 -88 -82 -136 -82c-53 0 -105 38 -105 127c0 159 105 264 214 264c46 0 90 -10 132 -25l-31 -203c-2 -13 -4 -36 -4 -52c0 -40 24 -64 65 -64
c70 0 124 73 124 207c0 192 -124 288 -284 288c-196 0 -361 -170 -361 -406c0 -201 124 -290 288 -290c86 0 156 19 217 49l6 -36c-58 -27 -133 -48 -227 -48c-199 0 -328 117 -328 324c0 242 178 443 409 443c195 0 323 -126 323 -323c0 -154 -69 -255 -179 -255
c-60 0 -109 28 -123 82z" />
    <glyph glyph-name="A" unicode="A" horiz-adv-x="688" 
d="M659 13l-91 -20l-81 214h-285l-78 -207h-95l270 693h94zM455 290l-111 291l-110 -291h221z" />
    <glyph glyph-name="B" unicode="B" horiz-adv-x="545" 
d="M503 202c0 -138 -96 -202 -255 -202h-165v690h167c152 0 223 -73 223 -179c0 -70 -37 -117 -99 -143c77 -23 129 -75 129 -166zM381 508c0 63 -39 102 -133 102h-73v-210h66c91 0 140 40 140 108zM411 200c0 80 -56 123 -159 123h-77v-243h80c99 0 156 40 156 120z" />
    <glyph glyph-name="C" unicode="C" horiz-adv-x="646" 
d="M583 54c-53 -39 -130 -67 -209 -67c-194 0 -319 144 -319 357c0 214 127 359 321 359c82 0 143 -21 196 -57l-14 -96c-50 38 -109 67 -183 67c-140 0 -223 -106 -223 -272s84 -271 223 -271c74 0 139 29 194 69z" />
    <glyph glyph-name="D" unicode="D" horiz-adv-x="703" 
d="M646 346c0 -205 -130 -346 -367 -346h-196v690h200c240 0 363 -142 363 -344zM549 345c0 173 -105 260 -263 260h-109v-520h106c166 0 266 84 266 260z" />
    <glyph glyph-name="E" unicode="E" horiz-adv-x="502" 
d="M465 0h-382v690h372v-86h-278v-200h216l14 -86h-230v-232h288v-86z" />
    <glyph glyph-name="F" unicode="F" horiz-adv-x="478" 
d="M442 604h-265v-211h208l14 -86h-222v-307h-94v690h359v-86z" />
    <glyph glyph-name="G" unicode="G" horiz-adv-x="697" 
d="M624 54c-59 -38 -142 -67 -233 -67c-219 0 -336 144 -336 357c0 214 122 359 328 359c92 0 156 -23 210 -59l-15 -96c-51 40 -115 69 -196 69c-151 0 -230 -106 -230 -272s81 -271 239 -271c60 0 100 12 140 34v183h-159l-13 86h265v-323z" />
    <glyph glyph-name="H" unicode="H" horiz-adv-x="703" 
d="M620 0h-94v318h-349v-318h-94v690h94v-286h349v286h94v-690z" />
    <glyph glyph-name="I" unicode="I" horiz-adv-x="272" 
d="M183 0h-94v690h94v-690z" />
    <glyph glyph-name="J" unicode="J" horiz-adv-x="370" 
d="M293 170c0 -123 -78 -177 -195 -177c-22 0 -45 3 -62 6l-14 85c23 -6 44 -9 77 -9c64 0 100 30 100 103v512h94v-520z" />
    <glyph glyph-name="K" unicode="K" horiz-adv-x="609" 
d="M600 15l-98 -22l-325 357v-350h-94v690h94v-310l292 310h113l-303 -320z" />
    <glyph glyph-name="L" unicode="L" horiz-adv-x="468" 
d="M439 0h-356v690h94v-604h249z" />
    <glyph glyph-name="M" unicode="M" horiz-adv-x="900" 
d="M835 0h-90l-43 549l-218 -552h-71l-218 552l-42 -549h-88l55 690h116l215 -566l215 566h115z" />
    <glyph glyph-name="N" unicode="N" horiz-adv-x="703" 
d="M620 0h-71l-379 537v-537h-87v690h84l366 -517v517h87v-690z" />
    <glyph glyph-name="O" unicode="O" horiz-adv-x="746" 
d="M691 346c0 -213 -124 -359 -319 -359c-194 0 -317 144 -317 357c0 214 125 359 319 359c195 0 317 -144 317 -357zM594 345c0 166 -85 272 -221 272c-137 0 -221 -106 -221 -272s85 -272 221 -272c137 0 221 106 221 272z" />
    <glyph glyph-name="P" unicode="P" horiz-adv-x="536" 
d="M500 491c0 -141 -100 -211 -250 -211h-73v-280h-94v690h183c146 0 234 -71 234 -199zM405 488c0 79 -50 119 -144 119h-84v-244h78c94 0 150 39 150 125z" />
    <glyph glyph-name="Q" unicode="Q" horiz-adv-x="746" 
d="M691 346c0 -176 -85 -294 -213 -336l198 -70l-19 -83l-373 139c-151 56 -229 172 -229 348c0 214 125 359 319 359c195 0 317 -144 317 -357zM594 345c0 166 -85 272 -221 272c-137 0 -221 -106 -221 -272s85 -277 221 -277c137 0 221 111 221 277z" />
    <glyph glyph-name="R" unicode="R" horiz-adv-x="570" 
d="M406 489c0 75 -47 118 -139 118h-90v-237h80c91 0 149 41 149 119zM349 303l205 -289l-95 -21l-211 298h-71v-291h-94v690h188c141 0 229 -70 229 -196c0 -104 -61 -166 -151 -191z" />
    <glyph glyph-name="S" unicode="S" horiz-adv-x="512" 
d="M464 186c0 -119 -89 -194 -218 -194c-75 0 -142 18 -193 45l14 96c47 -31 112 -59 181 -59c72 0 123 38 123 105c0 63 -28 89 -132 136c-130 59 -179 102 -179 201c0 111 85 182 210 182c67 0 117 -16 157 -39l-15 -94c-38 29 -90 51 -145 51c-79 0 -114 -42 -114 -93
c0 -53 26 -78 131 -126c134 -61 180 -107 180 -211z" />
    <glyph glyph-name="T" unicode="T" horiz-adv-x="600" 
d="M573 604h-226v-604h-94v604h-220v86h526z" />
    <glyph glyph-name="U" unicode="U" horiz-adv-x="689" 
d="M613 266c0 -174 -103 -279 -270 -279s-267 106 -267 274v429h94v-417c0 -120 54 -200 173 -200c117 0 176 72 176 197v420h94v-424z" />
    <glyph glyph-name="V" unicode="V" horiz-adv-x="677" 
d="M648 690l-269 -693h-84l-266 680l94 20l215 -574l211 567h99z" />
    <glyph glyph-name="W" unicode="W" horiz-adv-x="1017" 
d="M982 690l-208 -690h-79l-187 559l-187 -559h-78l-204 677l92 20l156 -549l176 542h94l176 -542l153 542h96z" />
    <glyph glyph-name="X" unicode="X" horiz-adv-x="636" 
d="M266 359l-214 318l95 20l172 -261l164 254h104l-218 -326l237 -351l-96 -20l-194 294l-187 -287h-103z" />
    <glyph glyph-name="Y" unicode="Y" horiz-adv-x="636" 
d="M614 690l-251 -416v-274h-94v274l-244 403l94 20l198 -337l193 330h104z" />
    <glyph glyph-name="Z" unicode="Z" horiz-adv-x="605" 
d="M563 0h-515v70l393 538h-363l-13 82h489v-70l-393 -538h389z" />
    <glyph glyph-name="bracketleft" unicode="[" horiz-adv-x="409" 
d="M363 -104h-276v794h272v-68h-186v-657h179z" />
    <glyph glyph-name="backslash" unicode="\" horiz-adv-x="536" 
d="M573 -111l-80 -17l-472 809l80 17z" />
    <glyph glyph-name="bracketright" unicode="]" horiz-adv-x="409" 
d="M321 -104h-271v69h186v657h-180l-11 68h276v-794z" />
    <glyph glyph-name="asciicircum" unicode="^" horiz-adv-x="454" 
d="M363 554l-49 -10l-88 74l-85 -71h-56l100 141h84z" />
    <glyph glyph-name="underscore" unicode="_" horiz-adv-x="454" 
d="M456 -104h-458v70h458v-70z" />
    <glyph glyph-name="grave" unicode="`" horiz-adv-x="454" 
d="M317 547h-60l-134 127l108 24z" />
    <glyph glyph-name="a" unicode="a" horiz-adv-x="499" 
d="M431 0h-72l-10 64c-38 -39 -90 -74 -168 -74c-86 0 -140 52 -140 133c0 119 102 166 301 187v20c0 60 -36 81 -91 81c-58 0 -113 -18 -165 -41l-12 77c57 23 111 40 185 40c116 0 172 -47 172 -153v-334zM342 131v111c-176 -17 -213 -65 -213 -114c0 -39 26 -64 71 -64
c52 0 102 26 142 67z" />
    <glyph glyph-name="b" unicode="b" horiz-adv-x="533" 
d="M490 252c0 -174 -96 -258 -234 -258c-72 0 -123 11 -186 30v684l89 14v-301c32 33 78 66 143 66c103 0 188 -76 188 -235zM400 248c0 104 -47 160 -111 160c-50 0 -94 -33 -130 -78v-244c30 -11 52 -16 96 -16c93 0 145 55 145 178z" />
    <glyph glyph-name="c" unicode="c" horiz-adv-x="469" 
d="M428 41c-49 -37 -99 -51 -163 -51c-128 0 -222 89 -222 248c0 163 100 249 224 249c70 0 120 -18 156 -44l-13 -87c-44 36 -89 53 -144 53c-78 0 -133 -59 -133 -170c0 -116 59 -171 143 -171c48 0 90 11 139 53z" />
    <glyph glyph-name="d" unicode="d" horiz-adv-x="538" 
d="M468 0h-71l-11 69c-36 -43 -85 -79 -155 -79c-103 0 -188 75 -188 235c0 174 100 258 216 258c47 0 90 -9 120 -21v246l89 14v-722zM379 153v228c-37 19 -66 27 -117 27c-75 0 -129 -61 -129 -179c0 -105 47 -160 111 -160c55 0 97 33 135 84z" />
    <glyph glyph-name="e" unicode="e" horiz-adv-x="499" 
d="M456 248v-19h-324c3 -111 56 -163 139 -163c69 0 119 27 171 68l13 -80c-51 -40 -112 -64 -191 -64c-124 0 -221 75 -221 250c0 153 90 247 210 247c139 0 203 -107 203 -239zM366 296c-11 77 -45 121 -114 121c-55 0 -102 -39 -116 -121h230z" />
    <glyph glyph-name="f" unicode="f" horiz-adv-x="311" 
d="M296 630c-10 2 -28 4 -46 4c-41 0 -66 -17 -66 -61v-96h96l11 -75h-107v-402h-87v402h-72v75h72v105c0 95 63 131 148 131c18 0 29 -2 38 -2z" />
    <glyph glyph-name="g" unicode="g" horiz-adv-x="504" 
d="M183 37c-56 -28 -81 -56 -81 -89c0 -38 49 -66 142 -66s145 32 145 72c0 29 -22 49 -90 61l-57 10c-26 5 -40 8 -59 12zM331 322c0 57 -40 100 -99 100c-60 0 -97 -46 -97 -104c0 -55 38 -98 97 -98c61 0 99 45 99 102zM355 447l121 37l13 -80l-91 -9
c13 -22 19 -47 19 -74c0 -102 -86 -164 -183 -164c-12 0 -24 1 -36 3c-14 -9 -24 -20 -24 -29c0 -17 17 -21 101 -36l34 -6c101 -18 164 -50 164 -124c0 -100 -109 -147 -233 -147s-223 39 -223 123c0 49 34 87 101 123c-21 15 -30 32 -30 50c0 23 18 46 50 65
c-53 26 -89 77 -89 142c0 103 86 166 183 166c48 0 90 -14 123 -40z" />
    <glyph glyph-name="h" unicode="h" 
d="M459 0h-89v325c0 49 -21 82 -73 82c-47 0 -95 -31 -138 -77v-330h-89v708l89 14v-308c39 35 94 73 162 73c90 0 138 -54 138 -140v-347z" />
    <glyph glyph-name="i" unicode="i" horiz-adv-x="243" 
d="M178 629c0 -31 -25 -56 -56 -56s-57 25 -57 56s26 57 57 57s56 -26 56 -57zM166 0h-89v477h89v-477z" />
    <glyph glyph-name="j" unicode="j" horiz-adv-x="243" 
d="M178 629c0 -31 -25 -56 -56 -56s-57 25 -57 56s26 57 57 57s56 -26 56 -57zM166 -60c0 -86 -51 -122 -127 -122c-15 0 -34 1 -41 3l-13 79c11 -3 28 -4 42 -4c31 0 50 16 50 52v529h89v-537z" />
    <glyph glyph-name="k" unicode="k" horiz-adv-x="481" 
d="M468 8l-97 -15l-212 257v-250h-89v708l89 14v-445l185 200h107l-201 -211z" />
    <glyph glyph-name="l" unicode="l" horiz-adv-x="243" 
d="M166 0h-89v708l89 14v-722z" />
    <glyph glyph-name="m" unicode="m" horiz-adv-x="815" 
d="M747 0h-89v325c0 49 -18 82 -70 82c-47 0 -92 -31 -135 -77v-330h-89v325c0 49 -18 82 -70 82c-47 0 -92 -31 -135 -77v-330h-89v477h71l11 -69c45 41 99 79 166 79c70 0 108 -30 126 -79c43 41 101 79 168 79c91 0 135 -54 135 -140v-347z" />
    <glyph glyph-name="n" unicode="n" 
d="M459 0h-89v325c0 49 -21 82 -73 82c-47 0 -95 -31 -138 -77v-330h-89v477h71l11 -69c45 41 101 79 169 79c90 0 138 -54 138 -140v-347z" />
    <glyph glyph-name="o" unicode="o" 
d="M484 238c0 -157 -94 -248 -222 -248c-127 0 -219 91 -219 248s92 249 219 249c128 0 222 -92 222 -249zM394 238c0 98 -46 174 -132 174s-129 -74 -129 -174c0 -98 45 -174 129 -174c88 0 132 74 132 174z" />
    <glyph glyph-name="p" unicode="p" horiz-adv-x="538" 
d="M495 252c0 -174 -100 -258 -216 -258c-47 0 -90 9 -120 21v-188l-89 -13v663h71l11 -69c36 42 85 79 155 79c103 0 188 -76 188 -235zM405 248c0 104 -47 160 -112 160c-54 0 -96 -33 -134 -84v-229c36 -18 65 -26 116 -26c75 0 130 61 130 179z" />
    <glyph glyph-name="q" unicode="q" horiz-adv-x="533" 
d="M463 -173l-89 -13v241c-32 -32 -78 -65 -143 -65c-103 0 -188 75 -188 235c0 174 96 258 234 258c72 0 123 -11 186 -30v-626zM374 147v243c-30 11 -52 17 -96 17c-93 0 -145 -56 -145 -178c0 -105 47 -160 111 -160c50 0 94 33 130 78z" />
    <glyph glyph-name="r" unicode="r" horiz-adv-x="358" 
d="M337 402c-79 -4 -146 -57 -178 -120v-282h-89v477h71l15 -97c34 54 89 103 167 107z" />
    <glyph glyph-name="s" unicode="s" horiz-adv-x="442" 
d="M403 133c0 -87 -65 -143 -188 -143c-63 0 -133 22 -174 45l13 84c45 -31 103 -55 168 -55c61 0 97 23 97 63c0 44 -27 60 -113 81c-112 28 -157 62 -157 147c0 76 64 132 168 132c59 0 112 -12 157 -32l-14 -84c-42 24 -95 41 -145 41c-54 0 -82 -21 -82 -55
c0 -32 24 -50 99 -69c118 -30 171 -64 171 -155z" />
    <glyph glyph-name="t" unicode="t" horiz-adv-x="337" 
d="M299 -2c-15 -3 -36 -6 -67 -6c-84 0 -139 30 -139 126v284h-72v75h72v159l87 13v-172h103l12 -75h-115v-268c0 -39 16 -63 66 -63c16 0 30 1 41 3z" />
    <glyph glyph-name="u" unicode="u" 
d="M457 0h-71l-11 69c-45 -42 -102 -79 -169 -79c-91 0 -138 54 -138 140v347h89v-325c0 -49 21 -82 73 -82c47 0 95 31 138 77v330h89v-477z" />
    <glyph glyph-name="v" unicode="v" horiz-adv-x="473" 
d="M449 477l-170 -479h-85l-169 472l89 14l124 -377l120 370h91z" />
    <glyph glyph-name="w" unicode="w" horiz-adv-x="722" 
d="M694 477l-154 -477h-70l-110 361l-109 -361h-69l-154 470l85 14l105 -353l106 346h75l106 -346l102 346h87z" />
    <glyph glyph-name="x" unicode="x" horiz-adv-x="472" 
d="M443 6l-88 -13l-120 185l-112 -178h-94l161 244l-151 226l88 14l109 -170l104 163h93l-151 -230z" />
    <glyph glyph-name="y" unicode="y" horiz-adv-x="483" 
d="M460 477l-192 -519c-41 -111 -92 -140 -171 -140c-12 0 -22 2 -31 4l-12 78c15 -4 33 -7 50 -7c37 0 62 18 76 56l18 49l-174 472l88 14l130 -380l127 373h91z" />
    <glyph glyph-name="z" unicode="z" horiz-adv-x="452" 
d="M416 0h-381v70l267 333h-243l-12 74h357v-70l-268 -333h268z" />
    <glyph glyph-name="braceleft" unicode="{" horiz-adv-x="477" 
d="M431 -104h-116c-98 0 -143 47 -143 131c0 46 13 90 13 138c0 72 -42 95 -98 95h-36l-11 67h48c56 0 97 23 97 94c0 48 -13 92 -13 138c0 85 45 131 143 131h112v-68h-105c-45 0 -65 -24 -65 -62c0 -41 14 -94 14 -138c0 -82 -41 -114 -102 -128v-2
c61 -13 102 -45 102 -128c0 -43 -14 -97 -14 -138c0 -38 18 -61 64 -61h99z" />
    <glyph glyph-name="bar" unicode="|" horiz-adv-x="266" 
d="M173 -173l-80 -13v895l80 13v-895z" />
    <glyph glyph-name="braceright" unicode="}" horiz-adv-x="477" 
d="M437 260h-48c-57 0 -98 -23 -98 -95c0 -48 14 -91 14 -138c0 -84 -45 -131 -143 -131h-112v69h104c46 0 66 21 66 60c0 40 -14 96 -14 139c0 83 41 115 102 128v2c-61 14 -102 46 -102 128c0 44 14 99 14 140c0 38 -20 60 -66 60h-98l-11 68h117c98 0 143 -46 143 -131
c0 -45 -14 -90 -14 -138c0 -71 42 -94 99 -94h36z" />
    <glyph glyph-name="asciitilde" unicode="~" horiz-adv-x="409" 
d="M359 337c-9 -75 -37 -114 -83 -114c-25 0 -44 9 -71 23c-38 20 -50 25 -65 25s-24 -11 -32 -51l-58 12c9 76 36 114 83 114c25 0 43 -9 70 -23c39 -20 50 -25 66 -25c14 0 23 12 32 52z" />
    <glyph glyph-name="nbspace" unicode="&#xa0;" horiz-adv-x="110" 
 />
    <glyph glyph-name="exclamdown" unicode="&#xa1;" horiz-adv-x="272" 
d="M186 571h-100v119h100v-119zM190 0h-107l24 472l58 13z" />
    <glyph glyph-name="cent" unicode="&#xa2;" horiz-adv-x="481" 
d="M265 94l-16 -104l-65 15l16 98c-93 27 -153 108 -153 233c0 159 96 245 224 245h3l17 104l65 -14l-15 -96c37 -8 65 -21 88 -37l-12 -84c-29 23 -57 39 -90 47l-51 -331h4c54 0 93 10 142 51l11 -77c-48 -36 -98 -50 -163 -50h-5zM214 182l50 325
c-80 -3 -132 -59 -132 -169c0 -86 31 -136 82 -156z" />
    <glyph glyph-name="sterling" unicode="&#xa3;" horiz-adv-x="536" 
d="M142 372l45 139c40 125 103 178 219 178c31 0 59 -4 83 -10l-12 -82c-24 7 -46 10 -79 10c-65 0 -102 -34 -130 -121c0 0 -36 -114 -37 -114h174l12 -78h-211c1 0 -68 -214 -68 -214h342l13 -80h-448v69l72 225h-72v78h97z" />
    <glyph glyph-name="yen" unicode="&#xa5;" horiz-adv-x="607" 
d="M344 226v-76h166v-69h-166v-81h-85v81h-159l-12 69h171v76h-166v69h149l-217 368l89 20l189 -340l184 333h98l-224 -381h143l11 -69h-171z" />
    <glyph glyph-name="Scaron" unicode="&#x160;" horiz-adv-x="512" 
d="M464 186c0 -119 -89 -194 -218 -194c-75 0 -142 18 -193 45l14 96c47 -31 112 -59 181 -59c72 0 123 38 123 105c0 63 -28 89 -132 136c-130 59 -179 102 -179 201c0 111 85 182 210 182c67 0 117 -16 157 -39l-15 -94c-38 29 -90 51 -145 51c-79 0 -114 -42 -114 -93
c0 -53 26 -78 131 -126c134 -61 180 -107 180 -211zM400 897l-100 -141h-84l-94 134l49 10l88 -74l85 71h56z" />
    <glyph glyph-name="section" unicode="&#xa7;" horiz-adv-x="526" 
d="M481 359c0 -41 -15 -74 -30 -99l-72 13c12 22 22 48 22 69c0 37 -19 53 -99 70l-53 11c-94 20 -154 47 -154 130c0 74 67 131 162 131c65 0 115 -10 164 -31l-13 -80c-45 25 -98 40 -153 40c-50 0 -77 -25 -77 -56c0 -32 25 -47 78 -59l90 -20c97 -22 135 -56 135 -119z
M45 317c0 41 15 74 30 99l72 -13c-12 -22 -22 -48 -22 -69c0 -37 19 -53 99 -70l53 -11c94 -20 154 -47 154 -130c0 -74 -67 -131 -162 -131c-65 0 -115 10 -164 31l13 80c45 -25 98 -40 153 -40c50 0 77 25 77 56c0 32 -25 47 -78 59l-90 20c-97 22 -135 56 -135 119z" />
    <glyph glyph-name="scaron" unicode="&#x161;" horiz-adv-x="442" 
d="M403 133c0 -87 -65 -143 -188 -143c-63 0 -133 22 -174 45l13 84c45 -31 103 -55 168 -55c61 0 97 23 97 63c0 44 -27 60 -113 81c-112 28 -157 62 -157 147c0 76 64 132 168 132c59 0 112 -12 157 -32l-14 -84c-42 24 -95 41 -145 41c-54 0 -82 -21 -82 -55
c0 -32 24 -50 99 -69c118 -30 171 -64 171 -155zM362 688l-100 -141h-84l-94 134l49 10l88 -74l85 71h56z" />
    <glyph glyph-name="copyright" unicode="&#xa9;" horiz-adv-x="799" 
d="M745 346c0 -213 -142 -359 -346 -359c-205 0 -345 144 -345 357c0 214 142 359 346 359c205 0 345 -144 345 -357zM701 345c0 207 -132 322 -301 322c-172 0 -302 -115 -302 -322s132 -322 302 -322c171 0 301 115 301 322zM536 185c-36 -25 -81 -41 -126 -41
c-112 0 -186 82 -186 204c0 121 76 204 186 204c47 0 84 -13 119 -35l-10 -68c-37 28 -71 41 -109 41c-72 0 -119 -56 -119 -142s48 -142 119 -142c38 0 75 15 116 44z" />
    <glyph glyph-name="ordfeminine" unicode="&#xaa;" horiz-adv-x="381" 
d="M314 357h-54l-6 38c-25 -23 -59 -44 -107 -44c-58 0 -94 35 -94 90c0 78 67 111 196 125v9c0 37 -23 49 -57 49c-36 0 -71 -11 -108 -28l-10 58c40 17 76 27 124 27c78 0 116 -31 116 -103v-221zM323 223h-267v59h257zM249 448v66c-108 -11 -132 -39 -132 -69
c0 -24 16 -39 43 -39c33 0 63 17 89 42z" />
    <glyph glyph-name="guillemotleft" unicode="&#xab;" 
d="M481 477l-146 -238l141 -228l-76 -16l-161 244l159 238h83zM278 477l-146 -238l140 -228l-75 -16l-162 244l159 238h84z" />
    <glyph glyph-name="logicalnot" unicode="&#xac;" horiz-adv-x="572" 
d="M518 299h-464v78h464v-78z" />
    <glyph glyph-name="registered" unicode="&#xae;" horiz-adv-x="563" 
d="M508 470c0 -138 -95 -232 -227 -232c-134 0 -227 93 -227 232c0 138 95 233 227 233c134 0 227 -94 227 -233zM476 470c0 132 -87 206 -195 206s-194 -74 -194 -206c0 -131 86 -205 194 -205c109 0 195 74 195 205zM392 356l-44 -10l-77 110h-25v-106h-44v257h78
c54 0 90 -27 90 -75c0 -37 -20 -61 -52 -71zM325 529c0 25 -16 38 -45 38h-34v-76h32c29 0 47 12 47 38z" />
    <glyph glyph-name="macron" unicode="&#xaf;" horiz-adv-x="454" 
d="M350 575h-246v72h246v-72z" />
    <glyph glyph-name="degree" unicode="&#xb0;" horiz-adv-x="427" 
d="M380 514c0 -97 -69 -166 -167 -166c-97 0 -167 69 -167 166s70 168 167 168c98 0 167 -71 167 -168zM312 514c0 59 -42 104 -99 104c-56 0 -99 -45 -99 -104c0 -60 43 -102 99 -102c57 0 99 42 99 102z" />
    <glyph glyph-name="plusminus" unicode="&#xb1;" horiz-adv-x="589" 
d="M564 153h-108v-153h-83v153h-338v66l316 462l85 -19l-301 -434h238v173l83 18v-191h108v-75z" />
    <glyph glyph-name="twosuperior" unicode="&#xb2;" horiz-adv-x="500" 
d="M25 -200v1000h450v-1000h-450z" />
    <glyph glyph-name="threesuperior" unicode="&#xb3;" horiz-adv-x="500" 
d="M25 -200v1000h450v-1000h-450z" />
    <glyph glyph-name="Zcaron" unicode="&#x17d;" horiz-adv-x="605" 
d="M563 0h-515v70l393 538h-363l-13 82h489v-70l-393 -538h389zM449 888l-100 -141h-84l-94 134l49 10l88 -74l85 71h56z" />
    <glyph glyph-name="paragraph" unicode="&#xb6;" horiz-adv-x="536" 
d="M453 0h-80v609h-70v-144l-33 -199c-143 5 -235 73 -235 208c0 129 91 202 237 202h181v-676z" />
    <glyph glyph-name="periodcentered" unicode="&#xb7;" horiz-adv-x="227" 
d="M163 224h-99v119h99v-119z" />
    <glyph glyph-name="zcaron" unicode="&#x17e;" horiz-adv-x="452" 
d="M416 0h-381v70l267 333h-243l-12 74h357v-70l-268 -333h268zM366 688l-100 -141h-84l-94 134l49 10l88 -74l85 71h56z" />
    <glyph glyph-name="onesuperior" unicode="&#xb9;" horiz-adv-x="500" 
d="M25 -200v1000h450v-1000h-450z" />
    <glyph glyph-name="ordmasculine" unicode="&#xba;" horiz-adv-x="385" 
d="M340 515c0 -104 -62 -164 -148 -164c-84 0 -147 60 -147 164c0 105 63 166 147 166c86 0 148 -61 148 -166zM332 223h-276v59h266zM271 515c0 60 -26 108 -79 108s-78 -47 -78 -108c0 -60 26 -107 78 -107c53 0 79 47 79 107z" />
    <glyph glyph-name="guillemotright" unicode="&#xbb;" 
d="M491 238l-159 -238h-83l146 238l-141 228l76 16zM288 238l-159 -238h-84l147 238l-141 228l75 16z" />
    <glyph glyph-name="OE" unicode="&#x152;" horiz-adv-x="873" 
d="M835 0h-416c-239 0 -362 143 -362 344c0 205 130 346 367 346h401v-86h-277v-200h216l13 -86h-229v-232h287v-86zM455 85v520h-36c-165 0 -266 -84 -266 -260c0 -172 106 -260 264 -260h38z" />
    <glyph glyph-name="oe" unicode="&#x153;" horiz-adv-x="851" 
d="M807 248v-19h-324c4 -111 56 -163 139 -163c69 0 120 27 172 68l12 -80c-51 -40 -111 -64 -190 -64c-90 0 -145 37 -178 96c-35 -58 -88 -96 -176 -96c-127 0 -219 91 -219 248s92 249 219 249c89 0 145 -37 177 -97c34 59 87 97 166 97c139 0 202 -107 202 -239z
M717 296c-11 77 -45 121 -113 121c-56 0 -103 -39 -116 -121h229zM394 238c0 98 -46 174 -132 174s-129 -74 -129 -174c0 -98 45 -174 129 -174c88 0 132 74 132 174z" />
    <glyph glyph-name="Ydieresis" unicode="&#x178;" horiz-adv-x="636" 
d="M614 690l-251 -416v-274h-94v274l-244 403l94 20l198 -337l193 330h104zM455 733h-99v101h99v-101zM276 733h-99v101h99v-101z" />
    <glyph glyph-name="questiondown" unicode="&#xbf;" horiz-adv-x="518" 
d="M334 571h-100v119h100v-119zM474 61c-61 -45 -132 -74 -214 -74c-122 0 -205 68 -205 177c0 108 72 155 191 209l9 99l58 13l13 -165l-41 -17c-94 -39 -136 -71 -136 -135c0 -61 49 -96 116 -96c78 0 140 35 196 81z" />
    <glyph glyph-name="Agrave" unicode="&#xc0;" horiz-adv-x="688" 
d="M659 13l-91 -20l-81 214h-285l-78 -207h-95l270 693h94zM455 290l-111 291l-110 -291h221zM373 747h-60l-134 127l108 24z" />
    <glyph glyph-name="Aacute" unicode="&#xc1;" horiz-adv-x="688" 
d="M513 874l-134 -127h-60l86 151zM659 13l-91 -20l-81 214h-285l-78 -207h-95l270 693h94zM455 290l-111 291l-110 -291h221z" />
    <glyph glyph-name="Acircumflex" unicode="&#xc2;" horiz-adv-x="688" 
d="M659 13l-91 -20l-81 214h-285l-78 -207h-95l270 693h94zM455 290l-111 291l-110 -291h221zM480 745l-49 -10l-88 74l-85 -71h-56l100 141h84z" />
    <glyph glyph-name="Atilde" unicode="&#xc3;" horiz-adv-x="688" 
d="M659 13l-91 -20l-81 214h-285l-78 -207h-95l270 693h94zM455 290l-111 291l-110 -291h221zM498 864c-9 -76 -36 -114 -82 -114c-26 0 -44 9 -71 23c-38 20 -50 25 -65 25s-24 -11 -32 -51l-58 12c9 76 36 114 82 114c26 0 44 -9 71 -23c38 -20 50 -25 65 -25s24 12 32 51
z" />
    <glyph glyph-name="Adieresis" unicode="&#xc4;" horiz-adv-x="688" 
d="M659 13l-91 -20l-81 214h-285l-78 -207h-95l270 693h94zM455 290l-111 291l-110 -291h221zM483 751h-99v101h99v-101zM304 751h-99v101h99v-101z" />
    <glyph glyph-name="Aring" unicode="&#xc5;" horiz-adv-x="688" 
d="M659 13l-91 -20l-81 214h-285l-78 -207h-95l270 693h94zM455 290l-111 291l-110 -291h221zM448 847c0 -60 -44 -102 -104 -102s-104 42 -104 102c0 59 44 104 104 104s104 -45 104 -104zM401 847c0 34 -24 60 -57 60s-57 -26 -57 -60s24 -59 57 -59s57 25 57 59z" />
    <glyph glyph-name="AE" unicode="&#xc6;" horiz-adv-x="881" 
d="M844 0h-383v207h-239l-118 -207h-101l401 690h430v-86h-280v-200h218l13 -86h-231v-232h290v-86zM461 290v330l-190 -330h190z" />
    <glyph glyph-name="Ccedilla" unicode="&#xc7;" horiz-adv-x="646" 
d="M583 54c-53 -39 -130 -67 -209 -67c-194 0 -319 144 -319 357c0 214 127 359 321 359c82 0 143 -21 196 -57l-14 -96c-50 38 -109 67 -183 67c-140 0 -223 -106 -223 -272s84 -271 223 -271c74 0 139 29 194 69zM428 -83l-123 -108h-60l76 133z" />
    <glyph glyph-name="Egrave" unicode="&#xc8;" horiz-adv-x="502" 
d="M465 0h-382v690h372v-86h-278v-200h216l14 -86h-230v-232h288v-86zM317 747h-60l-134 127l108 24z" />
    <glyph glyph-name="Eacute" unicode="&#xc9;" horiz-adv-x="502" 
d="M465 0h-382v690h372v-86h-278v-200h216l14 -86h-230v-232h288v-86zM395 874l-134 -127h-60l86 151z" />
    <glyph glyph-name="Ecircumflex" unicode="&#xca;" horiz-adv-x="502" 
d="M465 0h-382v690h372v-86h-278v-200h216l14 -86h-230v-232h288v-86zM398 754l-49 -10l-88 74l-85 -71h-56l100 141h84z" />
    <glyph glyph-name="Edieresis" unicode="&#xcb;" horiz-adv-x="502" 
d="M465 0h-382v690h372v-86h-278v-200h216l14 -86h-230v-232h288v-86zM401 751h-99v101h99v-101zM222 751h-99v101h99v-101z" />
    <glyph glyph-name="Igrave" unicode="&#xcc;" horiz-adv-x="272" 
d="M183 0h-94v690h94v-690zM167 747h-60l-134 127l108 24z" />
    <glyph glyph-name="Iacute" unicode="&#xcd;" horiz-adv-x="272" 
d="M299 874l-134 -127h-60l86 151zM183 0h-94v690h94v-690z" />
    <glyph glyph-name="Icircumflex" unicode="&#xce;" horiz-adv-x="272" 
d="M183 0h-94v690h94v-690zM272 745l-49 -10l-88 74l-85 -71h-56l100 141h84z" />
    <glyph glyph-name="Idieresis" unicode="&#xcf;" horiz-adv-x="272" 
d="M183 0h-94v690h94v-690zM275 751h-99v101h99v-101zM96 751h-99v101h99v-101z" />
    <glyph glyph-name="Eth" unicode="&#xd0;" horiz-adv-x="725" 
d="M668 346c0 -205 -130 -346 -367 -346h-195v319h-74l-14 84h88v287h200c240 0 362 -142 362 -344zM572 345c0 173 -105 260 -263 260h-110v-202h172v-84h-172v-234h107c165 0 266 84 266 260z" />
    <glyph glyph-name="Ntilde" unicode="&#xd1;" horiz-adv-x="703" 
d="M620 0h-71l-379 537v-537h-87v690h84l366 -517v517h87v-690zM507 846c-9 -76 -36 -114 -82 -114c-26 0 -44 9 -71 23c-38 20 -50 25 -65 25s-24 -11 -32 -51l-58 12c9 76 36 114 82 114c26 0 44 -9 71 -23c38 -20 50 -25 65 -25s24 12 32 51z" />
    <glyph glyph-name="Ograve" unicode="&#xd2;" horiz-adv-x="746" 
d="M691 346c0 -213 -124 -359 -319 -359c-194 0 -317 144 -317 357c0 214 125 359 319 359c195 0 317 -144 317 -357zM594 345c0 166 -85 272 -221 272c-137 0 -221 -106 -221 -272s85 -272 221 -272c137 0 221 106 221 272zM417 756h-60l-134 127l108 24z" />
    <glyph glyph-name="Oacute" unicode="&#xd3;" horiz-adv-x="746" 
d="M512 883l-134 -127h-60l86 151zM691 346c0 -213 -124 -359 -319 -359c-194 0 -317 144 -317 357c0 214 125 359 319 359c195 0 317 -144 317 -357zM594 345c0 166 -85 272 -221 272c-137 0 -221 -106 -221 -272s85 -272 221 -272c137 0 221 106 221 272z" />
    <glyph glyph-name="Ocircumflex" unicode="&#xd4;" horiz-adv-x="746" 
d="M691 346c0 -213 -124 -359 -319 -359c-194 0 -317 144 -317 357c0 214 125 359 319 359c195 0 317 -144 317 -357zM594 345c0 166 -85 272 -221 272c-137 0 -221 -106 -221 -272s85 -272 221 -272c137 0 221 106 221 272zM508 759l-49 -10l-88 74l-85 -71h-56l100 141h84
z" />
    <glyph glyph-name="Otilde" unicode="&#xd5;" horiz-adv-x="746" 
d="M691 346c0 -213 -124 -359 -319 -359c-194 0 -317 144 -317 357c0 214 125 359 319 359c195 0 317 -144 317 -357zM594 345c0 166 -85 272 -221 272c-137 0 -221 -106 -221 -272s85 -272 221 -272c137 0 221 106 221 272zM526 878c-9 -76 -36 -114 -82 -114
c-26 0 -44 9 -71 23c-38 20 -50 25 -65 25s-24 -11 -32 -51l-58 12c9 76 36 114 82 114c26 0 44 -9 71 -23c38 -20 50 -25 65 -25s24 12 32 51z" />
    <glyph glyph-name="Odieresis" unicode="&#xd6;" horiz-adv-x="746" 
d="M691 346c0 -213 -124 -359 -319 -359c-194 0 -317 144 -317 357c0 214 125 359 319 359c195 0 317 -144 317 -357zM594 345c0 166 -85 272 -221 272c-137 0 -221 -106 -221 -272s85 -272 221 -272c137 0 221 106 221 272zM511 760h-99v101h99v-101zM332 760h-99v101h99
v-101z" />
    <glyph glyph-name="multiply" unicode="&#xd7;" horiz-adv-x="500" 
d="M25 -200v1000h450v-1000h-450z" />
    <glyph glyph-name="Oslash" unicode="&#xd8;" horiz-adv-x="746" 
d="M695 681l-77 -94c47 -60 73 -143 73 -241c0 -213 -124 -359 -319 -359c-75 0 -139 22 -190 61l-47 -57l-82 18l75 93c-46 61 -73 144 -73 242c0 214 125 359 319 359c76 0 140 -22 191 -61l46 57zM509 573c-36 30 -82 46 -136 46c-138 0 -223 -107 -223 -274
c0 -66 14 -123 39 -168zM597 345c0 66 -14 124 -38 168l-321 -396c35 -30 82 -46 135 -46c138 0 224 107 224 274z" />
    <glyph glyph-name="Ugrave" unicode="&#xd9;" horiz-adv-x="689" 
d="M613 266c0 -174 -103 -279 -270 -279s-267 106 -267 274v429h94v-417c0 -120 54 -200 173 -200c117 0 176 72 176 197v420h94v-424zM395 725h-60l-134 127l108 24z" />
    <glyph glyph-name="Uacute" unicode="&#xda;" horiz-adv-x="689" 
d="M488 852l-134 -127h-60l86 151zM613 266c0 -174 -103 -279 -270 -279s-267 106 -267 274v429h94v-417c0 -120 54 -200 173 -200c117 0 176 72 176 197v420h94v-424z" />
    <glyph glyph-name="Ucircumflex" unicode="&#xdb;" horiz-adv-x="689" 
d="M613 266c0 -174 -103 -279 -270 -279s-267 106 -267 274v429h94v-417c0 -120 54 -200 173 -200c117 0 176 72 176 197v420h94v-424zM481 736l-49 -10l-88 74l-85 -71h-56l100 141h84z" />
    <glyph glyph-name="Udieresis" unicode="&#xdc;" horiz-adv-x="689" 
d="M613 266c0 -174 -103 -279 -270 -279s-267 106 -267 274v429h94v-417c0 -120 54 -200 173 -200c117 0 176 72 176 197v420h94v-424zM484 733h-99v101h99v-101zM305 733h-99v101h99v-101z" />
    <glyph glyph-name="Yacute" unicode="&#xdd;" horiz-adv-x="636" 
d="M614 690l-251 -416v-274h-94v274l-244 403l94 20l198 -337l193 330h104zM467 847l-134 -127h-60l86 151z" />
    <glyph glyph-name="Thorn" unicode="&#xde;" horiz-adv-x="536" 
d="M500 359c0 -141 -100 -211 -250 -211h-73v-148h-94v690h94v-132h89c146 0 234 -71 234 -199zM405 356c0 79 -50 119 -144 119h-84v-244h78c94 0 150 39 150 125z" />
    <glyph glyph-name="germandbls" unicode="&#xdf;" horiz-adv-x="612" 
d="M577 143c0 -101 -70 -153 -173 -153c-53 0 -110 16 -151 41l14 83c44 -30 96 -50 143 -50c49 0 83 27 83 72c0 52 -17 105 -212 149l-10 70c49 64 82 126 82 190c0 59 -32 92 -82 92c-55 0 -86 -39 -86 -99v-538h-89v402h-71v75h71v51c0 121 69 185 173 185
c108 0 173 -57 173 -164c0 -78 -42 -141 -94 -205c160 -38 229 -96 229 -201z" />
    <glyph glyph-name="agrave" unicode="&#xe0;" horiz-adv-x="499" 
d="M431 0h-72l-10 64c-38 -39 -90 -74 -168 -74c-86 0 -140 52 -140 133c0 119 102 166 301 187v20c0 60 -36 81 -91 81c-58 0 -113 -18 -165 -41l-12 77c57 23 111 40 185 40c116 0 172 -47 172 -153v-334zM342 131v111c-176 -17 -213 -65 -213 -114c0 -39 26 -64 71 -64
c52 0 102 26 142 67zM286 547h-60l-134 127l108 24z" />
    <glyph glyph-name="aacute" unicode="&#xe1;" horiz-adv-x="499" 
d="M431 0h-72l-10 64c-38 -39 -90 -74 -168 -74c-86 0 -140 52 -140 133c0 119 102 166 301 187v20c0 60 -36 81 -91 81c-58 0 -113 -18 -165 -41l-12 77c57 23 111 40 185 40c116 0 172 -47 172 -153v-334zM342 131v111c-176 -17 -213 -65 -213 -114c0 -39 26 -64 71 -64
c52 0 102 26 142 67zM395 674l-134 -127h-60l86 151z" />
    <glyph glyph-name="acircumflex" unicode="&#xe2;" horiz-adv-x="499" 
d="M431 0h-72l-10 64c-38 -39 -90 -74 -168 -74c-86 0 -140 52 -140 133c0 119 102 166 301 187v20c0 60 -36 81 -91 81c-58 0 -113 -18 -165 -41l-12 77c57 23 111 40 185 40c116 0 172 -47 172 -153v-334zM342 131v111c-176 -17 -213 -65 -213 -114c0 -39 26 -64 71 -64
c52 0 102 26 142 67zM380 554l-49 -10l-88 74l-85 -71h-56l100 141h84z" />
    <glyph glyph-name="atilde" unicode="&#xe3;" horiz-adv-x="499" 
d="M431 0h-72l-10 64c-38 -39 -90 -74 -168 -74c-86 0 -140 52 -140 133c0 119 102 166 301 187v20c0 60 -36 81 -91 81c-58 0 -113 -18 -165 -41l-12 77c57 23 111 40 185 40c116 0 172 -47 172 -153v-334zM342 131v111c-176 -17 -213 -65 -213 -114c0 -39 26 -64 71 -64
c52 0 102 26 142 67zM403 664c-9 -76 -36 -114 -82 -114c-26 0 -44 9 -71 23c-38 20 -50 25 -65 25s-24 -11 -32 -51l-58 12c9 76 36 114 82 114c26 0 44 -9 71 -23c38 -20 50 -25 65 -25s24 12 32 51z" />
    <glyph glyph-name="adieresis" unicode="&#xe4;" horiz-adv-x="499" 
d="M431 0h-72l-10 64c-38 -39 -90 -74 -168 -74c-86 0 -140 52 -140 133c0 119 102 166 301 187v20c0 60 -36 81 -91 81c-58 0 -113 -18 -165 -41l-12 77c57 23 111 40 185 40c116 0 172 -47 172 -153v-334zM342 131v111c-176 -17 -213 -65 -213 -114c0 -39 26 -64 71 -64
c52 0 102 26 142 67zM389 551h-99v101h99v-101zM210 551h-99v101h99v-101z" />
    <glyph glyph-name="aring" unicode="&#xe5;" horiz-adv-x="499" 
d="M431 0h-72l-10 64c-38 -39 -90 -74 -168 -74c-86 0 -140 52 -140 133c0 119 102 166 301 187v20c0 60 -36 81 -91 81c-58 0 -113 -18 -165 -41l-12 77c57 23 111 40 185 40c116 0 172 -47 172 -153v-334zM342 131v111c-176 -17 -213 -65 -213 -114c0 -39 26 -64 71 -64
c52 0 102 26 142 67zM348 647c0 -60 -44 -102 -104 -102s-104 42 -104 102c0 59 44 104 104 104s104 -45 104 -104zM301 647c0 34 -24 60 -57 60s-57 -26 -57 -60s24 -59 57 -59s57 25 57 59z" />
    <glyph glyph-name="ae" unicode="&#xe6;" horiz-adv-x="790" 
d="M746 248v-19h-324c4 -111 57 -163 139 -163c69 0 120 27 172 68l12 -80c-50 -40 -111 -64 -190 -64c-70 0 -132 24 -173 76c-45 -41 -106 -76 -185 -76c-91 0 -156 45 -156 133c0 112 93 165 292 186v21c0 60 -27 81 -82 81c-58 0 -113 -18 -165 -41l-12 77
c57 23 110 40 178 40c82 0 122 -18 148 -67c34 43 83 67 144 67c139 0 202 -107 202 -239zM656 296c-10 77 -45 121 -113 121c-55 0 -103 -39 -116 -121h229zM350 127c-10 32 -17 70 -17 113v1c-168 -18 -204 -65 -204 -113c0 -41 31 -64 80 -64c50 0 95 20 141 63z" />
    <glyph glyph-name="ccedilla" unicode="&#xe7;" horiz-adv-x="469" 
d="M428 41c-49 -37 -99 -51 -163 -51c-128 0 -222 89 -222 248c0 163 100 249 224 249c70 0 120 -18 156 -44l-13 -87c-44 36 -89 53 -144 53c-78 0 -133 -59 -133 -170c0 -116 59 -171 143 -171c48 0 90 11 139 53zM333 -83l-123 -108h-60l76 133z" />
    <glyph glyph-name="egrave" unicode="&#xe8;" horiz-adv-x="499" 
d="M456 248v-19h-324c3 -111 56 -163 139 -163c69 0 119 27 171 68l13 -80c-51 -40 -112 -64 -191 -64c-124 0 -221 75 -221 250c0 153 90 247 210 247c139 0 203 -107 203 -239zM366 296c-11 77 -45 121 -114 121c-55 0 -102 -39 -116 -121h230zM288 547h-60l-134 127
l108 24z" />
    <glyph glyph-name="eacute" unicode="&#xe9;" horiz-adv-x="499" 
d="M456 248v-19h-324c3 -111 56 -163 139 -163c69 0 119 27 171 68l13 -80c-51 -40 -112 -64 -191 -64c-124 0 -221 75 -221 250c0 153 90 247 210 247c139 0 203 -107 203 -239zM366 296c-11 77 -45 121 -114 121c-55 0 -102 -39 -116 -121h230zM402 674l-134 -127h-60
l86 151z" />
    <glyph glyph-name="ecircumflex" unicode="&#xea;" horiz-adv-x="499" 
d="M456 248v-19h-324c3 -111 56 -163 139 -163c69 0 119 27 171 68l13 -80c-51 -40 -112 -64 -191 -64c-124 0 -221 75 -221 250c0 153 90 247 210 247c139 0 203 -107 203 -239zM366 296c-11 77 -45 121 -114 121c-55 0 -102 -39 -116 -121h230zM388 554l-49 -10l-88 74
l-85 -71h-56l100 141h84z" />
    <glyph glyph-name="edieresis" unicode="&#xeb;" horiz-adv-x="499" 
d="M456 248v-19h-324c3 -111 56 -163 139 -163c69 0 119 27 171 68l13 -80c-51 -40 -112 -64 -191 -64c-124 0 -221 75 -221 250c0 153 90 247 210 247c139 0 203 -107 203 -239zM366 296c-11 77 -45 121 -114 121c-55 0 -102 -39 -116 -121h230zM391 551h-99v101h99v-101z
M212 551h-99v101h99v-101z" />
    <glyph glyph-name="igrave" unicode="&#xec;" horiz-adv-x="243" 
d="M156 547h-51l-114 127l92 24zM170 0h-89v477h89v-477z" />
    <glyph glyph-name="iacute" unicode="&#xed;" horiz-adv-x="243" 
d="M260 674l-114 -127h-51l73 151zM170 0h-89v477h89v-477z" />
    <glyph glyph-name="icircumflex" unicode="&#xee;" horiz-adv-x="243" 
d="M247 554l-45 -10l-79 74l-76 -71h-51l90 141h76zM170 0h-89v477h89v-477z" />
    <glyph glyph-name="idieresis" unicode="&#xef;" horiz-adv-x="243" 
d="M246 551h-89v101h89v-101zM87 551h-89v101h89v-101zM170 0h-89v477h89v-477z" />
    <glyph glyph-name="eth" unicode="&#xf0;" horiz-adv-x="539" 
d="M492 298c0 -114 -33 -197 -83 -248c-41 -42 -89 -60 -150 -60c-126 0 -216 85 -216 222c0 134 89 237 208 237c57 0 105 -18 143 -45c-14 65 -44 114 -82 153l-34 -50h-80l60 92c-34 21 -73 37 -115 49l12 74c55 -14 104 -33 146 -58l39 58l77 -14l-58 -84
c84 -73 133 -179 133 -326zM405 317c-38 34 -89 58 -141 58c-80 0 -131 -64 -131 -157s50 -154 133 -154c84 0 140 89 140 224c0 10 0 20 -1 29z" />
    <glyph glyph-name="ntilde" unicode="&#xf1;" 
d="M459 0h-89v325c0 49 -21 82 -73 82c-47 0 -95 -31 -138 -77v-330h-89v477h71l11 -69c45 41 101 79 169 79c90 0 138 -54 138 -140v-347zM421 664c-9 -76 -36 -114 -82 -114c-26 0 -44 9 -71 23c-38 20 -50 25 -65 25s-24 -11 -32 -51l-58 12c9 76 36 114 82 114
c26 0 44 -9 71 -23c38 -20 50 -25 65 -25s24 12 32 51z" />
    <glyph glyph-name="ograve" unicode="&#xf2;" 
d="M484 238c0 -157 -94 -248 -222 -248c-127 0 -219 91 -219 248s92 249 219 249c128 0 222 -92 222 -249zM394 238c0 98 -46 174 -132 174s-129 -74 -129 -174c0 -98 45 -174 129 -174c88 0 132 74 132 174zM296 547h-60l-134 127l108 24z" />
    <glyph glyph-name="oacute" unicode="&#xf3;" 
d="M421 674l-134 -127h-60l86 151zM484 238c0 -157 -94 -248 -222 -248c-127 0 -219 91 -219 248s92 249 219 249c128 0 222 -92 222 -249zM394 238c0 98 -46 174 -132 174s-129 -74 -129 -174c0 -98 45 -174 129 -174c88 0 132 74 132 174z" />
    <glyph glyph-name="ocircumflex" unicode="&#xf4;" 
d="M484 238c0 -157 -94 -248 -222 -248c-127 0 -219 91 -219 248s92 249 219 249c128 0 222 -92 222 -249zM394 238c0 98 -46 174 -132 174s-129 -74 -129 -174c0 -98 45 -174 129 -174c88 0 132 74 132 174zM398 554l-49 -10l-88 74l-85 -71h-56l100 141h84z" />
    <glyph glyph-name="otilde" unicode="&#xf5;" 
d="M484 238c0 -157 -94 -248 -222 -248c-127 0 -219 91 -219 248s92 249 219 249c128 0 222 -92 222 -249zM394 238c0 98 -46 174 -132 174s-129 -74 -129 -174c0 -98 45 -174 129 -174c88 0 132 74 132 174zM415 664c-9 -76 -36 -114 -82 -114c-26 0 -44 9 -71 23
c-38 20 -50 25 -65 25s-24 -11 -32 -51l-58 12c9 76 36 114 82 114c26 0 44 -9 71 -23c38 -20 50 -25 65 -25s24 12 32 51z" />
    <glyph glyph-name="odieresis" unicode="&#xf6;" 
d="M484 238c0 -157 -94 -248 -222 -248c-127 0 -219 91 -219 248s92 249 219 249c128 0 222 -92 222 -249zM394 238c0 98 -46 174 -132 174s-129 -74 -129 -174c0 -98 45 -174 129 -174c88 0 132 74 132 174zM400 551h-99v101h99v-101zM221 551h-99v101h99v-101z" />
    <glyph glyph-name="divide" unicode="&#xf7;" horiz-adv-x="572" 
d="M335 467h-98v107h98v-107zM518 301h-464v74h464v-74zM335 102h-98v107h98v-107z" />
    <glyph glyph-name="oslash" unicode="&#xf8;" 
d="M489 469l-52 -67c30 -41 47 -96 47 -164c0 -157 -94 -248 -222 -248c-47 0 -89 13 -123 36l-27 -34l-74 16l52 66c-30 40 -47 96 -47 164c0 157 92 249 219 249c48 0 90 -13 126 -37l27 35zM339 389c-20 17 -46 26 -77 26c-88 0 -132 -75 -132 -177c0 -35 5 -66 16 -93z
M380 331l-193 -244c20 -16 45 -25 75 -25c89 0 135 74 135 176c0 34 -6 66 -17 93z" />
    <glyph glyph-name="ugrave" unicode="&#xf9;" 
d="M457 0h-71l-11 69c-45 -42 -102 -79 -169 -79c-91 0 -138 54 -138 140v347h89v-325c0 -49 21 -82 73 -82c47 0 95 31 138 77v330h89v-477zM290 547h-60l-134 127l108 24z" />
    <glyph glyph-name="uacute" unicode="&#xfa;" 
d="M457 0h-71l-11 69c-45 -42 -102 -79 -169 -79c-91 0 -138 54 -138 140v347h89v-325c0 -49 21 -82 73 -82c47 0 95 31 138 77v330h89v-477zM405 674l-134 -127h-60l86 151z" />
    <glyph glyph-name="ucircumflex" unicode="&#xfb;" 
d="M457 0h-71l-11 69c-45 -42 -102 -79 -169 -79c-91 0 -138 54 -138 140v347h89v-325c0 -49 21 -82 73 -82c47 0 95 31 138 77v330h89v-477zM399 554l-49 -10l-88 74l-85 -71h-56l100 141h84z" />
    <glyph glyph-name="udieresis" unicode="&#xfc;" 
d="M457 0h-71l-11 69c-45 -42 -102 -79 -169 -79c-91 0 -138 54 -138 140v347h89v-325c0 -49 21 -82 73 -82c47 0 95 31 138 77v330h89v-477zM404 551h-99v101h99v-101zM225 551h-99v101h99v-101z" />
    <glyph glyph-name="yacute" unicode="&#xfd;" horiz-adv-x="483" 
d="M460 477l-192 -519c-41 -111 -92 -140 -171 -140c-12 0 -22 2 -31 4l-12 78c15 -4 33 -7 50 -7c37 0 62 18 76 56l18 49l-174 472l88 14l130 -380l127 373h91zM399 665l-134 -127h-60l86 151z" />
    <glyph glyph-name="thorn" unicode="&#xfe;" horiz-adv-x="538" 
d="M495 252c0 -174 -100 -258 -216 -258c-47 0 -90 9 -120 21v-188l-89 -13v894l89 14v-306c34 36 80 71 148 71c103 0 188 -76 188 -235zM405 248c0 104 -47 160 -112 160c-54 0 -96 -33 -134 -84v-229c36 -18 66 -26 113 -26c79 0 133 61 133 179z" />
    <glyph glyph-name="ydieresis" unicode="&#xff;" horiz-adv-x="483" 
d="M460 477l-192 -519c-41 -111 -92 -140 -171 -140c-12 0 -22 2 -31 4l-12 78c15 -4 33 -7 50 -7c37 0 62 18 76 56l18 49l-174 472l88 14l130 -380l127 373h91zM380 551h-99v101h99v-101zM201 551h-99v101h99v-101z" />
    <glyph glyph-name="NUL" horiz-adv-x="0" 
 />
    <glyph glyph-name="Lslash" unicode="&#x141;" horiz-adv-x="490" 
d="M462 0h-356v311l-74 -16l-14 82l88 19v294h93v-274l159 34v-84l-159 -35v-245h250z" />
    <glyph glyph-name="lslash" unicode="&#x142;" horiz-adv-x="289" 
d="M272 365l-84 -18v-347h-87v329l-76 -17l-13 78l89 19v299l87 14v-295l84 18v-80z" />
    <glyph glyph-name="onehalf" unicode="&#xbd;" horiz-adv-x="500" 
d="M25 -200v1000h450v-1000h-450z" />
    <glyph glyph-name="onequarter" unicode="&#xbc;" horiz-adv-x="500" 
d="M25 -200v1000h450v-1000h-450z" />
    <glyph glyph-name="threequarters" unicode="&#xbe;" horiz-adv-x="500" 
d="M25 -200v1000h450v-1000h-450z" />
    <glyph glyph-name="brokenbar" unicode="&#xa6;" horiz-adv-x="500" 
d="M25 -200v1000h450v-1000h-450z" />
    <glyph glyph-name="minus" unicode="&#x2212;" horiz-adv-x="500" 
d="M25 -200v1000h450v-1000h-450z" />
    <glyph glyph-name="dagger" unicode="&#x2020;" horiz-adv-x="499" 
d="M289 611l-22 -135h-35l-21 135v79h78v-79zM454 399h-29l-135 21v33l135 22h29v-76zM210 420l-136 -21h-29v76h29l136 -22v-33zM286 17l-21 -131h-31l-21 131v262l19 119h35l19 -119v-262z" />
    <glyph glyph-name="bullet" unicode="&#x2022;" horiz-adv-x="421" 
d="M343 345l-19 -123l-113 -18l-113 18l-20 123l20 124l113 17l113 -17z" />
    <glyph glyph-name="trademark" unicode="&#x2122;" horiz-adv-x="799" 
d="M744 345h-60l-19 240l-98 -241h-47l-98 241l-20 -240h-58l27 345h71l103 -258l102 258h69zM310 636h-111v-291h-60v291h-108v54h270z" />
    <glyph glyph-name="acute" unicode="&#xb4;" horiz-adv-x="454" 
d="M331 674l-134 -127h-60l86 151z" />
    <glyph glyph-name="dieresis" unicode="&#xa8;" horiz-adv-x="454" 
d="M366 551h-99v101h99v-101zM187 551h-99v101h99v-101z" />
    <glyph glyph-name="notequal" unicode="&#x2260;" horiz-adv-x="514" 
d="M467 196c0 -126 -94 -209 -240 -209c-70 0 -145 21 -193 53l15 88c58 -40 113 -60 183 -60c87 0 143 47 143 127c0 84 -68 122 -183 122h-36l-11 67l193 211h-282l-13 81h409v-70l-202 -218c130 -10 217 -66 217 -192z" />
    <glyph glyph-name="infinity" unicode="&#x221e;" horiz-adv-x="499" 
d="M431 0h-72l-10 64c-38 -39 -90 -74 -168 -74c-86 0 -140 52 -140 133c0 119 102 166 301 187v20c0 60 -36 81 -91 81c-58 0 -113 -18 -165 -41l-12 77c57 23 111 40 185 40c116 0 172 -47 172 -153v-334zM342 131v111c-176 -17 -213 -65 -213 -114c0 -39 26 -64 71 -64
c52 0 102 26 142 67z" />
    <glyph glyph-name="lessequal" unicode="&#x2264;" horiz-adv-x="881" 
d="M798 0h-87v538l-237 -541h-71l-237 541v-538h-83v690h116l242 -566l243 566h114v-690z" />
    <glyph glyph-name="greaterequal" unicode="&#x2265;" horiz-adv-x="693" 
d="M522 77c-66 -51 -137 -85 -219 -85c-139 0 -226 69 -226 227v471h94v-458c0 -103 43 -155 138 -155c75 0 143 35 207 92v521h94v-690h-76z" />
    <glyph glyph-name="mu" unicode="&#x3bc;" horiz-adv-x="572" 
d="M448 122l-163 165l-163 -165l-52 52l165 163l-165 163l54 54l163 -165l163 165l52 -52l-165 -163l165 -163z" />
    <glyph glyph-name="partialdiff" unicode="&#x2202;" horiz-adv-x="751" 
d="M704 75l-19 -89l-103 81c-54 -50 -127 -80 -211 -80c-194 0 -317 144 -317 357c0 214 125 359 319 359c195 0 317 -144 317 -357c0 -84 -20 -158 -57 -217zM594 345c0 166 -86 272 -222 272c-137 0 -221 -106 -221 -272s85 -272 221 -272c56 0 104 17 140 47l-161 120
l111 23l99 -79c22 43 33 98 33 161z" />
    <glyph glyph-name="summation" unicode="&#x2211;" horiz-adv-x="1019" 
d="M988 690l-247 -693h-84l-149 391l-145 -391h-83l-249 680l92 20l200 -572l141 379l-66 173l92 20l210 -572l190 565h98z" />
    <glyph glyph-name="product" unicode="&#x220f;" horiz-adv-x="500" 
d="M25 -200v1000h450v-1000h-450z" />
    <glyph glyph-name="pi" unicode="&#x3c0;" horiz-adv-x="799" 
d="M745 346c0 -213 -142 -359 -346 -359c-205 0 -345 144 -345 357c0 214 142 359 346 359c205 0 345 -144 345 -357zM701 345c0 207 -132 322 -301 322c-172 0 -302 -115 -302 -322s132 -322 302 -322c171 0 301 115 301 322zM545 422c0 -83 -58 -126 -148 -126h-39v-146
h-67v394h113c86 0 141 -46 141 -122zM478 420c0 41 -28 64 -77 64h-43v-129h41c49 0 79 22 79 65z" />
    <glyph glyph-name="integral" unicode="&#x222b;" horiz-adv-x="533" 
d="M463 9c0 -115 -65 -191 -214 -191c-67 0 -128 15 -178 37l13 84c49 -28 106 -45 171 -45c86 0 119 45 119 109v61c-32 -32 -78 -65 -143 -65c-103 0 -188 75 -188 231c0 168 96 253 234 253c72 0 123 -11 186 -30v-444zM374 156v234c-30 11 -52 17 -96 17
c-93 0 -145 -57 -145 -174c0 -99 47 -155 111 -155c50 0 94 33 130 78z" />
    <glyph glyph-name="Omega" unicode="&#x3a9;" horiz-adv-x="621" 
d="M607 630c-10 2 -29 4 -47 4c-41 0 -65 -17 -65 -61v-96h95l12 -75h-107v-402h-87v402h-72v75h72v105c0 95 62 131 148 131c18 0 29 -2 38 -2zM296 630c-10 2 -28 4 -46 4c-41 0 -66 -17 -66 -61v-96h96l11 -75h-107v-402h-87v402h-72v75h72v105c0 95 63 131 148 131
c18 0 29 -2 38 -2z" />
    <glyph glyph-name="radical" unicode="&#x221a;" horiz-adv-x="864" 
d="M787 0h-89v708l89 14v-722zM607 630c-10 2 -29 4 -47 4c-41 0 -65 -17 -65 -61v-96h95l12 -75h-107v-402h-87v402h-72v75h72v105c0 95 62 131 148 131c18 0 29 -2 38 -2zM296 630c-10 2 -28 4 -46 4c-41 0 -66 -17 -66 -61v-96h96l11 -75h-107v-402h-87v402h-72v75h72
v105c0 95 63 131 148 131c18 0 29 -2 38 -2z" />
    <glyph glyph-name="florin" unicode="&#x192;" horiz-adv-x="382" 
d="M132 453l14 90c16 99 64 141 163 141c20 0 35 -1 45 -2v-80c-10 1 -30 3 -45 3c-45 0 -67 -22 -76 -77l-12 -75h93v-75h-105l-60 -378h-89l60 378h-69l12 75h69z" />
    <glyph glyph-name="approxequal" unicode="&#x2248;" horiz-adv-x="864" 
d="M797 631c0 -30 -24 -54 -54 -54s-55 24 -55 54s25 55 55 55s54 -25 54 -55zM607 630c-10 2 -29 4 -47 4c-41 0 -65 -17 -65 -61v-96h95l12 -75h-107v-402h-87v402h-72v75h72v105c0 95 62 131 148 131c18 0 29 -2 38 -2zM296 630c-10 2 -28 4 -46 4c-41 0 -66 -17 -66 -61
v-96h96l11 -75h-107v-402h-87v402h-72v75h72v105c0 95 63 131 148 131c18 0 29 -2 38 -2zM787 0h-89v477h89v-477z" />
    <glyph glyph-name="Delta" unicode="&#x394;" horiz-adv-x="500" 
d="M25 -200v1000h450v-1000h-450z" />
    <glyph glyph-name="ellipsis" unicode="&#x2026;" horiz-adv-x="726" 
d="M654 0h-100v119h100v-119zM413 0h-100v119h100v-119zM173 0h-100v119h100v-119z" />
    <glyph glyph-name="endash" unicode="&#x2013;" horiz-adv-x="454" 
d="M400 242h-346v84h346v-84z" />
    <glyph glyph-name="emdash" unicode="&#x2014;" horiz-adv-x="908" 
d="M854 243h-800v82h800v-82z" />
    <glyph glyph-name="quotedblleft" unicode="&#x201c;" horiz-adv-x="409" 
d="M175 686l-29 -221h-103l82 233zM357 686l-29 -221h-103l82 233z" />
    <glyph glyph-name="quotedblright" unicode="&#x201d;" horiz-adv-x="409" 
d="M184 690l-82 -233l-50 12l29 221h103zM366 690l-82 -233l-50 12l29 221h103z" />
    <glyph glyph-name="quoteleft" unicode="&#x2018;" horiz-adv-x="227" 
d="M175 686l-29 -221h-103l82 233z" />
    <glyph glyph-name="quoteright" unicode="&#x2019;" horiz-adv-x="227" 
d="M184 690l-82 -233l-50 12l29 221h103z" />
    <glyph glyph-name="lozenge" unicode="&#x25ca;" horiz-adv-x="799" 
d="M744 345h-60l-19 240l-98 -241h-47l-98 241l-20 -240h-58l27 345h71l103 -258l102 258h69zM167 340c-37 0 -72 9 -99 25l7 58c29 -18 61 -32 93 -32s55 16 55 43c0 29 -16 43 -57 61c-69 31 -95 52 -95 107s44 93 110 93c34 0 61 -7 84 -21l-10 -57c-24 16 -49 27 -76 27
c-33 0 -52 -16 -52 -37c0 -27 14 -39 57 -58c70 -31 95 -54 95 -111c0 -60 -45 -98 -112 -98z" />
    <glyph glyph-name="fraction" unicode="&#x2044;" horiz-adv-x="452" 
d="M535 766l-537 -874l-77 18l537 874z" />
    <glyph glyph-name="currency" unicode="&#xa4;" horiz-adv-x="591" 
d="M113 388h-87v70h98c33 137 122 231 259 231c71 0 125 -19 170 -52l-15 -86c-47 37 -92 59 -155 59c-86 0 -145 -57 -171 -152h229l11 -70h-252c-1 -16 -2 -33 -2 -50c0 -16 1 -31 2 -45h247v-70h-235c25 -97 85 -156 173 -156c62 0 114 23 165 63l14 -83
c-48 -35 -112 -60 -182 -60c-140 0 -230 94 -260 236h-89l-11 70h91c-1 15 -2 29 -2 44c0 17 1 34 2 51z" />
    <glyph glyph-name="guilsinglleft" unicode="&#x2039;" horiz-adv-x="323" 
d="M278 477l-146 -238l140 -228l-75 -16l-162 244l159 238h84z" />
    <glyph glyph-name="guilsinglright" unicode="&#x203a;" horiz-adv-x="323" 
d="M288 238l-159 -238h-84l147 238l-141 228l75 16z" />
    <glyph glyph-name="fi" unicode="&#xfb01;" horiz-adv-x="554" 
d="M487 631c0 -30 -25 -54 -55 -54s-54 24 -54 54s24 55 54 55s55 -25 55 -55zM296 630c-10 2 -28 4 -46 4c-41 0 -66 -17 -66 -61v-96h96l11 -75h-107v-402h-87v402h-72v75h72v105c0 95 63 131 148 131c18 0 29 -2 38 -2zM477 0h-89v477h89v-477z" />
    <glyph glyph-name="fl" unicode="&#xfb02;" horiz-adv-x="554" 
d="M477 0h-89v708l89 14v-722zM296 630c-10 2 -28 4 -46 4c-41 0 -66 -17 -66 -61v-96h96l11 -75h-107v-402h-87v402h-72v75h72v105c0 95 63 131 148 131c18 0 29 -2 38 -2z" />
    <glyph glyph-name="daggerdbl" unicode="&#x2021;" horiz-adv-x="518" 
d="M298 611l-22 -135h-34l-22 135v79h78v-79zM463 399h-29l-135 21v33l135 22h29v-76zM219 420l-135 -21h-30v76h30l135 -22v-33zM295 230l-19 -119h-34l-20 119v49l20 119h34l19 -119v-49zM463 34h-29l-135 21v33l135 22h29v-76zM219 55l-135 -21h-30v76h30l135 -22v-33z
M298 -182h-78v79l22 136h34l22 -136v-79z" />
    <glyph glyph-name="quotesinglbase" unicode="&#x201a;" horiz-adv-x="227" 
d="M177 119l-82 -233l-50 12l29 221h103z" />
    <glyph glyph-name="quotedblbase" unicode="&#x201e;" horiz-adv-x="409" 
d="M177 119l-82 -233l-50 12l29 221h103zM359 119l-82 -233l-50 12l29 221h103z" />
    <glyph glyph-name="perthousand" unicode="&#x2030;" horiz-adv-x="799" 
d="M745 346c0 -213 -142 -359 -346 -359c-205 0 -345 144 -345 357c0 214 142 359 346 359c205 0 345 -144 345 -357zM701 345c0 207 -132 322 -301 322c-172 0 -302 -115 -302 -322s132 -322 302 -322c171 0 301 115 301 322zM457 318l114 -152l-71 -16l-114 156h-41v-151
h-67v394h115c85 0 141 -45 141 -121c0 -56 -31 -93 -77 -110zM391 490h-46v-127h44c48 0 77 22 77 63c0 39 -26 64 -75 64z" />
    <glyph glyph-name="apple" horiz-adv-x="694" 
d="M644 -200h-208l-8 14h-163l-8 -14h-207v303c18 0 32 14 32 32c0 17 -14 32 -32 32v554h100l30 79h334l29 -79h101v-921zM400 563v-172h15v78h38v14h-38v66h43v14h-58zM184 563v-172h15v79h47v-79h15v172h-15v-79h-47v79h-15zM460 394c4 -2 15 -4 21 -4c20 0 31 11 31 36
v137h-16v-137c0 -16 -5 -22 -16 -22c-5 0 -15 3 -20 6v-16zM523 323v-46h8v13l7 7l16 -20h9l-19 26l18 20h-10l-21 -24v24h-8zM488 292l10 -15h9l-12 17c6 2 10 8 10 15c0 6 -6 14 -16 14h-21v-46h8v15h12zM426 276c15 0 24 11 24 24c0 12 -10 24 -24 24s-23 -12 -23 -24
c0 -13 9 -24 23 -24zM370 301l-13 22h-9l18 -29v-17h8v17l18 29h-9zM193 323v-46h33v7h-25v13h22v7h-22v12h25v7h-33zM132 323v-46h8v32l25 -32h7v46h-8v-32l-25 32h-7zM241 323l15 -47h8l10 34h1l11 -34h8l14 47h-8l-10 -35h-1l-10 35h-8l-11 -35h-1l-10 35h-8zM327 479
c-7 13 -12 22 -12 32s6 19 14 19s13 -9 13 -19c0 -12 -5 -21 -15 -32zM342 423c-3 -10 -11 -21 -18 -21c-10 0 -17 12 -17 27c0 11 6 24 15 33zM488 299h-12v17h11c6 0 10 -3 10 -8s-4 -9 -9 -9zM426 283c-9 0 -15 8 -15 17c0 8 6 17 15 17s16 -9 16 -17
c0 -9 -7 -17 -16 -17zM349 438l-16 31c13 12 23 26 23 42c0 15 -9 31 -27 31c-17 0 -28 -16 -28 -31s6 -24 14 -39c-15 -12 -23 -28 -23 -45c0 -22 13 -39 31 -39c13 0 22 12 27 24h1l12 -24l11 8l-16 30c5 12 10 25 13 39l-13 3c-2 -9 -6 -21 -9 -30z" />
    <glyph glyph-name="dotlessi" unicode="&#x131;" horiz-adv-x="243" 
d="M170 0h-89v477h89v-477z" />
    <glyph glyph-name="circumflex" unicode="&#x2c6;" horiz-adv-x="454" 
d="M363 554l-49 -10l-88 74l-85 -71h-56l100 141h84z" />
    <glyph glyph-name="tilde" unicode="&#x2dc;" horiz-adv-x="454" 
d="M381 664c-9 -76 -36 -114 -82 -114c-26 0 -44 9 -71 23c-38 20 -50 25 -65 25s-24 -11 -32 -51l-58 12c9 76 36 114 82 114c26 0 44 -9 71 -23c38 -20 50 -25 65 -25s24 12 32 51z" />
    <glyph glyph-name="breve" unicode="&#x2d8;" horiz-adv-x="454" 
d="M358 693c-5 -91 -51 -145 -132 -145c-72 0 -122 49 -129 137l61 13c3 -51 27 -76 70 -76c38 0 63 23 68 71h62z" />
    <glyph glyph-name="dotaccent" unicode="&#x2d9;" horiz-adv-x="454" 
d="M277 551h-100v101h100v-101z" />
    <glyph glyph-name="ring" unicode="&#x2da;" horiz-adv-x="454" 
d="M331 647c0 -60 -44 -102 -104 -102s-104 42 -104 102c0 59 44 104 104 104s104 -45 104 -104zM284 647c0 34 -24 60 -57 60s-57 -26 -57 -60s24 -59 57 -59s57 25 57 59z" />
    <glyph glyph-name="cedilla" unicode="&#xb8;" horiz-adv-x="454" 
d="M306 -74l-123 -108h-60l76 133z" />
    <glyph glyph-name="hungarumlaut" unicode="&#x2dd;" horiz-adv-x="454" 
d="M394 676l-129 -125h-53l84 147zM237 676l-129 -125h-53l84 147z" />
    <glyph glyph-name="ogonek" unicode="&#x2db;" horiz-adv-x="454" 
d="M331 -182h-60l-123 108l107 25z" />
    <glyph glyph-name="caron" unicode="&#x2c7;" horiz-adv-x="454" 
d="M369 688l-100 -141h-84l-94 134l49 10l88 -74l85 71h56z" />
  </font>
</defs>
</svg>
