<?xml version="1.0" standalone="no"?>
<!DOCTYPE svg PUBLIC "-//W3C//DTD SVG 1.1//EN" "http://www.w3.org/Graphics/SVG/1.1/DTD/svg11.dtd" >
<svg xmlns="http://www.w3.org/2000/svg" xmlns:xlink="http://www.w3.org/1999/xlink" version="1.1">
<metadata>
Created by FontForge 20170731 at Mon Oct 20 12:31:07 2014
 By Aleksey,,,
Copyright (c) 2014 by Daniel Hernandez &#38; Miguel Hernandez. All rights reserved.
</metadata>
<defs>
<font id="Texta-Regular" horiz-adv-x="207" >
  <font-face 
    font-family="Texta"
    font-weight="400"
    font-stretch="normal"
    units-per-em="1000"
    panose-1="2 0 0 0 0 0 0 0 0 0"
    ascent="800"
    descent="-200"
    x-height="420"
    cap-height="600"
    bbox="-22 -192 986 813"
    underline-thickness="50"
    underline-position="-200"
    unicode-range="U+000D-25CA"
  />
<missing-glyph horiz-adv-x="564" 
 />
    <glyph glyph-name=".notdef" horiz-adv-x="564" 
 />
    <glyph glyph-name=".null" horiz-adv-x="0" 
 />
    <glyph glyph-name="nonmarkingreturn" horiz-adv-x="333" 
 />
    <glyph glyph-name="NUL" horiz-adv-x="0" 
 />
    <glyph glyph-name="NUL" horiz-adv-x="0" 
 />
    <glyph glyph-name="CR" unicode="&#xd;" horiz-adv-x="105" 
 />
    <glyph glyph-name="space" unicode=" " horiz-adv-x="224" 
 />
    <glyph glyph-name="exclam" unicode="!" 
d="M146 600l-18 -433h-49l-19 433h86zM56 42q0 20 14 34.5t34 14.5t34.5 -14.5t14.5 -34.5q0 -21 -14.5 -35.5t-34.5 -14.5t-34 14.5t-14 35.5z" />
    <glyph glyph-name="quotedbl" unicode="&#x22;" horiz-adv-x="315" 
d="M139 684l-44 -209h-43l19 209h68zM280 684l-44 -209h-43l19 209h68z" />
    <glyph glyph-name="numbersign" unicode="#" horiz-adv-x="612" 
d="M498 583l-35 -162h117l-10 -45h-117l-37 -171h113l-9 -45h-114l-34 -160h-47l34 160h-162l-34 -160h-48l34 160h-117l10 45h117l37 171h-113l9 45h114l35 162h47l-35 -162h161l35 162h49zM243 376l-36 -171h161l37 171h-162z" />
    <glyph glyph-name="dollar" unicode="$" horiz-adv-x="505" 
d="M40 57l38 53q20 -20 66 -39q38 -15 81 -18v227q-96 31 -142 70q-42 38 -42 102q0 68 49 110.5t135 49.5v104h59v-104q48 -3 91 -17.5t61 -28.5l15 -12l-38 -58q-16 16 -58 32q-29 12 -71 17v-207q101 -30 143.5 -72.5t42.5 -109.5q0 -71 -48.5 -116t-137.5 -53v-94h-59
v94q-55 3 -103 20q-47 18 -64 34zM398 155q0 37 -24.5 60.5t-89.5 46.5v-209q114 13 114 102zM113 452q0 -32 24.5 -53t87.5 -43v189q-52 -5 -82 -29.5t-30 -63.5z" />
    <glyph glyph-name="percent" unicode="%" horiz-adv-x="651" 
d="M170 613q58 0 93 -43t35 -108q0 -63 -35 -107t-93 -44q-59 0 -94 43t-35 108t35 108t94 43zM170 556q-32 0 -49.5 -25.5t-17.5 -68.5q0 -42 17.5 -68t49.5 -26q30 0 48 26t18 68t-18 68t-48 26zM611 143q0 -61 -35 -107q-35 -44 -94 -44t-94 44q-35 46 -35 107
q0 63 35 107t94 44t94 -44t35 -107zM482 238q-32 0 -49.5 -26t-17.5 -69q0 -40 18.5 -66.5t48.5 -26.5t48 25.5t18 67.5q0 43 -18 69t-48 26zM521 600h78l-477 -600h-76z" />
    <glyph glyph-name="ampersand" unicode="&#x26;" horiz-adv-x="585" 
d="M463 278l65 -17q-16 -84 -55 -148l113 -113h-102l-56 57q-68 -67 -172 -67q-97 0 -152 46q-56 47 -56 115q0 56 30.5 94t94.5 73l-15 16q-58 58 -58 133q0 61 43 103q43 43 114 43t114 -38.5t43 -101.5q0 -57 -32 -95.5t-99 -73.5l143 -144q23 45 37 118zM253 50
q79 0 131 52l-164 168q-50 -28 -73 -54t-23 -63q0 -46 38 -75q37 -28 91 -28zM171 467q0 -29 11.5 -51t39.5 -50l15 -16q56 29 81.5 55t25.5 62q0 40 -24 63.5t-63 23.5t-62.5 -24t-23.5 -63z" />
    <glyph glyph-name="quotesingle" unicode="'" horiz-adv-x="174" 
d="M139 684l-44 -209h-43l19 209h68z" />
    <glyph glyph-name="parenleft" unicode="(" horiz-adv-x="259" 
d="M242 -94l-42 -43q-160 170 -160 424t160 424l42 -43q-130 -149 -130 -381t130 -381z" />
    <glyph glyph-name="parenright" unicode=")" horiz-adv-x="259" 
d="M17 668l42 43q160 -170 160 -424t-160 -424l-42 43q130 149 130 381t-130 381z" />
    <glyph glyph-name="asterisk" unicode="*" horiz-adv-x="387" 
d="M82 445l94 96l-131 21l22 62l115 -67l-19 134h62l-24 -135l119 68l22 -62l-134 -21l96 -96l-53 -37l-59 120l-59 -120z" />
    <glyph glyph-name="plus" unicode="+" horiz-adv-x="514" 
d="M287 515v-192h187v-58h-187v-184h-60v184h-187v58h187v192h60z" />
    <glyph glyph-name="comma" unicode="," horiz-adv-x="202" 
d="M14 -83q34 8 55 28t23 46q-17 2 -28 15t-11 30q0 20 13.5 33.5t33.5 13.5t33.5 -13.5t13.5 -33.5v-8q0 -60 -32.5 -100t-88.5 -51z" />
    <glyph glyph-name="hyphen" unicode="-" horiz-adv-x="398" 
d="M59 200v58h280v-58h-280z" />
    <glyph glyph-name="period" unicode="." horiz-adv-x="200" 
d="M53 36q0 20 13.5 33.5t33.5 13.5t33.5 -13.5t13.5 -33.5q0 -19 -13.5 -32.5t-33.5 -13.5t-33.5 13.5t-13.5 32.5z" />
    <glyph glyph-name="slash" unicode="/" horiz-adv-x="567" 
d="M97 -111l-76 -1l451 895h73z" />
    <glyph glyph-name="zero" unicode="0" horiz-adv-x="598" 
d="M299 -14q-116 0 -184 89q-68 91 -68 224q0 135 68 224q67 90 184 90t184 -90q68 -89 68 -224q0 -133 -68 -224q-68 -89 -184 -89zM480 299q0 107 -48 177q-48 71 -133 71t-133 -71q-48 -70 -48 -177q0 -105 48 -176q48 -70 133 -70t133 70q48 71 48 176z" />
    <glyph glyph-name="one" unicode="1" horiz-adv-x="294" 
d="M15 535v65h207v-600h-70v535h-137z" />
    <glyph glyph-name="two" unicode="2" horiz-adv-x="490" 
d="M46 0v47l252 261q35 36 48.5 62.5t13.5 57.5q0 52 -36 85.5t-94 33.5q-80 0 -153 -73l-38 55q18 18 32 29q22 17 39 26q54 29 121 29q95 0 148 -49.5t53 -132.5q0 -80 -64 -147l-212 -219h291v-65h-401z" />
    <glyph glyph-name="three" unicode="3" horiz-adv-x="489" 
d="M226 294h-66v59l175 182h-283v65h378v-59l-183 -187q92 -1 142.5 -48.5t50.5 -131.5q0 -81 -56 -135q-56 -53 -153 -53q-69 0 -117 25t-68 51l-7 8l42 51q7 -10 9.5 -13t18 -14.5t38.5 -22.5q37 -19 82 -19q63 0 101.5 34.5t38.5 87.5q0 58 -36.5 89t-106.5 31z" />
    <glyph glyph-name="four" unicode="4" horiz-adv-x="549" 
d="M24 142v52l338 406h52v-393h107v-65h-107v-142h-70v142h-320zM118 210v-3h226v274l-212 -258z" />
    <glyph glyph-name="five" unicode="5" horiz-adv-x="480" 
d="M410 535h-267l-5 -180q40 9 84 9q104 0 160.5 -49t56.5 -134q0 -88 -56 -141.5t-154 -53.5q-69 0 -116.5 25t-67.5 51l-7 8l42 51q7 -10 9.5 -13t18 -14.5t38.5 -22.5q37 -19 82 -19q64 0 102 34.5t38 94.5q0 54 -39.5 86t-108.5 32q-74 0 -119 -19q-12 -4 -15 -7l-15 12
l9 315h330v-65z" />
    <glyph glyph-name="six" unicode="6" horiz-adv-x="519" 
d="M119 298v-3q54 78 160 78q87 0 143 -54t56 -132q0 -82 -58 -140q-57 -57 -146 -57q-105 0 -165 76.5t-60 231.5q0 153 66 234t173 81q45 0 83 -15t55 -30t28 -30l5 -9l-42 -51l-3 4q-3 4 -8 10t-13 13t-18.5 14.5t-23 13.5t-29 10t-34.5 4q-169 0 -169 -249zM278 307
q-59 0 -99 -33t-50 -89q30 -129 145 -129q57 0 95.5 38t38.5 93q0 53 -36 86.5t-94 33.5z" />
    <glyph glyph-name="seven" unicode="7" horiz-adv-x="434" 
d="M28 535v65h392v-47l-263 -553h-85l259 535h-303z" />
    <glyph glyph-name="eight" unicode="8" horiz-adv-x="514" 
d="M258 -14q-98 0 -154 52q-56 53 -56 129q0 102 91 148q-76 43 -76 130q0 73 53 120q52 48 142 48q88 0 141 -48q52 -46 52 -120q0 -87 -76 -130q91 -46 91 -148q0 -77 -57 -129q-55 -52 -151 -52zM258 282q-62 0 -100.5 -32t-38.5 -83t38.5 -83t100.5 -32q61 0 99 32.5
t38 82.5t-38 82.5t-99 32.5zM258 343q57 0 89.5 28.5t32.5 74.5q0 44 -33 72.5t-89 28.5q-58 0 -91 -28.5t-33 -72.5q0 -46 32.5 -74.5t91.5 -28.5z" />
    <glyph glyph-name="nine" unicode="9" horiz-adv-x="516" 
d="M238 52q80 0 122 63t37 190v2q-56 -77 -160 -77q-87 0 -143 54t-56 132q0 82 57 139q58 58 147 58q105 0 165 -76.5t60 -231.5q0 -153 -61 -236t-168 -83q-45 0 -83 15t-55 30t-28 31l-5 8l42 51l1 -1q1 -2 3 -4.5t5 -6t6.5 -7.5t8 -8t10.5 -9t12 -9q38 -24 83 -24z
M386 414q-31 133 -144 133q-57 0 -95.5 -38t-38.5 -93q0 -53 36 -86.5t94 -33.5q57 0 97 32t51 86z" />
    <glyph glyph-name="colon" unicode=":" horiz-adv-x="212" 
d="M59 36q0 20 13.5 33.5t33.5 13.5t33.5 -13.5t13.5 -33.5q0 -19 -13.5 -32.5t-33.5 -13.5t-33.5 13.5t-13.5 32.5zM59 380q0 20 13.5 33.5t33.5 13.5t33.5 -13.5t13.5 -33.5q0 -19 -13.5 -32.5t-33.5 -13.5t-33.5 13.5t-13.5 32.5z" />
    <glyph glyph-name="semicolon" unicode=";" horiz-adv-x="234" 
d="M34 -83q34 8 55 28t23 46q-17 2 -28 15t-11 30q0 20 13.5 33.5t33.5 13.5t33.5 -13.5t13.5 -33.5v-8q0 -60 -32.5 -100t-88.5 -51zM73 380q0 20 13.5 33.5t33.5 13.5t33.5 -13.5t13.5 -33.5q0 -19 -13.5 -32.5t-33.5 -13.5t-33.5 13.5t-13.5 32.5z" />
    <glyph glyph-name="less" unicode="&#x3c;" horiz-adv-x="375" 
d="M37 284v30l272 197v-72l-193 -140l193 -140v-72z" />
    <glyph glyph-name="equal" unicode="=" horiz-adv-x="468" 
d="M62 359v58h344v-58h-344zM62 168v58h344v-58h-344z" />
    <glyph glyph-name="greater" unicode="&#x3e;" horiz-adv-x="375" 
d="M338 314v-30l-272 -197v72l193 140l-193 140v72z" />
    <glyph glyph-name="question" unicode="?" horiz-adv-x="417" 
d="M58 502l-29 58q24 21 73 38q42 15 86 15q89 0 141 -42t52 -114q0 -40 -16.5 -72.5t-40 -54.5t-47.5 -41.5t-41.5 -43.5t-19.5 -51l-2 -27h-49v39q0 70 72 128t72 116q0 43 -33.5 70t-87.5 27q-33 0 -65.5 -10.5t-49.5 -23.5zM144 42q0 20 14 34.5t34 14.5t34.5 -14.5
t14.5 -34.5q0 -21 -14.5 -35.5t-34.5 -14.5t-34 14.5t-14 35.5z" />
    <glyph glyph-name="at" unicode="@" horiz-adv-x="1008" 
d="M758 51q-55 0 -89.5 26.5t-44.5 70.5h-6q-12 -19 -49 -51q-47 -40 -122 -40q-79 0 -128 51.5t-49 135.5q0 111 68 182t162 71q44 0 78.5 -16t48.5 -36q12 -14 20 -36l20 78h51l-30 -255q-3 -18 -3 -40q0 -39 20.5 -61t56.5 -22q57 0 96 55t39 151q0 140 -98 252
q-47 55 -122.5 88t-163.5 33q-179 0 -297 -121t-118 -289q0 -170 120 -292q121 -121 291 -121q54 0 108 14q51 13 78 29l25 14l24 -51q-7 -5 -28 -17q-22 -13 -79 -28q-63 -17 -128 -17q-135 0 -244 66q-109 65 -168 171q-58 106 -58 230q0 128 59 234.5t167 169.5
q110 65 248 65q191 0 321 -125q130 -124 130 -303q0 -114 -59 -191q-59 -75 -147 -75zM463 116q71 0 117 55q48 55 48 135q0 61 -34.5 96.5t-90.5 35.5q-65 0 -113 -52t-48 -133q0 -64 33 -100.5t88 -36.5z" />
    <glyph glyph-name="A" unicode="A" horiz-adv-x="595" 
d="M329 600l257 -600h-72l-57 133h-320l-56 -133h-72l257 600h63zM298 510l-133 -312h265z" />
    <glyph glyph-name="B" unicode="B" horiz-adv-x="604" 
d="M559 166q0 -82 -56 -124t-156 -42h-265v600h253q97 0 151 -42t54 -120q0 -48 -24.5 -82t-67.5 -49v-3q52 -13 81.5 -49t29.5 -89zM352 271h-200v-206h197q63 0 100.5 27.5t37.5 77.5q0 46 -37 72.5t-98 28.5zM468 435q0 100 -134 100h-182v-199h182q62 0 98 26.5t36 72.5
z" />
    <glyph glyph-name="C" unicode="C" horiz-adv-x="565" 
d="M499 117l40 -54q-16 -16 -32 -27q-14 -11 -39 -23q-58 -27 -128 -27q-132 0 -216 90q-83 91 -83 223q0 135 83 224q84 90 216 90q59 0 110 -20q53 -21 70 -38l19 -19l-40 -54q-27 27 -73 47q-41 18 -85 18q-99 0 -164 -72q-64 -71 -64 -176q0 -104 64 -175
q65 -72 164 -72q83 0 151 58z" />
    <glyph glyph-name="D" unicode="D" horiz-adv-x="630" 
d="M282 0h-200v600h200q138 0 221 -82q84 -81 84 -218q0 -136 -84 -219q-84 -81 -221 -81zM278 535h-126v-470h126q104 0 171 63q67 64 67 172t-67 171q-67 64 -171 64z" />
    <glyph glyph-name="E" unicode="E" horiz-adv-x="544" 
d="M452 336v-65h-300v-206h351v-65h-421v600h421v-65h-351v-199h300z" />
    <glyph glyph-name="F" unicode="F" horiz-adv-x="531" 
d="M452 336v-65h-300v-271h-70v600h421v-65h-351v-199h300z" />
    <glyph glyph-name="G" unicode="G" horiz-adv-x="638" 
d="M535 259v4h-212v65h282v-42q0 -137 -71 -219q-70 -81 -197 -81q-134 0 -215 89q-80 89 -80 224q0 136 82 224q82 90 217 90q76 0 128 -23t77 -48l7 -8l-41 -53q-11 11 -20 18q-15 12 -58 29q-42 19 -93 19q-103 0 -165 -72q-62 -71 -62 -176t60 -176q62 -71 163 -71
q89 0 143 57q55 56 55 150z" />
    <glyph glyph-name="H" unicode="H" horiz-adv-x="644" 
d="M562 600v-600h-70v263h-340v-263h-70v600h70v-272h340v272h70z" />
    <glyph glyph-name="I" unicode="I" horiz-adv-x="234" 
d="M152 600v-600h-70v600h70z" />
    <glyph glyph-name="J" unicode="J" horiz-adv-x="430" 
d="M18 35l34 53q44 -35 104 -35q128 0 128 153v394h70v-408q0 -100 -49 -153t-143 -53q-42 0 -78 13t-48 21q-12 9 -18 15z" />
    <glyph glyph-name="K" unicode="K" horiz-adv-x="568" 
d="M152 600v-329l316 329h80v-12l-227 -236l231 -340v-12h-74l-206 301l-120 -126v-175h-70v600h70z" />
    <glyph glyph-name="L" unicode="L" horiz-adv-x="489" 
d="M464 0h-382v600h70v-535h312v-65z" />
    <glyph glyph-name="M" unicode="M" horiz-adv-x="723" 
d="M572 0v470l-200 -257h-20l-200 253v-466h-70v600h49l231 -294l231 294h48v-600h-69z" />
    <glyph glyph-name="N" unicode="N" horiz-adv-x="665" 
d="M583 600v-600h-50l-381 476v-476h-70v600h51l380 -474v474h70z" />
    <glyph glyph-name="O" unicode="O" horiz-adv-x="677" 
d="M338 -14q-131 0 -214 89q-82 89 -82 224t81 224q82 90 215 90q134 0 215 -89q82 -88 82 -225q0 -135 -82 -224q-81 -89 -215 -89zM338 53q102 0 164 71t62 175q0 105 -62 176q-62 72 -164 72t-163 -72q-61 -70 -61 -176q0 -105 61 -175q62 -71 163 -71z" />
    <glyph glyph-name="P" unicode="P" horiz-adv-x="577" 
d="M318 600q109 0 168.5 -52t59.5 -148q0 -99 -61.5 -153.5t-170.5 -54.5h-162v-192h-70v600h236zM475 398q0 67 -42 102t-117 35h-164v-278h164q159 0 159 141z" />
    <glyph glyph-name="Q" unicode="Q" horiz-adv-x="677" 
d="M338 -14q-131 0 -214 89q-82 89 -82 224t81 224q82 90 215 90q134 0 215 -89q82 -88 82 -225q0 -93 -41.5 -168t-114.5 -113l87 -140h-80l-72 117q-44 -9 -76 -9zM338 53q102 0 164 71t62 175q0 105 -62 176q-62 72 -164 72t-163 -72q-61 -70 -61 -176q0 -105 61 -175
q62 -71 163 -71z" />
    <glyph glyph-name="R" unicode="R" horiz-adv-x="598" 
d="M82 600h235q109 0 169 -52t60 -148q0 -71 -36 -120t-100 -68v-3l149 -192v-17h-73l-155 199h-179v-199h-70v600zM474 398q0 67 -41.5 102t-116.5 35h-164v-271h172q70 0 110 34t40 100z" />
    <glyph glyph-name="S" unicode="S" horiz-adv-x="509" 
d="M42 57l38 53l20 -16q11 -9 57 -26q44 -16 95 -16q74 0 111 27t37 76q0 43 -33 68q-34 26 -125 53q-109 34 -154 72.5t-45 103.5q0 74 57 117.5t156 43.5q73 0 122.5 -17.5t67.5 -35.5l7 -6l-38 -58q-20 20 -71 37q-42 14 -88 14q-64 0 -102.5 -25.5t-38.5 -69.5
q0 -38 33 -60q37 -24 125 -50q112 -32 155 -75q44 -42 44 -111q0 -77 -58 -123.5t-161 -46.5q-76 1 -128 21.5t-75 42.5z" />
    <glyph glyph-name="T" unicode="T" horiz-adv-x="519" 
d="M25 535v65h469v-65h-200v-535h-70v535h-199z" />
    <glyph glyph-name="U" unicode="U" horiz-adv-x="630" 
d="M315 -14q-113 0 -177 72q-64 73 -64 193v349h70v-349q0 -92 44.5 -145.5t126.5 -53.5t126.5 53.5t44.5 145.5v349h70v-349q0 -120 -64 -193q-63 -72 -177 -72z" />
    <glyph glyph-name="V" unicode="V" horiz-adv-x="595" 
d="M266 0l-257 600h72l216 -510l217 510h72l-257 -600h-63z" />
    <glyph glyph-name="W" unicode="W" horiz-adv-x="806" 
d="M535 0l-132 492l-132 -492h-55l-200 600h72l150 -493l131 493h68l130 -493l151 493h72l-200 -600h-55z" />
    <glyph glyph-name="X" unicode="X" horiz-adv-x="527" 
d="M506 600l-192 -292l200 -308h-84l-145 224l-22 41l-23 -41l-143 -224h-83l198 308l-191 292h84l140 -215l19 -37l20 37l139 215h83z" />
    <glyph glyph-name="Y" unicode="Y" horiz-adv-x="530" 
d="M286 332l154 268h81l-221 -370v-230h-70v230l-221 370h82l156 -268l18 -38h2z" />
    <glyph glyph-name="Z" unicode="Z" horiz-adv-x="522" 
d="M30 0v47l366 488h-354v65h448v-47l-359 -488h351v-65h-452z" />
    <glyph glyph-name="bracketleft" unicode="[" horiz-adv-x="320" 
d="M64 -130v830h240v-58h-172v-714h172v-58h-240z" />
    <glyph glyph-name="backslash" unicode="\" horiz-adv-x="355" 
d="M251 -128l-217 926h71l216 -926h-70z" />
    <glyph glyph-name="bracketright" unicode="]" horiz-adv-x="320" 
d="M16 -130v58h172v714h-172v58h240v-830h-240z" />
    <glyph glyph-name="asciicircum" unicode="^" horiz-adv-x="437" 
d="M325 497l-108 147l-107 -147h-61l146 196h46l147 -196h-63z" />
    <glyph glyph-name="underscore" unicode="_" horiz-adv-x="550" 
d="M54 -98v58h442v-58h-442z" />
    <glyph glyph-name="grave" unicode="`" horiz-adv-x="279" 
d="M149 497l-87 132l84 13l53 -145h-50z" />
    <glyph glyph-name="a" unicode="a" horiz-adv-x="461" 
d="M398 259v-259h-48l-8 58h-5q-47 -68 -144 -68q-74 0 -118 37.5t-44 96.5q0 63 50.5 100t141.5 37q58 0 109 -17v15q0 110 -120 110q-59 0 -104 -25l-15 -9l-27 57q62 38 151 38q181 0 181 -171zM332 159v30q-44 21 -103 21q-128 0 -128 -84q0 -36 27 -58.5t74 -22.5
q56 0 93 33q37 34 37 81z" />
    <glyph glyph-name="b" unicode="b" horiz-adv-x="523" 
d="M67 0v605h69v-248h3q1 3 4 8t15 17.5t27 22t43 17.5t61 8q82 0 138 -62t56 -158q0 -97 -56 -159q-55 -61 -140 -61q-44 0 -80 15t-51 29.5t-24 29.5l-4 9h-3l-8 -73h-50zM173 328q-41 -44 -41 -118t41 -118t101 -44t99 45q40 46 40 117q0 72 -40 116q-39 46 -99 46
t-101 -44z" />
    <glyph glyph-name="c" unicode="c" horiz-adv-x="411" 
d="M248 -10q-92 0 -151 60q-57 62 -57 159q0 98 58 159q59 62 150 62q39 0 72 -8.5t45 -19.5l11 -9l-21 -52q-40 31 -103 31q-62 0 -102 -44.5t-40 -118.5q0 -76 39 -118.5t103 -42.5q57 0 92 24l11 7l19 -52q-14 -14 -53 -27q-30 -10 -73 -10z" />
    <glyph glyph-name="d" unicode="d" horiz-adv-x="524" 
d="M385 364h3v241h69v-605h-48l-10 67h-3q0 -1 -4.5 -8.5t-17 -19t-29.5 -22.5t-45.5 -19t-61.5 -8q-85 0 -142 61q-56 62 -56 159q0 96 56 158t140 62q58 0 95.5 -20t48.5 -39zM250 372q-60 0 -100 -46q-40 -44 -40 -116q0 -71 40 -117q40 -45 100 -45q61 0 102 44t41 118
t-41 118t-102 44z" />
    <glyph glyph-name="e" unicode="e" horiz-adv-x="457" 
d="M375 88l26 -50q-20 -20 -64 -36q-36 -13 -85 -13q-96 0 -155 60q-57 61 -57 160q0 97 54 159t143 62q88 0 136 -59q49 -58 49 -150v-17h-313q1 -73 41.5 -114.5t105.5 -41.5q31 0 62 9.5t44 20.5zM236 371q-104 0 -123 -111h238q-15 111 -115 111z" />
    <glyph glyph-name="f" unicode="f" horiz-adv-x="304" 
d="M292 364h-125v-364h-69v364h-79v56h79v52q0 65 37.5 103t103.5 38q51 0 79 -15l9 -5l-21 -56q-28 15 -66 15q-34 0 -53.5 -20.5t-19.5 -58.5v-53h125v-56z" />
    <glyph glyph-name="g" unicode="g" horiz-adv-x="465" 
d="M437 365h-66v-3q26 -17 26 -82q0 -56 -43 -99q-44 -42 -119 -42q-58 0 -101 29q-35 -14 -35 -42q0 -16 9.5 -26t45.5 -18.5t100 -11.5q103 -5 147 -35t44 -89q0 -57 -57 -97q-56 -40 -154 -40q-97 0 -146.5 33t-49.5 91q0 64 77 99q-76 25 -76 92q0 58 59 82
q-21 34 -21 76q0 61 42 103q42 43 116 43q31 0 60 -8h142v-55zM254 12q-23 1 -65 4q-84 -28 -84 -82q0 -31 33.5 -50.5t95.5 -19.5q68 0 105.5 22t37.5 57q0 65 -123 69zM235 374q-45 0 -72.5 -26t-27.5 -65q0 -40 27.5 -65t72.5 -25q47 0 75 25t28 65q0 39 -28 65t-75 26z
" />
    <glyph glyph-name="h" unicode="h" horiz-adv-x="509" 
d="M67 0v605h69v-226h3q43 51 134 51q80 0 127 -52.5t47 -140.5v-237h-69v228q0 65 -31.5 104.5t-87.5 39.5q-59 0 -90 -39q-31 -37 -33 -82v-251h-69z" />
    <glyph glyph-name="i" unicode="i" 
d="M56 558q0 20 14 33.5t33 13.5t33 -13.5t14 -33.5q0 -19 -13.5 -32.5t-33.5 -13.5t-33.5 13.5t-13.5 32.5zM69 0v420h69v-420h-69z" />
    <glyph glyph-name="j" unicode="j" 
d="M7 -156v58h8q54 0 54 55v463h69v-466q0 -110 -108 -110h-23zM56 558q0 20 14 33.5t33 13.5t33 -13.5t14 -33.5q0 -19 -13.5 -32.5t-33.5 -13.5t-33.5 13.5t-13.5 32.5z" />
    <glyph glyph-name="k" unicode="k" horiz-adv-x="440" 
d="M337 420h91l-194 -182l194 -238h-85l-158 192l-49 -46v-146h-69v605h69v-370h2z" />
    <glyph glyph-name="l" unicode="l" horiz-adv-x="209" 
d="M70 0v605h69v-605h-69z" />
    <glyph glyph-name="m" unicode="m" horiz-adv-x="813" 
d="M67 0v420h49l6 -62h5q27 39 59 55.5t84 16.5q104 0 151 -80h5q48 80 153 80q80 0 126 -52.5t46 -140.5v-237h-69v229q0 65 -31 104t-87 39q-58 0 -89 -37q-29 -35 -31 -82v-253h-69v246q0 57 -32 91.5t-88 34.5q-57 0 -87 -36q-29 -37 -32 -80v-256h-69z" />
    <glyph glyph-name="n" unicode="n" horiz-adv-x="510" 
d="M67 0v420h49l6 -62h5q45 72 147 72q80 0 127 -52.5t47 -140.5v-237h-69v229q0 64 -32 103.5t-88 39.5q-58 0 -90 -38q-31 -37 -33 -82v-252h-69z" />
    <glyph glyph-name="o" unicode="o" horiz-adv-x="501" 
d="M39 208q0 98 60 160q62 62 151 62q88 0 150 -62t62 -160t-61 -158t-151 -60t-151 60q-60 60 -60 158zM148 90q42 -44 102 -44t101 44q42 45 42 119t-42 119q-40 46 -101 46q-60 0 -102 -46q-41 -46 -41 -119t41 -119z" />
    <glyph glyph-name="p" unicode="p" horiz-adv-x="523" 
d="M139 56h-3v-212h-69v576h49l8 -62h7l1 2q1 1 3 4t5 6.5t7 7.5t9 8.5t12 9t14 8.5q46 26 105 26q85 0 140 -61q56 -62 56 -159t-56 -159q-55 -61 -138 -61q-48 0 -87 15.5t-52 34.5zM173 328q-41 -44 -41 -118t41 -118t101 -44t99 45q40 46 40 117q0 72 -40 116
q-39 46 -99 46t-101 -44z" />
    <glyph glyph-name="q" unicode="q" horiz-adv-x="524" 
d="M457 420v-576h-69v219h-3q-1 -3 -4 -8t-15 -17.5t-27 -22t-42.5 -17.5t-60.5 -8q-85 0 -140 61q-56 62 -56 159t56 159q57 61 142 61q63 0 100.5 -24t51.5 -50l4 -8h4l9 72h50zM250 372q-60 0 -100 -46q-40 -44 -40 -116q0 -71 40 -117q40 -45 100 -45q61 0 102 44
t41 118t-41 118t-102 44z" />
    <glyph glyph-name="r" unicode="r" horiz-adv-x="284" 
d="M272 421v-56h-23q-46 0 -80 -34q-33 -33 -33 -83v-248h-69v420h49l6 -74h4q15 36 47.5 55.5t74.5 19.5h24z" />
    <glyph glyph-name="s" unicode="s" horiz-adv-x="409" 
d="M39 42l31 48q15 -13 67 -30q39 -11 76 -11q96 0 96 62q0 15 -9.5 27t-31 21.5t-38.5 15t-49.5 14t-46.5 12.5q-42 14 -68.5 42t-26.5 68q0 55 40 87t115 32q96 0 148 -26l18 -8l-28 -59q-52 34 -132 34q-97 0 -97 -58q0 -24 28 -39t67.5 -24t79 -21.5t67.5 -41t28 -73.5
q0 -56 -41 -90t-121 -34q-49 0 -93 12.5t-62 26.5z" />
    <glyph glyph-name="t" unicode="t" horiz-adv-x="320" 
d="M15 420h79v128h69v-128h125v-56h-125v-247q0 -68 62 -68q31 0 53 14l9 5l23 -50q-35 -28 -91 -28q-125 0 -125 128v246h-79v56z" />
    <glyph glyph-name="u" unicode="u" horiz-adv-x="507" 
d="M440 420v-420h-44l-12 60h-3q-17 -30 -67 -54q-35 -16 -82 -16q-80 0 -125 52t-45 141v237h69v-229q0 -66 29.5 -104.5t85.5 -38.5q60 0 91 37q33 39 34 82v253h69z" />
    <glyph glyph-name="v" unicode="v" horiz-adv-x="456" 
d="M444 420l-192 -420h-48l-192 420h77l130 -311q7 -15 7 -28h4q0 9 8 28l130 311h76z" />
    <glyph glyph-name="w" unicode="w" horiz-adv-x="652" 
d="M172 0l-155 420h72l100 -311q6 -18 6 -28h8q0 3 3.5 15t3.5 13l89 311h58l89 -311q6 -13 6 -28h8q0 10 6 28l102 311h67l-155 -420h-60l-87 310q-5 15 -5 27h-4q0 -11 -6 -27l-87 -310h-59z" />
    <glyph glyph-name="x" unicode="x" horiz-adv-x="432" 
d="M15 0l160 219l-149 201h80l109 -157h3l110 157h79l-150 -201l161 -219h-80l-120 175h-3l-122 -175h-78z" />
    <glyph glyph-name="y" unicode="y" horiz-adv-x="453" 
d="M440 420l-254 -576h-72l82 176l-183 400h76l132 -311q7 -20 7 -28h4q0 10 6 28l131 311h71z" />
    <glyph glyph-name="z" unicode="z" horiz-adv-x="421" 
d="M385 0h-349v35l256 328h-255v57h348v-32l-253 -331h253v-57z" />
    <glyph glyph-name="braceleft" unicode="{" horiz-adv-x="272" 
d="M15 317h25q68 0 68 98v173q0 115 118 127l11 -59q-31 -5 -43.5 -21.5t-12.5 -54.5v-170q0 -98 -61 -120v-9q61 -21 61 -117v-173q0 -38 12.5 -54.5t43.5 -20.5l-11 -58q-118 9 -118 125v175q0 48 -18 73.5t-50 25.5h-25v60z" />
    <glyph glyph-name="bar" unicode="|" horiz-adv-x="193" 
d="M129 687v-815h-65v815h65z" />
    <glyph glyph-name="braceright" unicode="}" horiz-adv-x="272" 
d="M232 317h25v-60h-25q-32 0 -50 -25.5t-18 -73.5v-175q0 -116 -118 -125l-11 58q31 4 43.5 20.5t12.5 54.5v173q0 96 61 117v9q-61 22 -61 120v170q0 38 -12.5 54.5t-43.5 21.5l11 59q118 -12 118 -127v-173q0 -98 68 -98z" />
    <glyph glyph-name="asciitilde" unicode="~" horiz-adv-x="481" 
d="M313 313q37 0 73 19l10 6l24 -42q-41 -38 -106 -38q-29 0 -71 16t-75 16q-43 0 -72 -18l-11 -7l-23 42q43 38 105 38q29 0 71 -16t75 -16z" />
    <glyph glyph-name="uni00A0" unicode="&#xa0;" horiz-adv-x="224" 
 />
    <glyph glyph-name="exclamdown" unicode="&#xa1;" horiz-adv-x="196" 
d="M122 256l18 -433h-86l19 433h49zM50 381q0 21 14 35.5t34 14.5t34.5 -14.5t14.5 -35.5q0 -20 -14.5 -34.5t-34.5 -14.5t-34 14.5t-14 34.5z" />
    <glyph glyph-name="cent" unicode="&#xa2;" horiz-adv-x="428" 
d="M178 0l11 87q-67 20 -106.5 76.5t-39.5 133.5q0 95 57 156q56 60 146 65l11 82h51l-11 -85q47 -7 77 -27l10 -7l-21 -52q-28 21 -74 28l-42 -321h13q57 0 92 24l11 7l19 -52q-20 -14 -57 -27q-30 -10 -69 -10h-17l-10 -78h-51zM113 297q0 -52 22.5 -91t61.5 -57l41 309
q-55 -8 -90 -52t-35 -109z" />
    <glyph glyph-name="sterling" unicode="&#xa3;" horiz-adv-x="495" 
d="M440 65v-65h-372v65h1l-1 1l6 3t14.5 10.5t18 19.5t14 31t6.5 44q0 22 -21 91h-64v56h48q-13 48 -13 94q0 79 56 135q57 57 158 57q59 0 101 -18.5t56 -36.5l6 -7l-42 -52q-13 18 -54 34q-30 13 -67 13q-65 0 -101 -36t-36 -94q0 -41 12 -89h218v-56h-201q18 -64 18 -89
q0 -64 -38 -111h277z" />
    <glyph glyph-name="yen" unicode="&#xa5;" horiz-adv-x="573" 
d="M308 332l154 268h81l-188 -315h134v-56h-167v-87h167v-56h-167v-86h-70v86h-168v56h168v87h-168v56h135l-188 315h82l156 -268l18 -38h2z" />
    <glyph glyph-name="brokenbar" unicode="&#xa6;" horiz-adv-x="202" 
d="M133 330h-64v343h64v-343zM133 -153h-64v343h64v-343z" />
    <glyph glyph-name="section" unicode="&#xa7;" horiz-adv-x="510" 
d="M39 45l39 57q31 -20 82 -36q45 -13 94 -13q136 0 136 61q0 33 -27 48q-28 15 -115 42q-79 22 -116.5 50.5t-37.5 68.5q0 39 36 62q-77 39 -77 100q0 58 54.5 93t154.5 35q56 0 105.5 -11t70.5 -24l18 -11l-39 -58q-17 15 -69 29q-41 12 -86 12q-129 0 -129 -62
q0 -29 26.5 -46t93.5 -35q175 -46 175 -126q0 -42 -33 -67q75 -40 75 -100q0 -56 -55.5 -91.5t-158.5 -35.5q-63 0 -119 14q-52 14 -76 29zM229 351l-43 12q-23 -11 -23 -37q0 -34 110 -66q38 -11 64 -21q20 14 20 39q0 38 -128 73z" />
    <glyph glyph-name="dieresis" unicode="&#xa8;" horiz-adv-x="455" 
d="M112 682q-14 14 -14 33t14 33t32 14t32 -14t14 -33t-14 -33t-32 -14t-32 14zM306 762q18 0 32 -14t14 -33t-14 -33t-32 -14q-19 0 -32.5 14t-13.5 33t13.5 33t32.5 14z" />
    <glyph glyph-name="copyright" unicode="&#xa9;" horiz-adv-x="689" 
d="M45 299q0 130 82 218t218 88t217 -88q82 -88 82 -218t-82 -218q-81 -87 -217 -87t-218 88t-82 217zM90 299q0 -111 69 -188q71 -75 186 -75t186 75q70 76 70 188q0 114 -70 188q-70 76 -186 76t-186 -76q-69 -75 -69 -188zM452 424l-25 -38q-27 29 -75 29
q-50 0 -79.5 -32t-29.5 -83q0 -50 30 -82t79 -32q45 0 67 22l8 7l25 -38q-10 -12 -44 -27q-24 -10 -58 -10q-71 0 -114 45t-43 115q0 71 43 116t114 45q30 0 56 -9t36 -19z" />
    <glyph glyph-name="ordfeminine" unicode="&#xaa;" horiz-adv-x="400" 
d="M39 372q0 48 36.5 75.5t99.5 27.5q77 0 105 -31v14q0 57 -20 81.5t-72 24.5q-22 0 -44.5 -6t-36.5 -11.5t-15 -5.5l-18 47q63 26 124 26q76 0 108.5 -39t32.5 -119v-182h-43l-9 38h-3q-27 -46 -118 -46q-56 0 -91.5 30t-35.5 76zM181 309q42 0 70.5 18.5t28.5 45.5
t-26 43.5t-68 16.5q-43 0 -66.5 -16t-23.5 -45t23 -46t62 -17z" />
    <glyph glyph-name="guillemotleft" unicode="&#xab;" horiz-adv-x="452" 
d="M42 197v23l120 188h60v-10l-117 -186v-5l117 -189v-10h-60zM229 197v23l120 188h59v-10l-117 -186v-5l117 -189v-10h-59z" />
    <glyph glyph-name="logicalnot" unicode="&#xac;" horiz-adv-x="544" 
d="M48 288v58h431v-346h-59v288h-372z" />
    <glyph glyph-name="registered" unicode="&#xae;" horiz-adv-x="550" 
d="M274 147q-103 0 -164 67t-61 166t61 166t164 67q104 0 165 -67q62 -68 62 -166t-62 -166q-61 -67 -165 -67zM94 380q0 -81 50 -136q50 -54 130 -54q82 0 131 54q51 54 51 136t-51 136q-50 54 -131 54t-131 -53q-49 -52 -49 -137zM191 485h91q38 0 61 -19.5t23 -51.5
q0 -44 -41 -62l43 -60v-9h-37l-44 61h-60v-61h-36v202zM282 450h-55v-72h54q47 0 47 36t-46 36z" />
    <glyph glyph-name="overscore" unicode="&#xaf;" horiz-adv-x="526" 
d="M121 668v46h295v-46h-295z" />
    <glyph glyph-name="degree" unicode="&#xb0;" horiz-adv-x="300" 
d="M69 641q31 31 81 31q49 0 80 -31q32 -32 32 -77q0 -46 -31 -77q-31 -30 -81 -30t-81 30q-31 31 -31 77t31 77zM81 564q0 -28 19.5 -47.5t49.5 -19.5t49.5 19.5t19.5 47.5q0 30 -19.5 49.5t-49.5 19.5t-49.5 -19.5t-19.5 -49.5z" />
    <glyph glyph-name="plusminus" unicode="&#xb1;" horiz-adv-x="525" 
d="M294 169h-59v172h-172v58h172v176h59v-176h168v-58h-168v-172zM462 98v-58h-399v58h399z" />
    <glyph glyph-name="twosuperior" unicode="&#xb2;" horiz-adv-x="347" 
d="M53 342v44l143 123q36 31 36 64q0 59 -66 59q-39 0 -74 -26l-13 -11l-26 38q18 18 53 32q30 12 61 12q58 0 87.5 -27.5t29.5 -75.5q0 -56 -46 -93l-113 -95h167v-44h-239z" />
    <glyph glyph-name="threesuperior" unicode="&#xb3;" horiz-adv-x="336" 
d="M54 624v44h224v-33l-75 -97q90 -10 90 -97q0 -47 -34 -77t-95 -30q-29 0 -59.5 10.5t-45.5 20.5l-17 15l28 37q38 -39 93 -39q37 0 58 18t21 46q0 56 -68 58h-37v32l72 92h-155z" />
    <glyph glyph-name="acute" unicode="&#xb4;" horiz-adv-x="279" 
d="M199 629l-87 -132h-50l53 145z" />
    <glyph glyph-name="mu" unicode="&#xb5;" horiz-adv-x="501" 
d="M439 420v-420h-44l-12 60h-3q-17 -30 -67 -54q-35 -16 -82 -16q-62 0 -103 32l1 -150h-68v548h69v-229q0 -66 29.5 -104.5t85.5 -38.5q60 0 91 37q33 39 34 82v253h69z" />
    <glyph glyph-name="paragraph" unicode="&#xb6;" horiz-adv-x="521" 
d="M381 -82v204h-64q-127 0 -206 63t-79 181q0 112 77 174q76 61 205 61h137v-683h-70z" />
    <glyph glyph-name="middot" unicode="&#xb7;" 
d="M55 359q0 21 14 35.5t34 14.5q21 0 35 -14.5t14 -35.5q0 -20 -14 -34.5t-35 -14.5q-20 0 -34 14.5t-14 34.5z" />
    <glyph glyph-name="cedilla" unicode="&#xb8;" horiz-adv-x="206" 
d="M76 -63l-13 16l24 50h39l-15 -34q29 -1 46.5 -18t17.5 -46q0 -31 -21 -50.5t-57 -19.5q-44 0 -65 21l-7 7l19 28q20 -20 52 -20q42 0 42 35q0 32 -42 32z" />
    <glyph glyph-name="onesuperior" unicode="&#xb9;" horiz-adv-x="208" 
d="M25 624v44h119v-326h-50v282h-69z" />
    <glyph glyph-name="ordmasculine" unicode="&#xba;" horiz-adv-x="410" 
d="M205 613q73 0 119 -48t46 -126q0 -77 -46 -123.5t-119 -46.5q-72 0 -119 47q-46 46 -46 123q0 78 46 126t119 48zM205 562q-48 0 -77.5 -33.5t-29.5 -88.5q0 -54 29.5 -87t77.5 -33q49 0 78.5 33t29.5 87q0 55 -29.5 88.5t-78.5 33.5z" />
    <glyph glyph-name="guillemotright" unicode="&#xbb;" horiz-adv-x="451" 
d="M224 220v-23l-120 -189h-61v10l118 189v5l-118 186v10h61zM410 220v-23l-120 -189h-61v10l118 189v5l-118 186v10h61z" />
    <glyph glyph-name="onequarter" unicode="&#xbc;" horiz-adv-x="621" 
d="M311 88v31l178 207h37v-196h60v-42h-60v-88h-48v88h-167zM93 0h-60l465 600h62zM40 556v44h120v-326h-50v282h-70zM403 161q-9 -11 -32 -34l47 3h60v120h-1z" />
    <glyph glyph-name="onehalf" unicode="&#xbd;" horiz-adv-x="683" 
d="M93 0h-60l465 600h62zM407 44v-44h239v44h-167l113 95q46 37 46 93q0 48 -29.5 75.5t-87.5 27.5q-29 0 -58 -10.5t-43 -22.5l-13 -11l26 -38q15 15 44 27q21 10 43 10q66 0 66 -59q0 -33 -36 -64zM43 556v44h119v-326h-50v282h-69z" />
    <glyph glyph-name="threequarters" unicode="&#xbe;" horiz-adv-x="709" 
d="M399 88v31l178 207h37v-196h60v-42h-60v-88h-48v88h-167zM185 0h-60l465 600h62zM48 556v44h224v-33l-75 -97q90 -10 90 -97q0 -47 -34 -77t-95 -30q-29 0 -59.5 10.5t-45.5 20.5l-17 15l28 37q38 -39 93 -39q37 0 58 18t21 46q0 56 -68 58h-37v32l72 92h-155zM491 161
q-9 -11 -32 -34l47 3h60v120h-1z" />
    <glyph glyph-name="questiondown" unicode="&#xbf;" horiz-adv-x="410" 
d="M356 -76l29 -58q-23 -21 -74 -38q-41 -15 -85 -15q-89 0 -141 42t-52 114q0 40 16.5 72.5t40 54.5t47.5 41.5t41.5 43.5t19.5 51l2 27h49v-39q0 -70 -72 -128t-72 -116q0 -43 33.5 -70t87.5 -27q33 0 65.5 10.5t49.5 23.5zM270 384q0 -20 -14 -34.5t-34 -14.5t-34.5 14.5
t-14.5 34.5q0 21 14.5 35.5t34.5 14.5t34 -14.5t14 -35.5z" />
    <glyph glyph-name="Agrave" unicode="&#xc0;" horiz-adv-x="595" 
d="M329 600l257 -600h-72l-57 133h-320l-56 -133h-72l257 600h63zM298 510l-133 -312h265zM271 635l-87 132l84 13l53 -145h-50z" />
    <glyph glyph-name="Aacute" unicode="&#xc1;" horiz-adv-x="595" 
d="M329 600l257 -600h-72l-57 133h-320l-56 -133h-72l257 600h63zM298 510l-133 -312h265zM411 767l-87 -132h-50l53 145z" />
    <glyph glyph-name="Acircumflex" unicode="&#xc2;" horiz-adv-x="595" 
d="M329 600l257 -600h-72l-57 133h-320l-56 -133h-72l257 600h63zM298 510l-133 -312h265zM351 668l-53 61l-55 -61h-64l89 108h57l91 -108h-65z" />
    <glyph glyph-name="Atilde" unicode="&#xc3;" horiz-adv-x="595" 
d="M329 600l257 -600h-72l-57 133h-320l-56 -133h-72l257 600h63zM298 510l-133 -312h265zM376 668q-33 0 -80 29q-46 30 -66 30q-15 0 -24.5 -7t-13.5 -15t-8 -22l-4 -16l-49 6l5 26q17 83 87 83q31 0 78 -30t67 -30q38 0 47 45l3 15l49 -5l-4 -25q-15 -84 -87 -84z" />
    <glyph glyph-name="Adieresis" unicode="&#xc4;" horiz-adv-x="595" 
d="M329 600l257 -600h-72l-57 133h-320l-56 -133h-72l257 600h63zM298 510l-133 -312h265zM184 682q-14 14 -14 33t14 33t32 14t32 -14t14 -33t-14 -33t-32 -14t-32 14zM378 762q18 0 32 -14t14 -33t-14 -33t-32 -14q-19 0 -32.5 14t-13.5 33t13.5 33t32.5 14z" />
    <glyph glyph-name="Aring" unicode="&#xc5;" horiz-adv-x="595" 
d="M329 600l257 -600h-72l-57 133h-320l-56 -133h-72l257 600h63zM298 510l-133 -312h265zM298 789q45 0 73.5 -24t28.5 -63t-28.5 -63t-73.5 -24t-74.5 24t-29.5 63t29.5 63t74.5 24zM298 745q-57 0 -57 -43t57 -43q55 0 55 43t-55 43z" />
    <glyph glyph-name="AE" unicode="&#xc6;" horiz-adv-x="878" 
d="M-5 0l412 600h430v-65h-351v-199h300v-65h-300v-206h351v-65h-421v133h-246l-89 -133h-86zM409 490l-196 -292h203v292h-7z" />
    <glyph glyph-name="Ccedilla" unicode="&#xc7;" horiz-adv-x="565" 
d="M296 -63l-13 16l17 36q-117 14 -188 100q-71 88 -71 210q0 135 83 224q84 90 216 90q59 0 110 -20q53 -21 70 -38l19 -19l-40 -54q-27 27 -73 47q-41 18 -85 18q-99 0 -164 -72q-64 -71 -64 -176q0 -104 64 -175q65 -72 164 -72q83 0 151 58l7 7l40 -54q-16 -16 -32 -27
q-14 -11 -39 -23q-58 -27 -128 -27h-2l-7 -17q29 -1 46.5 -18t17.5 -46q0 -31 -21 -50.5t-57 -19.5q-44 0 -65 21l-7 7l19 28q20 -20 52 -20q42 0 42 35q0 32 -42 32z" />
    <glyph glyph-name="Egrave" unicode="&#xc8;" horiz-adv-x="544" 
d="M452 336v-65h-300v-206h351v-65h-421v600h421v-65h-351v-199h300zM277 635l-87 132l84 13l53 -145h-50z" />
    <glyph glyph-name="Eacute" unicode="&#xc9;" horiz-adv-x="544" 
d="M452 336v-65h-300v-206h351v-65h-421v600h421v-65h-351v-199h300zM403 767l-87 -132h-50l53 145z" />
    <glyph glyph-name="Ecircumflex" unicode="&#xca;" horiz-adv-x="544" 
d="M452 336v-65h-300v-206h351v-65h-421v600h421v-65h-351v-199h300zM353 668l-53 61l-55 -61h-64l89 108h57l91 -108h-65z" />
    <glyph glyph-name="Edieresis" unicode="&#xcb;" horiz-adv-x="544" 
d="M452 336v-65h-300v-206h351v-65h-421v600h421v-65h-351v-199h300zM181 682q-14 14 -14 33t14 33t32 14t32 -14t14 -33t-14 -33t-32 -14t-32 14zM375 762q18 0 32 -14t14 -33t-14 -33t-32 -14q-19 0 -32.5 14t-13.5 33t13.5 33t32.5 14z" />
    <glyph glyph-name="Igrave" unicode="&#xcc;" horiz-adv-x="234" 
d="M152 600v-600h-70v600h70zM90 635l-87 132l84 13l53 -145h-50z" />
    <glyph glyph-name="Iacute" unicode="&#xcd;" horiz-adv-x="234" 
d="M152 600v-600h-70v600h70zM230 767l-87 -132h-50l53 145z" />
    <glyph glyph-name="Icircumflex" unicode="&#xce;" horiz-adv-x="234" 
d="M152 600v-600h-70v600h70zM172 668l-53 61l-55 -61h-64l89 108h57l91 -108h-65z" />
    <glyph glyph-name="Idieresis" unicode="&#xcf;" horiz-adv-x="234" 
d="M152 600v-600h-70v600h70zM4 682q-14 14 -14 33t14 33t32 14t32 -14t14 -33t-14 -33t-32 -14t-32 14zM198 762q18 0 32 -14t14 -33t-14 -33t-32 -14q-19 0 -32.5 14t-13.5 33t13.5 33t32.5 14z" />
    <glyph glyph-name="Eth" unicode="&#xd0;" horiz-adv-x="631" 
d="M24 272v64h59v264h200q138 0 221 -82q84 -81 84 -218q0 -136 -84 -219q-84 -81 -221 -81h-200v272h-59zM279 535h-126v-199h178v-64h-178v-207h126q103 0 171 63q67 64 67 172t-67 171q-67 64 -171 64z" />
    <glyph glyph-name="Ntilde" unicode="&#xd1;" horiz-adv-x="665" 
d="M583 600v-600h-50l-381 476v-476h-70v600h51l380 -474v474h70zM412 669q-33 0 -80 29q-46 30 -66 30q-15 0 -24.5 -7t-13.5 -15t-8 -22l-4 -16l-49 6l5 26q17 83 87 83q31 0 78 -30q46 -30 67 -30q38 0 47 45l3 15l49 -5l-4 -25q-15 -84 -87 -84z" />
    <glyph glyph-name="Ograve" unicode="&#xd2;" horiz-adv-x="677" 
d="M338 -14q-131 0 -214 89q-82 89 -82 224t81 224q82 90 215 90q134 0 215 -89q82 -88 82 -225q0 -135 -82 -224q-81 -89 -215 -89zM338 53q102 0 164 71t62 175q0 105 -62 176q-62 72 -164 72t-163 -72q-61 -70 -61 -176q0 -105 61 -175q62 -71 163 -71zM316 668l-87 132
l84 13l53 -145h-50z" />
    <glyph glyph-name="Oacute" unicode="&#xd3;" horiz-adv-x="677" 
d="M338 -14q-131 0 -214 89q-82 89 -82 224t81 224q82 90 215 90q134 0 215 -89q82 -88 82 -225q0 -135 -82 -224q-81 -89 -215 -89zM338 53q102 0 164 71t62 175q0 105 -62 176q-62 72 -164 72t-163 -72q-61 -70 -61 -176q0 -105 61 -175q62 -71 163 -71zM447 800l-87 -132
h-50l53 145z" />
    <glyph glyph-name="Ocircumflex" unicode="&#xd4;" horiz-adv-x="677" 
d="M338 -14q-131 0 -214 89q-82 89 -82 224t81 224q82 90 215 90q134 0 215 -89q82 -88 82 -225q0 -135 -82 -224q-81 -89 -215 -89zM338 53q102 0 164 71t62 175q0 105 -62 176q-62 72 -164 72t-163 -72q-61 -70 -61 -176q0 -105 61 -175q62 -71 163 -71zM393 668l-53 61
l-55 -61h-64l89 108h57l91 -108h-65z" />
    <glyph glyph-name="Otilde" unicode="&#xd5;" horiz-adv-x="677" 
d="M338 -14q-131 0 -214 89q-82 89 -82 224t81 224q82 90 215 90q134 0 215 -89q82 -88 82 -225q0 -135 -82 -224q-81 -89 -215 -89zM338 53q102 0 164 71t62 175q0 105 -62 176q-62 72 -164 72t-163 -72q-61 -70 -61 -176q0 -105 61 -175q62 -71 163 -71zM414 668
q-33 0 -80 29q-46 30 -66 30q-15 0 -24.5 -7t-13.5 -15t-8 -22l-4 -16l-49 6l5 26q17 83 87 83q31 0 78 -30t67 -30q38 0 47 45l3 15l49 -5l-4 -25q-15 -84 -87 -84z" />
    <glyph glyph-name="Odieresis" unicode="&#xd6;" horiz-adv-x="677" 
d="M338 -14q-131 0 -214 89q-82 89 -82 224t81 224q82 90 215 90q134 0 215 -89q82 -88 82 -225q0 -135 -82 -224q-81 -89 -215 -89zM338 53q102 0 164 71t62 175q0 105 -62 176q-62 72 -164 72t-163 -72q-61 -70 -61 -176q0 -105 61 -175q62 -71 163 -71zM225 682
q-14 14 -14 33t14 33t32 14t32 -14t14 -33t-14 -33t-32 -14t-32 14zM419 762q18 0 32 -14t14 -33t-14 -33t-32 -14q-19 0 -32.5 14t-13.5 33t13.5 33t32.5 14z" />
    <glyph glyph-name="multiply" unicode="&#xd7;" horiz-adv-x="494" 
d="M99 102l-41 40l150 157l-150 158l41 40l149 -157l149 157l40 -40l-150 -158l150 -157l-40 -40l-149 156z" />
    <glyph glyph-name="Oslash" unicode="&#xd8;" horiz-adv-x="681" 
d="M340 -14q-119 0 -198 73l-57 -59h-78l98 100q-61 82 -61 199q0 135 81 224q83 90 215 90q114 0 196 -71l56 58h77l-96 -98q64 -83 64 -203q0 -135 -82 -224q-81 -89 -215 -89zM340 53q102 0 164 71t62 175q0 84 -43 151l-332 -341q62 -56 149 -56zM116 299q0 -85 40 -147
l331 340q-61 55 -147 55q-101 0 -163 -72q-61 -70 -61 -176z" />
    <glyph glyph-name="Ugrave" unicode="&#xd9;" horiz-adv-x="630" 
d="M315 -14q-113 0 -177 72q-64 73 -64 193v349h70v-349q0 -92 44.5 -145.5t126.5 -53.5t126.5 53.5t44.5 145.5v349h70v-349q0 -120 -64 -193q-63 -72 -177 -72zM290 635l-87 132l84 13l53 -145h-50z" />
    <glyph glyph-name="Uacute" unicode="&#xda;" horiz-adv-x="630" 
d="M315 -14q-113 0 -177 72q-64 73 -64 193v349h70v-349q0 -92 44.5 -145.5t126.5 -53.5t126.5 53.5t44.5 145.5v349h70v-349q0 -120 -64 -193q-63 -72 -177 -72zM424 767l-87 -132h-50l53 145z" />
    <glyph glyph-name="Ucircumflex" unicode="&#xdb;" horiz-adv-x="630" 
d="M315 -14q-113 0 -177 72q-64 73 -64 193v349h70v-349q0 -92 44.5 -145.5t126.5 -53.5t126.5 53.5t44.5 145.5v349h70v-349q0 -120 -64 -193q-63 -72 -177 -72zM370 634l-53 61l-55 -61h-64l89 108h57l91 -108h-65z" />
    <glyph glyph-name="Udieresis" unicode="&#xdc;" horiz-adv-x="630" 
d="M315 -14q-113 0 -177 72q-64 73 -64 193v349h70v-349q0 -92 44.5 -145.5t126.5 -53.5t126.5 53.5t44.5 145.5v349h70v-349q0 -120 -64 -193q-63 -72 -177 -72zM203 682q-14 14 -14 33t14 33t32 14t32 -14t14 -33t-14 -33t-32 -14t-32 14zM397 762q18 0 32 -14t14 -33
t-14 -33t-32 -14q-19 0 -32.5 14t-13.5 33t13.5 33t32.5 14z" />
    <glyph glyph-name="Yacute" unicode="&#xdd;" horiz-adv-x="530" 
d="M286 332l154 268h81l-221 -370v-230h-70v230l-221 370h82l156 -268l18 -38h2zM376 800l-87 -132h-50l53 145z" />
    <glyph glyph-name="Thorn" unicode="&#xde;" horiz-adv-x="575" 
d="M152 600v-98h166q109 0 168.5 -52t59.5 -148q0 -99 -61.5 -153.5t-170.5 -54.5h-162v-94h-70v600h70zM474 300q0 67 -41 101.5t-117 34.5h-164v-276h164q158 0 158 140z" />
    <glyph glyph-name="germandbls" unicode="&#xdf;" horiz-adv-x="498" 
d="M237 281v50q112 16 112 117q0 44 -27.5 71.5t-74.5 27.5q-50 0 -80.5 -33.5t-30.5 -93.5v-420h-69v407q0 99 48 150t139 51q77 0 123.5 -45t46.5 -118q0 -88 -74 -127q50 -14 79.5 -56.5t29.5 -95.5q0 -82 -52.5 -129t-145.5 -47q-43 0 -65 8l-9 2l9 54q22 -6 63 -6
q57 0 92 32t35 83q0 55 -34.5 86.5t-92.5 31.5h-22z" />
    <glyph glyph-name="agrave" unicode="&#xe0;" horiz-adv-x="461" 
d="M398 259v-259h-48l-8 58h-5q-47 -68 -144 -68q-74 0 -118 37.5t-44 96.5q0 63 50.5 100t141.5 37q58 0 109 -17v15q0 110 -120 110q-59 0 -104 -25l-15 -9l-27 57q62 38 151 38q181 0 181 -171zM332 159v30q-44 21 -103 21q-128 0 -128 -84q0 -36 27 -58.5t74 -22.5
q56 0 93 33q37 34 37 81zM206 497l-87 132l84 13l53 -145h-50z" />
    <glyph glyph-name="aacute" unicode="&#xe1;" horiz-adv-x="461" 
d="M398 259v-259h-48l-8 58h-5q-47 -68 -144 -68q-74 0 -118 37.5t-44 96.5q0 63 50.5 100t141.5 37q58 0 109 -17v15q0 110 -120 110q-59 0 -104 -25l-15 -9l-27 57q62 38 151 38q181 0 181 -171zM332 159v30q-44 21 -103 21q-128 0 -128 -84q0 -36 27 -58.5t74 -22.5
q56 0 93 33q37 34 37 81zM348 629l-87 -132h-50l53 145z" />
    <glyph glyph-name="acircumflex" unicode="&#xe2;" horiz-adv-x="461" 
d="M398 259v-259h-48l-8 58h-5q-47 -68 -144 -68q-74 0 -118 37.5t-44 96.5q0 63 50.5 100t141.5 37q58 0 109 -17v15q0 110 -120 110q-59 0 -104 -25l-15 -9l-27 57q62 38 151 38q181 0 181 -171zM332 159v30q-44 21 -103 21q-128 0 -128 -84q0 -36 27 -58.5t74 -22.5
q56 0 93 33q37 34 37 81zM277 497l-53 61l-55 -61h-64l89 108h57l91 -108h-65z" />
    <glyph glyph-name="atilde" unicode="&#xe3;" horiz-adv-x="461" 
d="M398 259v-259h-48l-8 58h-5q-47 -68 -144 -68q-74 0 -118 37.5t-44 96.5q0 63 50.5 100t141.5 37q58 0 109 -17v15q0 110 -120 110q-59 0 -104 -25l-15 -9l-27 57q62 38 151 38q181 0 181 -171zM332 159v30q-44 21 -103 21q-128 0 -128 -84q0 -36 27 -58.5t74 -22.5
q56 0 93 33q37 34 37 81zM299 499q-33 0 -80 29q-47 30 -66 30q-15 0 -24.5 -7t-13.5 -15t-8 -22l-4 -16l-49 6l5 26q17 83 87 83q32 0 78 -30t67 -30q38 0 47 45l3 15l49 -5l-4 -25q-15 -84 -87 -84z" />
    <glyph glyph-name="adieresis" unicode="&#xe4;" horiz-adv-x="461" 
d="M398 259v-259h-48l-8 58h-5q-47 -68 -144 -68q-74 0 -118 37.5t-44 96.5q0 63 50.5 100t141.5 37q58 0 109 -17v15q0 110 -120 110q-59 0 -104 -25l-15 -9l-27 57q62 38 151 38q181 0 181 -171zM332 159v30q-44 21 -103 21q-128 0 -128 -84q0 -36 27 -58.5t74 -22.5
q56 0 93 33q37 34 37 81zM112 511q-14 14 -14 33t14 33t32 14t32 -14t14 -33t-14 -33t-32 -14t-32 14zM306 591q18 0 32 -14t14 -33t-14 -33t-32 -14q-19 0 -32.5 14t-13.5 33t13.5 33t32.5 14z" />
    <glyph glyph-name="aring" unicode="&#xe5;" horiz-adv-x="461" 
d="M398 259v-259h-48l-8 58h-5q-47 -68 -144 -68q-74 0 -118 37.5t-44 96.5q0 63 50.5 100t141.5 37q58 0 109 -17v15q0 110 -120 110q-59 0 -104 -25l-15 -9l-27 57q62 38 151 38q181 0 181 -171zM332 159v30q-44 21 -103 21q-128 0 -128 -84q0 -36 27 -58.5t74 -22.5
q56 0 93 33q37 34 37 81zM227 671q45 0 73.5 -24t28.5 -63t-28.5 -63t-73.5 -24t-74.5 24t-29.5 63t29.5 63t74.5 24zM227 627q-57 0 -57 -43t57 -43q55 0 55 43t-55 43z" />
    <glyph glyph-name="ae" unicode="&#xe6;" horiz-adv-x="749" 
d="M667 88l26 -50q-20 -20 -64 -36q-36 -13 -85 -13q-118 0 -175 85q-51 -84 -170 -84q-81 0 -124.5 36.5t-43.5 97.5q0 63 48.5 100t139.5 37q63 0 113 -18v16q0 110 -120 110q-59 0 -104 -25l-15 -9l-27 57q62 38 151 38q117 0 159 -74q56 74 153 74q88 0 136 -59
q49 -58 49 -150v-17h-313q1 -73 41.5 -114.5t105.5 -41.5q31 0 62 9.5t44 20.5zM200 45q60 0 96 32.5t36 81.5v29q-46 21 -107 21q-124 0 -124 -85q0 -36 26 -57.5t73 -21.5zM528 371q-104 0 -123 -111h238q-15 111 -115 111z" />
    <glyph glyph-name="ccedilla" unicode="&#xe7;" horiz-adv-x="411" 
d="M219 -70l-13 16l21 45q-84 7 -135.5 66t-51.5 152q0 98 58 159q59 62 150 62q39 0 72 -8.5t45 -19.5l11 -9l-21 -52q-40 31 -103 31q-62 0 -102 -44.5t-40 -118.5q0 -76 39 -118.5t103 -42.5q57 0 92 24l11 7l19 -52q-28 -31 -108 -36l-12 -29q29 -1 46.5 -18t17.5 -46
q0 -31 -21 -50.5t-57 -19.5q-44 0 -65 21l-7 7l19 28q20 -20 52 -20q42 0 42 35q0 32 -42 32z" />
    <glyph glyph-name="egrave" unicode="&#xe8;" horiz-adv-x="457" 
d="M375 88l26 -50q-20 -20 -64 -36q-36 -13 -85 -13q-96 0 -155 60q-57 61 -57 160q0 97 54 159t143 62q88 0 136 -59q49 -58 49 -150v-17h-313q1 -73 41.5 -114.5t105.5 -41.5q31 0 62 9.5t44 20.5zM236 371q-104 0 -123 -111h238q-15 111 -115 111zM211 497l-87 132l84 13
l53 -145h-50z" />
    <glyph glyph-name="eacute" unicode="&#xe9;" horiz-adv-x="457" 
d="M375 88l26 -50q-20 -20 -64 -36q-36 -13 -85 -13q-96 0 -155 60q-57 61 -57 160q0 97 54 159t143 62q88 0 136 -59q49 -58 49 -150v-17h-313q1 -73 41.5 -114.5t105.5 -41.5q31 0 62 9.5t44 20.5zM236 371q-104 0 -123 -111h238q-15 111 -115 111zM347 629l-87 -132h-50
l53 145z" />
    <glyph glyph-name="ecircumflex" unicode="&#xea;" horiz-adv-x="457" 
d="M375 88l26 -50q-20 -20 -64 -36q-36 -13 -85 -13q-96 0 -155 60q-57 61 -57 160q0 97 54 159t143 62q88 0 136 -59q49 -58 49 -150v-17h-313q1 -73 41.5 -114.5t105.5 -41.5q31 0 62 9.5t44 20.5zM236 371q-104 0 -123 -111h238q-15 111 -115 111zM289 496l-53 61
l-55 -61h-64l89 108h57l91 -108h-65z" />
    <glyph glyph-name="edieresis" unicode="&#xeb;" horiz-adv-x="457" 
d="M375 88l26 -50q-20 -20 -64 -36q-36 -13 -85 -13q-96 0 -155 60q-57 61 -57 160q0 97 54 159t143 62q88 0 136 -59q49 -58 49 -150v-17h-313q1 -73 41.5 -114.5t105.5 -41.5q31 0 62 9.5t44 20.5zM236 371q-104 0 -123 -111h238q-15 111 -115 111zM124 511q-14 14 -14 33
t14 33t32 14t32 -14t14 -33t-14 -33t-32 -14t-32 14zM318 591q18 0 32 -14t14 -33t-14 -33t-32 -14q-19 0 -32.5 14t-13.5 33t13.5 33t32.5 14z" />
    <glyph glyph-name="igrave" unicode="&#xec;" 
d="M69 0v420h69v-420h-69zM75 497l-87 132l84 13l53 -145h-50z" />
    <glyph glyph-name="iacute" unicode="&#xed;" 
d="M216 629l-87 -132h-50l53 145zM69 0v420h69v-420h-69z" />
    <glyph glyph-name="icircumflex" unicode="&#xee;" 
d="M69 0v420h69v-420h-69zM158 530l-53 61l-55 -61h-64l89 108h57l91 -108h-65z" />
    <glyph glyph-name="idieresis" unicode="&#xef;" 
d="M-8 543q-14 14 -14 33t14 33t32 14t32 -14t14 -33t-14 -33t-32 -14t-32 14zM186 623q18 0 32 -14t14 -33t-14 -33t-32 -14q-19 0 -32.5 14t-13.5 33t13.5 33t32.5 14zM69 0v420h69v-420h-69z" />
    <glyph glyph-name="eth" unicode="&#xf0;" horiz-adv-x="501" 
d="M40 210q0 101 56 160.5t154 59.5q28 0 57 -7v5q-2 3 -26 37l-48 75l-121 -75l-24 42l119 73l-86 137v11h65l73 -116l124 76l24 -41l-122 -76l129 -204q26 -43 36 -78q10 -31 10 -79q0 -102 -56 -161t-154 -59t-154 59t-56 161zM390 210q0 76 -38.5 119t-101.5 43
t-101.5 -43t-38.5 -119q0 -74 39 -118t101 -44t101 44t39 118z" />
    <glyph glyph-name="ntilde" unicode="&#xf1;" horiz-adv-x="510" 
d="M67 0v420h49l6 -62h5q45 72 147 72q80 0 127 -52.5t47 -140.5v-237h-69v229q0 64 -32 103.5t-88 39.5q-58 0 -90 -38q-31 -37 -33 -82v-252h-69zM331 530q-33 0 -80 29q-47 30 -66 30q-15 0 -24.5 -7t-13.5 -15t-8 -22l-4 -16l-49 6l5 26q17 83 87 83q32 0 78 -30t67 -30
q38 0 47 45l3 15l49 -5l-4 -25q-15 -84 -87 -84z" />
    <glyph glyph-name="ograve" unicode="&#xf2;" horiz-adv-x="501" 
d="M39 208q0 98 60 160q62 62 151 62q88 0 150 -62t62 -160t-61 -158t-151 -60t-151 60q-60 60 -60 158zM148 90q42 -44 102 -44t101 44q42 45 42 119t-42 119q-40 46 -101 46q-60 0 -102 -46q-41 -46 -41 -119t41 -119zM224 497l-87 132l84 13l53 -145h-50z" />
    <glyph glyph-name="oacute" unicode="&#xf3;" horiz-adv-x="501" 
d="M39 208q0 98 60 160q62 62 151 62q88 0 150 -62t62 -160t-61 -158t-151 -60t-151 60q-60 60 -60 158zM148 90q42 -44 102 -44t101 44q42 45 42 119t-42 119q-40 46 -101 46q-60 0 -102 -46q-41 -46 -41 -119t41 -119zM360 629l-87 -132h-50l53 145z" />
    <glyph glyph-name="ocircumflex" unicode="&#xf4;" horiz-adv-x="501" 
d="M39 208q0 98 60 160q62 62 151 62q88 0 150 -62t62 -160t-61 -158t-151 -60t-151 60q-60 60 -60 158zM148 90q42 -44 102 -44t101 44q42 45 42 119t-42 119q-40 46 -101 46q-60 0 -102 -46q-41 -46 -41 -119t41 -119zM304 530l-53 61l-55 -61h-64l89 108h57l91 -108h-65z
" />
    <glyph glyph-name="otilde" unicode="&#xf5;" horiz-adv-x="501" 
d="M39 208q0 98 60 160q62 62 151 62q88 0 150 -62t62 -160t-61 -158t-151 -60t-151 60q-60 60 -60 158zM148 90q42 -44 102 -44t101 44q42 45 42 119t-42 119q-40 46 -101 46q-60 0 -102 -46q-41 -46 -41 -119t41 -119zM322 531q-33 0 -80 29q-46 30 -66 30q-15 0 -24.5 -7
t-13.5 -15t-8 -22l-4 -16l-49 6l5 26q17 83 87 83q31 0 78 -30t67 -30q38 0 47 45l3 15l49 -5l-4 -25q-15 -84 -87 -84z" />
    <glyph glyph-name="odieresis" unicode="&#xf6;" horiz-adv-x="501" 
d="M39 208q0 98 60 160q62 62 151 62q88 0 150 -62t62 -160t-61 -158t-151 -60t-151 60q-60 60 -60 158zM148 90q42 -44 102 -44t101 44q42 45 42 119t-42 119q-40 46 -101 46q-60 0 -102 -46q-41 -46 -41 -119t41 -119zM137 544q-14 14 -14 33t14 33t32 14t32 -14t14 -33
t-14 -33t-32 -14t-32 14zM331 624q18 0 32 -14t14 -33t-14 -33t-32 -14q-19 0 -32.5 14t-13.5 33t13.5 33t32.5 14z" />
    <glyph glyph-name="divide" unicode="&#xf7;" horiz-adv-x="489" 
d="M245 198q20 0 34.5 -14.5t14.5 -35.5t-14.5 -35t-34.5 -14q-21 0 -35.5 14t-14.5 35t14.5 35.5t35.5 14.5zM245 499q20 0 34.5 -14.5t14.5 -35.5t-14.5 -35t-34.5 -14q-21 0 -35.5 14t-14.5 35t14.5 35.5t35.5 14.5zM59 267v58h371v-58h-371z" />
    <glyph glyph-name="oslash" unicode="&#xf8;" horiz-adv-x="502" 
d="M463 208q0 -98 -61 -158q-62 -60 -151 -60q-80 0 -135 46l-34 -36h-56l62 64q-48 58 -48 144q0 98 60 160q62 62 151 62q75 0 131 -45l32 35h56l-60 -62q53 -64 53 -150zM251 46q60 0 101 44q42 45 42 119q0 58 -29 102l-208 -229q39 -36 94 -36zM108 209q0 -57 25 -97
l207 228q-38 34 -89 34q-60 0 -102 -46q-41 -46 -41 -119z" />
    <glyph glyph-name="ugrave" unicode="&#xf9;" horiz-adv-x="507" 
d="M440 420v-420h-44l-12 60h-3q-17 -30 -67 -54q-35 -16 -82 -16q-80 0 -125 52t-45 141v237h69v-229q0 -66 29.5 -104.5t85.5 -38.5q60 0 91 37q33 39 34 82v253h69zM226 497l-87 132l84 13l53 -145h-50z" />
    <glyph glyph-name="uacute" unicode="&#xfa;" horiz-adv-x="507" 
d="M361 629l-87 -132h-50l53 145zM440 420v-420h-44l-12 60h-3q-17 -30 -67 -54q-35 -16 -82 -16q-80 0 -125 52t-45 141v237h69v-229q0 -66 29.5 -104.5t85.5 -38.5q60 0 91 37q33 39 34 82v253h69z" />
    <glyph glyph-name="ucircumflex" unicode="&#xfb;" horiz-adv-x="507" 
d="M302 496l-53 61l-55 -61h-64l89 108h57l91 -108h-65zM440 420v-420h-44l-12 60h-3q-17 -30 -67 -54q-35 -16 -82 -16q-80 0 -125 52t-45 141v237h69v-229q0 -66 29.5 -104.5t85.5 -38.5q60 0 91 37q33 39 34 82v253h69z" />
    <glyph glyph-name="udieresis" unicode="&#xfc;" horiz-adv-x="507" 
d="M136 510q-14 14 -14 33t14 33t32 14t32 -14t14 -33t-14 -33t-32 -14t-32 14zM330 590q18 0 32 -14t14 -33t-14 -33t-32 -14q-19 0 -32.5 14t-13.5 33t13.5 33t32.5 14zM440 420v-420h-44l-12 60h-3q-17 -30 -67 -54q-35 -16 -82 -16q-80 0 -125 52t-45 141v237h69v-229
q0 -66 29.5 -104.5t85.5 -38.5q60 0 91 37q33 39 34 82v253h69z" />
    <glyph glyph-name="yacute" unicode="&#xfd;" horiz-adv-x="453" 
d="M440 420l-254 -576h-72l82 176l-183 400h76l132 -311q7 -20 7 -28h4q0 10 6 28l131 311h71zM340 629l-87 -132h-50l53 145z" />
    <glyph glyph-name="thorn" unicode="&#xfe;" horiz-adv-x="524" 
d="M139 86h-3v-242h-69v756h69v-264h3q2 10 19 32q13 18 27 29q41 33 103 33q85 0 140 -61q56 -62 56 -159t-56 -159q-55 -61 -140 -61q-60 0 -97 28.5t-48 57.5zM174 328q-41 -44 -41 -118t41 -118t101 -44t99 45q40 46 40 117q0 72 -40 116q-39 46 -99 46t-101 -44z" />
    <glyph glyph-name="ydieresis" unicode="&#xff;" horiz-adv-x="453" 
d="M440 420l-254 -576h-72l82 176l-183 400h76l132 -311q7 -20 7 -28h4q0 10 6 28l131 311h71zM116 510q-14 14 -14 33t14 33t32 14t32 -14t14 -33t-14 -33t-32 -14t-32 14zM310 590q18 0 32 -14t14 -33t-14 -33t-32 -14q-19 0 -32.5 14t-13.5 33t13.5 33t32.5 14z" />
    <glyph glyph-name="dotlessi" unicode="&#x131;" 
d="M69 0v420h69v-420h-69z" />
    <glyph glyph-name="Lslash" unicode="&#x141;" horiz-adv-x="491" 
d="M18 237v50l66 40v273h70v-230l160 99v-50l-160 -99v-255h312v-65h-382v277z" />
    <glyph glyph-name="lslash" unicode="&#x142;" horiz-adv-x="227" 
d="M22 225v46l58 36v298h69v-255l58 36v-46l-58 -36v-304h-69v261z" />
    <glyph glyph-name="OE" unicode="&#x152;" horiz-adv-x="1027" 
d="M935 336v-65h-300v-206h351v-65h-421v88q-84 -102 -227 -102q-131 0 -214 89q-82 89 -82 224t81 224q82 90 215 90q143 0 227 -102v89h421v-65h-351v-199h300zM338 53q102 0 164 71t62 175q0 105 -62 176q-62 72 -164 72t-163 -72q-61 -70 -61 -176q0 -105 61 -175
q62 -71 163 -71z" />
    <glyph glyph-name="oe" unicode="&#x153;" horiz-adv-x="809" 
d="M729 88l26 -50q-20 -20 -64 -36q-36 -13 -85 -13q-124 0 -180 93q-27 -44 -74 -68t-102 -24q-90 0 -151 60q-60 60 -60 158t60 160q62 62 151 62q54 0 100.5 -25t75.5 -69q52 94 165 94q88 0 136 -59q49 -58 49 -150v-17h-313q1 -73 41.5 -114.5t105.5 -41.5q31 0 62 9.5
t44 20.5zM148 90q42 -44 102 -44t101 44q42 45 42 119t-42 119q-40 46 -101 46q-60 0 -102 -46q-41 -46 -41 -119t41 -119zM590 371q-104 0 -123 -111h238q-15 111 -115 111z" />
    <glyph glyph-name="Scaron" unicode="&#x160;" horiz-adv-x="509" 
d="M42 57l38 53l20 -16q11 -9 57 -26q44 -16 95 -16q74 0 111 27t37 76q0 43 -33 68q-34 26 -125 53q-109 34 -154 72.5t-45 103.5q0 74 57 117.5t156 43.5q73 0 122.5 -17.5t67.5 -35.5l7 -6l-38 -58q-20 20 -71 37q-42 14 -88 14q-64 0 -102.5 -25.5t-38.5 -69.5
q0 -38 33 -60q37 -24 125 -50q112 -32 155 -75q44 -42 44 -111q0 -77 -58 -123.5t-161 -46.5q-76 1 -128 21.5t-75 42.5zM196 777l53 -62l55 62h64l-89 -109h-57l-91 109h65z" />
    <glyph glyph-name="scaron" unicode="&#x161;" horiz-adv-x="409" 
d="M39 42l31 48q15 -13 67 -30q39 -11 76 -11q96 0 96 62q0 15 -9.5 27t-31 21.5t-38.5 15t-49.5 14t-46.5 12.5q-42 14 -68.5 42t-26.5 68q0 55 40 87t115 32q96 0 148 -26l18 -8l-28 -59q-52 34 -132 34q-97 0 -97 -58q0 -24 28 -39t67.5 -24t79 -21.5t67.5 -41t28 -73.5
q0 -56 -41 -90t-121 -34q-49 0 -93 12.5t-62 26.5zM155 606l53 -62l55 62h64l-89 -109h-57l-91 109h65z" />
    <glyph glyph-name="Ydieresis" unicode="&#x178;" horiz-adv-x="530" 
d="M286 332l154 268h81l-221 -370v-230h-70v230l-221 370h82l156 -268l18 -38h2zM153 682q-14 14 -14 33t14 33t32 14t32 -14t14 -33t-14 -33t-32 -14t-32 14zM347 762q18 0 32 -14t14 -33t-14 -33t-32 -14q-19 0 -32.5 14t-13.5 33t13.5 33t32.5 14z" />
    <glyph glyph-name="Zcaron" unicode="&#x17d;" horiz-adv-x="522" 
d="M30 0v47l366 488h-354v65h448v-47l-359 -488h351v-65h-452zM202 777l53 -62l55 62h64l-89 -109h-57l-91 109h65z" />
    <glyph glyph-name="zcaron" unicode="&#x17e;" horiz-adv-x="421" 
d="M385 0h-349v35l256 328h-255v57h348v-32l-253 -331h253v-57zM155 606l53 -62l55 62h64l-89 -109h-57l-91 109h65z" />
    <glyph glyph-name="florin" unicode="&#x192;" horiz-adv-x="504" 
d="M164 115l50 250h-89v55h100l7 32q31 157 179 157q44 0 73 -13l9 -5l-29 -57q-21 12 -57 12q-46 0 -71.5 -22t-35.5 -72l-7 -32h153v-55h-164l-53 -267q-10 -50 -34.5 -74t-75.5 -24q-42 0 -69 18l-10 5l21 52q23 -14 46 -14q25 0 38 12t19 42z" />
    <glyph glyph-name="circumflex" unicode="&#x2c6;" horiz-adv-x="371" 
d="M245 668l-53 61l-55 -61h-64l89 108h57l91 -108h-65z" />
    <glyph glyph-name="caron" unicode="&#x2c7;" horiz-adv-x="325" 
d="M107 777l53 -62l55 62h64l-89 -109h-57l-91 109h65z" />
    <glyph glyph-name="breve" unicode="&#x2d8;" horiz-adv-x="396" 
d="M275 808h55q0 -60 -40 -100q-39 -40 -92 -40q-55 0 -94 40q-38 41 -38 100h55q0 -34 22 -59t55 -25q32 0 54.5 25t22.5 59z" />
    <glyph glyph-name="dotaccent" unicode="&#x2d9;" horiz-adv-x="331" 
d="M208 567q-17 -17 -42 -17t-42 17t-17 42t17 42t42 17t42 -17t17 -42t-17 -42z" />
    <glyph glyph-name="ring" unicode="&#x2da;" horiz-adv-x="288" 
d="M145 789q45 0 73.5 -24t28.5 -63t-28.5 -63t-73.5 -24t-74.5 24t-29.5 63t29.5 63t74.5 24zM145 745q-57 0 -57 -43t57 -43q55 0 55 43t-55 43z" />
    <glyph glyph-name="ogonek" unicode="&#x2db;" horiz-adv-x="192" 
d="M143 -83l22 -29q-21 -25 -61 -25q-33 0 -52 18.5t-19 49.5q0 28 21 52t46 33l22 8l8 -24q-21 -8 -40 -26q-15 -17 -15 -35q0 -36 35 -36q18 0 29 11z" />
    <glyph glyph-name="tilde" unicode="&#x2dc;" horiz-adv-x="485" 
d="M314 668q-33 0 -80 29q-46 30 -66 30q-15 0 -24.5 -7t-13.5 -15t-8 -22l-4 -16l-49 6l5 26q17 83 87 83q31 0 78 -30t67 -30q38 0 47 45l3 15l49 -5l-4 -25q-15 -84 -87 -84z" />
    <glyph glyph-name="hungarumlaut" unicode="&#x2dd;" horiz-adv-x="395" 
d="M327 577l-80 -158h-48l46 158h82zM174 577l-80 -158h-48l46 158h82z" />
    <glyph glyph-name="pi" unicode="&#x3c0;" horiz-adv-x="487" 
d="M30 420h427v-57h-64v-363h-69v363h-161v-363h-69v363h-64v57z" />
    <glyph glyph-name="endash" unicode="&#x2013;" horiz-adv-x="465" 
d="M61 259v58h335v-58h-335z" />
    <glyph glyph-name="emdash" unicode="&#x2014;" horiz-adv-x="718" 
d="M61 259v58h588v-58h-588z" />
    <glyph glyph-name="quoteleft" unicode="&#x2018;" horiz-adv-x="214" 
d="M48 441v8q0 60 32.5 100t88.5 51l12 -40q-34 -8 -55 -28t-23 -46q17 -2 28 -15t11 -30q0 -19 -14 -33t-33 -14t-33 14t-14 33z" />
    <glyph glyph-name="quoteright" unicode="&#x2019;" horiz-adv-x="218" 
d="M45 434q34 7 55 27t23 46q-17 3 -28 16t-11 30q0 19 14 33t33 14t33 -14t14 -33v-8q0 -60 -32.5 -100t-88.5 -51z" />
    <glyph glyph-name="quotesinglbase" unicode="&#x201a;" horiz-adv-x="202" 
d="M14 -83q34 8 55 28t23 46q-17 2 -28 15t-11 30q0 20 13.5 33.5t33.5 13.5t33.5 -13.5t13.5 -33.5v-8q0 -60 -32.5 -100t-88.5 -51z" />
    <glyph glyph-name="quotedblleft" unicode="&#x201c;" horiz-adv-x="359" 
d="M193 441v8q0 60 32.5 100t88.5 51l12 -40q-34 -8 -55 -28t-23 -46q17 -2 28 -15t11 -30q0 -19 -13.5 -33t-33.5 -14t-33.5 14t-13.5 33zM48 441v8q0 60 32.5 100t88.5 51l12 -40q-34 -8 -55 -28t-23 -46q17 -2 28 -15t11 -30q0 -19 -14 -33t-33 -14t-33 14t-14 33z" />
    <glyph glyph-name="quotedblright" unicode="&#x201d;" horiz-adv-x="362" 
d="M177 553v-8q0 -60 -32.5 -100t-88.5 -51l-12 40q34 7 55 27t23 46q-17 3 -28 16t-11 30q0 19 13.5 33t33.5 14t33.5 -14t13.5 -33zM189 434q34 7 55 27t23 46q-17 3 -28 16t-11 30q0 19 14 33t33 14t33 -14t14 -33v-8q0 -60 -32.5 -100t-88.5 -51z" />
    <glyph glyph-name="quotedblbase" unicode="&#x201e;" horiz-adv-x="428" 
d="M14 -83q34 8 55 28t23 46q-17 2 -28 15t-11 30q0 20 13.5 33.5t33.5 13.5t33.5 -13.5t13.5 -33.5v-8q0 -60 -32.5 -100t-88.5 -51zM240 -83q34 8 55 28t23 46q-17 2 -28 15t-11 30q0 20 13.5 33.5t33.5 13.5t33.5 -13.5t13.5 -33.5v-8q0 -60 -32.5 -100t-88.5 -51z" />
    <glyph glyph-name="dagger" unicode="&#x2020;" horiz-adv-x="390" 
d="M33 439v58h133v138h59v-138h132v-58h-132l-7 -265h-45l-7 265h-133z" />
    <glyph glyph-name="daggerdbl" unicode="&#x2021;" horiz-adv-x="424" 
d="M50 472v58h133v138h59v-138h132v-58h-132l-7 -138l7 -138h132v-58h-132v-138h-59v138h-133v58h133l6 138l-6 138h-133z" />
    <glyph glyph-name="bullet" unicode="&#x2022;" horiz-adv-x="311" 
d="M156 296q30 0 51.5 -21.5t21.5 -51.5t-21.5 -51t-51.5 -21q-31 0 -52.5 21t-21.5 51t21.5 51.5t52.5 21.5z" />
    <glyph glyph-name="ellipsis" unicode="&#x2026;" horiz-adv-x="707" 
d="M73 6q-16 17 -16 41t16 41q17 17 41 17t41 -17t17 -41t-17 -41q-17 -16 -41 -16t-41 16zM312 6q-16 17 -16 41t16 41q17 17 41 17t41 -17t17 -41t-17 -41q-17 -16 -41 -16t-41 16zM551 6q-16 17 -16 41t16 41q17 17 41 17t41 -17t17 -41t-17 -41q-17 -16 -41 -16t-41 16z
" />
    <glyph glyph-name="perthousand" unicode="&#x2030;" horiz-adv-x="947" 
d="M170 613q58 0 93 -43t35 -108q0 -63 -35 -107t-93 -44q-59 0 -94 43t-35 108t35 108t94 43zM170 368q30 0 48 26t18 68t-18 68t-48 26q-32 0 -49.5 -25.5t-17.5 -68.5q0 -42 17.5 -68t49.5 -26zM521 600h78l-477 -600h-76zM611 143q0 -61 -35 -107q-35 -44 -94 -44
t-94 44q-35 46 -35 107q0 63 35 107t94 44t94 -44t35 -107zM482 238q-32 0 -49.5 -26t-17.5 -69q0 -40 18.5 -66.5t48.5 -26.5t48 25.5t18 67.5q0 43 -18 69t-48 26zM787 238q-32 0 -49.5 -26t-17.5 -69q0 -40 18.5 -66.5t48.5 -26.5t48 25.5t18 67.5q0 43 -18 69t-48 26z
M916 143q0 -61 -35 -107q-35 -44 -94 -44t-94 44q-35 46 -35 107q0 63 35 107t94 44t94 -44t35 -107z" />
    <glyph glyph-name="guilsinglleft" unicode="&#x2039;" horiz-adv-x="266" 
d="M42 197v23l120 188h60v-10l-117 -186v-5l117 -189v-10h-60z" />
    <glyph glyph-name="guilsinglright" unicode="&#x203a;" horiz-adv-x="265" 
d="M224 220v-23l-120 -189h-61v10l118 189v5l-118 186v10h61z" />
    <glyph glyph-name="fraction" unicode="&#x2044;" horiz-adv-x="581" 
d="M50 0h-60l540 700h62z" />
    <glyph glyph-name="Euro" unicode="&#x20ac;" horiz-adv-x="564" 
d="M395 257v-54h-206q35 -152 171 -152q34 0 66 13.5t48 29.5l13 15l34 -50q-1 -2 -5.5 -7.5t-19 -17.5t-32.5 -22q-48 -25 -105 -25q-94 0 -157 58t-85 158h-77v54h68q-2 20 -2 45q0 7 2 49h-68v54h77q22 96 84.5 152t157.5 56q47 0 88 -17t59 -37l16 -18l-35 -53
q-18 24 -57 42q-34 17 -70 17q-136 0 -170 -142h205v-54h-214q-2 -42 -2 -49q0 -27 2 -45h214z" />
    <glyph glyph-name="trademark" unicode="&#x2122;" horiz-adv-x="705" 
d="M383 281h-49v319h36l114 -149l117 149h34v-319h-48v230l-96 -124h-13l-95 122v-228zM275 600v-43h-97v-276h-48v276h-97v43h242z" />
    <glyph glyph-name="Omega" unicode="&#x2126;" horiz-adv-x="710" 
d="M52 0v61h141q-65 36 -102 102.5t-37 144.5q0 127 80 216q81 89 221 89t221 -89q81 -88 81 -216q0 -77 -37.5 -144t-102.5 -103h141v-61h-268v63q83 5 140 75q57 72 57 164q0 102 -63 173t-169 71q-105 0 -168 -71t-63 -173q0 -92 57 -164q57 -70 140 -75v-63h-269z" />
    <glyph glyph-name="partialdiff" unicode="&#x2202;" horiz-adv-x="501" 
d="M40 210q0 101 56 160.5t154 59.5q28 0 57 -7v5q-2 3 -26 37l-160 252v11h65l228 -361q26 -43 36 -78q10 -31 10 -79q0 -102 -56 -161t-154 -59t-154 59t-56 161zM390 210q0 76 -38.5 119t-101.5 43t-101.5 -43t-38.5 -119q0 -74 39 -118t101 -44t101 44t39 118z" />
    <glyph glyph-name="increment" unicode="&#x2206;" horiz-adv-x="618" 
d="M27 0v15l275 585h14l275 -585v-15h-564zM306 474l-181 -413h367l-183 413h-3z" />
    <glyph glyph-name="product" unicode="&#x220f;" horiz-adv-x="613" 
d="M546 600v-600h-70v539h-339v-539h-70v600h479z" />
    <glyph glyph-name="summation" unicode="&#x2211;" horiz-adv-x="442" 
d="M43 600h353v-61h-265l171 -223v-33l-169 -222h263v-61h-353v61l183 232v12l-183 234v61z" />
    <glyph glyph-name="minus" unicode="&#x2212;" horiz-adv-x="558" 
d="M62 270v58h434v-58h-434z" />
    <glyph glyph-name="radical" unicode="&#x221a;" horiz-adv-x="598" 
d="M606 600l-385 -792h-17l-197 399h77l103 -217q25 -52 26 -66h2q1 15 25 66l289 610h77z" />
    <glyph glyph-name="infinity" unicode="&#x221e;" horiz-adv-x="754" 
d="M210 117q-73 0 -118 49q-44 50 -44 120q0 69 44 119q45 50 118 50q52 0 90.5 -31t77.5 -95q36 62 75.5 94t90.5 32q68 0 115 -47t47 -122q0 -70 -44 -120q-43 -49 -118 -49q-52 0 -91 31t-77 93q-38 -63 -76 -93.5t-90 -30.5zM540 399q-40 0 -70 -28t-60 -84
q33 -59 62 -86.5t68 -27.5q49 0 78.5 32t29.5 81q0 50 -31 81.5t-77 31.5zM214 173q40 0 70 27.5t61 84.5q-33 59 -62 86.5t-69 27.5q-48 0 -77.5 -33t-29.5 -80q0 -49 29 -81t78 -32z" />
    <glyph glyph-name="integral" unicode="&#x222b;" horiz-adv-x="298" 
d="M115 7v527q0 115 99 115q38 0 62 -15l8 -5l-20 -52q-19 11 -38 11q-42 0 -42 -60v-527q0 -115 -99 -115q-38 0 -62 15l-8 5l20 52q20 -11 38 -11q42 0 42 60z" />
    <glyph glyph-name="approxequal" unicode="&#x2248;" horiz-adv-x="456" 
d="M302 175q-31 0 -75 23q-43 24 -59 24q-13 0 -21.5 -6t-11.5 -11.5t-8 -17.5l-3 -13l-59 5l5 29q16 73 89 73q31 0 73 -24q44 -23 61 -23q28 0 39 35l4 13l58 -5l-5 -30q-13 -72 -87 -72zM302 365q-31 0 -75 23q-43 24 -59 24q-13 0 -21.5 -6t-11.5 -11.5t-8 -17.5l-3 -13
l-59 5l5 30q16 72 89 72q31 0 73 -24q44 -23 61 -23q28 0 39 35l4 13l58 -5l-5 -29q-14 -73 -87 -73z" />
    <glyph glyph-name="notequal" unicode="&#x2260;" horiz-adv-x="458" 
d="M57 366v58h190l42 116l51 -18l-36 -98h97v-58h-118l-59 -163h177v-58h-198l-41 -113l-51 18l34 95h-88v58h109l60 163h-169z" />
    <glyph glyph-name="lessequal" unicode="&#x2264;" horiz-adv-x="385" 
d="M296 249l-41 -43l-185 178v15l185 183l41 -43l-149 -148zM334 141v-58h-278v58h278z" />
    <glyph glyph-name="greaterequal" unicode="&#x2265;" horiz-adv-x="384" 
d="M130 206l-42 43l149 142l-149 148l41 43l185 -183v-15zM51 83v58h277v-58h-277z" />
    <glyph glyph-name="lozenge" unicode="&#x25ca;" horiz-adv-x="438" 
d="M242 600l163 -300l-163 -300h-46l-163 300l163 300h46zM112 299l102 -200h10l101 200l-101 202h-10z" />
    <glyph glyph-name="NULL" horiz-adv-x="0" 
 />
    <glyph glyph-name="CR.001" horiz-adv-x="333" 
 />
    </font>
</defs>
</svg>
