<?xml version="1.0" standalone="no"?>
<!DOCTYPE svg PUBLIC "-//W3C//DTD SVG 1.1//EN" "http://www.w3.org/Graphics/SVG/1.1/DTD/svg11.dtd" >
<svg xmlns="http://www.w3.org/2000/svg" xmlns:xlink="http://www.w3.org/1999/xlink" version="1.1">
<metadata>
Created by FontForge 20170731 at Mon Oct 20 12:30:52 2014
 By Aleksey,,,
Copyright (c) 2014 by Daniel Hernandez &#38; Miguel Hernandez. All rights reserved.
</metadata>
<defs>
<font id="Texta-Heavy" horiz-adv-x="597" >
  <font-face 
    font-family="Texta Heavy"
    font-weight="900"
    font-stretch="normal"
    units-per-em="1000"
    panose-1="2 0 0 0 0 0 0 0 0 0"
    ascent="800"
    descent="-200"
    x-height="420"
    cap-height="600"
    bbox="-28 -192 982 818"
    underline-thickness="50"
    underline-position="-200"
    unicode-range="U+000D-25CA"
  />
<missing-glyph horiz-adv-x="564" 
 />
    <glyph glyph-name=".notdef" horiz-adv-x="564" 
 />
    <glyph glyph-name=".null" horiz-adv-x="0" 
 />
    <glyph glyph-name="nonmarkingreturn" horiz-adv-x="333" 
 />
    <glyph glyph-name="NUL" horiz-adv-x="0" 
 />
    <glyph glyph-name="NUL" horiz-adv-x="0" 
 />
    <glyph glyph-name="CR" unicode="&#xd;" horiz-adv-x="105" 
 />
    <glyph glyph-name="space" unicode=" " horiz-adv-x="206" 
 />
    <glyph glyph-name="exclam" unicode="!" horiz-adv-x="233" 
d="M186 600l-30 -401h-80l-30 401h140zM116 139q31 0 52.5 -21.5t21.5 -52.5t-21.5 -52t-52.5 -21q-30 0 -51 21t-21 52t21 52.5t51 21.5z" />
    <glyph glyph-name="quotedbl" unicode="&#x22;" horiz-adv-x="340" 
d="M162 684l-47 -209h-71l14 209h104zM317 684l-48 -209h-71l15 209h104z" />
    <glyph glyph-name="numbersign" unicode="#" horiz-adv-x="653" 
d="M536 583l-33 -149h120l-16 -70h-120l-32 -145h120l-16 -70h-119l-33 -149h-75l33 149h-142l-33 -149h-75l33 149h-118l15 70h118l32 145h-117l15 70h118l33 149h75l-33 -149h142l33 149h75zM270 364l-32 -145h142l32 145h-142z" />
    <glyph glyph-name="dollar" unicode="$" horiz-adv-x="530" 
d="M33 64l66 92q60 -45 139 -56v153q-104 31 -150.5 72.5t-46.5 109.5q0 77 51 123.5t146 53.5v104h59v-104q56 -4 103 -18t66 -30l17 -13l-65 -99q-46 37 -121 48v-138q106 -30 153.5 -73.5t47.5 -112.5q0 -80 -52.5 -131t-148.5 -57v-95h-59v95q-64 5 -112 23
q-51 19 -72 36zM359 165q0 24 -13.5 39t-48.5 29v-133q62 12 62 65zM177 442q0 -20 13.5 -33.5t47.5 -26.5v118q-61 -10 -61 -58z" />
    <glyph glyph-name="percent" unicode="%" horiz-adv-x="671" 
d="M172 613q63 0 100 -43t37 -105q0 -63 -37 -106t-100 -43q-62 0 -100 44q-37 43 -37 105t37 105t100 43zM225 465q0 78 -53 78t-53 -78t53 -78t53 78zM500 289q62 0 100 -44t38 -105t-38 -105q-37 -43 -100 -43t-100 43t-37 105t37 105q38 44 100 44zM447 140
q0 -77 53 -77t53 77q0 79 -53 79t-53 -79zM522 600h101l-477 -600h-102z" />
    <glyph glyph-name="ampersand" unicode="&#x26;" horiz-adv-x="637" 
d="M477 315l115 -26q-16 -97 -72 -171l121 -118h-167l-37 38q-75 -48 -160 -48q-115 0 -175 47t-60 129q0 98 117 160l-11 11q-55 58 -55 122q0 67 50.5 110.5t133.5 43.5q84 0 134.5 -41.5t50.5 -107.5q0 -57 -31 -95t-94 -71l101 -99q30 53 39 116zM278 93q45 0 83 23
l-126 131q-60 -35 -60 -79q0 -33 28 -54t75 -21zM213 452q0 -32 45 -76l3 -4q42 19 62 37t20 42q0 29 -17 46t-48 17q-30 0 -47.5 -17t-17.5 -45z" />
    <glyph glyph-name="quotesingle" unicode="'" horiz-adv-x="186" 
d="M162 684l-47 -209h-71l14 209h104z" />
    <glyph glyph-name="parenleft" unicode="(" horiz-adv-x="288" 
d="M156 287q0 -208 116 -342l-78 -82q-58 62 -90 122q-73 133 -73 302q0 253 159 421l4 4l78 -82q-116 -140 -116 -343z" />
    <glyph glyph-name="parenright" unicode=")" horiz-adv-x="288" 
d="M131 287q0 206 -115 343l78 82q68 -72 102 -147q60 -126 60 -278q0 -253 -158 -420l-4 -4l-78 82q115 131 115 342z" />
    <glyph glyph-name="asterisk" unicode="*" horiz-adv-x="386" 
d="M70 443l86 91l-121 20l26 77l109 -57l-17 123h80l-20 -124l112 58l25 -77l-121 -20l87 -91l-66 -47l-57 110l-58 -110z" />
    <glyph glyph-name="plus" unicode="+" horiz-adv-x="503" 
d="M301 515v-172h168v-98h-168v-164h-99v164h-167v98h167v172h99z" />
    <glyph glyph-name="comma" unicode="," horiz-adv-x="221" 
d="M179 59v-6q0 -67 -36 -115.5t-101 -60.5l-18 63q59 14 69 52q-24 5 -39 23.5t-15 43.5q0 29 20.5 49.5t49.5 20.5t49.5 -20.5t20.5 -49.5z" />
    <glyph glyph-name="hyphen" unicode="-" horiz-adv-x="380" 
d="M50 180v98h280v-98h-280z" />
    <glyph glyph-name="period" unicode="." horiz-adv-x="218" 
d="M158 10q-20 -20 -49 -20t-50 20q-20 20 -20 49t20 49q21 21 50 21t49 -21q21 -20 21 -49t-21 -49z" />
    <glyph glyph-name="slash" unicode="/" horiz-adv-x="609" 
d="M141 -112h-121l449 895h119z" />
    <glyph glyph-name="zero" unicode="0" horiz-adv-x="620" 
d="M310 -13q-128 0 -199 90q-71 91 -71 223t71 223q70 90 199 90q128 0 199 -90q71 -89 71 -223q0 -133 -71 -224q-71 -89 -199 -89zM202 157q38 -54 108 -54t107 54q38 55 38 143t-38 143q-37 54 -107 54q-71 0 -108 -55q-38 -55 -38 -142t38 -143z" />
    <glyph glyph-name="one" unicode="1" horiz-adv-x="327" 
d="M15 494v106h248v-600h-121v494h-127z" />
    <glyph glyph-name="two" unicode="2" horiz-adv-x="517" 
d="M43 0v87l233 226q28 28 38 48.5t10 47.5q0 37 -26.5 61.5t-70.5 24.5q-29 0 -58 -13q-29 -12 -40 -20l-35 -27l-64 97q11 11 35 28q20 13 44 24q60 29 132 29q106 0 165 -55q61 -54 61 -134q0 -95 -68 -160l-163 -158h238v-106h-431z" />
    <glyph glyph-name="three" unicode="3" horiz-adv-x="514" 
d="M232 271h-79v73l142 150h-247v106h408v-91l-138 -150q81 -13 118 -55t37 -119q0 -87 -62 -141t-176 -54q-73 0 -124 24t-73 48l-7 9l63 88q18 -21 65 -43q36 -16 74 -16q53 0 81.5 24t28.5 64q0 83 -111 83z" />
    <glyph glyph-name="four" unicode="4" horiz-adv-x="572" 
d="M21 130v89l317 381h111v-365h94v-105h-94v-130h-121v130h-307zM169 239v-4h159v195l-139 -170z" />
    <glyph glyph-name="five" unicode="5" horiz-adv-x="506" 
d="M437 494h-253l-3 -119q25 3 57 3q117 0 176 -49t59 -138q0 -92 -61.5 -147t-175.5 -55q-72 0 -122.5 24t-75.5 49l-7 9l63 88q18 -21 65 -43q36 -16 74 -16q53 0 81.5 23t28.5 65q0 89 -136 89q-77 0 -126 -18l-3 -2l-13 9l9 334h363v-106z" />
    <glyph glyph-name="six" unicode="6" horiz-adv-x="552" 
d="M178 345v-13q48 48 126 48q97 0 155 -50t58 -136q0 -90 -66 -148q-65 -57 -162 -57q-108 0 -179 71q-69 72 -69 224q0 149 68 237q67 87 186 87q55 0 104.5 -17.5t70.5 -38.5l19 -19l-67 -96q-22 19 -33 27q-9 8 -36 18q-28 11 -57 11q-118 0 -118 -148zM181 191h-1
q7 -44 35 -68.5t71 -24.5q45 0 73.5 27t28.5 67q0 39 -28 65t-72 26q-45 0 -74.5 -26t-32.5 -66z" />
    <glyph glyph-name="seven" unicode="7" horiz-adv-x="471" 
d="M27 494v106h430v-86l-256 -514h-139l252 494h-287z" />
    <glyph glyph-name="eight" unicode="8" horiz-adv-x="543" 
d="M41 174q0 92 77 140q-61 46 -61 126q0 77 56.5 125t158.5 48q100 0 157 -48t57 -125q0 -79 -62 -126q78 -46 78 -140q0 -80 -62 -134q-62 -53 -168 -53q-107 0 -169 53q-62 54 -62 134zM374 179q0 39 -28.5 63.5t-73.5 24.5t-74 -25.5t-29 -62.5t29 -62t74 -25t73.5 25
t28.5 62zM206 376q25 -22 66 -22q40 0 65 22t25 54t-25 54q-26 23 -65 23q-40 0 -66 -23q-25 -22 -25 -54t25 -54z" />
    <glyph glyph-name="nine" unicode="9" horiz-adv-x="551" 
d="M258 102q118 0 115 149v13q-49 -48 -126 -48q-97 0 -154.5 50t-57.5 136q0 89 65 148q64 58 162 58q108 0 179 -72q70 -71 70 -224q0 -150 -67 -238q-68 -87 -185 -87q-120 0 -187 67l-6 8l66 96l32 -28q11 -8 37 -18t57 -10zM370 405q-15 93 -105 93q-44 0 -72.5 -27
t-28.5 -67q0 -39 28 -65t72 -26q45 0 74.5 26t31.5 66z" />
    <glyph glyph-name="colon" unicode=":" horiz-adv-x="236" 
d="M103 114q22 7 42.5 -5t27.5 -35q6 -23 -5.5 -43t-34.5 -26q-23 -7 -43.5 5t-26.5 35t5.5 43t34.5 26zM103 412q22 6 42.5 -5.5t27.5 -34.5q6 -23 -5.5 -43t-34.5 -27q-23 -6 -43.5 5.5t-26.5 34.5t5.5 43.5t34.5 26.5z" />
    <glyph glyph-name="semicolon" unicode=";" horiz-adv-x="244" 
d="M192 59v-6q0 -67 -36 -115.5t-100 -60.5l-19 63q59 14 69 52q-24 5 -38.5 23.5t-14.5 43.5q0 29 20 49.5t49 20.5t49.5 -20.5t20.5 -49.5zM171 308q-20 -20 -49 -20t-49 20t-20 49t20 49q20 21 49 21t49 -21q21 -20 21 -49t-21 -49z" />
    <glyph glyph-name="less" unicode="&#x3c;" horiz-adv-x="369" 
d="M35 255v89l272 166v-130l-172 -81l172 -83v-129z" />
    <glyph glyph-name="equal" unicode="=" horiz-adv-x="453" 
d="M55 339v98h344v-98h-344zM55 149v97h344v-97h-344z" />
    <glyph glyph-name="greater" unicode="&#x3e;" horiz-adv-x="369" 
d="M334 344v-89l-272 -168v129l172 83l-172 81v130z" />
    <glyph glyph-name="question" unicode="?" horiz-adv-x="443" 
d="M88 458l-61 97q19 22 76 42q46 17 97 17q92 0 151 -45q58 -45 58 -121q0 -38 -16.5 -71t-33.5 -49.5t-45 -36.5q-54 -39 -58 -75l-3 -22h-95v33q0 65 57 108t57 92q0 32 -22.5 50t-62.5 18q-47 0 -87 -28zM206 133q30 0 50 -20.5t20 -49.5q0 -30 -20 -50.5t-50 -20.5
q-29 0 -49.5 21t-20.5 50t20.5 49.5t49.5 20.5z" />
    <glyph glyph-name="at" unicode="@" horiz-adv-x="996" 
d="M738 51q-81 0 -117 43q-24 30 -30 55h-5q-12 -22 -27 -38.5t-48 -34.5q-35 -19 -80 -19q-79 0 -128 51t-49 135q0 112 65 183t157 71q98 0 128 -79l15 69h100l-27 -232q-3 -19 -3 -45q0 -38 22.5 -60.5t60.5 -22.5q54 0 87 51t33 137q0 140 -98 252q-47 55 -122.5 88
t-163.5 33q-179 0 -297 -121t-118 -289q0 -170 120 -292q121 -121 291 -121q55 0 109 14q52 13 77 29l25 14l24 -51q-7 -5 -28 -17q-22 -13 -79 -28q-63 -17 -128 -17q-134 0 -244 66q-110 65 -168 171t-58 230q0 128 59 234.5t167 169.5q110 65 248 65q191 0 321 -125
q130 -124 130 -303q0 -115 -60 -191q-58 -75 -161 -75zM468 171q48 0 79.5 36.5t31.5 89.5q0 41 -22.5 64.5t-62.5 23.5q-46 0 -77.5 -35t-31.5 -89q0 -42 22.5 -66t60.5 -24z" />
    <glyph glyph-name="A" unicode="A" 
d="M362 600l238 -600h-129l-43 116h-259l-43 -116h-129l238 600h127zM298 466l-93 -252h187z" />
    <glyph glyph-name="B" unicode="B" horiz-adv-x="601" 
d="M564 175q0 -84 -57.5 -129.5t-160.5 -45.5h-278v600h271q101 0 154.5 -42.5t53.5 -120.5q0 -41 -20.5 -74t-56.5 -51v-6q45 -14 69.5 -48.5t24.5 -82.5zM346 256h-157v-150h158q39 0 63.5 21t24.5 54q0 32 -25.5 53.5t-63.5 21.5zM420 421q0 34 -22.5 53.5t-60.5 19.5
h-148v-144h146q38 0 61.5 20.5t23.5 50.5z" />
    <glyph glyph-name="C" unicode="C" horiz-adv-x="556" 
d="M472 154l70 -93q-13 -13 -32 -26q-15 -11 -40 -23q-56 -26 -131 -26q-138 0 -222 90t-84 224q0 133 84 223t222 90q57 0 108.5 -17t74.5 -38l20 -19l-70 -93q-17 20 -60 37q-36 14 -72 14q-80 0 -131 -56q-51 -55 -51 -141t51 -142t131 -56q35 0 68.5 12t49.5 27z" />
    <glyph glyph-name="D" unicode="D" horiz-adv-x="635" 
d="M289 0h-221v600h221q141 0 226 -84q86 -83 86 -216t-86 -217q-86 -83 -226 -83zM281 494h-92v-388h92q84 0 139 52q56 53 56 142q0 91 -55 142q-55 52 -140 52z" />
    <glyph glyph-name="E" unicode="E" horiz-adv-x="537" 
d="M451 353v-98h-262v-149h311v-106h-432v600h432v-106h-311v-141h262z" />
    <glyph glyph-name="F" unicode="F" horiz-adv-x="535" 
d="M451 352v-98h-262v-254h-121v600h434v-106h-313v-142h262z" />
    <glyph glyph-name="G" unicode="G" horiz-adv-x="640" 
d="M322 249v99h294v-73q0 -131 -76 -210q-75 -78 -204 -78q-138 0 -221 89q-82 89 -82 224q0 134 83 223q84 90 222 90q85 0 141 -27q54 -25 67 -41l8 -8l-73 -93q-22 22 -65 38q-38 15 -79 15q-79 0 -129 -56t-50 -141q0 -87 49 -142q50 -56 129 -56q66 0 105.5 38
t41.5 101v8h-161z" />
    <glyph glyph-name="H" unicode="H" horiz-adv-x="655" 
d="M587 600v-601h-122v250h-276v-250h-121v601h121v-252h276v252h122z" />
    <glyph glyph-name="I" unicode="I" horiz-adv-x="258" 
d="M189 600v-600h-121v600h121z" />
    <glyph glyph-name="J" unicode="J" horiz-adv-x="455" 
d="M12 41l58 97q38 -33 96 -33q54 0 79 29t26 94v372h121v-396q-1 -99 -58 -158.5t-164 -59.5q-103 0 -158 55z" />
    <glyph glyph-name="K" unicode="K" horiz-adv-x="601" 
d="M189 600v-278l256 278h146v-13l-223 -242l224 -332v-13h-135l-171 255l-97 -105v-150h-121v600h121z" />
    <glyph glyph-name="L" unicode="L" horiz-adv-x="498" 
d="M471 0h-403v600h121v-494h282v-106z" />
    <glyph glyph-name="M" unicode="M" horiz-adv-x="728" 
d="M540 0v376l-152 -200h-48l-152 200v-376h-120v600h96l200 -269l200 269h95l1 -600h-120z" />
    <glyph glyph-name="N" unicode="N" horiz-adv-x="667" 
d="M599 600v-600h-93l-317 389v-389h-121v600h93l317 -385v385h121z" />
    <glyph glyph-name="O" unicode="O" horiz-adv-x="674" 
d="M336 -14q-134 0 -219 91t-85 223q0 133 85 222q85 91 219 91q135 0 220 -91q85 -89 85 -222q0 -132 -85 -223t-220 -91zM336 103q80 0 129 55q51 55 51 142q0 86 -51 141q-50 56 -129 56q-77 0 -128 -56q-50 -56 -50 -141t50 -141q51 -56 128 -56z" />
    <glyph glyph-name="P" unicode="P" horiz-adv-x="578" 
d="M324 600q105 0 167 -55q63 -55 63 -146q0 -95 -62.5 -149.5t-168.5 -54.5h-134v-195h-121v600h256zM429 398q0 46 -30 71t-82 25h-128v-194h128q53 0 82.5 25t29.5 73z" />
    <glyph glyph-name="Q" unicode="Q" horiz-adv-x="674" 
d="M336 -14q-134 0 -219 91t-85 223q0 133 85 222q85 91 219 91q135 0 220 -91q85 -89 85 -222q0 -90 -41 -163.5t-113 -113.5l71 -129h-134l-48 95q-20 -3 -40 -3zM336 103q80 0 129 55q51 55 51 142q0 86 -51 141q-50 56 -129 56q-77 0 -128 -56q-50 -56 -50 -141t50 -141
q51 -56 128 -56z" />
    <glyph glyph-name="R" unicode="R" horiz-adv-x="599" 
d="M68 600h256q105 0 167 -55q63 -55 63 -146q0 -65 -31 -112t-88 -70v-8l139 -197v-12h-136l-135 198h-114v-198h-121v600zM317 494h-128v-192h131q50 0 79.5 25t29.5 71t-30 71t-82 25z" />
    <glyph glyph-name="S" unicode="S" horiz-adv-x="525" 
d="M30 64l66 92q40 -27 83 -42q44 -16 85 -16q92 0 92 67q0 30 -25 48.5t-95 39.5q-104 31 -151 72.5t-47 109.5q0 82 59 130t166 48q71 0 123 -16q55 -15 74 -31l20 -15l-65 -99q-19 17 -72 36q-40 14 -80 14q-89 0 -89 -60q0 -26 24 -41.5t91 -36.5q109 -30 157.5 -74
t48.5 -114q0 -86 -59.5 -137.5t-167.5 -51.5q-73 0 -131 19q-59 20 -83 39z" />
    <glyph glyph-name="T" unicode="T" horiz-adv-x="526" 
d="M24 494v106h478v-106h-179v-494h-121v494h-178z" />
    <glyph glyph-name="U" unicode="U" horiz-adv-x="637" 
d="M318 -14q-118 0 -188 76t-70 194v344h121v-344q0 -70 36 -111.5t101 -41.5q67 0 102 41t35 112v344h121v-344q0 -118 -69 -195q-69 -75 -189 -75z" />
    <glyph glyph-name="V" unicode="V" 
d="M235 0l-238 600h129l172 -466l173 466h129l-238 -600h-127z" />
    <glyph glyph-name="W" unicode="W" horiz-adv-x="801" 
d="M513 0l-114 386l-110 -386h-94l-183 600h131l100 -374l108 374h96l109 -375l101 375h132l-183 -600h-93z" />
    <glyph glyph-name="X" unicode="X" horiz-adv-x="570" 
d="M554 600l-178 -293l184 -307h-147l-104 192l-24 49l-24 -49l-103 -192h-146l181 307l-177 293h146l101 -182l22 -50l24 50l100 182h145z" />
    <glyph glyph-name="Y" unicode="Y" horiz-adv-x="542" 
d="M296 391l117 209h133l-214 -367v-233h-121v231l-214 369h132l119 -209l24 -55z" />
    <glyph glyph-name="Z" unicode="Z" horiz-adv-x="544" 
d="M30 0v89l319 405h-308v106h468v-93l-313 -401h311v-106h-477z" />
    <glyph glyph-name="bracketleft" unicode="[" horiz-adv-x="330" 
d="M55 -130v830h258v-98h-144v-634h144v-98h-258z" />
    <glyph glyph-name="backslash" unicode="\" horiz-adv-x="390" 
d="M244 -128l-217 926h119l217 -926h-119z" />
    <glyph glyph-name="bracketright" unicode="]" horiz-adv-x="330" 
d="M17 -130v98h144v634h-144v98h258v-830h-258z" />
    <glyph glyph-name="asciicircum" unicode="^" horiz-adv-x="402" 
d="M268 497l-69 111l-69 -111h-91l128 196h64l131 -196h-94z" />
    <glyph glyph-name="underscore" unicode="_" horiz-adv-x="525" 
d="M41 -138v98h442v-98h-442z" />
    <glyph glyph-name="grave" unicode="`" horiz-adv-x="279" 
d="M131 497l-94 135l136 20l39 -155h-81z" />
    <glyph glyph-name="a" unicode="a" horiz-adv-x="467" 
d="M417 259v-259h-82l-16 53h-5q-39 -63 -135 -63q-70 0 -112 37t-42 96q0 66 49 102t142 36q47 0 86 -11v13q0 71 -100 71q-50 0 -96 -22l-14 -8l-38 88l20 10q10 6 57 17t93 11q92 0 142.5 -46t50.5 -125zM210 72q38 0 64.5 21.5t27.5 54.5v34q-23 13 -72 13
q-45 0 -68.5 -17t-23.5 -47q0 -26 19.5 -42.5t52.5 -16.5z" />
    <glyph glyph-name="b" unicode="b" horiz-adv-x="520" 
d="M54 0v605h120v-232h5q1 2 3.5 6t12 14t21.5 17.5t34.5 13.5t48.5 6q82 0 136 -62t54 -159q0 -100 -55 -159q-56 -60 -140 -60q-54 0 -88 21t-45 43l-4 7h-5l-17 -61h-81zM168 211q0 -56 28 -89t73 -33q43 0 71 34.5t28 87.5t-27.5 86.5t-71.5 33.5q-45 0 -73 -33t-28 -87
z" />
    <glyph glyph-name="c" unicode="c" horiz-adv-x="408" 
d="M251 -10q-98 0 -160 62q-61 61 -61 158t61 158q62 62 160 62q37 0 70.5 -9t48.5 -19l13 -10l-31 -86q-38 25 -90 25q-49 0 -80 -33.5t-31 -87.5q0 -56 31 -88.5t80 -32.5q43 0 79 19l11 6l30 -85q-23 -16 -58 -28q-35 -11 -73 -11z" />
    <glyph glyph-name="d" unicode="d" horiz-adv-x="521" 
d="M341 376h5v229h120v-605h-79l-19 58h-5q-1 -3 -4 -7.5t-14.5 -16t-25.5 -20.5t-39 -16.5t-54 -7.5q-86 0 -141 60q-55 59 -55 159q0 97 54 159q56 62 138 62q37 0 68 -12.5t42 -27.5zM353 211q0 55 -28 87.5t-74 32.5q-44 0 -71.5 -33.5t-27.5 -86.5t28 -87.5t71 -34.5
q45 0 73.5 33t28.5 89z" />
    <glyph glyph-name="e" unicode="e" horiz-adv-x="460" 
d="M371 118l42 -79q-20 -20 -70 -37q-42 -14 -88 -14q-103 0 -165 62q-60 63 -60 160q0 96 58 157q58 63 150 63q90 0 143 -56.5t53 -152.5l-1 -33h-287q10 -105 117 -105q60 0 95 26zM235 340q-71 0 -86 -81h168q-7 81 -82 81z" />
    <glyph glyph-name="f" unicode="f" horiz-adv-x="335" 
d="M325 327h-111v-327h-120v327h-72v93h72v25q0 79 41.5 123t118.5 44q56 0 88 -15l12 -5l-37 -89q-18 9 -46 9q-26 0 -41.5 -16.5t-15.5 -44.5v-31h111v-93z" />
    <glyph glyph-name="g" unicode="g" horiz-adv-x="474" 
d="M451 330h-55v-2q13 -12 13 -53q0 -59 -47 -97t-131 -38q-39 0 -75 11q-20 -11 -20 -29q0 -10 6 -16.5t30 -12t70 -7.5q118 -4 166 -34q47 -29 47 -92t-59.5 -103.5t-162.5 -40.5q-105 0 -157 29.5t-52 82.5q0 60 64 94q-56 27 -56 86q0 48 60 81q-39 37 -39 92
q0 66 48.5 106.5t129.5 40.5q34 0 66 -8h154v-90zM242 -6q-40 2 -62 5q-41 -21 -41 -58q0 -48 94 -48q104 0 104 51q0 46 -95 50zM231 350q-31 0 -50 -19t-19 -48q0 -30 18.5 -48.5t50.5 -18.5q33 0 52.5 18.5t19.5 48.5q0 28 -20 47.5t-52 19.5z" />
    <glyph glyph-name="h" unicode="h" horiz-adv-x="514" 
d="M55 0v605h121v-224h4q38 50 118 50q76 0 121.5 -50.5t45.5 -136.5v-243h-120v232q0 40 -23 66.5t-61 26.5q-36 0 -59.5 -23.5t-25.5 -56.5v-246h-121z" />
    <glyph glyph-name="i" unicode="i" horiz-adv-x="231" 
d="M166 505q-20 -19 -50 -19t-50 19t-20 49t20 49q20 20 50 20t50 -20q21 -19 21 -49t-21 -49zM55 0v420h120v-420h-120z" />
    <glyph glyph-name="j" unicode="j" horiz-adv-x="232" 
d="M-2 -156v100h20q37 0 37 38v438h121v-444q0 -61 -34 -96.5t-94 -35.5h-50zM166 505q-21 -19 -51 -19t-50 19t-20 49t20 49q20 20 50 20t51 -20q21 -19 21 -49t-21 -49z" />
    <glyph glyph-name="k" unicode="k" horiz-adv-x="468" 
d="M312 420h145l-154 -183l160 -237h-145l-108 161l-35 -40v-121h-120v605h120v-355z" />
    <glyph glyph-name="l" unicode="l" horiz-adv-x="231" 
d="M56 0v605h120v-605h-120z" />
    <glyph glyph-name="m" unicode="m" horiz-adv-x="801" 
d="M464 241v-241h-120v239q0 39 -22.5 63t-61.5 24q-38 0 -60.5 -22.5t-24.5 -57.5v-246h-120v420h75l17 -59h7q44 69 135 69q101 0 147 -73h6q45 74 137 74q80 0 126.5 -51t46.5 -136v-244h-120v234q0 41 -22.5 66.5t-60.5 25.5q-40 0 -62.5 -24t-22.5 -61z" />
    <glyph glyph-name="n" unicode="n" horiz-adv-x="515" 
d="M175 240v-240h-120v420h75l17 -59h7q25 37 56.5 53.5t79.5 16.5q81 0 128 -51t47 -136v-244h-120v234q0 40 -23.5 66t-61.5 26t-61.5 -25.5t-23.5 -60.5z" />
    <glyph glyph-name="o" unicode="o" horiz-adv-x="498" 
d="M468 208q0 -97 -64 -158q-63 -60 -155 -60q-93 0 -157 60q-63 62 -63 158q0 98 63 160q65 62 157 62q91 0 155 -62q64 -61 64 -160zM249 85q45 0 73 34.5t28 90.5t-28 90.5t-73 34.5t-73.5 -34.5t-28.5 -90.5q0 -57 28 -91t74 -34z" />
    <glyph glyph-name="p" unicode="p" horiz-adv-x="520" 
d="M180 44h-5v-200h-120v576h77l18 -59h6q1 3 4.5 7.5t15 16.5t26 21t39.5 16.5t54 7.5q85 0 140 -60q55 -59 55 -159q0 -98 -55 -159q-54 -62 -136 -62q-48 0 -77.5 16t-38.5 32zM169 209q0 -54 27.5 -87t72.5 -33q44 0 72 33.5t28 86.5t-28 87.5t-72 34.5q-45 0 -72.5 -33
t-27.5 -89z" />
    <glyph glyph-name="q" unicode="q" horiz-adv-x="520" 
d="M466 420v-576h-120v203h-5q-1 -2 -3.5 -6t-12 -14t-21.5 -17.5t-34 -13.5t-48 -6q-82 0 -138 62q-54 62 -54 159q0 100 55 159q55 60 141 60q55 0 88.5 -21.5t46.5 -44.5l4 -8h4l19 64h78zM353 209q0 56 -28.5 89t-73.5 33q-43 0 -71 -34.5t-28 -87.5t27.5 -86.5
t71.5 -33.5q46 0 74 32.5t28 87.5z" />
    <glyph glyph-name="r" unicode="r" horiz-adv-x="306" 
d="M293 420v-101h-22q-43 0 -69.5 -27.5t-26.5 -74.5v-217h-120v420h75l17 -62h6q33 62 117 62h23z" />
    <glyph glyph-name="s" unicode="s" horiz-adv-x="424" 
d="M30 37l39 82q64 -41 136 -41q64 0 64 36q0 18 -24 29.5t-59 20.5t-69.5 22t-58.5 42.5t-24 73.5q0 58 44.5 93t123.5 35q50 0 96.5 -8.5t67.5 -19.5l19 -9l-37 -89q-55 37 -132 37q-61 0 -61 -35q0 -15 17.5 -25t44.5 -15t57.5 -15t57.5 -23t44.5 -40.5t17.5 -66.5
q0 -61 -46 -96t-136 -35q-52 0 -98.5 11t-65.5 25z" />
    <glyph glyph-name="t" unicode="t" horiz-adv-x="342" 
d="M14 420h73v128h120v-128h103v-93h-103v-188q0 -46 45 -46q21 0 39 11l6 3l34 -83q-46 -34 -108 -34q-68 0 -102 38t-34 107v192h-73v93z" />
    <glyph glyph-name="u" unicode="u" horiz-adv-x="513" 
d="M338 177v243h120v-420h-80l-21 57h-5q-46 -67 -130 -67q-80 0 -126 50.5t-46 135.5v244h120v-234q0 -43 21.5 -69t59.5 -26q39 0 63 25.5t24 60.5z" />
    <glyph glyph-name="v" unicode="v" horiz-adv-x="461" 
d="M188 0l-188 420h131l89 -244q7 -18 7 -34h6q0 10 8 34l89 244h131l-188 -420h-85z" />
    <glyph glyph-name="w" unicode="w" horiz-adv-x="667" 
d="M663 420l-152 -420h-102l-65 226q-8 30 -8 47h-5q0 -15 -9 -47l-65 -226h-101l-152 420h127l68 -244q6 -22 6 -34h6q0 7 8 37l64 241h103l63 -241q8 -26 8 -37h6q0 10 6 34l69 244h125z" />
    <glyph glyph-name="x" unicode="x" horiz-adv-x="457" 
d="M13 0l139 214l-134 206h135l76 -132h3l76 132h134l-141 -206l146 -214h-135l-80 142h-3l-82 -142h-134z" />
    <glyph glyph-name="y" unicode="y" horiz-adv-x="456" 
d="M454 420l-246 -576h-124l90 190l-173 386h132l89 -244q8 -24 8 -34h6q0 16 7 34l89 244h122z" />
    <glyph glyph-name="z" unicode="z" horiz-adv-x="428" 
d="M395 0h-362v66l206 257h-204v97h360v-60l-202 -263h202v-97z" />
    <glyph glyph-name="braceleft" unicode="{" horiz-adv-x="304" 
d="M16 332h23q57 0 57 77v154q0 143 163 152l17 -100q-34 -6 -46 -17.5t-12 -42.5v-163q0 -82 -62 -102v-9q62 -20 62 -101v-163q0 -30 12 -42t46 -17l-17 -100q-163 7 -163 152v153q0 78 -57 78h-23v91z" />
    <glyph glyph-name="bar" unicode="|" horiz-adv-x="220" 
d="M165 687v-815h-110v815h110z" />
    <glyph glyph-name="braceright" unicode="}" horiz-adv-x="304" 
d="M265 332h23v-91h-23q-57 0 -57 -78v-153q0 -145 -163 -152l-17 100q34 5 46 17t12 42v163q0 81 62 101v9q-62 20 -62 102v163q0 31 -12 42.5t-46 17.5l17 100q163 -9 163 -152v-154q0 -77 57 -77z" />
    <glyph glyph-name="asciitilde" unicode="~" horiz-adv-x="474" 
d="M308 331q40 0 67 18l9 6l39 -74q-9 -13 -51 -30q-30 -11 -61 -11q-28 0 -72 16q-42 16 -75 16q-40 0 -67 -18l-9 -7l-38 74q16 16 52 30q28 12 60 12q30 0 72 -16t74 -16z" />
    <glyph glyph-name="uni00A0" unicode="&#xa0;" horiz-adv-x="206" 
 />
    <glyph glyph-name="exclamdown" unicode="&#xa1;" horiz-adv-x="223" 
d="M151 225l30 -401h-139l30 401h79zM38 359q0 30 21.5 51.5t52.5 21.5q30 0 51 -21.5t21 -51.5q0 -31 -21 -52.5t-51 -21.5q-31 0 -52.5 21.5t-21.5 52.5z" />
    <glyph glyph-name="cent" unicode="&#xa2;" horiz-adv-x="428" 
d="M187 0l11 85q-75 18 -118.5 75.5t-43.5 137.5q0 96 60 157q62 61 159 63l11 82h51l-11 -86q47 -7 75 -26l9 -6l-31 -88q-30 17 -66 23l-32 -240h8q43 0 79 19l11 6l30 -87q-19 -14 -59 -27q-31 -10 -71 -10h-11l-10 -78h-51zM157 298q0 -76 55 -107l29 225
q-38 -9 -61 -40.5t-23 -77.5z" />
    <glyph glyph-name="sterling" unicode="&#xa3;" horiz-adv-x="513" 
d="M466 106v-106h-414v106q23 9 45 40q16 22 16 50q0 9 -8 54h-61v83h42q-10 44 -10 83q0 82 60 136q59 55 166 55q61 0 106 -19t64 -38l7 -6l-72 -99q-11 16 -47 32q-25 13 -54 13q-45 0 -70 -24t-25 -66q0 -27 8 -67h179v-83h-162q6 -28 6 -54q0 -47 -25 -90h249z" />
    <glyph glyph-name="yen" unicode="&#xa5;" horiz-adv-x="606" 
d="M328 391l117 209h133l-169 -290h115v-84h-160v-54h160v-83h-160v-89h-121v89h-159v83h159v54h-159v84h113l-168 290h132l119 -209l24 -55z" />
    <glyph glyph-name="brokenbar" unicode="&#xa6;" horiz-adv-x="230" 
d="M170 330h-110v343h110v-343zM170 -153h-110v342h110v-342z" />
    <glyph glyph-name="section" unicode="&#xa7;" horiz-adv-x="541" 
d="M34 46l52 83q27 -17 85 -33q47 -12 94 -12q94 0 94 40q0 22 -22 34t-89 31q-77 22 -122 46q-58 31 -58 89q0 46 35 70q-48 28 -48 84q0 64 56.5 99.5t164.5 35.5q64 0 117 -12q54 -12 73 -24l21 -12l-52 -87q-63 39 -159 39q-82 0 -82 -39q0 -19 19.5 -31t69.5 -25
q56 -16 58 -17q23 -6 53 -19q33 -14 49 -26q44 -31 44 -77q0 -49 -33 -79q47 -32 47 -81q0 -61 -61 -99t-172 -38q-70 0 -129 15t-81 30zM242 345q-17 3 -43 11q-12 -4 -12 -26q0 -36 102 -64q10 -2 31 -9q28 -8 34 -10q12 12 12 29q0 22 -27.5 36t-96.5 33z" />
    <glyph glyph-name="dieresis" unicode="&#xa8;" horiz-adv-x="455" 
d="M78 706q0 25 18 43t41 18q24 0 42.5 -18t18.5 -43q0 -24 -18.5 -42t-42.5 -18q-23 0 -41 18t-18 42zM254 706q0 25 18 43t41 18q25 0 43 -18t18 -43q0 -24 -18 -42t-43 -18q-23 0 -41 18t-18 42z" />
    <glyph glyph-name="copyright" unicode="&#xa9;" horiz-adv-x="675" 
d="M38 299q0 130 82 218t218 88t217 -88q82 -88 82 -218t-82 -218q-81 -87 -217 -87t-218 88t-82 217zM83 299q0 -111 69 -188q70 -75 186 -75t186 75q70 76 70 188q0 114 -70 188q-70 76 -186 76t-186 -76q-69 -75 -69 -188zM453 423l-42 -59q-23 21 -60 21q-39 0 -61 -24
q-22 -23 -22 -61t22.5 -61.5t60.5 -23.5q36 0 53 17l7 5l42 -60q-13 -13 -47 -27q-26 -10 -60 -10q-74 0 -119 46q-44 47 -44 114q0 68 44 115q45 46 119 46q31 0 58 -9t38 -20z" />
    <glyph glyph-name="ordfeminine" unicode="&#xaa;" horiz-adv-x="390" 
d="M29 371q0 49 39 78t104 29q58 0 83 -21v8q0 40 -19 59t-60 19q-47 0 -89 -21l-25 65q57 27 126 27q79 0 115 -37.5t36 -113.5v-189h-62l-12 35h-6q-28 -43 -107 -43q-52 0 -87.5 30t-35.5 75zM114 375q0 -22 18.5 -36t48.5 -14q29 0 50.5 14.5t23.5 35.5v8q-4 43 -72 43
q-33 0 -51 -13.5t-18 -37.5z" />
    <glyph glyph-name="guillemotleft" unicode="&#xab;" horiz-adv-x="495" 
d="M32 197v22l127 189h100v-9l-123 -186v-8l123 -188v-9h-100zM236 197v22l127 189h100v-9l-123 -186v-8l123 -188v-9h-100z" />
    <glyph glyph-name="logicalnot" unicode="&#xac;" horiz-adv-x="558" 
d="M41 248v98h459v-346h-99v248h-360z" />
    <glyph glyph-name="registered" unicode="&#xae;" horiz-adv-x="535" 
d="M267 147q-103 0 -164 67t-61 166t61 166t164 67q104 0 165 -67q62 -68 62 -166t-62 -166q-61 -67 -165 -67zM87 380q0 -81 50 -136q49 -54 130 -54t131 54q51 54 51 136t-51 136q-50 54 -131 54t-131 -53q-49 -52 -49 -137zM178 485h97q40 0 64 -20t24 -54q0 -39 -35 -62
l38 -55v-11h-55l-37 53h-43v-53h-53v202zM274 436h-43v-53h43q33 0 33 26q0 27 -33 27z" />
    <glyph glyph-name="overscore" unicode="&#xaf;" horiz-adv-x="526" 
d="M121 668v73h295v-73h-295z" />
    <glyph glyph-name="degree" unicode="&#xb0;" horiz-adv-x="288" 
d="M60 642q31 31 84 31t84 -31q32 -32 32 -77t-32 -77q-31 -31 -84 -31t-84 31q-32 32 -32 77t32 77zM144 613q-23 0 -36 -13.5t-13 -34.5t13 -34t36 -13q22 0 35.5 13.5t13.5 33.5q0 21 -13.5 34.5t-35.5 13.5z" />
    <glyph glyph-name="plusminus" unicode="&#xb1;" horiz-adv-x="520" 
d="M311 185h-99v151h-159v97h159v158h99v-158h155v-97h-155v-151zM466 122v-98h-413v98h413z" />
    <glyph glyph-name="twosuperior" unicode="&#xb2;" horiz-adv-x="336" 
d="M48 342v62l124 109q27 23 27 47q0 18 -12.5 29.5t-33.5 11.5q-29 0 -70 -33l-44 63q18 18 54 33q30 13 64 13q59 0 92.5 -30.5t33.5 -79.5q0 -57 -40 -91l-76 -65h123v-69h-242z" />
    <glyph glyph-name="threesuperior" unicode="&#xb3;" horiz-adv-x="322" 
d="M44 598v70h229v-52l-59 -75q73 -19 73 -92q0 -52 -35 -83.5t-100 -31.5q-74 0 -118 44l42 58q27 -28 73 -28q55 0 55 41q0 39 -50 39h-43v39l57 71h-124z" />
    <glyph glyph-name="acute" unicode="&#xb4;" horiz-adv-x="279" 
d="M234 629l-108 -132h-79l50 145z" />
    <glyph glyph-name="mu" unicode="&#xb5;" horiz-adv-x="517" 
d="M342 177v243h120v-420h-80l-21 57h-5q-46 -67 -130 -67q-26 0 -54 7l2 -125h-120v548h120v-234q0 -43 21.5 -69t59.5 -26q39 0 63 25.5t24 60.5z" />
    <glyph glyph-name="paragraph" unicode="&#xb6;" horiz-adv-x="547" 
d="M361 -82v204h-56q-124 0 -200 64t-76 180q0 113 76 174t199 61h178v-683h-121z" />
    <glyph glyph-name="middot" unicode="&#xb7;" horiz-adv-x="225" 
d="M112 433q31 0 52 -21.5t21 -52.5t-21 -52t-52 -21q-30 0 -51.5 21t-21.5 52t21.5 52.5t51.5 21.5z" />
    <glyph glyph-name="cedilla" unicode="&#xb8;" horiz-adv-x="206" 
d="M71 -73l-20 22l26 54h56l-13 -33q28 -1 46 -18.5t18 -46.5q0 -34 -23.5 -54.5t-64.5 -20.5q-52 0 -76 24l-9 8l27 42q27 -21 55 -21q34 0 34 25q0 23 -31 23z" />
    <glyph glyph-name="onesuperior" unicode="&#xb9;" horiz-adv-x="220" 
d="M21 598v70h143v-326h-79v256h-64z" />
    <glyph glyph-name="ordmasculine" unicode="&#xba;" horiz-adv-x="391" 
d="M195 613q71 0 118 -48q47 -49 47 -127q0 -76 -47 -123q-46 -46 -118 -46q-71 0 -118 47t-47 122q0 78 47 127q47 48 118 48zM195 541q-37 0 -59 -28t-22 -73t22 -72t59 -27q38 0 59.5 27t21.5 72q0 46 -21.5 73.5t-59.5 27.5z" />
    <glyph glyph-name="guillemotright" unicode="&#xbb;" horiz-adv-x="495" 
d="M259 219v-22l-126 -189h-101v9l123 188v8l-123 186v9h101zM463 219v-22l-127 -189h-100v9l123 188v8l-123 186v9h100z" />
    <glyph glyph-name="onequarter" unicode="&#xbc;" horiz-adv-x="650" 
d="M126 -1l-96 1l475 600h96zM317 74v50l179 202h61v-187h56v-65h-56v-74h-76v74h-164zM46 530v70h144v-326h-79v256h-65zM410 137v-1l32 3h39v82h-1l-48 -61z" />
    <glyph glyph-name="onehalf" unicode="&#xbd;" horiz-adv-x="704" 
d="M125 0h-95l473 600h97zM425 62v-62h243v69h-123l76 65q40 34 40 91q0 49 -33.5 79.5t-92.5 30.5q-31 0 -61 -11t-44 -24l-13 -11l44 -63q41 33 70 33q21 0 33 -11.5t12 -29.5q0 -24 -26 -47zM50 530v70h143v-326h-79v256h-64z" />
    <glyph glyph-name="threequarters" unicode="&#xbe;" horiz-adv-x="703" 
d="M188 0h-96l474 600h96zM377 69v51l180 201h60v-187h52v-65h-52v-69h-77v69h-163zM43 530v70h229v-52l-59 -75q73 -19 73 -92q0 -52 -35 -83.5t-100 -31.5q-74 0 -118 44l42 58q25 -28 72 -28q56 0 56 41q0 39 -50 39h-43v39l57 71h-124zM470 132v-1l32 3h38v82h-1
l-47 -61z" />
    <glyph glyph-name="questiondown" unicode="&#xbf;" horiz-adv-x="435" 
d="M351 -34l61 -97q-23 -23 -77 -42q-42 -16 -95 -16q-94 0 -152 45t-58 120q0 39 15 70.5t36.5 51t43.5 36t39 35.5t20 40l2 21h96v-32q0 -62 -57 -109q-57 -43 -57 -91q0 -32 22.5 -50.5t62.5 -18.5q48 0 85 28zM303 362q0 -30 -20.5 -50.5t-49.5 -20.5t-49.5 20.5
t-20.5 50.5q0 29 20.5 50t49.5 21t49.5 -21t20.5 -50z" />
    <glyph glyph-name="Agrave" unicode="&#xc0;" 
d="M362 600l238 -600h-129l-43 116h-259l-43 -116h-129l238 600h127zM298 466l-93 -252h187zM254 635l-94 135l136 20l39 -155h-81z" />
    <glyph glyph-name="Aacute" unicode="&#xc1;" 
d="M362 600l238 -600h-129l-43 116h-259l-43 -116h-129l238 600h127zM298 466l-93 -252h187zM447 767l-108 -132h-79l50 145z" />
    <glyph glyph-name="Acircumflex" unicode="&#xc2;" 
d="M362 600l238 -600h-129l-43 116h-259l-43 -116h-129l238 600h127zM298 466l-93 -252h187zM345 646l-46 62l-46 -62h-85l85 131h93l85 -131h-86z" />
    <glyph glyph-name="Atilde" unicode="&#xc3;" 
d="M362 600l238 -600h-129l-43 116h-259l-43 -116h-129l238 600h127zM298 466l-93 -252h187zM376 649q-34 0 -75 21q-40 22 -56 22q-24 0 -33 -31l-4 -16l-85 8l6 34q17 96 101 96q33 0 73 -22t57 -22q27 0 34 31l4 16l84 -8l-5 -33q-7 -45 -33 -70.5t-68 -25.5z" />
    <glyph glyph-name="Adieresis" unicode="&#xc4;" 
d="M362 600l238 -600h-129l-43 116h-259l-43 -116h-129l238 600h127zM298 466l-93 -252h187zM151 706q0 25 18 43t41 18q24 0 42.5 -18t18.5 -43q0 -24 -18.5 -42t-42.5 -18q-23 0 -41 18t-18 42zM327 706q0 25 18 43t41 18q25 0 43 -18t18 -43q0 -24 -18 -42t-43 -18
q-23 0 -41 18t-18 42z" />
    <glyph glyph-name="Aring" unicode="&#xc5;" 
d="M362 600l238 -600h-129l-43 116h-259l-43 -116h-129l238 600h127zM298 466l-93 -252h187zM215 640q-30 26 -30 65t30 65q29 25 83 25t83 -25q30 -25 30 -65q0 -39 -30 -65q-29 -25 -83 -25t-83 25zM298 741q-46 0 -46 -36t46 -36q47 0 47 36t-47 36z" />
    <glyph glyph-name="AE" unicode="&#xc6;" horiz-adv-x="894" 
d="M-14 0l410 600h463v-106h-324v-144h262v-98h-262v-146h324v-106h-445v121h-204l-79 -121h-145zM410 427l-135 -206h139v206h-4z" />
    <glyph glyph-name="Ccedilla" unicode="&#xc7;" horiz-adv-x="556" 
d="M291 -73l-20 22l19 41q-117 15 -188 102q-69 87 -69 208q0 133 84 223t222 90q57 0 108.5 -17t74.5 -38l20 -19l-70 -93q-17 20 -60 37q-36 14 -72 14q-80 0 -131 -56q-51 -55 -51 -141t51 -142t131 -56q35 0 68.5 12t49.5 27l14 13l70 -93l-21 -20q-13 -12 -65 -33
q-48 -20 -110 -22l-6 -16q28 -1 46 -18.5t18 -46.5q0 -34 -23.5 -54.5t-64.5 -20.5q-52 0 -76 24l-9 8l27 42q27 -21 55 -21q34 0 34 25q0 23 -31 23z" />
    <glyph glyph-name="Egrave" unicode="&#xc8;" horiz-adv-x="537" 
d="M451 353v-98h-262v-149h311v-106h-432v600h432v-106h-311v-141h262zM258 635l-94 135l136 20l39 -155h-81z" />
    <glyph glyph-name="Eacute" unicode="&#xc9;" horiz-adv-x="537" 
d="M438 767l-108 -132h-79l50 145zM451 353v-98h-262v-149h311v-106h-432v600h432v-106h-311v-141h262z" />
    <glyph glyph-name="Ecircumflex" unicode="&#xca;" horiz-adv-x="537" 
d="M340 646l-46 62l-46 -62h-85l85 131h93l85 -131h-86zM451 353v-98h-262v-149h311v-106h-432v600h432v-106h-311v-141h262z" />
    <glyph glyph-name="Edieresis" unicode="&#xcb;" horiz-adv-x="537" 
d="M146 706q0 25 18 43t41 18q24 0 42.5 -18t18.5 -43q0 -24 -18.5 -42t-42.5 -18q-23 0 -41 18t-18 42zM322 706q0 25 18 43t41 18q25 0 43 -18t18 -43q0 -24 -18 -42t-43 -18q-23 0 -41 18t-18 42zM451 353v-98h-262v-149h311v-106h-432v600h432v-106h-311v-141h262z" />
    <glyph glyph-name="Igrave" unicode="&#xcc;" horiz-adv-x="258" 
d="M189 600v-600h-121v600h121zM84 635l-94 135l136 20l39 -155h-81z" />
    <glyph glyph-name="Iacute" unicode="&#xcd;" horiz-adv-x="258" 
d="M189 600v-600h-121v600h121zM277 767l-108 -132h-79l50 145z" />
    <glyph glyph-name="Icircumflex" unicode="&#xce;" horiz-adv-x="258" 
d="M189 600v-600h-121v600h121zM177 646l-46 62l-46 -62h-85l85 131h93l85 -131h-86z" />
    <glyph glyph-name="Idieresis" unicode="&#xcf;" horiz-adv-x="258" 
d="M189 600v-600h-121v600h121zM-18 706q0 25 18 43t41 18q24 0 42.5 -18t18.5 -43q0 -24 -18.5 -42t-42.5 -18q-23 0 -41 18t-18 42zM158 706q0 25 18 43t41 18q25 0 43 -18t18 -43q0 -24 -18 -42t-43 -18q-23 0 -41 18t-18 42z" />
    <glyph glyph-name="Eth" unicode="&#xd0;" horiz-adv-x="636" 
d="M18 250v108h52v242h221q141 0 226 -84q86 -83 86 -216t-86 -217q-86 -83 -226 -83h-221v250h-52zM283 494h-92v-136h134v-108h-134v-144h92q84 0 139 52q56 53 56 142q0 91 -55 142q-55 52 -140 52z" />
    <glyph glyph-name="Ntilde" unicode="&#xd1;" horiz-adv-x="667" 
d="M599 600v-600h-93l-317 389v-389h-121v600h93l317 -385v385h121zM411 649q-35 0 -75 21q-40 22 -56 22q-24 0 -33 -31l-4 -16l-85 8l6 34q16 96 101 96q33 0 73 -22t57 -22q27 0 34 31l4 16l84 -8l-5 -33q-7 -45 -33 -70.5t-68 -25.5z" />
    <glyph glyph-name="Ograve" unicode="&#xd2;" horiz-adv-x="674" 
d="M336 -14q-134 0 -219 91t-85 223q0 133 85 222q85 91 219 91q135 0 220 -91q85 -89 85 -222q0 -132 -85 -223t-220 -91zM336 103q80 0 129 55q51 55 51 142q0 86 -51 141q-50 56 -129 56q-77 0 -128 -56q-50 -56 -50 -141t50 -141q51 -56 128 -56zM295 646l-94 135
l136 20l39 -155h-81z" />
    <glyph glyph-name="Oacute" unicode="&#xd3;" horiz-adv-x="674" 
d="M480 778l-108 -132h-79l50 145zM336 -14q-134 0 -219 91t-85 223q0 133 85 222q85 91 219 91q135 0 220 -91q85 -89 85 -222q0 -132 -85 -223t-220 -91zM336 103q80 0 129 55q51 55 51 142q0 86 -51 141q-50 56 -129 56q-77 0 -128 -56q-50 -56 -50 -141t50 -141
q51 -56 128 -56z" />
    <glyph glyph-name="Ocircumflex" unicode="&#xd4;" horiz-adv-x="674" 
d="M384 646l-46 62l-46 -62h-85l85 131h93l85 -131h-86zM336 -14q-134 0 -219 91t-85 223q0 133 85 222q85 91 219 91q135 0 220 -91q85 -89 85 -222q0 -132 -85 -223t-220 -91zM336 103q80 0 129 55q51 55 51 142q0 86 -51 141q-50 56 -129 56q-77 0 -128 -56
q-50 -56 -50 -141t50 -141q51 -56 128 -56z" />
    <glyph glyph-name="Otilde" unicode="&#xd5;" horiz-adv-x="674" 
d="M336 -14q-134 0 -219 91t-85 223q0 133 85 222q85 91 219 91q135 0 220 -91q85 -89 85 -222q0 -132 -85 -223t-220 -91zM336 103q80 0 129 55q51 55 51 142q0 86 -51 141q-50 56 -129 56q-77 0 -128 -56q-50 -56 -50 -141t50 -141q51 -56 128 -56zM411 649q-35 0 -75 21
q-40 22 -56 22q-24 0 -33 -31l-4 -16l-85 8l6 34q16 96 101 96q33 0 73 -22t57 -22q27 0 34 31l4 16l84 -8l-5 -33q-7 -45 -33 -70.5t-68 -25.5z" />
    <glyph glyph-name="Odieresis" unicode="&#xd6;" horiz-adv-x="674" 
d="M189 706q0 25 18 43t41 18q24 0 42.5 -18t18.5 -43q0 -24 -18.5 -42t-42.5 -18q-23 0 -41 18t-18 42zM365 706q0 25 18 43t41 18q25 0 43 -18t18 -43q0 -24 -18 -42t-43 -18q-23 0 -41 18t-18 42zM336 -14q-134 0 -219 91t-85 223q0 133 85 222q85 91 219 91
q135 0 220 -91q85 -89 85 -222q0 -132 -85 -223t-220 -91zM336 103q80 0 129 55q51 55 51 142q0 86 -51 141q-50 56 -129 56q-77 0 -128 -56q-50 -56 -50 -141t50 -141q51 -56 128 -56z" />
    <glyph glyph-name="multiply" unicode="&#xd7;" horiz-adv-x="508" 
d="M113 90l-68 68l141 143l-141 144l68 68l141 -143l141 143l68 -68l-142 -144l142 -143l-68 -68l-141 143z" />
    <glyph glyph-name="Oslash" unicode="&#xd8;" horiz-adv-x="688" 
d="M344 -14q-109 0 -185 60l-45 -46h-125l108 111q-57 83 -57 189q0 133 85 222q85 91 219 91q104 0 183 -59l45 46h125l-107 -110q59 -82 59 -190q0 -132 -85 -223t-220 -91zM344 103q80 0 129 55q51 55 51 142q0 56 -22 99l-258 -265q43 -31 100 -31zM166 300
q0 -52 20 -97l257 264q-43 30 -99 30q-77 0 -128 -56q-50 -56 -50 -141z" />
    <glyph glyph-name="Ugrave" unicode="&#xd9;" horiz-adv-x="637" 
d="M318 -14q-118 0 -188 76t-70 194v344h121v-344q0 -70 36 -111.5t101 -41.5q67 0 102 41t35 112v344h121v-344q0 -118 -69 -195q-69 -75 -189 -75zM275 635l-94 135l136 20l39 -155h-81z" />
    <glyph glyph-name="Uacute" unicode="&#xda;" horiz-adv-x="637" 
d="M462 767l-108 -132h-79l50 145zM318 -14q-118 0 -188 76t-70 194v344h121v-344q0 -70 36 -111.5t101 -41.5q67 0 102 41t35 112v344h121v-344q0 -118 -69 -195q-69 -75 -189 -75z" />
    <glyph glyph-name="Ucircumflex" unicode="&#xdb;" horiz-adv-x="637" 
d="M366 635l-46 62l-46 -62h-85l85 131h93l85 -131h-86zM318 -14q-118 0 -188 76t-70 194v344h121v-344q0 -70 36 -111.5t101 -41.5q67 0 102 41t35 112v344h121v-344q0 -118 -69 -195q-69 -75 -189 -75z" />
    <glyph glyph-name="Udieresis" unicode="&#xdc;" horiz-adv-x="637" 
d="M172 706q0 25 18 43t41 18q24 0 42.5 -18t18.5 -43q0 -24 -18.5 -42t-42.5 -18q-23 0 -41 18t-18 42zM348 706q0 25 18 43t41 18q25 0 43 -18t18 -43q0 -24 -18 -42t-43 -18q-23 0 -41 18t-18 42zM318 -14q-118 0 -188 76t-70 194v344h121v-344q0 -70 36 -111.5
t101 -41.5q67 0 102 41t35 112v344h121v-344q0 -118 -69 -195q-69 -75 -189 -75z" />
    <glyph glyph-name="Yacute" unicode="&#xdd;" horiz-adv-x="542" 
d="M296 391l117 209h133l-214 -367v-233h-121v231l-214 369h132l119 -209l24 -55zM418 800l-108 -132h-79l50 145z" />
    <glyph glyph-name="Thorn" unicode="&#xde;" horiz-adv-x="586" 
d="M189 600v-91h142q109 0 172 -55t63 -151q0 -101 -65.5 -157.5t-177.5 -56.5h-134v-89h-121v600h121zM441 298q0 50 -32.5 77.5t-89.5 27.5h-130v-211h131q58 0 89.5 27t31.5 79z" />
    <glyph glyph-name="germandbls" unicode="&#xdf;" horiz-adv-x="499" 
d="M238 250v85q85 16 85 91q0 34 -19 54.5t-54 20.5q-34 0 -54.5 -23.5t-20.5 -63.5v-414h-120v405q0 94 51.5 146t146.5 52q86 0 140 -51q54 -50 54 -123q0 -88 -67 -124q41 -16 63.5 -52.5t22.5 -85.5q0 -78 -50 -125.5t-133 -47.5q-38 0 -58 4l-4 2l3 79q30 -2 36 -2
q44 0 69 23.5t25 63.5t-25 63t-69 23h-22z" />
    <glyph glyph-name="agrave" unicode="&#xe0;" horiz-adv-x="467" 
d="M417 259v-259h-82l-16 53h-5q-39 -63 -135 -63q-70 0 -112 37t-42 96q0 66 49 102t142 36q47 0 86 -11v13q0 71 -100 71q-50 0 -96 -22l-14 -8l-38 88l20 10q10 6 57 17t93 11q92 0 142.5 -46t50.5 -125zM210 72q38 0 64.5 21.5t27.5 54.5v34q-23 13 -72 13
q-45 0 -68.5 -17t-23.5 -47q0 -26 19.5 -42.5t52.5 -16.5zM188 497l-94 135l136 20l39 -155h-81z" />
    <glyph glyph-name="aacute" unicode="&#xe1;" horiz-adv-x="467" 
d="M417 259v-259h-82l-16 53h-5q-39 -63 -135 -63q-70 0 -112 37t-42 96q0 66 49 102t142 36q47 0 86 -11v13q0 71 -100 71q-50 0 -96 -22l-14 -8l-38 88l20 10q10 6 57 17t93 11q92 0 142.5 -46t50.5 -125zM210 72q38 0 64.5 21.5t27.5 54.5v34q-23 13 -72 13
q-45 0 -68.5 -17t-23.5 -47q0 -26 19.5 -42.5t52.5 -16.5zM371 629l-108 -132h-79l50 145z" />
    <glyph glyph-name="acircumflex" unicode="&#xe2;" horiz-adv-x="467" 
d="M417 259v-259h-82l-16 53h-5q-39 -63 -135 -63q-70 0 -112 37t-42 96q0 66 49 102t142 36q47 0 86 -11v13q0 71 -100 71q-50 0 -96 -22l-14 -8l-38 88l20 10q10 6 57 17t93 11q92 0 142.5 -46t50.5 -125zM210 72q38 0 64.5 21.5t27.5 54.5v34q-23 13 -72 13
q-45 0 -68.5 -17t-23.5 -47q0 -26 19.5 -42.5t52.5 -16.5zM267 497l-46 62l-46 -62h-85l85 131h93l85 -131h-86z" />
    <glyph glyph-name="atilde" unicode="&#xe3;" horiz-adv-x="467" 
d="M417 259v-259h-82l-16 53h-5q-39 -63 -135 -63q-70 0 -112 37t-42 96q0 66 49 102t142 36q47 0 86 -11v13q0 71 -100 71q-50 0 -96 -22l-14 -8l-38 88l20 10q10 6 57 17t93 11q92 0 142.5 -46t50.5 -125zM210 72q38 0 64.5 21.5t27.5 54.5v34q-23 13 -72 13
q-45 0 -68.5 -17t-23.5 -47q0 -26 19.5 -42.5t52.5 -16.5zM294 480q-34 0 -75 21q-40 22 -56 22q-24 0 -33 -31l-4 -16l-85 8l6 34q16 96 101 96q33 0 73 -22t57 -22q27 0 34 31l4 16l84 -8l-5 -33q-7 -45 -33 -70.5t-68 -25.5z" />
    <glyph glyph-name="adieresis" unicode="&#xe4;" horiz-adv-x="467" 
d="M417 259v-259h-82l-16 53h-5q-39 -63 -135 -63q-70 0 -112 37t-42 96q0 66 49 102t142 36q47 0 86 -11v13q0 71 -100 71q-50 0 -96 -22l-14 -8l-38 88l20 10q10 6 57 17t93 11q92 0 142.5 -46t50.5 -125zM210 72q38 0 64.5 21.5t27.5 54.5v34q-23 13 -72 13
q-45 0 -68.5 -17t-23.5 -47q0 -26 19.5 -42.5t52.5 -16.5zM75 535q0 25 18 43t41 18q24 0 42.5 -18t18.5 -43q0 -24 -18.5 -42t-42.5 -18q-23 0 -41 18t-18 42zM251 535q0 25 18 43t41 18q25 0 43 -18t18 -43q0 -24 -18 -42t-43 -18q-23 0 -41 18t-18 42z" />
    <glyph glyph-name="aring" unicode="&#xe5;" horiz-adv-x="467" 
d="M417 259v-259h-82l-16 53h-5q-39 -63 -135 -63q-70 0 -112 37t-42 96q0 66 49 102t142 36q47 0 86 -11v13q0 71 -100 71q-50 0 -96 -22l-14 -8l-38 88l20 10q10 6 57 17t93 11q92 0 142.5 -46t50.5 -125zM210 72q38 0 64.5 21.5t27.5 54.5v34q-23 13 -72 13
q-45 0 -68.5 -17t-23.5 -47q0 -26 19.5 -42.5t52.5 -16.5zM140 519q-30 25 -30 65t30 65q29 25 83 25t83 -25q30 -25 30 -65t-30 -65q-29 -25 -83 -25t-83 25zM223 620q-46 0 -46 -36t46 -36q47 0 47 36t-47 36z" />
    <glyph glyph-name="ae" unicode="&#xe6;" horiz-adv-x="733" 
d="M644 120l42 -79q-20 -20 -70 -37q-42 -14 -88 -14q-103 0 -163 60q-59 -60 -169 -60q-82 0 -127.5 35.5t-45.5 93.5q0 137 188 137q48 0 90 -12v15q0 77 -99 77q-53 0 -96 -26l-14 -8l-39 90q68 38 163 38q102 0 154 -54q57 54 141 54q90 0 143 -56.5t53 -152.5l-1 -33
h-287q12 -103 117 -103q59 0 96 26zM210 72q43 0 67 24.5t24 63.5v17q-34 12 -79 12q-84 0 -84 -61q0 -56 72 -56zM508 340q-71 0 -86 -81h168q-8 81 -82 81z" />
    <glyph glyph-name="ccedilla" unicode="&#xe7;" horiz-adv-x="408" 
d="M198 -75l-20 22l23 48q-78 15 -124.5 73.5t-46.5 141.5q0 97 61 158q62 62 160 62q37 0 70.5 -9t48.5 -19l13 -10l-31 -86q-38 25 -90 25q-49 0 -80 -33.5t-31 -87.5q0 -56 31 -88.5t80 -32.5q43 0 79 19l11 6l30 -85q-24 -17 -56 -28q-29 -9 -71 -11l-8 -22
q28 -1 46 -18.5t18 -46.5q0 -34 -23.5 -54.5t-64.5 -20.5q-51 0 -77 24l-8 8l27 42q27 -21 55 -21q34 0 34 25q0 23 -31 23z" />
    <glyph glyph-name="egrave" unicode="&#xe8;" horiz-adv-x="460" 
d="M371 118l42 -79q-20 -20 -70 -37q-42 -14 -88 -14q-103 0 -165 62q-60 63 -60 160q0 96 58 157q58 63 150 63q90 0 143 -56.5t53 -152.5l-1 -33h-287q10 -105 117 -105q60 0 95 26zM235 340q-71 0 -86 -81h168q-7 81 -82 81zM186 497l-94 135l136 20l39 -155h-81z" />
    <glyph glyph-name="eacute" unicode="&#xe9;" horiz-adv-x="460" 
d="M387 629l-108 -132h-79l50 145zM371 118l42 -79q-20 -20 -70 -37q-42 -14 -88 -14q-103 0 -165 62q-60 63 -60 160q0 96 58 157q58 63 150 63q90 0 143 -56.5t53 -152.5l-1 -33h-287q10 -105 117 -105q60 0 95 26zM235 340q-71 0 -86 -81h168q-7 81 -82 81z" />
    <glyph glyph-name="ecircumflex" unicode="&#xea;" horiz-adv-x="460" 
d="M283 497l-46 62l-46 -62h-85l85 131h93l85 -131h-86zM371 118l42 -79q-20 -20 -70 -37q-42 -14 -88 -14q-103 0 -165 62q-60 63 -60 160q0 96 58 157q58 63 150 63q90 0 143 -56.5t53 -152.5l-1 -33h-287q10 -105 117 -105q60 0 95 26zM235 340q-71 0 -86 -81h168
q-7 81 -82 81z" />
    <glyph glyph-name="edieresis" unicode="&#xeb;" horiz-adv-x="460" 
d="M90 535q0 25 18 43t41 18q24 0 42.5 -18t18.5 -43q0 -24 -18.5 -42t-42.5 -18q-23 0 -41 18t-18 42zM266 535q0 25 18 43t41 18q25 0 43 -18t18 -43q0 -24 -18 -42t-43 -18q-23 0 -41 18t-18 42zM371 118l42 -79q-20 -20 -70 -37q-42 -14 -88 -14q-103 0 -165 62
q-60 63 -60 160q0 96 58 157q58 63 150 63q90 0 143 -56.5t53 -152.5l-1 -33h-287q10 -105 117 -105q60 0 95 26zM235 340q-71 0 -86 -81h168q-7 81 -82 81z" />
    <glyph glyph-name="igrave" unicode="&#xec;" horiz-adv-x="231" 
d="M55 0v420h120v-420h-120zM70 497l-94 135l136 20l39 -155h-81z" />
    <glyph glyph-name="iacute" unicode="&#xed;" horiz-adv-x="231" 
d="M264 629l-108 -132h-79l50 145zM55 0v420h120v-420h-120z" />
    <glyph glyph-name="icircumflex" unicode="&#xee;" horiz-adv-x="231" 
d="M164 508l-46 62l-46 -62h-85l85 131h93l85 -131h-86zM55 0v420h120v-420h-120z" />
    <glyph glyph-name="idieresis" unicode="&#xef;" horiz-adv-x="231" 
d="M-28 567q0 25 18 43t41 18q24 0 42.5 -18t18.5 -43q0 -24 -18.5 -42t-42.5 -18q-23 0 -41 18t-18 42zM148 567q0 25 18 43t41 18q25 0 43 -18t18 -43q0 -24 -18 -42t-43 -18q-23 0 -41 18t-18 42zM55 0v420h120v-420h-120z" />
    <glyph glyph-name="eth" unicode="&#xf0;" horiz-adv-x="507" 
d="M253 -11q-100 0 -162 59q-61 60 -61 161q0 97 61 158q62 62 162 62q2 0 11.5 -0.5t12.5 -0.5v3q-18 21 -30 44l-28 47l-104 -64l-39 66l104 63l-76 130v11h115l51 -86l110 67l38 -65l-109 -67l111 -183q55 -96 57 -176v-9q0 -101 -61 -161q-62 -59 -163 -59zM356 210
q0 56 -28 88t-75 32q-45 0 -73.5 -33t-28.5 -87q0 -55 28.5 -88.5t73.5 -33.5q47 0 75 33.5t28 88.5z" />
    <glyph glyph-name="ntilde" unicode="&#xf1;" horiz-adv-x="515" 
d="M175 240v-240h-120v420h75l17 -59h7q25 37 56.5 53.5t79.5 16.5q81 0 128 -51t47 -136v-244h-120v234q0 40 -23.5 66t-61.5 26t-61.5 -25.5t-23.5 -60.5zM330 511q-34 0 -75 21q-40 22 -56 22q-24 0 -33 -31l-4 -16l-85 8l6 34q17 96 101 96q33 0 73 -22t57 -22
q27 0 34 31l4 16l84 -8l-5 -33q-7 -45 -33 -70.5t-68 -25.5z" />
    <glyph glyph-name="ograve" unicode="&#xf2;" horiz-adv-x="498" 
d="M468 208q0 -97 -64 -158q-63 -60 -155 -60q-93 0 -157 60q-63 62 -63 158q0 98 63 160q65 62 157 62q91 0 155 -62q64 -61 64 -160zM249 85q45 0 73 34.5t28 90.5t-28 90.5t-73 34.5t-73.5 -34.5t-28.5 -90.5q0 -57 28 -91t74 -34zM205 497l-94 135l136 20l39 -155h-81z
" />
    <glyph glyph-name="oacute" unicode="&#xf3;" horiz-adv-x="498" 
d="M394 629l-108 -132h-79l50 145zM468 208q0 -97 -64 -158q-63 -60 -155 -60q-93 0 -157 60q-63 62 -63 158q0 98 63 160q65 62 157 62q91 0 155 -62q64 -61 64 -160zM249 85q45 0 73 34.5t28 90.5t-28 90.5t-73 34.5t-73.5 -34.5t-28.5 -90.5q0 -57 28 -91t74 -34z" />
    <glyph glyph-name="ocircumflex" unicode="&#xf4;" horiz-adv-x="498" 
d="M296 508l-46 62l-46 -62h-85l85 131h93l85 -131h-86zM468 208q0 -97 -64 -158q-63 -60 -155 -60q-93 0 -157 60q-63 62 -63 158q0 98 63 160q65 62 157 62q91 0 155 -62q64 -61 64 -160zM249 85q45 0 73 34.5t28 90.5t-28 90.5t-73 34.5t-73.5 -34.5t-28.5 -90.5
q0 -57 28 -91t74 -34z" />
    <glyph glyph-name="otilde" unicode="&#xf5;" horiz-adv-x="498" 
d="M468 208q0 -97 -64 -158q-63 -60 -155 -60q-93 0 -157 60q-63 62 -63 158q0 98 63 160q65 62 157 62q91 0 155 -62q64 -61 64 -160zM249 85q45 0 73 34.5t28 90.5t-28 90.5t-73 34.5t-73.5 -34.5t-28.5 -90.5q0 -57 28 -91t74 -34zM320 512q-34 0 -75 21q-40 22 -56 22
q-24 0 -33 -31l-4 -16l-85 8l6 34q17 96 101 96q33 0 73 -22t57 -22q27 0 34 31l4 16l84 -8l-5 -33q-7 -45 -33 -70.5t-68 -25.5z" />
    <glyph glyph-name="odieresis" unicode="&#xf6;" horiz-adv-x="498" 
d="M102 568q0 25 18 43t41 18q24 0 42.5 -18t18.5 -43q0 -24 -18.5 -42t-42.5 -18q-23 0 -41 18t-18 42zM278 568q0 25 18 43t41 18q25 0 43 -18t18 -43q0 -24 -18 -42t-43 -18q-23 0 -41 18t-18 42zM468 208q0 -97 -64 -158q-63 -60 -155 -60q-93 0 -157 60q-63 62 -63 158
q0 98 63 160q65 62 157 62q91 0 155 -62q64 -61 64 -160zM249 85q45 0 73 34.5t28 90.5t-28 90.5t-73 34.5t-73.5 -34.5t-28.5 -90.5q0 -57 28 -91t74 -34z" />
    <glyph glyph-name="divide" unicode="&#xf7;" horiz-adv-x="485" 
d="M190 72q-21 21 -21 52t21 52q21 22 52 22t52 -22q22 -21 22 -52t-22 -52q-21 -21 -52 -21t-52 21zM190 421q-21 21 -21 52t21 52q21 22 52 22t52 -22q22 -21 22 -52t-22 -52q-21 -21 -52 -21t-52 21zM41 247v98h403v-98h-403z" />
    <glyph glyph-name="oslash" unicode="&#xf8;" horiz-adv-x="498" 
d="M468 208q0 -97 -64 -158q-63 -60 -155 -60q-74 0 -130 38l-27 -28h-80l64 67q-47 56 -47 141q0 98 63 160q65 62 157 62q72 0 125 -37l26 27h81l-64 -66q51 -58 51 -146zM249 85q45 0 73 34.5t28 90.5q0 36 -12 63l-149 -168q26 -20 60 -20zM147 210q0 -37 10 -60
l148 166q-25 19 -56 19q-45 0 -73.5 -34.5t-28.5 -90.5z" />
    <glyph glyph-name="ugrave" unicode="&#xf9;" horiz-adv-x="513" 
d="M338 177v243h120v-420h-80l-21 57h-5q-46 -67 -130 -67q-80 0 -126 50.5t-46 135.5v244h120v-234q0 -43 21.5 -69t59.5 -26q39 0 63 25.5t24 60.5zM207 497l-94 135l136 20l39 -155h-81z" />
    <glyph glyph-name="uacute" unicode="&#xfa;" horiz-adv-x="513" 
d="M395 629l-108 -132h-79l50 145zM338 177v243h120v-420h-80l-21 57h-5q-46 -67 -130 -67q-80 0 -126 50.5t-46 135.5v244h120v-234q0 -43 21.5 -69t59.5 -26q39 0 63 25.5t24 60.5z" />
    <glyph glyph-name="ucircumflex" unicode="&#xfb;" horiz-adv-x="513" 
d="M294 497l-46 62l-46 -62h-85l85 131h93l85 -131h-86zM338 177v243h120v-420h-80l-21 57h-5q-46 -67 -130 -67q-80 0 -126 50.5t-46 135.5v244h120v-234q0 -43 21.5 -69t59.5 -26q39 0 63 25.5t24 60.5z" />
    <glyph glyph-name="udieresis" unicode="&#xfc;" horiz-adv-x="513" 
d="M101 558q0 25 18 43t41 18q24 0 42.5 -18t18.5 -43q0 -24 -18.5 -42t-42.5 -18q-23 0 -41 18t-18 42zM277 558q0 25 18 43t41 18q25 0 43 -18t18 -43q0 -24 -18 -42t-43 -18q-23 0 -41 18t-18 42zM338 177v243h120v-420h-80l-21 57h-5q-46 -67 -130 -67q-80 0 -126 50.5
t-46 135.5v244h120v-234q0 -43 21.5 -69t59.5 -26q39 0 63 25.5t24 60.5z" />
    <glyph glyph-name="yacute" unicode="&#xfd;" horiz-adv-x="456" 
d="M454 420l-246 -576h-124l90 190l-173 386h132l89 -244q8 -24 8 -34h6q0 16 7 34l89 244h122zM373 629l-108 -132h-79l50 145z" />
    <glyph glyph-name="thorn" unicode="&#xfe;" horiz-adv-x="521" 
d="M180 59h-5v-215h-120v756h120v-235h4q1 3 3.5 7t12.5 15.5t22.5 20t34 15.5t46.5 7q86 0 138 -60q54 -60 54 -159q0 -98 -55 -159q-54 -62 -137 -62q-47 0 -76.5 20.5t-38.5 41.5zM169 209q0 -54 28 -87t73 -33q44 0 71.5 33.5t27.5 86.5t-28 87.5t-71 34.5
q-45 0 -73 -33t-28 -89z" />
    <glyph glyph-name="ydieresis" unicode="&#xff;" horiz-adv-x="456" 
d="M454 420l-246 -576h-124l90 190l-173 386h132l89 -244q8 -24 8 -34h6q0 16 7 34l89 244h122zM80 556q0 25 18 43t41 18q24 0 42.5 -18t18.5 -43q0 -24 -18.5 -42t-42.5 -18q-23 0 -41 18t-18 42zM256 556q0 25 18 43t41 18q25 0 43 -18t18 -43q0 -24 -18 -42t-43 -18
q-23 0 -41 18t-18 42z" />
    <glyph glyph-name="dotlessi" unicode="&#x131;" horiz-adv-x="231" 
d="M55 0v420h120v-420h-120z" />
    <glyph glyph-name="Lslash" unicode="&#x141;" horiz-adv-x="503" 
d="M15 200v128l58 35v237h121v-164l117 71v-127l-117 -71v-203h282v-106h-403v235z" />
    <glyph glyph-name="lslash" unicode="&#x142;" horiz-adv-x="248" 
d="M17 214v67l44 27v297h120v-223l57 36v-67l-57 -36v-315h-120v241z" />
    <glyph glyph-name="OE" unicode="&#x152;" horiz-adv-x="1017" 
d="M336 -14q-134 0 -219 91t-85 223q0 133 85 222q85 91 219 91q129 0 214 -85v72h432v-106h-311v-141h262v-98h-262v-149h311v-106h-432v71q-85 -85 -214 -85zM336 103q80 0 129 55q51 55 51 142q0 86 -51 141q-50 56 -129 56q-77 0 -128 -56q-50 -56 -50 -141t50 -141
q51 -56 128 -56z" />
    <glyph glyph-name="oe" unicode="&#x153;" horiz-adv-x="814" 
d="M726 118l42 -79q-20 -20 -70 -37q-42 -14 -88 -14q-123 0 -185 86q-63 -84 -176 -84q-93 0 -157 60q-63 62 -63 158q0 98 63 160q65 62 157 62q111 0 175 -85q60 85 169 85q90 0 143 -56.5t53 -152.5l-1 -33h-287q11 -105 117 -105q59 0 96 26zM249 85q45 0 73 34.5
t28 90.5t-28 90.5t-73 34.5t-73.5 -34.5t-28.5 -90.5q0 -57 28 -91t74 -34zM590 340q-71 0 -86 -81h168q-8 81 -82 81z" />
    <glyph glyph-name="Scaron" unicode="&#x160;" horiz-adv-x="525" 
d="M215 777l46 -63l46 63h85l-72 -109h-118l-73 109h86zM30 64l66 92q40 -27 83 -42q44 -16 85 -16q92 0 92 67q0 30 -25 48.5t-95 39.5q-104 31 -151 72.5t-47 109.5q0 82 59 130t166 48q71 0 123 -16q55 -15 74 -31l20 -15l-65 -99q-19 17 -72 36q-40 14 -80 14
q-89 0 -89 -60q0 -26 24 -41.5t91 -36.5q109 -30 157.5 -74t48.5 -114q0 -86 -59.5 -137.5t-167.5 -51.5q-73 0 -131 19q-59 20 -83 39z" />
    <glyph glyph-name="scaron" unicode="&#x161;" horiz-adv-x="424" 
d="M164 606l46 -63l46 63h85l-72 -109h-118l-73 109h86zM30 37l39 82q64 -41 136 -41q64 0 64 36q0 18 -24 29.5t-59 20.5t-69.5 22t-58.5 42.5t-24 73.5q0 58 44.5 93t123.5 35q50 0 96.5 -8.5t67.5 -19.5l19 -9l-37 -89q-55 37 -132 37q-61 0 -61 -35q0 -15 17.5 -25
t44.5 -15t57.5 -15t57.5 -23t44.5 -40.5t17.5 -66.5q0 -61 -46 -96t-136 -35q-52 0 -98.5 11t-65.5 25z" />
    <glyph glyph-name="Ydieresis" unicode="&#x178;" horiz-adv-x="542" 
d="M296 391l117 209h133l-214 -367v-233h-121v231l-214 369h132l119 -209l24 -55zM126 706q0 25 18 43t41 18q24 0 42.5 -18t18.5 -43q0 -24 -18.5 -42t-42.5 -18q-23 0 -41 18t-18 42zM302 706q0 25 18 43t41 18q25 0 43 -18t18 -43q0 -24 -18 -42t-43 -18q-23 0 -41 18
t-18 42z" />
    <glyph glyph-name="Zcaron" unicode="&#x17d;" horiz-adv-x="544" 
d="M221 777l46 -63l46 63h85l-72 -109h-118l-73 109h86zM30 0v89l319 405h-308v106h468v-93l-313 -401h311v-106h-477z" />
    <glyph glyph-name="zcaron" unicode="&#x17e;" horiz-adv-x="428" 
d="M165 606l46 -63l46 63h85l-72 -109h-118l-73 109h86zM395 0h-362v66l206 257h-204v97h360v-60l-202 -263h202v-97z" />
    <glyph glyph-name="florin" unicode="&#x192;" horiz-adv-x="549" 
d="M176 143l38 184h-67v93h86l4 18q36 168 196 168q61 0 93 -16l12 -5l-48 -99q-23 13 -59 13q-62 0 -74 -60l-4 -19h126v-93h-145l-40 -203q-15 -69 -49.5 -100t-101.5 -31q-55 0 -91 20l-11 7l37 94q23 -14 51 -14q40 0 47 43z" />
    <glyph glyph-name="circumflex" unicode="&#x2c6;" horiz-adv-x="371" 
d="M238 646l-46 62l-46 -62h-85l85 131h93l85 -131h-86z" />
    <glyph glyph-name="caron" unicode="&#x2c7;" horiz-adv-x="325" 
d="M114 777l46 -63l46 63h85l-72 -109h-118l-73 109h86z" />
    <glyph glyph-name="breve" unicode="&#x2d8;" horiz-adv-x="396" 
d="M261 818h95q0 -64 -41 -111q-41 -45 -115 -45q-76 0 -116 45q-41 47 -41 111h94q0 -35 17 -54t45 -19t45 20t17 53z" />
    <glyph glyph-name="dotaccent" unicode="&#x2d9;" horiz-adv-x="331" 
d="M218 571q-21 -21 -52 -21t-52 21t-21 52t21 52q21 22 52 22t52 -22q22 -21 22 -52t-22 -52z" />
    <glyph glyph-name="ring" unicode="&#x2da;" horiz-adv-x="288" 
d="M61 640q-30 26 -30 65t30 65q29 25 83 25t83 -25q30 -25 30 -65q0 -39 -30 -65q-29 -25 -83 -25t-83 25zM144 741q-46 0 -46 -36t46 -36q47 0 47 36t-47 36z" />
    <glyph glyph-name="ogonek" unicode="&#x2db;" horiz-adv-x="197" 
d="M153 -65l32 -42q-25 -33 -77 -33q-39 0 -62 21t-23 55q0 67 96 98l11 -34q-40 -27 -40 -50q0 -29 30 -29q13 0 33 14z" />
    <glyph glyph-name="tilde" unicode="&#x2dc;" horiz-adv-x="485" 
d="M313 649q-35 0 -75 21q-40 22 -56 22q-24 0 -33 -31l-4 -16l-85 8l6 34q16 96 101 96q33 0 73 -22t57 -22q27 0 34 31l4 16l84 -8l-5 -33q-7 -45 -33 -70.5t-68 -25.5z" />
    <glyph glyph-name="hungarumlaut" unicode="&#x2dd;" horiz-adv-x="395" 
d="M356 577l-79 -157h-78l34 157h123zM186 577l-79 -157h-78l34 157h123z" />
    <glyph glyph-name="pi" unicode="&#x3c0;" horiz-adv-x="557" 
d="M25 420h507v-95h-67v-325h-121v325h-131v-325h-120v325h-68v95z" />
    <glyph glyph-name="endash" unicode="&#x2013;" horiz-adv-x="453" 
d="M58 239v97h335v-97h-335z" />
    <glyph glyph-name="emdash" unicode="&#x2014;" horiz-adv-x="706" 
d="M58 239v97h588v-97h-588z" />
    <glyph glyph-name="quoteleft" unicode="&#x2018;" horiz-adv-x="224" 
d="M191 537q-60 -13 -69 -52q23 -5 38 -23.5t15 -43.5q0 -29 -20 -49.5t-49 -20.5t-49.5 20.5t-20.5 49.5v6q0 67 36 115.5t100 60.5z" />
    <glyph glyph-name="quoteright" unicode="&#x2019;" horiz-adv-x="225" 
d="M41 411q58 12 68 52q-23 5 -38 23.5t-15 43.5q0 29 20.5 49.5t49.5 20.5t49.5 -20.5t20.5 -49.5v-6q0 -67 -36 -115.5t-101 -60.5z" />
    <glyph glyph-name="quotesinglbase" unicode="&#x201a;" horiz-adv-x="221" 
d="M179 59v-6q0 -67 -36 -115.5t-101 -60.5l-18 63q59 14 69 52q-24 5 -39 23.5t-15 43.5q0 29 20.5 49.5t49.5 20.5t49.5 -20.5t20.5 -49.5z" />
    <glyph glyph-name="quotedblleft" unicode="&#x201c;" horiz-adv-x="406" 
d="M36 418v6q0 67 36 115.5t100 60.5l19 -63q-60 -13 -69 -52q23 -5 38 -23.5t15 -43.5q0 -29 -20 -49.5t-49 -20.5t-49.5 20.5t-20.5 49.5zM372 537q-59 -14 -68 -52q23 -5 38 -23.5t15 -43.5q0 -29 -20 -49.5t-49 -20.5t-49.5 20.5t-20.5 49.5v6q0 67 36 115.5t100 60.5z
" />
    <glyph glyph-name="quotedblright" unicode="&#x201d;" horiz-adv-x="397" 
d="M368 530v-6q0 -67 -36 -115.5t-101 -60.5l-18 63q58 12 68 52q-24 5 -38.5 23.5t-14.5 43.5q0 29 20 49.5t49 20.5t50 -20.5t21 -49.5zM41 411q58 12 68 52q-24 5 -38.5 23.5t-14.5 43.5q0 29 20 49.5t49 20.5t49.5 -20.5t20.5 -49.5v-6q0 -67 -36 -115.5t-100 -60.5z
" />
    <glyph glyph-name="quotedblbase" unicode="&#x201e;" horiz-adv-x="468" 
d="M179 59v-6q0 -67 -36 -115.5t-101 -60.5l-18 63q59 14 69 52q-24 5 -39 23.5t-15 43.5q0 29 20.5 49.5t49.5 20.5t49.5 -20.5t20.5 -49.5zM425 59v-6q0 -67 -36 -115.5t-101 -60.5l-18 63q59 14 69 52q-24 5 -39 23.5t-15 43.5q0 29 20.5 49.5t49.5 20.5t49.5 -20.5
t20.5 -49.5z" />
    <glyph glyph-name="dagger" unicode="&#x2020;" horiz-adv-x="425" 
d="M32 406v97h132v132h99v-132h130v-97h-130l-9 -250h-81l-9 250h-132z" />
    <glyph glyph-name="daggerdbl" unicode="&#x2021;" horiz-adv-x="454" 
d="M49 439v97h132v132h99v-132h130v-97h-130l-6 -105l6 -105h130v-97h-130v-132h-99v132h-132v97h132l6 105l-6 105h-132z" />
    <glyph glyph-name="bullet" unicode="&#x2022;" horiz-adv-x="325" 
d="M95 289q28 28 67 28t66 -28q28 -27 28 -66t-28 -66q-27 -27 -66 -27t-67 27q-27 27 -27 66t27 66z" />
    <glyph glyph-name="ellipsis" unicode="&#x2026;" horiz-adv-x="751" 
d="M117 143q32 0 54.5 -22t22.5 -54t-22.5 -54t-54.5 -22q-31 0 -53 22t-22 54t22 54t53 22zM321 13q-22 23 -22 54t22 53q23 23 54 23t53 -23q23 -22 23 -53t-23 -54q-22 -22 -53 -22t-54 22zM632 143q32 0 54.5 -22.5t22.5 -53.5t-22.5 -53.5t-54.5 -22.5q-31 0 -53 22
t-22 54t22 54t53 22z" />
    <glyph glyph-name="perthousand" unicode="&#x2030;" horiz-adv-x="982" 
d="M172 613q63 0 100 -43t37 -105q0 -63 -37 -106t-100 -43q-62 0 -100 44q-37 43 -37 105t37 105t100 43zM119 465q0 -78 53 -78t53 78t-53 78t-53 -78zM522 600h101l-477 -600h-102zM500 289q62 0 100 -44t38 -105t-38 -105q-37 -43 -100 -43t-100 43t-37 105t37 105
q38 44 100 44zM447 140q0 -77 53 -77t53 77q0 79 -53 79t-53 -79zM763 140q0 -77 53 -77t53 77q0 79 -53 79t-53 -79zM816 289q62 0 100 -44q37 -43 37 -105t-37 -105t-100 -43t-100 43t-37 105t37 105q38 44 100 44z" />
    <glyph glyph-name="guilsinglleft" unicode="&#x2039;" horiz-adv-x="291" 
d="M32 197v22l127 189h100v-9l-123 -186v-8l123 -188v-9h-100z" />
    <glyph glyph-name="guilsinglright" unicode="&#x203a;" horiz-adv-x="291" 
d="M259 219v-22l-126 -189h-101v9l123 188v8l-123 186v9h101z" />
    <glyph glyph-name="fraction" unicode="&#x2044;" horiz-adv-x="571" 
d="M85 0h-96l498 632h96z" />
    <glyph glyph-name="Euro" unicode="&#x20ac;" horiz-adv-x="589" 
d="M405 274v-83h-160q35 -87 133 -87q28 0 55 11t41 25l12 13l68 -92q1 -1 -5.5 -8t-22 -18.5t-35.5 -21.5q-50 -25 -114 -25q-102 0 -169.5 54t-92.5 149h-80v83h66v27q0 23 1 30h-67v82h81q25 93 92.5 146.5t168.5 53.5q50 0 94.5 -17t64.5 -38l18 -18l-68 -92
q-13 18 -50 35q-30 14 -58 14q-94 0 -132 -84h159v-82h-177q-1 -7 -1 -30q0 -21 1 -27h177z" />
    <glyph glyph-name="trademark" unicode="&#x2122;" horiz-adv-x="727" 
d="M418 281h-77v319h53l108 -141l111 141h51v-319h-76v172l-70 -90h-30l-70 90v-172zM289 600v-68h-90v-251h-76v251h-91v68h257z" />
    <glyph glyph-name="Omega" unicode="&#x2126;" horiz-adv-x="721" 
d="M47 0v105h108q-51 36 -79 92t-28 120q0 125 84 210q86 86 228 86q145 0 229 -86q84 -85 84 -210q0 -64 -28.5 -120t-79.5 -92h109v-105h-278v109q67 9 111 65q45 56 45 131q0 82 -54 136q-54 55 -138 55q-83 0 -137 -55q-53 -55 -53 -136q0 -75 44 -131t111 -65v-109
h-278z" />
    <glyph glyph-name="partialdiff" unicode="&#x2202;" horiz-adv-x="508" 
d="M253 -11q-100 0 -162 59q-61 60 -61 161q0 97 61 158q62 62 162 62q2 0 11.5 -0.5t12.5 -0.5v3q-18 21 -30 44l-143 242v11h115l201 -334q55 -96 57 -176v-9q0 -101 -61 -161q-62 -59 -163 -59zM356 210q0 56 -28 88t-75 32q-45 0 -73.5 -33t-28.5 -87q0 -55 28.5 -88.5
t73.5 -33.5q47 0 75 33.5t28 88.5z" />
    <glyph glyph-name="increment" unicode="&#x2206;" horiz-adv-x="658" 
d="M26 0v21l292 579h21l294 -579v-21h-607zM458 105l-127 282h-7l-127 -282h261z" />
    <glyph glyph-name="product" unicode="&#x220f;" horiz-adv-x="636" 
d="M577 600v-600h-121v495h-275v-495h-121v600h517z" />
    <glyph glyph-name="summation" unicode="&#x2211;" horiz-adv-x="454" 
d="M46 600h365v-105h-213l131 -166v-61l-126 -163h208v-105h-365v105l155 186v13l-155 191v105z" />
    <glyph glyph-name="minus" unicode="&#x2212;" horiz-adv-x="543" 
d="M55 250v97h434v-97h-434z" />
    <glyph glyph-name="radical" unicode="&#x221a;" horiz-adv-x="625" 
d="M639 600l-406 -792h-23l-210 399h135l46 -100q30 -71 34 -87h15l16 43q15 40 18 44l238 493h137z" />
    <glyph glyph-name="infinity" unicode="&#x221e;" horiz-adv-x="759" 
d="M209 113q-73 0 -121 50q-48 51 -48 122q0 70 48 121t121 51q49 0 89.5 -26.5t82.5 -79.5q81 106 169 106q70 0 119 -49q51 -48 51 -123q0 -70 -48 -121q-46 -51 -122 -51q-90 0 -172 105q-82 -105 -169 -105zM543 364q-51 0 -108 -77q32 -43 56 -62t52 -19q35 0 56 22.5
t21 56.5q0 33 -22 56t-55 23zM217 206q51 0 108 77q-32 42 -56 61.5t-52 19.5q-34 0 -55.5 -23.5t-21.5 -55.5q0 -33 21.5 -56t55.5 -23z" />
    <glyph glyph-name="integral" unicode="&#x222b;" horiz-adv-x="333" 
d="M107 32v485q0 62 31.5 97t93.5 35q49 0 77 -17l10 -6l-31 -89q-14 7 -31 7q-29 0 -29 -41v-485q0 -62 -32 -97t-93 -35q-50 0 -77 18l-10 5l31 89q14 -7 31 -7q29 0 29 41z" />
    <glyph glyph-name="approxequal" unicode="&#x2248;" horiz-adv-x="530" 
d="M348 155q-39 0 -84 19t-62 19q-28 0 -37 -27l-4 -15l-104 8l8 44q20 92 119 92q36 0 84 -20q45 -19 62 -19q28 0 37 27l4 15l104 -7l-8 -45q-19 -91 -119 -91zM348 351q-39 0 -84 19q-48 20 -62 20q-28 0 -37 -27l-4 -15l-104 7l8 45q19 91 119 91q39 0 84 -19t62 -19
q28 0 37 27l4 15l104 -8l-8 -44q-20 -92 -119 -92z" />
    <glyph glyph-name="notequal" unicode="&#x2260;" horiz-adv-x="487" 
d="M49 336v98h200l42 111l81 -28l-31 -83h97v-98h-134l-38 -102h172v-98h-209l-41 -109l-81 28l30 81h-88v98h125l38 102h-163z" />
    <glyph glyph-name="lessequal" unicode="&#x2264;" horiz-adv-x="391" 
d="M319 265l-69 -72l-198 188v21l198 192l70 -72l-138 -131zM349 148v-98h-303v98h303z" />
    <glyph glyph-name="greaterequal" unicode="&#x2265;" horiz-adv-x="391" 
d="M142 193l-70 72l136 126l-137 131l70 72l198 -192v-21zM42 50v98h302v-98h-302z" />
    <glyph glyph-name="lozenge" unicode="&#x25ca;" horiz-adv-x="495" 
d="M289 600l175 -300l-175 -300h-83l-175 300l175 300h83zM164 300l75 -142h16l75 142l-75 142h-16z" />
    <glyph glyph-name="NULL" horiz-adv-x="0" 
 />
    <glyph glyph-name="CR.001" horiz-adv-x="333" 
 />
    </font>
</defs>
</svg>
