<?xml version="1.0" standalone="no"?>
<!DOCTYPE svg PUBLIC "-//W3C//DTD SVG 1.1//EN" "http://www.w3.org/Graphics/SVG/1.1/DTD/svg11.dtd" >
<svg xmlns="http://www.w3.org/2000/svg" width="100%" height="100%">
<metadata>
Created by FontXChange 20110222 at Fri Mar  6 10:51:40 2015
 By Bradley Siefert
Copyright (c) 2006 The Hoefler Type Foundry, Inc., dba Hoefler &#38; Frere-Jones. All Rights Reserved.
</metadata>
<defs>
<font id="Verlag-Light" horiz-adv-x="474" >
  <font-face 
    font-family="Verlag Light"
    font-weight="300"
    font-stretch="normal"
    units-per-em="1000"
    panose-1="0 0 0 0 0 0 0 0 0 0"
    ascent="800"
    descent="-200"
    x-height="418"
    cap-height="733"
    bbox="-73 -262 1099 1093"
    underline-thickness="50"
    underline-position="-50"
    unicode-range="U+0020-2212"
  />
<missing-glyph horiz-adv-x="500" 
 />
    <glyph glyph-name="f_f_i" unicode="ffi" horiz-adv-x="743" 
d="M307 730l-10 -48c-14 5 -35 8 -50 8c-66 0 -98 -36 -98 -128v-144h124v-49h-124v-369h-55v369h-70v13l70 39v134c0 123 54 185 148 185c22 0 45 -2 65 -10zM583 730l-10 -48c-14 5 -34 8 -49 8c-67 0 -99 -36 -99 -128v-144h124v-49h-124v-369h-55v369h-69v13l69 39v134
c0 123 54 185 149 185c22 0 44 -2 64 -10zM689 573c0 -22 -18 -40 -40 -40c-23 0 -40 18 -40 40s17 41 40 41c22 0 40 -19 40 -41zM677 0h-56v418h56v-418z" />
    <glyph glyph-name="f_f_l" unicode="ffl" horiz-adv-x="745" 
d="M307 730l-10 -48c-14 5 -35 8 -50 8c-66 0 -98 -36 -98 -128v-144h124v-49h-124v-369h-55v369h-70v13l70 39v134c0 123 54 185 148 185c22 0 45 -2 65 -10zM583 730l-10 -48c-14 5 -34 8 -49 8c-67 0 -99 -36 -99 -128v-144h124v-49h-124v-369h-55v369h-69v13l69 39v134
c0 123 54 185 149 185c22 0 44 -2 64 -10zM677 0h-56v733h56v-733z" />
    <glyph glyph-name="f_f" unicode="ff" horiz-adv-x="553" 
d="M307 730l-10 -48c-14 5 -35 8 -50 8c-66 0 -98 -36 -98 -128v-144h124v-49h-124v-369h-55v369h-70v13l70 39v134c0 123 54 185 148 185c22 0 45 -2 65 -10zM583 730l-10 -48c-14 5 -34 8 -49 8c-67 0 -99 -36 -99 -128v-144h124v-49h-124v-369h-55v369h-69v13l69 39v134
c0 123 54 185 149 185c22 0 44 -2 64 -10z" />
    <glyph glyph-name="fi" unicode="fi" horiz-adv-x="466" 
d="M412 573c0 -22 -17 -40 -40 -40c-22 0 -40 18 -40 40s18 41 40 41c23 0 40 -19 40 -41zM307 730l-10 -48c-14 5 -35 8 -50 8c-66 0 -98 -36 -98 -128v-144h124v-49h-124v-369h-55v369h-70v13l70 39v134c0 123 54 185 148 185c22 0 45 -2 65 -10zM400 0h-55v418h55v-418z
" />
    <glyph glyph-name="fl" unicode="fl" horiz-adv-x="468" 
d="M307 730l-10 -48c-14 5 -35 8 -50 8c-66 0 -98 -36 -98 -128v-144h124v-49h-124v-369h-55v369h-70v13l70 39v134c0 123 54 185 148 185c22 0 45 -2 65 -10zM400 0h-55v733h55v-733z" />
    <glyph glyph-name=".notdef" horiz-adv-x="500" 
 />
    <glyph glyph-name="A" unicode="A" horiz-adv-x="696" 
d="M674 0h-60l-95 224h-344l-94 -224h-59l321 745h10zM498 272l-151 359l-151 -359h302z" />
    <glyph glyph-name="B" unicode="B" horiz-adv-x="565" 
d="M525 199c0 -107 -91 -206 -267 -206c-59 0 -117 6 -171 12v723c54 7 105 12 164 12c175 0 256 -87 256 -186c0 -88 -53 -147 -152 -174c116 -21 170 -93 170 -181zM450 548c0 84 -62 144 -195 144c-39 0 -77 -3 -112 -9v-281c30 -2 60 -2 91 -2c149 0 216 66 216 148z
M467 202c0 89 -76 153 -229 153c-26 0 -64 0 -95 -2v-302c36 -5 80 -9 121 -9c133 0 203 70 203 160z" />
    <glyph glyph-name="C" unicode="C" horiz-adv-x="740" 
d="M695 70c-66 -44 -148 -80 -253 -80c-212 0 -384 146 -384 375s175 380 384 380c106 0 189 -35 255 -80l-25 -47c-67 44 -146 75 -233 75c-180 0 -320 -129 -320 -327s143 -324 323 -324c87 0 166 31 233 74z" />
    <glyph glyph-name="D" unicode="D" horiz-adv-x="740" 
d="M682 373c0 -202 -141 -380 -413 -380c-70 0 -137 6 -182 12v723c45 6 109 12 178 12c273 0 417 -179 417 -367zM622 373c0 175 -125 318 -356 318c-47 0 -94 -3 -123 -8v-633c31 -5 74 -8 128 -8c233 0 351 145 351 331z" />
    <glyph glyph-name="E" unicode="E" horiz-adv-x="563" 
d="M501 0h-414v733h414v-50h-358v-286h323v-50h-323v-296h358v-51z" />
    <glyph glyph-name="F" unicode="F" horiz-adv-x="543" 
d="M501 683h-358v-299h323v-50h-323v-334h-56v733h414v-50z" />
    <glyph glyph-name="G" unicode="G" horiz-adv-x="779" 
d="M447 349h265v-269c-72 -57 -158 -90 -266 -90c-199 0 -388 139 -388 376c0 235 189 379 381 379c118 0 195 -36 271 -90l-30 -44c-69 50 -148 83 -241 84c-181 0 -320 -136 -320 -329c0 -198 150 -326 329 -326c81 0 150 23 208 64v193h-209v52z" />
    <glyph glyph-name="G.alt" horiz-adv-x="828" 
d="M421 343h360c0 -203 -147 -353 -344 -353s-379 142 -379 376c0 235 188 379 381 379c118 0 195 -36 271 -90l-30 -44c-70 50 -149 83 -241 84c-181 0 -320 -136 -320 -329c0 -197 147 -326 320 -326c151 0 271 108 282 253h-300v50z" />
    <glyph glyph-name="H" unicode="H" horiz-adv-x="707" 
d="M620 0h-56v348h-421v-348h-56v733h56v-335h421v335h56v-733z" />
    <glyph glyph-name="I" unicode="I" horiz-adv-x="238" 
d="M147 0h-56v733h56v-733z" />
    <glyph glyph-name="J" unicode="J" horiz-adv-x="465" 
d="M382 733v-515c0 -141 -74 -230 -202 -230c-69 0 -122 23 -163 56l30 43c34 -27 80 -47 134 -47c91 0 145 59 145 179v514h56z" />
    <glyph glyph-name="K" unicode="K" horiz-adv-x="593" 
d="M572 0h-74l-355 362v-362h-56v733h56v-341l343 341h72l-361 -356z" />
    <glyph glyph-name="L" unicode="L" horiz-adv-x="513" 
d="M501 0h-414v733h56v-682h358v-51z" />
    <glyph glyph-name="M" unicode="M" horiz-adv-x="847" 
d="M771 0h-57l-12 586l-274 -481h-9l-274 482l-12 -587h-57l25 742l13 2l312 -555l307 555l13 -2z" />
    <glyph glyph-name="M.alt" horiz-adv-x="847" 
d="M771 0h-57l-12 607l-274 -427h-10l-273 426l-12 -606h-57l25 742l13 2l312 -488l307 488l13 -2z" />
    <glyph glyph-name="N" unicode="N" horiz-adv-x="727" 
d="M640 -9l-10 -2l-488 622v-611h-55v741l13 3l484 -615v604h56v-742z" />
    <glyph glyph-name="O" unicode="O" horiz-adv-x="842" 
d="M784 366c0 -217 -163 -376 -365 -376c-201 0 -361 159 -361 376s163 378 365 378c201 0 361 -161 361 -378zM723 366c0 185 -126 327 -302 327s-302 -142 -302 -327c0 -184 126 -326 302 -326s302 142 302 326z" />
    <glyph glyph-name="P" unicode="P" horiz-adv-x="555" 
d="M520 505c0 -147 -107 -250 -287 -250c-27 0 -65 3 -90 6v-261h-56v728c48 6 97 10 151 10c189 0 282 -108 282 -233zM460 502c0 98 -74 186 -216 186c-35 0 -71 -3 -101 -7v-370c26 -3 62 -7 92 -7c147 0 225 83 225 198z" />
    <glyph glyph-name="Q" unicode="Q" horiz-adv-x="842" 
d="M783 24l-35 -41s-75 70 -98 90c-63 -52 -143 -83 -231 -83c-202 0 -361 159 -361 376s163 378 364 378c202 0 361 -161 361 -378c0 -102 -36 -191 -95 -257c22 -19 95 -85 95 -85zM723 366c0 185 -127 327 -302 327c-176 0 -302 -142 -302 -327c0 -184 126 -326 302 -326
c74 0 139 26 189 68c1 0 -153 137 -153 137l35 40l155 -139c48 57 76 133 76 220z" />
    <glyph glyph-name="R" unicode="R" horiz-adv-x="590" 
d="M565 0h-68l-200 298c-20 -3 -41 -4 -64 -4c-26 0 -65 2 -89 4v-298h-57v726c54 7 100 12 157 12c181 0 278 -89 278 -217c0 -100 -61 -179 -170 -211zM462 518c0 98 -73 170 -212 170c-37 0 -71 -3 -106 -9v-331c25 -3 62 -6 92 -6c147 0 226 69 226 176z" />
    <glyph glyph-name="S" unicode="S" horiz-adv-x="517" 
d="M464 189c0 -120 -100 -201 -224 -201c-78 0 -148 26 -212 68l27 49c59 -40 124 -66 190 -66c97 0 162 62 162 143c0 85 -57 122 -161 169c-113 50 -182 102 -182 203c0 106 89 191 220 191c64 0 122 -21 165 -50l-27 -47c-37 26 -88 46 -143 46c-98 0 -159 -60 -159 -136
c0 -79 62 -117 151 -158c126 -57 193 -106 193 -211z" />
    <glyph glyph-name="T" unicode="T" horiz-adv-x="614" 
d="M584 683h-248v-683h-57v683h-249v50h554v-50z" />
    <glyph glyph-name="U" unicode="U" horiz-adv-x="708" 
d="M628 266c0 -172 -109 -276 -275 -276c-170 0 -272 99 -272 276v467h56v-466c0 -150 85 -226 216 -226s218 78 218 226v466h57v-467z" />
    <glyph glyph-name="V" unicode="V" horiz-adv-x="687" 
d="M668 733l-319 -745h-11l-319 745h62l264 -628l262 628h61z" />
    <glyph glyph-name="W" unicode="W" horiz-adv-x="952" 
d="M918 733l-192 -743l-14 -2l-237 627l-235 -627l-14 2l-192 743h56l154 -601l227 605h10l229 -603l153 599h55z" />
    <glyph glyph-name="X" unicode="X" horiz-adv-x="678" 
d="M640 0h-67l-235 329l-235 -329h-66l271 369l-267 364h68l230 -323l231 323h66l-266 -363z" />
    <glyph glyph-name="Y" unicode="Y" horiz-adv-x="626" 
d="M597 733l-256 -404v-329h-56v330l-256 403h63l223 -356l220 356h62z" />
    <glyph glyph-name="Z" unicode="Z" horiz-adv-x="631" 
d="M580 723l-446 -672h441v-51h-525l-4 10l445 673h-420v50h504z" />
    <glyph glyph-name="a" unicode="a" horiz-adv-x="433" 
d="M376 0h-52v45c-31 -31 -79 -53 -132 -53c-85 0 -154 47 -154 131c0 79 69 131 156 131c54 0 91 -15 127 -32v38c0 79 -34 117 -121 117c-35 0 -77 -9 -109 -23l-11 48c38 14 88 24 126 24c117 0 170 -56 170 -166v-260zM321 93v82c-41 23 -73 35 -120 35
c-64 0 -110 -30 -110 -87c0 -56 45 -85 112 -85c50 0 91 23 118 55z" />
    <glyph glyph-name="b" unicode="b" horiz-adv-x="506" 
d="M463 211c0 -123 -92 -219 -205 -219c-56 0 -109 24 -142 57v-49h-53v733h55v-363c33 31 86 56 145 56c114 0 200 -90 200 -215zM408 210c0 96 -62 168 -153 168c-57 0 -105 -26 -137 -63v-211c30 -36 77 -64 133 -64c90 0 157 70 157 170z" />
    <glyph glyph-name="c" unicode="c" horiz-adv-x="424" 
d="M400 34c-38 -24 -87 -42 -139 -42c-128 0 -219 95 -219 215s91 219 219 219c52 0 101 -18 139 -42l-25 -43c-33 21 -73 36 -117 36c-94 0 -162 -68 -162 -168c0 -98 73 -168 164 -168c45 0 84 15 118 36z" />
    <glyph glyph-name="d" unicode="d" horiz-adv-x="506" 
d="M443 0h-53v51c-34 -35 -84 -59 -144 -59c-118 0 -203 90 -203 215c0 123 92 219 205 219c60 0 107 -22 140 -52v359h55v-733zM388 105v210c-30 36 -79 63 -137 63c-88 0 -153 -70 -153 -170c0 -97 63 -168 155 -168c57 0 104 27 135 65z" />
    <glyph glyph-name="e" unicode="e" horiz-adv-x="461" 
d="M422 224c0 -9 0 -17 -2 -27h-323c5 -89 56 -156 171 -156c39 0 81 10 119 25c0 0 11 -48 11 -47c-42 -16 -92 -27 -133 -27c-148 0 -223 95 -223 216c0 118 75 218 199 218c118 0 181 -88 181 -202zM99 241h270c-5 77 -46 137 -132 137c-80 0 -129 -55 -138 -137z" />
    <glyph glyph-name="f" unicode="f" horiz-adv-x="277" 
d="M307 730l-10 -48c-14 5 -35 8 -50 8c-66 0 -98 -36 -98 -128v-144h124v-49h-124v-369h-55v369h-70v13l70 39v134c0 123 54 185 148 185c22 0 45 -2 65 -10z" />
    <glyph glyph-name="g" unicode="g" horiz-adv-x="506" 
d="M443 -41c0 -126 -63 -185 -175 -185c-49 0 -93 9 -139 24l10 51c44 -17 85 -24 123 -24c87 0 126 41 126 130v92c-33 -31 -82 -55 -142 -55c-118 0 -203 90 -203 215c0 123 92 219 205 219c60 0 111 -25 142 -57v49h53v-459zM388 103v210c-30 36 -80 65 -136 65
c-90 0 -154 -71 -154 -171c0 -96 63 -168 158 -168c53 0 101 26 132 64z" />
    <glyph glyph-name="h" unicode="h" horiz-adv-x="466" 
d="M413 0h-56v269c0 70 -30 109 -97 109c-53 0 -109 -37 -147 -80v-298h-55v733h55v-386c41 44 98 79 158 79c96 0 142 -61 142 -145v-281z" />
    <glyph glyph-name="i" unicode="i" horiz-adv-x="188" 
d="M134 573c0 -22 -18 -40 -40 -40c-23 0 -40 18 -40 40s17 41 40 41c22 0 40 -19 40 -41zM122 0h-56v418h56v-418z" />
    <glyph glyph-name="j" unicode="j" horiz-adv-x="189" 
d="M136 573c0 -22 -17 -40 -40 -40c-22 0 -40 18 -40 40s18 41 40 41c23 0 40 -19 40 -41zM124 418v-517c0 -87 -37 -125 -107 -125c-18 0 -40 3 -60 7l7 48c15 -3 27 -5 42 -5c41 0 63 20 63 72v520h55z" />
    <glyph glyph-name="k" unicode="k" horiz-adv-x="398" 
d="M396 0h-70l-208 206v-206h-55v733h55v-500l198 185h70l-217 -197z" />
    <glyph glyph-name="l" unicode="l" horiz-adv-x="187" 
d="M121 0h-55v733h55v-733z" />
    <glyph glyph-name="m" unicode="m" horiz-adv-x="748" 
d="M689 0h-56v274c0 67 -27 103 -87 103c-53 0 -103 -33 -142 -81v-296h-56v272c0 70 -26 106 -88 106c-56 0 -104 -37 -142 -81v-297h-55v418h53v-71c40 41 94 79 160 79c60 0 99 -32 115 -86c41 49 103 85 170 85c77 0 128 -48 128 -142v-283z" />
    <glyph glyph-name="n" unicode="n" 
d="M415 0h-56v269c0 70 -28 109 -96 109c-53 0 -106 -37 -145 -80v-298h-55v418h53v-72c41 44 99 80 160 80c96 0 139 -61 139 -145v-281z" />
    <glyph glyph-name="o" unicode="o" horiz-adv-x="500" 
d="M458 210c0 -121 -86 -218 -208 -218c-123 0 -207 96 -207 217c0 120 85 217 208 217c122 0 207 -96 207 -216zM402 209c0 99 -61 170 -152 170s-152 -72 -152 -170s61 -170 152 -170s152 72 152 170z" />
    <glyph glyph-name="p" unicode="p" horiz-adv-x="506" 
d="M463 210c0 -126 -88 -218 -209 -218c-52 0 -99 18 -136 43v-251h-55v634h53v-51c34 33 84 59 147 59c113 0 200 -91 200 -216zM408 209c0 96 -63 169 -153 169c-58 0 -105 -26 -137 -63v-220c33 -33 80 -56 136 -56c89 0 154 68 154 170z" />
    <glyph glyph-name="q" unicode="q" horiz-adv-x="506" 
d="M443 -216h-55v262c-33 -30 -80 -54 -139 -54c-118 0 -206 88 -206 215c0 125 95 219 208 219c60 0 108 -24 139 -54v46h53v-634zM388 104v211c-30 35 -80 63 -136 63c-88 0 -154 -70 -154 -170c0 -99 62 -168 160 -168c53 0 100 27 130 64z" />
    <glyph glyph-name="r" unicode="r" horiz-adv-x="285" 
d="M268 373c-59 -2 -118 -31 -150 -87v-286h-55v418h53v-79c38 54 93 88 152 88v-54z" />
    <glyph glyph-name="s" unicode="s" horiz-adv-x="354" 
d="M311 116c0 -65 -53 -124 -134 -124c-56 0 -104 21 -146 52l27 40c35 -27 77 -46 117 -46c54 0 85 29 85 71c0 100 -207 69 -207 201c0 60 50 116 134 116c44 0 87 -17 121 -40l-25 -42c-31 22 -61 36 -97 36c-56 0 -82 -30 -82 -65c0 -95 207 -65 207 -199z" />
    <glyph glyph-name="t" unicode="t" horiz-adv-x="293" 
d="M275 369h-132v-262c0 -45 24 -66 70 -66c16 0 30 2 45 5l5 -47c-22 -4 -41 -7 -63 -7c-72 0 -111 37 -111 119v258h-71v13l71 39v90l54 40v-133h132v-49z" />
    <glyph glyph-name="u" unicode="u" 
d="M411 0h-53v69c-37 -39 -98 -77 -158 -77c-97 0 -141 61 -141 145v281h56v-269c0 -70 30 -109 97 -109c53 0 105 35 144 78v300h55v-418z" />
    <glyph glyph-name="v" unicode="v" horiz-adv-x="433" 
d="M425 418l-206 -430h-10l-201 430h61l147 -333l150 333h59z" />
    <glyph glyph-name="w" unicode="w" horiz-adv-x="611" 
d="M593 418l-140 -430h-10l-134 324l-137 -324h-10l-141 430h60l94 -314l128 314h10l131 -314l90 314h59z" />
    <glyph glyph-name="x" unicode="x" horiz-adv-x="393" 
d="M381 0h-62l-121 169l-123 -169h-59l154 209l-153 209h63l120 -168l119 168h60l-152 -207z" />
    <glyph glyph-name="y" unicode="y" horiz-adv-x="427" 
d="M420 418l-295 -634h-56l118 244l-179 390h61l145 -334l146 334h60z" />
    <glyph glyph-name="z" unicode="z" horiz-adv-x="397" 
d="M376 408l-276 -360h270v-48h-352l-4 9l276 361h-256v48h338z" />
    <glyph glyph-name="Aacute" unicode="&#xc1;" horiz-adv-x="696" 
d="M674 0h-60l-95 224h-344l-94 -224h-59l321 745h10zM498 272l-151 359l-151 -359h302zM513 894l-192 -99l-18 31l181 123z" />
    <glyph glyph-name="aacute" unicode="&#xe1;" horiz-adv-x="433" 
d="M376 0h-52v45c-31 -31 -79 -53 -132 -53c-85 0 -154 47 -154 131c0 79 69 131 156 131c54 0 91 -15 127 -32v38c0 79 -34 117 -121 117c-35 0 -77 -9 -109 -23l-11 48c38 14 88 24 126 24c117 0 170 -56 170 -166v-260zM321 93v82c-41 23 -73 35 -120 35
c-64 0 -110 -30 -110 -87c0 -56 45 -85 112 -85c50 0 91 23 118 55zM385 574l-192 -99l-18 31l181 123z" />
    <glyph glyph-name="Abreve" unicode="&#x102;" horiz-adv-x="696" 
d="M674 0h-60l-95 224h-344l-94 -224h-59l321 745h10zM498 272l-151 359l-151 -359h302zM470 925c0 -63 -45 -118 -122 -118c-76 0 -121 55 -122 118l51 5c1 -49 27 -79 71 -79s70 30 71 79z" />
    <glyph glyph-name="abreve" unicode="&#x103;" horiz-adv-x="433" 
d="M376 0h-52v45c-31 -31 -79 -53 -132 -53c-85 0 -154 47 -154 131c0 79 69 131 156 131c54 0 91 -15 127 -32v38c0 79 -34 117 -121 117c-35 0 -77 -9 -109 -23l-11 48c38 14 88 24 126 24c117 0 170 -56 170 -166v-260zM321 93v82c-41 23 -73 35 -120 35
c-64 0 -110 -30 -110 -87c0 -56 45 -85 112 -85c50 0 91 23 118 55zM342 605c0 -63 -45 -118 -122 -118c-76 0 -121 55 -122 118l51 5c1 -49 27 -79 71 -79s70 30 71 79z" />
    <glyph glyph-name="Acircumflex" unicode="&#xc2;" horiz-adv-x="696" 
d="M674 0h-60l-95 224h-344l-94 -224h-59l321 745h10zM498 272l-151 359l-151 -359h302zM483 807h-59l-79 98l-75 -98h-58l121 149h30z" />
    <glyph glyph-name="acircumflex" unicode="&#xe2;" horiz-adv-x="433" 
d="M376 0h-52v45c-31 -31 -79 -53 -132 -53c-85 0 -154 47 -154 131c0 79 69 131 156 131c54 0 91 -15 127 -32v38c0 79 -34 117 -121 117c-35 0 -77 -9 -109 -23l-11 48c38 14 88 24 126 24c117 0 170 -56 170 -166v-260zM321 93v82c-41 23 -73 35 -120 35
c-64 0 -110 -30 -110 -87c0 -56 45 -85 112 -85c50 0 91 23 118 55zM355 487h-59l-79 98l-75 -98h-58l121 149h30z" />
    <glyph glyph-name="Adieresis" unicode="&#xc4;" horiz-adv-x="696" 
d="M674 0h-60l-95 224h-344l-94 -224h-59l321 745h10zM498 272l-151 359l-151 -359h302zM475 863c0 -23 -19 -42 -42 -42c-24 0 -43 19 -43 42s19 43 43 43c23 0 42 -20 42 -43zM304 863c0 -23 -19 -42 -42 -42s-42 19 -42 42s19 43 42 43s42 -20 42 -43z" />
    <glyph glyph-name="adieresis" unicode="&#xe4;" horiz-adv-x="433" 
d="M376 0h-52v45c-31 -31 -79 -53 -132 -53c-85 0 -154 47 -154 131c0 79 69 131 156 131c54 0 91 -15 127 -32v38c0 79 -34 117 -121 117c-35 0 -77 -9 -109 -23l-11 48c38 14 88 24 126 24c117 0 170 -56 170 -166v-260zM321 93v82c-41 23 -73 35 -120 35
c-64 0 -110 -30 -110 -87c0 -56 45 -85 112 -85c50 0 91 23 118 55zM348 543c0 -23 -19 -42 -42 -42c-24 0 -43 19 -43 42s19 43 43 43c23 0 42 -20 42 -43zM177 543c0 -23 -19 -42 -42 -42s-42 19 -42 42s19 43 42 43s42 -20 42 -43z" />
    <glyph glyph-name="Agrave" unicode="&#xc0;" horiz-adv-x="696" 
d="M674 0h-60l-95 224h-344l-94 -224h-59l321 745h10zM498 272l-151 359l-151 -359h302zM389 825l-19 -30l-192 99l31 54z" />
    <glyph glyph-name="agrave" unicode="&#xe0;" horiz-adv-x="433" 
d="M376 0h-52v45c-31 -31 -79 -53 -132 -53c-85 0 -154 47 -154 131c0 79 69 131 156 131c54 0 91 -15 127 -32v38c0 79 -34 117 -121 117c-35 0 -77 -9 -109 -23l-11 48c38 14 88 24 126 24c117 0 170 -56 170 -166v-260zM321 93v82c-41 23 -73 35 -120 35
c-64 0 -110 -30 -110 -87c0 -56 45 -85 112 -85c50 0 91 23 118 55zM262 505l-19 -30l-192 99l31 54z" />
    <glyph glyph-name="Amacron" unicode="&#x100;" horiz-adv-x="696" 
d="M674 0h-60l-95 224h-344l-94 -224h-59l321 745h10zM498 272l-151 359l-151 -359h302zM492 832h-287v48h287v-48z" />
    <glyph glyph-name="amacron" unicode="&#x101;" horiz-adv-x="433" 
d="M376 0h-52v45c-31 -31 -79 -53 -132 -53c-85 0 -154 47 -154 131c0 79 69 131 156 131c54 0 91 -15 127 -32v38c0 79 -34 117 -121 117c-35 0 -77 -9 -109 -23l-11 48c38 14 88 24 126 24c117 0 170 -56 170 -166v-260zM321 93v82c-41 23 -73 35 -120 35
c-64 0 -110 -30 -110 -87c0 -56 45 -85 112 -85c50 0 91 23 118 55zM364 512h-287v48h287v-48z" />
    <glyph glyph-name="Aogonek" unicode="&#x104;" horiz-adv-x="696" 
d="M694 -169c-23 -31 -49 -50 -87 -50c-47 -1 -78 30 -78 76c1 45 27 85 84 145l-94 222h-344l-94 -224h-59l321 745h10l321 -745h-17c-49 -53 -81 -98 -81 -137c0 -27 16 -43 38 -43c23 0 39 12 56 34zM498 272l-151 359l-151 -359h302z" />
    <glyph glyph-name="aogonek" unicode="&#x105;" horiz-adv-x="433" 
d="M402 -169c-23 -31 -49 -50 -87 -50c-47 -1 -78 30 -78 76c1 45 28 86 87 147v41c-31 -31 -79 -53 -132 -53c-85 0 -154 47 -154 131c0 79 69 131 156 131c54 0 91 -15 127 -32v38c0 79 -34 117 -121 117c-35 0 -77 -9 -109 -23l-11 48c38 14 88 24 126 24
c117 0 170 -56 170 -166v-260h-11c-49 -53 -81 -98 -81 -137c0 -27 16 -43 38 -43c23 0 39 12 56 34zM321 93v82c-41 23 -73 35 -120 35c-64 0 -110 -30 -110 -87c0 -56 45 -85 112 -85c50 0 91 23 118 55z" />
    <glyph glyph-name="Aring" unicode="&#xc5;" horiz-adv-x="696" 
d="M451 811c0 -50 -33 -91 -84 -100l307 -711h-60l-95 224h-344l-94 -224h-59l306 712c-50 8 -83 50 -83 99c0 56 42 101 103 101c62 0 103 -45 103 -101zM498 272l-151 359l-151 -359h302zM410 812c0 38 -26 65 -62 65c-35 0 -61 -27 -61 -65c0 -39 26 -66 61 -66
c36 0 62 27 62 66z" />
    <glyph glyph-name="aring" unicode="&#xe5;" horiz-adv-x="433" 
d="M376 0h-52v45c-31 -31 -79 -53 -132 -53c-85 0 -154 47 -154 131c0 79 69 131 156 131c54 0 91 -15 127 -32v38c0 79 -34 117 -121 117c-35 0 -77 -9 -109 -23l-11 48c38 14 88 24 126 24c117 0 170 -56 170 -166v-260zM323 586c0 -56 -41 -101 -103 -101
c-61 0 -103 45 -103 101c0 55 42 101 103 101c62 0 103 -46 103 -101zM321 93v82c-41 23 -73 35 -120 35c-64 0 -110 -30 -110 -87c0 -56 45 -85 112 -85c50 0 91 23 118 55zM282 586c0 38 -26 66 -62 66c-35 0 -61 -27 -61 -66c0 -38 26 -66 61 -66c36 0 62 28 62 66z" />
    <glyph glyph-name="Aringacute" unicode="&#x1fa;" horiz-adv-x="696" 
d="M503 1038l-192 -99l-18 31l181 123zM451 811c0 -50 -33 -91 -84 -100l307 -711h-60l-95 224h-344l-94 -224h-59l306 712c-50 8 -83 50 -83 99c0 56 42 101 103 101c62 0 103 -45 103 -101zM498 272l-151 359l-151 -359h302zM410 812c0 38 -26 65 -62 65
c-35 0 -61 -27 -61 -65c0 -39 26 -66 61 -66c36 0 62 27 62 66z" />
    <glyph glyph-name="aringacute" unicode="&#x1fb;" horiz-adv-x="433" 
d="M376 0h-52v45c-31 -31 -79 -53 -132 -53c-85 0 -154 47 -154 131c0 79 69 131 156 131c54 0 91 -15 127 -32v38c0 79 -34 117 -121 117c-35 0 -77 -9 -109 -23l-11 48c38 14 88 24 126 24c117 0 170 -56 170 -166v-260zM321 586c0 -56 -41 -101 -103 -101
c-61 0 -103 45 -103 101c0 55 42 101 103 101c62 0 103 -46 103 -101zM321 93v82c-41 23 -73 35 -120 35c-64 0 -110 -30 -110 -87c0 -56 45 -85 112 -85c50 0 91 23 118 55zM280 586c0 38 -26 66 -62 66c-35 0 -61 -27 -61 -66c0 -38 26 -66 61 -66c36 0 62 28 62 66z
M383 829l-192 -99l-18 31l181 123z" />
    <glyph glyph-name="Atilde" unicode="&#xc3;" horiz-adv-x="696" 
d="M674 0h-60l-95 224h-344l-94 -224h-59l321 745h10zM498 272l-151 359l-151 -359h302zM500 871c-32 -38 -63 -55 -94 -54c-21 0 -42 10 -62 22c-19 12 -37 21 -52 22c-22 0 -41 -12 -65 -41l-28 34c32 38 63 55 94 54c21 0 42 -10 61 -22c20 -12 38 -21 53 -22
c22 0 41 12 65 41z" />
    <glyph glyph-name="atilde" unicode="&#xe3;" horiz-adv-x="433" 
d="M376 0h-52v45c-31 -31 -79 -53 -132 -53c-85 0 -154 47 -154 131c0 79 69 131 156 131c54 0 91 -15 127 -32v38c0 79 -34 117 -121 117c-35 0 -77 -9 -109 -23l-11 48c38 14 88 24 126 24c117 0 170 -56 170 -166v-260zM321 93v82c-41 23 -73 35 -120 35
c-64 0 -110 -30 -110 -87c0 -56 45 -85 112 -85c50 0 91 23 118 55zM372 551c-32 -38 -63 -55 -94 -54c-21 0 -42 10 -62 22c-19 12 -37 21 -52 22c-22 0 -41 -12 -65 -41l-28 34c32 38 63 55 94 54c21 0 42 -10 61 -22c20 -12 38 -21 53 -22c22 0 41 12 65 41z" />
    <glyph glyph-name="AE" unicode="&#xc6;" horiz-adv-x="1020" 
d="M958 0h-414v241h-288l-171 -241h-66l527 733h412v-50h-357v-286h322v-50h-322v-296h357v-51zM544 289v357l-254 -357h254z" />
    <glyph glyph-name="ae" unicode="&#xe6;" horiz-adv-x="738" 
d="M321 222v38c0 79 -33 117 -121 117c-35 0 -77 -9 -109 -23l-11 48c38 14 88 24 127 24c85 0 132 -30 151 -90c32 54 88 90 161 90c117 0 180 -86 180 -200c0 -9 0 -19 -1 -29h-323c5 -89 56 -156 171 -156c39 0 81 10 118 25c0 0 12 -48 12 -47c-42 -16 -92 -27 -133 -27
c-97 0 -161 42 -191 104c-32 -68 -97 -104 -169 -104c-78 0 -145 48 -145 131c0 78 69 131 155 131c54 0 94 -15 128 -32zM647 241c-5 77 -46 137 -132 137c-80 0 -129 -55 -138 -137h270zM325 168c-33 25 -77 42 -124 42c-64 0 -110 -30 -110 -87c0 -55 41 -85 103 -85
c57 0 119 35 131 130z" />
    <glyph glyph-name="AEacute" unicode="&#x1fc;" horiz-adv-x="1020" 
d="M958 0h-414v241h-288l-171 -241h-66l527 733h412v-50h-357v-286h322v-50h-322v-296h357v-51zM544 289v357l-254 -357h254zM811 894l-192 -99l-18 31l181 123z" />
    <glyph glyph-name="aeacute" unicode="&#x1fd;" horiz-adv-x="738" 
d="M534 574l-192 -99l-18 31l181 123zM321 222v38c0 79 -33 117 -121 117c-35 0 -77 -9 -109 -23l-11 48c38 14 88 24 127 24c85 0 132 -30 151 -90c32 54 88 90 161 90c117 0 180 -86 180 -200c0 -9 0 -19 -1 -29h-323c5 -89 56 -156 171 -156c39 0 81 10 118 25
c0 0 12 -48 12 -47c-42 -16 -92 -27 -133 -27c-97 0 -161 42 -191 104c-32 -68 -97 -104 -169 -104c-78 0 -145 48 -145 131c0 78 69 131 155 131c54 0 94 -15 128 -32zM647 241c-5 77 -46 137 -132 137c-80 0 -129 -55 -138 -137h270zM325 168c-33 25 -77 42 -124 42
c-64 0 -110 -30 -110 -87c0 -55 41 -85 103 -85c57 0 119 35 131 130z" />
    <glyph glyph-name="Cacute" unicode="&#x106;" horiz-adv-x="740" 
d="M591 894l-192 -99l-18 31l181 123zM695 70c-66 -44 -148 -80 -253 -80c-212 0 -384 146 -384 375s175 380 384 380c106 0 189 -35 255 -80l-25 -47c-67 44 -146 75 -233 75c-180 0 -320 -129 -320 -327s143 -324 323 -324c87 0 166 31 233 74z" />
    <glyph glyph-name="cacute" unicode="&#x107;" horiz-adv-x="424" 
d="M413 574l-192 -99l-18 31l181 123zM400 34c-38 -24 -87 -42 -139 -42c-128 0 -219 95 -219 215s91 219 219 219c52 0 101 -18 139 -42l-25 -43c-33 21 -73 36 -117 36c-94 0 -162 -68 -162 -168c0 -98 73 -168 164 -168c45 0 84 15 118 36z" />
    <glyph glyph-name="Ccaron" unicode="&#x10c;" horiz-adv-x="740" 
d="M561 951l-122 -149h-29l-120 149h59l78 -98l76 98h58zM695 70c-66 -44 -148 -80 -253 -80c-212 0 -384 146 -384 375s175 380 384 380c106 0 189 -35 255 -80l-25 -47c-67 44 -146 75 -233 75c-180 0 -320 -129 -320 -327s143 -324 323 -324c87 0 166 31 233 74z" />
    <glyph glyph-name="ccaron" unicode="&#x10d;" horiz-adv-x="424" 
d="M384 631l-122 -149h-29l-120 149h59l78 -98l76 98h58zM400 34c-38 -24 -87 -42 -139 -42c-128 0 -219 95 -219 215s91 219 219 219c52 0 101 -18 139 -42l-25 -43c-33 21 -73 36 -117 36c-94 0 -162 -68 -162 -168c0 -98 73 -168 164 -168c45 0 84 15 118 36z" />
    <glyph glyph-name="Ccedilla" unicode="&#xc7;" horiz-adv-x="740" 
d="M537 -150c0 -46 -35 -87 -102 -87c-34 0 -68 12 -106 33l18 36c34 -19 61 -29 88 -29c36 0 55 18 55 45c0 30 -27 56 -101 63l-3 6l20 75c-195 15 -348 157 -348 373c0 229 175 380 384 380c106 0 189 -35 255 -80l-25 -47c-67 44 -146 75 -233 75
c-180 0 -320 -129 -320 -327s143 -324 323 -324c87 0 166 31 233 74l20 -46c-66 -44 -147 -79 -250 -80l-12 -45c73 -15 104 -52 104 -95z" />
    <glyph glyph-name="ccedilla" unicode="&#xe7;" horiz-adv-x="424" 
d="M342 -150c0 -46 -35 -87 -102 -87c-34 0 -68 12 -106 33l18 36c34 -19 61 -29 88 -29c36 0 55 18 55 45c0 30 -27 56 -101 63l-3 6l21 80c-102 20 -170 106 -170 210c0 120 91 219 219 219c52 0 101 -18 139 -42l-25 -43c-33 21 -73 36 -117 36c-94 0 -162 -68 -162 -168
c0 -98 73 -168 164 -168c45 0 84 15 118 36l22 -43c-38 -24 -87 -42 -139 -42h-11l-12 -47c73 -15 104 -52 104 -95z" />
    <glyph glyph-name="Cdotaccent" unicode="&#x10a;" horiz-adv-x="740" 
d="M695 70c-66 -44 -148 -80 -253 -80c-212 0 -384 146 -384 375s175 380 384 380c106 0 189 -35 255 -80l-25 -47c-67 44 -146 75 -233 75c-180 0 -320 -129 -320 -327s143 -324 323 -324c87 0 166 31 233 74zM383 863c0 23 19 43 42 43c24 0 43 -20 43 -43
s-19 -42 -43 -42c-23 0 -42 19 -42 42z" />
    <glyph glyph-name="cdotaccent" unicode="&#x10b;" horiz-adv-x="424" 
d="M400 34c-38 -24 -87 -42 -139 -42c-128 0 -219 95 -219 215s91 219 219 219c52 0 101 -18 139 -42l-25 -43c-33 21 -73 36 -117 36c-94 0 -162 -68 -162 -168c0 -98 73 -168 164 -168c45 0 84 15 118 36zM206 543c0 23 19 43 42 43c24 0 43 -20 43 -43s-19 -42 -43 -42
c-23 0 -42 19 -42 42z" />
    <glyph glyph-name="Dcaron" unicode="&#x10e;" horiz-adv-x="740" 
d="M682 373c0 -202 -141 -380 -413 -380c-70 0 -137 6 -182 12v723c45 6 109 12 178 12c273 0 417 -179 417 -367zM622 373c0 175 -125 318 -356 318c-47 0 -94 -3 -123 -8v-633c31 -5 74 -8 128 -8c233 0 351 145 351 331zM489 951l-122 -149h-29l-120 149h59l78 -98l76 98
h58z" />
    <glyph glyph-name="dcaron" unicode="&#x10f;" horiz-adv-x="506" 
d="M539 733l54 -8c0 -83 -35 -141 -90 -184l-25 21c39 41 59 95 61 171zM443 0h-53v51c-34 -35 -84 -59 -144 -59c-118 0 -203 90 -203 215c0 123 92 219 205 219c60 0 107 -22 140 -52v359h55v-733zM388 105v210c-30 36 -79 63 -137 63c-88 0 -153 -70 -153 -170
c0 -97 63 -168 155 -168c57 0 104 27 135 65z" />
    <glyph glyph-name="Dcroat" unicode="&#x110;" horiz-adv-x="770" 
d="M712 373c0 -202 -141 -380 -413 -380c-70 0 -137 6 -182 12v343h-87v50h87v330c45 6 109 12 178 12c273 0 417 -179 417 -367zM652 373c0 175 -124 318 -355 318c-47 0 -95 -3 -124 -8v-285h136v-50h-136v-298c31 -5 75 -8 129 -8c233 0 350 145 350 331z" />
    <glyph glyph-name="dcroat" unicode="&#x111;" horiz-adv-x="506" 
d="M443 0h-53v51c-34 -35 -84 -59 -144 -59c-118 0 -203 90 -203 215c0 123 92 219 205 219c60 0 107 -22 140 -52v196h-146v48h146v115h55v-115h58v-48h-58v-570zM388 105v210c-30 36 -79 63 -137 63c-88 0 -153 -70 -153 -170c0 -97 63 -168 155 -168c57 0 104 27 135 65z
" />
    <glyph glyph-name="Eacute" unicode="&#xc9;" horiz-adv-x="563" 
d="M460 894l-192 -99l-18 31l181 123zM501 0h-414v733h414v-50h-358v-286h323v-50h-323v-296h358v-51z" />
    <glyph glyph-name="eacute" unicode="&#xe9;" horiz-adv-x="461" 
d="M405 574l-192 -99l-18 31l181 123zM422 224c0 -9 0 -17 -2 -27h-323c5 -89 56 -156 171 -156c39 0 81 10 119 25c0 0 11 -48 11 -47c-42 -16 -92 -27 -133 -27c-148 0 -223 95 -223 216c0 118 75 218 199 218c118 0 181 -88 181 -202zM99 241h270c-5 77 -46 137 -132 137
c-80 0 -129 -55 -138 -137z" />
    <glyph glyph-name="Ebreve" unicode="&#x114;" horiz-adv-x="563" 
d="M501 0h-414v733h414v-50h-358v-286h323v-50h-323v-296h358v-51zM417 925c0 -63 -45 -118 -122 -118c-76 0 -121 55 -122 118l51 5c1 -49 27 -79 71 -79s70 30 71 79z" />
    <glyph glyph-name="ebreve" unicode="&#x115;" horiz-adv-x="461" 
d="M422 224c0 -9 0 -17 -2 -27h-323c5 -89 56 -156 171 -156c39 0 81 10 119 25c0 0 11 -48 11 -47c-42 -16 -92 -27 -133 -27c-148 0 -223 95 -223 216c0 118 75 218 199 218c118 0 181 -88 181 -202zM99 241h270c-5 77 -46 137 -132 137c-80 0 -129 -55 -138 -137z
M362 605c0 -63 -45 -118 -122 -118c-76 0 -121 55 -122 118l51 5c1 -49 27 -79 71 -79s70 30 71 79z" />
    <glyph glyph-name="Ecaron" unicode="&#x11a;" horiz-adv-x="563" 
d="M430 951l-122 -149h-29l-120 149h59l78 -98l76 98h58zM501 0h-414v733h414v-50h-358v-286h323v-50h-323v-296h358v-51z" />
    <glyph glyph-name="ecaron" unicode="&#x11b;" horiz-adv-x="461" 
d="M375 631l-122 -149h-29l-120 149h59l78 -98l76 98h58zM422 224c0 -9 0 -17 -2 -27h-323c5 -89 56 -156 171 -156c39 0 81 10 119 25c0 0 11 -48 11 -47c-42 -16 -92 -27 -133 -27c-148 0 -223 95 -223 216c0 118 75 218 199 218c118 0 181 -88 181 -202zM99 241h270
c-5 77 -46 137 -132 137c-80 0 -129 -55 -138 -137z" />
    <glyph glyph-name="Ecircumflex" unicode="&#xca;" horiz-adv-x="563" 
d="M430 807h-59l-79 98l-75 -98h-58l121 149h30zM501 0h-414v733h414v-50h-358v-286h323v-50h-323v-296h358v-51z" />
    <glyph glyph-name="ecircumflex" unicode="&#xea;" horiz-adv-x="461" 
d="M375 487h-59l-79 98l-75 -98h-58l121 149h30zM422 224c0 -9 0 -17 -2 -27h-323c5 -89 56 -156 171 -156c39 0 81 10 119 25c0 0 11 -48 11 -47c-42 -16 -92 -27 -133 -27c-148 0 -223 95 -223 216c0 118 75 218 199 218c118 0 181 -88 181 -202zM99 241h270
c-5 77 -46 137 -132 137c-80 0 -129 -55 -138 -137z" />
    <glyph glyph-name="Edieresis" unicode="&#xcb;" horiz-adv-x="563" 
d="M422 863c0 -23 -19 -42 -42 -42c-24 0 -43 19 -43 42s19 43 43 43c23 0 42 -20 42 -43zM251 863c0 -23 -19 -42 -42 -42s-42 19 -42 42s19 43 42 43s42 -20 42 -43zM501 0h-414v733h414v-50h-358v-286h323v-50h-323v-296h358v-51z" />
    <glyph glyph-name="edieresis" unicode="&#xeb;" horiz-adv-x="461" 
d="M367 543c0 -23 -19 -42 -42 -42c-24 0 -43 19 -43 42s19 43 43 43c23 0 42 -20 42 -43zM196 543c0 -23 -19 -42 -42 -42s-42 19 -42 42s19 43 42 43s42 -20 42 -43zM422 224c0 -9 0 -17 -2 -27h-323c5 -89 56 -156 171 -156c39 0 81 10 119 25c0 0 11 -48 11 -47
c-42 -16 -92 -27 -133 -27c-148 0 -223 95 -223 216c0 118 75 218 199 218c118 0 181 -88 181 -202zM99 241h270c-5 77 -46 137 -132 137c-80 0 -129 -55 -138 -137z" />
    <glyph glyph-name="Edotaccent" unicode="&#x116;" horiz-adv-x="563" 
d="M501 0h-414v733h414v-50h-358v-286h323v-50h-323v-296h358v-51zM252 863c0 23 19 43 42 43c24 0 43 -20 43 -43s-19 -42 -43 -42c-23 0 -42 19 -42 42z" />
    <glyph glyph-name="edotaccent" unicode="&#x117;" horiz-adv-x="461" 
d="M422 224c0 -9 0 -17 -2 -27h-323c5 -89 56 -156 171 -156c39 0 81 10 119 25c0 0 11 -48 11 -47c-42 -16 -92 -27 -133 -27c-148 0 -223 95 -223 216c0 118 75 218 199 218c118 0 181 -88 181 -202zM99 241h270c-5 77 -46 137 -132 137c-80 0 -129 -55 -138 -137z
M197 543c0 23 19 43 42 43c24 0 43 -20 43 -43s-19 -42 -43 -42c-23 0 -42 19 -42 42z" />
    <glyph glyph-name="Egrave" unicode="&#xc8;" horiz-adv-x="563" 
d="M501 0h-414v733h414v-50h-358v-286h323v-50h-323v-296h358v-51zM336 825l-19 -30l-192 99l31 54z" />
    <glyph glyph-name="egrave" unicode="&#xe8;" horiz-adv-x="461" 
d="M422 224c0 -9 0 -17 -2 -27h-323c5 -89 56 -156 171 -156c39 0 81 10 119 25c0 0 11 -48 11 -47c-42 -16 -92 -27 -133 -27c-148 0 -223 95 -223 216c0 118 75 218 199 218c118 0 181 -88 181 -202zM99 241h270c-5 77 -46 137 -132 137c-80 0 -129 -55 -138 -137z
M282 505l-19 -30l-192 99l31 54z" />
    <glyph glyph-name="Emacron" unicode="&#x112;" horiz-adv-x="563" 
d="M501 0h-414v733h414v-50h-358v-286h323v-50h-323v-296h358v-51zM439 832h-287v48h287v-48z" />
    <glyph glyph-name="emacron" unicode="&#x113;" horiz-adv-x="461" 
d="M422 224c0 -9 0 -17 -2 -27h-323c5 -89 56 -156 171 -156c39 0 81 10 119 25c0 0 11 -48 11 -47c-42 -16 -92 -27 -133 -27c-148 0 -223 95 -223 216c0 118 75 218 199 218c118 0 181 -88 181 -202zM99 241h270c-5 77 -46 137 -132 137c-80 0 -129 -55 -138 -137z
M384 512h-287v48h287v-48z" />
    <glyph glyph-name="Eogonek" unicode="&#x118;" horiz-adv-x="563" 
d="M501 0h-33c-49 -53 -81 -98 -81 -137c0 -27 16 -43 38 -43c23 0 39 12 56 34l24 -23c-23 -31 -49 -50 -87 -50c-47 -1 -78 30 -78 76c1 44 26 84 82 143h-335v733h414v-50h-358v-286h323v-50h-323v-296h358v-51z" />
    <glyph glyph-name="eogonek" unicode="&#x119;" horiz-adv-x="461" 
d="M422 224c0 -9 0 -17 -2 -27h-323c5 -89 56 -156 171 -156c39 0 81 10 119 25l11 -46c-60 -52 -105 -111 -105 -156c0 -28 16 -44 38 -44c23 0 39 12 56 34l24 -23c-23 -31 -49 -50 -87 -50c-47 -1 -78 30 -78 76c0 44 27 89 82 142c-22 -4 -44 -7 -63 -7
c-148 0 -223 95 -223 216c0 118 75 218 199 218c118 0 181 -88 181 -202zM99 241h270c-5 77 -46 137 -132 137c-80 0 -129 -55 -138 -137z" />
    <glyph glyph-name="Eth" unicode="&#xd0;" horiz-adv-x="770" 
d="M712 373c0 -202 -141 -380 -413 -380c-70 0 -137 6 -182 12v343h-87v50h87v330c45 6 109 12 178 12c273 0 417 -179 417 -367zM652 373c0 175 -124 318 -355 318c-47 0 -95 -3 -124 -8v-285h136v-50h-136v-298c31 -5 75 -8 129 -8c233 0 350 145 350 331z" />
    <glyph glyph-name="eth" unicode="&#xf0;" horiz-adv-x="499" 
d="M143 516l-29 34l82 73c-35 27 -74 50 -116 70l22 43c46 -22 91 -48 132 -79l70 62l30 -35l-64 -56c109 -96 187 -230 187 -404c0 -138 -86 -232 -209 -232c-131 0 -205 102 -205 224c0 116 81 211 193 211c66 0 117 -28 151 -73c-21 86 -76 171 -155 240zM402 211
c0 96 -58 168 -157 168c-89 0 -147 -71 -147 -166c0 -92 58 -174 151 -174s153 77 153 172z" />
    <glyph glyph-name="Gbreve" unicode="&#x11e;" horiz-adv-x="779" 
d="M447 349h265v-269c-72 -57 -158 -90 -266 -90c-199 0 -388 139 -388 376c0 235 189 379 381 379c118 0 195 -36 271 -90l-30 -44c-69 50 -148 83 -241 84c-181 0 -320 -136 -320 -329c0 -198 150 -326 329 -326c81 0 150 23 208 64v193h-209v52zM549 925
c0 -63 -45 -118 -122 -118c-76 0 -121 55 -122 118l51 5c1 -49 27 -79 71 -79s70 30 71 79z" />
    <glyph glyph-name="gbreve" unicode="&#x11f;" horiz-adv-x="506" 
d="M443 -41c0 -126 -63 -185 -175 -185c-49 0 -93 9 -139 24l10 51c44 -17 85 -24 123 -24c87 0 126 41 126 130v92c-33 -31 -82 -55 -142 -55c-118 0 -203 90 -203 215c0 123 92 219 205 219c60 0 111 -25 142 -57v49h53v-459zM388 103v210c-30 36 -80 65 -136 65
c-90 0 -154 -71 -154 -171c0 -96 63 -168 158 -168c53 0 101 26 132 64zM388 605c0 -63 -45 -118 -122 -118c-76 0 -121 55 -122 118l51 5c1 -49 27 -79 71 -79s70 30 71 79z" />
    <glyph glyph-name="Gcommaaccent" unicode="&#x122;" horiz-adv-x="779" 
d="M473 -128c0 -47 -37 -104 -87 -134l-11 13c31 28 50 62 56 92c-29 3 -46 21 -46 43c0 23 19 41 41 41c28 0 47 -23 47 -55zM447 349h265v-269c-72 -57 -158 -90 -266 -90c-199 0 -388 139 -388 376c0 235 189 379 381 379c118 0 195 -36 271 -90l-30 -44
c-69 50 -148 83 -241 84c-181 0 -320 -136 -320 -329c0 -198 150 -326 329 -326c81 0 150 23 208 64v193h-209v52z" />
    <glyph glyph-name="gcommaaccent" unicode="&#x123;" horiz-adv-x="506" 
d="M443 -41c0 -126 -63 -185 -175 -185c-49 0 -93 9 -139 24l10 51c44 -17 85 -24 123 -24c87 0 126 41 126 130v92c-33 -31 -82 -55 -142 -55c-118 0 -203 90 -203 215c0 123 92 219 205 219c60 0 111 -25 142 -57v49h53v-459zM388 103v210c-30 36 -80 65 -136 65
c-90 0 -154 -71 -154 -171c0 -96 63 -168 158 -168c53 0 101 26 132 64zM219 568c0 47 37 104 87 134l11 -13c-31 -28 -50 -62 -56 -92c29 -3 46 -21 46 -43c0 -23 -19 -41 -41 -41c-28 0 -47 23 -47 55z" />
    <glyph glyph-name="Gdotaccent" unicode="&#x120;" horiz-adv-x="779" 
d="M447 349h265v-269c-72 -57 -158 -90 -266 -90c-199 0 -388 139 -388 376c0 235 189 379 381 379c118 0 195 -36 271 -90l-30 -44c-69 50 -148 83 -241 84c-181 0 -320 -136 -320 -329c0 -198 150 -326 329 -326c81 0 150 23 208 64v193h-209v52zM385 863
c0 23 19 43 42 43c24 0 43 -20 43 -43s-19 -42 -43 -42c-23 0 -42 19 -42 42z" />
    <glyph glyph-name="gdotaccent" unicode="&#x121;" horiz-adv-x="506" 
d="M443 -41c0 -126 -63 -185 -175 -185c-49 0 -93 9 -139 24l10 51c44 -17 85 -24 123 -24c87 0 126 41 126 130v92c-33 -31 -82 -55 -142 -55c-118 0 -203 90 -203 215c0 123 92 219 205 219c60 0 111 -25 142 -57v49h53v-459zM388 103v210c-30 36 -80 65 -136 65
c-90 0 -154 -71 -154 -171c0 -96 63 -168 158 -168c53 0 101 26 132 64zM223 543c0 23 19 43 42 43c24 0 43 -20 43 -43s-19 -42 -43 -42c-23 0 -42 19 -42 42z" />
    <glyph glyph-name="Hbar" unicode="&#x126;" horiz-adv-x="707" 
d="M620 0h-56v348h-421v-348h-56v554h-79v48h79v131h56v-131h421v131h56v-131h80v-48h-80v-554zM143 398h421v156h-421v-156z" />
    <glyph glyph-name="hbar" unicode="&#x127;" horiz-adv-x="466" 
d="M413 0h-56v269c0 70 -30 109 -97 109c-53 0 -109 -37 -147 -80v-298h-55v570h-59v48h59v115h55v-115h146v-48h-146v-223c41 44 98 79 158 79c96 0 142 -61 142 -145v-281z" />
    <glyph glyph-name="Iacute" unicode="&#xcd;" horiz-adv-x="237" 
d="M147 0h-56v733h56v-733zM284 894l-192 -99l-18 31l181 123z" />
    <glyph glyph-name="iacute" unicode="&#xed;" horiz-adv-x="191" 
d="M261 574l-192 -99l-18 31l181 123zM124 0h-56v418h56v-418z" />
    <glyph glyph-name="Ibreve" unicode="&#x12c;" horiz-adv-x="237" 
d="M147 0h-56v733h56v-733zM241 925c0 -63 -45 -118 -122 -118c-76 0 -121 55 -122 118l51 5c1 -49 27 -79 71 -79s70 30 71 79z" />
    <glyph glyph-name="ibreve" unicode="&#x12d;" horiz-adv-x="191" 
d="M124 0h-56v418h56v-418zM218 605c0 -63 -45 -118 -122 -118c-76 0 -121 55 -122 118l51 5c1 -49 27 -79 71 -79s70 30 71 79z" />
    <glyph glyph-name="Icircumflex" unicode="&#xce;" horiz-adv-x="237" 
d="M147 0h-56v733h56v-733zM254 807h-59l-79 98l-75 -98h-58l121 149h30z" />
    <glyph glyph-name="icircumflex" unicode="&#xee;" horiz-adv-x="191" 
d="M231 487h-59l-79 98l-75 -98h-58l121 149h30zM124 0h-56v418h56v-418z" />
    <glyph glyph-name="Idieresis" unicode="&#xcf;" horiz-adv-x="237" 
d="M147 0h-56v733h56v-733zM246 863c0 -23 -19 -42 -42 -42c-24 0 -43 19 -43 42s19 43 43 43c23 0 42 -20 42 -43zM75 863c0 -23 -19 -42 -42 -42s-42 19 -42 42s19 43 42 43s42 -20 42 -43z" />
    <glyph glyph-name="idieresis" unicode="&#xef;" horiz-adv-x="191" 
d="M224 543c0 -23 -19 -42 -42 -42c-24 0 -43 19 -43 42s19 43 43 43c23 0 42 -20 42 -43zM53 543c0 -23 -19 -42 -42 -42s-42 19 -42 42s19 43 42 43s42 -20 42 -43zM124 0h-56v418h56v-418z" />
    <glyph glyph-name="Idotaccent" unicode="&#x130;" horiz-adv-x="237" 
d="M147 0h-56v733h56v-733zM76 863c0 23 19 43 42 43c24 0 43 -20 43 -43s-19 -42 -43 -42c-23 0 -42 19 -42 42z" />
    <glyph glyph-name="dotlessi" unicode="&#x131;" horiz-adv-x="191" 
d="M124 0h-56v418h56v-418z" />
    <glyph glyph-name="Igrave" unicode="&#xcc;" horiz-adv-x="237" 
d="M147 0h-56v733h56v-733zM160 825l-19 -30l-192 99l31 54z" />
    <glyph glyph-name="igrave" unicode="&#xec;" horiz-adv-x="191" 
d="M124 0h-56v418h56v-418zM138 505l-19 -30l-192 99l31 54z" />
    <glyph glyph-name="Imacron" unicode="&#x12a;" horiz-adv-x="237" 
d="M147 0h-56v733h56v-733zM263 832h-287v48h287v-48z" />
    <glyph glyph-name="imacron" unicode="&#x12b;" horiz-adv-x="191" 
d="M124 0h-56v418h56v-418zM240 512h-287v48h287v-48z" />
    <glyph glyph-name="Iogonek" unicode="&#x12e;" horiz-adv-x="237" 
d="M190 -168c-23 -31 -50 -51 -89 -51c-45 -1 -77 31 -76 78c0 43 21 81 72 141h-6v733h56v-733h-5c-46 -55 -71 -96 -71 -136c0 -28 17 -44 38 -44c23 0 39 12 56 34z" />
    <glyph glyph-name="iogonek" unicode="&#x12f;" horiz-adv-x="187" 
d="M165 -168c-23 -31 -50 -51 -88 -51c-46 -1 -78 31 -77 78c1 43 22 81 73 141h-7v418h56v-418h-5c-45 -55 -70 -96 -70 -136c0 -28 16 -44 37 -44c24 0 39 12 57 34zM134 573c0 -22 -18 -40 -40 -40c-23 0 -40 18 -40 40s17 41 40 41c22 0 40 -19 40 -41z" />
    <glyph glyph-name="Kcommaaccent" unicode="&#x136;" horiz-adv-x="593" 
d="M353 -116c0 -47 -37 -104 -87 -134l-11 13c31 28 50 62 56 92c-29 3 -46 21 -46 43c0 23 19 41 41 41c28 0 47 -23 47 -55zM572 0h-74l-355 362v-362h-56v733h56v-341l343 341h72l-361 -356z" />
    <glyph glyph-name="kcommaaccent" unicode="&#x137;" horiz-adv-x="398" 
d="M258 -128c0 -47 -37 -104 -87 -134l-11 13c31 28 50 62 56 92c-29 3 -46 21 -46 43c0 23 19 41 41 41c28 0 47 -23 47 -55zM396 0h-70l-208 206v-206h-55v733h55v-500l198 185h70l-217 -197z" />
    <glyph glyph-name="Lacute" unicode="&#x139;" horiz-adv-x="513" 
d="M311 894l-192 -99l-18 31l181 123zM501 0h-414v733h56v-682h358v-51z" />
    <glyph glyph-name="lacute" unicode="&#x13a;" horiz-adv-x="187" 
d="M275 889l-192 -99l-18 31l181 123zM121 0h-55v733h55v-733z" />
    <glyph glyph-name="Lcaron" unicode="&#x13d;" horiz-adv-x="513" 
d="M289 733l54 -8c0 -83 -35 -141 -90 -184l-25 21c39 41 59 95 61 171zM501 0h-414v733h56v-682h358v-51z" />
    <glyph glyph-name="lcaron" unicode="&#x13e;" horiz-adv-x="187" 
d="M218 733l54 -8c0 -83 -35 -141 -90 -184l-25 21c39 41 59 95 61 171zM121 0h-55v733h55v-733z" />
    <glyph glyph-name="Lcommaaccent" unicode="&#x13b;" horiz-adv-x="513" 
d="M335 -128c0 -47 -37 -104 -87 -134l-11 13c31 28 50 62 56 92c-29 3 -46 21 -46 43c0 23 19 41 41 41c28 0 47 -23 47 -55zM501 0h-414v733h56v-682h358v-51z" />
    <glyph glyph-name="lcommaaccent" unicode="&#x13c;" horiz-adv-x="187" 
d="M140 -128c0 -47 -37 -104 -87 -134l-11 13c31 28 50 62 56 92c-29 3 -46 21 -46 43c0 23 19 41 41 41c28 0 47 -23 47 -55zM121 0h-55v733h55v-733z" />
    <glyph glyph-name="Ldot" unicode="&#x13f;" horiz-adv-x="513" 
d="M501 0h-414v733h56v-682h358v-51zM336 369c0 -23 19 -42 42 -42c24 0 43 19 43 42s-19 43 -43 43c-23 0 -42 -20 -42 -43z" />
    <glyph glyph-name="ldot" unicode="&#x140;" horiz-adv-x="261" 
d="M121 0h-55v733h55v-733zM181 367c0 -23 19 -42 42 -42c24 0 43 19 43 42s-19 43 -43 43c-23 0 -42 -20 -42 -43z" />
    <glyph glyph-name="Lslash" unicode="&#x141;" horiz-adv-x="533" 
d="M521 0h-414v326l-65 -29v54l65 29v353h56v-328l104 48v-54s-104 -47 -104 -48v-300h358v-51z" />
    <glyph glyph-name="lslash" unicode="&#x142;" horiz-adv-x="212" 
d="M185 371l-51 -23v-348h-56v320l-51 -23v54l51 23v359h56v-331l51 23v-54z" />
    <glyph glyph-name="Nacute" unicode="&#x143;" horiz-adv-x="727" 
d="M528 881l-192 -99l-18 31l181 123zM640 -9l-10 -2l-488 622v-611h-55v741l13 3l484 -615v604h56v-742z" />
    <glyph glyph-name="nacute" unicode="&#x144;" 
d="M403 574l-192 -99l-18 31l181 123zM415 0h-56v269c0 70 -28 109 -96 109c-53 0 -106 -37 -145 -80v-298h-55v418h53v-72c41 44 99 80 160 80c96 0 139 -61 139 -145v-281z" />
    <glyph glyph-name="Ncaron" unicode="&#x147;" horiz-adv-x="727" 
d="M499 938l-122 -149h-29l-120 149h59l78 -98l76 98h58zM640 -9l-10 -2l-488 622v-611h-55v741l13 3l484 -615v604h56v-742z" />
    <glyph glyph-name="ncaron" unicode="&#x148;" 
d="M374 631l-122 -149h-29l-120 149h59l78 -98l76 98h58zM415 0h-56v269c0 70 -28 109 -96 109c-53 0 -106 -37 -145 -80v-298h-55v418h53v-72c41 44 99 80 160 80c96 0 139 -61 139 -145v-281z" />
    <glyph glyph-name="Ncommaaccent" unicode="&#x145;" horiz-adv-x="727" 
d="M409 -116c0 -47 -37 -104 -87 -134l-11 13c31 28 50 62 56 92c-29 3 -46 21 -46 43c0 23 19 41 41 41c28 0 47 -23 47 -55zM640 -9l-10 -2l-488 622v-611h-55v741l13 3l484 -615v604h56v-742z" />
    <glyph glyph-name="ncommaaccent" unicode="&#x146;" 
d="M284 -128c0 -47 -37 -104 -87 -134l-11 13c31 28 50 62 56 92c-29 3 -46 21 -46 43c0 23 19 41 41 41c28 0 47 -23 47 -55zM415 0h-56v269c0 70 -28 109 -96 109c-53 0 -106 -37 -145 -80v-298h-55v418h53v-72c41 44 99 80 160 80c96 0 139 -61 139 -145v-281z" />
    <glyph glyph-name="Ntilde" unicode="&#xd1;" horiz-adv-x="727" 
d="M640 -9l-10 -2l-488 622v-611h-55v741l13 3l484 -615v604h56v-742zM515 858c-32 -38 -63 -55 -94 -54c-21 0 -42 10 -62 22c-19 12 -37 21 -52 22c-22 0 -41 -12 -65 -41l-28 34c32 38 63 55 94 54c21 0 42 -10 61 -22c20 -12 38 -21 53 -22c22 0 41 12 65 41z" />
    <glyph glyph-name="ntilde" unicode="&#xf1;" 
d="M415 0h-56v269c0 70 -28 109 -96 109c-53 0 -106 -37 -145 -80v-298h-55v418h53v-72c41 44 99 80 160 80c96 0 139 -61 139 -145v-281zM390 551c-32 -38 -63 -55 -94 -54c-21 0 -42 10 -62 22c-19 12 -37 21 -52 22c-22 0 -41 -12 -65 -41l-28 34c32 38 63 55 94 54
c21 0 42 -10 61 -22c20 -12 38 -21 53 -22c22 0 41 12 65 41z" />
    <glyph glyph-name="Oacute" unicode="&#xd3;" horiz-adv-x="842" 
d="M586 894l-192 -99l-18 31l181 123zM784 366c0 -217 -163 -376 -365 -376c-201 0 -361 159 -361 376s163 378 365 378c201 0 361 -161 361 -378zM723 366c0 185 -126 327 -302 327s-302 -142 -302 -327c0 -184 126 -326 302 -326s302 142 302 326z" />
    <glyph glyph-name="oacute" unicode="&#xf3;" horiz-adv-x="500" 
d="M415 574l-192 -99l-18 31l181 123zM458 210c0 -121 -86 -218 -208 -218c-123 0 -207 96 -207 217c0 120 85 217 208 217c122 0 207 -96 207 -216zM402 209c0 99 -61 170 -152 170s-152 -72 -152 -170s61 -170 152 -170s152 72 152 170z" />
    <glyph glyph-name="Obreve" unicode="&#x14e;" horiz-adv-x="842" 
d="M784 366c0 -217 -163 -376 -365 -376c-201 0 -361 159 -361 376s163 378 365 378c201 0 361 -161 361 -378zM723 366c0 185 -126 327 -302 327s-302 -142 -302 -327c0 -184 126 -326 302 -326s302 142 302 326zM543 925c0 -63 -45 -118 -122 -118c-76 0 -121 55 -122 118
l51 5c1 -49 27 -79 71 -79s70 30 71 79z" />
    <glyph glyph-name="obreve" unicode="&#x14f;" horiz-adv-x="500" 
d="M458 210c0 -121 -86 -218 -208 -218c-123 0 -207 96 -207 217c0 120 85 217 208 217c122 0 207 -96 207 -216zM402 209c0 99 -61 170 -152 170s-152 -72 -152 -170s61 -170 152 -170s152 72 152 170zM372 605c0 -63 -45 -118 -122 -118c-76 0 -121 55 -122 118l51 5
c1 -49 27 -79 71 -79s70 30 71 79z" />
    <glyph glyph-name="Ocircumflex" unicode="&#xd4;" horiz-adv-x="842" 
d="M556 807h-59l-79 98l-75 -98h-58l121 149h30zM784 366c0 -217 -163 -376 -365 -376c-201 0 -361 159 -361 376s163 378 365 378c201 0 361 -161 361 -378zM723 366c0 185 -126 327 -302 327s-302 -142 -302 -327c0 -184 126 -326 302 -326s302 142 302 326z" />
    <glyph glyph-name="ocircumflex" unicode="&#xf4;" horiz-adv-x="500" 
d="M385 487h-59l-79 98l-75 -98h-58l121 149h30zM458 210c0 -121 -86 -218 -208 -218c-123 0 -207 96 -207 217c0 120 85 217 208 217c122 0 207 -96 207 -216zM402 209c0 99 -61 170 -152 170s-152 -72 -152 -170s61 -170 152 -170s152 72 152 170z" />
    <glyph glyph-name="Odieresis" unicode="&#xd6;" horiz-adv-x="842" 
d="M548 863c0 -23 -19 -42 -42 -42c-24 0 -43 19 -43 42s19 43 43 43c23 0 42 -20 42 -43zM377 863c0 -23 -19 -42 -42 -42s-42 19 -42 42s19 43 42 43s42 -20 42 -43zM784 366c0 -217 -163 -376 -365 -376c-201 0 -361 159 -361 376s163 378 365 378
c201 0 361 -161 361 -378zM723 366c0 185 -126 327 -302 327s-302 -142 -302 -327c0 -184 126 -326 302 -326s302 142 302 326z" />
    <glyph glyph-name="odieresis" unicode="&#xf6;" horiz-adv-x="500" 
d="M377 543c0 -23 -19 -42 -42 -42c-24 0 -43 19 -43 42s19 43 43 43c23 0 42 -20 42 -43zM206 543c0 -23 -19 -42 -42 -42s-42 19 -42 42s19 43 42 43s42 -20 42 -43zM458 210c0 -121 -86 -218 -208 -218c-123 0 -207 96 -207 217c0 120 85 217 208 217
c122 0 207 -96 207 -216zM402 209c0 99 -61 170 -152 170s-152 -72 -152 -170s61 -170 152 -170s152 72 152 170z" />
    <glyph glyph-name="Ograve" unicode="&#xd2;" horiz-adv-x="842" 
d="M784 366c0 -217 -163 -376 -365 -376c-201 0 -361 159 -361 376s163 378 365 378c201 0 361 -161 361 -378zM723 366c0 185 -126 327 -302 327s-302 -142 -302 -327c0 -184 126 -326 302 -326s302 142 302 326zM462 825l-19 -30l-192 99l31 54z" />
    <glyph glyph-name="ograve" unicode="&#xf2;" horiz-adv-x="500" 
d="M458 210c0 -121 -86 -218 -208 -218c-123 0 -207 96 -207 217c0 120 85 217 208 217c122 0 207 -96 207 -216zM402 209c0 99 -61 170 -152 170s-152 -72 -152 -170s61 -170 152 -170s152 72 152 170zM292 505l-19 -30l-192 99l31 54z" />
    <glyph glyph-name="Ohungarumlaut" unicode="&#x150;" horiz-adv-x="842" 
d="M472 961l-110 -160l-28 18l88 173zM602 947l-108 -157l-28 18l86 170zM784 366c0 -217 -163 -376 -365 -376c-201 0 -361 159 -361 376s163 378 365 378c201 0 361 -161 361 -378zM723 366c0 185 -126 327 -302 327s-302 -142 -302 -327c0 -184 126 -326 302 -326
s302 142 302 326z" />
    <glyph glyph-name="ohungarumlaut" unicode="&#x151;" horiz-adv-x="500" 
d="M301 641l-110 -160l-28 18l88 173zM431 627l-108 -157l-28 18l86 170zM458 210c0 -121 -86 -218 -208 -218c-123 0 -207 96 -207 217c0 120 85 217 208 217c122 0 207 -96 207 -216zM402 209c0 99 -61 170 -152 170s-152 -72 -152 -170s61 -170 152 -170s152 72 152 170z
" />
    <glyph glyph-name="Omacron" unicode="&#x14c;" horiz-adv-x="842" 
d="M565 832h-287v48h287v-48zM784 366c0 -217 -163 -376 -365 -376c-201 0 -361 159 -361 376s163 378 365 378c201 0 361 -161 361 -378zM723 366c0 185 -126 327 -302 327s-302 -142 -302 -327c0 -184 126 -326 302 -326s302 142 302 326z" />
    <glyph glyph-name="omacron" unicode="&#x14d;" horiz-adv-x="500" 
d="M394 512h-287v48h287v-48zM458 210c0 -121 -86 -218 -208 -218c-123 0 -207 96 -207 217c0 120 85 217 208 217c122 0 207 -96 207 -216zM402 209c0 99 -61 170 -152 170s-152 -72 -152 -170s61 -170 152 -170s152 72 152 170z" />
    <glyph glyph-name="Oslash" unicode="&#xd8;" horiz-adv-x="842" 
d="M784 366c0 -217 -163 -376 -365 -376c-92 0 -176 34 -240 91c-17 -18 -83 -87 -83 -87l-34 35s84 87 84 86c-55 66 -88 153 -88 251c0 217 163 378 365 378c93 0 177 -35 240 -93l84 88l34 -34s-68 -71 -85 -88c55 -65 88 -152 88 -251zM625 612c-53 51 -123 81 -204 81
c-176 0 -302 -142 -302 -327c0 -81 24 -153 67 -209zM723 366c0 81 -24 154 -67 210c1 0 -439 -455 -439 -456c53 -50 123 -80 204 -80c176 0 302 142 302 326z" />
    <glyph glyph-name="oslash" unicode="&#xf8;" horiz-adv-x="500" 
d="M474 394l-56 -53c26 -36 40 -81 40 -131c0 -122 -86 -218 -208 -218c-56 0 -104 20 -140 54l-56 -54l-29 29l58 55c-26 37 -40 82 -40 133c0 121 85 217 208 217c56 0 105 -20 141 -55c12 12 54 52 54 52zM121 112l235 225c-26 27 -63 42 -106 42
c-92 0 -152 -70 -152 -170c0 -37 8 -69 23 -97zM380 304l-234 -224c26 -26 61 -41 104 -41c92 0 153 70 153 170c0 36 -8 68 -23 95z" />
    <glyph glyph-name="Oslashacute" unicode="&#x1fe;" horiz-adv-x="842" 
d="M784 366c0 -217 -163 -376 -365 -376c-92 0 -176 34 -240 91c-17 -18 -83 -87 -83 -87l-34 35s84 87 84 86c-55 66 -88 153 -88 251c0 217 163 378 365 378c93 0 177 -35 240 -93l84 88l34 -34s-68 -71 -85 -88c55 -65 88 -152 88 -251zM625 612c-53 51 -123 81 -204 81
c-176 0 -302 -142 -302 -327c0 -81 24 -153 67 -209zM723 366c0 81 -24 154 -67 210c1 0 -439 -455 -439 -456c53 -50 123 -80 204 -80c176 0 302 142 302 326zM586 894l-192 -99l-18 31l181 123z" />
    <glyph glyph-name="oslashacute" unicode="&#x1ff;" horiz-adv-x="500" 
d="M474 394l-56 -53c26 -36 40 -81 40 -131c0 -122 -86 -218 -208 -218c-56 0 -104 20 -140 54l-56 -54l-29 29l58 55c-26 37 -40 82 -40 133c0 121 85 217 208 217c56 0 105 -20 141 -55c12 12 54 52 54 52zM121 112l235 225c-26 27 -63 42 -106 42
c-92 0 -152 -70 -152 -170c0 -37 8 -69 23 -97zM380 304l-234 -224c26 -26 61 -41 104 -41c92 0 153 70 153 170c0 36 -8 68 -23 95zM414 574l-192 -99l-18 31l181 123z" />
    <glyph glyph-name="Otilde" unicode="&#xd5;" horiz-adv-x="842" 
d="M784 366c0 -217 -163 -376 -365 -376c-201 0 -361 159 -361 376s163 378 365 378c201 0 361 -161 361 -378zM723 366c0 185 -126 327 -302 327s-302 -142 -302 -327c0 -184 126 -326 302 -326s302 142 302 326zM573 871c-32 -38 -63 -55 -94 -54c-21 0 -42 10 -62 22
c-19 12 -37 21 -52 22c-22 0 -41 -12 -65 -41l-28 34c32 38 63 55 94 54c21 0 42 -10 61 -22c20 -12 38 -21 53 -22c22 0 41 12 65 41z" />
    <glyph glyph-name="otilde" unicode="&#xf5;" horiz-adv-x="500" 
d="M458 210c0 -121 -86 -218 -208 -218c-123 0 -207 96 -207 217c0 120 85 217 208 217c122 0 207 -96 207 -216zM402 209c0 99 -61 170 -152 170s-152 -72 -152 -170s61 -170 152 -170s152 72 152 170zM402 551c-32 -38 -63 -55 -94 -54c-21 0 -42 10 -62 22
c-19 12 -37 21 -52 22c-22 0 -41 -12 -65 -41l-28 34c32 38 63 55 94 54c21 0 42 -10 61 -22c20 -12 38 -21 53 -22c22 0 41 12 65 41z" />
    <glyph glyph-name="OE" unicode="&#x152;" horiz-adv-x="1068" 
d="M1006 0h-401c-38 -4 -83 -7 -130 -7c-272 0 -417 180 -417 367c0 203 141 380 414 380c50 0 100 -3 138 -7h396v-50h-358v-286h323v-50h-323v-296h358v-51zM592 50v634c-31 5 -72 8 -123 8c-233 0 -350 -145 -350 -332c0 -174 124 -317 355 -317c44 0 90 3 118 7z" />
    <glyph glyph-name="oe" unicode="&#x153;" horiz-adv-x="818" 
d="M780 224c0 -9 0 -17 -1 -27h-323c4 -89 55 -156 170 -156c39 0 81 10 119 25c0 0 11 -48 11 -47c-42 -16 -92 -27 -133 -27c-99 0 -164 43 -196 108c-33 -65 -96 -108 -177 -108c-123 0 -207 96 -207 217c0 120 85 217 208 217c81 0 144 -43 177 -107
c31 63 90 107 171 107c118 0 181 -88 181 -202zM727 241c-4 77 -46 137 -132 137c-80 0 -128 -55 -137 -137h269zM402 209c0 99 -61 170 -152 170s-152 -72 -152 -170s61 -170 152 -170s152 72 152 170z" />
    <glyph glyph-name="Racute" unicode="&#x154;" horiz-adv-x="590" 
d="M565 0h-68l-200 298c-20 -3 -41 -4 -64 -4c-26 0 -65 2 -89 4v-298h-57v726c54 7 100 12 157 12c181 0 278 -89 278 -217c0 -100 -61 -179 -170 -211zM462 518c0 98 -73 170 -212 170c-37 0 -71 -3 -106 -9v-331c25 -3 62 -6 92 -6c147 0 226 69 226 176zM446 894
l-192 -99l-18 31l181 123z" />
    <glyph glyph-name="racute" unicode="&#x155;" horiz-adv-x="285" 
d="M268 373c-59 -2 -118 -31 -150 -87v-286h-55v418h53v-79c38 54 93 88 152 88v-54zM325 574l-192 -99l-18 31l181 123z" />
    <glyph glyph-name="Rcaron" unicode="&#x158;" horiz-adv-x="590" 
d="M565 0h-68l-200 298c-20 -3 -41 -4 -64 -4c-26 0 -65 2 -89 4v-298h-57v726c54 7 100 12 157 12c181 0 278 -89 278 -217c0 -100 -61 -179 -170 -211zM462 518c0 98 -73 170 -212 170c-37 0 -71 -3 -106 -9v-331c25 -3 62 -6 92 -6c147 0 226 69 226 176zM417 951
l-122 -149h-29l-120 149h59l78 -98l76 98h58z" />
    <glyph glyph-name="rcaron" unicode="&#x159;" horiz-adv-x="285" 
d="M268 373c-59 -2 -118 -31 -150 -87v-286h-55v418h53v-79c38 54 93 88 152 88v-54zM296 631l-122 -149h-29l-120 149h59l78 -98l76 98h58z" />
    <glyph glyph-name="Rcommaaccent" unicode="&#x156;" horiz-adv-x="590" 
d="M565 0h-68l-200 298c-20 -3 -41 -4 -64 -4c-26 0 -65 2 -89 4v-298h-57v726c54 7 100 12 157 12c181 0 278 -89 278 -217c0 -100 -61 -179 -170 -211zM462 518c0 98 -73 170 -212 170c-37 0 -71 -3 -106 -9v-331c25 -3 62 -6 92 -6c147 0 226 69 226 176zM331 -121
c0 -47 -37 -104 -87 -134l-11 13c31 28 50 62 56 92c-29 3 -46 21 -46 43c0 23 19 41 41 41c28 0 47 -23 47 -55z" />
    <glyph glyph-name="rcommaaccent" unicode="&#x157;" horiz-adv-x="285" 
d="M268 373c-59 -2 -118 -31 -150 -87v-286h-55v418h53v-79c38 54 93 88 152 88v-54zM138 -127c0 -47 -37 -104 -87 -134l-11 13c31 28 50 62 56 92c-29 3 -46 21 -46 43c0 23 19 41 41 41c28 0 47 -23 47 -55z" />
    <glyph glyph-name="Sacute" unicode="&#x15a;" horiz-adv-x="517" 
d="M432 894l-192 -99l-18 31l181 123zM464 189c0 -120 -100 -201 -224 -201c-78 0 -148 26 -212 68l27 49c59 -40 124 -66 190 -66c97 0 162 62 162 143c0 85 -57 122 -161 169c-113 50 -182 102 -182 203c0 106 89 191 220 191c64 0 122 -21 165 -50l-27 -47
c-37 26 -88 46 -143 46c-98 0 -159 -60 -159 -136c0 -79 62 -117 151 -158c126 -57 193 -106 193 -211z" />
    <glyph glyph-name="sacute" unicode="&#x15b;" horiz-adv-x="356" 
d="M346 574l-192 -99l-18 31l181 123zM311 116c0 -65 -53 -124 -134 -124c-56 0 -104 21 -146 52l27 40c35 -27 77 -46 117 -46c54 0 85 29 85 71c0 100 -207 69 -207 201c0 60 50 116 134 116c44 0 87 -17 121 -40l-25 -42c-31 22 -61 36 -97 36c-56 0 -82 -30 -82 -65
c0 -95 207 -65 207 -199z" />
    <glyph glyph-name="Scaron" unicode="&#x160;" horiz-adv-x="517" 
d="M402 951l-122 -149h-29l-120 149h59l78 -98l76 98h58zM464 189c0 -120 -100 -201 -224 -201c-78 0 -148 26 -212 68l27 49c59 -40 124 -66 190 -66c97 0 162 62 162 143c0 85 -57 122 -161 169c-113 50 -182 102 -182 203c0 106 89 191 220 191c64 0 122 -21 165 -50
l-27 -47c-37 26 -88 46 -143 46c-98 0 -159 -60 -159 -136c0 -79 62 -117 151 -158c126 -57 193 -106 193 -211z" />
    <glyph glyph-name="scaron" unicode="&#x161;" horiz-adv-x="356" 
d="M317 631l-122 -149h-29l-120 149h59l78 -98l76 98h58zM311 116c0 -65 -53 -124 -134 -124c-56 0 -104 21 -146 52l27 40c35 -27 77 -46 117 -46c54 0 85 29 85 71c0 100 -207 69 -207 201c0 60 50 116 134 116c44 0 87 -17 121 -40l-25 -42c-31 22 -61 36 -97 36
c-56 0 -82 -30 -82 -65c0 -95 207 -65 207 -199z" />
    <glyph glyph-name="Scedilla" unicode="&#x15e;" horiz-adv-x="517" 
d="M341 -150c0 -46 -35 -87 -102 -87c-34 0 -68 12 -106 33l18 36c34 -19 61 -29 88 -29c36 0 55 18 55 45c0 30 -27 56 -101 63l-3 6l19 72c-66 6 -126 30 -181 67l27 49c59 -40 124 -66 190 -66c97 0 162 62 162 143c0 85 -57 122 -161 169c-113 50 -182 102 -182 203
c0 106 89 191 220 191c64 0 122 -21 165 -50l-27 -47c-37 26 -88 46 -143 46c-98 0 -159 -60 -159 -136c0 -79 62 -117 151 -158c126 -57 193 -106 193 -211c0 -118 -96 -197 -216 -201l-11 -43c73 -15 104 -52 104 -95z" />
    <glyph glyph-name="scedilla" unicode="&#x15f;" horiz-adv-x="356" 
d="M270 -150c0 -46 -35 -87 -102 -87c-34 0 -68 12 -106 33l18 36c34 -19 61 -29 88 -29c36 0 55 18 55 45c0 30 -27 56 -101 63l-3 6l21 78c-41 7 -77 25 -109 49l27 40c35 -27 77 -46 117 -46c54 0 85 29 85 71c0 100 -207 69 -207 201c0 60 50 116 134 116
c44 0 87 -17 121 -40l-25 -42c-31 22 -61 36 -97 36c-56 0 -82 -30 -82 -65c0 -95 207 -65 207 -199c0 -65 -53 -123 -133 -124l-12 -47c73 -15 104 -52 104 -95z" />
    <glyph glyph-name="Scommaaccent" unicode="&#x218;" horiz-adv-x="517" 
d="M298 -128c0 -47 -37 -104 -87 -134l-11 13c31 28 50 62 56 92c-29 3 -46 21 -46 43c0 23 19 41 41 41c28 0 47 -23 47 -55zM464 189c0 -120 -100 -201 -224 -201c-78 0 -148 26 -212 68l27 49c59 -40 124 -66 190 -66c97 0 162 62 162 143c0 85 -57 122 -161 169
c-113 50 -182 102 -182 203c0 106 89 191 220 191c64 0 122 -21 165 -50l-27 -47c-37 26 -88 46 -143 46c-98 0 -159 -60 -159 -136c0 -79 62 -117 151 -158c126 -57 193 -106 193 -211z" />
    <glyph glyph-name="scommaaccent" unicode="&#x219;" horiz-adv-x="356" 
d="M220 -128c0 -47 -37 -104 -87 -134l-11 13c31 28 50 62 56 92c-29 3 -46 21 -46 43c0 23 19 41 41 41c28 0 47 -23 47 -55zM311 116c0 -65 -53 -124 -134 -124c-56 0 -104 21 -146 52l27 40c35 -27 77 -46 117 -46c54 0 85 29 85 71c0 100 -207 69 -207 201
c0 60 50 116 134 116c44 0 87 -17 121 -40l-25 -42c-31 22 -61 36 -97 36c-56 0 -82 -30 -82 -65c0 -95 207 -65 207 -199z" />
    <glyph glyph-name="Tcaron" unicode="&#x164;" horiz-adv-x="614" 
d="M442 951l-122 -149h-29l-120 149h59l78 -98l76 98h58zM584 683h-248v-683h-57v683h-249v50h554v-50z" />
    <glyph glyph-name="tcaron" unicode="&#x165;" horiz-adv-x="293" 
d="M246 671l54 -8c0 -83 -35 -141 -90 -184l-25 21c39 41 59 95 61 171zM275 369h-132v-262c0 -45 24 -66 70 -66c16 0 30 2 45 5l5 -47c-22 -4 -41 -7 -63 -7c-72 0 -111 37 -111 119v258h-71v13l71 39v90l54 40v-133h132v-49z" />
    <glyph glyph-name="Tcommaaccent" unicode="&#x162;" horiz-adv-x="614" 
d="M353 -128c0 -47 -37 -104 -87 -134l-11 13c31 28 50 62 56 92c-29 3 -46 21 -46 43c0 23 19 41 41 41c28 0 47 -23 47 -55zM584 683h-248v-683h-57v683h-249v50h554v-50z" />
    <glyph glyph-name="tcommaaccent" unicode="&#x163;" horiz-adv-x="293" 
d="M214 -128c0 -47 -37 -104 -87 -134l-11 13c31 28 50 62 56 92c-29 3 -46 21 -46 43c0 23 19 41 41 41c28 0 47 -23 47 -55zM275 369h-132v-262c0 -45 24 -66 70 -66c16 0 30 2 45 5l5 -47c-22 -4 -41 -7 -63 -7c-72 0 -111 37 -111 119v258h-71v13l71 39v90l54 40v-133
h132v-49z" />
    <glyph glyph-name="Thorn" unicode="&#xde;" horiz-adv-x="555" 
d="M520 376c0 -147 -107 -251 -287 -251c-27 0 -65 3 -90 6v-131h-56v733h56v-127c31 3 62 4 95 4c189 0 282 -109 282 -234zM460 373c0 98 -74 186 -216 186c-35 0 -71 -3 -101 -7v-370c26 -3 62 -7 92 -7c147 0 225 83 225 198z" />
    <glyph glyph-name="thorn" unicode="&#xfe;" horiz-adv-x="506" 
d="M463 210c0 -126 -88 -218 -209 -218c-52 0 -99 18 -136 43v-251h-55v949h53v-366c34 33 84 59 147 59c113 0 200 -91 200 -216zM408 209c0 96 -63 169 -153 169c-58 0 -105 -26 -137 -63v-220c33 -33 80 -56 136 -56c89 0 154 68 154 170z" />
    <glyph glyph-name="Uacute" unicode="&#xda;" horiz-adv-x="708" 
d="M628 266c0 -172 -109 -276 -275 -276c-170 0 -272 99 -272 276v467h56v-466c0 -150 85 -226 216 -226s218 78 218 226v466h57v-467zM520 881l-192 -99l-18 31l181 123z" />
    <glyph glyph-name="uacute" unicode="&#xfa;" 
d="M400 574l-192 -99l-18 31l181 123zM411 0h-53v69c-37 -39 -98 -77 -158 -77c-97 0 -141 61 -141 145v281h56v-269c0 -70 30 -109 97 -109c53 0 105 35 144 78v300h55v-418z" />
    <glyph glyph-name="Ubreve" unicode="&#x16c;" horiz-adv-x="708" 
d="M628 266c0 -172 -109 -276 -275 -276c-170 0 -272 99 -272 276v467h56v-466c0 -150 85 -226 216 -226s218 78 218 226v466h57v-467zM477 912c0 -63 -45 -118 -122 -118c-76 0 -121 55 -122 118l51 5c1 -49 27 -79 71 -79s70 30 71 79z" />
    <glyph glyph-name="ubreve" unicode="&#x16d;" 
d="M411 0h-53v69c-37 -39 -98 -77 -158 -77c-97 0 -141 61 -141 145v281h56v-269c0 -70 30 -109 97 -109c53 0 105 35 144 78v300h55v-418zM357 605c0 -63 -45 -118 -122 -118c-76 0 -121 55 -122 118l51 5c1 -49 27 -79 71 -79s70 30 71 79z" />
    <glyph glyph-name="Ucircumflex" unicode="&#xdb;" horiz-adv-x="708" 
d="M628 266c0 -172 -109 -276 -275 -276c-170 0 -272 99 -272 276v467h56v-466c0 -150 85 -226 216 -226s218 78 218 226v466h57v-467zM490 794h-59l-79 98l-75 -98h-58l121 149h30z" />
    <glyph glyph-name="ucircumflex" unicode="&#xfb;" 
d="M370 487h-59l-79 98l-75 -98h-58l121 149h30zM411 0h-53v69c-37 -39 -98 -77 -158 -77c-97 0 -141 61 -141 145v281h56v-269c0 -70 30 -109 97 -109c53 0 105 35 144 78v300h55v-418z" />
    <glyph glyph-name="Udieresis" unicode="&#xdc;" horiz-adv-x="708" 
d="M628 266c0 -172 -109 -276 -275 -276c-170 0 -272 99 -272 276v467h56v-466c0 -150 85 -226 216 -226s218 78 218 226v466h57v-467zM482 850c0 -23 -19 -42 -42 -42c-24 0 -43 19 -43 42s19 43 43 43c23 0 42 -20 42 -43zM311 850c0 -23 -19 -42 -42 -42s-42 19 -42 42
s19 43 42 43s42 -20 42 -43z" />
    <glyph glyph-name="udieresis" unicode="&#xfc;" 
d="M362 543c0 -23 -19 -42 -42 -42c-24 0 -43 19 -43 42s19 43 43 43c23 0 42 -20 42 -43zM191 543c0 -23 -19 -42 -42 -42s-42 19 -42 42s19 43 42 43s42 -20 42 -43zM411 0h-53v69c-37 -39 -98 -77 -158 -77c-97 0 -141 61 -141 145v281h56v-269c0 -70 30 -109 97 -109
c53 0 105 35 144 78v300h55v-418z" />
    <glyph glyph-name="Ugrave" unicode="&#xd9;" horiz-adv-x="708" 
d="M628 266c0 -172 -109 -276 -275 -276c-170 0 -272 99 -272 276v467h56v-466c0 -150 85 -226 216 -226s218 78 218 226v466h57v-467zM396 812l-19 -30l-192 99l31 54z" />
    <glyph glyph-name="ugrave" unicode="&#xf9;" 
d="M411 0h-53v69c-37 -39 -98 -77 -158 -77c-97 0 -141 61 -141 145v281h56v-269c0 -70 30 -109 97 -109c53 0 105 35 144 78v300h55v-418zM277 505l-19 -30l-192 99l31 54z" />
    <glyph glyph-name="Uhungarumlaut" unicode="&#x170;" horiz-adv-x="708" 
d="M628 266c0 -172 -109 -276 -275 -276c-170 0 -272 99 -272 276v467h56v-466c0 -150 85 -226 216 -226s218 78 218 226v466h57v-467zM406 948l-110 -160l-28 18l88 173zM536 934l-108 -157l-28 18l86 170z" />
    <glyph glyph-name="uhungarumlaut" unicode="&#x171;" 
d="M411 0h-53v69c-37 -39 -98 -77 -158 -77c-97 0 -141 61 -141 145v281h56v-269c0 -70 30 -109 97 -109c53 0 105 35 144 78v300h55v-418zM286 641l-110 -160l-28 18l88 173zM416 627l-108 -157l-28 18l86 170z" />
    <glyph glyph-name="Umacron" unicode="&#x16a;" horiz-adv-x="708" 
d="M628 266c0 -172 -109 -276 -275 -276c-170 0 -272 99 -272 276v467h56v-466c0 -150 85 -226 216 -226s218 78 218 226v466h57v-467zM499 819h-287v48h287v-48z" />
    <glyph glyph-name="umacron" unicode="&#x16b;" 
d="M411 0h-53v69c-37 -39 -98 -77 -158 -77c-97 0 -141 61 -141 145v281h56v-269c0 -70 30 -109 97 -109c53 0 105 35 144 78v300h55v-418zM379 512h-287v48h287v-48z" />
    <glyph glyph-name="Uogonek" unicode="&#x172;" horiz-adv-x="708" 
d="M628 266c0 -160 -94 -261 -241 -274c-44 -50 -73 -92 -73 -129c0 -27 16 -43 38 -43c23 0 39 12 56 34l24 -23c-23 -31 -49 -50 -87 -50c-47 -1 -78 30 -78 76c1 42 23 80 73 133c-162 5 -259 103 -259 276v467h56v-466c0 -150 85 -226 216 -226s218 78 218 226v466h57
v-467z" />
    <glyph glyph-name="uogonek" unicode="&#x173;" 
d="M411 0h-10c-49 -53 -81 -98 -81 -137c0 -27 16 -43 38 -43c23 0 39 12 56 34l24 -23c-23 -31 -49 -50 -87 -50c-47 -1 -78 30 -78 76c1 45 27 85 85 145v67c-37 -39 -98 -77 -158 -77c-97 0 -141 61 -141 145v281h56v-269c0 -70 30 -109 97 -109c53 0 105 35 144 78v300
h55v-418z" />
    <glyph glyph-name="Uring" unicode="&#x16e;" horiz-adv-x="708" 
d="M628 266c0 -172 -109 -276 -275 -276c-170 0 -272 99 -272 276v467h56v-466c0 -150 85 -226 216 -226s218 78 218 226v466h57v-467zM457 893c0 -56 -41 -101 -103 -101c-61 0 -103 45 -103 101c0 55 42 101 103 101c62 0 103 -46 103 -101zM416 893c0 38 -26 66 -62 66
c-35 0 -61 -27 -61 -66c0 -38 26 -66 61 -66c36 0 62 28 62 66z" />
    <glyph glyph-name="uring" unicode="&#x16f;" 
d="M337 586c0 -56 -41 -101 -103 -101c-61 0 -103 45 -103 101c0 55 42 101 103 101c62 0 103 -46 103 -101zM296 586c0 38 -26 66 -62 66c-35 0 -61 -27 -61 -66c0 -38 26 -66 61 -66c36 0 62 28 62 66zM411 0h-53v69c-37 -39 -98 -77 -158 -77c-97 0 -141 61 -141 145v281
h56v-269c0 -70 30 -109 97 -109c53 0 105 35 144 78v300h55v-418z" />
    <glyph glyph-name="Wacute" unicode="&#x1e82;" horiz-adv-x="952" 
d="M641 894l-192 -99l-18 31l181 123zM918 733l-192 -743l-14 -2l-237 627l-235 -627l-14 2l-192 743h56l154 -601l227 605h10l229 -603l153 599h55z" />
    <glyph glyph-name="wacute" unicode="&#x1e83;" horiz-adv-x="611" 
d="M472 574l-192 -99l-18 31l181 123zM593 418l-140 -430h-10l-134 324l-137 -324h-10l-141 430h60l94 -314l128 314h10l131 -314l90 314h59z" />
    <glyph glyph-name="Wcircumflex" unicode="&#x174;" horiz-adv-x="952" 
d="M611 807h-59l-79 98l-75 -98h-58l121 149h30zM918 733l-192 -743l-14 -2l-237 627l-235 -627l-14 2l-192 743h56l154 -601l227 605h10l229 -603l153 599h55z" />
    <glyph glyph-name="wcircumflex" unicode="&#x175;" horiz-adv-x="611" 
d="M442 487h-59l-79 98l-75 -98h-58l121 149h30zM593 418l-140 -430h-10l-134 324l-137 -324h-10l-141 430h60l94 -314l128 314h10l131 -314l90 314h59z" />
    <glyph glyph-name="Wdieresis" unicode="&#x1e84;" horiz-adv-x="952" 
d="M604 863c0 -23 -19 -42 -42 -42c-24 0 -43 19 -43 42s19 43 43 43c23 0 42 -20 42 -43zM433 863c0 -23 -19 -42 -42 -42s-42 19 -42 42s19 43 42 43s42 -20 42 -43zM918 733l-192 -743l-14 -2l-237 627l-235 -627l-14 2l-192 743h56l154 -601l227 605h10l229 -603
l153 599h55z" />
    <glyph glyph-name="wdieresis" unicode="&#x1e85;" horiz-adv-x="611" 
d="M434 543c0 -23 -19 -42 -42 -42c-24 0 -43 19 -43 42s19 43 43 43c23 0 42 -20 42 -43zM263 543c0 -23 -19 -42 -42 -42s-42 19 -42 42s19 43 42 43s42 -20 42 -43zM593 418l-140 -430h-10l-134 324l-137 -324h-10l-141 430h60l94 -314l128 314h10l131 -314l90 314h59z
" />
    <glyph glyph-name="Wgrave" unicode="&#x1e80;" horiz-adv-x="952" 
d="M918 733l-192 -743l-14 -2l-237 627l-235 -627l-14 2l-192 743h56l154 -601l227 605h10l229 -603l153 599h55zM518 825l-19 -30l-192 99l31 54z" />
    <glyph glyph-name="wgrave" unicode="&#x1e81;" horiz-adv-x="611" 
d="M593 418l-140 -430h-10l-134 324l-137 -324h-10l-141 430h60l94 -314l128 314h10l131 -314l90 314h59zM348 505l-19 -30l-192 99l31 54z" />
    <glyph glyph-name="Yacute" unicode="&#xdd;" horiz-adv-x="626" 
d="M597 733l-256 -404v-329h-56v330l-256 403h63l223 -356l220 356h62zM478 881l-192 -99l-18 31l181 123z" />
    <glyph glyph-name="yacute" unicode="&#xfd;" horiz-adv-x="427" 
d="M420 418l-295 -634h-56l118 244l-179 390h61l145 -334l146 334h60zM378 574l-192 -99l-18 31l181 123z" />
    <glyph glyph-name="Ycircumflex" unicode="&#x176;" horiz-adv-x="626" 
d="M597 733l-256 -404v-329h-56v330l-256 403h63l223 -356l220 356h62zM448 794h-59l-79 98l-75 -98h-58l121 149h30z" />
    <glyph glyph-name="ycircumflex" unicode="&#x177;" horiz-adv-x="427" 
d="M420 418l-295 -634h-56l118 244l-179 390h61l145 -334l146 334h60zM349 487h-59l-79 98l-75 -98h-58l121 149h30z" />
    <glyph glyph-name="Ydieresis" unicode="&#x178;" horiz-adv-x="626" 
d="M597 733l-256 -404v-329h-56v330l-256 403h63l223 -356l220 356h62zM440 850c0 -23 -19 -42 -42 -42c-24 0 -43 19 -43 42s19 43 43 43c23 0 42 -20 42 -43zM269 850c0 -23 -19 -42 -42 -42s-42 19 -42 42s19 43 42 43s42 -20 42 -43z" />
    <glyph glyph-name="ydieresis" unicode="&#xff;" horiz-adv-x="427" 
d="M420 418l-295 -634h-56l118 244l-179 390h61l145 -334l146 334h60zM341 543c0 -23 -19 -42 -42 -42c-24 0 -43 19 -43 42s19 43 43 43c23 0 42 -20 42 -43zM170 543c0 -23 -19 -42 -42 -42s-42 19 -42 42s19 43 42 43s42 -20 42 -43z" />
    <glyph glyph-name="Ygrave" unicode="&#x1ef2;" horiz-adv-x="626" 
d="M597 733l-256 -404v-329h-56v330l-256 403h63l223 -356l220 356h62zM354 812l-19 -30l-192 99l31 54z" />
    <glyph glyph-name="ygrave" unicode="&#x1ef3;" horiz-adv-x="427" 
d="M420 418l-295 -634h-56l118 244l-179 390h61l145 -334l146 334h60zM255 505l-19 -30l-192 99l31 54z" />
    <glyph glyph-name="Zacute" unicode="&#x179;" horiz-adv-x="631" 
d="M480 894l-192 -99l-18 31l181 123zM580 723l-446 -672h441v-51h-525l-4 10l445 673h-420v50h504z" />
    <glyph glyph-name="zacute" unicode="&#x17a;" horiz-adv-x="397" 
d="M362 574l-192 -99l-18 31l181 123zM376 408l-276 -360h270v-48h-352l-4 9l276 361h-256v48h338z" />
    <glyph glyph-name="Zcaron" unicode="&#x17d;" horiz-adv-x="631" 
d="M450 951l-122 -149h-29l-120 149h59l78 -98l76 98h58zM580 723l-446 -672h441v-51h-525l-4 10l445 673h-420v50h504z" />
    <glyph glyph-name="zcaron" unicode="&#x17e;" horiz-adv-x="397" 
d="M333 631l-122 -149h-29l-120 149h59l78 -98l76 98h58zM376 408l-276 -360h270v-48h-352l-4 9l276 361h-256v48h338z" />
    <glyph glyph-name="Zdotaccent" unicode="&#x17b;" horiz-adv-x="631" 
d="M580 723l-446 -672h441v-51h-525l-4 10l445 673h-420v50h504zM272 863c0 23 19 43 42 43c24 0 43 -20 43 -43s-19 -42 -43 -42c-23 0 -42 19 -42 42z" />
    <glyph glyph-name="zdotaccent" unicode="&#x17c;" horiz-adv-x="397" 
d="M376 408l-276 -360h270v-48h-352l-4 9l276 361h-256v48h338zM155 543c0 23 19 43 42 43c24 0 43 -20 43 -43s-19 -42 -43 -42c-23 0 -42 19 -42 42z" />
    <glyph glyph-name="schwa" unicode="&#x259;" horiz-adv-x="461" 
d="M39 193c0 9 0 17 2 27h323c-5 89 -56 156 -171 156c-39 0 -81 -10 -119 -25c0 0 -11 48 -11 47c42 16 92 27 133 27c148 0 223 -95 223 -216c0 -118 -75 -218 -199 -218c-118 0 -181 88 -181 202zM362 176h-270c5 -77 46 -137 132 -137c80 0 129 55 138 137z" />
    <glyph glyph-name="germandbls" unicode="&#xdf;" horiz-adv-x="468" 
d="M434 408l-150 -188c100 -5 154 -67 154 -146c0 -108 -84 -168 -194 -168c-24 0 -45 2 -67 7l7 48c20 -4 39 -6 59 -6c87 0 141 43 141 117c0 62 -47 106 -134 106c-14 0 -29 -1 -44 -3l-5 12l144 182h-223v-369h-55v555c0 123 54 185 149 185c22 0 44 -2 64 -10l-10 -48
c-14 5 -34 8 -49 8c-67 0 -99 -36 -99 -128v-144h308z" />
    <glyph glyph-name="zero" unicode="0" horiz-adv-x="522" 
d="M480 288c0 -162 -79 -297 -219 -297c-141 0 -217 135 -217 297c0 163 79 298 219 298s217 -135 217 -298zM422 288c0 136 -53 250 -160 250s-161 -114 -161 -250c0 -135 54 -248 161 -248s160 113 160 248z" />
    <glyph glyph-name="one" unicode="1" horiz-adv-x="333" 
d="M213 0h-55v516l-102 -36l-17 48l165 61h9v-589z" />
    <glyph glyph-name="two" unicode="2" horiz-adv-x="436" 
d="M383 0h-364l-4 9c100 105 167 177 213 234c55 65 88 115 88 175c0 71 -49 117 -126 117c-41 0 -90 -14 -132 -42l-16 46c43 28 97 47 147 47c114 0 184 -68 184 -163c0 -66 -35 -125 -98 -201c-41 -48 -91 -104 -157 -172h265v-50z" />
    <glyph glyph-name="three" unicode="3" horiz-adv-x="422" 
d="M387 567l-210 -240c6 1 10 1 15 1c109 -8 182 -71 182 -166c0 -98 -77 -172 -195 -172c-54 0 -95 9 -147 27l16 47c48 -16 87 -25 128 -25c90 0 143 50 143 124c0 76 -61 122 -160 122c-24 0 -47 -2 -69 -6l-6 9l209 238h-259v50h348z" />
    <glyph glyph-name="four" unicode="4" horiz-adv-x="476" 
d="M454 173h-96v-174h-52v174h-288v14l325 400h15v-365h96v-49zM306 222v246l-200 -246h200z" />
    <glyph glyph-name="five" unicode="5" horiz-adv-x="458" 
d="M404 176c0 -104 -76 -185 -197 -185c-53 0 -102 12 -149 29l16 46c38 -15 82 -26 130 -26c92 0 145 56 145 135c0 72 -51 124 -149 124c-44 0 -80 -5 -111 -13l-7 8v283h297v-50h-244v-183c17 3 41 5 66 5c133 0 203 -74 203 -173z" />
    <glyph glyph-name="six" unicode="6" horiz-adv-x="477" 
d="M428 186c0 -103 -75 -195 -190 -195c-113 0 -190 85 -190 205c0 140 87 286 314 401l24 -43c-135 -67 -226 -151 -264 -251c31 38 73 59 131 59c98 0 175 -73 175 -176zM374 179c0 84 -55 139 -133 139c-84 0 -137 -58 -137 -135c0 -82 57 -144 134 -144
c79 0 136 60 136 140z" />
    <glyph glyph-name="seven" unicode="7" horiz-adv-x="407" 
d="M388 577l-257 -577h-54l237 527h-292v50h366z" />
    <glyph glyph-name="eight" unicode="8" horiz-adv-x="464" 
d="M408 154c0 -91 -73 -163 -177 -163s-175 72 -175 163c0 64 40 117 99 141c-55 26 -88 75 -88 135c0 88 68 156 164 156c98 0 165 -68 165 -156c0 -60 -33 -109 -88 -135c60 -24 100 -77 100 -141zM343 429c0 62 -44 111 -112 111c-66 0 -111 -50 -111 -111
s45 -112 111 -112c68 0 112 51 112 112zM353 155c0 66 -52 117 -122 117c-69 0 -120 -51 -120 -117c0 -68 51 -118 120 -118c70 0 122 50 122 118z" />
    <glyph glyph-name="nine" unicode="9" horiz-adv-x="470" 
d="M425 382c0 -140 -86 -287 -313 -402l-24 43c135 67 222 150 262 249c-27 -32 -67 -54 -122 -54c-99 0 -180 72 -180 176c0 106 79 192 190 192c115 0 187 -86 187 -204zM369 398c0 82 -55 141 -132 141c-79 0 -134 -58 -134 -138c0 -84 53 -137 132 -137
c83 0 134 57 134 134z" />
    <glyph glyph-name="zero.lin" horiz-adv-x="657" 
d="M597 366c0 -212 -99 -376 -270 -376c-170 0 -267 164 -267 376c0 213 99 378 270 378c170 0 267 -165 267 -378zM537 366c0 189 -77 327 -209 327c-133 0 -208 -138 -208 -327c0 -188 77 -326 209 -326c133 0 208 138 208 326z" />
    <glyph glyph-name="one.lin" horiz-adv-x="388" 
d="M248 0h-56v673l-129 -44l-16 46l189 68h12v-743z" />
    <glyph glyph-name="two.lin" horiz-adv-x="552" 
d="M485 0h-460l-5 13c127 133 206 221 267 292c81 95 119 164 119 234c0 88 -61 152 -163 152c-59 0 -119 -22 -170 -55l-18 48c58 38 125 60 187 60c138 0 224 -84 224 -204c0 -85 -51 -161 -130 -256c-53 -63 -128 -142 -214 -233h363v-51z" />
    <glyph glyph-name="three.lin" horiz-adv-x="535" 
d="M473 216c0 -126 -97 -226 -247 -226c-68 0 -120 12 -185 35l20 47c61 -22 109 -32 163 -32c117 0 194 73 194 174c0 94 -87 159 -216 159c-28 0 -59 -4 -86 -8l-9 12l282 306h-346v50h438l6 -12l-280 -302c155 -2 266 -70 266 -203z" />
    <glyph glyph-name="four.lin" horiz-adv-x="602" 
d="M574 223h-122v-223h-55v223h-372v16l410 506h17v-474h122v-48zM397 271v355l-286 -355h286z" />
    <glyph glyph-name="five.lin" horiz-adv-x="558" 
d="M496 218c0 -130 -102 -228 -248 -228c-65 0 -126 13 -184 34l20 49c47 -18 101 -32 160 -32c120 0 195 73 195 174c0 96 -73 170 -201 170c-51 0 -104 -8 -136 -15l-7 9v354h371v-50h-315v-256c25 5 57 8 92 8c160 0 253 -92 253 -217z" />
    <glyph glyph-name="six.lin" horiz-adv-x="595" 
d="M541 232c0 -131 -96 -243 -240 -243c-143 0 -239 105 -239 257c0 175 109 362 400 516l28 -47c-175 -88 -300 -207 -349 -336c37 47 101 79 174 79c129 0 226 -95 226 -226zM483 227c0 109 -75 183 -179 183c-110 0 -183 -79 -183 -178c0 -109 77 -192 181 -192
c106 0 181 79 181 187z" />
    <glyph glyph-name="seven.lin" horiz-adv-x="507" 
d="M490 733l-317 -733h-59l300 683h-389v50h465z" />
    <glyph glyph-name="eight.lin" horiz-adv-x="563" 
d="M504 193c0 -114 -92 -203 -222 -203s-222 89 -222 203c0 81 51 149 127 179c-70 32 -113 99 -113 174c0 112 86 198 208 198s208 -84 208 -197c0 -75 -43 -143 -114 -175c77 -30 128 -98 128 -179zM434 545c0 86 -59 151 -153 151s-152 -65 -152 -151
c0 -83 59 -150 153 -150c93 0 152 67 152 150zM446 196c0 89 -69 155 -165 155c-95 0 -163 -66 -163 -155c0 -91 69 -157 164 -157c96 0 164 66 164 157z" />
    <glyph glyph-name="nine.lin" horiz-adv-x="590" 
d="M53 505c0 132 98 239 239 239c145 0 238 -105 238 -255c0 -174 -111 -364 -401 -517l-28 47c174 88 297 205 347 333c-32 -41 -95 -72 -166 -72c-128 0 -229 92 -229 225zM110 510c0 -109 75 -182 179 -182c110 0 180 79 180 177c0 109 -74 190 -178 190
c-106 0 -181 -78 -181 -185z" />
    <glyph glyph-name="fraction" unicode="&#x2044;" horiz-adv-x="549" 
d="M533 565l-482 -582l-35 28l482 581z" />
    <glyph glyph-name="fraction.lin" horiz-adv-x="678" 
d="M662 721l-608 -733l-37 30l607 733z" />
    <glyph glyph-name="period" unicode="." horiz-adv-x="182" 
d="M48 36c0 24 19 43 43 43c25 0 44 -19 44 -43c0 -25 -19 -44 -44 -44c-24 0 -43 19 -43 44z" />
    <glyph glyph-name="comma" unicode="," horiz-adv-x="182" 
d="M138 23c0 -49 -38 -107 -89 -137l-11 13c32 29 51 63 57 94c-29 3 -47 23 -47 45c0 23 19 41 42 41c28 0 48 -23 48 -56z" />
    <glyph glyph-name="colon" unicode=":" horiz-adv-x="182" 
d="M48 36c0 24 19 43 43 43c25 0 44 -19 44 -43c0 -25 -19 -44 -44 -44c-24 0 -43 19 -43 44zM47 323c0 24 20 44 44 44s44 -20 44 -44s-20 -43 -44 -43s-44 19 -44 43z" />
    <glyph glyph-name="semicolon" unicode=";" horiz-adv-x="182" 
d="M138 23c0 -49 -38 -107 -89 -137l-11 13c32 29 51 63 57 94c-29 3 -47 23 -47 45c0 23 19 41 42 41c28 0 48 -23 48 -56zM47 323c0 24 20 44 44 44s44 -20 44 -44s-20 -43 -44 -43s-44 19 -44 43z" />
    <glyph glyph-name="ellipsis" unicode="&#x2026;" horiz-adv-x="605" 
d="M59 36c0 24 20 43 44 43s44 -19 44 -43c0 -25 -20 -44 -44 -44s-44 19 -44 44zM259 36c0 24 20 43 44 43s44 -19 44 -43c0 -25 -20 -44 -44 -44s-44 19 -44 44zM459 36c0 24 20 43 44 43s44 -19 44 -43c0 -25 -20 -44 -44 -44s-44 19 -44 44z" />
    <glyph glyph-name="periodcentered" unicode="&#xb7;" horiz-adv-x="222" 
d="M68 370c0 24 19 43 43 43c25 0 44 -19 44 -43c0 -25 -19 -44 -44 -44c-24 0 -43 19 -43 44z" />
    <glyph glyph-name="bullet" unicode="&#x2022;" horiz-adv-x="351" 
d="M292 366c0 -65 -52 -119 -116 -119c-65 0 -116 54 -116 119c0 66 51 119 116 119c64 0 116 -53 116 -119z" />
    <glyph glyph-name="ampersand" unicode="&#x26;" horiz-adv-x="595" 
d="M519 280l39 -28c-33 -44 -71 -95 -112 -139c35 -31 70 -62 104 -90l-33 -38c-33 27 -70 59 -107 93c-55 -51 -116 -86 -185 -86c-101 0 -175 59 -175 156c0 80 54 131 140 168c-27 42 -45 84 -45 123c0 84 70 146 142 146c85 0 131 -63 131 -121
c0 -67 -46 -125 -151 -167c33 -44 86 -99 144 -152c41 42 77 92 108 135zM367 460c0 42 -31 81 -81 81c-46 0 -88 -43 -88 -100c0 -33 17 -70 42 -109c97 39 127 79 127 128zM375 109c-62 59 -122 120 -160 170c-68 -26 -110 -71 -110 -132c0 -64 50 -108 122 -108
c53 0 102 29 148 70z" />
    <glyph glyph-name="ampersand.cap" horiz-adv-x="729" 
d="M282 413c116 41 179 93 179 173c0 58 -41 109 -110 109c-67 0 -119 -57 -119 -132c0 -48 17 -98 50 -150zM471 131c-82 73 -160 149 -214 226c-82 -34 -140 -89 -140 -170c0 -83 67 -147 165 -147c64 0 129 37 189 91zM310 373c48 -67 120 -137 198 -206
c55 57 106 125 149 184l42 -29c-44 -59 -96 -129 -153 -188c47 -40 93 -78 137 -113l-34 -39c-42 36 -91 75 -140 117c-69 -64 -145 -109 -228 -109c-124 0 -222 78 -222 197c0 102 71 169 171 209c-33 55 -53 110 -53 164c0 106 84 183 175 183c107 0 164 -79 164 -155
c0 -101 -77 -165 -206 -215z" />
    <glyph glyph-name="exclam" unicode="!" horiz-adv-x="203" 
d="M132 733l-9 -551h-43l-8 551h60zM146 36c0 -25 -20 -44 -44 -44s-44 19 -44 44c0 24 20 43 44 43s44 -19 44 -43z" />
    <glyph glyph-name="exclamdown" unicode="&#xa1;" horiz-adv-x="203" 
d="M58 698c0 25 19 44 44 44c24 0 43 -19 43 -44c0 -24 -19 -43 -43 -43c-25 0 -44 19 -44 43zM72 1l8 551h43l9 -551h-60z" />
    <glyph glyph-name="question" unicode="?" horiz-adv-x="384" 
d="M359 574c0 -148 -192 -177 -192 -291c-1 0 0 -80 0 -80h-52s-1 89 0 91c0 127 187 159 187 278c0 68 -47 116 -138 116c-49 0 -87 -14 -127 -34l-15 49c45 21 89 37 146 37c127 0 191 -73 191 -166zM185 36c0 -25 -20 -44 -44 -44s-44 19 -44 44c0 24 20 43 44 43
s44 -19 44 -43z" />
    <glyph glyph-name="questiondown" unicode="&#xbf;" horiz-adv-x="384" 
d="M26 160c0 148 192 177 192 291v80h52v-91c0 -127 -188 -159 -188 -278c0 -68 47 -116 139 -116c49 0 87 14 126 34l16 -49c-45 -21 -89 -38 -146 -38c-127 0 -191 74 -191 167zM200 698c0 25 19 44 44 44c24 0 43 -19 43 -44c0 -24 -19 -43 -43 -43c-25 0 -44 19 -44 43z
" />
    <glyph glyph-name="quotedblleft" unicode="&#x201c;" horiz-adv-x="292" 
d="M255 597c0 -23 -19 -41 -41 -41c-29 0 -48 23 -48 56c0 49 37 106 88 137l11 -13c-31 -30 -51 -64 -57 -95c30 -3 47 -22 47 -44zM121 597c0 -23 -19 -41 -41 -41c-29 0 -48 23 -48 56c0 49 37 106 88 137l11 -13c-31 -30 -51 -64 -57 -95c30 -3 47 -22 47 -44z" />
    <glyph glyph-name="quotedblright" unicode="&#x201d;" horiz-adv-x="292" 
d="M261 687c0 -48 -38 -106 -89 -136l-11 13c32 29 51 63 57 94c-29 3 -47 22 -47 45s19 41 42 41c28 0 48 -24 48 -57zM127 687c0 -48 -38 -106 -89 -136l-11 13c32 29 51 63 57 94c-29 3 -47 22 -47 45s19 41 42 41c28 0 48 -24 48 -57z" />
    <glyph glyph-name="quoteleft" unicode="&#x2018;" horiz-adv-x="158" 
d="M121 597c0 -23 -19 -41 -41 -41c-29 0 -48 23 -48 56c0 49 37 106 88 137l11 -13c-31 -30 -51 -64 -57 -95c30 -3 47 -22 47 -44z" />
    <glyph glyph-name="quoteright" unicode="&#x2019;" horiz-adv-x="158" 
d="M127 687c0 -48 -38 -106 -89 -136l-11 13c32 29 51 63 57 94c-29 3 -47 22 -47 45s19 41 42 41c28 0 48 -24 48 -57z" />
    <glyph glyph-name="quotedblbase" unicode="&#x201e;" horiz-adv-x="292" 
d="M260 23c0 -49 -37 -107 -88 -137l-11 13c32 29 51 63 57 94c-29 3 -47 23 -47 45c0 23 19 41 42 41c28 0 47 -23 47 -56zM127 23c0 -49 -38 -107 -89 -137l-11 13c32 29 51 63 57 94c-29 3 -47 23 -47 45c0 23 19 41 42 41c28 0 48 -23 48 -56z" />
    <glyph glyph-name="quotesinglbase" unicode="&#x201a;" horiz-adv-x="158" 
d="M127 23c0 -49 -38 -107 -89 -137l-11 13c32 29 51 63 57 94c-29 3 -47 23 -47 45c0 23 19 41 42 41c28 0 48 -23 48 -56z" />
    <glyph glyph-name="guillemotleft" unicode="&#xab;" horiz-adv-x="402" 
d="M357 9h-58l-105 164l105 163h58l-108 -163zM212 9h-58l-105 164l105 163h58l-108 -163z" />
    <glyph glyph-name="guillemotright" unicode="&#xbb;" horiz-adv-x="402" 
d="M353 173l-105 -164h-58l108 164l-108 163h58zM208 173l-105 -164h-58l108 164l-108 163h58z" />
    <glyph glyph-name="guilsinglleft" unicode="&#x2039;" horiz-adv-x="257" 
d="M212 9h-58l-105 164l105 163h58l-108 -163z" />
    <glyph glyph-name="guilsinglright" unicode="&#x203a;" horiz-adv-x="257" 
d="M208 173l-105 -164h-58l108 164l-108 163h58z" />
    <glyph glyph-name="guillemotleft.cap" horiz-adv-x="402" 
d="M357 207h-58l-105 164l105 163h58l-108 -163zM212 207h-58l-105 164l105 163h58l-108 -163z" />
    <glyph glyph-name="guillemotright.cap" horiz-adv-x="402" 
d="M353 371l-105 -164h-58l108 164l-108 163h58zM208 371l-105 -164h-58l108 164l-108 163h58z" />
    <glyph glyph-name="guilsinglleft.cap" horiz-adv-x="257" 
d="M212 207h-58l-105 164l105 163h58l-108 -163z" />
    <glyph glyph-name="guilsinglright.cap" horiz-adv-x="257" 
d="M208 371l-105 -164h-58l108 164l-108 163h58z" />
    <glyph glyph-name="hyphen" unicode="-" horiz-adv-x="339" 
d="M289 218h-239v49h239v-49z" />
    <glyph glyph-name="endash" unicode="&#x2013;" horiz-adv-x="500" 
d="M450 218h-400v49h400v-49z" />
    <glyph glyph-name="emdash" unicode="&#x2014;" horiz-adv-x="750" 
d="M700 218h-650v49h650v-49z" />
    <glyph glyph-name="hyphen.cap" horiz-adv-x="339" 
d="M289 347h-239v49h239v-49z" />
    <glyph glyph-name="endash.cap" horiz-adv-x="500" 
d="M450 347h-400v49h400v-49z" />
    <glyph glyph-name="emdash.cap" horiz-adv-x="750" 
d="M700 347h-650v49h650v-49z" />
    <glyph glyph-name="slash" unicode="/" horiz-adv-x="319" 
d="M318 733l-238 -949h-52l239 949h51z" />
    <glyph glyph-name="backslash" unicode="\" horiz-adv-x="319" 
d="M291 -216h-52l-238 949h51z" />
    <glyph glyph-name="bar" unicode="|" horiz-adv-x="231" 
d="M140 -217h-50v949h50v-949z" />
    <glyph glyph-name="slash.cap" horiz-adv-x="319" 
d="M305 839l-238 -949h-52l239 949h51z" />
    <glyph glyph-name="backslash.cap" horiz-adv-x="319" 
d="M305 -110h-52l-238 949h51z" />
    <glyph glyph-name="bar.cap" horiz-adv-x="231" 
d="M140 -110h-50v949h50v-949z" />
    <glyph glyph-name="parenleft" unicode="(" horiz-adv-x="335" 
d="M340 -186l-24 -42c-175 107 -265 298 -265 486c0 189 90 379 265 487l25 -41c-153 -94 -238 -267 -238 -446s85 -351 237 -444z" />
    <glyph glyph-name="parenright" unicode=")" horiz-adv-x="335" 
d="M284 258c0 -188 -90 -379 -265 -486l-25 42c153 93 238 265 238 444s-85 352 -238 446l25 41c175 -108 265 -298 265 -487z" />
    <glyph glyph-name="parenleft.cap" horiz-adv-x="333" 
d="M338 -80l-24 -42c-175 107 -265 298 -265 486c0 189 90 379 265 487l25 -41c-153 -94 -238 -267 -238 -446s85 -351 237 -444z" />
    <glyph glyph-name="parenright.cap" horiz-adv-x="333" 
d="M284 364c0 -188 -90 -379 -265 -486l-25 42c153 93 238 265 238 444s-85 352 -238 446l25 41c175 -108 265 -298 265 -487z" />
    <glyph glyph-name="bracketleft" unicode="[" horiz-adv-x="295" 
d="M271 -216h-191v949h191v-46h-139v-857h139v-46z" />
    <glyph glyph-name="bracketright" unicode="]" horiz-adv-x="295" 
d="M216 -216h-191v46h139v857h-139v46h191v-949z" />
    <glyph glyph-name="bracketleft.cap" horiz-adv-x="295" 
d="M271 -110h-191v949h191v-46h-139v-857h139v-46z" />
    <glyph glyph-name="bracketright.cap" horiz-adv-x="295" 
d="M216 -110h-191v46h139v857h-139v46h191v-949z" />
    <glyph glyph-name="braceleft" unicode="{" horiz-adv-x="296" 
d="M278 -223c-111 0 -168 56 -168 173v214c0 47 -14 72 -67 72h-23v47h23c53 0 67 24 67 72v211c0 117 57 174 168 174v-49c-76 0 -115 -34 -115 -123v-200c0 -61 -13 -90 -66 -109c53 -19 66 -48 66 -109v-201c0 -89 39 -123 115 -123v-49z" />
    <glyph glyph-name="braceright" unicode="}" horiz-adv-x="296" 
d="M276 236h-23c-53 0 -67 -25 -67 -72v-214c0 -117 -57 -173 -168 -173v49c76 0 116 34 116 123v201c0 61 13 90 65 109c-52 19 -65 48 -65 109v200c0 89 -40 123 -116 123v49c111 0 168 -57 168 -174v-211c0 -48 14 -72 67 -72h23v-47z" />
    <glyph glyph-name="braceleft.cap" horiz-adv-x="296" 
d="M278 -117c-111 0 -168 56 -168 173v214c0 47 -14 72 -67 72h-23v47h23c53 0 67 24 67 72v211c0 117 57 174 168 174v-49c-76 0 -115 -34 -115 -123v-200c0 -61 -13 -90 -66 -109c53 -19 66 -48 66 -109v-201c0 -89 39 -123 115 -123v-49z" />
    <glyph glyph-name="braceright.cap" horiz-adv-x="296" 
d="M276 342h-23c-53 0 -67 -25 -67 -72v-214c0 -117 -57 -173 -168 -173v49c76 0 116 34 116 123v201c0 61 13 90 65 109c-52 19 -65 48 -65 109v200c0 89 -40 123 -116 123v49c111 0 168 -57 168 -174v-211c0 -48 14 -72 67 -72h23v-47z" />
    <glyph glyph-name="at" unicode="@" horiz-adv-x="684" 
d="M635 313c0 -61 -20 -113 -57 -144c-20 -17 -46 -27 -71 -27c-34 0 -67 17 -83 50c-26 -28 -57 -47 -97 -47c-51 0 -94 30 -94 85c0 47 38 80 96 80c32 0 57 -9 78 -20v15c0 51 -25 71 -73 71c-20 0 -45 -5 -68 -13l-8 38c21 8 55 16 82 16c78 0 115 -37 115 -114v-60
c0 -46 26 -62 53 -62c18 0 33 5 44 15c23 20 38 63 38 114c0 105 -74 233 -248 233c-137 0 -245 -114 -245 -257s100 -256 275 -256c36 0 83 9 124 23c0 0 11 -41 11 -40c-48 -15 -98 -25 -137 -25c-198 0 -320 133 -320 298s131 298 292 298c197 0 293 -145 293 -271z
M407 216v37c-19 13 -44 22 -71 22c-33 0 -56 -15 -56 -44c0 -31 22 -49 56 -49c30 0 53 15 71 34z" />
    <glyph glyph-name="at.cap" horiz-adv-x="866" 
d="M802 400c0 -76 -26 -141 -72 -180c-24 -20 -57 -32 -91 -32c-42 0 -81 21 -97 64c-34 -39 -79 -62 -128 -62c-64 0 -117 36 -117 104c0 58 50 100 120 100c39 0 71 -10 103 -27v22c0 61 -23 93 -97 93c-27 0 -57 -7 -84 -17l-8 45c26 10 67 20 101 20
c97 0 142 -47 142 -142v-79c0 -56 34 -76 68 -76c22 0 43 7 58 21c28 25 50 77 50 141c0 139 -88 302 -313 302c-180 0 -319 -146 -319 -332c0 -184 124 -327 353 -327c44 0 103 11 154 28l13 -46c-59 -18 -122 -30 -169 -30c-253 0 -404 165 -404 375
c0 209 164 379 372 379c248 0 365 -181 365 -344zM520 281v41c-26 19 -61 30 -95 30c-40 0 -74 -22 -74 -58c0 -37 33 -61 74 -61c37 0 73 19 95 48z" />
    <glyph glyph-name="copyright" unicode="&#xa9;" horiz-adv-x="842" 
d="M792 366c0 -209 -166 -378 -371 -378s-371 169 -371 378s166 379 371 379s371 -170 371 -379zM744 366c0 188 -144 337 -323 337c-178 0 -322 -149 -322 -337c0 -187 144 -335 322 -335s323 148 323 335zM560 220c-33 -22 -75 -38 -124 -38c-110 0 -195 75 -195 188
c0 112 86 189 195 189c50 0 90 -16 124 -37l-17 -39c-31 19 -68 33 -108 33c-83 0 -144 -57 -144 -146s62 -145 146 -145c39 0 76 14 107 34z" />
    <glyph glyph-name="published" unicode="&#x2117;" horiz-adv-x="842" 
d="M512 431c0 43 -31 80 -93 80c-16 0 -30 -2 -45 -3v-159c13 -2 27 -3 40 -3c65 0 98 34 98 85zM561 432c0 -74 -54 -126 -146 -126c-12 0 -28 1 -41 2v-124h-46v364c29 4 56 5 84 5c98 0 149 -54 149 -121zM792 366c0 -209 -166 -378 -371 -378s-371 169 -371 378
s166 379 371 379s371 -170 371 -379zM744 366c0 188 -144 337 -323 337c-178 0 -322 -149 -322 -337c0 -187 144 -335 322 -335s323 148 323 335z" />
    <glyph glyph-name="registered.alt" horiz-adv-x="842" 
d="M421 -12c-205 0 -371 169 -371 378s166 379 371 379s371 -170 371 -379s-166 -378 -371 -378zM421 31c178 0 323 148 323 335c0 188 -144 337 -323 337c-178 0 -322 -149 -322 -337c0 -187 144 -335 322 -335zM317 184v363c28 4 54 6 87 6c98 0 146 -47 146 -112
c0 -48 -28 -87 -78 -106l100 -151h-54l-88 140c-7 -1 -18 -2 -28 -2c-13 0 -25 1 -39 1v-139h-46zM363 508v-145c12 -1 27 -2 38 -2c65 0 100 29 100 78c0 43 -33 73 -91 73c-17 0 -32 -1 -47 -4z" />
    <glyph glyph-name="registered" unicode="&#xae;" horiz-adv-x="386" 
d="M140 489v166c14 2 28 3 45 3c47 0 69 -24 69 -52c0 -22 -12 -42 -31 -50l43 -67h-33l-37 61c-5 -1 -11 -1 -13 -1c-3 0 -8 0 -15 1v-61h-28zM168 632v-59c7 -1 13 -1 18 -1c25 0 39 12 39 33c0 17 -14 28 -37 28c-7 0 -15 0 -20 -1zM193 424c79 0 142 68 142 147
c0 82 -63 148 -142 148c-78 0 -141 -66 -141 -148c0 -79 63 -147 141 -147zM193 400c-93 0 -168 77 -168 171c0 96 74 173 168 173s169 -78 169 -173c0 -93 -75 -171 -169 -171z" />
    <glyph glyph-name="trademark" unicode="&#x2122;" horiz-adv-x="481" 
d="M455 515h-35l-2 135l-70 -107h-4l-71 107l-1 -135h-36l9 221h5l96 -143l95 143h5zM193 700h-69v-185h-37v185h-68v33h174v-33z" />
    <glyph glyph-name="servicemark" unicode="&#x2120;" horiz-adv-x="447" 
d="M19 534l12 31c16 -12 36 -20 56 -20c23 0 35 13 35 29c0 17 -7 26 -43 42s-51 36 -51 62c0 33 26 59 70 59c22 0 43 -7 56 -16l-11 -31c-11 8 -28 15 -45 15c-22 0 -34 -10 -34 -26c0 -17 13 -26 41 -38c39 -18 53 -36 53 -65c0 -36 -27 -64 -71 -64c-27 0 -49 9 -68 22z
M421 515h-34l-3 136l-72 -112h-4l-72 112l-2 -136h-34l9 221h5l97 -149l95 149h5z" />
    <glyph glyph-name="asterisk" unicode="*" horiz-adv-x="369" 
d="M336 614l-121 -37l77 -98l-35 -25l-72 102l-72 -102l-35 25l76 98l-121 37l14 41l119 -42l-4 124h45l-4 -124l120 42z" />
    <glyph glyph-name="dagger" unicode="&#x2020;" horiz-adv-x="455" 
d="M415 502h-158v-346h-54v346h-160v49h160v182h54v-182h158v-49z" />
    <glyph glyph-name="daggerdbl" unicode="&#x2021;" horiz-adv-x="455" 
d="M417 312h-160v-156h-54v156h-157v48h157v169h-160v49h160v155h54v-155h158v-49h-158v-169h160v-48z" />
    <glyph glyph-name="dollar" unicode="$" horiz-adv-x="429" 
d="M225 650l44 -4l-5 -62c42 -5 80 -22 109 -41l-25 -44c-20 15 -53 31 -88 37l-18 -223c90 -41 141 -79 141 -160c0 -93 -73 -157 -166 -162l-5 -66l-44 3l5 64c-52 6 -99 27 -144 56l28 45c33 -25 77 -46 120 -52l19 235c-82 36 -138 75 -138 156s64 147 162 153zM329 149
c0 54 -38 84 -91 109l-17 -219c60 6 108 43 108 110zM111 436c0 -51 41 -81 89 -104l16 205c-72 -7 -105 -51 -105 -101z" />
    <glyph glyph-name="dollar.lin" horiz-adv-x="517" 
d="M269 825l48 -5l-6 -76c51 -6 97 -24 133 -48l-26 -46c-30 21 -69 37 -111 43l-25 -301c115 -54 178 -105 178 -204c0 -115 -94 -195 -211 -200l-7 -83l-48 4l6 81c-63 7 -120 30 -174 66l26 47c48 -32 99 -54 152 -62l26 317c-107 48 -170 101 -170 199
c0 99 82 181 202 188zM405 182c0 75 -46 115 -128 155l-24 -298c91 5 152 65 152 143zM114 561c0 -71 48 -111 121 -147l23 281c-88 -6 -144 -64 -144 -134z" />
    <glyph glyph-name="sterling" unicode="&#xa3;" horiz-adv-x="435" 
d="M417 544l-27 -46c-36 24 -70 38 -113 38c-87 0 -120 -60 -120 -146v-80h146v-48h-146v-212h259v-50h-381v50h66v212h-63v8l63 43v82c0 110 62 191 183 191c50 0 94 -18 133 -42z" />
    <glyph glyph-name="sterling.lin" horiz-adv-x="561" 
d="M525 0h-477v51h84v289h-79v13l79 41v111c0 139 73 239 227 239c64 0 117 -24 160 -55l-29 -46c-41 28 -83 48 -137 48c-114 0 -165 -70 -165 -182v-118h200v-50h-200v-290h337v-51z" />
    <glyph glyph-name="Euro" unicode="&#x20ac;" horiz-adv-x="639" 
d="M96 331h-68v49h79c38 126 155 206 290 206c75 0 140 -24 190 -55l-24 -46c-48 30 -107 51 -170 51c-105 0 -194 -58 -227 -156h303v-49h-315c-2 -14 -3 -29 -3 -45s1 -30 3 -44h315v-47h-302c34 -99 126 -154 230 -154c63 0 122 21 171 51l19 -46
c-50 -31 -114 -56 -190 -56c-138 0 -254 78 -291 205h-78v47h67c-1 14 -2 28 -2 44s1 31 3 45z" />
    <glyph glyph-name="Euro.lin" horiz-adv-x="795" 
d="M131 423h-90v49h98c44 164 190 272 368 272c98 0 174 -31 236 -69l-22 -45c-63 39 -138 64 -218 65c-144 0 -265 -86 -306 -223h403v-49h-414c-3 -19 -4 -38 -4 -58s1 -40 4 -59h414v-50h-402c43 -135 165 -216 309 -216c80 0 155 27 219 66l17 -45
c-62 -38 -140 -71 -237 -71c-179 0 -322 104 -367 266h-98v50h89c-3 19 -4 38 -4 58s2 40 5 59z" />
    <glyph glyph-name="yen" unicode="&#xa5;" horiz-adv-x="495" 
d="M468 577l-168 -266h138v-49h-162v-74h162v-48h-162v-140h-55v140h-164v48h164v74h-164v49h141l-171 266h64l159 -254l156 254h62z" />
    <glyph glyph-name="yen.lin" horiz-adv-x="652" 
d="M614 733l-233 -365h188v-49h-213v-98h213v-49h-213v-172h-54v172h-214v49h214v98h-214v49h189l-234 365h66l221 -353l220 353h64z" />
    <glyph glyph-name="cent" unicode="&#xa2;" horiz-adv-x="438" 
d="M198 -81l6 79c-99 21 -163 105 -163 208c0 118 86 210 197 219l6 75l47 -4l-6 -72c45 -4 82 -20 114 -40l-25 -43c-26 15 -56 30 -93 34l-26 -334h4c43 0 82 14 118 36l22 -43c-42 -26 -91 -42 -141 -42h-7c-3 -46 -6 -77 -6 -77zM95 208c0 -82 47 -140 113 -160l26 328
c-81 -10 -139 -74 -139 -168z" />
    <glyph glyph-name="cent.lin" horiz-adv-x="448" 
d="M198 82l6 78c-99 22 -163 106 -163 209c0 118 86 210 197 219l6 75l47 -4l-6 -72c45 -4 82 -20 114 -40l-25 -43c-26 15 -56 30 -93 34l-26 -334h4c43 0 82 14 118 36l22 -43c-42 -26 -91 -42 -141 -42h-7c-3 -47 -6 -77 -6 -77zM95 371c0 -82 47 -140 113 -160l26 328
c-81 -10 -139 -74 -139 -168z" />
    <glyph glyph-name="numbersign" unicode="#" horiz-adv-x="563" 
d="M542 417l-9 -45h-111l-38 -168h112l-10 -45h-112l-35 -159h-51l36 159h-142l-35 -159h-51l36 159h-111l10 45h111l37 168h-111l10 45h111l36 160h51l-36 -160h141l36 160h50l-35 -160h110zM371 372h-141l-38 -168h142z" />
    <glyph glyph-name="numbersign.lin" horiz-adv-x="710" 
d="M672 476h-143l-49 -221h144l-11 -49h-145l-46 -206h-51l46 206h-193l-47 -206h-52l46 206h-143l10 49h144l49 221h-144l11 48h144l47 209h52l-46 -209h192l48 209h51l-46 -209h143zM283 476l-49 -221h195l49 221h-195z" />
    <glyph glyph-name="paragraph" unicode="&#xb6;" horiz-adv-x="558" 
d="M484 0h-52v529c-23 3 -51 4 -81 5v-534h-52v164c-131 -7 -250 62 -250 196c0 135 111 226 292 226c55 0 94 -4 143 -10v-576zM299 214v319c-123 -10 -190 -75 -190 -171c0 -103 94 -155 190 -148z" />
    <glyph glyph-name="paragraph.lin" horiz-adv-x="696" 
d="M610 0h-56v685c-40 6 -79 8 -129 9h-4v-694h-56v214c-159 -10 -317 78 -317 246c0 170 140 284 366 284c76 0 128 -6 196 -14v-730zM365 263v429c-167 -13 -258 -99 -258 -229c0 -136 125 -209 258 -200z" />
    <glyph glyph-name="section" unicode="&#xa7;" horiz-adv-x="422" 
d="M377 286c0 -47 -31 -81 -75 -98c28 -17 49 -42 49 -79c0 -66 -59 -118 -148 -118c-56 0 -110 22 -150 52l27 40c32 -26 85 -47 126 -47c59 0 92 24 92 66c0 97 -242 62 -242 191c0 46 34 83 79 98c-29 16 -52 39 -52 79c0 66 63 116 146 116c54 0 102 -20 134 -42
l-25 -42c-27 20 -68 39 -110 39c-56 0 -91 -28 -91 -66c0 -87 240 -64 240 -189zM326 279c0 47 -48 62 -141 91c-42 -5 -76 -34 -76 -69c0 -51 66 -60 147 -90c38 6 70 34 70 68z" />
    <glyph glyph-name="section.lin" horiz-adv-x="507" 
d="M453 364c0 -60 -44 -103 -100 -123c36 -21 69 -55 69 -104c0 -84 -70 -147 -182 -147c-72 0 -138 28 -189 64l29 44c44 -32 105 -60 164 -60c77 0 122 37 122 90c0 123 -312 87 -312 245c0 58 44 104 102 123c-39 22 -69 52 -69 102c0 85 73 146 178 146
c69 0 130 -25 171 -54l-27 -45c-35 25 -91 51 -145 51c-74 0 -121 -35 -121 -89c0 -121 310 -85 310 -243zM398 355c0 70 -94 84 -194 119c-51 -9 -94 -47 -94 -93c0 -70 93 -83 194 -119c51 9 94 47 94 93z" />
    <glyph glyph-name="ordfeminine" unicode="&#xaa;" horiz-adv-x="349" 
d="M297 429h-49v33c-22 -22 -56 -38 -95 -38c-63 0 -114 35 -114 96c0 58 50 97 115 97c39 0 66 -10 92 -22v24c0 56 -25 82 -87 82c-25 0 -55 -6 -80 -16l-8 42c28 10 66 17 95 17c90 0 131 -43 131 -126v-189zM246 500v57c-26 15 -50 24 -83 24c-42 0 -75 -20 -75 -59
s31 -59 77 -59c34 0 62 15 81 37z" />
    <glyph glyph-name="ordmasculine" unicode="&#xba;" horiz-adv-x="380" 
d="M347 583c0 -89 -65 -161 -157 -161c-94 0 -156 72 -156 161s63 161 156 161s157 -71 157 -161zM296 583c0 69 -42 118 -106 118c-63 0 -105 -49 -105 -118s41 -118 105 -118c63 0 106 50 106 118z" />
    <glyph glyph-name="degree" unicode="&#xb0;" horiz-adv-x="372" 
d="M293 583c0 -57 -43 -104 -107 -104c-63 0 -106 47 -106 104s43 104 106 104c64 0 107 -47 107 -104zM252 583c0 39 -26 69 -66 69c-39 0 -66 -30 -66 -69s27 -69 66 -69c40 0 66 30 66 69z" />
    <glyph glyph-name="degree.lin" horiz-adv-x="363" 
d="M314 613c0 -70 -51 -131 -132 -131c-82 0 -133 61 -133 131c0 69 51 131 132 131c82 0 133 -62 133 -131zM268 613c0 51 -36 91 -87 91c-50 0 -86 -40 -86 -91c0 -52 36 -92 87 -92c50 0 86 40 86 92z" />
    <glyph glyph-name="percent" unicode="%" horiz-adv-x="642" 
d="M291 440c0 -78 -44 -146 -123 -146c-78 0 -121 68 -121 146c0 79 44 146 122 146c79 0 122 -67 122 -146zM570 566l-466 -582l-32 27l466 582zM595 137c0 -78 -44 -146 -122 -146c-79 0 -121 68 -121 146c0 79 43 146 122 146c78 0 121 -67 121 -146zM245 440
c0 57 -26 105 -76 105s-77 -48 -77 -105c0 -56 27 -104 77 -104s76 48 76 104zM550 137c0 57 -26 105 -77 105c-50 0 -76 -48 -76 -105c0 -56 26 -104 76 -104c51 0 77 48 77 104z" />
    <glyph glyph-name="perthousand" unicode="&#x2030;" horiz-adv-x="924" 
d="M245 440c0 57 -26 105 -76 105s-77 -48 -77 -105c0 -56 27 -104 77 -104s76 48 76 104zM291 440c0 -78 -44 -146 -123 -146c-78 0 -121 68 -121 146c0 79 44 146 122 146c79 0 122 -67 122 -146zM570 566l-466 -582l-32 27l466 582zM550 137c0 57 -26 105 -77 105
c-50 0 -76 -48 -76 -105c0 -56 26 -104 76 -104c51 0 77 48 77 104zM595 137c0 -78 -44 -146 -122 -146c-79 0 -121 68 -121 146c0 79 43 146 122 146c78 0 121 -67 121 -146zM832 137c0 57 -26 105 -77 105c-50 0 -76 -48 -76 -105c0 -56 26 -104 76 -104
c51 0 77 48 77 104zM877 137c0 -78 -44 -146 -122 -146c-79 0 -121 68 -121 146c0 79 43 146 122 146c78 0 121 -67 121 -146z" />
    <glyph glyph-name="percent.lin" horiz-adv-x="798" 
d="M363 560c0 -99 -55 -184 -155 -184c-99 0 -153 85 -153 184s55 184 154 184c100 0 154 -85 154 -184zM312 560c0 75 -34 138 -103 138c-67 0 -103 -63 -103 -138s35 -139 102 -139c69 0 104 64 104 139zM709 719l-586 -734l-34 29l585 734zM743 174
c0 -99 -55 -184 -155 -184c-99 0 -153 85 -153 184s55 184 154 184c100 0 154 -85 154 -184zM692 174c0 75 -34 139 -103 139c-67 0 -103 -64 -103 -139s35 -138 102 -138c69 0 104 63 104 138z" />
    <glyph glyph-name="perthousand.lin" horiz-adv-x="1154" 
d="M312 560c0 75 -34 138 -103 138c-67 0 -103 -63 -103 -138s35 -139 102 -139c69 0 104 64 104 139zM363 560c0 -99 -55 -184 -155 -184c-99 0 -153 85 -153 184s55 184 154 184c100 0 154 -85 154 -184zM709 719l-586 -734l-34 29l585 734zM692 174
c0 75 -34 139 -103 139c-67 0 -103 -64 -103 -139s35 -138 102 -138c69 0 104 63 104 138zM743 174c0 -99 -55 -184 -155 -184c-99 0 -153 85 -153 184s55 184 154 184c100 0 154 -85 154 -184zM1048 174c0 75 -34 139 -102 139s-103 -64 -103 -139s34 -138 102 -138
s103 63 103 138zM1099 174c0 -99 -54 -184 -154 -184s-153 85 -153 184s54 184 154 184s153 -85 153 -184z" />
    <glyph glyph-name="quotedbl" unicode="&#x22;" horiz-adv-x="356" 
d="M195 643l-116 -168l-31 20l92 182zM328 632l-117 -168l-32 20l93 183z" />
    <glyph glyph-name="quotedbl.cap" horiz-adv-x="345" 
d="M197 721l-116 -168l-31 20l92 182zM330 710l-117 -168l-32 20l93 183z" />
    <glyph glyph-name="quotesingle" unicode="'" horiz-adv-x="223" 
d="M195 643l-116 -168l-31 20l92 182z" />
    <glyph glyph-name="quotesingle.cap" horiz-adv-x="223" 
d="M197 721l-116 -168l-31 20l92 182z" />
    <glyph glyph-name="plus" unicode="+" horiz-adv-x="460" 
d="M400 256h-144v-151h-52v151h-144v49h144v151h52v-151h144v-49z" />
    <glyph glyph-name="plus.lin" horiz-adv-x="460" 
d="M400 347h-144v-151h-52v151h-144v49h144v151h52v-151h144v-49z" />
    <glyph glyph-name="minus" unicode="&#x2212;" horiz-adv-x="460" 
d="M60 256v49h340v-49h-340z" />
    <glyph glyph-name="minus.lin" horiz-adv-x="460" 
d="M60 347v49h340v-49h-340z" />
    <glyph glyph-name="divide" unicode="&#xf7;" horiz-adv-x="460" 
d="M60 256v49h340v-49h-340zM190 424c0 23 18 41 40 41c23 0 40 -18 40 -41c0 -21 -17 -40 -40 -40c-22 0 -40 19 -40 40zM190 135c0 23 18 41 40 41c23 0 40 -18 40 -41c0 -21 -17 -40 -40 -40c-22 0 -40 19 -40 40z" />
    <glyph glyph-name="divide.lin" horiz-adv-x="460" 
d="M60 347v49h340v-49h-340zM190 515c0 23 18 41 40 41c23 0 40 -18 40 -41c0 -21 -17 -40 -40 -40c-22 0 -40 19 -40 40zM190 226c0 23 18 41 40 41c23 0 40 -18 40 -41c0 -21 -17 -40 -40 -40c-22 0 -40 19 -40 40z" />
    <glyph glyph-name="equal" unicode="=" horiz-adv-x="403" 
d="M343 326h-283v50h283v-50zM343 185h-283v49h283v-49z" />
    <glyph glyph-name="equal.lin" horiz-adv-x="403" 
d="M343 417h-283v50h283v-50zM343 276h-283v49h283v-49z" />
    <glyph glyph-name="multiply" unicode="&#xd7;" horiz-adv-x="450" 
d="M70 401l34 35l121 -121l121 121l34 -35l-121 -121l121 -120l-34 -35l-121 121l-121 -121l-34 35l120 120z" />
    <glyph glyph-name="multiply.lin" horiz-adv-x="450" 
d="M70 492l34 35l121 -121l121 121l34 -35l-121 -121l121 -120l-34 -35l-121 121l-121 -121l-34 35l120 120z" />
    <glyph glyph-name="less" unicode="&#x3c;" horiz-adv-x="381" 
d="M342 73l-34 -35l-275 243l275 244l34 -37l-234 -208z" />
    <glyph glyph-name="less.lin" horiz-adv-x="381" 
d="M342 163l-34 -35l-275 243l275 244l34 -37l-234 -208z" />
    <glyph glyph-name="greater" unicode="&#x3e;" horiz-adv-x="381" 
d="M348 282l-275 -244l-34 37l234 208l-234 207l34 35z" />
    <glyph glyph-name="greater.lin" horiz-adv-x="381" 
d="M348 372l-275 -244l-34 37l234 208l-234 207l34 35z" />
    <glyph glyph-name="florin" unicode="&#x192;" horiz-adv-x="375" 
d="M367 576l-11 -48c-13 4 -32 7 -48 7c-72 0 -105 -40 -117 -139l-7 -60h100l-2 -48h-103l-33 -288h-56l33 288h-62l3 11l65 40l6 53c14 127 71 194 171 194c25 0 41 -3 61 -10z" />
    <glyph glyph-name="florin.lin" horiz-adv-x="473" 
d="M463 731l-15 -49c-19 6 -42 11 -64 11c-95 0 -140 -58 -155 -189l-10 -87h137l-3 -50h-140l-42 -367h-57l42 366h-72l2 13l76 38l10 87c18 157 93 240 211 240c31 0 58 -5 80 -13z" />
    <glyph glyph-name="underscore" unicode="_" horiz-adv-x="520" 
d="M520 0h-520v50h520v-50z" />
    <glyph glyph-name="arrowleft" unicode="&#x2190;" horiz-adv-x="711" 
d="M661 241l-534 1l222 -183l-30 -37l-288 239v9l288 239l30 -37l-222 -183l534 1v-49z" />
    <glyph glyph-name="arrowright" unicode="&#x2192;" horiz-adv-x="711" 
d="M50 290l534 -1l-222 183l31 37l287 -239v-9l-287 -239l-31 37l222 183l-534 -1v49z" />
    <glyph glyph-name="arrowleft.cap" horiz-adv-x="711" 
d="M661 347l-534 1l222 -183l-30 -37l-288 239v9l288 239l30 -37l-222 -183l534 1v-49z" />
    <glyph glyph-name="arrowright.cap" horiz-adv-x="711" 
d="M50 396l534 -1l-222 183l31 37l287 -239v-9l-287 -239l-31 37l222 183l-534 -1v49z" />
    <glyph glyph-name="asciicircum" unicode="^" horiz-adv-x="440" 
d="M357 485h-59l-79 98l-75 -98h-58l121 149h30z" />
    <glyph glyph-name="asciitilde" unicode="~" horiz-adv-x="440" 
d="M370 378c-32 -38 -63 -55 -94 -54c-21 0 -42 10 -62 22c-19 12 -37 21 -52 22c-22 0 -41 -12 -65 -41l-28 34c32 38 63 55 94 54c21 0 42 -10 61 -22c20 -12 38 -21 53 -22c22 0 41 12 65 41z" />
    <glyph glyph-name="hfjslug" horiz-adv-x="694" 
d="M644 -200h-208l-8 14h-163l-8 -14h-207v303c18 0 32 14 32 32c0 17 -14 32 -32 32v554h100l30 79h334l29 -79h101v-921zM400 563v-172h15v78h38v14h-38v66h43v14h-58zM184 563v-172h15v79h47v-79h15v172h-15v-79h-47v79h-15zM460 394c4 -2 15 -4 21 -4c20 0 31 11 31 36
v137h-16v-137c0 -16 -5 -22 -16 -22c-5 0 -15 3 -20 6v-16zM349 438l-16 31c13 12 23 26 23 42c0 15 -9 31 -27 31c-17 0 -28 -16 -28 -31s6 -24 14 -39c-15 -12 -23 -28 -23 -45c0 -22 13 -39 31 -39c13 0 22 12 27 24h1l12 -24l11 8l-16 30c5 12 10 25 13 39l-13 3
c-2 -9 -6 -21 -9 -30zM523 323v-46h8v13l7 7l16 -20h9l-19 26l18 20h-10l-21 -24v24h-8zM488 292l10 -15h9l-12 17c6 2 10 8 10 15c0 6 -6 14 -16 14h-21v-46h8v15h12zM426 276c15 0 24 11 24 24c0 12 -10 24 -24 24s-23 -12 -23 -24c0 -13 9 -24 23 -24zM370 301l-13 22h-9
l18 -29v-17h8v17l18 29h-9zM193 323v-46h33v7h-25v13h22v7h-22v12h25v7h-33zM132 323v-46h8v32l25 -32h7v46h-8v-32l-25 32h-7zM241 323l15 -47h8l10 34h1l11 -34h8l14 47h-8l-10 -35h-1l-10 35h-8l-11 -35h-1l-10 35h-8zM327 479c-7 13 -12 22 -12 32s6 19 14 19
s13 -9 13 -19c0 -12 -5 -21 -15 -32zM342 423c-3 -10 -11 -21 -18 -21c-10 0 -17 12 -17 27c0 11 6 24 15 33zM488 299h-12v17h11c6 0 10 -3 10 -8s-4 -9 -9 -9zM426 283c-9 0 -15 8 -15 17c0 8 6 17 15 17s16 -9 16 -17c0 -9 -7 -17 -16 -17z" />
    <glyph glyph-name="acute" unicode="&#xb4;" horiz-adv-x="440" 
d="M322 574l-192 -99l-18 31l181 123z" />
    <glyph glyph-name="hungarumlaut" unicode="&#x2dd;" horiz-adv-x="440" 
d="M236 641l-110 -160l-28 18l88 173zM366 627l-108 -157l-28 18l86 170z" />
    <glyph glyph-name="caron.alt" horiz-adv-x="224" 
d="M115 737l54 -8c0 -83 -35 -141 -90 -184l-25 21c39 41 59 95 61 171z" />
    <glyph glyph-name="grave" unicode="`" horiz-adv-x="440" 
d="M334 505l-19 -30l-192 99l31 54z" />
    <glyph glyph-name="circumflex" unicode="&#x2c6;" horiz-adv-x="440" 
d="M357 487h-59l-79 98l-75 -98h-58l121 149h30z" />
    <glyph glyph-name="caron" unicode="&#x2c7;" horiz-adv-x="440" 
d="M355 631l-122 -149h-29l-120 149h59l78 -98l76 98h58z" />
    <glyph glyph-name="breve" unicode="&#x2d8;" horiz-adv-x="440" 
d="M342 605c0 -63 -45 -118 -122 -118c-76 0 -121 55 -122 118l51 5c1 -49 27 -79 71 -79s70 30 71 79z" />
    <glyph glyph-name="tilde" unicode="&#x2dc;" horiz-adv-x="440" 
d="M370 551c-32 -38 -63 -55 -94 -54c-21 0 -42 10 -62 22c-19 12 -37 21 -52 22c-22 0 -41 -12 -65 -41l-28 34c32 38 63 55 94 54c21 0 42 -10 61 -22c20 -12 38 -21 53 -22c22 0 41 12 65 41z" />
    <glyph glyph-name="macron" unicode="&#xaf;" horiz-adv-x="440" 
d="M364 512h-287v48h287v-48z" />
    <glyph glyph-name="dieresis" unicode="&#xa8;" horiz-adv-x="440" 
d="M348 543c0 -23 -19 -42 -42 -42c-24 0 -43 19 -43 42s19 43 43 43c23 0 42 -20 42 -43zM177 543c0 -23 -19 -42 -42 -42s-42 19 -42 42s19 43 42 43s42 -20 42 -43z" />
    <glyph glyph-name="dotaccent" unicode="&#x2d9;" horiz-adv-x="440" 
d="M178 543c0 23 19 43 42 43c24 0 43 -20 43 -43s-19 -42 -43 -42c-23 0 -42 19 -42 42z" />
    <glyph glyph-name="ring" unicode="&#x2da;" horiz-adv-x="440" 
d="M323 586c0 -56 -41 -101 -103 -101c-61 0 -103 45 -103 101c0 55 42 101 103 101c62 0 103 -46 103 -101zM282 586c0 38 -26 66 -62 66c-35 0 -61 -27 -61 -66c0 -38 26 -66 61 -66c36 0 62 28 62 66z" />
    <glyph glyph-name="commaaccent" unicode="&#x326;" horiz-adv-x="188" 
d="M141 -128c0 -47 -37 -104 -87 -134l-11 13c31 28 50 62 56 92c-29 3 -46 21 -46 43c0 23 19 41 41 41c28 0 47 -23 47 -55z" />
    <glyph glyph-name="cedilla" unicode="&#xb8;" horiz-adv-x="440" 
d="M332 -150c0 -46 -35 -87 -102 -87c-34 0 -68 12 -106 33l18 36c34 -19 61 -29 88 -29c36 0 55 18 55 45c0 30 -27 56 -101 63l-3 6l26 97l37 -9l-16 -60c73 -15 104 -52 104 -95z" />
    <glyph glyph-name="ogonek" unicode="&#x2db;" horiz-adv-x="440" 
d="M323 -169c-23 -31 -49 -50 -87 -50c-47 -1 -78 30 -78 76c1 51 35 96 111 172l20 -26c-50 -55 -84 -100 -84 -140c0 -27 16 -43 38 -43c23 0 39 12 56 34z" />
    <glyph glyph-name="space" unicode=" " horiz-adv-x="214" 
 />
    <glyph glyph-name="uni00A0" unicode="&#xa0;" horiz-adv-x="224" 
 />
    <glyph glyph-name="emspace" unicode="&#x2003;" horiz-adv-x="1000" 
 />
    <glyph glyph-name="enspace" unicode="&#x2002;" horiz-adv-x="500" 
 />
    <glyph glyph-name="threeperemspace" unicode="&#x2004;" horiz-adv-x="333" 
 />
    <glyph glyph-name="fourperemspace" unicode="&#x2005;" horiz-adv-x="250" 
 />
    <glyph glyph-name="thinspace" unicode="&#x2009;" horiz-adv-x="133" 
 />
    <glyph glyph-name="hairspace" unicode="&#x200a;" horiz-adv-x="75" 
 />
    <glyph glyph-name="NUL" horiz-adv-x="0" 
 />
    <glyph glyph-name="figurespace" unicode="&#x2007;" horiz-adv-x="520" 
 />
    </font>
</defs>
</svg>
