<?xml version="1.0" standalone="no"?>
<!DOCTYPE svg PUBLIC "-//W3C//DTD SVG 1.1//EN" "http://www.w3.org/Graphics/SVG/1.1/DTD/svg11.dtd" >
<svg xmlns="http://www.w3.org/2000/svg" width="100%" height="100%">
<metadata>
Created by FontXChange 20110222 at Fri Mar  6 10:51:40 2015
 By Bradley Siefert
Copyright (c) 2006 The Hoefler Type Foundry, Inc., dba Hoefler &#38; Frere-Jones. All Rights Reserved.
</metadata>
<defs>
<font id="Verlag-XLight" horiz-adv-x="468" >
  <font-face 
    font-family="Verlag XLight"
    font-weight="275"
    font-stretch="normal"
    units-per-em="1000"
    panose-1="0 0 0 0 0 0 0 0 0 0"
    ascent="800"
    descent="-200"
    x-height="415"
    cap-height="733"
    bbox="-92 -237 1073 1079"
    underline-thickness="50"
    underline-position="-50"
    unicode-range="U+0020-2212"
  />
<missing-glyph horiz-adv-x="500" 
 />
    <glyph glyph-name="f_f_i" unicode="ffi" horiz-adv-x="690" 
d="M292 729l-7 -28c-16 6 -42 10 -60 10c-59 0 -97 -41 -97 -137v-159h124v-29h-124v-386h-32v385h-74v16l74 14v157c0 115 54 168 132 168c19 0 47 -3 64 -11zM550 729l-7 -28c-16 6 -42 10 -60 10c-59 0 -97 -41 -97 -137v-159h124v-29h-124v-386h-32v385h-74v16l74 14
v157c0 115 54 168 132 168c19 0 47 -3 64 -11zM632 580c0 -16 -13 -30 -30 -30s-30 14 -30 30c0 17 13 31 30 31s30 -14 30 -31zM619 0h-32v415h32v-415z" />
    <glyph glyph-name="f_f_l" unicode="ffl" horiz-adv-x="690" 
d="M292 729l-7 -28c-16 6 -42 10 -60 10c-59 0 -97 -41 -97 -137v-159h124v-29h-124v-386h-32v385h-74v16l74 14v157c0 115 54 168 132 168c19 0 47 -3 64 -11zM550 729l-7 -28c-16 6 -42 10 -60 10c-59 0 -97 -41 -97 -137v-159h124v-29h-124v-386h-32v385h-74v16l74 14
v157c0 115 54 168 132 168c19 0 47 -3 64 -11zM619 0h-32v733h32v-733z" />
    <glyph glyph-name="f_f" unicode="ff" horiz-adv-x="516" 
d="M292 729l-7 -28c-16 6 -42 10 -60 10c-59 0 -97 -41 -97 -137v-159h124v-29h-124v-386h-32v385h-74v16l74 14v157c0 115 54 168 132 168c19 0 47 -3 64 -11zM550 729l-7 -28c-16 6 -42 10 -60 10c-59 0 -97 -41 -97 -137v-159h124v-29h-124v-386h-32v385h-74v16l74 14
v157c0 115 54 168 132 168c19 0 47 -3 64 -11z" />
    <glyph glyph-name="fi" unicode="fi" horiz-adv-x="432" 
d="M374 580c0 -16 -13 -30 -30 -30s-30 14 -30 30c0 17 13 31 30 31s30 -14 30 -31zM292 729l-7 -28c-16 6 -42 10 -60 10c-59 0 -97 -41 -97 -137v-159h124v-29h-124v-386h-32v385h-74v16l74 14v157c0 115 54 168 132 168c19 0 47 -3 64 -11zM361 0h-32v415h32v-415z" />
    <glyph glyph-name="fl" unicode="fl" horiz-adv-x="432" 
d="M292 729l-7 -28c-16 6 -42 10 -60 10c-59 0 -97 -41 -97 -137v-159h124v-29h-124v-386h-32v385h-74v16l74 14v157c0 115 54 168 132 168c19 0 47 -3 64 -11zM361 0h-32v733h32v-733z" />
    <glyph glyph-name=".notdef" horiz-adv-x="500" 
 />
    <glyph glyph-name="A" unicode="A" horiz-adv-x="710" 
d="M672 0h-35l-102 245h-360l-102 -245h-35l313 744h8zM522 274l-167 402l-168 -402h335z" />
    <glyph glyph-name="B" unicode="B" horiz-adv-x="572" 
d="M526 199c0 -110 -89 -207 -267 -207c-59 0 -112 6 -166 12v726c54 7 100 12 159 12c175 0 257 -81 257 -184c0 -99 -77 -157 -175 -177c118 -14 192 -85 192 -182zM477 556c0 90 -70 157 -225 157c-48 0 -82 -3 -126 -9v-310c42 -1 64 -1 95 -1c170 0 256 69 256 163z
M494 197c0 108 -88 169 -266 169c-26 0 -57 0 -102 -1v-335c45 -5 85 -9 133 -9c153 0 235 78 235 176z" />
    <glyph glyph-name="C" unicode="C" horiz-adv-x="765" 
d="M704 81c-74 -52 -151 -89 -265 -89c-197 0 -378 134 -378 372c0 241 183 381 379 381c114 0 193 -37 268 -91l-17 -26c-72 52 -146 87 -251 88c-174 0 -345 -127 -345 -351c0 -223 170 -344 345 -344c103 0 177 35 249 84z" />
    <glyph glyph-name="D" unicode="D" horiz-adv-x="735" 
d="M674 373c0 -207 -145 -381 -415 -381c-65 0 -132 6 -166 11v727c34 5 101 11 166 11c270 0 415 -181 415 -368zM640 373c0 179 -137 339 -386 339c-50 0 -97 -4 -128 -8v-675c31 -4 78 -8 128 -8c250 0 386 154 386 352z" />
    <glyph glyph-name="E" unicode="E" horiz-adv-x="551" 
d="M492 0h-399v733h399v-29h-366v-318h331v-28h-331v-329h366v-29z" />
    <glyph glyph-name="F" unicode="F" horiz-adv-x="548" 
d="M492 704h-366v-331h331v-28h-331v-345h-33v733h399v-29z" />
    <glyph glyph-name="G" unicode="G" horiz-adv-x="783" 
d="M452 334h257v-249c-71 -59 -158 -93 -264 -93c-196 0 -384 129 -384 373c0 241 183 380 379 380c114 0 192 -37 268 -91l-18 -26c-72 52 -146 87 -251 88c-174 0 -344 -126 -344 -350c0 -223 165 -345 352 -345c91 0 171 30 229 78v206h-224v29z" />
    <glyph glyph-name="G.alt" horiz-adv-x="837" 
d="M416 345h360c0 -213 -158 -353 -341 -353c-191 0 -374 135 -374 373c0 241 183 380 379 380c114 0 192 -37 268 -91l-18 -26c-72 52 -146 87 -251 88c-174 0 -344 -126 -344 -350c0 -222 168 -345 343 -345c157 0 295 120 304 295h-326v29z" />
    <glyph glyph-name="H" unicode="H" horiz-adv-x="701" 
d="M608 0h-33v359h-449v-359h-33v733h33v-345h449v345h33v-733z" />
    <glyph glyph-name="I" unicode="I" horiz-adv-x="225" 
d="M129 0h-33v733h33v-733z" />
    <glyph glyph-name="J" unicode="J" horiz-adv-x="475" 
d="M385 733v-515c0 -149 -78 -230 -197 -230c-74 0 -128 26 -168 59l19 25c36 -31 84 -54 149 -54c95 0 164 68 164 200v515h33z" />
    <glyph glyph-name="K" unicode="K" horiz-adv-x="587" 
d="M548 0h-44l-378 363v-363h-33v733h33v-342l366 342h43l-381 -356z" />
    <glyph glyph-name="L" unicode="L" horiz-adv-x="498" 
d="M492 0h-399v733h33v-704h366v-29z" />
    <glyph glyph-name="M" unicode="M" horiz-adv-x="838" 
d="M756 0h-32l-14 653l-287 -519h-8l-286 520l-15 -654h-32l22 739l11 1l305 -557l304 557l11 -1z" />
    <glyph glyph-name="M.alt" horiz-adv-x="838" 
d="M756 0h-32l-14 663l-287 -459h-9l-284 460l-16 -664h-32l22 739l11 1l305 -491l304 491l11 -1z" />
    <glyph glyph-name="N" unicode="N" horiz-adv-x="727" 
d="M634 -6l-11 -1l-499 672v-665h-31v739l11 1l497 -669v662h33v-739z" />
    <glyph glyph-name="O" unicode="O" horiz-adv-x="842" 
d="M781 366c0 -214 -155 -374 -360 -374s-360 160 -360 374s155 376 360 376s360 -162 360 -376zM747 366c0 196 -137 347 -326 347s-326 -151 -326 -347s137 -345 326 -345s326 149 326 345z" />
    <glyph glyph-name="P" unicode="P" horiz-adv-x="559" 
d="M509 505c0 -147 -107 -250 -287 -250c-28 0 -71 3 -96 7v-262h-33v730c43 5 87 8 134 8c189 0 282 -108 282 -233zM475 505c0 110 -84 204 -248 204c-35 0 -68 -3 -101 -6v-412c26 -4 64 -8 96 -8c157 0 253 86 253 222z" />
    <glyph glyph-name="Q" unicode="Q" horiz-adv-x="842" 
d="M773 14l-19 -22l-96 88c-63 -55 -145 -88 -237 -88c-205 0 -360 160 -360 374s155 376 360 376s360 -162 360 -376c0 -107 -39 -201 -103 -267zM747 366c0 196 -137 347 -326 347s-326 -151 -326 -347s137 -345 326 -345c84 0 158 30 214 80l-172 153l19 22l172 -156
c59 61 93 147 93 246z" />
    <glyph glyph-name="R" unicode="R" horiz-adv-x="585" 
d="M544 0h-39l-205 307c-24 -5 -50 -7 -78 -7s-71 3 -96 7v-307h-33v726c54 7 92 12 145 12c172 0 273 -84 273 -215c0 -98 -65 -178 -179 -209zM477 523c0 109 -81 186 -239 186c-41 0 -68 -3 -112 -9v-364c26 -4 64 -8 96 -8c157 0 255 75 255 195z" />
    <glyph glyph-name="S" unicode="S" horiz-adv-x="531" 
d="M466 179c0 -120 -103 -191 -223 -191c-74 0 -148 26 -213 68l16 27c61 -39 127 -66 202 -66c100 0 186 62 186 158c0 106 -88 142 -176 182c-100 45 -191 91 -191 205c0 106 88 183 216 183c66 0 124 -21 167 -50l-17 -27c-38 26 -92 48 -154 48
c-105 0 -180 -64 -180 -150c0 -107 89 -142 177 -182c100 -45 190 -92 190 -205z" />
    <glyph glyph-name="T" unicode="T" horiz-adv-x="609" 
d="M574 704h-253v-704h-33v704h-253v29h539v-29z" />
    <glyph glyph-name="U" unicode="U" horiz-adv-x="722" 
d="M632 268c0 -174 -105 -276 -272 -276c-173 0 -270 98 -270 276v465h33v-468c0 -154 89 -243 237 -243s239 92 239 243v468h33v-465z" />
    <glyph glyph-name="V" unicode="V" horiz-adv-x="699" 
d="M666 733l-313 -744h-8l-312 744h34l283 -676l281 676h35z" />
    <glyph glyph-name="W" unicode="W" horiz-adv-x="988" 
d="M930 733l-183 -741l-12 -2l-241 673l-243 -673l-12 2l-181 741h30l163 -662l238 663h10l239 -663l162 662h30z" />
    <glyph glyph-name="X" unicode="X" horiz-adv-x="687" 
d="M632 0h-39l-250 348l-250 -348h-39l271 372l-263 361h39l242 -337l242 337h39l-263 -361z" />
    <glyph glyph-name="Y" unicode="Y" horiz-adv-x="616" 
d="M579 733l-254 -400v-333h-33v333l-255 400h37l235 -372l233 372h37z" />
    <glyph glyph-name="Z" unicode="Z" horiz-adv-x="642" 
d="M581 724l-476 -695h472v-29h-519l-4 8l476 696h-451v29h498z" />
    <glyph glyph-name="a" unicode="a" horiz-adv-x="429" 
d="M363 0h-31v45c-27 -28 -79 -53 -133 -53c-87 0 -157 45 -157 127s74 130 161 130c51 0 92 -16 128 -35v51c0 86 -35 129 -132 129c-31 0 -74 -9 -108 -24l-9 28c36 15 84 25 119 25c113 0 162 -54 162 -154v-269zM331 78v107c-40 24 -78 37 -127 37
c-73 0 -131 -37 -131 -103s55 -99 128 -99c56 0 101 24 130 58z" />
    <glyph glyph-name="b" unicode="b" horiz-adv-x="501" 
d="M456 208c0 -123 -88 -216 -204 -216c-65 0 -118 30 -151 65v-57h-32v733h32v-376c34 35 87 66 153 66c115 0 202 -92 202 -215zM423 208c0 109 -73 186 -170 186c-63 0 -118 -33 -152 -76v-223c34 -42 89 -74 152 -74c97 0 170 77 170 187z" />
    <glyph glyph-name="c" unicode="c" horiz-adv-x="420" 
d="M389 33c-37 -24 -82 -41 -134 -41c-123 0 -212 95 -212 214s88 217 212 217c52 0 97 -17 134 -41l-17 -25c-33 21 -71 37 -117 37c-106 0 -179 -81 -179 -185c0 -105 73 -188 179 -188c46 0 84 16 117 37z" />
    <glyph glyph-name="d" unicode="d" horiz-adv-x="501" 
d="M432 0h-32v58c-34 -35 -87 -66 -153 -66c-115 0 -202 92 -202 215s88 216 204 216c65 0 118 -28 151 -62v372h32v-733zM400 97v227c-34 40 -89 70 -152 70c-97 0 -170 -77 -170 -187c0 -109 73 -186 170 -186c63 0 118 33 152 76z" />
    <glyph glyph-name="e" unicode="e" horiz-adv-x="460" 
d="M415 221v-13h-338c1 -107 63 -187 185 -187c42 0 85 11 121 28c0 0 9 -29 9 -28c-37 -18 -87 -29 -130 -29c-144 0 -218 94 -218 215s76 216 193 216s178 -88 178 -202zM78 236h304c-4 88 -50 158 -147 158c-92 0 -148 -67 -157 -158z" />
    <glyph glyph-name="f" unicode="f" horiz-adv-x="258" 
d="M292 729l-7 -28c-16 6 -42 10 -60 10c-59 0 -97 -41 -97 -137v-159h124v-29h-124v-386h-32v385h-74v16l74 14v157c0 115 54 168 132 168c19 0 47 -3 64 -11z" />
    <glyph glyph-name="g" unicode="g" horiz-adv-x="501" 
d="M432 -43c0 -123 -57 -185 -172 -185c-55 0 -96 10 -137 26c0 -1 8 29 8 29c45 -18 85 -26 129 -26c97 0 140 49 140 155v102c-34 -35 -87 -66 -153 -66c-115 0 -202 92 -202 215s88 216 204 216c66 0 119 -31 152 -66v58h31v-458zM400 97v223c-34 42 -89 74 -152 74
c-97 0 -170 -77 -170 -187c0 -109 73 -186 170 -186c63 0 118 33 152 76z" />
    <glyph glyph-name="h" unicode="h" horiz-adv-x="447" 
d="M392 0h-32v273c0 76 -32 121 -107 121c-59 0 -117 -41 -162 -92v-302h-32v733h32v-396c38 42 100 86 164 86c96 0 137 -62 137 -147v-276z" />
    <glyph glyph-name="i" unicode="i" horiz-adv-x="174" 
d="M116 580c0 -16 -13 -30 -30 -30s-30 14 -30 30c0 17 13 31 30 31s30 -14 30 -31zM103 0h-32v415h32v-415z" />
    <glyph glyph-name="j" unicode="j" horiz-adv-x="177" 
d="M119 580c0 -16 -13 -30 -30 -30s-30 14 -30 30c0 17 13 31 30 31s30 -14 30 -31zM106 415v-521c0 -81 -33 -118 -96 -118c-15 0 -35 3 -50 7l4 29c18 -4 32 -7 48 -7c39 0 62 24 62 89v521h32z" />
    <glyph glyph-name="k" unicode="k" horiz-adv-x="374" 
d="M371 0h-43l-227 205v-205h-32v733h32v-503l217 185h43l-232 -197z" />
    <glyph glyph-name="l" unicode="l" horiz-adv-x="174" 
d="M103 0h-32v733h32v-733z" />
    <glyph glyph-name="m" unicode="m" horiz-adv-x="745" 
d="M679 0h-32v279c0 75 -34 114 -98 114c-59 0 -117 -38 -159 -95v-298h-32v279c0 75 -34 114 -98 114c-61 0 -114 -39 -159 -90v-303h-32v415h31v-78c38 43 95 86 165 86c55 0 103 -30 117 -94c40 51 103 94 172 94c67 0 125 -42 125 -141v-282z" />
    <glyph glyph-name="n" unicode="n" 
d="M402 0h-32v273c0 76 -32 121 -107 121c-59 0 -117 -41 -162 -92v-302h-32v415h31v-79c38 43 100 87 165 87c96 0 137 -62 137 -147v-276z" />
    <glyph glyph-name="o" unicode="o" horiz-adv-x="495" 
d="M450 209c0 -121 -87 -217 -204 -217s-201 94 -201 215s86 216 203 216s202 -93 202 -214zM417 208c0 105 -68 186 -170 186c-101 0 -169 -82 -169 -186c0 -105 67 -187 169 -187c101 0 170 83 170 187z" />
    <glyph glyph-name="p" unicode="p" horiz-adv-x="501" 
d="M456 206c0 -128 -89 -214 -205 -214c-59 0 -112 25 -150 55v-263h-32v631h31v-59c34 35 88 67 154 67c115 0 202 -94 202 -217zM423 206c0 109 -73 188 -170 188c-63 0 -118 -33 -152 -76v-233c40 -37 88 -64 151 -64c97 0 171 70 171 185z" />
    <glyph glyph-name="q" unicode="q" horiz-adv-x="501" 
d="M432 -216h-32v274c-34 -35 -87 -66 -153 -66c-115 0 -202 92 -202 215s88 216 204 216c65 0 118 -28 151 -62v54h32v-631zM400 97v227c-34 40 -89 70 -152 70c-97 0 -170 -77 -170 -187c0 -109 73 -186 170 -186c63 0 118 33 152 76z" />
    <glyph glyph-name="r" unicode="r" horiz-adv-x="274" 
d="M254 394c-57 -4 -118 -39 -153 -109v-285h-32v415h31v-87c36 56 92 98 154 98v-32z" />
    <glyph glyph-name="s" unicode="s" horiz-adv-x="357" 
d="M305 107c0 -61 -50 -115 -129 -115c-53 0 -100 20 -142 49l15 24c38 -26 79 -46 127 -46c60 0 99 36 99 83c0 118 -218 76 -218 215c0 54 46 106 125 106c44 0 83 -14 120 -40l-15 -25c-36 26 -67 38 -105 38c-63 0 -95 -37 -95 -76c0 -119 218 -74 218 -213z" />
    <glyph glyph-name="t" unicode="t" horiz-adv-x="290" 
d="M267 386h-139v-288c0 -52 25 -77 74 -77c20 0 39 3 54 7l3 -29c-19 -4 -36 -7 -57 -7c-69 0 -106 33 -106 106v287h-74v16l74 14v107l32 23v-130h139v-29z" />
    <glyph glyph-name="u" unicode="u" 
d="M399 0h-31v79c-38 -43 -100 -87 -165 -87c-96 0 -137 62 -137 147v276h32v-273c0 -76 32 -121 107 -121c59 0 117 41 162 92v302h32v-415z" />
    <glyph glyph-name="v" unicode="v" horiz-adv-x="430" 
d="M419 415l-203 -427h-7l-198 427h34l168 -371l172 371h34z" />
    <glyph glyph-name="w" unicode="w" horiz-adv-x="626" 
d="M593 415l-130 -427h-7l-141 362l-143 -362h-7l-132 427h33l106 -354l140 352h7l138 -352l103 354h33z" />
    <glyph glyph-name="x" unicode="x" horiz-adv-x="369" 
d="M357 0h-35l-138 186l-138 -186h-34l156 209l-153 206h37l133 -182l133 182h36l-154 -204z" />
    <glyph glyph-name="y" unicode="y" horiz-adv-x="419" 
d="M408 415l-293 -630h-32l110 231l-182 399h34s163 -366 163 -367l166 367h34z" />
    <glyph glyph-name="z" unicode="z" horiz-adv-x="389" 
d="M367 407l-306 -380h299v-27h-347l-3 7l306 381h-285v27h333z" />
    <glyph glyph-name="Aacute" unicode="&#xc1;" horiz-adv-x="710" 
d="M672 0h-35l-102 245h-360l-102 -245h-35l313 744h8zM522 274l-167 402l-168 -402h335zM528 904l-194 -109l-12 19l186 121z" />
    <glyph glyph-name="aacute" unicode="&#xe1;" horiz-adv-x="429" 
d="M363 0h-31v45c-27 -28 -79 -53 -133 -53c-87 0 -157 45 -157 127s74 130 161 130c51 0 92 -16 128 -35v51c0 86 -35 129 -132 129c-31 0 -74 -9 -108 -24l-9 28c36 15 84 25 119 25c113 0 162 -54 162 -154v-269zM331 78v107c-40 24 -78 37 -127 37
c-73 0 -131 -37 -131 -103s55 -99 128 -99c56 0 101 24 130 58zM387 584l-194 -109l-12 19l186 121z" />
    <glyph glyph-name="Abreve" unicode="&#x102;" horiz-adv-x="710" 
d="M672 0h-35l-102 245h-360l-102 -245h-35l313 744h8zM522 274l-167 402l-168 -402h335zM478 931c-1 -64 -46 -120 -123 -120c-76 0 -121 56 -122 120l30 4c2 -58 36 -96 92 -96s91 38 93 96z" />
    <glyph glyph-name="abreve" unicode="&#x103;" horiz-adv-x="429" 
d="M363 0h-31v45c-27 -28 -79 -53 -133 -53c-87 0 -157 45 -157 127s74 130 161 130c51 0 92 -16 128 -35v51c0 86 -35 129 -132 129c-31 0 -74 -9 -108 -24l-9 28c36 15 84 25 119 25c113 0 162 -54 162 -154v-269zM331 78v107c-40 24 -78 37 -127 37
c-73 0 -131 -37 -131 -103s55 -99 128 -99c56 0 101 24 130 58zM337 611c-1 -64 -46 -120 -123 -120c-76 0 -121 56 -122 120l30 4c2 -58 36 -96 92 -96s91 38 93 96z" />
    <glyph glyph-name="Acircumflex" unicode="&#xc2;" horiz-adv-x="710" 
d="M672 0h-35l-102 245h-360l-102 -245h-35l313 744h8zM522 274l-167 402l-168 -402h335zM480 805h-37l-90 110l-85 -110h-38l109 137h30z" />
    <glyph glyph-name="acircumflex" unicode="&#xe2;" horiz-adv-x="429" 
d="M363 0h-31v45c-27 -28 -79 -53 -133 -53c-87 0 -157 45 -157 127s74 130 161 130c51 0 92 -16 128 -35v51c0 86 -35 129 -132 129c-31 0 -74 -9 -108 -24l-9 28c36 15 84 25 119 25c113 0 162 -54 162 -154v-269zM331 78v107c-40 24 -78 37 -127 37
c-73 0 -131 -37 -131 -103s55 -99 128 -99c56 0 101 24 130 58zM339 485h-37l-90 110l-85 -110h-38l109 137h30z" />
    <glyph glyph-name="Adieresis" unicode="&#xc4;" horiz-adv-x="710" 
d="M672 0h-35l-102 245h-360l-102 -245h-35l313 744h8zM522 274l-167 402l-168 -402h335zM473 861c0 -18 -15 -34 -34 -34s-34 16 -34 34c0 19 15 35 34 35s34 -16 34 -35zM305 861c0 -18 -15 -34 -34 -34s-34 16 -34 34c0 19 15 35 34 35s34 -16 34 -35z" />
    <glyph glyph-name="adieresis" unicode="&#xe4;" horiz-adv-x="429" 
d="M363 0h-31v45c-27 -28 -79 -53 -133 -53c-87 0 -157 45 -157 127s74 130 161 130c51 0 92 -16 128 -35v51c0 86 -35 129 -132 129c-31 0 -74 -9 -108 -24l-9 28c36 15 84 25 119 25c113 0 162 -54 162 -154v-269zM331 78v107c-40 24 -78 37 -127 37
c-73 0 -131 -37 -131 -103s55 -99 128 -99c56 0 101 24 130 58zM332 541c0 -18 -15 -34 -34 -34s-34 16 -34 34c0 19 15 35 34 35s34 -16 34 -35zM164 541c0 -18 -15 -34 -34 -34s-34 16 -34 34c0 19 15 35 34 35s34 -16 34 -35z" />
    <glyph glyph-name="Agrave" unicode="&#xc0;" horiz-adv-x="710" 
d="M672 0h-35l-102 245h-360l-102 -245h-35l313 744h8zM522 274l-167 402l-168 -402h335zM382 814l-12 -19l-194 109l20 31z" />
    <glyph glyph-name="agrave" unicode="&#xe0;" horiz-adv-x="429" 
d="M363 0h-31v45c-27 -28 -79 -53 -133 -53c-87 0 -157 45 -157 127s74 130 161 130c51 0 92 -16 128 -35v51c0 86 -35 129 -132 129c-31 0 -74 -9 -108 -24l-9 28c36 15 84 25 119 25c113 0 162 -54 162 -154v-269zM331 78v107c-40 24 -78 37 -127 37
c-73 0 -131 -37 -131 -103s55 -99 128 -99c56 0 101 24 130 58zM241 494l-12 -19l-194 109l20 31z" />
    <glyph glyph-name="Amacron" unicode="&#x100;" horiz-adv-x="710" 
d="M672 0h-35l-102 245h-360l-102 -245h-35l313 744h8zM522 274l-167 402l-168 -402h335zM499 843h-287v29h287v-29z" />
    <glyph glyph-name="amacron" unicode="&#x101;" horiz-adv-x="429" 
d="M363 0h-31v45c-27 -28 -79 -53 -133 -53c-87 0 -157 45 -157 127s74 130 161 130c51 0 92 -16 128 -35v51c0 86 -35 129 -132 129c-31 0 -74 -9 -108 -24l-9 28c36 15 84 25 119 25c113 0 162 -54 162 -154v-269zM331 78v107c-40 24 -78 37 -127 37
c-73 0 -131 -37 -131 -103s55 -99 128 -99c56 0 101 24 130 58zM358 523h-287v29h287v-29z" />
    <glyph glyph-name="Aogonek" unicode="&#x104;" horiz-adv-x="710" 
d="M704 -169c-20 -29 -45 -50 -85 -50c-43 0 -73 26 -73 72c0 50 36 96 90 149l-101 243h-360l-102 -245h-35l313 744h8l313 -744c-48 -45 -96 -98 -96 -145c0 -30 20 -47 45 -47c28 0 48 17 64 40zM522 274l-167 402l-168 -402h335z" />
    <glyph glyph-name="aogonek" unicode="&#x105;" horiz-adv-x="429" 
d="M395 -169c-20 -29 -45 -50 -85 -50c-43 0 -73 26 -73 72c0 52 38 99 95 154v38c-27 -28 -79 -53 -133 -53c-87 0 -157 45 -157 127s74 130 161 130c51 0 92 -16 128 -35v51c0 86 -35 129 -132 129c-31 0 -74 -9 -108 -24l-9 28c36 15 84 25 119 25
c113 0 162 -54 162 -154v-269c-48 -45 -96 -98 -96 -145c0 -30 20 -47 45 -47c28 0 48 17 64 40zM331 78v107c-40 24 -78 37 -127 37c-73 0 -131 -37 -131 -103s55 -99 128 -99c56 0 101 24 130 58z" />
    <glyph glyph-name="Aring" unicode="&#xc5;" horiz-adv-x="710" 
d="M455 813c0 -49 -35 -91 -84 -99l301 -714h-35l-102 245h-360l-102 -245h-35l301 714c-49 8 -84 50 -84 99c0 54 43 99 100 99s100 -45 100 -99zM522 274l-167 402l-168 -402h335zM427 813c0 43 -30 74 -72 74s-72 -31 -72 -74s30 -75 72 -75s72 32 72 75z" />
    <glyph glyph-name="aring" unicode="&#xe5;" horiz-adv-x="429" 
d="M363 0h-31v45c-27 -28 -79 -53 -133 -53c-87 0 -157 45 -157 127s74 130 161 130c51 0 92 -16 128 -35v51c0 86 -35 129 -132 129c-31 0 -74 -9 -108 -24l-9 28c36 15 84 25 119 25c113 0 162 -54 162 -154v-269zM331 78v107c-40 24 -78 37 -127 37
c-73 0 -131 -37 -131 -103s55 -99 128 -99c56 0 101 24 130 58zM314 584c0 -54 -43 -100 -100 -100s-100 46 -100 100s43 99 100 99s100 -45 100 -99zM286 584c0 43 -30 74 -72 74s-72 -31 -72 -74s30 -75 72 -75s72 32 72 75z" />
    <glyph glyph-name="Aringacute" unicode="&#x1fa;" horiz-adv-x="710" 
d="M509 1048l-194 -109l-12 19l186 121zM455 813c0 -49 -35 -91 -84 -99l301 -714h-35l-102 245h-360l-102 -245h-35l301 714c-49 8 -84 50 -84 99c0 54 43 99 100 99s100 -45 100 -99zM522 274l-167 402l-168 -402h335zM427 813c0 43 -30 74 -72 74s-72 -31 -72 -74
s30 -75 72 -75s72 32 72 75z" />
    <glyph glyph-name="aringacute" unicode="&#x1fb;" horiz-adv-x="429" 
d="M363 0h-31v45c-27 -28 -79 -53 -133 -53c-87 0 -157 45 -157 127s74 130 161 130c51 0 92 -16 128 -35v51c0 86 -35 129 -132 129c-31 0 -74 -9 -108 -24l-9 28c36 15 84 25 119 25c113 0 162 -54 162 -154v-269zM331 78v107c-40 24 -78 37 -127 37
c-73 0 -131 -37 -131 -103s55 -99 128 -99c56 0 101 24 130 58zM311 584c0 -54 -43 -100 -100 -100s-100 46 -100 100s43 99 100 99s100 -45 100 -99zM283 584c0 43 -30 74 -72 74s-72 -31 -72 -74s30 -75 72 -75s72 32 72 75zM383 844l-194 -109l-12 19l186 121z" />
    <glyph glyph-name="Atilde" unicode="&#xc3;" horiz-adv-x="710" 
d="M672 0h-35l-102 245h-360l-102 -245h-35l313 744h8zM522 274l-167 402l-168 -402h335zM508 877c-36 -40 -63 -55 -93 -54c-22 1 -44 13 -65 25c-20 12 -40 24 -56 25c-22 1 -42 -11 -72 -45l-19 22c36 40 63 55 93 54c22 -1 44 -13 65 -25c20 -12 40 -24 56 -25
c22 -1 42 11 72 45z" />
    <glyph glyph-name="atilde" unicode="&#xe3;" horiz-adv-x="429" 
d="M363 0h-31v45c-27 -28 -79 -53 -133 -53c-87 0 -157 45 -157 127s74 130 161 130c51 0 92 -16 128 -35v51c0 86 -35 129 -132 129c-31 0 -74 -9 -108 -24l-9 28c36 15 84 25 119 25c113 0 162 -54 162 -154v-269zM331 78v107c-40 24 -78 37 -127 37
c-73 0 -131 -37 -131 -103s55 -99 128 -99c56 0 101 24 130 58zM367 557c-36 -40 -63 -55 -93 -54c-22 1 -44 13 -65 25c-20 12 -40 24 -56 25c-22 1 -42 -11 -72 -45l-19 22c36 40 63 55 93 54c22 -1 44 -13 65 -25c20 -12 40 -24 56 -25c22 -1 42 11 72 45z" />
    <glyph glyph-name="AE" unicode="&#xc6;" horiz-adv-x="1020" 
d="M961 0h-399v245h-310l-174 -245h-40l527 733h396v-29h-366v-318h331v-28h-331v-329h366v-29zM562 274v405l-289 -405h289z" />
    <glyph glyph-name="ae" unicode="&#xe6;" horiz-adv-x="744" 
d="M331 214v51c0 86 -35 129 -132 129c-31 0 -74 -9 -108 -24l-9 28c36 15 84 25 119 25c93 0 140 -36 154 -104c31 63 90 104 167 104c117 0 177 -83 177 -197c0 -4 1 -14 1 -18h-338c1 -107 63 -187 185 -187c42 0 85 11 121 28c0 0 9 -29 9 -28c-37 -18 -87 -29 -130 -29
c-105 0 -172 50 -198 124c-27 -84 -94 -124 -168 -124c-75 0 -139 46 -139 127c0 80 74 130 161 130c51 0 92 -16 128 -35zM667 236c-4 88 -50 158 -147 158c-92 0 -148 -67 -157 -158h304zM333 184c-41 24 -80 38 -129 38c-73 0 -131 -37 -131 -103c0 -64 48 -99 110 -99
c70 0 144 43 150 164z" />
    <glyph glyph-name="AEacute" unicode="&#x1fc;" horiz-adv-x="1020" 
d="M961 0h-399v245h-310l-174 -245h-40l527 733h396v-29h-366v-318h331v-28h-331v-329h366v-29zM562 274v405l-289 -405h289zM812 904l-194 -109l-12 19l186 121z" />
    <glyph glyph-name="aeacute" unicode="&#x1fd;" horiz-adv-x="744" 
d="M331 214v51c0 86 -35 129 -132 129c-31 0 -74 -9 -108 -24l-9 28c36 15 84 25 119 25c93 0 140 -36 154 -104c31 63 90 104 167 104c117 0 177 -83 177 -197c0 -4 1 -14 1 -18h-338c1 -107 63 -187 185 -187c42 0 85 11 121 28c0 0 9 -29 9 -28c-37 -18 -87 -29 -130 -29
c-105 0 -172 50 -198 124c-27 -84 -94 -124 -168 -124c-75 0 -139 46 -139 127c0 80 74 130 161 130c51 0 92 -16 128 -35zM667 236c-4 88 -50 158 -147 158c-92 0 -148 -67 -157 -158h304zM333 184c-41 24 -80 38 -129 38c-73 0 -131 -37 -131 -103c0 -64 48 -99 110 -99
c70 0 144 43 150 164zM544 584l-194 -109l-12 19l186 121z" />
    <glyph glyph-name="Cacute" unicode="&#x106;" horiz-adv-x="765" 
d="M704 81c-74 -52 -151 -89 -265 -89c-197 0 -378 134 -378 372c0 241 183 381 379 381c114 0 193 -37 268 -91l-17 -26c-72 52 -146 87 -251 88c-174 0 -345 -127 -345 -351c0 -223 170 -344 345 -344c103 0 177 35 249 84zM604 904l-194 -109l-12 19l186 121z" />
    <glyph glyph-name="cacute" unicode="&#x107;" horiz-adv-x="420" 
d="M389 33c-37 -24 -82 -41 -134 -41c-123 0 -212 95 -212 214s88 217 212 217c52 0 97 -17 134 -41l-17 -25c-33 21 -71 37 -117 37c-106 0 -179 -81 -179 -185c0 -105 73 -188 179 -188c46 0 84 16 117 37zM416 584l-194 -109l-12 19l186 121z" />
    <glyph glyph-name="Ccaron" unicode="&#x10c;" horiz-adv-x="765" 
d="M704 81c-74 -52 -151 -89 -265 -89c-197 0 -378 134 -378 372c0 241 183 381 379 381c114 0 193 -37 268 -91l-17 -26c-72 52 -146 87 -251 88c-174 0 -345 -127 -345 -351c0 -223 170 -344 345 -344c103 0 177 35 249 84zM556 943l-109 -137h-30l-111 137h37l90 -110
l85 110h38z" />
    <glyph glyph-name="ccaron" unicode="&#x10d;" horiz-adv-x="420" 
d="M389 33c-37 -24 -82 -41 -134 -41c-123 0 -212 95 -212 214s88 217 212 217c52 0 97 -17 134 -41l-17 -25c-33 21 -71 37 -117 37c-106 0 -179 -81 -179 -185c0 -105 73 -188 179 -188c46 0 84 16 117 37zM368 623l-109 -137h-30l-111 137h37l90 -110l85 110h38z" />
    <glyph glyph-name="Ccedilla" unicode="&#xc7;" horiz-adv-x="765" 
d="M531 -154c0 -44 -37 -83 -104 -83c-33 0 -67 13 -104 32l13 26c36 -18 64 -30 91 -30c46 0 71 21 71 54c0 35 -29 64 -109 73l-2 4l18 72c-183 14 -344 145 -344 370c0 241 183 381 379 381c114 0 193 -37 268 -91l-17 -26c-72 52 -146 87 -251 88
c-174 0 -345 -127 -345 -351c0 -223 170 -344 345 -344c103 0 177 35 249 84l15 -24c-74 -52 -151 -89 -265 -89h-5l-13 -51c72 -12 110 -48 110 -95z" />
    <glyph glyph-name="ccedilla" unicode="&#xe7;" horiz-adv-x="420" 
d="M389 33c-37 -24 -82 -41 -134 -41h-13l-13 -51c72 -12 110 -48 110 -95c0 -44 -37 -83 -104 -83c-33 0 -67 13 -104 32l13 26c36 -18 64 -30 91 -30c46 0 71 21 71 54c0 35 -29 64 -109 73l-2 4l19 74c-101 18 -171 104 -171 210c0 119 88 217 212 217
c52 0 97 -17 134 -41l-17 -25c-33 21 -71 37 -117 37c-106 0 -179 -81 -179 -185c0 -105 73 -188 179 -188c46 0 84 16 117 37z" />
    <glyph glyph-name="Cdotaccent" unicode="&#x10a;" horiz-adv-x="765" 
d="M704 81c-74 -52 -151 -89 -265 -89c-197 0 -378 134 -378 372c0 241 183 381 379 381c114 0 193 -37 268 -91l-17 -26c-72 52 -146 87 -251 88c-174 0 -345 -127 -345 -351c0 -223 170 -344 345 -344c103 0 177 35 249 84zM397 861c0 19 15 35 34 35s34 -16 34 -35
c0 -18 -15 -34 -34 -34s-34 16 -34 34z" />
    <glyph glyph-name="cdotaccent" unicode="&#x10b;" horiz-adv-x="420" 
d="M389 33c-37 -24 -82 -41 -134 -41c-123 0 -212 95 -212 214s88 217 212 217c52 0 97 -17 134 -41l-17 -25c-33 21 -71 37 -117 37c-106 0 -179 -81 -179 -185c0 -105 73 -188 179 -188c46 0 84 16 117 37zM209 541c0 19 15 35 34 35s34 -16 34 -35c0 -18 -15 -34 -34 -34
s-34 16 -34 34z" />
    <glyph glyph-name="Dcaron" unicode="&#x10e;" horiz-adv-x="735" 
d="M674 373c0 -207 -145 -381 -415 -381c-65 0 -132 6 -166 11v727c34 5 101 11 166 11c270 0 415 -181 415 -368zM640 373c0 179 -137 339 -386 339c-50 0 -97 -4 -128 -8v-675c31 -4 78 -8 128 -8c250 0 386 154 386 352zM468 943l-109 -137h-30l-111 137h37l90 -110
l85 110h38z" />
    <glyph glyph-name="dcaron" unicode="&#x10f;" horiz-adv-x="501" 
d="M432 0h-32v58c-34 -35 -87 -66 -153 -66c-115 0 -202 92 -202 215s88 216 204 216c65 0 118 -28 151 -62v372h32v-733zM400 97v227c-34 40 -89 70 -152 70c-97 0 -170 -77 -170 -187c0 -109 73 -186 170 -186c63 0 118 33 152 76zM529 732l33 -4c0 -79 -33 -138 -88 -179
l-13 13c44 41 68 96 68 170z" />
    <glyph glyph-name="Dcroat" unicode="&#x110;" horiz-adv-x="775" 
d="M714 373c0 -207 -145 -381 -415 -381c-65 0 -132 6 -166 11v356h-83v29h83v342c34 5 101 11 166 11c270 0 415 -181 415 -368zM680 373c0 179 -137 339 -386 339c-50 0 -97 -4 -128 -8v-316h163v-29h-163v-330c31 -4 78 -8 128 -8c250 0 386 154 386 352z" />
    <glyph glyph-name="dcroat" unicode="&#x111;" horiz-adv-x="501" 
d="M432 0h-32v58c-34 -35 -87 -66 -153 -66c-115 0 -202 92 -202 215s88 216 204 216c65 0 118 -28 151 -62v218h-147v30h147v124h32v-124h60v-30h-60v-579zM400 97v227c-34 40 -89 70 -152 70c-97 0 -170 -77 -170 -187c0 -109 73 -186 170 -186c63 0 118 33 152 76z" />
    <glyph glyph-name="Eacute" unicode="&#xc9;" horiz-adv-x="551" 
d="M492 0h-399v733h399v-29h-366v-318h331v-28h-331v-329h366v-29zM465 904l-194 -109l-12 19l186 121z" />
    <glyph glyph-name="eacute" unicode="&#xe9;" horiz-adv-x="460" 
d="M415 221v-13h-338c1 -107 63 -187 185 -187c42 0 85 11 121 28c0 0 9 -29 9 -28c-37 -18 -87 -29 -130 -29c-144 0 -218 94 -218 215s76 216 193 216s178 -88 178 -202zM78 236h304c-4 88 -50 158 -147 158c-92 0 -148 -67 -157 -158zM410 584l-194 -109l-12 19l186 121z
" />
    <glyph glyph-name="Ebreve" unicode="&#x114;" horiz-adv-x="551" 
d="M492 0h-399v733h399v-29h-366v-318h331v-28h-331v-329h366v-29zM415 931c-1 -64 -46 -120 -123 -120c-76 0 -121 56 -122 120l30 4c2 -58 36 -96 92 -96s91 38 93 96z" />
    <glyph glyph-name="ebreve" unicode="&#x115;" horiz-adv-x="460" 
d="M415 221v-13h-338c1 -107 63 -187 185 -187c42 0 85 11 121 28c0 0 9 -29 9 -28c-37 -18 -87 -29 -130 -29c-144 0 -218 94 -218 215s76 216 193 216s178 -88 178 -202zM78 236h304c-4 88 -50 158 -147 158c-92 0 -148 -67 -157 -158zM360 611c-1 -64 -46 -120 -123 -120
c-76 0 -121 56 -122 120l30 4c2 -58 36 -96 92 -96s91 38 93 96z" />
    <glyph glyph-name="Ecaron" unicode="&#x11a;" horiz-adv-x="551" 
d="M492 0h-399v733h399v-29h-366v-318h331v-28h-331v-329h366v-29zM417 943l-109 -137h-30l-111 137h37l90 -110l85 110h38z" />
    <glyph glyph-name="ecaron" unicode="&#x11b;" horiz-adv-x="460" 
d="M415 221v-13h-338c1 -107 63 -187 185 -187c42 0 85 11 121 28c0 0 9 -29 9 -28c-37 -18 -87 -29 -130 -29c-144 0 -218 94 -218 215s76 216 193 216s178 -88 178 -202zM78 236h304c-4 88 -50 158 -147 158c-92 0 -148 -67 -157 -158zM362 623l-109 -137h-30l-111 137h37
l90 -110l85 110h38z" />
    <glyph glyph-name="Ecircumflex" unicode="&#xca;" horiz-adv-x="551" 
d="M492 0h-399v733h399v-29h-366v-318h331v-28h-331v-329h366v-29zM417 805h-37l-90 110l-85 -110h-38l109 137h30z" />
    <glyph glyph-name="ecircumflex" unicode="&#xea;" horiz-adv-x="460" 
d="M415 221v-13h-338c1 -107 63 -187 185 -187c42 0 85 11 121 28c0 0 9 -29 9 -28c-37 -18 -87 -29 -130 -29c-144 0 -218 94 -218 215s76 216 193 216s178 -88 178 -202zM78 236h304c-4 88 -50 158 -147 158c-92 0 -148 -67 -157 -158zM362 485h-37l-90 110l-85 -110h-38
l109 137h30z" />
    <glyph glyph-name="Edieresis" unicode="&#xcb;" horiz-adv-x="551" 
d="M492 0h-399v733h399v-29h-366v-318h331v-28h-331v-329h366v-29zM410 861c0 -18 -15 -34 -34 -34s-34 16 -34 34c0 19 15 35 34 35s34 -16 34 -35zM242 861c0 -18 -15 -34 -34 -34s-34 16 -34 34c0 19 15 35 34 35s34 -16 34 -35z" />
    <glyph glyph-name="edieresis" unicode="&#xeb;" horiz-adv-x="460" 
d="M415 221v-13h-338c1 -107 63 -187 185 -187c42 0 85 11 121 28c0 0 9 -29 9 -28c-37 -18 -87 -29 -130 -29c-144 0 -218 94 -218 215s76 216 193 216s178 -88 178 -202zM78 236h304c-4 88 -50 158 -147 158c-92 0 -148 -67 -157 -158zM355 541c0 -18 -15 -34 -34 -34
s-34 16 -34 34c0 19 15 35 34 35s34 -16 34 -35zM187 541c0 -18 -15 -34 -34 -34s-34 16 -34 34c0 19 15 35 34 35s34 -16 34 -35z" />
    <glyph glyph-name="Edotaccent" unicode="&#x116;" horiz-adv-x="551" 
d="M492 0h-399v733h399v-29h-366v-318h331v-28h-331v-329h366v-29zM258 861c0 19 15 35 34 35s34 -16 34 -35c0 -18 -15 -34 -34 -34s-34 16 -34 34z" />
    <glyph glyph-name="edotaccent" unicode="&#x117;" horiz-adv-x="460" 
d="M415 221v-13h-338c1 -107 63 -187 185 -187c42 0 85 11 121 28c0 0 9 -29 9 -28c-37 -18 -87 -29 -130 -29c-144 0 -218 94 -218 215s76 216 193 216s178 -88 178 -202zM78 236h304c-4 88 -50 158 -147 158c-92 0 -148 -67 -157 -158zM203 541c0 19 15 35 34 35
s34 -16 34 -35c0 -18 -15 -34 -34 -34s-34 16 -34 34z" />
    <glyph glyph-name="Egrave" unicode="&#xc8;" horiz-adv-x="551" 
d="M492 0h-399v733h399v-29h-366v-318h331v-28h-331v-329h366v-29zM319 814l-12 -19l-194 109l20 31z" />
    <glyph glyph-name="egrave" unicode="&#xe8;" horiz-adv-x="460" 
d="M415 221v-13h-338c1 -107 63 -187 185 -187c42 0 85 11 121 28c0 0 9 -29 9 -28c-37 -18 -87 -29 -130 -29c-144 0 -218 94 -218 215s76 216 193 216s178 -88 178 -202zM78 236h304c-4 88 -50 158 -147 158c-92 0 -148 -67 -157 -158zM264 494l-12 -19l-194 109l20 31z
" />
    <glyph glyph-name="Emacron" unicode="&#x112;" horiz-adv-x="551" 
d="M492 0h-399v733h399v-29h-366v-318h331v-28h-331v-329h366v-29zM436 843h-287v29h287v-29z" />
    <glyph glyph-name="emacron" unicode="&#x113;" horiz-adv-x="460" 
d="M415 221v-13h-338c1 -107 63 -187 185 -187c42 0 85 11 121 28c0 0 9 -29 9 -28c-37 -18 -87 -29 -130 -29c-144 0 -218 94 -218 215s76 216 193 216s178 -88 178 -202zM78 236h304c-4 88 -50 158 -147 158c-92 0 -148 -67 -157 -158zM381 523h-287v29h287v-29z" />
    <glyph glyph-name="Eogonek" unicode="&#x118;" horiz-adv-x="551" 
d="M487 -169c-20 -29 -45 -50 -85 -50c-43 0 -73 26 -73 72c0 50 35 95 87 147h-323v733h399v-29h-366v-318h331v-28h-331v-329h366v-29h-37c-48 -45 -96 -98 -96 -145c0 -30 20 -47 45 -47c28 0 48 17 64 40z" />
    <glyph glyph-name="eogonek" unicode="&#x119;" horiz-adv-x="460" 
d="M415 221v-13h-338c1 -107 63 -187 185 -187c42 0 85 11 121 28c0 0 9 -29 9 -28c-64 -45 -124 -112 -124 -164c0 -32 20 -49 45 -49c28 0 48 17 64 40l19 -17c-20 -29 -45 -50 -85 -50c-43 0 -73 26 -73 72c0 50 34 98 86 146c-21 -5 -42 -7 -62 -7
c-144 0 -218 94 -218 215s76 216 193 216s178 -88 178 -202zM78 236h304c-4 88 -50 158 -147 158c-92 0 -148 -67 -157 -158z" />
    <glyph glyph-name="Eth" unicode="&#xd0;" horiz-adv-x="775" 
d="M714 373c0 -207 -145 -381 -415 -381c-65 0 -132 6 -166 11v356h-83v29h83v342c34 5 101 11 166 11c270 0 415 -181 415 -368zM680 373c0 179 -137 339 -386 339c-50 0 -97 -4 -128 -8v-316h163v-29h-163v-330c31 -4 78 -8 128 -8c250 0 386 154 386 352z" />
    <glyph glyph-name="eth" unicode="&#xf0;" horiz-adv-x="491" 
d="M134 525l-18 22l94 82c-39 31 -83 58 -130 81l13 26c48 -23 96 -52 140 -87l74 65l19 -22l-71 -62c110 -95 192 -232 192 -413c0 -134 -84 -225 -203 -225c-121 0 -199 100 -199 221c0 111 80 211 195 211c73 0 126 -32 161 -85c-20 98 -81 194 -169 271zM415 209
c0 106 -62 185 -175 185c-98 0 -162 -83 -162 -183c0 -102 65 -190 167 -190s170 87 170 188z" />
    <glyph glyph-name="Gbreve" unicode="&#x11e;" horiz-adv-x="783" 
d="M452 334h257v-249c-71 -59 -158 -93 -264 -93c-196 0 -384 129 -384 373c0 241 183 380 379 380c114 0 192 -37 268 -91l-18 -26c-72 52 -146 87 -251 88c-174 0 -344 -126 -344 -350c0 -223 165 -345 352 -345c91 0 171 30 229 78v206h-224v29zM548 931
c-1 -64 -46 -120 -123 -120c-76 0 -121 56 -122 120l30 4c2 -58 36 -96 92 -96s91 38 93 96z" />
    <glyph glyph-name="gbreve" unicode="&#x11f;" horiz-adv-x="501" 
d="M432 -43c0 -123 -57 -185 -172 -185c-55 0 -96 10 -137 26c0 -1 8 29 8 29c45 -18 85 -26 129 -26c97 0 140 49 140 155v102c-34 -35 -87 -66 -153 -66c-115 0 -202 92 -202 215s88 216 204 216c66 0 119 -31 152 -66v58h31v-458zM400 97v223c-34 42 -89 74 -152 74
c-97 0 -170 -77 -170 -187c0 -109 73 -186 170 -186c63 0 118 33 152 76zM388 611c-1 -64 -46 -120 -123 -120c-76 0 -121 56 -122 120l30 4c2 -58 36 -96 92 -96s91 38 93 96z" />
    <glyph glyph-name="Gcommaaccent" unicode="&#x122;" horiz-adv-x="783" 
d="M452 334h257v-249c-71 -59 -158 -93 -264 -93c-196 0 -384 129 -384 373c0 241 183 380 379 380c114 0 192 -37 268 -91l-18 -26c-72 52 -146 87 -251 88c-174 0 -344 -126 -344 -350c0 -223 165 -345 352 -345c91 0 171 30 229 78v206h-224v29zM465 -122
c0 -47 -40 -96 -69 -114l-11 10c25 25 44 54 48 85c-26 4 -40 19 -40 36c0 18 15 32 32 32c21 0 40 -18 40 -49z" />
    <glyph glyph-name="gcommaaccent" unicode="&#x123;" horiz-adv-x="501" 
d="M432 -43c0 -123 -57 -185 -172 -185c-55 0 -96 10 -137 26c0 -1 8 29 8 29c45 -18 85 -26 129 -26c97 0 140 49 140 155v102c-34 -35 -87 -66 -153 -66c-115 0 -202 92 -202 215s88 216 204 216c66 0 119 -31 152 -66v58h31v-458zM400 97v223c-34 42 -89 74 -152 74
c-97 0 -170 -77 -170 -187c0 -109 73 -186 170 -186c63 0 118 33 152 76zM226 556c0 47 40 96 69 114l11 -10c-25 -25 -44 -54 -48 -85c26 -4 40 -19 40 -36c0 -18 -15 -32 -32 -32c-21 0 -40 18 -40 49z" />
    <glyph glyph-name="Gdotaccent" unicode="&#x120;" horiz-adv-x="783" 
d="M452 334h257v-249c-71 -59 -158 -93 -264 -93c-196 0 -384 129 -384 373c0 241 183 380 379 380c114 0 192 -37 268 -91l-18 -26c-72 52 -146 87 -251 88c-174 0 -344 -126 -344 -350c0 -223 165 -345 352 -345c91 0 171 30 229 78v206h-224v29zM391 861
c0 19 15 35 34 35s34 -16 34 -35c0 -18 -15 -34 -34 -34s-34 16 -34 34z" />
    <glyph glyph-name="gdotaccent" unicode="&#x121;" horiz-adv-x="501" 
d="M432 -43c0 -123 -57 -185 -172 -185c-55 0 -96 10 -137 26c0 -1 8 29 8 29c45 -18 85 -26 129 -26c97 0 140 49 140 155v102c-34 -35 -87 -66 -153 -66c-115 0 -202 92 -202 215s88 216 204 216c66 0 119 -31 152 -66v58h31v-458zM400 97v223c-34 42 -89 74 -152 74
c-97 0 -170 -77 -170 -187c0 -109 73 -186 170 -186c63 0 118 33 152 76zM231 541c0 19 15 35 34 35s34 -16 34 -35c0 -18 -15 -34 -34 -34s-34 16 -34 34z" />
    <glyph glyph-name="Hbar" unicode="&#x126;" horiz-adv-x="701" 
d="M608 0h-33v359h-449v-359h-33v564h-78v28h78v141h33v-141h449v141h33v-141h79v-28h-79v-564zM126 388h449v176h-449v-176z" />
    <glyph glyph-name="hbar" unicode="&#x127;" horiz-adv-x="447" 
d="M392 0h-32v273c0 76 -32 121 -107 121c-59 0 -117 -41 -162 -92v-302h-32v579h-60v30h60v124h32v-124h147v-30h-147v-242c38 42 100 86 164 86c96 0 137 -62 137 -147v-276z" />
    <glyph glyph-name="Iacute" unicode="&#xcd;" horiz-adv-x="225" 
d="M129 0h-33v733h33v-733zM285 904l-194 -109l-12 19l186 121z" />
    <glyph glyph-name="iacute" unicode="&#xed;" horiz-adv-x="174" 
d="M103 0h-32v415h32v-415zM260 584l-194 -109l-12 19l186 121z" />
    <glyph glyph-name="Ibreve" unicode="&#x12c;" horiz-adv-x="225" 
d="M129 0h-33v733h33v-733zM235 931c-1 -64 -46 -120 -123 -120c-76 0 -121 56 -122 120l30 4c2 -58 36 -96 92 -96s91 38 93 96z" />
    <glyph glyph-name="ibreve" unicode="&#x12d;" horiz-adv-x="174" 
d="M103 0h-32v415h32v-415zM210 611c-1 -64 -46 -120 -123 -120c-76 0 -121 56 -122 120l30 4c2 -58 36 -96 92 -96s91 38 93 96z" />
    <glyph glyph-name="Icircumflex" unicode="&#xce;" horiz-adv-x="225" 
d="M129 0h-33v733h33v-733zM237 805h-37l-90 110l-85 -110h-38l109 137h30z" />
    <glyph glyph-name="icircumflex" unicode="&#xee;" horiz-adv-x="174" 
d="M103 0h-32v415h32v-415zM212 485h-37l-90 110l-85 -110h-38l109 137h30z" />
    <glyph glyph-name="Idieresis" unicode="&#xcf;" horiz-adv-x="225" 
d="M129 0h-33v733h33v-733zM230 861c0 -18 -15 -34 -34 -34s-34 16 -34 34c0 19 15 35 34 35s34 -16 34 -35zM62 861c0 -18 -15 -34 -34 -34s-34 16 -34 34c0 19 15 35 34 35s34 -16 34 -35z" />
    <glyph glyph-name="idieresis" unicode="&#xef;" horiz-adv-x="174" 
d="M103 0h-32v415h32v-415zM205 541c0 -18 -15 -34 -34 -34s-34 16 -34 34c0 19 15 35 34 35s34 -16 34 -35zM37 541c0 -18 -15 -34 -34 -34s-34 16 -34 34c0 19 15 35 34 35s34 -16 34 -35z" />
    <glyph glyph-name="Idotaccent" unicode="&#x130;" horiz-adv-x="225" 
d="M129 0h-33v733h33v-733zM78 861c0 19 15 35 34 35s34 -16 34 -35c0 -18 -15 -34 -34 -34s-34 16 -34 34z" />
    <glyph glyph-name="dotlessi" unicode="&#x131;" horiz-adv-x="174" 
d="M103 0h-32v415h32v-415z" />
    <glyph glyph-name="Igrave" unicode="&#xcc;" horiz-adv-x="225" 
d="M129 0h-33v733h33v-733zM139 814l-12 -19l-194 109l20 31z" />
    <glyph glyph-name="igrave" unicode="&#xec;" horiz-adv-x="174" 
d="M103 0h-32v415h32v-415zM114 494l-12 -19l-194 109l20 31z" />
    <glyph glyph-name="Imacron" unicode="&#x12a;" horiz-adv-x="225" 
d="M129 0h-33v733h33v-733zM256 843h-287v29h287v-29z" />
    <glyph glyph-name="imacron" unicode="&#x12b;" horiz-adv-x="174" 
d="M103 0h-32v415h32v-415zM231 523h-287v29h287v-29z" />
    <glyph glyph-name="Iogonek" unicode="&#x12e;" horiz-adv-x="225" 
d="M183 -167c-20 -29 -47 -52 -87 -52c-41 0 -71 27 -71 75c0 47 27 92 71 146v731h33v-733c-42 -50 -74 -96 -74 -143c0 -31 20 -49 43 -49c30 0 49 17 66 41z" />
    <glyph glyph-name="iogonek" unicode="&#x12f;" horiz-adv-x="174" 
d="M157 -167c-20 -29 -47 -52 -87 -52c-41 0 -71 27 -71 75s27 92 72 147v412h32v-415c-42 -50 -74 -96 -74 -143c0 -31 20 -49 43 -49c30 0 49 17 66 41zM116 580c0 -16 -13 -30 -30 -30s-30 14 -30 30c0 17 13 31 30 31s30 -14 30 -31z" />
    <glyph glyph-name="Kcommaaccent" unicode="&#x136;" horiz-adv-x="587" 
d="M548 0h-44l-378 363v-363h-33v733h33v-342l366 342h43l-381 -356zM340 -112c0 -47 -40 -96 -69 -114l-11 10c25 25 44 54 48 85c-26 4 -40 19 -40 36c0 18 15 32 32 32c21 0 40 -18 40 -49z" />
    <glyph glyph-name="kcommaaccent" unicode="&#x137;" horiz-adv-x="374" 
d="M371 0h-43l-227 205v-205h-32v733h32v-503l217 185h43l-232 -197zM246 -122c0 -47 -40 -96 -69 -114l-11 10c25 25 44 54 48 85c-26 4 -40 19 -40 36c0 18 15 32 32 32c21 0 40 -18 40 -49z" />
    <glyph glyph-name="Lacute" unicode="&#x139;" horiz-adv-x="498" 
d="M492 0h-399v733h33v-704h366v-29zM299 904l-194 -109l-12 19l186 121z" />
    <glyph glyph-name="lacute" unicode="&#x13a;" horiz-adv-x="174" 
d="M103 0h-32v733h32v-733zM260 904l-194 -109l-12 19l186 121z" />
    <glyph glyph-name="Lcaron" unicode="&#x13d;" horiz-adv-x="498" 
d="M492 0h-399v733h33v-704h366v-29zM292 732l33 -4c0 -79 -33 -138 -88 -179l-13 13c44 41 68 96 68 170z" />
    <glyph glyph-name="lcaron" unicode="&#x13e;" horiz-adv-x="174" 
d="M103 0h-32v733h32v-733zM202 732l33 -4c0 -79 -33 -138 -88 -179l-13 13c44 41 68 96 68 170z" />
    <glyph glyph-name="Lcommaaccent" unicode="&#x13b;" horiz-adv-x="498" 
d="M492 0h-399v733h33v-704h366v-29zM332 -122c0 -47 -40 -96 -69 -114l-11 10c25 25 44 54 48 85c-26 4 -40 19 -40 36c0 18 15 32 32 32c21 0 40 -18 40 -49z" />
    <glyph glyph-name="lcommaaccent" unicode="&#x13c;" horiz-adv-x="174" 
d="M103 0h-32v733h32v-733zM127 -122c0 -47 -40 -96 -69 -114l-11 10c25 25 44 54 48 85c-26 4 -40 19 -40 36c0 18 15 32 32 32c21 0 40 -18 40 -49z" />
    <glyph glyph-name="Ldot" unicode="&#x13f;" horiz-adv-x="498" 
d="M492 0h-399v733h33v-704h366v-29zM325 366c0 -18 15 -34 34 -34s34 16 34 34c0 19 -15 35 -34 35s-34 -16 -34 -35z" />
    <glyph glyph-name="ldot" unicode="&#x140;" horiz-adv-x="242" 
d="M103 0h-32v733h32v-733zM174 366c0 -18 15 -34 34 -34s34 16 34 34c0 19 -15 35 -34 35s-34 -16 -34 -35z" />
    <glyph glyph-name="Lslash" unicode="&#x141;" horiz-adv-x="538" 
d="M532 0h-399v348l-71 -32v29l71 32v356h33v-341l121 55v-29l-121 -55v-334h366v-29z" />
    <glyph glyph-name="lslash" unicode="&#x142;" horiz-adv-x="214" 
d="M182 383l-59 -26v-357h-32v342l-59 -26v29l59 26v362h32v-347l59 26v-29z" />
    <glyph glyph-name="Nacute" unicode="&#x143;" horiz-adv-x="727" 
d="M634 -6l-11 -1l-499 672v-665h-31v739l11 1l497 -669v662h33v-739zM536 894l-194 -109l-12 19l186 121z" />
    <glyph glyph-name="nacute" unicode="&#x144;" 
d="M402 0h-32v273c0 76 -32 121 -107 121c-59 0 -117 -41 -162 -92v-302h-32v415h31v-79c38 43 100 87 165 87c96 0 137 -62 137 -147v-276zM408 584l-194 -109l-12 19l186 121z" />
    <glyph glyph-name="Ncaron" unicode="&#x147;" horiz-adv-x="727" 
d="M634 -6l-11 -1l-499 672v-665h-31v739l11 1l497 -669v662h33v-739zM488 933l-109 -137h-30l-111 137h37l90 -110l85 110h38z" />
    <glyph glyph-name="ncaron" unicode="&#x148;" 
d="M402 0h-32v273c0 76 -32 121 -107 121c-59 0 -117 -41 -162 -92v-302h-32v415h31v-79c38 43 100 87 165 87c96 0 137 -62 137 -147v-276zM360 623l-109 -137h-30l-111 137h37l90 -110l85 110h38z" />
    <glyph glyph-name="Ncommaaccent" unicode="&#x145;" horiz-adv-x="727" 
d="M634 -6l-11 -1l-499 672v-665h-31v739l11 1l497 -669v662h33v-739zM403 -112c0 -47 -40 -96 -69 -114l-11 10c25 25 44 54 48 85c-26 4 -40 19 -40 36c0 18 15 32 32 32c21 0 40 -18 40 -49z" />
    <glyph glyph-name="ncommaaccent" unicode="&#x146;" 
d="M402 0h-32v273c0 76 -32 121 -107 121c-59 0 -117 -41 -162 -92v-302h-32v415h31v-79c38 43 100 87 165 87c96 0 137 -62 137 -147v-276zM275 -122c0 -47 -40 -96 -69 -114l-11 10c25 25 44 54 48 85c-26 4 -40 19 -40 36c0 18 15 32 32 32c21 0 40 -18 40 -49z" />
    <glyph glyph-name="Ntilde" unicode="&#xd1;" horiz-adv-x="727" 
d="M634 -6l-11 -1l-499 672v-665h-31v739l11 1l497 -669v662h33v-739zM516 867c-36 -40 -63 -55 -93 -54c-22 1 -44 13 -65 25c-20 12 -40 24 -56 25c-22 1 -42 -11 -72 -45l-19 22c36 40 63 55 93 54c22 -1 44 -13 65 -25c20 -12 40 -24 56 -25c22 -1 42 11 72 45z" />
    <glyph glyph-name="ntilde" unicode="&#xf1;" 
d="M402 0h-32v273c0 76 -32 121 -107 121c-59 0 -117 -41 -162 -92v-302h-32v415h31v-79c38 43 100 87 165 87c96 0 137 -62 137 -147v-276zM388 557c-36 -40 -63 -55 -93 -54c-22 1 -44 13 -65 25c-20 12 -40 24 -56 25c-22 1 -42 -11 -72 -45l-19 22c36 40 63 55 93 54
c22 -1 44 -13 65 -25c20 -12 40 -24 56 -25c22 -1 42 11 72 45z" />
    <glyph glyph-name="Oacute" unicode="&#xd3;" horiz-adv-x="842" 
d="M781 366c0 -214 -155 -374 -360 -374s-360 160 -360 374s155 376 360 376s360 -162 360 -376zM747 366c0 196 -137 347 -326 347s-326 -151 -326 -347s137 -345 326 -345s326 149 326 345zM594 904l-194 -109l-12 19l186 121z" />
    <glyph glyph-name="oacute" unicode="&#xf3;" horiz-adv-x="495" 
d="M450 209c0 -121 -87 -217 -204 -217s-201 94 -201 215s86 216 203 216s202 -93 202 -214zM417 208c0 105 -68 186 -170 186c-101 0 -169 -82 -169 -186c0 -105 67 -187 169 -187c101 0 170 83 170 187zM420 584l-194 -109l-12 19l186 121z" />
    <glyph glyph-name="Obreve" unicode="&#x14e;" horiz-adv-x="842" 
d="M781 366c0 -214 -155 -374 -360 -374s-360 160 -360 374s155 376 360 376s360 -162 360 -376zM747 366c0 196 -137 347 -326 347s-326 -151 -326 -347s137 -345 326 -345s326 149 326 345zM544 931c-1 -64 -46 -120 -123 -120c-76 0 -121 56 -122 120l30 4
c2 -58 36 -96 92 -96s91 38 93 96z" />
    <glyph glyph-name="obreve" unicode="&#x14f;" horiz-adv-x="495" 
d="M450 209c0 -121 -87 -217 -204 -217s-201 94 -201 215s86 216 203 216s202 -93 202 -214zM417 208c0 105 -68 186 -170 186c-101 0 -169 -82 -169 -186c0 -105 67 -187 169 -187c101 0 170 83 170 187zM370 611c-1 -64 -46 -120 -123 -120c-76 0 -121 56 -122 120l30 4
c2 -58 36 -96 92 -96s91 38 93 96z" />
    <glyph glyph-name="Ocircumflex" unicode="&#xd4;" horiz-adv-x="842" 
d="M781 366c0 -214 -155 -374 -360 -374s-360 160 -360 374s155 376 360 376s360 -162 360 -376zM747 366c0 196 -137 347 -326 347s-326 -151 -326 -347s137 -345 326 -345s326 149 326 345zM546 805h-37l-90 110l-85 -110h-38l109 137h30z" />
    <glyph glyph-name="ocircumflex" unicode="&#xf4;" horiz-adv-x="495" 
d="M450 209c0 -121 -87 -217 -204 -217s-201 94 -201 215s86 216 203 216s202 -93 202 -214zM417 208c0 105 -68 186 -170 186c-101 0 -169 -82 -169 -186c0 -105 67 -187 169 -187c101 0 170 83 170 187zM372 485h-37l-90 110l-85 -110h-38l109 137h30z" />
    <glyph glyph-name="Odieresis" unicode="&#xd6;" horiz-adv-x="842" 
d="M781 366c0 -214 -155 -374 -360 -374s-360 160 -360 374s155 376 360 376s360 -162 360 -376zM747 366c0 196 -137 347 -326 347s-326 -151 -326 -347s137 -345 326 -345s326 149 326 345zM539 861c0 -18 -15 -34 -34 -34s-34 16 -34 34c0 19 15 35 34 35s34 -16 34 -35z
M371 861c0 -18 -15 -34 -34 -34s-34 16 -34 34c0 19 15 35 34 35s34 -16 34 -35z" />
    <glyph glyph-name="odieresis" unicode="&#xf6;" horiz-adv-x="495" 
d="M450 209c0 -121 -87 -217 -204 -217s-201 94 -201 215s86 216 203 216s202 -93 202 -214zM417 208c0 105 -68 186 -170 186c-101 0 -169 -82 -169 -186c0 -105 67 -187 169 -187c101 0 170 83 170 187zM365 541c0 -18 -15 -34 -34 -34s-34 16 -34 34c0 19 15 35 34 35
s34 -16 34 -35zM197 541c0 -18 -15 -34 -34 -34s-34 16 -34 34c0 19 15 35 34 35s34 -16 34 -35z" />
    <glyph glyph-name="Ograve" unicode="&#xd2;" horiz-adv-x="842" 
d="M781 366c0 -214 -155 -374 -360 -374s-360 160 -360 374s155 376 360 376s360 -162 360 -376zM747 366c0 196 -137 347 -326 347s-326 -151 -326 -347s137 -345 326 -345s326 149 326 345zM448 814l-12 -19l-194 109l20 31z" />
    <glyph glyph-name="ograve" unicode="&#xf2;" horiz-adv-x="495" 
d="M450 209c0 -121 -87 -217 -204 -217s-201 94 -201 215s86 216 203 216s202 -93 202 -214zM417 208c0 105 -68 186 -170 186c-101 0 -169 -82 -169 -186c0 -105 67 -187 169 -187c101 0 170 83 170 187zM274 494l-12 -19l-194 109l20 31z" />
    <glyph glyph-name="Ohungarumlaut" unicode="&#x150;" horiz-adv-x="842" 
d="M781 366c0 -214 -155 -374 -360 -374s-360 160 -360 374s155 376 360 376s360 -162 360 -376zM747 366c0 196 -137 347 -326 347s-326 -151 -326 -347s137 -345 326 -345s326 149 326 345zM472 966l-109 -167l-18 12l95 174zM597 949l-105 -160l-18 12l91 167z" />
    <glyph glyph-name="ohungarumlaut" unicode="&#x151;" horiz-adv-x="495" 
d="M450 209c0 -121 -87 -217 -204 -217s-201 94 -201 215s86 216 203 216s202 -93 202 -214zM417 208c0 105 -68 186 -170 186c-101 0 -169 -82 -169 -186c0 -105 67 -187 169 -187c101 0 170 83 170 187zM298 646l-109 -167l-18 12l95 174zM423 629l-105 -160l-18 12
l91 167z" />
    <glyph glyph-name="Omacron" unicode="&#x14c;" horiz-adv-x="842" 
d="M781 366c0 -214 -155 -374 -360 -374s-360 160 -360 374s155 376 360 376s360 -162 360 -376zM747 366c0 196 -137 347 -326 347s-326 -151 -326 -347s137 -345 326 -345s326 149 326 345zM565 843h-287v29h287v-29z" />
    <glyph glyph-name="omacron" unicode="&#x14d;" horiz-adv-x="495" 
d="M450 209c0 -121 -87 -217 -204 -217s-201 94 -201 215s86 216 203 216s202 -93 202 -214zM417 208c0 105 -68 186 -170 186c-101 0 -169 -82 -169 -186c0 -105 67 -187 169 -187c101 0 170 83 170 187zM391 523h-287v29h287v-29z" />
    <glyph glyph-name="Oslash" unicode="&#xd8;" horiz-adv-x="842" 
d="M781 366c0 -214 -155 -374 -360 -374c-98 0 -185 37 -249 98c0 1 -93 -96 -93 -96l-19 19s94 97 94 96c-58 67 -93 156 -93 257c0 214 155 376 360 376c99 0 186 -38 250 -101l94 98l18 -19s-60 -63 -95 -98c58 -65 93 -155 93 -256zM649 619c-58 59 -137 94 -228 94
c-189 0 -326 -151 -326 -347c0 -92 30 -173 81 -234zM747 366c0 91 -30 173 -81 234c1 0 -472 -487 -472 -487c57 -58 136 -92 227 -92c189 0 326 149 326 345z" />
    <glyph glyph-name="oslash" unicode="&#xf8;" horiz-adv-x="495" 
d="M471 404l-63 -61c27 -36 42 -82 42 -134c0 -121 -87 -217 -204 -217c-57 0 -107 23 -142 60l-63 -60l-19 19s65 62 65 61c-27 37 -42 83 -42 135c0 121 86 216 203 216c57 0 107 -22 143 -60c25 24 62 60 62 60zM109 94l259 248c-29 33 -71 52 -121 52
c-101 0 -169 -82 -169 -186c0 -43 11 -82 31 -114zM385 321l-259 -248c30 -32 71 -52 121 -52c101 0 170 83 170 187c0 43 -11 82 -32 113z" />
    <glyph glyph-name="Oslashacute" unicode="&#x1fe;" horiz-adv-x="842" 
d="M781 366c0 -214 -155 -374 -360 -374c-98 0 -185 37 -249 98c0 1 -93 -96 -93 -96l-19 19s94 97 94 96c-58 67 -93 156 -93 257c0 214 155 376 360 376c99 0 186 -38 250 -101l94 98l18 -19s-60 -63 -95 -98c58 -65 93 -155 93 -256zM649 619c-58 59 -137 94 -228 94
c-189 0 -326 -151 -326 -347c0 -92 30 -173 81 -234zM747 366c0 91 -30 173 -81 234c1 0 -472 -487 -472 -487c57 -58 136 -92 227 -92c189 0 326 149 326 345zM594 904l-194 -109l-12 19l186 121z" />
    <glyph glyph-name="oslashacute" unicode="&#x1ff;" horiz-adv-x="495" 
d="M471 404l-63 -61c27 -36 42 -82 42 -134c0 -121 -87 -217 -204 -217c-57 0 -107 23 -142 60l-63 -60l-19 19s65 62 65 61c-27 37 -42 83 -42 135c0 121 86 216 203 216c57 0 107 -22 143 -60c25 24 62 60 62 60zM109 94l259 248c-29 33 -71 52 -121 52
c-101 0 -169 -82 -169 -186c0 -43 11 -82 31 -114zM385 321l-259 -248c30 -32 71 -52 121 -52c101 0 170 83 170 187c0 43 -11 82 -32 113zM419 584l-194 -109l-12 19l186 121z" />
    <glyph glyph-name="Otilde" unicode="&#xd5;" horiz-adv-x="842" 
d="M781 366c0 -214 -155 -374 -360 -374s-360 160 -360 374s155 376 360 376s360 -162 360 -376zM747 366c0 196 -137 347 -326 347s-326 -151 -326 -347s137 -345 326 -345s326 149 326 345zM574 877c-36 -40 -63 -55 -93 -54c-22 1 -44 13 -65 25c-20 12 -40 24 -56 25
c-22 1 -42 -11 -72 -45l-19 22c36 40 63 55 93 54c22 -1 44 -13 65 -25c20 -12 40 -24 56 -25c22 -1 42 11 72 45z" />
    <glyph glyph-name="otilde" unicode="&#xf5;" horiz-adv-x="495" 
d="M450 209c0 -121 -87 -217 -204 -217s-201 94 -201 215s86 216 203 216s202 -93 202 -214zM417 208c0 105 -68 186 -170 186c-101 0 -169 -82 -169 -186c0 -105 67 -187 169 -187c101 0 170 83 170 187zM400 557c-36 -40 -63 -55 -93 -54c-22 1 -44 13 -65 25
c-20 12 -40 24 -56 25c-22 1 -42 -11 -72 -45l-19 22c36 40 63 55 93 54c22 -1 44 -13 65 -25c20 -12 40 -24 56 -25c22 -1 42 11 72 45z" />
    <glyph glyph-name="OE" unicode="&#x152;" horiz-adv-x="1055" 
d="M996 0h-387c-36 -4 -85 -7 -133 -7c-270 0 -415 181 -415 368c0 207 145 381 415 381c56 0 114 -5 151 -9h369v-29h-366v-318h331v-28h-331v-329h366v-29zM597 28v678c-30 4 -72 7 -116 7c-250 0 -386 -154 -386 -352c0 -179 137 -339 386 -339c44 0 86 3 116 6z" />
    <glyph glyph-name="oe" unicode="&#x153;" horiz-adv-x="830" 
d="M786 221v-13h-338c1 -107 63 -187 185 -187c42 0 85 11 121 28c0 0 9 -29 9 -28c-37 -18 -87 -29 -130 -29c-105 0 -173 50 -202 124c-31 -74 -100 -124 -185 -124c-117 0 -201 94 -201 215s86 216 203 216c85 0 153 -49 184 -122c29 73 92 122 176 122
c117 0 178 -88 178 -202zM417 208c0 105 -68 186 -170 186c-101 0 -169 -82 -169 -186c0 -105 67 -187 169 -187c101 0 170 83 170 187zM753 236c-4 88 -50 158 -147 158c-92 0 -148 -67 -157 -158h304z" />
    <glyph glyph-name="Racute" unicode="&#x154;" horiz-adv-x="585" 
d="M544 0h-39l-205 307c-24 -5 -50 -7 -78 -7s-71 3 -96 7v-307h-33v726c54 7 92 12 145 12c172 0 273 -84 273 -215c0 -98 -65 -178 -179 -209zM477 523c0 109 -81 186 -239 186c-41 0 -68 -3 -112 -9v-364c26 -4 64 -8 96 -8c157 0 255 75 255 195zM447 904l-194 -109
l-12 19l186 121z" />
    <glyph glyph-name="racute" unicode="&#x155;" horiz-adv-x="274" 
d="M254 394c-57 -4 -118 -39 -153 -109v-285h-32v415h31v-87c36 56 92 98 154 98v-32zM334 584l-194 -109l-12 19l186 121z" />
    <glyph glyph-name="Rcaron" unicode="&#x158;" horiz-adv-x="585" 
d="M544 0h-39l-205 307c-24 -5 -50 -7 -78 -7s-71 3 -96 7v-307h-33v726c54 7 92 12 145 12c172 0 273 -84 273 -215c0 -98 -65 -178 -179 -209zM477 523c0 109 -81 186 -239 186c-41 0 -68 -3 -112 -9v-364c26 -4 64 -8 96 -8c157 0 255 75 255 195zM399 943l-109 -137h-30
l-111 137h37l90 -110l85 110h38z" />
    <glyph glyph-name="rcaron" unicode="&#x159;" horiz-adv-x="274" 
d="M254 394c-57 -4 -118 -39 -153 -109v-285h-32v415h31v-87c36 56 92 98 154 98v-32zM286 623l-109 -137h-30l-111 137h37l90 -110l85 110h38z" />
    <glyph glyph-name="Rcommaaccent" unicode="&#x156;" horiz-adv-x="585" 
d="M544 0h-39l-205 307c-24 -5 -50 -7 -78 -7s-71 3 -96 7v-307h-33v726c54 7 92 12 145 12c172 0 273 -84 273 -215c0 -98 -65 -178 -179 -209zM477 523c0 109 -81 186 -239 186c-41 0 -68 -3 -112 -9v-364c26 -4 64 -8 96 -8c157 0 255 75 255 195zM322 -122
c0 -47 -40 -96 -69 -114l-11 10c25 25 44 54 48 85c-26 4 -40 19 -40 36c0 18 15 32 32 32c21 0 40 -18 40 -49z" />
    <glyph glyph-name="rcommaaccent" unicode="&#x157;" horiz-adv-x="274" 
d="M254 394c-57 -4 -118 -39 -153 -109v-285h-32v415h31v-87c36 56 92 98 154 98v-32zM123 -120c0 -47 -40 -96 -69 -114l-11 10c25 25 44 54 48 85c-26 4 -40 19 -40 36c0 18 15 32 32 32c21 0 40 -18 40 -49z" />
    <glyph glyph-name="Sacute" unicode="&#x15a;" horiz-adv-x="531" 
d="M466 179c0 -120 -103 -191 -223 -191c-74 0 -148 26 -213 68l16 27c61 -39 127 -66 202 -66c100 0 186 62 186 158c0 106 -88 142 -176 182c-100 45 -191 91 -191 205c0 106 88 183 216 183c66 0 124 -21 167 -50l-17 -27c-38 26 -92 48 -154 48
c-105 0 -180 -64 -180 -150c0 -107 89 -142 177 -182c100 -45 190 -92 190 -205zM439 904l-194 -109l-12 19l186 121z" />
    <glyph glyph-name="sacute" unicode="&#x15b;" horiz-adv-x="357" 
d="M305 107c0 -61 -50 -115 -129 -115c-53 0 -100 20 -142 49l15 24c38 -26 79 -46 127 -46c60 0 99 36 99 83c0 118 -218 76 -218 215c0 54 46 106 125 106c44 0 83 -14 120 -40l-15 -25c-36 26 -67 38 -105 38c-63 0 -95 -37 -95 -76c0 -119 218 -74 218 -213zM347 584
l-194 -109l-12 19l186 121z" />
    <glyph glyph-name="Scaron" unicode="&#x160;" horiz-adv-x="531" 
d="M466 179c0 -120 -103 -191 -223 -191c-74 0 -148 26 -213 68l16 27c61 -39 127 -66 202 -66c100 0 186 62 186 158c0 106 -88 142 -176 182c-100 45 -191 91 -191 205c0 106 88 183 216 183c66 0 124 -21 167 -50l-17 -27c-38 26 -92 48 -154 48
c-105 0 -180 -64 -180 -150c0 -107 89 -142 177 -182c100 -45 190 -92 190 -205zM391 943l-109 -137h-30l-111 137h37l90 -110l85 110h38z" />
    <glyph glyph-name="scaron" unicode="&#x161;" horiz-adv-x="357" 
d="M305 107c0 -61 -50 -115 -129 -115c-53 0 -100 20 -142 49l15 24c38 -26 79 -46 127 -46c60 0 99 36 99 83c0 118 -218 76 -218 215c0 54 46 106 125 106c44 0 83 -14 120 -40l-15 -25c-36 26 -67 38 -105 38c-63 0 -95 -37 -95 -76c0 -119 218 -74 218 -213zM299 623
l-109 -137h-30l-111 137h37l90 -110l85 110h38z" />
    <glyph glyph-name="Scedilla" unicode="&#x15e;" horiz-adv-x="531" 
d="M339 -154c0 -44 -37 -83 -104 -83c-33 0 -67 13 -104 32l13 26c36 -18 64 -30 91 -30c46 0 71 21 71 54c0 35 -29 64 -109 73l-2 4l17 67c-63 6 -126 31 -182 67l16 27c61 -39 127 -66 202 -66c100 0 186 62 186 158c0 106 -88 142 -176 182c-100 45 -191 91 -191 205
c0 106 88 183 216 183c66 0 124 -21 167 -50l-17 -27c-38 26 -92 48 -154 48c-105 0 -180 -64 -180 -150c0 -107 89 -142 177 -182c100 -45 190 -92 190 -205c0 -120 -103 -191 -223 -191h-2l-12 -47c72 -12 110 -48 110 -95z" />
    <glyph glyph-name="scedilla" unicode="&#x15f;" horiz-adv-x="357" 
d="M266 -154c0 -44 -37 -83 -104 -83c-33 0 -67 13 -104 32l13 26c36 -18 64 -30 91 -30c46 0 71 21 71 54c0 35 -29 64 -109 73l-2 4l19 73c-39 6 -75 23 -107 46l15 24c38 -26 79 -46 127 -46c60 0 99 36 99 83c0 118 -218 76 -218 215c0 54 46 106 125 106
c44 0 83 -14 120 -40l-15 -25c-36 26 -67 38 -105 38c-63 0 -95 -37 -95 -76c0 -119 218 -74 218 -213c0 -61 -50 -115 -129 -115h-7l-13 -51c72 -12 110 -48 110 -95z" />
    <glyph glyph-name="Scommaaccent" unicode="&#x218;" horiz-adv-x="531" 
d="M466 179c0 -120 -103 -191 -223 -191c-74 0 -148 26 -213 68l16 27c61 -39 127 -66 202 -66c100 0 186 62 186 158c0 106 -88 142 -176 182c-100 45 -191 91 -191 205c0 106 88 183 216 183c66 0 124 -21 167 -50l-17 -27c-38 26 -92 48 -154 48
c-105 0 -180 -64 -180 -150c0 -107 89 -142 177 -182c100 -45 190 -92 190 -205zM306 -122c0 -47 -40 -96 -69 -114l-11 10c25 25 44 54 48 85c-26 4 -40 19 -40 36c0 18 15 32 32 32c21 0 40 -18 40 -49z" />
    <glyph glyph-name="scommaaccent" unicode="&#x219;" horiz-adv-x="357" 
d="M305 107c0 -61 -50 -115 -129 -115c-53 0 -100 20 -142 49l15 24c38 -26 79 -46 127 -46c60 0 99 36 99 83c0 118 -218 76 -218 215c0 54 46 106 125 106c44 0 83 -14 120 -40l-15 -25c-36 26 -67 38 -105 38c-63 0 -95 -37 -95 -76c0 -119 218 -74 218 -213zM214 -122
c0 -47 -40 -96 -69 -114l-11 10c25 25 44 54 48 85c-26 4 -40 19 -40 36c0 18 15 32 32 32c21 0 40 -18 40 -49z" />
    <glyph glyph-name="Tcaron" unicode="&#x164;" horiz-adv-x="609" 
d="M574 704h-253v-704h-33v704h-253v29h539v-29zM429 943l-109 -137h-30l-111 137h37l90 -110l85 110h38z" />
    <glyph glyph-name="tcaron" unicode="&#x165;" horiz-adv-x="290" 
d="M267 386h-139v-288c0 -52 25 -77 74 -77c20 0 39 3 54 7l3 -29c-19 -4 -36 -7 -57 -7c-69 0 -106 33 -106 106v287h-74v16l74 14v107l32 23v-130h139v-29zM242 662l33 -4c0 -79 -33 -138 -88 -179l-13 13c44 41 68 96 68 170z" />
    <glyph glyph-name="Tcommaaccent" unicode="&#x162;" horiz-adv-x="609" 
d="M574 704h-253v-704h-33v704h-253v29h539v-29zM344 -122c0 -47 -40 -96 -69 -114l-11 10c25 25 44 54 48 85c-26 4 -40 19 -40 36c0 18 15 32 32 32c21 0 40 -18 40 -49z" />
    <glyph glyph-name="tcommaaccent" unicode="&#x163;" horiz-adv-x="290" 
d="M267 386h-139v-288c0 -52 25 -77 74 -77c20 0 39 3 54 7l3 -29c-19 -4 -36 -7 -57 -7c-69 0 -106 33 -106 106v287h-74v16l74 14v107l32 23v-130h139v-29zM206 -122c0 -47 -40 -96 -69 -114l-11 10c25 25 44 54 48 85c-26 4 -40 19 -40 36c0 18 15 32 32 32
c21 0 40 -18 40 -49z" />
    <glyph glyph-name="Thorn" unicode="&#xde;" horiz-adv-x="559" 
d="M509 376c0 -147 -107 -250 -287 -250c-29 0 -71 3 -96 7v-133h-33v733h33v-129c33 3 66 5 101 5c189 0 282 -108 282 -233zM475 376c0 110 -84 204 -248 204c-35 0 -68 -3 -101 -6v-412c26 -4 64 -8 96 -8c157 0 253 86 253 222z" />
    <glyph glyph-name="thorn" unicode="&#xfe;" horiz-adv-x="501" 
d="M456 206c0 -128 -89 -214 -205 -214c-59 0 -112 25 -150 55v-263h-32v949h31v-377c34 35 88 67 154 67c115 0 202 -94 202 -217zM423 206c0 109 -73 188 -170 188c-63 0 -118 -33 -152 -76v-233c40 -37 88 -64 151 -64c97 0 171 70 171 185z" />
    <glyph glyph-name="Uacute" unicode="&#xda;" horiz-adv-x="722" 
d="M632 268c0 -174 -105 -276 -272 -276c-173 0 -270 98 -270 276v465h33v-468c0 -154 89 -243 237 -243s239 92 239 243v468h33v-465zM534 894l-194 -109l-12 19l186 121z" />
    <glyph glyph-name="uacute" unicode="&#xfa;" 
d="M399 0h-31v79c-38 -43 -100 -87 -165 -87c-96 0 -137 62 -137 147v276h32v-273c0 -76 32 -121 107 -121c59 0 117 41 162 92v302h32v-415zM405 584l-194 -109l-12 19l186 121z" />
    <glyph glyph-name="Ubreve" unicode="&#x16c;" horiz-adv-x="722" 
d="M632 268c0 -174 -105 -276 -272 -276c-173 0 -270 98 -270 276v465h33v-468c0 -154 89 -243 237 -243s239 92 239 243v468h33v-465zM484 921c-1 -64 -46 -120 -123 -120c-76 0 -121 56 -122 120l30 4c2 -58 36 -96 92 -96s91 38 93 96z" />
    <glyph glyph-name="ubreve" unicode="&#x16d;" 
d="M399 0h-31v79c-38 -43 -100 -87 -165 -87c-96 0 -137 62 -137 147v276h32v-273c0 -76 32 -121 107 -121c59 0 117 41 162 92v302h32v-415zM355 611c-1 -64 -46 -120 -123 -120c-76 0 -121 56 -122 120l30 4c2 -58 36 -96 92 -96s91 38 93 96z" />
    <glyph glyph-name="Ucircumflex" unicode="&#xdb;" horiz-adv-x="722" 
d="M632 268c0 -174 -105 -276 -272 -276c-173 0 -270 98 -270 276v465h33v-468c0 -154 89 -243 237 -243s239 92 239 243v468h33v-465zM486 795h-37l-90 110l-85 -110h-38l109 137h30z" />
    <glyph glyph-name="ucircumflex" unicode="&#xfb;" 
d="M399 0h-31v79c-38 -43 -100 -87 -165 -87c-96 0 -137 62 -137 147v276h32v-273c0 -76 32 -121 107 -121c59 0 117 41 162 92v302h32v-415zM357 485h-37l-90 110l-85 -110h-38l109 137h30z" />
    <glyph glyph-name="Udieresis" unicode="&#xdc;" horiz-adv-x="722" 
d="M632 268c0 -174 -105 -276 -272 -276c-173 0 -270 98 -270 276v465h33v-468c0 -154 89 -243 237 -243s239 92 239 243v468h33v-465zM311 851c0 -18 -15 -34 -34 -34s-34 16 -34 34c0 19 15 35 34 35s34 -16 34 -35zM479 851c0 -18 -15 -34 -34 -34s-34 16 -34 34
c0 19 15 35 34 35s34 -16 34 -35z" />
    <glyph glyph-name="udieresis" unicode="&#xfc;" 
d="M399 0h-31v79c-38 -43 -100 -87 -165 -87c-96 0 -137 62 -137 147v276h32v-273c0 -76 32 -121 107 -121c59 0 117 41 162 92v302h32v-415zM350 541c0 -18 -15 -34 -34 -34s-34 16 -34 34c0 19 15 35 34 35s34 -16 34 -35zM182 541c0 -18 -15 -34 -34 -34s-34 16 -34 34
c0 19 15 35 34 35s34 -16 34 -35z" />
    <glyph glyph-name="Ugrave" unicode="&#xd9;" horiz-adv-x="722" 
d="M632 268c0 -174 -105 -276 -272 -276c-173 0 -270 98 -270 276v465h33v-468c0 -154 89 -243 237 -243s239 92 239 243v468h33v-465zM388 804l-12 -19l-194 109l20 31z" />
    <glyph glyph-name="ugrave" unicode="&#xf9;" 
d="M399 0h-31v79c-38 -43 -100 -87 -165 -87c-96 0 -137 62 -137 147v276h32v-273c0 -76 32 -121 107 -121c59 0 117 41 162 92v302h32v-415zM259 494l-12 -19l-194 109l20 31z" />
    <glyph glyph-name="Uhungarumlaut" unicode="&#x170;" horiz-adv-x="722" 
d="M632 268c0 -174 -105 -276 -272 -276c-173 0 -270 98 -270 276v465h33v-468c0 -154 89 -243 237 -243s239 92 239 243v468h33v-465zM412 956l-109 -167l-18 12l95 174zM537 939l-105 -160l-18 12l91 167z" />
    <glyph glyph-name="uhungarumlaut" unicode="&#x171;" 
d="M399 0h-31v79c-38 -43 -100 -87 -165 -87c-96 0 -137 62 -137 147v276h32v-273c0 -76 32 -121 107 -121c59 0 117 41 162 92v302h32v-415zM283 646l-109 -167l-18 12l95 174zM408 629l-105 -160l-18 12l91 167z" />
    <glyph glyph-name="Umacron" unicode="&#x16a;" horiz-adv-x="722" 
d="M632 268c0 -174 -105 -276 -272 -276c-173 0 -270 98 -270 276v465h33v-468c0 -154 89 -243 237 -243s239 92 239 243v468h33v-465zM505 833h-287v29h287v-29z" />
    <glyph glyph-name="umacron" unicode="&#x16b;" 
d="M399 0h-31v79c-38 -43 -100 -87 -165 -87c-96 0 -137 62 -137 147v276h32v-273c0 -76 32 -121 107 -121c59 0 117 41 162 92v302h32v-415zM376 523h-287v29h287v-29z" />
    <glyph glyph-name="Uogonek" unicode="&#x172;" horiz-adv-x="722" 
d="M430 -170c-20 -29 -45 -50 -85 -50c-43 0 -73 26 -73 72c0 47 32 91 80 140c-168 3 -262 100 -262 276v465h33v-468c0 -154 89 -243 237 -243h23l2 2v-2c133 10 214 101 214 243v468h33v-465c0 -163 -92 -263 -240 -275c-46 -43 -90 -94 -90 -139c0 -30 20 -47 45 -47
c28 0 48 17 64 40z" />
    <glyph glyph-name="uogonek" unicode="&#x173;" 
d="M431 -169c-20 -29 -45 -50 -85 -50c-43 0 -73 26 -73 72c0 52 38 99 95 154v72c-38 -43 -100 -87 -165 -87c-96 0 -137 62 -137 147v276h32v-273c0 -76 32 -121 107 -121c59 0 117 41 162 92v302h32v-415c-48 -45 -96 -98 -96 -145c0 -30 20 -47 45 -47c28 0 48 17 64 40
z" />
    <glyph glyph-name="Uring" unicode="&#x16e;" horiz-adv-x="722" 
d="M632 268c0 -174 -105 -276 -272 -276c-173 0 -270 98 -270 276v465h33v-468c0 -154 89 -243 237 -243s239 92 239 243v468h33v-465zM461 894c0 -54 -43 -100 -100 -100s-100 46 -100 100s43 99 100 99s100 -45 100 -99zM433 894c0 43 -30 74 -72 74s-72 -31 -72 -74
s30 -75 72 -75s72 32 72 75z" />
    <glyph glyph-name="uring" unicode="&#x16f;" 
d="M399 0h-31v79c-38 -43 -100 -87 -165 -87c-96 0 -137 62 -137 147v276h32v-273c0 -76 32 -121 107 -121c59 0 117 41 162 92v302h32v-415zM332 584c0 -54 -43 -100 -100 -100s-100 46 -100 100s43 99 100 99s100 -45 100 -99zM304 584c0 43 -30 74 -72 74
s-72 -31 -72 -74s30 -75 72 -75s72 32 72 75z" />
    <glyph glyph-name="Wacute" unicode="&#x1e82;" horiz-adv-x="988" 
d="M930 733l-183 -741l-12 -2l-241 673l-243 -673l-12 2l-181 741h30l163 -662l238 663h10l239 -663l162 662h30zM667 904l-194 -109l-12 19l186 121z" />
    <glyph glyph-name="wacute" unicode="&#x1e83;" horiz-adv-x="626" 
d="M593 415l-130 -427h-7l-141 362l-143 -362h-7l-132 427h33l106 -354l140 352h7l138 -352l103 354h33zM486 584l-194 -109l-12 19l186 121z" />
    <glyph glyph-name="Wcircumflex" unicode="&#x174;" horiz-adv-x="988" 
d="M930 733l-183 -741l-12 -2l-241 673l-243 -673l-12 2l-181 741h30l163 -662l238 663h10l239 -663l162 662h30zM619 805h-37l-90 110l-85 -110h-38l109 137h30z" />
    <glyph glyph-name="wcircumflex" unicode="&#x175;" horiz-adv-x="626" 
d="M593 415l-130 -427h-7l-141 362l-143 -362h-7l-132 427h33l106 -354l140 352h7l138 -352l103 354h33zM438 485h-37l-90 110l-85 -110h-38l109 137h30z" />
    <glyph glyph-name="Wdieresis" unicode="&#x1e84;" horiz-adv-x="988" 
d="M930 733l-183 -741l-12 -2l-241 673l-243 -673l-12 2l-181 741h30l163 -662l238 663h10l239 -663l162 662h30zM612 861c0 -18 -15 -34 -34 -34s-34 16 -34 34c0 19 15 35 34 35s34 -16 34 -35zM444 861c0 -18 -15 -34 -34 -34s-34 16 -34 34c0 19 15 35 34 35
s34 -16 34 -35z" />
    <glyph glyph-name="wdieresis" unicode="&#x1e85;" horiz-adv-x="626" 
d="M593 415l-130 -427h-7l-141 362l-143 -362h-7l-132 427h33l106 -354l140 352h7l138 -352l103 354h33zM431 541c0 -18 -15 -34 -34 -34s-34 16 -34 34c0 19 15 35 34 35s34 -16 34 -35zM263 541c0 -18 -15 -34 -34 -34s-34 16 -34 34c0 19 15 35 34 35s34 -16 34 -35z" />
    <glyph glyph-name="Wgrave" unicode="&#x1e80;" horiz-adv-x="988" 
d="M930 733l-183 -741l-12 -2l-241 673l-243 -673l-12 2l-181 741h30l163 -662l238 663h10l239 -663l162 662h30zM521 814l-12 -19l-194 109l20 31z" />
    <glyph glyph-name="wgrave" unicode="&#x1e81;" horiz-adv-x="626" 
d="M593 415l-130 -427h-7l-141 362l-143 -362h-7l-132 427h33l106 -354l140 352h7l138 -352l103 354h33zM340 494l-12 -19l-194 109l20 31z" />
    <glyph glyph-name="Yacute" unicode="&#xdd;" horiz-adv-x="616" 
d="M579 733l-254 -400v-333h-33v333l-255 400h37l235 -372l233 372h37zM481 894l-194 -109l-12 19l186 121z" />
    <glyph glyph-name="yacute" unicode="&#xfd;" horiz-adv-x="419" 
d="M408 415l-293 -630h-32l110 231l-182 399h34s163 -366 163 -367l166 367h34zM382 584l-194 -109l-12 19l186 121z" />
    <glyph glyph-name="Ycircumflex" unicode="&#x176;" horiz-adv-x="616" 
d="M579 733l-254 -400v-333h-33v333l-255 400h37l235 -372l233 372h37zM433 795h-37l-90 110l-85 -110h-38l109 137h30z" />
    <glyph glyph-name="ycircumflex" unicode="&#x177;" horiz-adv-x="419" 
d="M408 415l-293 -630h-32l110 231l-182 399h34s163 -366 163 -367l166 367h34zM334 485h-37l-90 110l-85 -110h-38l109 137h30z" />
    <glyph glyph-name="Ydieresis" unicode="&#x178;" horiz-adv-x="616" 
d="M579 733l-254 -400v-333h-33v333l-255 400h37l235 -372l233 372h37zM426 851c0 -18 -15 -34 -34 -34s-34 16 -34 34c0 19 15 35 34 35s34 -16 34 -35zM258 851c0 -18 -15 -34 -34 -34s-34 16 -34 34c0 19 15 35 34 35s34 -16 34 -35z" />
    <glyph glyph-name="ydieresis" unicode="&#xff;" horiz-adv-x="419" 
d="M408 415l-293 -630h-32l110 231l-182 399h34s163 -366 163 -367l166 367h34zM327 541c0 -18 -15 -34 -34 -34s-34 16 -34 34c0 19 15 35 34 35s34 -16 34 -35zM159 541c0 -18 -15 -34 -34 -34s-34 16 -34 34c0 19 15 35 34 35s34 -16 34 -35z" />
    <glyph glyph-name="Ygrave" unicode="&#x1ef2;" horiz-adv-x="616" 
d="M579 733l-254 -400v-333h-33v333l-255 400h37l235 -372l233 372h37zM335 804l-12 -19l-194 109l20 31z" />
    <glyph glyph-name="ygrave" unicode="&#x1ef3;" horiz-adv-x="419" 
d="M408 415l-293 -630h-32l110 231l-182 399h34s163 -366 163 -367l166 367h34zM236 494l-12 -19l-194 109l20 31z" />
    <glyph glyph-name="Zacute" unicode="&#x179;" horiz-adv-x="642" 
d="M581 724l-476 -695h472v-29h-519l-4 8l476 696h-451v29h498zM495 904l-194 -109l-12 19l186 121z" />
    <glyph glyph-name="zacute" unicode="&#x17a;" horiz-adv-x="389" 
d="M367 407l-306 -380h299v-27h-347l-3 7l306 381h-285v27h333zM365 584l-194 -109l-12 19l186 121z" />
    <glyph glyph-name="Zcaron" unicode="&#x17d;" horiz-adv-x="642" 
d="M581 724l-476 -695h472v-29h-519l-4 8l476 696h-451v29h498zM447 943l-109 -137h-30l-111 137h37l90 -110l85 110h38z" />
    <glyph glyph-name="zcaron" unicode="&#x17e;" horiz-adv-x="389" 
d="M367 407l-306 -380h299v-27h-347l-3 7l306 381h-285v27h333zM317 623l-109 -137h-30l-111 137h37l90 -110l85 110h38z" />
    <glyph glyph-name="Zdotaccent" unicode="&#x17b;" horiz-adv-x="642" 
d="M581 724l-476 -695h472v-29h-519l-4 8l476 696h-451v29h498zM288 861c0 19 15 35 34 35s34 -16 34 -35c0 -18 -15 -34 -34 -34s-34 16 -34 34z" />
    <glyph glyph-name="zdotaccent" unicode="&#x17c;" horiz-adv-x="389" 
d="M367 407l-306 -380h299v-27h-347l-3 7l306 381h-285v27h333zM158 541c0 19 15 35 34 35s34 -16 34 -35c0 -18 -15 -34 -34 -34s-34 16 -34 34z" />
    <glyph glyph-name="schwa" unicode="&#x259;" horiz-adv-x="460" 
d="M47 194v13h338c-1 107 -63 187 -185 187c-42 0 -85 -11 -121 -28c0 0 -9 29 -9 28c37 18 87 29 130 29c144 0 218 -94 218 -215s-76 -216 -193 -216s-178 88 -178 202zM384 179h-304c4 -88 50 -158 147 -158c92 0 148 67 157 158z" />
    <glyph glyph-name="germandbls" unicode="&#xdf;" horiz-adv-x="446" 
d="M397 407l-164 -190c108 6 183 -56 183 -146c0 -95 -73 -165 -185 -165c-27 0 -50 3 -73 9l4 28c21 -5 43 -8 68 -8c95 0 155 52 155 136c0 72 -60 121 -148 121c-17 0 -36 -2 -53 -5l-4 10l163 189h-242v-386h-32v572c0 115 54 168 132 168c19 0 47 -3 64 -11l-7 -28
c-16 6 -42 10 -60 10c-59 0 -97 -41 -97 -137v-159h293z" />
    <glyph glyph-name="zero" unicode="0" horiz-adv-x="513" 
d="M470 288c0 -163 -78 -296 -214 -296s-213 133 -213 296c0 164 78 297 214 297s213 -133 213 -297zM437 288c0 145 -61 269 -180 269c-120 0 -181 -124 -181 -269s61 -267 181 -267c119 0 180 122 180 267z" />
    <glyph glyph-name="one" unicode="1" horiz-adv-x="325" 
d="M188 0h-31v547l-103 -36l-10 28l139 50h5v-589z" />
    <glyph glyph-name="two" unicode="2" horiz-adv-x="436" 
d="M380 0h-365l-3 7c105 106 174 178 224 236c62 69 98 123 98 181c0 81 -57 132 -143 132c-43 0 -97 -17 -139 -45l-9 27c45 29 98 47 148 47c108 0 176 -65 176 -160c0 -64 -41 -123 -107 -199c-48 -53 -106 -114 -189 -198h309v-28z" />
    <glyph glyph-name="three" unicode="3" horiz-adv-x="422" 
d="M381 568l-236 -244c11 1 19 1 29 1c108 0 196 -64 196 -164c0 -99 -79 -170 -195 -170c-53 0 -91 8 -143 26l10 28c48 -17 84 -27 132 -27c101 0 164 59 164 143c0 85 -72 139 -168 139c-30 0 -54 -3 -76 -7l-6 8l237 246h-291v29h341z" />
    <glyph glyph-name="four" unicode="4" horiz-adv-x="469" 
d="M446 173h-96v-173h-29v173h-308v8l328 406h9v-388h96v-26zM321 199v320l-258 -320h258z" />
    <glyph glyph-name="five" unicode="5" horiz-adv-x="459" 
d="M402 174c0 -104 -78 -181 -198 -181c-52 0 -100 12 -145 29l11 26c38 -15 83 -28 134 -28c100 0 165 60 165 152c0 84 -57 144 -165 144c-52 0 -88 -7 -115 -15l-6 5v271h297v-27h-265v-215c23 5 53 8 89 8c126 0 198 -71 198 -169z" />
    <glyph glyph-name="six" unicode="6" horiz-adv-x="471" 
d="M422 179c0 -106 -79 -187 -186 -187c-109 0 -184 83 -184 203c0 141 88 288 311 394l14 -26c-147 -65 -247 -166 -283 -283c30 45 82 74 147 74c99 0 181 -66 181 -175zM390 177c0 93 -66 150 -152 150c-89 0 -153 -64 -153 -144c0 -95 62 -163 151 -163
c87 0 154 62 154 157z" />
    <glyph glyph-name="seven" unicode="7" horiz-adv-x="389" 
d="M374 577l-260 -577h-31l248 550h-319v27h362z" />
    <glyph glyph-name="eight" unicode="8" horiz-adv-x="446" 
d="M394 151c0 -91 -75 -159 -173 -159s-170 68 -170 159c0 65 43 121 108 143c-60 23 -98 77 -98 141c0 86 68 150 161 150c94 0 162 -64 162 -150c0 -64 -39 -118 -98 -141c65 -22 108 -78 108 -143zM352 434c0 70 -51 124 -130 124c-77 0 -128 -55 -128 -124
c0 -70 51 -127 128 -127c79 0 130 57 130 127zM362 151c0 75 -62 131 -140 131c-77 0 -138 -56 -138 -131c0 -78 61 -132 138 -132c78 0 140 54 140 132z" />
    <glyph glyph-name="nine" unicode="9" horiz-adv-x="467" 
d="M416 382c0 -141 -87 -288 -310 -394l-14 26c146 65 246 167 283 282c-30 -43 -82 -73 -146 -73c-99 0 -182 67 -182 175c0 107 80 187 186 187c109 0 183 -83 183 -203zM384 394c0 96 -63 163 -151 163s-154 -61 -154 -156c0 -94 66 -150 153 -150c88 0 152 64 152 143z
" />
    <glyph glyph-name="zero.lin" horiz-adv-x="641" 
d="M576 367c0 -214 -92 -375 -256 -375s-255 161 -255 375s92 375 256 375s255 -161 255 -375zM542 367c0 193 -76 346 -222 346s-221 -153 -221 -346s76 -346 222 -346s221 153 221 346z" />
    <glyph glyph-name="one.lin" horiz-adv-x="373" 
d="M221 0h-32v698l-131 -46l-10 28l165 60h8v-740z" />
    <glyph glyph-name="two.lin" horiz-adv-x="552" 
d="M480 0h-459l-4 11c134 136 221 227 287 301c79 89 124 154 124 228c0 105 -73 173 -186 173c-55 0 -124 -23 -178 -58l-9 27c58 38 125 60 187 60c135 0 219 -82 219 -202c0 -84 -50 -155 -134 -248c-63 -70 -143 -151 -252 -263h405v-29z" />
    <glyph glyph-name="three.lin" horiz-adv-x="535" 
d="M468 215c0 -130 -101 -223 -247 -223c-68 0 -115 11 -180 35l10 27c62 -23 106 -35 170 -35c124 0 215 78 215 195c0 106 -98 171 -228 171c-34 0 -65 -4 -91 -8l-6 10l313 317h-381v29h429l6 -10l-311 -315c15 2 29 3 42 3c146 0 259 -74 259 -196z" />
    <glyph glyph-name="four.lin" horiz-adv-x="592" 
d="M563 223h-122v-223h-31v223h-389v10l411 513h9v-496h122v-27zM410 250v425l-341 -425h341z" />
    <glyph glyph-name="five.lin" horiz-adv-x="539" 
d="M481 216c0 -129 -104 -224 -245 -224c-61 0 -124 14 -177 34l11 28c46 -18 104 -33 166 -33c121 0 211 80 211 193c0 108 -83 182 -213 182c-64 0 -106 -9 -139 -16l-3 5v348h364v-29h-332v-289c30 6 66 10 110 10c150 0 247 -84 247 -209z" />
    <glyph glyph-name="six.lin" horiz-adv-x="595" 
d="M533 226c0 -135 -102 -234 -235 -234c-138 0 -231 100 -231 252c0 175 111 364 400 517l15 -27c-193 -102 -320 -232 -368 -380c40 56 106 94 188 94c127 0 231 -82 231 -222zM499 225c0 122 -87 194 -199 194c-114 0 -199 -83 -199 -185c0 -125 82 -213 197 -213
c114 0 201 79 201 204z" />
    <glyph glyph-name="seven.lin" horiz-adv-x="487" 
d="M471 733l-318 -733h-34l308 704h-416v29h460z" />
    <glyph glyph-name="eight.lin" horiz-adv-x="558" 
d="M495 191c0 -115 -95 -199 -216 -199s-216 84 -216 199c0 82 56 156 140 183c-77 28 -127 99 -127 179c0 109 86 189 203 189s203 -79 203 -189c0 -80 -50 -151 -127 -179c84 -27 140 -102 140 -183zM448 553c0 92 -67 161 -169 161s-169 -70 -169 -161
c0 -92 67 -166 169 -166s169 74 169 166zM461 191c0 99 -81 171 -182 171s-182 -72 -182 -171c0 -101 81 -170 182 -170s182 69 182 170z" />
    <glyph glyph-name="nine.lin" horiz-adv-x="590" 
d="M59 508c0 135 102 234 235 234c138 0 231 -100 231 -252c0 -175 -111 -364 -400 -517l-15 27c193 102 320 232 368 380c-40 -56 -106 -94 -188 -94c-127 0 -231 82 -231 222zM93 509c0 -122 87 -194 199 -194c114 0 199 83 199 185c0 125 -82 213 -197 213
c-114 0 -201 -79 -201 -204z" />
    <glyph glyph-name="fraction" unicode="&#x2044;" horiz-adv-x="522" 
d="M516 571l-485 -586l-25 19l485 585z" />
    <glyph glyph-name="fraction.lin" horiz-adv-x="658" 
d="M650 728l-617 -743l-25 20l616 743z" />
    <glyph glyph-name="period" unicode="." horiz-adv-x="144" 
d="M36 27c0 20 16 36 36 36s36 -16 36 -36s-16 -35 -36 -35s-36 15 -36 35z" />
    <glyph glyph-name="comma" unicode="," horiz-adv-x="144" 
d="M111 12c0 -50 -42 -101 -73 -120l-11 10c26 27 46 57 50 90c-27 4 -42 20 -42 38c0 19 16 33 34 33c22 0 42 -19 42 -51z" />
    <glyph glyph-name="colon" unicode=":" horiz-adv-x="144" 
d="M36 27c0 20 16 36 36 36s36 -16 36 -36s-16 -35 -36 -35s-36 15 -36 35zM36 328c0 20 16 36 36 36s36 -16 36 -36s-16 -35 -36 -35s-36 15 -36 35z" />
    <glyph glyph-name="semicolon" unicode=";" horiz-adv-x="144" 
d="M111 12c0 -50 -42 -101 -73 -120l-11 10c26 27 46 57 50 90c-27 4 -42 20 -42 38c0 19 16 33 34 33c22 0 42 -19 42 -51zM36 328c0 20 16 36 36 36s36 -16 36 -36s-16 -35 -36 -35s-36 15 -36 35z" />
    <glyph glyph-name="ellipsis" unicode="&#x2026;" horiz-adv-x="510" 
d="M49 27c0 20 16 36 36 36s36 -16 36 -36s-16 -35 -36 -35s-36 15 -36 35zM219 27c0 20 16 36 36 36s36 -16 36 -36s-16 -35 -36 -35s-36 15 -36 35zM389 27c0 20 16 36 36 36s36 -16 36 -36s-16 -35 -36 -35s-36 15 -36 35z" />
    <glyph glyph-name="periodcentered" unicode="&#xb7;" horiz-adv-x="144" 
d="M36 373c0 20 16 36 36 36s36 -16 36 -36s-16 -35 -36 -35s-36 15 -36 35z" />
    <glyph glyph-name="bullet" unicode="&#x2022;" horiz-adv-x="322" 
d="M257 366c0 -54 -42 -99 -96 -99s-96 45 -96 99s42 99 96 99s96 -45 96 -99z" />
    <glyph glyph-name="ampersand" unicode="&#x26;" horiz-adv-x="581" 
d="M525 278l23 -17c-31 -44 -73 -103 -122 -154c40 -37 78 -71 110 -98l-20 -22c-30 25 -69 61 -111 100c-55 -54 -119 -93 -187 -93c-100 0 -168 62 -168 149c0 86 53 136 145 173c-28 42 -50 87 -50 130c0 79 62 137 132 137c77 0 123 -56 123 -113
c0 -76 -60 -125 -160 -164c36 -49 101 -117 166 -179c47 48 88 107 119 151zM367 469c0 44 -31 88 -91 88c-53 0 -100 -47 -100 -110c0 -38 21 -80 48 -120c110 43 143 82 143 142zM385 106c-66 64 -136 136 -175 188c-83 -32 -128 -79 -128 -151c0 -70 56 -121 136 -121
c59 0 115 35 167 84z" />
    <glyph glyph-name="ampersand.cap" horiz-adv-x="735" 
d="M271 410c151 58 196 109 196 189c0 58 -40 115 -119 115c-70 0 -130 -61 -130 -143c0 -53 19 -107 53 -161zM487 127c-83 74 -171 160 -231 249c-104 -43 -159 -103 -159 -195c0 -91 73 -158 178 -158c74 0 148 44 212 104zM286 387c55 -81 141 -164 224 -238
c65 67 120 146 160 203l25 -17c-40 -58 -97 -137 -163 -205c54 -47 105 -89 145 -123l-21 -25c-37 35 -90 77 -147 126c-70 -66 -149 -116 -234 -116c-127 0 -212 81 -212 189s66 171 178 218c-34 56 -56 114 -56 171c0 99 76 172 165 172c95 0 152 -70 152 -141
c0 -103 -83 -163 -216 -214z" />
    <glyph glyph-name="exclam" unicode="!" horiz-adv-x="186" 
d="M109 733l-3 -551h-26l-3 551h32zM129 27c0 -20 -16 -35 -36 -35s-36 15 -36 35s16 36 36 36s36 -16 36 -36z" />
    <glyph glyph-name="exclamdown" unicode="&#xa1;" horiz-adv-x="186" 
d="M57 707c0 20 16 35 36 35s36 -15 36 -35s-16 -36 -36 -36s-36 16 -36 36zM77 1l3 551h26l3 -551h-32z" />
    <glyph glyph-name="question" unicode="?" horiz-adv-x="384" 
d="M356 574c0 -150 -201 -176 -201 -288c-1 -1 0 -83 0 -83h-31s-1 80 0 83c0 132 200 155 200 288c0 77 -55 137 -157 137c-53 0 -97 -20 -137 -45l-9 27c41 25 87 47 147 47c125 0 188 -73 188 -166zM177 27c0 -20 -16 -35 -36 -35s-36 15 -36 35s16 36 36 36
s36 -16 36 -36z" />
    <glyph glyph-name="questiondown" unicode="&#xbf;" horiz-adv-x="384" 
d="M207 707c0 20 16 35 36 35s36 -15 36 -35s-16 -36 -36 -36s-36 16 -36 36zM28 160c0 150 201 176 201 288c1 1 0 83 0 83h31s1 -80 0 -83c0 -132 -200 -155 -200 -288c0 -77 55 -137 157 -137c53 0 97 20 137 45l9 -27c-41 -25 -87 -47 -147 -47c-125 0 -188 73 -188 166
z" />
    <glyph glyph-name="quotedblleft" unicode="&#x201c;" horiz-adv-x="265" 
d="M230 607c0 -19 -16 -33 -34 -33c-22 0 -42 19 -42 51c0 50 42 101 73 120l11 -10c-26 -27 -46 -57 -50 -90c27 -4 42 -20 42 -38zM109 607c0 -19 -16 -33 -34 -33c-22 0 -42 19 -42 51c0 50 42 101 73 120l11 -10c-26 -27 -46 -57 -50 -90c27 -4 42 -20 42 -38z" />
    <glyph glyph-name="quotedblright" unicode="&#x201d;" horiz-adv-x="265" 
d="M232 691c0 -50 -42 -101 -73 -120l-11 10c26 27 46 57 50 90c-27 4 -42 20 -42 38c0 19 16 33 34 33c22 0 42 -19 42 -51zM111 691c0 -50 -42 -101 -73 -120l-11 10c26 27 46 57 50 90c-27 4 -42 20 -42 38c0 19 16 33 34 33c22 0 42 -19 42 -51z" />
    <glyph glyph-name="quoteleft" unicode="&#x2018;" horiz-adv-x="144" 
d="M109 607c0 -19 -16 -33 -34 -33c-22 0 -42 19 -42 51c0 50 42 101 73 120l11 -10c-26 -27 -46 -57 -50 -90c27 -4 42 -20 42 -38z" />
    <glyph glyph-name="quoteright" unicode="&#x2019;" horiz-adv-x="144" 
d="M111 691c0 -50 -42 -101 -73 -120l-11 10c26 27 46 57 50 90c-27 4 -42 20 -42 38c0 19 16 33 34 33c22 0 42 -19 42 -51z" />
    <glyph glyph-name="quotedblbase" unicode="&#x201e;" horiz-adv-x="265" 
d="M232 12c0 -50 -42 -101 -73 -120l-11 10c26 27 46 57 50 90c-27 4 -42 20 -42 38c0 19 16 33 34 33c22 0 42 -19 42 -51zM111 12c0 -50 -42 -101 -73 -120l-11 10c26 27 46 57 50 90c-27 4 -42 20 -42 38c0 19 16 33 34 33c22 0 42 -19 42 -51z" />
    <glyph glyph-name="quotesinglbase" unicode="&#x201a;" horiz-adv-x="144" 
d="M111 12c0 -50 -42 -101 -73 -120l-11 10c26 27 46 57 50 90c-27 4 -42 20 -42 38c0 19 16 33 34 33c22 0 42 -19 42 -51z" />
    <glyph glyph-name="guillemotleft" unicode="&#xab;" horiz-adv-x="380" 
d="M335 9h-36l-105 164l105 163h36l-105 -163zM190 9h-36l-105 164l105 163h36l-105 -163z" />
    <glyph glyph-name="guillemotright" unicode="&#xbb;" horiz-adv-x="380" 
d="M331 173l-105 -164h-36l105 164l-105 163h36zM186 173l-105 -164h-36l105 164l-105 163h36z" />
    <glyph glyph-name="guilsinglleft" unicode="&#x2039;" horiz-adv-x="235" 
d="M190 9h-36l-105 164l105 163h36l-105 -163z" />
    <glyph glyph-name="guilsinglright" unicode="&#x203a;" horiz-adv-x="235" 
d="M186 173l-105 -164h-36l105 164l-105 163h36z" />
    <glyph glyph-name="guillemotleft.cap" horiz-adv-x="380" 
d="M335 208h-36l-105 164l105 163h36l-105 -163zM190 208h-36l-105 164l105 163h36l-105 -163z" />
    <glyph glyph-name="guillemotright.cap" horiz-adv-x="380" 
d="M331 372l-105 -164h-36l105 164l-105 163h36zM186 372l-105 -164h-36l105 164l-105 163h36z" />
    <glyph glyph-name="guilsinglleft.cap" horiz-adv-x="235" 
d="M190 208h-36l-105 164l105 163h36l-105 -163z" />
    <glyph glyph-name="guilsinglright.cap" horiz-adv-x="235" 
d="M186 372l-105 -164h-36l105 164l-105 163h36z" />
    <glyph glyph-name="hyphen" unicode="-" horiz-adv-x="339" 
d="M289 227h-239v31h239v-31z" />
    <glyph glyph-name="endash" unicode="&#x2013;" horiz-adv-x="500" 
d="M450 228h-400v29h400v-29z" />
    <glyph glyph-name="emdash" unicode="&#x2014;" horiz-adv-x="750" 
d="M700 228h-650v29h650v-29z" />
    <glyph glyph-name="hyphen.cap" horiz-adv-x="339" 
d="M289 356h-239v31h239v-31z" />
    <glyph glyph-name="endash.cap" horiz-adv-x="500" 
d="M450 357h-400v29h400v-29z" />
    <glyph glyph-name="emdash.cap" horiz-adv-x="750" 
d="M700 357h-650v29h650v-29z" />
    <glyph glyph-name="slash" unicode="/" horiz-adv-x="300" 
d="M299 733l-238 -949h-33l239 949h32z" />
    <glyph glyph-name="backslash" unicode="\" horiz-adv-x="300" 
d="M272 -216h-33l-238 949h32z" />
    <glyph glyph-name="bar" unicode="|" horiz-adv-x="213" 
d="M121 -218h-31v949h31v-949z" />
    <glyph glyph-name="slash.cap" horiz-adv-x="300" 
d="M286 838l-238 -949h-33l239 949h32z" />
    <glyph glyph-name="backslash.cap" horiz-adv-x="300" 
d="M286 -111h-33l-238 949h32z" />
    <glyph glyph-name="bar.cap" horiz-adv-x="213" 
d="M121 -111h-31v949h31v-949z" />
    <glyph glyph-name="parenleft" unicode="(" horiz-adv-x="325" 
d="M329 -201l-16 -25c-174 106 -262 297 -262 484c0 188 88 378 262 485l17 -24c-152 -94 -246 -271 -246 -461s93 -365 245 -459z" />
    <glyph glyph-name="parenright" unicode=")" horiz-adv-x="325" 
d="M274 258c0 -187 -88 -378 -262 -484l-16 25c152 94 245 269 245 459s-94 367 -246 461l17 24c174 -107 262 -297 262 -485z" />
    <glyph glyph-name="parenleft.cap" horiz-adv-x="325" 
d="M329 -96l-16 -25c-174 106 -262 297 -262 484c0 188 88 378 262 485l17 -24c-152 -94 -246 -271 -246 -461s93 -365 245 -459z" />
    <glyph glyph-name="parenright.cap" horiz-adv-x="325" 
d="M274 363c0 -187 -88 -378 -262 -484l-16 25c152 94 245 269 245 459s-94 367 -246 461l17 24c174 -107 262 -297 262 -485z" />
    <glyph glyph-name="bracketleft" unicode="[" horiz-adv-x="293" 
d="M269 -216h-189v949h189v-29h-157v-891h157v-29z" />
    <glyph glyph-name="bracketright" unicode="]" horiz-adv-x="293" 
d="M214 -216h-189v29h157v891h-157v29h189v-949z" />
    <glyph glyph-name="bracketleft.cap" horiz-adv-x="293" 
d="M269 -111h-189v949h189v-29h-157v-891h157v-29z" />
    <glyph glyph-name="bracketright.cap" horiz-adv-x="293" 
d="M214 -111h-189v29h157v891h-157v29h189v-949z" />
    <glyph glyph-name="braceleft" unicode="{" horiz-adv-x="295" 
d="M277 -223c-111 0 -167 57 -167 174v214c0 51 -15 79 -72 79h-23v31h23c57 0 72 28 72 79v212c0 117 56 174 167 174v-29c-90 0 -134 -43 -134 -145v-201c0 -59 -15 -94 -63 -105c48 -12 63 -47 63 -106v-203c0 -102 44 -145 134 -145v-29z" />
    <glyph glyph-name="braceright" unicode="}" horiz-adv-x="295" 
d="M280 244h-23c-57 0 -72 -28 -72 -79v-214c0 -117 -56 -174 -167 -174v29c90 0 134 43 134 145v203c0 59 15 94 63 106c-48 11 -63 46 -63 105v201c0 102 -44 145 -134 145v29c111 0 167 -57 167 -174v-212c0 -51 15 -79 72 -79h23v-31z" />
    <glyph glyph-name="braceleft.cap" horiz-adv-x="295" 
d="M277 -118c-111 0 -167 57 -167 174v214c0 51 -15 79 -72 79h-23v31h23c57 0 72 28 72 79v212c0 117 56 174 167 174v-29c-90 0 -134 -43 -134 -145v-201c0 -59 -15 -94 -63 -105c48 -12 63 -47 63 -106v-203c0 -102 44 -145 134 -145v-29z" />
    <glyph glyph-name="braceright.cap" horiz-adv-x="295" 
d="M280 350h-23c-57 0 -72 -28 -72 -79v-214c0 -117 -56 -174 -167 -174v29c90 0 134 43 134 145v203c0 59 15 94 63 106c-48 11 -63 46 -63 105v201c0 102 -44 145 -134 145v29c111 0 167 -57 167 -174v-212c0 -51 15 -79 72 -79h23v-31z" />
    <glyph glyph-name="at" unicode="@" horiz-adv-x="684" 
d="M635 313c0 -61 -17 -110 -46 -139c-21 -21 -48 -32 -75 -32c-33 0 -67 18 -83 50c-25 -27 -57 -47 -96 -47c-51 0 -95 28 -95 85c0 47 39 80 98 80c31 0 61 -11 84 -25v19c0 61 -30 83 -82 83c-19 0 -45 -5 -70 -15l-9 27c19 8 53 18 81 18c75 0 111 -36 111 -113v-56
c0 -57 29 -78 61 -78c23 0 40 7 53 21c22 21 36 66 36 122c0 112 -84 242 -261 242c-146 0 -260 -119 -260 -269c0 -151 107 -269 288 -269c36 0 85 9 128 23c0 0 9 -28 9 -27c-48 -15 -98 -25 -137 -25c-198 0 -320 133 -320 298s131 298 292 298c197 0 293 -145 293 -271z
M422 213v42c-20 14 -55 27 -84 27c-40 0 -66 -19 -66 -52c0 -36 27 -57 63 -57c35 0 64 18 87 40z" />
    <glyph glyph-name="at.cap" horiz-adv-x="866" 
d="M801 400c0 -75 -24 -135 -60 -171c-23 -23 -57 -38 -95 -38c-42 0 -86 24 -99 67c-35 -43 -80 -65 -126 -65c-63 0 -116 32 -116 101c0 57 52 98 120 98c37 0 73 -12 111 -34v30c0 72 -28 108 -108 108c-25 0 -56 -7 -84 -18l-7 28c22 10 61 22 97 22
c92 0 135 -45 135 -139v-77c0 -68 39 -91 79 -91c27 0 51 9 70 29c26 26 48 79 48 148c0 147 -98 315 -325 315c-193 0 -340 -154 -340 -348c0 -193 132 -342 367 -342c43 0 105 11 158 27l8 -28c-58 -18 -120 -30 -166 -30c-254 0 -402 160 -402 373c0 208 163 377 375 377
c246 0 360 -181 360 -342zM536 285v41c-28 21 -74 36 -111 36c-48 0 -86 -27 -86 -68c0 -43 39 -71 83 -71c43 0 87 25 114 62z" />
    <glyph glyph-name="copyright" unicode="&#xa9;" horiz-adv-x="842" 
d="M792 366c0 -209 -166 -378 -371 -378s-371 169 -371 378s166 379 371 379s371 -170 371 -379zM762 366c0 198 -152 353 -341 353s-341 -155 -341 -353s153 -352 341 -352s341 154 341 352zM561 224c-35 -24 -75 -42 -129 -42c-104 0 -191 71 -191 187
c0 117 88 190 191 190c54 0 94 -17 130 -42l-12 -25c-34 23 -71 39 -118 39c-85 0 -159 -60 -159 -161c0 -102 74 -160 160 -160c46 0 82 16 116 39z" />
    <glyph glyph-name="published" unicode="&#x2117;" horiz-adv-x="842" 
d="M522 434c0 50 -37 92 -110 92c-17 0 -32 -2 -48 -3v-184c13 -2 30 -4 44 -4c73 0 114 39 114 99zM554 435c0 -74 -54 -126 -145 -126c-12 0 -32 1 -45 3v-128h-30v365c25 3 49 4 75 4c96 0 145 -54 145 -118zM792 366c0 -209 -166 -378 -371 -378s-371 169 -371 378
s166 379 371 379s371 -170 371 -379zM762 366c0 198 -152 353 -341 353s-341 -155 -341 -353s153 -352 341 -352s341 154 341 352z" />
    <glyph glyph-name="registered.alt" horiz-adv-x="842" 
d="M421 -12c-205 0 -371 169 -371 378s166 379 371 379s371 -170 371 -379s-166 -378 -371 -378zM421 14c188 0 341 154 341 352s-152 353 -341 353s-341 -155 -341 -353s153 -352 341 -352zM325 184v363c28 4 50 6 79 6c92 0 141 -44 141 -109c0 -48 -29 -88 -84 -106
l103 -154h-35l-96 147c-8 -1 -24 -2 -36 -2c-13 0 -25 0 -42 1v-146h-30zM355 522v-166c12 -1 30 -2 41 -2c75 0 118 34 118 89c0 49 -38 84 -107 84c-19 0 -33 -2 -52 -5z" />
    <glyph glyph-name="registered" unicode="&#xae;" horiz-adv-x="386" 
d="M142 490v164c14 2 26 3 43 3c45 0 67 -24 67 -51c0 -22 -13 -42 -31 -50l43 -66h-29l-38 61c-5 -1 -12 -1 -14 -1c-3 0 -10 0 -17 1v-61h-24zM166 634v-62c7 -1 15 -1 20 -1c26 0 41 13 41 34c0 18 -15 30 -39 30c-7 0 -17 0 -22 -1zM193 422c81 0 144 68 144 149
c0 83 -63 150 -144 150c-80 0 -144 -67 -144 -150c0 -80 64 -149 144 -149zM193 401c-93 0 -167 77 -167 170c0 95 73 171 167 171c93 0 167 -77 167 -171c0 -92 -74 -170 -167 -170z" />
    <glyph glyph-name="trademark" unicode="&#x2122;" horiz-adv-x="473" 
d="M444 514h-27l-2 152l-76 -125h-4l-77 125l-1 -152h-28l9 222h4l95 -155l94 155h5zM185 708h-72v-194h-28v194h-71v25h171v-25z" />
    <glyph glyph-name="servicemark" unicode="&#x2120;" horiz-adv-x="441" 
d="M14 532l12 22c17 -12 35 -19 53 -19c26 0 41 16 41 36c0 19 -6 30 -43 46c-40 17 -54 38 -54 62c0 33 27 57 65 57c21 0 41 -6 54 -15l-11 -22c-11 8 -26 14 -43 14c-26 0 -40 -14 -40 -33c0 -18 15 -30 40 -41c45 -20 58 -38 58 -67c0 -36 -29 -61 -67 -61
c-26 0 -45 9 -65 21zM412 514h-25l-3 155l-80 -137h-3l-80 137l-2 -155h-25l8 222l5 1l97 -168l94 168l5 -1z" />
    <glyph glyph-name="asterisk" unicode="*" horiz-adv-x="358" 
d="M332 623l-133 -43l83 -111l-21 -15l-82 113l-82 -113l-21 15l83 111l-133 43l8 25l133 -45l-2 139h28l-2 -139l133 45z" />
    <glyph glyph-name="dagger" unicode="&#x2020;" horiz-adv-x="455" 
d="M404 512h-158v-356h-32v356h-158v29h158v192h32v-192h158v-29z" />
    <glyph glyph-name="daggerdbl" unicode="&#x2021;" horiz-adv-x="455" 
d="M404 322h-158v-166h-32v166h-158v29h158v187h-158v29h158v166h32v-166h158v-29h-158v-187h158v-29z" />
    <glyph glyph-name="dollar" unicode="$" horiz-adv-x="419" 
d="M225 648l27 -2l-5 -62c36 -4 78 -17 111 -40l-15 -25c-21 15 -56 32 -99 37l-20 -252c93 -41 145 -79 145 -159c0 -92 -72 -150 -170 -153l-5 -67l-27 2l5 66c-47 4 -99 22 -147 53l15 25c34 -23 84 -45 135 -50l21 262c-82 35 -142 75 -142 157c0 81 65 142 166 145z
M339 144c0 68 -50 99 -117 129l-21 -253c71 1 138 42 138 124zM85 442c0 -70 55 -101 113 -127l20 242c-96 -2 -133 -61 -133 -115z" />
    <glyph glyph-name="dollar.lin" horiz-adv-x="531" 
d="M286 824l29 -3l-6 -77c55 -5 103 -24 141 -49l-17 -27c-33 22 -76 41 -127 46l-27 -332c99 -44 187 -91 187 -203c0 -119 -101 -189 -220 -191l-6 -84l-29 3l6 82c-65 5 -130 30 -187 67l16 27c53 -34 110 -59 174 -65l28 343c-96 44 -181 91 -181 201
c0 105 86 182 213 183zM434 175c0 99 -77 137 -159 174l-26 -332c99 0 185 62 185 158zM99 566c0 -97 73 -135 152 -171l26 321c-104 -1 -178 -65 -178 -150z" />
    <glyph glyph-name="sterling" unicode="&#xa3;" horiz-adv-x="430" 
d="M404 544l-16 -25c-31 21 -67 38 -113 38c-102 0 -142 -65 -142 -160v-95h169v-27h-169v-247h273v-28h-371v28h66v246h-60v11l60 18v94c0 110 56 188 177 188c50 0 91 -18 126 -41z" />
    <glyph glyph-name="sterling.lin" horiz-adv-x="546" 
d="M514 0h-470v29h84v322h-74v16l74 14v122c0 139 70 239 224 239c63 0 115 -23 158 -52l-16 -26c-39 27 -86 49 -144 49c-135 0 -189 -85 -189 -209v-123h223v-29h-223v-323h353v-29z" />
    <glyph glyph-name="Euro" unicode="&#x20ac;" horiz-adv-x="626" 
d="M98 337h-70v29h76c34 139 157 219 290 219c76 0 135 -21 186 -54l-14 -28c-49 32 -103 54 -174 54c-114 0 -222 -69 -254 -191h329v-29h-335c-3 -16 -4 -33 -4 -51s1 -34 3 -49h336v-29h-329c32 -122 141 -186 256 -186c70 0 125 22 176 54l10 -28
c-51 -32 -109 -55 -187 -55c-134 0 -256 77 -289 215h-76v29h69c-1 16 -2 31 -2 49s1 35 3 51z" />
    <glyph glyph-name="Euro.lin" horiz-adv-x="793" 
d="M127 428h-92v31h97c42 181 200 283 368 283c98 0 170 -27 236 -69l-14 -29c-63 41 -131 68 -223 69c-147 0 -292 -90 -333 -254h428v-31h-434c-3 -21 -5 -42 -5 -65c0 -22 2 -43 5 -63h434v-31h-428c41 -162 185 -248 334 -248c92 0 160 28 225 70l11 -29
c-66 -42 -137 -70 -237 -70c-170 0 -327 98 -368 277h-96v31h91c-3 20 -4 40 -4 62c0 23 2 45 5 66z" />
    <glyph glyph-name="yen" unicode="&#xa5;" horiz-adv-x="486" 
d="M458 577l-185 -292h154v-29h-168v-82h168v-30h-168v-144h-31v144h-168v30h168v82h-168v29h155l-186 292h37l178 -282l176 282h38z" />
    <glyph glyph-name="yen.lin" horiz-adv-x="626" 
d="M589 733l-240 -378h200v-31h-214v-108h214v-31h-214v-185h-33v185h-214v31h214v108h-214v31h200l-241 378h39l233 -367l231 367h39z" />
    <glyph glyph-name="cent" unicode="&#xa2;" horiz-adv-x="448" 
d="M202 -89l7 85c-98 16 -168 94 -168 208c0 125 91 215 203 219l6 79l29 -3l-6 -77c46 -3 81 -19 114 -40l-17 -25c-26 15 -56 32 -100 36c-8 -108 -21 -265 -30 -372h12c46 0 85 16 118 37l17 -25c-37 -24 -85 -41 -139 -41h-10c-4 -50 -7 -84 -7 -84zM74 207
c0 -103 60 -166 137 -182l30 369c-97 -5 -167 -84 -167 -187z" />
    <glyph glyph-name="cent.lin" horiz-adv-x="448" 
d="M202 77l7 84c-98 17 -168 95 -168 209c0 125 91 215 203 219l6 79l29 -3l-6 -77c46 -3 81 -19 114 -40l-17 -25c-26 15 -56 32 -100 36c-8 -108 -21 -265 -30 -372h12c46 0 85 16 118 37l17 -25c-37 -24 -85 -41 -139 -41h-10c-4 -51 -7 -84 -7 -84zM74 373
c0 -103 60 -166 137 -182l30 369c-97 -5 -167 -84 -167 -187z" />
    <glyph glyph-name="numbersign" unicode="#" horiz-adv-x="536" 
d="M519 407l-5 -27h-116l-41 -185h116l-6 -27h-116l-38 -168h-31l38 168h-158l-37 -168h-31l38 168h-115l5 27h116l41 185h-116l6 27h116l38 170h31l-39 -170h158l38 170h30l-37 -170h115zM367 380h-158l-41 -185h158z" />
    <glyph glyph-name="numbersign.lin" horiz-adv-x="673" 
d="M647 485h-148l-54 -240h149l-6 -29h-150l-48 -216h-32l48 216h-206l-48 -216h-32l48 216h-148l6 29h149l54 240h-150l6 29h150l49 219h32l-49 -219h206l49 219h32l-49 -219h148zM261 485l-54 -240h206l54 240h-206z" />
    <glyph glyph-name="paragraph" unicode="&#xb6;" horiz-adv-x="524" 
d="M450 0h-31v552c-30 3 -61 4 -98 5v-557h-32v168c-126 -7 -248 63 -248 195c0 133 104 222 282 222c49 0 86 -3 127 -7v-578zM289 196v360c-136 -10 -215 -83 -215 -192c0 -113 109 -175 215 -168z" />
    <glyph glyph-name="paragraph.lin" horiz-adv-x="695" 
d="M602 0h-33v703c-53 6 -100 10 -163 10h-8v-713h-33v212c-159 -9 -315 81 -315 248c0 169 130 282 356 282c76 0 128 -6 196 -14v-728zM365 240v472c-178 -13 -282 -108 -282 -252c0 -146 143 -229 282 -220z" />
    <glyph glyph-name="section" unicode="&#xa7;" horiz-adv-x="397" 
d="M356 284c0 -50 -41 -87 -89 -100c35 -17 62 -42 62 -85c0 -67 -61 -107 -144 -107c-55 0 -106 22 -144 49l14 23c33 -23 85 -46 130 -46c71 0 112 29 112 78c0 108 -253 69 -253 198c0 48 42 87 90 99c-35 17 -63 41 -63 85c0 68 61 107 138 107c59 0 105 -20 138 -43
l-15 -25c-28 20 -74 42 -123 42c-65 0 -106 -30 -106 -78c0 -106 253 -71 253 -197zM324 281c0 60 -69 70 -156 99c-48 -5 -92 -41 -92 -84c0 -61 73 -69 157 -99c47 6 91 40 91 84z" />
    <glyph glyph-name="section.lin" horiz-adv-x="498" 
d="M446 360c0 -64 -56 -112 -118 -127c47 -22 84 -53 84 -108c0 -86 -77 -133 -174 -133c-75 0 -137 28 -187 59l16 26c46 -28 107 -57 171 -57c86 0 140 39 140 102c0 139 -326 88 -326 252c0 63 56 112 118 127c-47 22 -84 53 -84 108c0 86 77 133 174 133
c76 0 135 -26 176 -56l-16 -26c-36 26 -96 54 -160 54c-86 0 -140 -39 -140 -102c0 -141 326 -88 326 -252zM412 357c0 82 -96 92 -203 130c-64 -7 -123 -53 -123 -110c0 -82 96 -92 203 -130c64 7 123 52 123 110z" />
    <glyph glyph-name="ordfeminine" unicode="&#xaa;" horiz-adv-x="356" 
d="M289 429h-26v34c-20 -21 -59 -40 -99 -40c-65 0 -118 35 -118 96s55 97 120 97c39 0 69 -11 96 -24v32c0 62 -26 93 -98 93c-23 0 -55 -6 -81 -17l-6 25c27 11 63 18 90 18c85 0 122 -41 122 -117v-197zM262 491v75c-30 17 -57 27 -94 27c-53 0 -95 -26 -95 -74
c0 -47 40 -71 94 -71c41 0 74 17 95 43z" />
    <glyph glyph-name="ordmasculine" unicode="&#xba;" horiz-adv-x="399" 
d="M352 582c0 -90 -66 -162 -153 -162c-89 0 -152 71 -152 161s64 161 153 161c88 0 152 -69 152 -160zM324 581c0 77 -50 136 -125 136c-73 0 -124 -60 -124 -136s50 -135 124 -135s125 60 125 135z" />
    <glyph glyph-name="degree" unicode="&#xb0;" horiz-adv-x="304" 
d="M256 583c0 -53 -41 -104 -104 -104s-104 51 -104 104s41 103 104 103s104 -50 104 -103zM231 583c0 43 -32 79 -79 79s-79 -36 -79 -79s32 -80 79 -80s79 37 79 80z" />
    <glyph glyph-name="degree.lin" horiz-adv-x="359" 
d="M311 611c0 -67 -51 -131 -131 -131c-82 0 -132 64 -132 131s51 131 131 131c82 0 132 -64 132 -131zM282 611c0 56 -40 106 -103 106c-62 0 -102 -50 -102 -106s40 -106 103 -106c62 0 102 50 102 106z" />
    <glyph glyph-name="percent" unicode="%" horiz-adv-x="617" 
d="M286 441c0 -77 -43 -145 -121 -145s-121 68 -121 145s43 145 121 145s121 -68 121 -145zM545 574l-454 -586l-19 16l454 586zM573 137c0 -77 -43 -145 -121 -145s-121 68 -121 145s43 145 121 145s121 -68 121 -145zM257 441c0 64 -32 119 -92 119s-92 -55 -92 -119
s32 -119 92 -119s92 55 92 119zM544 137c0 64 -32 119 -92 119s-92 -55 -92 -119s32 -119 92 -119s92 55 92 119z" />
    <glyph glyph-name="perthousand" unicode="&#x2030;" horiz-adv-x="894" 
d="M257 441c0 64 -32 119 -92 119s-92 -55 -92 -119s32 -119 92 -119s92 55 92 119zM286 441c0 -77 -43 -145 -121 -145s-121 68 -121 145s43 145 121 145s121 -68 121 -145zM545 574l-454 -586l-19 16l454 586zM544 137c0 64 -32 119 -92 119s-92 -55 -92 -119
s32 -119 92 -119s92 55 92 119zM573 137c0 -77 -43 -145 -121 -145s-121 68 -121 145s43 145 121 145s121 -68 121 -145zM821 137c0 64 -32 119 -92 119s-92 -55 -92 -119s32 -119 92 -119s92 55 92 119zM850 137c0 -77 -43 -145 -121 -145s-121 68 -121 145s43 145 121 145
s121 -68 121 -145z" />
    <glyph glyph-name="percent.lin" horiz-adv-x="777" 
d="M362 558c0 -98 -55 -184 -155 -184c-99 0 -152 86 -152 184s55 184 154 184c100 0 153 -86 153 -184zM330 558c0 84 -39 156 -121 156c-81 0 -122 -72 -122 -156s39 -156 120 -156c82 0 123 72 123 156zM686 731l-574 -747l-21 18l574 747zM722 176
c0 -98 -55 -184 -155 -184c-99 0 -152 86 -152 184s55 184 154 184c100 0 153 -86 153 -184zM690 176c0 84 -39 156 -121 156c-81 0 -122 -72 -122 -156s39 -156 120 -156c82 0 123 72 123 156z" />
    <glyph glyph-name="perthousand.lin" horiz-adv-x="1128" 
d="M330 558c0 84 -39 156 -121 156c-81 0 -122 -72 -122 -156s39 -156 120 -156c82 0 123 72 123 156zM362 558c0 -98 -55 -184 -155 -184c-99 0 -152 86 -152 184s55 184 154 184c100 0 153 -86 153 -184zM686 731l-574 -747l-21 18l574 747zM690 176
c0 84 -39 156 -121 156c-81 0 -122 -72 -122 -156s39 -156 120 -156c82 0 123 72 123 156zM722 176c0 -98 -55 -184 -155 -184c-99 0 -152 86 -152 184s55 184 154 184c100 0 153 -86 153 -184zM1041 176c0 84 -39 156 -121 156c-81 0 -122 -72 -122 -156s39 -156 120 -156
c82 0 123 72 123 156zM1073 176c0 -98 -55 -184 -155 -184c-99 0 -152 86 -152 184s55 184 154 184c100 0 153 -86 153 -184z" />
    <glyph glyph-name="quotedbl" unicode="&#x22;" horiz-adv-x="309" 
d="M175 640l-105 -159l-19 12l90 167zM284 630l-106 -159l-19 12l91 167z" />
    <glyph glyph-name="quotedbl.cap" horiz-adv-x="309" 
d="M177 728l-105 -159l-19 12l90 167zM286 718l-106 -159l-19 12l91 167z" />
    <glyph glyph-name="quotesingle" unicode="'" horiz-adv-x="200" 
d="M175 640l-105 -159l-19 12l90 167z" />
    <glyph glyph-name="quotesingle.cap" horiz-adv-x="200" 
d="M177 728l-105 -159l-19 12l90 167z" />
    <glyph glyph-name="plus" unicode="+" horiz-adv-x="459" 
d="M399 258h-153v-162h-32v162h-154v29h154v161h32v-161h153v-29z" />
    <glyph glyph-name="plus.lin" horiz-adv-x="459" 
d="M399 357h-153v-162h-32v162h-154v29h154v161h32v-161h153v-29z" />
    <glyph glyph-name="minus" unicode="&#x2212;" horiz-adv-x="459" 
d="M60 258v29h339v-29h-339z" />
    <glyph glyph-name="minus.lin" horiz-adv-x="459" 
d="M60 357v29h339v-29h-339z" />
    <glyph glyph-name="divide" unicode="&#xf7;" horiz-adv-x="459" 
d="M60 258v29h339v-29h-339zM200 424c0 17 13 31 30 31s30 -14 30 -31c0 -16 -13 -30 -30 -30s-30 14 -30 30zM200 119c0 17 13 31 30 31s30 -14 30 -31c0 -16 -13 -30 -30 -30s-30 14 -30 30z" />
    <glyph glyph-name="divide.lin" horiz-adv-x="459" 
d="M60 357v29h339v-29h-339zM200 523c0 17 13 31 30 31s30 -14 30 -31c0 -16 -13 -30 -30 -30s-30 14 -30 30zM200 218c0 17 13 31 30 31s30 -14 30 -31c0 -16 -13 -30 -30 -30s-30 14 -30 30z" />
    <glyph glyph-name="equal" unicode="=" horiz-adv-x="393" 
d="M333 326h-273v31h273v-31zM333 187h-273v31h273v-31z" />
    <glyph glyph-name="equal.lin" horiz-adv-x="393" 
d="M333 425h-273v31h273v-31zM333 286h-273v31h273v-31z" />
    <glyph glyph-name="multiply" unicode="&#xd7;" horiz-adv-x="459" 
d="M79 402l21 21l129 -130l130 130l21 -21l-130 -130l130 -129l-21 -21l-130 129l-129 -129l-21 21l129 129z" />
    <glyph glyph-name="multiply.lin" horiz-adv-x="459" 
d="M79 501l21 21l129 -130l130 130l21 -21l-130 -130l130 -129l-21 -21l-130 129l-129 -129l-21 21l129 129z" />
    <glyph glyph-name="less" unicode="&#x3c;" horiz-adv-x="367" 
d="M323 52l-20 -22l-275 244l275 243l20 -21l-250 -222z" />
    <glyph glyph-name="less.lin" horiz-adv-x="367" 
d="M323 150l-20 -22l-275 244l275 243l20 -21l-250 -222z" />
    <glyph glyph-name="greater" unicode="&#x3e;" horiz-adv-x="367" 
d="M339 274l-275 -243l-20 21l250 222l-250 222l20 22z" />
    <glyph glyph-name="greater.lin" horiz-adv-x="367" 
d="M339 371l-275 -243l-20 21l250 222l-250 222l20 22z" />
    <glyph glyph-name="florin" unicode="&#x192;" horiz-adv-x="360" 
d="M352 574l-9 -28c-14 5 -34 9 -55 9c-70 0 -107 -48 -120 -159l-8 -68h99l-4 -28h-98l-35 -300h-32l34 300h-59l5 16l57 12l8 71c13 124 66 186 154 186c25 0 45 -4 63 -11z" />
    <glyph glyph-name="florin.lin" horiz-adv-x="453" 
d="M443 729l-10 -30c-19 7 -45 13 -73 13c-89 0 -138 -66 -154 -208l-10 -89h126l-6 -29h-124l-44 -386h-34l44 385h-74l3 16l74 13l11 94c18 157 82 234 191 234c31 0 58 -5 80 -13z" />
    <glyph glyph-name="underscore" unicode="_" horiz-adv-x="520" 
d="M520 0h-520v31h520v-31z" />
    <glyph glyph-name="arrowleft" unicode="&#x2190;" horiz-adv-x="711" 
d="M661 228l-575 1l251 -207l-19 -23l-289 240v7l289 240l19 -23l-251 -207l575 1v-29z" />
    <glyph glyph-name="arrowright" unicode="&#x2192;" horiz-adv-x="711" 
d="M50 257l575 -1l-251 207l19 23l289 -240v-7l-289 -240l-19 23l251 207l-575 -1v29z" />
    <glyph glyph-name="arrowleft.cap" horiz-adv-x="711" 
d="M661 357l-575 1l251 -207l-19 -23l-289 240v7l289 240l19 -23l-251 -207l575 1v-29z" />
    <glyph glyph-name="arrowright.cap" horiz-adv-x="711" 
d="M50 386l575 -1l-251 207l19 23l289 -240v-7l-289 -240l-19 23l251 207l-575 -1v29z" />
    <glyph glyph-name="asciicircum" unicode="^" horiz-adv-x="440" 
d="M345 485h-37l-90 110l-85 -110h-38l109 137h30z" />
    <glyph glyph-name="asciitilde" unicode="~" horiz-adv-x="440" 
d="M372 386c-36 -40 -63 -55 -93 -54c-22 1 -44 13 -65 25c-20 12 -40 24 -56 25c-22 1 -42 -11 -72 -45l-19 22c36 40 63 55 93 54c22 -1 44 -13 65 -25c20 -12 40 -24 56 -25c22 -1 42 11 72 45z" />
    <glyph glyph-name="hfjslug" horiz-adv-x="694" 
d="M644 -200h-208l-8 14h-163l-8 -14h-207v303c18 0 32 14 32 32c0 17 -14 32 -32 32v554h100l30 79h334l29 -79h101v-921zM400 563v-172h15v78h38v14h-38v66h43v14h-58zM184 563v-172h15v79h47v-79h15v172h-15v-79h-47v79h-15zM460 394c4 -2 15 -4 21 -4c20 0 31 11 31 36
v137h-16v-137c0 -16 -5 -22 -16 -22c-5 0 -15 3 -20 6v-16zM349 438l-16 31c13 12 23 26 23 42c0 15 -9 31 -27 31c-17 0 -28 -16 -28 -31s6 -24 14 -39c-15 -12 -23 -28 -23 -45c0 -22 13 -39 31 -39c13 0 22 12 27 24h1l12 -24l11 8l-16 30c5 12 10 25 13 39l-13 3
c-2 -9 -6 -21 -9 -30zM523 323v-46h8v13l7 7l16 -20h9l-19 26l18 20h-10l-21 -24v24h-8zM488 292l10 -15h9l-12 17c6 2 10 8 10 15c0 6 -6 14 -16 14h-21v-46h8v15h12zM426 276c15 0 24 11 24 24c0 12 -10 24 -24 24s-23 -12 -23 -24c0 -13 9 -24 23 -24zM370 301l-13 22h-9
l18 -29v-17h8v17l18 29h-9zM193 323v-46h33v7h-25v13h22v7h-22v12h25v7h-33zM132 323v-46h8v32l25 -32h7v46h-8v-32l-25 32h-7zM241 323l15 -47h8l10 34h1l11 -34h8l14 47h-8l-10 -35h-1l-10 35h-8l-11 -35h-1l-10 35h-8zM327 479c-7 13 -12 22 -12 32s6 19 14 19
s13 -9 13 -19c0 -12 -5 -21 -15 -32zM342 423c-3 -10 -11 -21 -18 -21c-10 0 -17 12 -17 27c0 11 6 24 15 33zM488 299h-12v17h11c6 0 10 -3 10 -8s-4 -9 -9 -9zM426 283c-9 0 -15 8 -15 17c0 8 6 17 15 17s16 -9 16 -17c0 -9 -7 -17 -16 -17z" />
    <glyph glyph-name="acute" unicode="&#xb4;" horiz-adv-x="440" 
d="M320 584l-194 -109l-12 19l186 121z" />
    <glyph glyph-name="hungarumlaut" unicode="&#x2dd;" horiz-adv-x="440" 
d="M228 646l-109 -167l-18 12l95 174zM353 629l-105 -160l-18 12l91 167z" />
    <glyph glyph-name="caron.alt" horiz-adv-x="223" 
d="M129 736l33 -4c0 -79 -33 -138 -88 -179l-13 13c44 41 68 96 68 170z" />
    <glyph glyph-name="grave" unicode="`" horiz-adv-x="440" 
d="M326 494l-12 -19l-194 109l20 31z" />
    <glyph glyph-name="circumflex" unicode="&#x2c6;" horiz-adv-x="440" 
d="M345 485h-37l-90 110l-85 -110h-38l109 137h30z" />
    <glyph glyph-name="caron" unicode="&#x2c7;" horiz-adv-x="440" 
d="M345 623l-109 -137h-30l-111 137h37l90 -110l85 110h38z" />
    <glyph glyph-name="breve" unicode="&#x2d8;" horiz-adv-x="440" 
d="M342 611c-1 -64 -46 -120 -123 -120c-76 0 -121 56 -122 120l30 4c2 -58 36 -96 92 -96s91 38 93 96z" />
    <glyph glyph-name="tilde" unicode="&#x2dc;" horiz-adv-x="440" 
d="M372 557c-36 -40 -63 -55 -93 -54c-22 1 -44 13 -65 25c-20 12 -40 24 -56 25c-22 1 -42 -11 -72 -45l-19 22c36 40 63 55 93 54c22 -1 44 -13 65 -25c20 -12 40 -24 56 -25c22 -1 42 11 72 45z" />
    <glyph glyph-name="macron" unicode="&#xaf;" horiz-adv-x="440" 
d="M363 523h-287v29h287v-29z" />
    <glyph glyph-name="dieresis" unicode="&#xa8;" horiz-adv-x="440" 
d="M338 541c0 -18 -15 -34 -34 -34s-34 16 -34 34c0 19 15 35 34 35s34 -16 34 -35zM170 541c0 -18 -15 -34 -34 -34s-34 16 -34 34c0 19 15 35 34 35s34 -16 34 -35z" />
    <glyph glyph-name="dotaccent" unicode="&#x2d9;" horiz-adv-x="440" 
d="M186 541c0 19 15 35 34 35s34 -16 34 -35c0 -18 -15 -34 -34 -34s-34 16 -34 34z" />
    <glyph glyph-name="ring" unicode="&#x2da;" horiz-adv-x="440" 
d="M320 584c0 -54 -43 -100 -100 -100s-100 46 -100 100s43 99 100 99s100 -45 100 -99zM292 584c0 43 -30 74 -72 74s-72 -31 -72 -74s30 -75 72 -75s72 32 72 75z" />
    <glyph glyph-name="commaaccent" unicode="&#x326;" horiz-adv-x="203" 
d="M141 -122c0 -47 -40 -96 -69 -114l-11 10c25 25 44 54 48 85c-26 4 -40 19 -40 36c0 18 15 32 32 32c21 0 40 -18 40 -49z" />
    <glyph glyph-name="cedilla" unicode="&#xb8;" horiz-adv-x="440" 
d="M324 -154c0 -44 -37 -83 -104 -83c-33 0 -67 13 -104 32l13 26c36 -18 64 -30 91 -30c46 0 71 21 71 54c0 35 -29 64 -109 73l-2 4l24 92l28 -6l-18 -67c72 -12 110 -48 110 -95z" />
    <glyph glyph-name="ogonek" unicode="&#x2db;" horiz-adv-x="440" 
d="M318 -169c-20 -29 -45 -50 -85 -50c-43 0 -73 26 -73 72c0 57 47 108 113 172l13 -25c-48 -45 -96 -98 -96 -145c0 -30 20 -47 45 -47c28 0 48 17 64 40z" />
    <glyph glyph-name="space" unicode=" " horiz-adv-x="203" 
 />
    <glyph glyph-name="uni00A0" unicode="&#xa0;" horiz-adv-x="203" 
 />
    <glyph glyph-name="emspace" unicode="&#x2003;" horiz-adv-x="1000" 
 />
    <glyph glyph-name="enspace" unicode="&#x2002;" horiz-adv-x="500" 
 />
    <glyph glyph-name="threeperemspace" unicode="&#x2004;" horiz-adv-x="333" 
 />
    <glyph glyph-name="fourperemspace" unicode="&#x2005;" horiz-adv-x="250" 
 />
    <glyph glyph-name="thinspace" unicode="&#x2009;" horiz-adv-x="133" 
 />
    <glyph glyph-name="hairspace" unicode="&#x200a;" horiz-adv-x="75" 
 />
    <glyph glyph-name="NUL" horiz-adv-x="0" 
 />
    <glyph glyph-name="figurespace" unicode="&#x2007;" horiz-adv-x="520" 
 />
    </font>
</defs>
</svg>
