<?xml version="1.0" encoding="UTF-8" standalone="no"?>
<svg width="24px" height="24px" viewBox="0 0 24 24" version="1.1" xmlns="http://www.w3.org/2000/svg" xmlns:xlink="http://www.w3.org/1999/xlink" xmlns:sketch="http://www.bohemiancoding.com/sketch/ns">
    <!-- Generator: Sketch 3.2.2 (9983) - http://www.bohemiancoding.com/sketch -->
    <title>icon-instagram</title>
    <desc>Created with Sketch.</desc>
    <defs></defs>
    <g id="Site" stroke="none" stroke-width="1" fill="none" fill-rule="evenodd" sketch:type="MSPage">
        <g id="Middle-Aligned" sketch:type="MSArtboardGroup" transform="translate(-140.000000, -402.000000)">
            <g id="Sidebar" sketch:type="MSLayerGroup" transform="translate(140.000000, 90.000000)">
                <g id="Social" transform="translate(0.000000, 312.000000)" sketch:type="MSShapeGroup">
                    <g id="icon-instagram">
                        <rect id="Social-Bg" fill="#333333" x="0" y="0" width="24" height="24" rx="3"></rect>
                        <path d="M6.79715789,5 L17.2028421,5 C18.1916842,5 19,5.80831579 19,6.79715789 L19,17.2028421 C19,18.1916842 18.1916842,19 17.2028421,19 L6.79715789,19 C5.80831579,19 5,18.1916842 5,17.2028421 L5,6.79715789 C5,5.80831579 5.80831579,5 6.79715789,5 L6.79715789,5 Z M15.1986316,6.55547368 C14.8515789,6.55547368 14.5686316,6.83915789 14.5686316,7.18547368 L14.5686316,8.69452632 C14.5686316,9.04084211 14.8515789,9.32452632 15.1986316,9.32452632 L16.7806316,9.32452632 C17.1276842,9.32452632 17.4113684,9.04084211 17.4113684,8.69452632 L17.4113684,7.18547368 C17.4113684,6.83915789 17.1276842,6.55547368 16.7806316,6.55547368 L15.1986316,6.55547368 L15.1986316,6.55547368 Z M17.418,10.9205263 L16.1852632,10.9205263 C16.3016842,11.3014737 16.3650526,11.7045263 16.3650526,12.1215789 C16.3650526,14.4507368 14.4168421,16.3377895 12.0132632,16.3377895 C9.60968421,16.3377895 7.66147368,14.4507368 7.66147368,12.1215789 C7.66147368,11.7045263 7.72484211,11.3014737 7.84126316,10.9205263 L6.55547368,10.9205263 L6.55547368,16.8344211 C6.55547368,17.1402105 6.806,17.3907368 7.11178947,17.3907368 L16.8609474,17.3907368 C17.1674737,17.3907368 17.418,17.1402105 17.418,16.8344211 L17.418,10.9205263 L17.418,10.9205263 Z M12.0132632,9.24494737 C10.4607368,9.24494737 9.20147368,10.4651579 9.20147368,11.9697895 C9.20147368,13.4744211 10.4607368,14.6938947 12.0132632,14.6938947 C13.5665263,14.6938947 14.8250526,13.4744211 14.8250526,11.9697895 C14.8250526,10.4651579 13.5665263,9.24494737 12.0132632,9.24494737 L12.0132632,9.24494737 Z" id="Instagram-lcon" fill="#FFFFFF"></path>
                    </g>
                </g>
            </g>
        </g>
    </g>
</svg>