<?xml version="1.0" encoding="UTF-8" standalone="no"?>
<svg width="24px" height="24px" viewBox="0 0 24 24" version="1.1" xmlns="http://www.w3.org/2000/svg" xmlns:xlink="http://www.w3.org/1999/xlink" xmlns:sketch="http://www.bohemiancoding.com/sketch/ns">
    <!-- Generator: Sketch 3.2.2 (9983) - http://www.bohemiancoding.com/sketch -->
    <title>icon-twitter</title>
    <desc>Created with Sketch.</desc>
    <defs></defs>
    <g id="Site" stroke="none" stroke-width="1" fill="none" fill-rule="evenodd" sketch:type="MSPage">
        <g id="Middle-Aligned" sketch:type="MSArtboardGroup" transform="translate(-198.000000, -402.000000)">
            <g id="Sidebar" sketch:type="MSLayerGroup" transform="translate(140.000000, 90.000000)">
                <g id="Social" transform="translate(0.000000, 312.000000)" sketch:type="MSShapeGroup">
                    <g id="icon-twitter" transform="translate(58.000000, 0.000000)">
                        <rect id="Social-Bg" fill="#333333" x="0" y="0" width="24" height="24" rx="3"></rect>
                        <path d="M19,7.40853158 C18.4853333,7.64770304 17.9313333,7.80947498 17.3506667,7.88199344 C17.9433333,7.51033634 18.3993333,6.92112387 18.6133333,6.21964725 C18.0586667,6.56410993 17.444,6.81374077 16.7893333,6.94901559 C16.2653333,6.36468417 15.5193333,6 14.6933333,6 C13.1066667,6 11.8206667,7.34507793 11.8206667,9.00393765 C11.8206667,9.23962264 11.846,9.46903199 11.8953333,9.68867925 C9.508,9.56386382 7.39133333,8.36730927 5.97466667,6.55016407 C5.72733333,6.99364233 5.586,7.50963905 5.586,8.06050041 C5.586,9.10225595 6.09333333,10.0219852 6.864,10.5609926 C6.39266667,10.5449549 5.95,10.4103774 5.56266667,10.1851518 L5.56266667,10.2228056 C5.56266667,11.6787531 6.55266667,12.89274 7.86666667,13.1688679 C7.62533333,13.2372026 7.372,13.2741591 7.11,13.2741591 C6.92466667,13.2741591 6.74466667,13.2553322 6.56933333,13.2204676 C6.93466667,14.4135357 7.99533333,15.2823626 9.25266667,15.3067678 C8.26933333,16.1121411 7.03133333,16.5925759 5.68533333,16.5925759 C5.45333333,16.5925759 5.22466667,16.57863 5,16.5507383 C6.27133333,17.4028302 7.78133333,17.9 9.40333333,17.9 C14.686,17.9 17.5753333,13.3222724 17.5753333,9.35258409 C17.5753333,9.22219032 17.5726667,9.09249385 17.5673333,8.96419196 C18.128,8.5402379 18.6153333,8.01099262 19,7.40853158" id="Twitter-Icon" fill="#FFFFFF"></path>
                    </g>
                </g>
            </g>
        </g>
    </g>
</svg>