<?xml version="1.0" encoding="UTF-8" standalone="no"?>
<svg width="50px" height="28px" viewBox="0 0 50 28" version="1.1" xmlns="http://www.w3.org/2000/svg" xmlns:xlink="http://www.w3.org/1999/xlink" xmlns:sketch="http://www.bohemiancoding.com/sketch/ns">
    <!-- Generator: Sketch 3.2.2 (9983) - http://www.bohemiancoding.com/sketch -->
    <title>logo-icon</title>
    <desc>Created with Sketch.</desc>
    <defs>
        <linearGradient x1="-19.7649189%" y1="-91.1667784%" x2="85.0231029%" y2="100%" id="linearGradient-1">
            <stop stop-color="#FFFFFF" stop-opacity="0.5" offset="0%"></stop>
            <stop stop-color="#000000" stop-opacity="0.5" offset="100%"></stop>
        </linearGradient>
        <path id="path-2" d="M1.81973596,25.0136339 C1.87682058,21.7782321 2.02257215,13.0584081 2.02257215,8.37043042 C2.02257215,5.44528793 2.2819569,3.4321934 3.39840094,2.83461085 C4.51484497,2.2370283 7.37341556,2.26083432 9.31649766,2.15389151 C11.2595798,2.0469487 12.6314596,1.98466981 15.3752194,1.85185731 C16.1073581,1.81641792 17.2886115,0 18.3704661,0 C30.4439059,0 43.4877889,-4.19498061e-17 44.0570898,0 C44.6263907,4.19498061e-17 44.9065437,0.0947081368 45.3281262,0.374926297 C45.7497087,0.655144458 46.0530421,0.956367925 46.0530421,1.43831073 C46.0530421,9.35249607 46.053042,17.0994474 46.053042,25.0136327 C46.053042,25.3747275 45.6255362,26.6151238 44.5483618,26.6151238 L3.15707882,26.6151238 C2.56342634,26.6151238 1.80583495,25.8015054 1.81973596,25.0136339 Z"></path>
        <rect id="path-3" x="2.09672387" y="7.69811321" width="43.5819033" height="17.2075472"></rect>
        <linearGradient x1="-31.964251%" y1="-31.6431285%" x2="85.5659717%" y2="92.7699153%" id="linearGradient-4">
            <stop stop-color="#FFFFFF" stop-opacity="0.5" offset="0%"></stop>
            <stop stop-color="#000000" stop-opacity="0.346325861" offset="100%"></stop>
        </linearGradient>
        <path id="path-5" d="M2.32956318,8.52157284 C2.68086971,8.52157284 3.70855676,8.52157282 4.76735572,8.52157282 C5.42480836,8.52157282 7.8446912,8.49773237 9.13623706,8.52157284 C9.69733213,8.53193001 10.030249,8.68450599 10.3914779,9.01547759 C10.788855,9.3795696 10.7471727,10.5536556 10.9760631,11.403523 C11.2049535,12.2533903 11.8109646,13.3154481 12.2313039,14.0804097 C12.6516432,14.8453714 12.89644,15.4446934 13.1157131,16.3863502 C13.3494299,17.3900353 13.2627847,18.0756928 13.2627733,20.2479363 C13.2627668,21.4912681 13.1587126,23.1081441 12.2313039,24.2882517 C11.9186866,24.6860505 11.6435017,25.0158461 10.7315959,25.1283903 C9.81969008,25.2409345 2.42241265,25.2945189 1.86315329,25.1283903 C1.3048947,24.9625589 1.22313768,24.3954805 1.22313768,24.1050265 C1.22313767,21.2658688 1.32127535,9.40927184 1.40390991,9.18528892 C1.59966084,8.65470136 1.97825665,8.52157283 2.32956318,8.52157284 Z"></path>
        <filter x="-50%" y="-50%" width="200%" height="200%" filterUnits="objectBoundingBox" id="filter-6">
            <feOffset dx="0" dy="0" in="SourceAlpha" result="shadowOffsetOuter1"></feOffset>
            <feGaussianBlur stdDeviation="0" in="shadowOffsetOuter1" result="shadowBlurOuter1"></feGaussianBlur>
            <feColorMatrix values="0 0 0 0 0   0 0 0 0 0   0 0 0 0 0  0 0 0 0.0701624774 0" in="shadowBlurOuter1" type="matrix" result="shadowMatrixOuter1"></feColorMatrix>
            <feMerge>
                <feMergeNode in="shadowMatrixOuter1"></feMergeNode>
                <feMergeNode in="SourceGraphic"></feMergeNode>
            </feMerge>
        </filter>
    </defs>
    <g id="Site" stroke="none" stroke-width="1" fill="none" fill-rule="evenodd" sketch:type="MSPage">
        <g id="Middle-Aligned" sketch:type="MSArtboardGroup" transform="translate(-195.000000, -90.000000)">
            <g id="Sidebar" sketch:type="MSLayerGroup" transform="translate(140.000000, 90.000000)">
                <g id="Verlag">
                    <g id="Logo" transform="translate(28.000000, 0.000000)">
                        <g id="logo-icon" transform="translate(28.000000, 0.000000)">
                            <g id="Strap-Holders" transform="translate(0.000000, 4.075472)" stroke="#444444" stroke-width="0.5" sketch:type="MSShapeGroup">
                                <path d="M2.10867143,2.84833287 C1.93788984,2.84869088 1.73747681,2.83096928 1.50187087,2.7921344 C0.670070928,2.6890821 0.0841757004,2.12538462 0.180306032,1.33541382 C0.275339515,0.554456585 0.979113421,0.149458226 1.81091337,0.252510526 C2.04770108,0.271847545 2.24713029,0.299018268 2.4147327,0.333207396 L2.10867143,2.84833287 L2.10867143,2.84833287 Z M1.2973457,0.971705835 C1.01000642,0.936107162 0.748471138,1.14228176 0.713190309,1.43220969 C0.677909481,1.72213762 0.882243235,1.98602907 1.16958252,2.02162774 C1.45692181,2.05722642 1.71845708,1.85105182 1.75373791,1.56112389 C1.78901874,1.27119596 1.58468499,1.00730451 1.2973457,0.971705835 L1.2973457,0.971705835 Z" id="Strap-Holder,-Lfet" fill="#DCDCDC"></path>
                                <path d="M45.9032761,0.249417133 C46.0727415,0.228085528 46.2738011,0.221038809 46.5123414,0.230601518 C47.350388,0.230601518 48.0000001,0.717497052 48,1.51249538 C47.9999999,2.29842276 47.350388,2.78638796 46.5123414,2.78638796 C46.2749831,2.79630093 46.0737587,2.79385878 45.9032761,2.78054926 L45.9032761,0.249417133 L45.9032761,0.249417133 Z M46.9352157,2.01028495 C47.2247128,2.01028495 47.4593966,1.77375614 47.4593966,1.48198306 C47.4593966,1.19020999 47.2247128,0.953681177 46.9352157,0.953681177 C46.6457185,0.953681177 46.4110347,1.19020999 46.4110347,1.48198306 C46.4110347,1.77375614 46.6457185,2.01028495 46.9352157,2.01028495 Z" id="Strap-Holder,-Right" fill="#DDDDDD"></path>
                            </g>
                            <g id="Shutter-Speed-Dial" transform="translate(10.633385, 0.000000)" stroke="#444444" stroke-width="0.5" sketch:type="MSShapeGroup">
                                <rect id="Shutter-Speed-Dial-Spinner" fill="#444444" x="2.09672387" y="0" width="1.49765991" height="1.20754717" rx="0.299531981"></rect>
                                <rect fill="#4F4F4F" x="0" y="0.528301887" width="5.69110764" height="1.81132075" rx="0.299531981"></rect>
                                <g id="Texture-Grid" transform="translate(0.074883, 0.226415)" stroke-linecap="square">
                                    <path id="Line" d="M0.673946958,0.641509434 L0.673946958,1.77358491"></path>
                                    <path id="Line" d="M1.19812793,0.641509434 L1.19812793,1.77358491"></path>
                                    <path id="Line" d="M1.72230889,0.641509434 L1.72230889,1.77358491"></path>
                                    <path id="Line" d="M2.24648986,0.116722251 L2.24648986,1.75665629"></path>
                                    <path id="Line" d="M2.77067083,0.116722251 L2.77067083,1.75665629"></path>
                                    <path id="Line" d="M3.29485179,0.116722251 L3.29485179,1.75665629"></path>
                                    <path id="Line" d="M3.81903276,0.641509434 L3.81903276,1.77358491"></path>
                                    <path id="Line" d="M4.34321373,0.641509434 L4.34321373,1.77358491"></path>
                                    <path id="Line" d="M4.8673947,0.641509434 L4.8673947,1.77358491"></path>
                                    <path id="Line-2" d="M0.0374414977,0.981132075 L5.27925117,0.981132075"></path>
                                    <path id="Line-2" d="M0.0374414977,0.528301887 L5.27925117,0.528301887"></path>
                                    <path id="Line-2" d="M0.0374414977,1.50943396 L5.27925117,1.50943396"></path>
                                </g>
                            </g>
                            <path d="M6.66458658,1.58490566 L5.76125561,1.58490566 C5.59607933,1.58490566 5.46645866,1.71462147 5.46645866,1.87463403 L5.46645866,2.83409239 L9.95943838,2.83409239 L9.95943838,1.87463403 C9.95943838,1.71859052 9.82745329,1.58490566 9.66464143,1.58490566 L8.76131045,1.58490566 L8.76131045,1.51197671 C8.76131045,1.41745283 8.69379893,1.35849057 8.61051924,1.35849057 L6.81537779,1.35849057 C6.73434834,1.35849057 6.66458658,1.42720865 6.66458658,1.51197671 L6.66458658,1.58490566 Z" id="On/Off-Dial" fill="#444444" sketch:type="MSShapeGroup"></path>
                            <g id="Body,-Frame">
                                <use stroke="#333333" stroke-width="0.524180967" fill="#DDDDDD" sketch:type="MSShapeGroup" xlink:href="#path-2"></use>
                                <use stroke="none" fill-opacity="0.6" fill="url(#linearGradient-1)" xlink:href="#path-2"></use>
                                <use stroke="none" fill-opacity="0.0230876866" fill="none" xlink:href="#path-2"></use>
                            </g>
                            <g id="Body,-Middle">
                                <use fill="#2B2B2B" sketch:type="MSShapeGroup" xlink:href="#path-3"></use>
                                <use fill-opacity="0.070079291" fill="none" xlink:href="#path-3"></use>
                            </g>
                            <g id="Focus-Selector" transform="translate(38.190328, 18.867925)" sketch:type="MSShapeGroup">
                                <path d="M2.24648986,4.52830189 C3.48719195,4.52830189 4.49297972,3.51460698 4.49297972,2.26415094 C4.49297972,1.01369491 3.48719195,0 2.24648986,0 C1.00578777,0 0,1.01369491 0,2.26415094 C0,3.51460698 1.00578777,4.52830189 2.24648986,4.52830189 Z" id="Outer" fill="#131313"></path>
                                <path d="M2.24648986,4.1509434 C3.28040827,4.1509434 4.11856474,3.30619764 4.11856474,2.26415094 C4.11856474,1.22210425 3.28040827,0.377358491 2.24648986,0.377358491 C1.21257145,0.377358491 0.374414977,1.22210425 0.374414977,2.26415094 C0.374414977,3.30619764 1.21257145,4.1509434 2.24648986,4.1509434 Z" id="Middle" opacity="0.297341418" fill="#777777"></path>
                                <path d="M2.24648986,3.77358491 C3.07362459,3.77358491 3.74414977,3.0977883 3.74414977,2.26415094 C3.74414977,1.43051359 3.07362459,0.754716981 2.24648986,0.754716981 C1.41935513,0.754716981 0.748829953,1.43051359 0.748829953,2.26415094 C0.748829953,3.0977883 1.41935513,3.77358491 2.24648986,3.77358491 Z" id="Inner" fill="#151515"></path>
                                <rect id="Indicator" fill="#DDDDDD" x="2.02184087" y="0.603773585" width="0.449297972" height="1.35849057" rx="0.299531981"></rect>
                            </g>
                            <g id="Grip">
                                <use stroke="#2A2A2A" stroke-width="0.5" fill="#494949" sketch:type="MSShapeGroup" xlink:href="#path-5"></use>
                                <use stroke-opacity="0.246235281" stroke="#979797" stroke-width="0.5" fill-opacity="0.6" fill="url(#linearGradient-4)" xlink:href="#path-5"></use>
                                <use stroke="none" fill-opacity="0.0341068097" fill="none" xlink:href="#path-5"></use>
                            </g>
                            <g id="Meter" transform="translate(16.474259, 2.113208)" sketch:type="MSShapeGroup">
                                <ellipse id="Oval-8" fill="#444444" cx="3.36973479" cy="1.20754717" rx="1.19812793" ry="1.20754717"></ellipse>
                                <ellipse id="Oval-9" fill="#818181" cx="3.36973479" cy="1.20754717" rx="0.599063963" ry="0.603773585"></ellipse>
                                <rect id="Rectangle-13" fill="#444444" x="0" y="1.05660377" width="1.79719189" height="0.452830189" rx="0.299531981"></rect>
                                <rect id="Rectangle-13" fill="#444444" x="4.94227769" y="1.05660377" width="1.79719189" height="0.452830189" rx="0.299531981"></rect>
                            </g>
                            <path id="Line" stroke="#333333" stroke-width="0.5" stroke-linecap="square" filter="url(#filter-6)" sketch:type="MSShapeGroup" d="M25.1981279,5.58490566 L2.62652486,5.58490566"></path>
                            <g id="Lens-Release" transform="translate(15.201248, 21.584906)" sketch:type="MSShapeGroup">
                                <path d="M1.34789392,2.71698113 C2.09231517,2.71698113 2.69578783,2.10876419 2.69578783,1.35849057 C2.69578783,0.608216944 2.09231517,0 1.34789392,0 C0.603472662,0 0,0.608216944 0,1.35849057 C0,2.10876419 0.603472662,2.71698113 1.34789392,2.71698113 Z" id="Lens-Release,-Outer" fill="#171717"></path>
                                <path d="M1.34789392,2.49056604 C1.96824496,2.49056604 2.47113885,1.98371858 2.47113885,1.35849057 C2.47113885,0.733262547 1.96824496,0.226415094 1.34789392,0.226415094 C0.727542871,0.226415094 0.224648986,0.733262547 0.224648986,1.35849057 C0.224648986,1.98371858 0.727542871,2.49056604 1.34789392,2.49056604 Z" id="Lens-Release,-Middle" fill="#2B2B2B"></path>
                                <path d="M1.34789392,2.33962264 C1.88553149,2.33962264 2.32137285,1.90035485 2.32137285,1.35849057 C2.32137285,0.816626283 1.88553149,0.377358491 1.34789392,0.377358491 C0.810256343,0.377358491 0.374414977,0.816626283 0.374414977,1.35849057 C0.374414977,1.90035485 0.810256343,2.33962264 1.34789392,2.33962264 Z" id="Lens-Release,-Inner" fill="#171717"></path>
                            </g>
                            <g id="Lens" transform="translate(14.751950, 5.358491)" sketch:type="MSShapeGroup">
                                <ellipse id="Oval-10" fill="#404040" cx="11.2324493" cy="11.3207547" rx="11.2324493" ry="11.3207547"></ellipse>
                                <path d="M11.2324493,21.8867925 C17.0223924,21.8867925 21.7160686,17.1562162 21.7160686,11.3207547 C21.7160686,5.48529321 17.0223924,0.754716981 11.2324493,0.754716981 C5.44250621,0.754716981 0.748829953,5.48529321 0.748829953,11.3207547 C0.748829953,17.1562162 5.44250621,21.8867925 11.2324493,21.8867925 Z" id="Oval-11" fill="#888888"></path>
                                <path d="M11.2324493,21.1320755 C16.608825,21.1320755 20.9672387,16.7393975 20.9672387,11.3207547 C20.9672387,5.90211189 16.608825,1.50943396 11.2324493,1.50943396 C5.85607357,1.50943396 1.49765991,5.90211189 1.49765991,11.3207547 C1.49765991,16.7393975 5.85607357,21.1320755 11.2324493,21.1320755 Z" id="Oval-13" fill="#333333"></path>
                                <path d="M11.2324493,19.245283 C15.5749066,19.245283 19.0951638,15.6973508 19.0951638,11.3207547 C19.0951638,6.94415859 15.5749066,3.39622642 11.2324493,3.39622642 C6.88999198,3.39622642 3.36973479,6.94415859 3.36973479,11.3207547 C3.36973479,15.6973508 6.88999198,19.245283 11.2324493,19.245283 Z" id="Oval-14" fill="#141414"></path>
                            </g>
                            <g id="Lens-reflection" transform="translate(29.593807, 14.000000) rotate(21.000000) translate(-29.593807, -14.000000) translate(26.218807, 10.264151)" stroke="#979797" stroke-width="0.5" fill="#D8D8D8" sketch:type="MSShapeGroup">
                                <path d="M2.23628029,5.43138483 C3.86487898,6.53978495 5.69130553,6.68110768 6.31571815,5.74703799 C6.94013077,4.8129683 6.12607712,3.15721937 4.49747843,2.04881925 C2.86887973,0.940419128 1.04245319,0.799096394 0.418040566,1.73316609 C-0.206372058,2.66723578 0.607681595,4.32298471 2.23628029,5.43138483 L2.23628029,5.43138483 Z" id="Oval-17" opacity="0.0888526119"></path>
                                <path d="M3.4548927,4.13939976 C4.05745099,4.74252884 4.75515028,4.86264972 5.01324768,4.40769727 C5.27134508,3.95274482 4.99210436,3.09500026 4.38954607,2.49187119 C3.78698777,1.88874211 3.08928848,1.76862123 2.83119108,2.22357368 C2.57309368,2.67852613 2.85233441,3.53627069 3.4548927,4.13939976 L3.4548927,4.13939976 Z" id="Oval-18" opacity="0.10989972"></path>
                            </g>
                            <g id="OVF/EVF-Switcher" transform="translate(12.804992, 5.358491)" sketch:type="MSShapeGroup">
                                <path d="M0.0748829953,1.50943396 L1.87207488,1.50943396 C1.87207488,1.50943396 1.87207481,4.41147617 1.87207484,4.80874194 C1.87207489,5.35208453 1.4299435,5.73584906 0.973472992,5.73584906 C0.517002485,5.73584906 0.074908211,5.35208453 0.0748829953,4.80874194 C0.0748584771,4.28042883 0.0748829953,1.50943396 0.0748829953,1.50943396 Z" id="Path" stroke="#333333" stroke-width="0.5" fill="#606060"></path>
                                <ellipse id="Oval-19" stroke="#333333" stroke-width="0.5" fill="#606060" cx="1.5725429" cy="1.50943396" rx="1.49765991" ry="1.50943396"></ellipse>
                                <ellipse id="Oval-20" opacity="0.497493004" fill="#101010" cx="1.5725429" cy="1.50943396" rx="0.898595944" ry="0.905660377"></ellipse>
                            </g>
                            <g id="OVF" transform="translate(35.868955, 1.207547)" sketch:type="MSShapeGroup">
                                <rect id="Rectangle-8" stroke="#333333" stroke-width="0.5" x="0" y="0" width="8.53666147" height="5.88679245" rx="0.748829953"></rect>
                                <rect id="Rectangle-9" fill="#333333" x="0.748829953" y="0.603773585" width="7.03900156" height="4.67924528" rx="0.449297972"></rect>
                                <rect id="Rectangle-11" opacity="0.249766791" fill="#FFFFFF" x="3.29485179" y="2.11320755" width="1.94695788" height="1.66037736" rx="0.149765991"></rect>
                            </g>
                        </g>
                    </g>
                </g>
            </g>
        </g>
    </g>
</svg>