<?xml version="1.0" encoding="UTF-8" standalone="no"?>
<svg width="48px" height="48px" viewBox="0 0 48 48" version="1.1" xmlns="http://www.w3.org/2000/svg" xmlns:xlink="http://www.w3.org/1999/xlink">
    <!-- Generator: Sketch 3.6.1 (26313) - http://www.bohemiancoding.com/sketch -->
    <title>social-500px-48</title>
    <desc>Created with Sketch.</desc>
    <defs></defs>
    <g id="Page-1" stroke="none" stroke-width="1" fill="none" fill-rule="evenodd">
        <g id="social-500px-48">
            <g id="500px-48">
                <rect id="Background,-8px" fill="#444444" x="0" y="0" width="48" height="48" rx="8"></rect>
                <path d="M35.0828741,34.76658 L35.0829358,34.76658 C34.8652664,34.548464 34.6804202,34.41969 34.5177852,34.372818 C34.3528673,34.325202 34.205595,34.360666 34.0918246,34.475304 L33.9847791,34.582688 C32.8636709,35.709352 31.5582102,36.593906 30.1046133,37.211736 C28.6003627,37.85108 27.0019614,38.175278 25.3538318,38.175278 C23.7056405,38.175278 22.107301,37.85108 20.603112,37.211736 C19.1496386,36.593968 17.8442395,35.709476 16.7231313,34.58275 C15.5550712,33.409028 14.6748924,32.097294 14.1070888,30.683942 C13.5534141,29.305868 13.3725782,28.269352 13.3131634,27.928786 C13.3076106,27.896856 13.30323,27.871622 13.299775,27.853394 C13.2235784,27.452316 12.8562305,27.424292 12.3282836,27.50545 C12.1087634,27.539178 11.4406394,27.641912 11.5042497,28.124954 L11.5057921,28.13599 C11.6826793,29.25416 11.9951163,30.350568 12.4345887,31.394648 C13.1409035,33.07274 14.151758,34.579464 15.4391413,35.873032 C16.7265247,37.166786 18.2259629,38.182594 19.8958101,38.892246 C21.6245785,39.627318 23.4609476,40 25.3538318,40 C27.2457289,40 29.0821597,39.627132 30.8119153,38.891688 C32.4812071,38.182284 33.9806454,37.16629 35.2686457,35.871916 C35.2716072,35.86894 35.3419425,35.798818 35.3804419,35.756658 C35.5221614,35.601596 35.645495,35.330284 35.0828741,34.76658 L35.0828741,34.76658 Z M25.3363714,12.321402 C23.5276428,12.321402 21.6036013,12.688318 20.1899845,13.3028 C20.0388869,13.362258 19.9485616,13.484212 19.9286949,13.65558 C19.9101239,13.817214 19.9535591,14.030494 20.0616534,14.308006 C20.1493257,14.533128 20.3821727,15.131118 20.8329975,14.958324 C22.2797459,14.403734 23.8790727,14.098322 25.3363714,14.098322 C26.9877092,14.098322 28.5891954,14.42314 30.0964692,15.063724 C31.2940825,15.572868 32.4241368,16.308312 33.6527223,17.378122 C33.7423073,17.45618 33.8373834,17.495736 33.9352976,17.495736 C34.1748079,17.495736 34.40457,17.259268 34.601077,17.03768 C34.9291235,16.66785 35.1544433,16.360454 34.8312093,16.05281 C33.6579666,14.935942 32.3723108,14.101608 30.7852002,13.427172 C29.0591465,12.693464 27.2258622,12.321402 25.3363714,12.321402 L25.3363714,12.321402 Z M22.8705627,27.689652 C22.8727221,27.895058 23.0597894,28.075168 23.1715239,28.1828 L23.2066299,28.216838 C23.3982628,28.406248 23.5808262,28.502286 23.7491374,28.502286 C23.8885124,28.502286 23.9743955,28.43607 24.0048125,28.407612 C24.0892149,28.32881 25.0441096,27.356526 25.135237,27.263774 L26.2001386,28.330422 C26.2987315,28.442022 26.4059003,28.497946 26.5307764,28.501418 C26.7008151,28.501418 26.8861549,28.3998 27.0815514,28.199416 C27.5410755,27.727906 27.3111284,27.473644 27.1999492,27.35076 L26.1209805,26.266132 L27.2462224,25.127378 C27.4929514,24.859042 27.2750969,24.573904 27.0577361,24.355478 C26.7421526,24.038286 26.4376746,23.956446 26.2424632,24.137176 L25.1236378,25.263468 L23.9921645,24.12614 C23.9321943,24.068418 23.856553,24.037914 23.7734463,24.037914 C23.6226572,24.037914 23.4442893,24.140338 23.2431549,24.342458 C22.8951801,24.692076 22.8205876,24.933752 23.0016702,25.126572 L24.1334521,26.260428 L23.0083336,27.393044 C22.9157871,27.48592 22.8694522,27.585678 22.8705627,27.689652 L22.8705627,27.689652 Z M15.6956185,29.36886 C15.7024052,29.387646 15.8622022,29.831752 15.9548104,30.051852 C16.4631374,31.259674 17.1911081,32.344612 18.1184856,33.276596 C19.0452461,34.207774 20.1250169,34.93925 21.3279361,35.450502 C22.57318,35.979858 23.8956693,36.248256 25.258694,36.248256 C26.6214719,36.248256 27.9439613,35.979796 29.1894519,35.450378 C30.3918776,34.939312 31.47171,34.207774 32.3988408,33.2761 C33.3259098,32.344612 34.0538188,31.259488 34.562516,30.051046 C35.0892906,28.799514 35.3563798,27.470482 35.3563798,26.100964 C35.3563798,24.731384 35.0892906,23.402352 34.562516,22.150944 C34.0539422,20.942564 33.3259715,19.85744 32.3988408,18.925766 C31.4720185,17.99434 30.3921861,17.262802 29.1894519,16.751488 C27.9440847,16.222132 26.6215953,15.953734 25.258694,15.953734 C23.8796279,15.953734 22.5016724,16.229572 21.2737039,16.751488 C20.2921558,17.168748 18.6307612,18.24296 17.6582827,19.250832 L17.6525449,19.256722 L17.6525449,10.905694 L31.6122573,10.90557 C32.1202758,10.89999 32.1202758,10.187114 32.1202758,9.952816 C32.1202758,9.718642 32.1202758,9.005952 31.6107149,9.000124 L16.5165675,9 C16.1056611,9 15.8512817,9.34348 15.8512817,9.661726 L15.8512817,21.416244 C15.8512817,21.795436 16.3213562,22.06929 16.7581139,22.163158 C17.611084,22.346244 17.8081464,22.072266 18.0170546,21.782354 L18.0447569,21.743914 C18.3636721,21.267816 19.3602744,20.259882 19.3702694,20.249838 C20.925544,18.686942 23.0051253,17.826258 25.2258092,17.826258 C27.435881,17.826258 29.5095394,18.686942 31.064814,20.249838 C32.6253329,21.818128 33.4847813,23.896058 33.4847813,26.100964 C33.4847813,28.313868 32.6297751,30.391736 31.0771535,31.951966 C29.5443986,33.492232 27.4031196,34.375608 25.2024875,34.375608 C23.7119337,34.375608 22.2731443,33.976514 21.0406718,33.22123 L21.0459161,26.073994 C21.0459161,25.120992 21.4575012,24.085034 22.1467875,23.302718 C22.9349134,22.408368 24.021039,21.91584 25.2052022,21.91584 C26.3519766,21.91584 27.4229862,22.353312 28.2210455,23.147718 C29.0133668,23.936482 29.4496926,24.98732 29.4496926,26.10673 C29.4496926,28.495156 27.5807471,30.366068 25.1948986,30.366068 C24.7349426,30.366068 23.8988159,30.16184 23.8644503,30.153408 C23.382715,30.009258 23.1777554,30.681338 23.1103198,30.902864 C22.8510046,31.754806 23.240687,31.923694 23.3214492,31.948928 C24.0892149,32.188372 24.5926678,32.233756 25.2530795,32.233756 C28.6212165,32.233756 31.3613329,29.478786 31.3613329,26.092594 C31.3613329,22.733558 28.6228823,20.000722 25.2568431,20.000722 C23.6084667,20.000722 22.0599172,20.633928 20.8965461,21.783656 C19.7886412,22.878638 19.1531553,24.338614 19.1531553,25.788918 L19.1525384,25.82494 C19.1471707,26.005794 19.1436539,30.290428 19.142605,31.696526 L19.1363119,31.68952 C18.5032322,30.985076 17.8774945,29.906772 17.4626395,28.805094 C17.3000044,28.373326 16.9326566,28.449772 16.4313631,28.604896 C16.2124598,28.672662 15.5462485,28.878874 15.6935825,29.362846 L15.6956185,29.36886 L15.6956185,29.36886 Z" id="500px_mark_dark" fill="#FFFFFF"></path>
            </g>
        </g>
    </g>
</svg>