<?xml version="1.0" standalone="no"?>
<!DOCTYPE svg PUBLIC "-//W3C//DTD SVG 1.1//EN" "http://www.w3.org/Graphics/SVG/1.1/DTD/svg11.dtd" >
<svg xmlns="http://www.w3.org/2000/svg" width="100%" height="100%">
<metadata>
Created by FontXChange 20110222 at Sat Mar 14 14:18:21 2015
 By Bradley Siefert
Copyright (C) 2004 Hoefler &#38; Frere-Jones Typography, Inc. www.typography.com
</metadata>
<defs>
<font id="WhitneyHTF-Light" horiz-adv-x="457" >
  <font-face 
    font-family="Whitney HTF"
    font-weight="200"
    font-stretch="normal"
    units-per-em="1000"
    panose-1="2 0 3 3 0 0 0 0 0 0"
    ascent="800"
    descent="-200"
    x-height="470"
    cap-height="690"
    bbox="-74 -200 979 928"
    underline-thickness="20"
    underline-position="-133"
    stemh="43"
    stemv="48"
    unicode-range="U+0020-FFFD"
  />
<missing-glyph horiz-adv-x="500" 
 />
    <glyph glyph-name=".notdef" unicode="&#xfffd;" horiz-adv-x="500" 
 />
    <glyph glyph-name="space" unicode=" " horiz-adv-x="230" 
 />
    <glyph glyph-name="exclam" unicode="!" horiz-adv-x="264" 
d="M161 690l-16 -505l-26 -6l-16 511h58zM162 0h-60v81h60v-81z" />
    <glyph glyph-name="quotedbl" unicode="&#x22;" horiz-adv-x="369" 
d="M294 676l-19 -184l-25 5l-19 179h63zM137 676l-18 -184l-26 5l-18 179h62z" />
    <glyph glyph-name="numbersign" unicode="#" horiz-adv-x="637" 
d="M195 186l-30 -193l-38 8l29 185h-110v41h117l35 222h-125l-6 41h137l30 188h38l-29 -188h198l31 193l38 -8l-29 -185h110v-41h-117l-35 -222h125l6 -41h-137l-30 -188h-39l30 188h-199zM236 449l-34 -222h198l35 222h-199z" />
    <glyph glyph-name="dollar" unicode="$" horiz-adv-x="543" 
d="M343 674c38 -5 74 -16 104 -28l-8 -44c-31 14 -67 25 -102 32l-42 -267c126 -46 178 -93 178 -184c0 -110 -83 -187 -212 -187c-8 0 -16 0 -24 1l-19 -121l-35 8l18 116c-49 7 -94 22 -137 39l7 45c40 -19 87 -36 137 -44l46 297c-112 39 -177 79 -177 175
c0 101 77 168 198 168c11 0 22 0 32 -1c1 0 12 76 12 76l36 -9zM243 36c7 -1 15 -1 23 -1c105 0 164 65 164 143c0 66 -30 108 -141 148zM302 639c-11 2 -21 2 -31 2c-99 0 -150 -56 -150 -127c0 -72 45 -101 140 -136z" />
    <glyph glyph-name="percent" unicode="%" horiz-adv-x="864" 
d="M363 501c0 -112 -63 -183 -147 -183c-85 0 -148 71 -148 183c0 111 63 183 148 183c84 0 147 -72 147 -183zM667 674l-434 -681l-38 9l434 681zM319 501c0 83 -40 146 -104 146c-65 0 -103 -63 -103 -146c0 -84 40 -146 105 -146c64 0 102 62 102 146zM796 175
c0 -112 -63 -183 -147 -183c-85 0 -148 71 -148 183c0 111 63 183 148 183c84 0 147 -72 147 -183zM752 175c0 83 -40 146 -104 146c-65 0 -103 -63 -103 -146c0 -84 40 -146 105 -146c64 0 102 62 102 146z" />
    <glyph glyph-name="ampersand" unicode="&#x26;" horiz-adv-x="685" 
d="M662 6l-51 -12l-119 119c-59 -81 -137 -123 -228 -123c-129 0 -212 81 -212 187c0 107 72 169 169 211c-50 54 -75 95 -75 157c0 88 68 155 174 155c57 0 109 -16 157 -44l-11 -49c-52 33 -102 50 -148 50c-77 0 -122 -48 -122 -109c0 -53 22 -89 78 -146l211 -217
c29 56 51 127 64 218l47 -10c-17 -97 -43 -178 -79 -240zM461 145l-208 211c-96 -37 -152 -96 -152 -177c0 -83 68 -146 163 -146c76 0 145 35 197 112z" />
    <glyph glyph-name="quotesingle" unicode="'" horiz-adv-x="212" 
d="M137 676l-18 -184l-26 5l-18 179h62z" />
    <glyph glyph-name="parenleft" unicode="(" horiz-adv-x="392" 
d="M338 -87l-50 -10c-123 108 -213 233 -213 406c0 177 88 312 253 418l9 -44c-142 -97 -213 -211 -213 -375c0 -157 80 -280 214 -395z" />
    <glyph glyph-name="parenright" unicode=")" horiz-adv-x="392" 
d="M317 317c0 -177 -88 -312 -253 -418l-9 44c142 97 213 211 213 375c0 157 -80 280 -214 395l50 10c123 -108 213 -233 213 -406z" />
    <glyph glyph-name="asterisk" unicode="*" horiz-adv-x="410" 
d="M355 581l-122 -50l70 -116l-11 -7l-87 104l-87 -104l-11 7l69 116l-121 50l4 13l128 -30l11 133h14l11 -133l128 30z" />
    <glyph glyph-name="plus" unicode="+" horiz-adv-x="568" 
d="M508 319h-203v-205h-41v205h-204v38h204v205h41v-205h203v-38z" />
    <glyph glyph-name="comma" unicode="," horiz-adv-x="212" 
d="M151 81l-89 -214l-25 6l53 208h61z" />
    <glyph glyph-name="hyphen" unicode="-" horiz-adv-x="372" 
d="M306 257h-240v50h240v-50z" />
    <glyph glyph-name="period" unicode="." horiz-adv-x="212" 
d="M136 0h-60v81h60v-81z" />
    <glyph glyph-name="slash" unicode="/" horiz-adv-x="501" 
d="M480 686l-472 -808l-42 9l472 808z" />
    <glyph glyph-name="zero" unicode="0" horiz-adv-x="613" 
d="M546 339c0 -207 -89 -352 -240 -352s-239 144 -239 350s89 352 240 352s239 -144 239 -350zM497 338c0 177 -65 309 -190 309c-126 0 -191 -132 -191 -309s65 -309 191 -309c125 0 190 132 190 309z" />
    <glyph glyph-name="one" unicode="1" horiz-adv-x="354" 
d="M238 0h-47v626l-149 -63l-7 40l169 77h34v-680z" />
    <glyph glyph-name="two" unicode="2" horiz-adv-x="536" 
d="M469 0h-414v32l248 269c81 88 105 137 105 207c0 86 -55 139 -143 139c-70 0 -131 -35 -185 -81l-8 49c51 41 114 74 195 74c120 0 190 -72 190 -178c0 -84 -34 -144 -117 -233l-221 -237h344z" />
    <glyph glyph-name="three" unicode="3" horiz-adv-x="531" 
d="M460 181c0 -112 -94 -194 -220 -194c-75 0 -140 22 -186 53l8 48c59 -40 108 -59 180 -59c103 0 169 64 169 151c0 93 -65 156 -206 156h-29l-5 43h41c120 0 186 57 186 142c0 73 -50 126 -144 126c-72 0 -131 -28 -183 -66l-6 46c52 37 113 62 191 62
c125 0 191 -74 191 -166c0 -91 -63 -140 -133 -163c88 -26 146 -82 146 -179z" />
    <glyph glyph-name="four" unicode="4" horiz-adv-x="596" 
d="M557 166h-114v-166h-45v166h-353v31l339 483h59v-474h114v-40zM398 206v423l-298 -423h298z" />
    <glyph glyph-name="five" unicode="5" horiz-adv-x="540" 
d="M476 205c0 -133 -109 -217 -237 -217c-77 0 -135 20 -181 47l7 48c53 -32 103 -53 176 -53c96 0 185 60 185 173c0 98 -62 158 -174 158c-58 0 -98 -12 -135 -27l-27 7l23 335h328l7 -42h-294l-18 -252c32 12 69 21 118 21c137 0 222 -74 222 -198z" />
    <glyph glyph-name="six" unicode="6" horiz-adv-x="572" 
d="M121 334c62 44 124 68 192 68c121 0 202 -77 202 -198c0 -132 -91 -217 -212 -217c-135 0 -233 115 -233 287c0 225 133 353 341 417l7 -46c-177 -52 -277 -155 -297 -311zM118 285v-8c0 -145 78 -249 186 -249c99 0 161 70 161 174c0 91 -54 158 -157 158
c-70 0 -133 -32 -190 -75z" />
    <glyph glyph-name="seven" unicode="7" horiz-adv-x="535" 
d="M474 643l-287 -650l-45 11l278 630h-359l-6 42h419v-33z" />
    <glyph glyph-name="eight" unicode="8" horiz-adv-x="573" 
d="M316 369c76 36 122 89 122 153c0 71 -60 126 -147 126c-97 0 -149 -64 -149 -125c0 -71 37 -111 174 -154zM261 343c-89 -37 -146 -96 -146 -172c0 -86 72 -143 175 -143c89 0 168 57 168 145c0 78 -44 120 -197 170zM216 359c-70 30 -123 80 -123 163
c0 93 84 167 200 167s194 -73 194 -163c0 -80 -55 -134 -126 -173c91 -35 146 -92 146 -180c0 -109 -97 -186 -219 -186c-133 0 -222 79 -222 181c0 86 56 147 150 191z" />
    <glyph glyph-name="nine" unicode="9" horiz-adv-x="572" 
d="M450 331c-62 -42 -123 -65 -190 -65c-119 0 -202 78 -202 205c0 122 81 218 212 218c138 0 232 -115 232 -287c0 -225 -135 -359 -350 -417l-8 45c182 42 284 148 306 301zM455 381v18c0 149 -79 249 -185 249c-103 0 -163 -74 -163 -175c0 -96 56 -165 158 -165
c65 0 133 29 190 73z" />
    <glyph glyph-name="colon" unicode=":" horiz-adv-x="220" 
d="M140 390h-60v80h60v-80zM140 0h-60v81h60v-81z" />
    <glyph glyph-name="semicolon" unicode=";" horiz-adv-x="220" 
d="M146 390h-60v80h60v-80zM143 81l-89 -214l-25 6l53 208h61z" />
    <glyph glyph-name="less" unicode="&#x3c;" horiz-adv-x="568" 
d="M489 94l-431 225v38l431 225v-46l-382 -197l382 -198v-47z" />
    <glyph glyph-name="equal" unicode="=" horiz-adv-x="615" 
d="M535 425h-455v43h455v-43zM535 208h-455v43h455v-43z" />
    <glyph glyph-name="greater" unicode="&#x3e;" horiz-adv-x="568" 
d="M510 319l-431 -225v46l383 197l-383 198v47l431 -225v-38z" />
    <glyph glyph-name="question" unicode="?" horiz-adv-x="482" 
d="M424 539c0 -101 -67 -154 -175 -215l-10 -139l-32 -7l-11 166l17 9c128 68 162 115 162 184c0 76 -55 123 -142 123c-64 0 -124 -25 -177 -67l-7 46c47 36 113 64 186 64c109 0 189 -62 189 -164zM253 0h-60v81h60v-81z" />
    <glyph glyph-name="at" unicode="@" horiz-adv-x="845" 
d="M499 198l29 185c-22 10 -42 16 -68 16c-84 0 -162 -79 -162 -209c0 -64 27 -98 64 -98c39 0 77 32 137 106zM495 148c-50 -60 -90 -93 -140 -93c-55 0 -99 50 -99 133c0 146 96 248 207 248c40 0 80 -13 110 -28l-32 -207c-2 -10 -4 -26 -4 -49c0 -38 20 -71 72 -71
c73 0 145 81 145 237c0 174 -100 280 -286 280c-212 0 -379 -166 -379 -415c0 -197 112 -298 293 -298c79 0 157 17 214 47l4 -24c-54 -28 -136 -48 -222 -48c-201 0 -318 115 -318 322c0 260 178 441 411 441c200 0 311 -118 311 -304c0 -172 -87 -265 -178 -265
c-66 0 -105 38 -109 94z" />
    <glyph glyph-name="A" unicode="A" horiz-adv-x="694" 
d="M647 4l-48 -11l-95 243h-316l-91 -236h-50l274 694h52zM488 279l-142 361l-140 -361h282z" />
    <glyph glyph-name="B" unicode="B" horiz-adv-x="549" 
d="M490 196c0 -126 -98 -196 -236 -196h-154v690h154c134 0 205 -66 205 -167c0 -76 -46 -131 -110 -157c86 -23 141 -76 141 -170zM410 521c0 79 -55 126 -158 126h-104v-265h105c104 0 157 64 157 139zM441 191c0 105 -76 150 -187 150h-106v-298h110
c111 0 183 57 183 148z" />
    <glyph glyph-name="C" unicode="C" horiz-adv-x="650" 
d="M585 58c-52 -40 -126 -71 -211 -71c-181 0 -309 144 -309 357c0 210 130 359 317 359c74 0 140 -24 192 -60l-9 -50c-57 41 -117 67 -184 67c-163 0 -266 -130 -266 -314c0 -185 104 -316 263 -316c75 0 144 30 200 74z" />
    <glyph glyph-name="D" unicode="D" horiz-adv-x="699" 
d="M634 346c0 -217 -148 -346 -359 -346h-175v690h178c221 0 356 -137 356 -344zM584 345c0 196 -124 302 -307 302h-129v-604h132c182 0 304 103 304 302z" />
    <glyph glyph-name="E" unicode="E" horiz-adv-x="505" 
d="M459 0h-359v690h349v-43h-301v-264h242l6 -43h-248v-297h311v-43z" />
    <glyph glyph-name="F" unicode="F" horiz-adv-x="477" 
d="M435 647h-287v-275h233l7 -43h-240v-329h-48v690h335v-43z" />
    <glyph glyph-name="G" unicode="G" horiz-adv-x="691" 
d="M602 59c-67 -45 -135 -72 -222 -72c-191 0 -315 147 -315 357s129 359 310 359c80 0 147 -22 200 -60l-9 -52c-52 42 -114 69 -192 69c-156 0 -259 -127 -259 -315c0 -187 102 -315 267 -315c69 0 122 18 172 51v226h-172l-7 43h227v-291z" />
    <glyph glyph-name="H" unicode="H" horiz-adv-x="707" 
d="M607 0h-48v340h-411v-340h-48v690h48v-307h411v307h48v-690z" />
    <glyph glyph-name="I" unicode="I" horiz-adv-x="264" 
d="M156 0h-48v690h48v-690z" />
    <glyph glyph-name="J" unicode="J" horiz-adv-x="359" 
d="M262 166c0 -116 -68 -172 -164 -172c-22 0 -44 3 -60 7l-7 46c20 -6 45 -10 68 -10c72 0 115 42 115 124v529h48v-524z" />
    <glyph glyph-name="K" unicode="K" horiz-adv-x="603" 
d="M580 5l-54 -12l-378 368v-361h-48v690h48v-318l348 318h64l-356 -321z" />
    <glyph glyph-name="L" unicode="L" horiz-adv-x="465" 
d="M435 0h-335v690h48v-647h280z" />
    <glyph glyph-name="M" unicode="M" horiz-adv-x="913" 
d="M828 0h-48l-47 621l-257 -625h-40l-257 625l-47 -621h-46l56 690h59l256 -631l257 631h58z" />
    <glyph glyph-name="N" unicode="N" horiz-adv-x="707" 
d="M607 0h-38l-423 617v-617h-46v690h49l412 -600v600h46v-690z" />
    <glyph glyph-name="O" unicode="O" horiz-adv-x="744" 
d="M679 346c0 -210 -131 -359 -308 -359s-306 148 -306 357c0 210 131 359 308 359s306 -148 306 -357zM629 344c0 186 -105 316 -258 316c-152 0 -256 -130 -256 -314c0 -186 105 -316 258 -316c152 0 256 130 256 314z" />
    <glyph glyph-name="P" unicode="P" horiz-adv-x="530" 
d="M480 500c0 -131 -102 -200 -236 -200h-96v-300h-48v690h160c133 0 220 -69 220 -190zM430 498c0 98 -61 149 -174 149h-108v-304h98c114 0 184 52 184 155z" />
    <glyph glyph-name="Q" unicode="Q" horiz-adv-x="747" 
d="M679 346c0 -190 -104 -329 -259 -353l232 -90l-8 -49l-355 142c-134 54 -224 155 -224 348c0 210 131 359 308 359s306 -148 306 -357zM629 343c0 188 -105 317 -258 317s-256 -127 -256 -315s105 -317 258 -317s256 128 256 315z" />
    <glyph glyph-name="R" unicode="R" horiz-adv-x="564" 
d="M430 506c0 91 -60 141 -167 141h-115v-288h102c110 0 180 51 180 147zM304 322c0 1 232 -318 232 -318l-50 -11l-235 324h-103v-317h-48v690h166c129 0 214 -67 214 -182c0 -108 -78 -169 -176 -186z" />
    <glyph glyph-name="S" unicode="S" horiz-adv-x="512" 
d="M454 178c0 -117 -97 -186 -211 -186c-80 0 -138 19 -176 41l7 49c39 -24 101 -47 172 -47c88 0 158 54 158 140c0 72 -40 113 -145 158c-134 57 -181 103 -181 199c0 98 83 166 188 166c64 0 115 -14 149 -34l-7 -48c-40 23 -85 39 -144 39c-83 0 -137 -53 -137 -121
c0 -72 39 -106 147 -152c123 -52 180 -105 180 -204z" />
    <glyph glyph-name="T" unicode="T" horiz-adv-x="566" 
d="M536 647h-225v-647h-48v647h-226v43h493z" />
    <glyph glyph-name="U" unicode="U" horiz-adv-x="674" 
d="M589 260c0 -161 -95 -270 -254 -270c-158 0 -250 111 -250 265v435h48v-428c0 -135 71 -229 204 -229c131 0 204 89 204 224v433h48v-430z" />
    <glyph glyph-name="V" unicode="V" horiz-adv-x="683" 
d="M636 690l-274 -694h-44l-271 690l47 11l247 -643l245 636h50z" />
    <glyph glyph-name="W" unicode="W" horiz-adv-x="1033" 
d="M979 690l-209 -692h-44l-211 626l-208 -626h-43l-209 688l48 11l186 -626l202 619h51l206 -619l183 619h48z" />
    <glyph glyph-name="X" unicode="X" horiz-adv-x="635" 
d="M290 361l-223 323l45 10l205 -299l198 295h52l-224 -330l244 -355l-45 -10l-225 332l-220 -327h-52z" />
    <glyph glyph-name="Y" unicode="Y" horiz-adv-x="621" 
d="M580 690l-246 -393v-297h-48v296l-245 391l48 10l222 -361l217 354h52z" />
    <glyph glyph-name="Z" unicode="Z" horiz-adv-x="610" 
d="M549 0h-484v32l420 617h-392l-6 41h457v-32l-420 -617h419z" />
    <glyph glyph-name="bracketleft" unicode="[" horiz-adv-x="405" 
d="M342 -106h-237v796h233v-39h-187v-718h185z" />
    <glyph glyph-name="backslash" unicode="\" horiz-adv-x="501" 
d="M535 -113l-42 -9l-472 808l42 9z" />
    <glyph glyph-name="bracketright" unicode="]" horiz-adv-x="405" 
d="M300 -106h-232v39h186v718h-184l-7 39h237v-796z" />
    <glyph glyph-name="asciicircum" unicode="^" 
d="M354 555l-26 -5l-100 93l-97 -91h-32l109 149h43z" />
    <glyph glyph-name="underscore" unicode="_" horiz-adv-x="476" 
d="M473 -106h-470v41h470v-41z" />
    <glyph glyph-name="grave" unicode="`" 
d="M308 552h-35l-138 140l69 15z" />
    <glyph glyph-name="a" unicode="a" horiz-adv-x="481" 
d="M404 0h-33l-11 63c-49 -43 -107 -73 -166 -73c-79 0 -142 40 -142 125c0 105 80 161 306 182v41c0 66 -39 98 -104 98c-54 0 -109 -15 -161 -42l-6 44c53 24 107 41 169 41c96 0 148 -49 148 -139v-340zM358 106v152c-194 -21 -258 -62 -258 -139c0 -60 43 -88 96 -88
c50 0 111 30 162 75z" />
    <glyph glyph-name="b" unicode="b" horiz-adv-x="524" 
d="M470 248c0 -171 -101 -254 -226 -254c-61 0 -116 14 -161 32v679l47 10v-312c36 41 82 77 148 77c104 0 192 -74 192 -232zM421 246c0 124 -60 191 -144 191c-56 0 -100 -33 -147 -86v-294c30 -12 69 -22 120 -22c94 0 171 66 171 211z" />
    <glyph glyph-name="c" unicode="c" horiz-adv-x="464" 
d="M417 47c-43 -36 -95 -57 -158 -57c-115 0 -207 90 -207 245c0 156 93 245 210 245c59 0 111 -21 152 -52l-9 -48c-47 40 -91 59 -145 59c-100 0 -159 -83 -159 -204c0 -118 57 -204 163 -204c51 0 98 18 147 60z" />
    <glyph glyph-name="d" unicode="d" horiz-adv-x="526" 
d="M443 0h-34l-12 69c-37 -43 -82 -79 -150 -79c-104 0 -193 74 -193 232c0 171 102 255 216 255c48 0 89 -9 126 -25v253l47 10v-715zM396 119v287c-37 19 -78 30 -125 30c-93 0 -168 -67 -168 -212c0 -123 61 -191 145 -191c57 0 102 34 148 86z" />
    <glyph glyph-name="e" unicode="e" horiz-adv-x="484" 
d="M432 245v-10h-332c0 -120 56 -204 161 -204c57 0 117 30 163 72l7 -44c-43 -39 -105 -69 -172 -69c-124 0 -207 92 -207 245c0 150 86 245 200 245c120 0 180 -105 180 -235zM382 274c-3 92 -48 167 -130 167c-89 0 -139 -69 -150 -167h280z" />
    <glyph glyph-name="f" unicode="f" horiz-adv-x="288" 
d="M269 670c-9 2 -17 3 -36 3c-48 0 -77 -24 -77 -82v-121h99l7 -40h-106v-430h-46v430h-73v40h73v123c0 81 43 123 121 123c15 0 22 0 31 -1z" />
    <glyph glyph-name="g" unicode="g" horiz-adv-x="501" 
d="M185 55c-74 -31 -109 -68 -109 -109c0 -57 74 -86 166 -86c99 0 168 41 168 94c0 43 -36 63 -133 82l-36 7c-23 5 -39 8 -56 12zM357 322c0 67 -51 121 -126 121c-74 0 -121 -51 -121 -121c0 -67 47 -121 123 -121c77 0 124 52 124 121zM348 440l116 38l9 -52l-100 -11
c20 -25 31 -57 31 -93c0 -98 -80 -158 -171 -158c-15 0 -31 2 -45 5c-27 -15 -38 -26 -38 -38c0 -21 21 -30 110 -47l36 -7c108 -21 161 -51 161 -117c0 -85 -98 -138 -219 -138c-120 0 -210 43 -210 122c0 47 39 93 114 128c-27 15 -40 31 -40 50c0 25 16 42 47 61
c-52 25 -87 74 -87 139c0 98 81 158 169 158c45 0 86 -14 117 -40z" />
    <glyph glyph-name="h" unicode="h" horiz-adv-x="520" 
d="M443 0h-47v327c0 71 -34 110 -101 110c-52 0 -106 -30 -165 -85v-352h-47v705l47 10v-315c57 49 108 80 170 80c97 0 143 -54 143 -147v-333z" />
    <glyph glyph-name="i" unicode="i" horiz-adv-x="225" 
d="M153 638c0 -21 -18 -41 -40 -41s-41 20 -41 41c0 22 19 40 41 40s40 -18 40 -40zM136 0h-46v470h46v-470z" />
    <glyph glyph-name="j" unicode="j" horiz-adv-x="225" 
d="M153 638c0 -21 -18 -41 -40 -41s-41 20 -41 41c0 22 19 40 41 40s40 -18 40 -40zM136 -83c0 -67 -41 -95 -92 -95c-11 0 -27 1 -36 2l-7 43c14 -2 23 -3 36 -3c33 0 53 16 53 58v548h46v-553z" />
    <glyph glyph-name="k" unicode="k" horiz-adv-x="454" 
d="M435 5l-51 -12l-254 259v-252h-47v705l47 10v-451l225 206h64l-236 -211z" />
    <glyph glyph-name="l" unicode="l" horiz-adv-x="226" 
d="M136 0h-46v705l46 10v-715z" />
    <glyph glyph-name="m" unicode="m" horiz-adv-x="822" 
d="M745 0h-47v327c0 71 -31 110 -99 110c-50 0 -103 -29 -162 -83v-354h-46v327c0 71 -31 110 -99 110c-50 0 -104 -29 -162 -82v-355h-47v470h34l12 -68c56 48 107 78 168 78c74 0 116 -30 132 -85c59 52 112 85 176 85c97 0 140 -54 140 -147v-333z" />
    <glyph glyph-name="n" unicode="n" horiz-adv-x="520" 
d="M443 0h-47v327c0 71 -34 110 -101 110c-52 0 -106 -30 -165 -85v-352h-47v470h34l12 -71c57 50 109 81 171 81c97 0 143 -55 143 -149v-331z" />
    <glyph glyph-name="o" unicode="o" horiz-adv-x="519" 
d="M467 235c0 -155 -93 -245 -208 -245c-117 0 -207 90 -207 245c0 156 93 245 207 245c118 0 208 -89 208 -245zM418 235c0 118 -57 204 -159 204s-158 -83 -158 -204c0 -118 57 -204 158 -204c102 0 159 82 159 204z" />
    <glyph glyph-name="p" unicode="p" horiz-adv-x="526" 
d="M472 248c0 -171 -102 -254 -216 -254c-47 0 -89 9 -126 24v-189l-47 -10v651h34l12 -68c38 43 82 78 150 78c104 0 193 -74 193 -232zM423 246c0 124 -61 191 -145 191c-57 0 -101 -33 -148 -86v-287c37 -18 78 -29 125 -29c94 0 168 67 168 211z" />
    <glyph glyph-name="q" unicode="q" horiz-adv-x="524" 
d="M441 -171l-47 -10v249c-35 -41 -82 -78 -148 -78c-103 0 -192 74 -192 232c0 171 102 255 226 255c61 0 116 -15 161 -32v-616zM394 119v295c-30 11 -69 22 -120 22c-94 0 -171 -66 -171 -212c0 -123 61 -191 144 -191c56 0 101 34 147 86z" />
    <glyph glyph-name="r" unicode="r" horiz-adv-x="332" 
d="M306 436c-77 -5 -144 -64 -176 -127v-309h-47v470h31l15 -98c36 53 91 107 169 108z" />
    <glyph glyph-name="s" unicode="s" horiz-adv-x="434" 
d="M382 124c0 -85 -69 -132 -167 -132c-63 0 -125 19 -167 42l9 46c44 -25 101 -46 163 -46c70 0 116 31 116 86c0 49 -29 74 -130 102c-99 27 -144 61 -144 133s62 124 155 124c53 0 100 -13 138 -32l-8 -45c-43 22 -87 34 -132 34c-74 0 -107 -35 -107 -78
c0 -44 28 -66 112 -89c107 -29 162 -66 162 -145z" />
    <glyph glyph-name="t" unicode="t" horiz-adv-x="324" 
d="M280 2c-12 -5 -38 -10 -64 -10c-67 0 -111 28 -111 107v331h-73v40h73v167l47 10v-177h115l6 -40h-121v-323c0 -55 22 -74 74 -74c15 0 36 4 47 7z" />
    <glyph glyph-name="u" unicode="u" horiz-adv-x="520" 
d="M437 0h-34l-12 71c-57 -50 -109 -81 -171 -81c-97 0 -143 55 -143 149v331h47v-327c0 -71 34 -110 101 -110c52 0 106 30 165 85v352h47v-470z" />
    <glyph glyph-name="v" unicode="v" horiz-adv-x="468" 
d="M433 470l-179 -475h-43l-176 470l47 10l152 -423l150 418h49z" />
    <glyph glyph-name="w" unicode="w" horiz-adv-x="736" 
d="M701 470l-160 -475h-43l-128 410l-128 -410h-43l-160 473l46 10l136 -426l129 421h43l129 -421l131 418h48z" />
    <glyph glyph-name="x" unicode="x" horiz-adv-x="468" 
d="M428 4l-46 -11l-149 215l-141 -208h-52l168 242l-158 224l47 12l137 -200l134 192h52l-160 -226z" />
    <glyph glyph-name="y" unicode="y" horiz-adv-x="477" 
d="M442 470l-206 -542c-29 -78 -63 -106 -126 -106c-8 0 -16 1 -22 2l-7 41c7 0 16 -1 30 -1c41 0 63 17 83 69l25 64l-183 468l46 10l160 -422l151 417h49z" />
    <glyph glyph-name="z" unicode="z" horiz-adv-x="447" 
d="M399 0h-353v36l294 395h-270l-6 39h331v-35l-294 -396h292z" />
    <glyph glyph-name="braceleft" unicode="{" horiz-adv-x="463" 
d="M400 -106h-80c-98 0 -143 45 -143 130c0 46 12 90 12 139c0 83 -48 110 -112 110h-25l-5 37h30c65 0 112 26 112 110c0 48 -12 91 -12 138c0 85 45 132 143 132h75v-39h-77c-67 0 -96 -35 -96 -92c0 -41 13 -94 13 -138c0 -82 -41 -115 -101 -128v-2
c60 -15 101 -46 101 -129c0 -44 -13 -98 -13 -139c0 -57 26 -90 95 -90h76z" />
    <glyph glyph-name="bar" unicode="|" horiz-adv-x="268" 
d="M155 -184l-42 -7v907l42 7v-907z" />
    <glyph glyph-name="braceright" unicode="}" horiz-adv-x="463" 
d="M416 274h-30c-65 0 -112 -26 -112 -110c0 -49 12 -92 12 -138c0 -85 -45 -132 -143 -132h-75v39h77c67 0 96 35 96 92c0 41 -13 94 -13 138c0 82 41 115 101 128v2c-60 14 -101 46 -101 129c0 44 13 98 13 139c0 57 -26 90 -95 90h-76l-7 39h80c98 0 143 -45 143 -130
c0 -46 -12 -91 -12 -139c0 -83 48 -110 112 -110h25z" />
    <glyph glyph-name="asciitilde" unicode="~" horiz-adv-x="408" 
d="M347 321c-11 -60 -37 -93 -71 -93c-28 0 -44 8 -79 27c-32 18 -47 26 -63 26c-17 0 -30 -17 -39 -54l-34 7c11 61 37 94 71 94c28 0 44 -9 79 -28c32 -17 47 -26 63 -26c17 0 30 18 39 54z" />
    <glyph glyph-name="nbspace" unicode="&#xa0;" horiz-adv-x="115" 
 />
    <glyph glyph-name="exclamdown" unicode="&#xa1;" horiz-adv-x="264" 
d="M162 609h-60v81h60v-81zM161 0h-58l16 505l26 6z" />
    <glyph glyph-name="cent" unicode="&#xa2;" horiz-adv-x="495" 
d="M248 98c0 1 -18 -108 -18 -108l-34 8l18 108c-84 26 -150 107 -150 230c0 144 96 241 220 241h3l17 108l35 -8l-17 -103c40 -7 77 -22 106 -44l-9 -41c-34 25 -67 42 -102 48l-64 -402c8 -1 15 -1 23 -1c50 0 100 19 149 54l6 -39c-43 -30 -98 -52 -159 -52
c-8 0 -16 0 -24 1zM219 144l62 396c-108 -2 -173 -83 -173 -204c0 -94 43 -167 111 -192z" />
    <glyph glyph-name="sterling" unicode="&#xa3;" horiz-adv-x="550" 
d="M173 353l49 161c35 114 91 175 195 175c29 0 50 -4 75 -10l-7 -42c-23 6 -44 9 -73 9c-80 0 -118 -47 -147 -143l-46 -150h192l6 -42h-211l-82 -270h365l6 -41h-421v29l86 282h-86v42h99z" />
    <glyph glyph-name="yen" unicode="&#xa5;" horiz-adv-x="620" 
d="M332 256v-104h167v-38h-167v-114h-43v114h-166l-7 38h173v104h-170v38h165l-225 376l44 13l209 -359l203 352h50l-229 -382h159l7 -38h-170z" />
    <glyph glyph-name="Scaron" unicode="&#x160;" horiz-adv-x="512" 
d="M454 178c0 -117 -97 -186 -211 -186c-80 0 -138 19 -176 41l7 49c39 -24 101 -47 172 -47c88 0 158 54 158 140c0 72 -40 113 -145 158c-134 57 -181 103 -181 199c0 98 83 166 188 166c64 0 115 -14 149 -34l-7 -48c-40 23 -85 39 -144 39c-83 0 -137 -53 -137 -121
c0 -72 39 -106 147 -152c123 -52 180 -105 180 -204zM386 902l-109 -149h-43l-104 145l26 6l101 -96l97 94h32z" />
    <glyph glyph-name="section" unicode="&#xa7;" horiz-adv-x="575" 
d="M508 350c0 -38 -17 -67 -36 -88l-41 9c18 20 32 46 32 76c0 40 -30 62 -102 83l-94 27c-97 28 -136 54 -136 114c0 66 67 113 158 113c56 0 96 -8 147 -28l-8 -45c-45 21 -92 32 -143 32c-70 0 -107 -30 -107 -70c0 -36 23 -52 104 -76l96 -28c78 -23 130 -55 130 -119z
M67 326c0 38 17 67 36 88l41 -9c-18 -20 -32 -46 -32 -76c0 -40 30 -62 102 -83l94 -27c97 -28 136 -54 136 -114c0 -66 -67 -113 -158 -113c-56 0 -96 8 -147 28l8 45c45 -21 92 -32 143 -32c70 0 107 30 107 70c0 36 -23 52 -104 76l-96 28c-78 23 -130 55 -130 119z" />
    <glyph glyph-name="scaron" unicode="&#x161;" horiz-adv-x="434" 
d="M382 124c0 -85 -69 -132 -167 -132c-63 0 -125 19 -167 42l9 46c44 -25 101 -46 163 -46c70 0 116 31 116 86c0 49 -29 74 -130 102c-99 27 -144 61 -144 133s62 124 155 124c53 0 100 -13 138 -32l-8 -45c-43 22 -87 34 -132 34c-74 0 -107 -35 -107 -78
c0 -44 28 -66 112 -89c107 -29 162 -66 162 -145zM344 701l-109 -149h-43l-104 145l26 6l101 -96l97 94h32z" />
    <glyph glyph-name="copyright" unicode="&#xa9;" horiz-adv-x="811" 
d="M749 345c0 -208 -134 -358 -343 -358c-208 0 -345 150 -345 358s135 358 343 358c209 0 345 -150 345 -358zM722 345c0 195 -124 334 -318 334c-195 0 -315 -139 -315 -334s123 -334 318 -334s315 139 315 334zM537 188c-34 -25 -77 -43 -126 -43
c-101 0 -174 84 -174 203c0 120 74 204 177 204c44 0 83 -14 117 -36l-8 -43c-36 28 -70 41 -110 41c-83 0 -134 -69 -134 -166c0 -96 53 -166 134 -166c42 0 79 16 119 47z" />
    <glyph glyph-name="ordfeminine" unicode="&#xaa;" horiz-adv-x="403" 
d="M313 361h-29l-7 38c-30 -25 -68 -44 -105 -44c-56 0 -95 31 -95 85c0 69 60 111 198 120v24c0 41 -24 62 -69 62c-33 0 -65 -9 -102 -26l-4 36c34 14 69 24 109 24c66 0 104 -32 104 -94v-225zM320 236h-240v37h234zM275 432v97c-122 -8 -160 -42 -160 -87
c0 -33 24 -54 61 -54c31 0 66 16 99 44z" />
    <glyph glyph-name="guillemotleft" unicode="&#xab;" horiz-adv-x="503" 
d="M443 470l-142 -234l140 -232l-31 -9l-168 241l166 234h35zM243 470l-141 -234l140 -232l-32 -9l-167 241l166 234h34z" />
    <glyph glyph-name="logicalnot" unicode="&#xac;" horiz-adv-x="568" 
d="M508 317h-448v42h448v-42z" />
    <glyph glyph-name="registered" unicode="&#xae;" horiz-adv-x="569" 
d="M511 465c0 -135 -91 -232 -226 -232c-136 0 -227 98 -227 234c0 134 91 231 227 231c135 0 226 -98 226 -233zM490 465c0 123 -83 213 -206 213s-204 -90 -204 -211c0 -124 82 -214 205 -214s205 90 205 212zM388 350l-34 -7l-78 109h-30v-107h-31v258h64
c54 0 88 -28 88 -74c0 -40 -26 -63 -57 -72zM336 527c0 30 -21 48 -59 48h-32v-96h31c36 0 60 17 60 48z" />
    <glyph glyph-name="macron" unicode="&#xaf;" 
d="M352 581h-247v51h247v-51z" />
    <glyph glyph-name="degree" unicode="&#xb0;" horiz-adv-x="428" 
d="M366 530c0 -87 -66 -152 -152 -152c-85 0 -152 65 -152 152c0 86 67 151 152 151c86 0 152 -65 152 -151zM325 530c0 64 -46 117 -112 117c-65 0 -110 -53 -110 -117c0 -65 47 -118 112 -118c66 0 110 53 110 118z" />
    <glyph glyph-name="plusminus" unicode="&#xb1;" horiz-adv-x="596" 
d="M557 166h-114v-166h-45v166h-353v30l341 486l45 -9l-329 -467h296v199l45 11v-210h114v-40z" />
    <glyph glyph-name="twosuperior" unicode="&#xb2;" horiz-adv-x="500" 
d="M25 -200v1000h450v-1000h-450z" />
    <glyph glyph-name="threesuperior" unicode="&#xb3;" horiz-adv-x="500" 
d="M25 -200v1000h450v-1000h-450z" />
    <glyph glyph-name="Zcaron" unicode="&#x17d;" horiz-adv-x="610" 
d="M549 0h-484v32l420 617h-392l-6 41h457v-32l-420 -617h419zM441 893l-109 -149h-43l-104 145l26 6l101 -96l97 94h32z" />
    <glyph glyph-name="paragraph" unicode="&#xb6;" horiz-adv-x="520" 
d="M412 0h-44v639h-92v-142l-27 -170c-122 5 -200 63 -200 178c0 109 77 171 202 171h161v-676z" />
    <glyph glyph-name="periodcentered" unicode="&#xb7;" horiz-adv-x="203" 
d="M132 242h-61v81h61v-81z" />
    <glyph glyph-name="zcaron" unicode="&#x17e;" horiz-adv-x="447" 
d="M399 0h-353v36l294 395h-270l-6 39h331v-35l-294 -396h292zM357 701l-109 -149h-43l-104 145l26 6l101 -96l97 94h32z" />
    <glyph glyph-name="onesuperior" unicode="&#xb9;" horiz-adv-x="500" 
d="M25 -200v1000h450v-1000h-450z" />
    <glyph glyph-name="ordmasculine" unicode="&#xba;" horiz-adv-x="403" 
d="M339 518c0 -91 -49 -163 -138 -163c-88 0 -138 72 -138 163c0 90 50 162 138 162c89 0 138 -72 138 -162zM330 236h-257v37h251zM299 518c0 68 -31 127 -98 127c-66 0 -98 -58 -98 -127s32 -128 98 -128c67 0 98 58 98 128z" />
    <glyph glyph-name="guillemotright" unicode="&#xbb;" horiz-adv-x="503" 
d="M460 234l-165 -234h-35l142 234l-140 233l31 8zM261 234l-166 -234h-35l142 234l-140 233l31 8z" />
    <glyph glyph-name="OE" unicode="&#x152;" horiz-adv-x="874" 
d="M828 0h-412c-220 0 -356 137 -356 344c0 217 149 346 359 346h399v-43h-298v-264h238l7 -43h-245v-297h308v-43zM472 43v604h-58c-182 0 -304 -103 -304 -302c0 -196 124 -302 307 -302h55z" />
    <glyph glyph-name="oe" unicode="&#x153;" horiz-adv-x="851" 
d="M797 245v-10h-332c0 -120 62 -204 160 -204c58 0 116 30 164 72l7 -44c-45 -38 -105 -69 -173 -69c-81 0 -152 48 -182 132c-31 -85 -101 -132 -184 -132c-115 0 -205 90 -205 245c0 156 93 245 205 245c85 0 154 -46 185 -132c30 83 95 132 177 132
c118 0 178 -105 178 -235zM748 274c-4 92 -49 167 -129 167c-89 0 -141 -69 -152 -167h281zM419 235c0 117 -61 204 -162 204c-100 0 -156 -83 -156 -204c0 -118 57 -204 156 -204c102 0 162 82 162 204z" />
    <glyph glyph-name="Ydieresis" unicode="&#x178;" horiz-adv-x="621" 
d="M580 690l-246 -393v-297h-48v296l-245 391l48 10l222 -361l217 354h52zM430 744h-70v79h70v-79zM263 744h-69v79h69v-79z" />
    <glyph glyph-name="questiondown" unicode="&#xbf;" horiz-adv-x="482" 
d="M289 609h-60v81h60v-81zM433 51c-47 -36 -113 -64 -186 -64c-109 0 -189 62 -189 164c0 101 67 154 175 215l10 139l32 7l11 -166l-17 -9c-128 -68 -162 -115 -162 -184c0 -76 55 -123 142 -123c64 0 124 25 177 67z" />
    <glyph glyph-name="Agrave" unicode="&#xc0;" horiz-adv-x="694" 
d="M647 4l-48 -11l-95 243h-316l-91 -236h-50l274 694h52zM488 279l-142 361l-140 -361h282zM366 744h-35l-138 140l69 15z" />
    <glyph glyph-name="Aacute" unicode="&#xc1;" horiz-adv-x="694" 
d="M502 884l-138 -140h-36l106 155zM647 4l-48 -11l-95 243h-316l-91 -236h-50l274 694h52zM488 279l-142 361l-140 -361h282z" />
    <glyph glyph-name="Acircumflex" unicode="&#xc2;" horiz-adv-x="694" 
d="M647 4l-48 -11l-95 243h-316l-91 -236h-50l274 694h52zM488 279l-142 361l-140 -361h282zM473 738l-26 -5l-100 95l-97 -93h-32l109 149h43z" />
    <glyph glyph-name="Atilde" unicode="&#xc3;" horiz-adv-x="694" 
d="M647 4l-48 -11l-95 243h-316l-91 -236h-50l274 694h52zM488 279l-142 361l-140 -361h282zM491 847c-10 -60 -38 -95 -72 -95c-28 0 -42 8 -78 27c-32 17 -45 27 -62 27c-16 0 -30 -18 -39 -55l-34 7c11 61 38 96 72 96c29 0 42 -9 78 -28c32 -17 46 -26 62 -26
c17 0 30 18 40 54z" />
    <glyph glyph-name="Adieresis" unicode="&#xc4;" horiz-adv-x="694" 
d="M647 4l-48 -11l-95 243h-316l-91 -236h-50l274 694h52zM488 279l-142 361l-140 -361h282zM466 753h-70v79h70v-79zM299 753h-69v79h69v-79z" />
    <glyph glyph-name="Aring" unicode="&#xc5;" horiz-adv-x="694" 
d="M647 4l-48 -11l-95 243h-316l-91 -236h-50l274 694h52zM488 279l-142 361l-140 -361h282zM441 834c0 -53 -40 -92 -93 -92s-94 39 -94 92c0 52 41 94 94 94s93 -42 93 -94zM407 834c0 36 -25 63 -59 63s-60 -27 -60 -63s26 -62 60 -62s59 26 59 62z" />
    <glyph glyph-name="AE" unicode="&#xc6;" horiz-adv-x="860" 
d="M814 0h-357v236h-249l-139 -236h-52l409 690h378v-43h-300v-264h241l6 -43h-247v-297h310v-43zM457 278v381l-225 -381h225z" />
    <glyph glyph-name="Ccedilla" unicode="&#xc7;" horiz-adv-x="650" 
d="M585 58c-52 -40 -126 -71 -211 -71c-181 0 -309 144 -309 357c0 210 130 359 317 359c74 0 140 -24 192 -60l-9 -50c-57 41 -117 67 -184 67c-163 0 -266 -130 -266 -314c0 -185 104 -316 263 -316c75 0 144 30 200 74zM410 -67l-121 -119h-34l90 135z" />
    <glyph glyph-name="Egrave" unicode="&#xc8;" horiz-adv-x="505" 
d="M459 0h-359v690h349v-43h-301v-264h242l6 -43h-248v-297h311v-43zM308 745h-35l-138 140l69 15z" />
    <glyph glyph-name="Eacute" unicode="&#xc9;" horiz-adv-x="505" 
d="M459 0h-359v690h349v-43h-301v-264h242l6 -43h-248v-297h311v-43zM400 885l-138 -140h-36l106 155z" />
    <glyph glyph-name="Ecircumflex" unicode="&#xca;" horiz-adv-x="505" 
d="M459 0h-359v690h349v-43h-301v-264h242l6 -43h-248v-297h311v-43zM396 748l-26 -5l-100 95l-97 -93h-32l109 149h43z" />
    <glyph glyph-name="Edieresis" unicode="&#xcb;" horiz-adv-x="505" 
d="M459 0h-359v690h349v-43h-301v-264h242l6 -43h-248v-297h311v-43zM389 754h-70v79h70v-79zM222 754h-69v79h69v-79z" />
    <glyph glyph-name="Igrave" unicode="&#xcc;" horiz-adv-x="264" 
d="M156 0h-48v690h48v-690zM151 744h-35l-138 140l69 15z" />
    <glyph glyph-name="Iacute" unicode="&#xcd;" horiz-adv-x="264" 
d="M287 884l-138 -140h-36l106 155zM156 0h-48v690h48v-690z" />
    <glyph glyph-name="Icircumflex" unicode="&#xce;" horiz-adv-x="264" 
d="M156 0h-48v690h48v-690zM258 738l-26 -5l-100 95l-97 -93h-32l109 149h43z" />
    <glyph glyph-name="Idieresis" unicode="&#xcf;" horiz-adv-x="264" 
d="M156 0h-48v690h48v-690zM251 753h-70v79h70v-79zM84 753h-69v79h69v-79z" />
    <glyph glyph-name="Eth" unicode="&#xd0;" horiz-adv-x="718" 
d="M653 346c0 -217 -148 -346 -358 -346h-176v341h-78l-7 42h85v307h178c221 0 356 -137 356 -344zM603 345c0 196 -124 302 -307 302h-129v-264h172v-42h-172v-298h132c182 0 304 103 304 302z" />
    <glyph glyph-name="Ntilde" unicode="&#xd1;" horiz-adv-x="707" 
d="M607 0h-38l-423 617v-617h-46v690h49l412 -600v600h46v-690zM499 838c-10 -60 -38 -95 -72 -95c-28 0 -42 8 -78 27c-32 17 -45 27 -62 27c-16 0 -30 -18 -39 -55l-34 7c11 61 38 96 72 96c29 0 42 -9 78 -28c32 -17 46 -26 62 -26c17 0 30 18 40 54z" />
    <glyph glyph-name="Ograve" unicode="&#xd2;" horiz-adv-x="744" 
d="M679 346c0 -210 -131 -359 -308 -359s-306 148 -306 357c0 210 131 359 308 359s306 -148 306 -357zM629 344c0 186 -105 316 -258 316c-152 0 -256 -130 -256 -314c0 -186 105 -316 258 -316c152 0 256 130 256 314zM398 753h-35l-138 140l69 15z" />
    <glyph glyph-name="Oacute" unicode="&#xd3;" horiz-adv-x="744" 
d="M520 893l-138 -140h-36l106 155zM679 346c0 -210 -131 -359 -308 -359s-306 148 -306 357c0 210 131 359 308 359s306 -148 306 -357zM629 344c0 186 -105 316 -258 316c-152 0 -256 -130 -256 -314c0 -186 105 -316 258 -316c152 0 256 130 256 314z" />
    <glyph glyph-name="Ocircumflex" unicode="&#xd4;" horiz-adv-x="744" 
d="M679 346c0 -210 -131 -359 -308 -359s-306 148 -306 357c0 210 131 359 308 359s306 -148 306 -357zM629 344c0 186 -105 316 -258 316c-152 0 -256 -130 -256 -314c0 -186 105 -316 258 -316c152 0 256 130 256 314zM495 752l-26 -5l-100 95l-97 -93h-32l109 149h43z
" />
    <glyph glyph-name="Otilde" unicode="&#xd5;" horiz-adv-x="744" 
d="M679 346c0 -210 -131 -359 -308 -359s-306 148 -306 357c0 210 131 359 308 359s306 -148 306 -357zM629 344c0 186 -105 316 -258 316c-152 0 -256 -130 -256 -314c0 -186 105 -316 258 -316c152 0 256 130 256 314zM512 861c-10 -60 -38 -95 -72 -95
c-28 0 -42 8 -78 27c-32 17 -45 27 -62 27c-16 0 -30 -18 -39 -55l-34 7c11 61 38 96 72 96c29 0 42 -9 78 -28c32 -17 46 -26 62 -26c17 0 30 18 40 54z" />
    <glyph glyph-name="Odieresis" unicode="&#xd6;" horiz-adv-x="744" 
d="M679 346c0 -210 -131 -359 -308 -359s-306 148 -306 357c0 210 131 359 308 359s306 -148 306 -357zM629 344c0 186 -105 316 -258 316c-152 0 -256 -130 -256 -314c0 -186 105 -316 258 -316c152 0 256 130 256 314zM488 762h-70v79h70v-79zM321 762h-69v79h69v-79z" />
    <glyph glyph-name="multiply" unicode="&#xd7;" horiz-adv-x="500" 
d="M25 -200v1000h450v-1000h-450z" />
    <glyph glyph-name="Oslash" unicode="&#xd8;" horiz-adv-x="744" 
d="M683 688l-81 -97c49 -62 77 -147 77 -245c0 -210 -131 -359 -308 -359c-80 0 -150 30 -203 82l-63 -76l-44 9l81 97c-49 62 -77 147 -77 245c0 210 131 359 308 359c80 0 149 -30 202 -82l64 76zM547 587c-45 47 -104 74 -176 74c-153 0 -257 -130 -257 -315
c0 -85 21 -158 59 -212zM630 344c0 85 -22 158 -59 212l-374 -453c44 -47 104 -74 176 -74c153 0 257 130 257 315z" />
    <glyph glyph-name="Ugrave" unicode="&#xd9;" horiz-adv-x="674" 
d="M589 260c0 -161 -95 -270 -254 -270c-158 0 -250 111 -250 265v435h48v-428c0 -135 71 -229 204 -229c131 0 204 89 204 224v433h48v-430zM371 731h-35l-138 140l69 15z" />
    <glyph glyph-name="Uacute" unicode="&#xda;" horiz-adv-x="674" 
d="M476 871l-138 -140h-36l106 155zM589 260c0 -161 -95 -270 -254 -270c-158 0 -250 111 -250 265v435h48v-428c0 -135 71 -229 204 -229c131 0 204 89 204 224v433h48v-430z" />
    <glyph glyph-name="Ucircumflex" unicode="&#xdb;" horiz-adv-x="674" 
d="M589 260c0 -161 -95 -270 -254 -270c-158 0 -250 111 -250 265v435h48v-428c0 -135 71 -229 204 -229c131 0 204 89 204 224v433h48v-430zM462 738l-26 -5l-100 95l-97 -93h-32l109 149h43z" />
    <glyph glyph-name="Udieresis" unicode="&#xdc;" horiz-adv-x="674" 
d="M589 260c0 -161 -95 -270 -254 -270c-158 0 -250 111 -250 265v435h48v-428c0 -135 71 -229 204 -229c131 0 204 89 204 224v433h48v-430zM455 744h-70v79h70v-79zM288 744h-69v79h69v-79z" />
    <glyph glyph-name="Yacute" unicode="&#xdd;" horiz-adv-x="621" 
d="M580 690l-246 -393v-297h-48v296l-245 391l48 10l222 -361l217 354h52zM455 866l-138 -140h-36l106 155z" />
    <glyph glyph-name="Thorn" unicode="&#xde;" horiz-adv-x="538" 
d="M485 358c0 -131 -102 -200 -236 -200h-101v-158h-48v690h48v-142h117c133 0 220 -69 220 -190zM435 356c0 98 -61 149 -174 149h-113v-304h103c114 0 184 52 184 155z" />
    <glyph glyph-name="germandbls" unicode="&#xdf;" horiz-adv-x="596" 
d="M554 146c0 -99 -69 -155 -166 -155c-48 0 -98 11 -143 35l8 44c47 -25 94 -38 140 -38c65 0 114 38 114 109c0 77 -61 136 -235 172l-6 34c67 76 101 136 101 208c0 73 -39 120 -105 120c-63 0 -106 -48 -106 -128v-547h-46v430h-73v40h73v74c0 99 57 172 154 172
c95 0 151 -62 151 -158c0 -81 -37 -138 -101 -214c154 -37 240 -96 240 -198z" />
    <glyph glyph-name="agrave" unicode="&#xe0;" horiz-adv-x="481" 
d="M404 0h-33l-11 63c-49 -43 -107 -73 -166 -73c-79 0 -142 40 -142 125c0 105 80 161 306 182v41c0 66 -39 98 -104 98c-54 0 -109 -15 -161 -42l-6 44c53 24 107 41 169 41c96 0 148 -49 148 -139v-340zM358 106v152c-194 -21 -258 -62 -258 -139c0 -60 43 -88 96 -88
c50 0 111 30 162 75zM271 552h-35l-138 140l69 15z" />
    <glyph glyph-name="aacute" unicode="&#xe1;" horiz-adv-x="481" 
d="M404 0h-33l-11 63c-49 -43 -107 -73 -166 -73c-79 0 -142 40 -142 125c0 105 80 161 306 182v41c0 66 -39 98 -104 98c-54 0 -109 -15 -161 -42l-6 44c53 24 107 41 169 41c96 0 148 -49 148 -139v-340zM358 106v152c-194 -21 -258 -62 -258 -139c0 -60 43 -88 96 -88
c50 0 111 30 162 75zM382 692l-138 -140h-36l106 155z" />
    <glyph glyph-name="acircumflex" unicode="&#xe2;" horiz-adv-x="481" 
d="M404 0h-33l-11 63c-49 -43 -107 -73 -166 -73c-79 0 -142 40 -142 125c0 105 80 161 306 182v41c0 66 -39 98 -104 98c-54 0 -109 -15 -161 -42l-6 44c53 24 107 41 169 41c96 0 148 -49 148 -139v-340zM358 106v152c-194 -21 -258 -62 -258 -139c0 -60 43 -88 96 -88
c50 0 111 30 162 75zM370 555l-26 -5l-100 95l-97 -93h-32l109 149h43z" />
    <glyph glyph-name="atilde" unicode="&#xe3;" horiz-adv-x="481" 
d="M404 0h-33l-11 63c-49 -43 -107 -73 -166 -73c-79 0 -142 40 -142 125c0 105 80 161 306 182v41c0 66 -39 98 -104 98c-54 0 -109 -15 -161 -42l-6 44c53 24 107 41 169 41c96 0 148 -49 148 -139v-340zM358 106v152c-194 -21 -258 -62 -258 -139c0 -60 43 -88 96 -88
c50 0 111 30 162 75zM387 655c-10 -60 -38 -95 -72 -95c-28 0 -42 8 -78 27c-32 17 -45 27 -62 27c-16 0 -30 -18 -39 -55l-34 7c11 61 38 96 72 96c29 0 42 -9 78 -28c32 -17 46 -26 62 -26c17 0 30 18 40 54z" />
    <glyph glyph-name="adieresis" unicode="&#xe4;" horiz-adv-x="481" 
d="M404 0h-33l-11 63c-49 -43 -107 -73 -166 -73c-79 0 -142 40 -142 125c0 105 80 161 306 182v41c0 66 -39 98 -104 98c-54 0 -109 -15 -161 -42l-6 44c53 24 107 41 169 41c96 0 148 -49 148 -139v-340zM358 106v152c-194 -21 -258 -62 -258 -139c0 -60 43 -88 96 -88
c50 0 111 30 162 75zM363 561h-70v79h70v-79zM196 561h-69v79h69v-79z" />
    <glyph glyph-name="aring" unicode="&#xe5;" horiz-adv-x="481" 
d="M404 0h-33l-11 63c-49 -43 -107 -73 -166 -73c-79 0 -142 40 -142 125c0 105 80 161 306 182v41c0 66 -39 98 -104 98c-54 0 -109 -15 -161 -42l-6 44c53 24 107 41 169 41c96 0 148 -49 148 -139v-340zM358 106v152c-194 -21 -258 -62 -258 -139c0 -60 43 -88 96 -88
c50 0 111 30 162 75zM338 642c0 -53 -40 -92 -93 -92s-94 39 -94 92c0 52 41 94 94 94s93 -42 93 -94zM304 642c0 36 -25 63 -59 63s-60 -27 -60 -63s26 -62 60 -62s59 26 59 62z" />
    <glyph glyph-name="ae" unicode="&#xe6;" horiz-adv-x="790" 
d="M736 245v-10h-332c0 -120 62 -204 160 -204c57 0 116 30 163 72l8 -44c-45 -38 -105 -69 -173 -69c-70 0 -129 34 -166 92c-58 -54 -121 -92 -200 -92c-83 0 -144 47 -144 126c0 104 80 160 306 181v43c0 65 -39 96 -104 96c-54 0 -109 -15 -161 -42l-6 44
c52 25 107 41 169 41c82 0 127 -35 139 -99c34 64 91 100 162 100c119 0 179 -105 179 -235zM686 274c-3 92 -48 167 -129 167c-89 0 -141 -69 -152 -167h281zM379 117c-13 34 -21 74 -21 118v24c-194 -21 -258 -63 -258 -139c0 -54 39 -89 99 -89c62 0 125 35 180 86z" />
    <glyph glyph-name="ccedilla" unicode="&#xe7;" horiz-adv-x="464" 
d="M417 47c-43 -36 -95 -57 -158 -57c-115 0 -207 90 -207 245c0 156 93 245 210 245c59 0 111 -21 152 -52l-9 -48c-47 40 -91 59 -145 59c-100 0 -159 -83 -159 -204c0 -118 57 -204 163 -204c51 0 98 18 147 60zM308 -67l-121 -119h-34l90 135z" />
    <glyph glyph-name="egrave" unicode="&#xe8;" horiz-adv-x="484" 
d="M432 245v-10h-332c0 -120 56 -204 161 -204c57 0 117 30 163 72l7 -44c-43 -39 -105 -69 -172 -69c-124 0 -207 92 -207 245c0 150 86 245 200 245c120 0 180 -105 180 -235zM382 274c-3 92 -48 167 -130 167c-89 0 -139 -69 -150 -167h280zM276 552h-35l-138 140l69 15z
" />
    <glyph glyph-name="eacute" unicode="&#xe9;" horiz-adv-x="484" 
d="M432 245v-10h-332c0 -120 56 -204 161 -204c57 0 117 30 163 72l7 -44c-43 -39 -105 -69 -172 -69c-124 0 -207 92 -207 245c0 150 86 245 200 245c120 0 180 -105 180 -235zM382 274c-3 92 -48 167 -130 167c-89 0 -139 -69 -150 -167h280zM388 692l-138 -140h-36
l106 155z" />
    <glyph glyph-name="ecircumflex" unicode="&#xea;" horiz-adv-x="484" 
d="M432 245v-10h-332c0 -120 56 -204 161 -204c57 0 117 30 163 72l7 -44c-43 -39 -105 -69 -172 -69c-124 0 -207 92 -207 245c0 150 86 245 200 245c120 0 180 -105 180 -235zM382 274c-3 92 -48 167 -130 167c-89 0 -139 -69 -150 -167h280zM377 555l-26 -5l-100 95
l-97 -93h-32l109 149h43z" />
    <glyph glyph-name="edieresis" unicode="&#xeb;" horiz-adv-x="484" 
d="M432 245v-10h-332c0 -120 56 -204 161 -204c57 0 117 30 163 72l7 -44c-43 -39 -105 -69 -172 -69c-124 0 -207 92 -207 245c0 150 86 245 200 245c120 0 180 -105 180 -235zM382 274c-3 92 -48 167 -130 167c-89 0 -139 -69 -150 -167h280zM370 561h-70v79h70v-79z
M203 561h-69v79h69v-79z" />
    <glyph glyph-name="igrave" unicode="&#xec;" horiz-adv-x="225" 
d="M132 552h-29l-118 140l59 15zM136 0h-46v470h46v-470z" />
    <glyph glyph-name="iacute" unicode="&#xed;" horiz-adv-x="225" 
d="M241 692l-118 -140h-30l90 155zM136 0h-46v470h46v-470z" />
    <glyph glyph-name="icircumflex" unicode="&#xee;" horiz-adv-x="225" 
d="M226 555l-23 -5l-90 93l-87 -91h-29l98 149h39zM136 0h-46v470h46v-470z" />
    <glyph glyph-name="idieresis" unicode="&#xef;" horiz-adv-x="225" 
d="M222 561h-67v79h67v-79zM72 561h-66v79h66v-79zM136 0h-46v470h46v-470z" />
    <glyph glyph-name="eth" unicode="&#xf0;" horiz-adv-x="523" 
d="M459 304c0 -124 -29 -206 -83 -260c-36 -36 -80 -54 -129 -54c-107 0 -195 82 -195 223c0 128 89 232 197 232c69 0 119 -27 160 -63c-11 95 -43 164 -97 214l-53 -81h-45l69 104c-35 25 -77 43 -127 56l7 40c56 -14 102 -35 142 -62l40 62l39 -10l-49 -75
c85 -72 124 -182 124 -326zM413 325c-45 50 -99 79 -163 79c-87 0 -149 -87 -149 -188c0 -115 59 -185 150 -185c94 0 162 93 162 270v24z" />
    <glyph glyph-name="ntilde" unicode="&#xf1;" horiz-adv-x="520" 
d="M443 0h-47v327c0 71 -34 110 -101 110c-52 0 -106 -30 -165 -85v-352h-47v470h34l12 -71c57 50 109 81 171 81c97 0 143 -55 143 -149v-331zM409 655c-10 -60 -38 -95 -72 -95c-28 0 -42 8 -78 27c-32 17 -45 27 -62 27c-16 0 -30 -18 -39 -55l-34 7c11 61 38 96 72 96
c29 0 42 -9 78 -28c32 -17 46 -26 62 -26c17 0 30 18 40 54z" />
    <glyph glyph-name="ograve" unicode="&#xf2;" horiz-adv-x="519" 
d="M467 235c0 -155 -93 -245 -208 -245c-117 0 -207 90 -207 245c0 156 93 245 207 245c118 0 208 -89 208 -245zM418 235c0 118 -57 204 -159 204s-158 -83 -158 -204c0 -118 57 -204 158 -204c102 0 159 82 159 204zM281 552h-35l-138 140l69 15z" />
    <glyph glyph-name="oacute" unicode="&#xf3;" horiz-adv-x="519" 
d="M412 692l-138 -140h-36l106 155zM467 235c0 -155 -93 -245 -208 -245c-117 0 -207 90 -207 245c0 156 93 245 207 245c118 0 208 -89 208 -245zM418 235c0 118 -57 204 -159 204s-158 -83 -158 -204c0 -118 57 -204 158 -204c102 0 159 82 159 204z" />
    <glyph glyph-name="ocircumflex" unicode="&#xf4;" horiz-adv-x="519" 
d="M467 235c0 -155 -93 -245 -208 -245c-117 0 -207 90 -207 245c0 156 93 245 207 245c118 0 208 -89 208 -245zM418 235c0 118 -57 204 -159 204s-158 -83 -158 -204c0 -118 57 -204 158 -204c102 0 159 82 159 204zM385 555l-26 -5l-100 95l-97 -93h-32l109 149h43z" />
    <glyph glyph-name="otilde" unicode="&#xf5;" horiz-adv-x="519" 
d="M467 235c0 -155 -93 -245 -208 -245c-117 0 -207 90 -207 245c0 156 93 245 207 245c118 0 208 -89 208 -245zM418 235c0 118 -57 204 -159 204s-158 -83 -158 -204c0 -118 57 -204 158 -204c102 0 159 82 159 204zM404 655c-10 -60 -38 -95 -72 -95c-28 0 -42 8 -78 27
c-32 17 -45 27 -62 27c-16 0 -30 -18 -39 -55l-34 7c11 61 38 96 72 96c29 0 42 -9 78 -28c32 -17 46 -26 62 -26c17 0 30 18 40 54z" />
    <glyph glyph-name="odieresis" unicode="&#xf6;" horiz-adv-x="519" 
d="M467 235c0 -155 -93 -245 -208 -245c-117 0 -207 90 -207 245c0 156 93 245 207 245c118 0 208 -89 208 -245zM418 235c0 118 -57 204 -159 204s-158 -83 -158 -204c0 -118 57 -204 158 -204c102 0 159 82 159 204zM378 561h-70v79h70v-79zM211 561h-69v79h69v-79z" />
    <glyph glyph-name="divide" unicode="&#xf7;" horiz-adv-x="568" 
d="M314 486h-59v76h59v-76zM508 319h-448v38h448v-38zM314 114h-59v76h59v-76z" />
    <glyph glyph-name="oslash" unicode="&#xf8;" horiz-adv-x="519" 
d="M472 468l-54 -66c30 -41 49 -97 49 -167c0 -155 -93 -245 -208 -245c-51 0 -97 17 -133 49l-36 -46l-42 9l53 66c-31 41 -49 98 -49 167c0 156 93 245 207 245c52 0 99 -17 134 -50l38 48zM367 396c-28 29 -63 45 -108 45c-103 0 -161 -84 -161 -206
c0 -51 11 -97 32 -132zM389 367l-236 -294c26 -27 62 -44 106 -44c102 0 162 84 162 206c0 51 -11 97 -32 132z" />
    <glyph glyph-name="ugrave" unicode="&#xf9;" horiz-adv-x="520" 
d="M437 0h-34l-12 71c-57 -50 -109 -81 -171 -81c-97 0 -143 55 -143 149v331h47v-327c0 -71 34 -110 101 -110c52 0 106 30 165 85v352h47v-470zM285 552h-35l-138 140l69 15z" />
    <glyph glyph-name="uacute" unicode="&#xfa;" horiz-adv-x="520" 
d="M437 0h-34l-12 71c-57 -50 -109 -81 -171 -81c-97 0 -143 55 -143 149v331h47v-327c0 -71 34 -110 101 -110c52 0 106 30 165 85v352h47v-470zM402 692l-138 -140h-36l106 155z" />
    <glyph glyph-name="ucircumflex" unicode="&#xfb;" horiz-adv-x="520" 
d="M437 0h-34l-12 71c-57 -50 -109 -81 -171 -81c-97 0 -143 55 -143 149v331h47v-327c0 -71 34 -110 101 -110c52 0 106 30 165 85v352h47v-470zM384 555l-26 -5l-100 95l-97 -93h-32l109 149h43z" />
    <glyph glyph-name="udieresis" unicode="&#xfc;" horiz-adv-x="520" 
d="M437 0h-34l-12 71c-57 -50 -109 -81 -171 -81c-97 0 -143 55 -143 149v331h47v-327c0 -71 34 -110 101 -110c52 0 106 30 165 85v352h47v-470zM377 561h-70v79h70v-79zM210 561h-69v79h69v-79z" />
    <glyph glyph-name="yacute" unicode="&#xfd;" horiz-adv-x="477" 
d="M442 470l-206 -542c-29 -78 -63 -106 -126 -106c-8 0 -16 1 -22 2l-7 41c7 0 16 -1 30 -1c41 0 63 17 83 69l25 64l-183 468l46 10l160 -422l151 417h49zM384 683l-138 -140h-36l106 155z" />
    <glyph glyph-name="thorn" unicode="&#xfe;" horiz-adv-x="526" 
d="M472 248c0 -171 -102 -254 -216 -254c-47 0 -89 9 -126 24v-195l-47 -10v892l47 10v-312c38 44 83 77 149 77c104 0 193 -74 193 -232zM423 246c0 124 -61 191 -145 191c-59 0 -101 -33 -148 -87v-286c37 -18 78 -29 125 -29c94 0 168 67 168 211z" />
    <glyph glyph-name="ydieresis" unicode="&#xff;" horiz-adv-x="477" 
d="M442 470l-206 -542c-29 -78 -63 -106 -126 -106c-8 0 -16 1 -22 2l-7 41c7 0 16 -1 30 -1c41 0 63 17 83 69l25 64l-183 468l46 10l160 -422l151 417h49zM357 561h-70v79h70v-79zM190 561h-69v79h69v-79z" />
    <glyph glyph-name="NUL" horiz-adv-x="0" 
 />
    <glyph glyph-name="Lslash" unicode="&#x141;" horiz-adv-x="484" 
d="M454 0h-335v328l-81 -24l-7 41l88 26v319h48v-304l160 49v-43l-160 -49v-300h280z" />
    <glyph glyph-name="lslash" unicode="&#x142;" horiz-adv-x="263" 
d="M242 386l-87 -26v-360h-47v346l-81 -25l-8 40l89 28v316l47 10v-312l87 26v-43z" />
    <glyph glyph-name="onehalf" unicode="&#xbd;" horiz-adv-x="500" 
d="M25 -200v1000h450v-1000h-450z" />
    <glyph glyph-name="onequarter" unicode="&#xbc;" horiz-adv-x="500" 
d="M25 -200v1000h450v-1000h-450z" />
    <glyph glyph-name="threequarters" unicode="&#xbe;" horiz-adv-x="500" 
d="M25 -200v1000h450v-1000h-450z" />
    <glyph glyph-name="brokenbar" unicode="&#xa6;" horiz-adv-x="500" 
d="M25 -200v1000h450v-1000h-450z" />
    <glyph glyph-name="minus" unicode="&#x2212;" horiz-adv-x="500" 
d="M25 -200v1000h450v-1000h-450z" />
    <glyph glyph-name="dagger" unicode="&#x2020;" horiz-adv-x="498" 
d="M269 577l-14 -97h-13l-13 97v113h40v-113zM442 427h-58l-101 15v11l101 15h58v-41zM215 442l-102 -15h-57v41h57l102 -15v-11zM268 -15l-15 -102h-9l-14 102v341l12 89h13l13 -89v-341z" />
    <glyph glyph-name="bullet" unicode="&#x2022;" horiz-adv-x="413" 
d="M310 350l-14 -97l-89 -17l-89 17l-15 97l15 97l89 16l89 -16z" />
    <glyph glyph-name="trademark" unicode="&#x2122;" horiz-adv-x="802" 
d="M726 345h-37l-21 286l-114 -287h-31l-112 286l-22 -285h-35l26 345h44l116 -304l116 304h43zM294 656h-108v-311h-37v311h-109v34h249z" />
    <glyph glyph-name="acute" unicode="&#xb4;" 
d="M323 692l-138 -140h-36l106 155z" />
    <glyph glyph-name="dieresis" unicode="&#xa8;" 
d="M347 561h-70v79h70v-79zM180 561h-69v79h69v-79z" />
    <glyph glyph-name="notequal" unicode="&#x2260;" horiz-adv-x="531" 
d="M460 184c0 -108 -89 -197 -222 -197c-68 0 -138 22 -184 53l8 48c59 -40 112 -59 180 -59c108 0 169 70 169 155c0 106 -76 156 -215 156h-25l-5 34l226 260h-323l-6 42h393v-33l-232 -264c132 -3 236 -60 236 -195z" />
    <glyph glyph-name="infinity" unicode="&#x221e;" horiz-adv-x="481" 
d="M404 0h-33l-11 63c-49 -43 -107 -73 -166 -73c-79 0 -142 40 -142 125c0 105 80 161 306 182v41c0 66 -39 98 -104 98c-54 0 -109 -15 -161 -42l-6 44c53 24 107 41 169 41c96 0 148 -49 148 -139v-340zM358 106v152c-194 -21 -258 -62 -258 -139c0 -60 43 -88 96 -88
c50 0 111 30 162 75z" />
    <glyph glyph-name="lessequal" unicode="&#x2264;" horiz-adv-x="886" 
d="M785 0h-48v608l-275 -611h-40l-275 611v-608h-46v690h60l282 -634l282 634h60v-690z" />
    <glyph glyph-name="greaterequal" unicode="&#x2265;" horiz-adv-x="693" 
d="M547 87c-67 -58 -144 -95 -223 -95c-138 0 -229 70 -229 229v469h48v-466c0 -127 68 -189 184 -189c81 0 150 41 218 102v553h48v-690h-33z" />
    <glyph glyph-name="mu" unicode="&#x3bc;" horiz-adv-x="568" 
d="M454 139l-171 172l-170 -171l-27 27l171 170l-172 171l29 29l171 -172l170 171l27 -27l-171 -170l172 -171z" />
    <glyph glyph-name="partialdiff" unicode="&#x2202;" horiz-adv-x="748" 
d="M694 30l-11 -44l-108 84c-53 -53 -125 -83 -204 -83c-177 0 -306 148 -306 357c0 210 131 359 308 359s306 -148 306 -357c0 -98 -28 -183 -77 -245zM629 344c0 186 -105 316 -258 316s-256 -128 -256 -314s105 -316 258 -316c68 0 126 24 169 66l-191 144l57 10
l159 -124c40 55 62 129 62 218z" />
    <glyph glyph-name="summation" unicode="&#x2211;" horiz-adv-x="1011" 
d="M965 690l-260 -692h-43l-158 425l-157 -425h-43l-257 688l49 11l232 -633l152 421l-75 201l52 11l229 -633l228 626h51z" />
    <glyph glyph-name="product" unicode="&#x220f;" horiz-adv-x="500" 
d="M25 -200v1000h450v-1000h-450z" />
    <glyph glyph-name="pi" unicode="&#x3c0;" horiz-adv-x="811" 
d="M749 345c0 -208 -134 -358 -343 -358c-208 0 -345 150 -345 358s135 358 343 358c209 0 345 -150 345 -358zM722 345c0 195 -124 334 -318 334c-195 0 -315 -139 -315 -334s123 -334 318 -334s315 139 315 334zM541 428c0 -78 -62 -119 -138 -119h-53v-159h-41v393h101
c76 0 131 -43 131 -115zM499 426c0 52 -36 79 -91 79h-58v-159h54c58 0 95 27 95 80z" />
    <glyph glyph-name="integral" unicode="&#x222b;" horiz-adv-x="526" 
d="M443 6c0 -121 -69 -184 -189 -184c-61 0 -118 14 -172 35l9 45c54 -26 109 -38 168 -38c94 0 137 50 137 140v73c-34 -39 -79 -78 -149 -78c-104 0 -193 74 -193 228c0 166 102 250 227 250c62 0 117 -15 162 -32v-439zM396 128v286c-30 11 -69 22 -121 22
c-95 0 -172 -65 -172 -207c0 -122 61 -187 145 -187c57 0 102 34 148 86z" />
    <glyph glyph-name="Omega" unicode="&#x3a9;" horiz-adv-x="576" 
d="M557 670c-9 2 -17 3 -35 3c-49 0 -77 -24 -77 -82v-121h99l6 -40h-105v-430h-47v430h-73v40h73v123c0 81 43 123 122 123c14 0 22 0 30 -1zM269 670c-9 2 -17 3 -36 3c-48 0 -77 -24 -77 -82v-121h99l7 -40h-106v-430h-46v430h-73v40h73v123c0 81 43 123 121 123
c15 0 22 0 31 -1z" />
    <glyph glyph-name="radical" unicode="&#x221a;" horiz-adv-x="802" 
d="M713 0h-47v705l47 10v-715zM557 670c-9 2 -17 3 -35 3c-49 0 -77 -24 -77 -82v-121h99l6 -40h-105v-430h-47v430h-73v40h73v123c0 81 43 123 122 123c14 0 22 0 30 -1zM269 670c-9 2 -17 3 -36 3c-48 0 -77 -24 -77 -82v-121h99l7 -40h-106v-430h-46v430h-73v40h73v123
c0 81 43 123 121 123c15 0 22 0 31 -1z" />
    <glyph glyph-name="florin" unicode="&#x192;" horiz-adv-x="381" 
d="M155 453l17 105c14 88 57 126 137 126c15 0 31 -3 42 -4v-44c-14 3 -29 5 -44 5c-58 0 -80 -28 -90 -87l-16 -101h107v-41h-114l-66 -412h-45l66 412h-69l6 41h69z" />
    <glyph glyph-name="approxequal" unicode="&#x2248;" horiz-adv-x="802" 
d="M729 638c0 -21 -17 -41 -40 -41c-21 0 -40 20 -40 41c0 22 19 40 40 40c23 0 40 -18 40 -40zM557 670c-9 2 -17 3 -35 3c-49 0 -77 -24 -77 -82v-121h99l6 -40h-105v-430h-47v430h-73v40h73v123c0 81 43 123 122 123c14 0 22 0 30 -1zM269 670c-9 2 -17 3 -36 3
c-48 0 -77 -24 -77 -82v-121h99l7 -40h-106v-430h-46v430h-73v40h73v123c0 81 43 123 121 123c15 0 22 0 31 -1zM713 0h-47v470h47v-470z" />
    <glyph glyph-name="Delta" unicode="&#x394;" horiz-adv-x="500" 
d="M25 -200v1000h450v-1000h-450z" />
    <glyph glyph-name="ellipsis" unicode="&#x2026;" horiz-adv-x="666" 
d="M586 0h-61v81h61v-81zM363 0h-60v81h60v-81zM141 0h-60v81h60v-81z" />
    <glyph glyph-name="endash" unicode="&#x2013;" 
d="M395 259h-333v47h333v-47z" />
    <glyph glyph-name="emdash" unicode="&#x2014;" horiz-adv-x="915" 
d="M853 259h-791v47h791v-47z" />
    <glyph glyph-name="quotedblleft" unicode="&#x201c;" horiz-adv-x="370" 
d="M158 688l-39 -208h-61l74 214zM316 688l-39 -208h-61l74 214z" />
    <glyph glyph-name="quotedblright" unicode="&#x201d;" horiz-adv-x="370" 
d="M154 690l-74 -214l-26 6l39 208h61zM312 690l-74 -214l-26 6l39 208h61z" />
    <glyph glyph-name="quoteleft" unicode="&#x2018;" horiz-adv-x="212" 
d="M158 688l-39 -208h-61l74 214z" />
    <glyph glyph-name="quoteright" unicode="&#x2019;" horiz-adv-x="212" 
d="M154 690l-74 -214l-26 6l39 208h61z" />
    <glyph glyph-name="lozenge" unicode="&#x25ca;" horiz-adv-x="802" 
d="M726 345h-37l-21 286l-114 -287h-31l-112 286l-22 -285h-35l26 345h44l116 -304l116 304h43zM164 340c-39 0 -69 11 -93 23l4 36c27 -16 53 -27 91 -27c39 0 74 22 74 62c0 34 -21 53 -68 73c-69 30 -96 51 -96 101s45 87 99 87c32 0 61 -8 83 -20l-6 -34
c-25 14 -50 22 -78 22c-38 0 -64 -22 -64 -53c0 -32 21 -47 74 -70c61 -26 91 -52 91 -104c0 -61 -52 -96 -111 -96z" />
    <glyph glyph-name="fraction" unicode="&#x2044;" horiz-adv-x="429" 
d="M507 774l-542 -882l-39 10l542 882z" />
    <glyph glyph-name="currency" unicode="&#xa4;" horiz-adv-x="612" 
d="M128 414c1 0 -91 0 -91 0v40h99c34 147 133 235 258 235c66 0 117 -19 165 -51l-8 -47c-49 35 -93 57 -158 57c-106 0 -181 -76 -210 -194h269l7 -40h-283c-4 -24 -6 -49 -6 -76c0 -18 1 -35 3 -52h283v-40h-278c24 -135 102 -219 211 -219c68 0 118 23 175 63l5 -43
c-50 -35 -109 -60 -183 -60c-129 0 -229 98 -256 259h-90l-6 40h91c-1 16 -2 34 -2 51c0 27 2 53 5 77z" />
    <glyph glyph-name="guilsinglleft" unicode="&#x2039;" horiz-adv-x="304" 
d="M243 470l-141 -234l140 -232l-32 -9l-167 241l166 234h34z" />
    <glyph glyph-name="guilsinglright" unicode="&#x203a;" horiz-adv-x="304" 
d="M261 234l-166 -234h-35l142 234l-140 233l31 8z" />
    <glyph glyph-name="fi" unicode="&#xfb01;" horiz-adv-x="514" 
d="M441 638c0 -21 -17 -41 -40 -41c-21 0 -40 20 -40 41c0 22 19 40 40 40c23 0 40 -18 40 -40zM269 670c-9 2 -17 3 -36 3c-48 0 -77 -24 -77 -82v-121h99l7 -40h-106v-430h-46v430h-73v40h73v123c0 81 43 123 121 123c15 0 22 0 31 -1zM425 0h-47v470h47v-470z" />
    <glyph glyph-name="fl" unicode="&#xfb02;" horiz-adv-x="514" 
d="M425 0h-47v705l47 10v-715zM269 670c-9 2 -17 3 -36 3c-48 0 -77 -24 -77 -82v-121h99l7 -40h-106v-430h-46v430h-73v40h73v123c0 81 43 123 121 123c15 0 22 0 31 -1z" />
    <glyph glyph-name="daggerdbl" unicode="&#x2021;" horiz-adv-x="516" 
d="M278 577l-14 -97h-12l-14 97v113h40v-113zM451 427h-58l-101 15v11l101 15h58v-41zM224 442l-101 -15h-58v41h58l101 -15v-11zM277 178l-13 -90h-12l-13 90v148l13 89h12l13 -89v-148zM451 35h-58l-101 15v11l101 15h58v-41zM224 50l-101 -15h-58v41h58l101 -15v-11z
M278 -187h-40v113l14 97h12l14 -97v-113z" />
    <glyph glyph-name="quotesinglbase" unicode="&#x201a;" horiz-adv-x="212" 
d="M147 81l-74 -214l-26 6l39 208h61z" />
    <glyph glyph-name="quotedblbase" unicode="&#x201e;" horiz-adv-x="369" 
d="M154 81l-74 -214l-26 6l39 208h61zM312 81l-74 -214l-26 6l39 208h61z" />
    <glyph glyph-name="perthousand" unicode="&#x2030;" horiz-adv-x="811" 
d="M749 345c0 -208 -134 -358 -343 -358c-208 0 -345 150 -345 358s135 358 343 358c209 0 345 -150 345 -358zM722 345c0 195 -124 334 -318 334c-195 0 -315 -139 -315 -334s123 -334 318 -334s315 139 315 334zM434 327l128 -168l-44 -8l-126 171h-56v-168h-40v393h104
c76 0 125 -43 125 -110c0 -59 -39 -96 -91 -110zM399 509h-63v-150h56c55 0 91 28 91 77c0 46 -30 73 -84 73z" />
    <glyph glyph-name="apple" horiz-adv-x="694" 
d="M644 -200h-208l-8 14h-163l-8 -14h-207v303c18 0 32 14 32 32c0 17 -14 32 -32 32v554h100l30 79h334l29 -79h101v-921zM400 563v-172h15v78h38v14h-38v66h43v14h-58zM184 563v-172h15v79h47v-79h15v172h-15v-79h-47v79h-15zM460 394c4 -2 15 -4 21 -4c20 0 31 11 31 36
v137h-16v-137c0 -16 -5 -22 -16 -22c-5 0 -15 3 -20 6v-16zM523 323v-46h8v13l7 7l16 -20h9l-19 26l18 20h-10l-21 -24v24h-8zM488 292l10 -15h9l-12 17c6 2 10 8 10 15c0 6 -6 14 -16 14h-21v-46h8v15h12zM426 276c15 0 24 11 24 24c0 12 -10 24 -24 24s-23 -12 -23 -24
c0 -13 9 -24 23 -24zM370 301l-13 22h-9l18 -29v-17h8v17l18 29h-9zM193 323v-46h33v7h-25v13h22v7h-22v12h25v7h-33zM132 323v-46h8v32l25 -32h7v46h-8v-32l-25 32h-7zM241 323l15 -47h8l10 34h1l11 -34h8l14 47h-8l-10 -35h-1l-10 35h-8l-11 -35h-1l-10 35h-8zM327 479
c-7 13 -12 22 -12 32s6 19 14 19s13 -9 13 -19c0 -12 -5 -21 -15 -32zM342 423c-3 -10 -11 -21 -18 -21c-10 0 -17 12 -17 27c0 11 6 24 15 33zM488 299h-12v17h11c6 0 10 -3 10 -8s-4 -9 -9 -9zM426 283c-9 0 -15 8 -15 17c0 8 6 17 15 17s16 -9 16 -17
c0 -9 -7 -17 -16 -17zM349 438l-16 31c13 12 23 26 23 42c0 15 -9 31 -27 31c-17 0 -28 -16 -28 -31s6 -24 14 -39c-15 -12 -23 -28 -23 -45c0 -22 13 -39 31 -39c13 0 22 12 27 24h1l12 -24l11 8l-16 30c5 12 10 25 13 39l-13 3c-2 -9 -6 -21 -9 -30z" />
    <glyph glyph-name="dotlessi" unicode="&#x131;" horiz-adv-x="225" 
d="M136 0h-46v470h46v-470z" />
    <glyph glyph-name="circumflex" unicode="&#x2c6;" 
d="M354 555l-26 -5l-100 95l-97 -93h-32l109 149h43z" />
    <glyph glyph-name="tilde" unicode="&#x2dc;" 
d="M371 655c-10 -60 -38 -95 -72 -95c-28 0 -42 8 -78 27c-32 17 -45 27 -62 27c-16 0 -30 -18 -39 -55l-34 7c11 61 38 96 72 96c29 0 42 -9 78 -28c32 -17 46 -26 62 -26c17 0 30 18 40 54z" />
    <glyph glyph-name="breve" unicode="&#x2d8;" 
d="M351 696c-4 -93 -47 -142 -122 -142c-70 0 -116 51 -121 136l37 8c8 -59 33 -91 86 -91c48 0 77 31 83 89h37z" />
    <glyph glyph-name="dotaccent" unicode="&#x2d9;" 
d="M264 556h-71v81h71v-81z" />
    <glyph glyph-name="ring" unicode="&#x2da;" 
d="M322 642c0 -53 -40 -92 -93 -92s-94 39 -94 92c0 52 41 94 94 94s93 -42 93 -94zM288 642c0 36 -25 63 -59 63s-60 -27 -60 -63s26 -62 60 -62s59 26 59 62z" />
    <glyph glyph-name="cedilla" unicode="&#xb8;" 
d="M287 -67l-121 -119h-34l90 135z" />
    <glyph glyph-name="hungarumlaut" unicode="&#x2dd;" 
d="M394 696l-138 -140h-33l105 157zM231 696l-139 -140h-33l106 157z" />
    <glyph glyph-name="ogonek" unicode="&#x2db;" 
d="M326 -186h-34l-122 119l67 16z" />
    <glyph glyph-name="caron" unicode="&#x2c7;" 
d="M359 701l-109 -149h-43l-104 145l26 6l101 -96l97 94h32z" />
  </font>
</defs>
</svg>
