<?xml version="1.0" standalone="no"?>
<!DOCTYPE svg PUBLIC "-//W3C//DTD SVG 1.1//EN" "http://www.w3.org/Graphics/SVG/1.1/DTD/svg11.dtd" >
<svg xmlns="http://www.w3.org/2000/svg">
<metadata></metadata>
<defs>
<font id="locatormedium" horiz-adv-x="1343" >
<font-face units-per-em="2048" ascent="1638" descent="-410" />
<missing-glyph horiz-adv-x="450" />
<glyph horiz-adv-x="2048" />
<glyph horiz-adv-x="2048" />
<glyph unicode="&#xd;" horiz-adv-x="2048" />
<glyph unicode=" "  horiz-adv-x="450" />
<glyph unicode="&#x09;" horiz-adv-x="450" />
<glyph unicode="&#xa0;" horiz-adv-x="450" />
<glyph unicode="!" horiz-adv-x="655" d="M188 0v289h279v-289h-279zM199 1016v348h258v-348l-70 -590h-119z" />
<glyph unicode="&#x22;" horiz-adv-x="921" d="M168 770v594h186v-594h-186zM567 770v594h187v-594h-187z" />
<glyph unicode="#" horiz-adv-x="1468" d="M86 395l35 158h256l61 264h-256l35 156h258l90 391h170l-90 -391h322l90 391h170l-90 -391h256l-37 -156h-256l-60 -264h254l-34 -158h-256l-93 -395h-170l93 395h-322l-92 -395h-170l92 395h-256zM547 553h323l60 264h-322z" />
<glyph unicode="$" horiz-adv-x="1267" d="M109 98l49 199q280 -94 477 -94q276 0 276 166q0 70 -57 108.5t-260 116.5q-123 47 -201 88.5t-133.5 92t-78.5 109.5t-23 138q0 320 420 350v199h174v-197q211 -10 376 -65l-34 -209q-212 55 -418 55q-149 0 -204.5 -28t-55.5 -101q0 -31 11 -55t30 -43t65 -43t94 -44.5 t140 -56.5q116 -46 187 -83.5t124.5 -85t75.5 -105t22 -135.5q0 -158 -120 -264t-338 -121v-193h-175v193q-195 17 -423 108z" />
<glyph unicode="%" horiz-adv-x="1781" d="M86 1022q0 153 90.5 257.5t239.5 104.5t239 -104.5t90 -257.5t-90 -259t-239 -106t-239.5 106t-90.5 259zM258 1022q0 -90 40 -153.5t118 -63.5t117.5 63.5t39.5 153.5t-39.5 152.5t-117.5 62.5t-118 -62.5t-40 -152.5zM412 0l749 1364h178l-747 -1364h-180zM1006 344 q0 153 90 258t239 105t239.5 -105t90.5 -258t-90.5 -258.5t-239.5 -105.5t-239 105.5t-90 258.5zM1178 344q0 -90 39.5 -153.5t117.5 -63.5t118 63.5t40 153.5t-40 152.5t-118 62.5t-117.5 -62.5t-39.5 -152.5z" />
<glyph unicode="&#x26;" horiz-adv-x="1433" d="M106 389q0 133 71.5 229t223.5 175q-73 102 -104 168t-31 139q0 133 88 208.5t258 75.5q151 0 241.5 -77t90.5 -193q0 -101 -61.5 -194.5t-188.5 -165.5q12 -12 121.5 -140t155.5 -178q73 113 129 330l184 -47q-22 -117 -68.5 -234t-105.5 -202l248 -283h-291l-102 123 q-177 -146 -394 -146q-199 0 -332 117t-133 295zM358 393q0 -93 60.5 -150t163.5 -57q143 0 247 93l-311 372q-90 -55 -125 -117.5t-35 -140.5zM485 1096q0 -52 32.5 -110.5t82.5 -108.5q145 84 145 219q0 54 -34 87.5t-97 33.5q-62 0 -95.5 -31.5t-33.5 -89.5z" />
<glyph unicode="'" horiz-adv-x="522" d="M168 770v594h186v-594h-186z" />
<glyph unicode="(" horiz-adv-x="729" d="M168 623q0 524 309 938l166 -88q-124 -233 -173.5 -424.5t-49.5 -425.5t49.5 -425.5t173.5 -424.5l-158 -88q-317 405 -317 938z" />
<glyph unicode=")" horiz-adv-x="731" d="M86 -227q125 234 175 425.5t50 424.5t-50 424.5t-175 425.5l168 88q309 -414 309 -938q0 -533 -317 -938z" />
<glyph unicode="*" horiz-adv-x="997" d="M96 829l273 125l-273 123l90 160l248 -172l-26 299h182l-27 -299l246 172l92 -160l-272 -123l272 -125l-92 -157l-246 170l27 -299h-182l26 299l-248 -170z" />
<glyph unicode="+" horiz-adv-x="1210" d="M117 397v181h395v399h188v-399h394v-181h-394v-397h-188v397h-395z" />
<glyph unicode="," horiz-adv-x="573" d="M137 0v289h279v-289l-144 -311h-118l120 311h-137z" />
<glyph unicode="-" horiz-adv-x="782" d="M117 467v209h549v-209h-549z" />
<glyph unicode="." horiz-adv-x="591" d="M158 0v289h276v-289h-276z" />
<glyph unicode="/" horiz-adv-x="1019" d="M106 -240l592 1624h215l-591 -1624h-216z" />
<glyph unicode="0" horiz-adv-x="1314" d="M113 672q0 144 35 268.5t101.5 219.5t171.5 149.5t236 54.5t236 -54.5t172 -149.5t102 -219.5t35 -268.5q0 -115 -22 -218t-66.5 -190.5t-108.5 -151t-153 -99.5t-195 -36q-131 0 -236 55t-171.5 150.5t-101.5 220.5t-35 269zM360 672q0 -96 16 -178.5t50 -150.5t93 -107 t138 -39t138 39t92 107t49 150t16 179t-16 178.5t-49 149.5t-92 106.5t-138 38.5t-138 -38.5t-93 -106.5t-50 -150t-16 -178z" />
<glyph unicode="1" horiz-adv-x="901" d="M45 1266l387 77h250v-1343h-250l-2 1130l-350 -63z" />
<glyph unicode="2" horiz-adv-x="1286" d="M137 0v82q0 91 19.5 159.5t44 115t99 106t129.5 95.5t190 119q5 3 8 5q145 89 197.5 146t52.5 133q0 95 -73.5 139.5t-234.5 44.5q-165 0 -374 -51l-41 202q99 32 221 50t225 18q257 0 392.5 -105.5t135.5 -287.5q0 -134 -77.5 -232.5t-251.5 -208.5q-21 -13 -60 -38 q-71 -45 -104 -66t-79.5 -54.5t-67.5 -54.5t-38.5 -47t-21.5 -51h711v-219h-1002z" />
<glyph unicode="3" horiz-adv-x="1171" d="M96 47l47 195q177 -52 338 -52q155 0 242.5 55t87.5 152q0 89 -71.5 142t-223.5 53h-235v203h225q121 0 184.5 49.5t63.5 136.5q0 82 -78.5 129t-214.5 47q-141 0 -299 -49l-45 190q183 66 364 66q231 0 375.5 -94.5t144.5 -261.5q0 -88 -47.5 -169.5t-140.5 -131.5 q117 -38 184.5 -126t67.5 -196q0 -171 -160.5 -289.5t-423.5 -118.5q-199 0 -385 70z" />
<glyph unicode="4" horiz-adv-x="1302" d="M72 311v219l665 813h269v-825h200v-207h-200v-311h-242v311h-692zM315 518h449v547z" />
<glyph unicode="5" horiz-adv-x="1265" d="M127 76l59 194q130 -42 219.5 -59.5t192.5 -17.5q147 0 226 66t79 167q0 99 -67.5 156t-192.5 57q-136 0 -250 -61l-203 106q54 493 74 659h809v-219h-598l-35 -325q112 53 260 53q212 0 332.5 -117.5t120.5 -300.5q0 -92 -35.5 -173t-102.5 -145t-174.5 -101.5 t-242.5 -37.5q-241 0 -471 99z" />
<glyph unicode="6" horiz-adv-x="1243" d="M102 575q0 236 83 414t240.5 276.5t369.5 98.5q155 0 276 -37l-37 -205q-108 27 -211 27q-221 0 -329.5 -115.5t-133.5 -331.5q126 136 334 136q191 0 311.5 -117.5t120.5 -296.5q0 -90 -35.5 -171.5t-98 -142.5t-154.5 -97t-199 -36q-257 0 -397 158.5t-140 439.5z M362 412q0 -100 73.5 -161t185.5 -61q118 0 187 65.5t69 158.5q0 100 -68 158.5t-182 58.5q-115 0 -190 -62.5t-75 -156.5z" />
<glyph unicode="7" horiz-adv-x="1085" d="M76 1124v219h954v-219l-549 -1124h-252l547 1124h-700z" />
<glyph unicode="8" horiz-adv-x="1232" d="M96 395q0 106 61 194t171 140q-74 51 -117 123.5t-43 155.5q0 163 124.5 259.5t325.5 96.5t325 -96.5t124 -259.5q0 -83 -43 -155.5t-117 -123.5q110 -52 170 -140t60 -194q0 -177 -140.5 -297.5t-378.5 -120.5t-380 120.5t-142 297.5zM344 395q0 -93 76 -152t198 -59 t196.5 59t74.5 152q0 85 -70.5 146t-200.5 61t-202 -61t-72 -146zM401 981q0 -86 60.5 -139.5t154.5 -53.5h2q94 0 153.5 53.5t59.5 139.5q0 80 -56 132t-157 52t-159 -52.5t-58 -131.5z" />
<glyph unicode="9" horiz-adv-x="1243" d="M102 920q0 185 138.5 314.5t351.5 129.5q257 0 395.5 -158.5t138.5 -439.5q0 -236 -83 -414t-241 -276.5t-370 -98.5q-151 0 -272 37l33 203q96 -24 210 -24q113 0 197.5 31t138.5 90.5t84.5 138.5t42.5 184q-120 -133 -331 -133q-191 0 -312 118.5t-121 297.5zM352 926 q0 -100 68 -157.5t182 -57.5q115 0 188.5 62.5t73.5 156.5q0 100 -72 160.5t-184 60.5q-118 0 -187 -66t-69 -159z" />
<glyph unicode=":" horiz-adv-x="591" d="M158 0v289h276v-289h-276zM158 690v287h276v-287h-276z" />
<glyph unicode=";" horiz-adv-x="583" d="M147 0v289h279v-289l-143 -311h-119l121 311h-138zM147 690v287h279v-287h-279z" />
<glyph unicode="&#x3c;" horiz-adv-x="1150" d="M55 430v131l989 451v-191l-733 -325l733 -326v-190z" />
<glyph unicode="=" horiz-adv-x="1148" d="M106 156v190h936v-190h-936zM106 600v191h936v-191h-936z" />
<glyph unicode="&#x3e;" horiz-adv-x="1150" d="M106 -23v191l734 328l-734 325v191l990 -451v-133z" />
<glyph unicode="?" horiz-adv-x="1146" d="M96 1313q106 33 230 52t219 19q242 0 368.5 -97.5t126.5 -278.5q0 -141 -108 -283.5t-342 -312.5l-111 151q26 25 68.5 65t63 59.5t51.5 51.5t45.5 50.5t33.5 46.5t27 50.5t14 50.5t6 58q0 88 -64 129t-208 41q-189 0 -379 -51zM412 0v287h278v-287h-278z" />
<glyph unicode="@" horiz-adv-x="1554" d="M137 682q0 204 81 364.5t225.5 249t328.5 88.5q201 0 316.5 -106.5t115.5 -280.5v-641h-162v88q-78 -100 -196 -100q-134 0 -211.5 101.5t-77.5 240.5q0 86 32 162t99.5 127t157.5 51q128 0 207 -96v59q0 116 -69 184t-212 68q-225 0 -352 -153t-127 -406 q0 -121 41 -224.5t117 -179.5t191.5 -119.5t258.5 -43.5q270 0 549 104l43 -121q-123 -57 -279 -89t-313 -32q-210 0 -384 88t-277 250.5t-103 366.5zM725 686q0 -92 41.5 -150.5t116.5 -58.5q73 0 117 57.5t44 151.5t-44.5 151.5t-116.5 57.5q-75 0 -116.5 -58.5 t-41.5 -150.5z" />
<glyph unicode="A" d="M25 0l530 1364h233l531 -1364h-258l-117 305h-545l-116 -305h-258zM465 504h414l-207 592z" />
<glyph unicode="B" horiz-adv-x="1357" d="M188 0v1364h629q199 0 310.5 -95t111.5 -257q0 -92 -51.5 -173.5t-161.5 -121.5q129 -39 194.5 -129.5t65.5 -198.5q0 -100 -48 -188t-142 -144.5t-213 -56.5h-695zM442 209h367q104 0 159.5 51.5t55.5 140.5t-54.5 142t-160.5 53h-367v-387zM442 793h316q104 0 162.5 49 t58.5 137q0 87 -56.5 132.5t-162.5 45.5h-318v-364z" />
<glyph unicode="C" horiz-adv-x="1337" d="M86 682q0 203 96.5 363t269.5 249.5t392 89.5q220 0 377 -55l-52 -215q-144 39 -292 39q-253 0 -391 -128.5t-138 -342.5q0 -215 138.5 -344t390.5 -129q84 0 145 7.5t147 29.5l52 -209q-166 -60 -377 -60q-219 0 -392 90.5t-269.5 251t-96.5 363.5z" />
<glyph unicode="D" horiz-adv-x="1419" d="M188 0v1364h308q251 0 447 -87.5t303.5 -242.5t107.5 -352t-107.5 -352t-303.5 -242.5t-447 -87.5h-308zM451 231h94q109 0 204.5 27.5t170 81.5t118 142t43.5 200t-43.5 200t-118 142t-170 81.5t-204.5 27.5h-94v-902z" />
<glyph unicode="E" horiz-adv-x="1294" d="M188 0v1364h979v-225h-716v-322h673v-225h-673v-367h716v-225h-979z" />
<glyph unicode="F" horiz-adv-x="1282" d="M188 0v1364h1018v-225h-755v-322h686v-225h-686v-592h-263z" />
<glyph unicode="G" horiz-adv-x="1433" d="M86 680q0 205 98.5 366t272.5 249.5t393 88.5q200 0 385 -45l-35 -217q-202 31 -321 31q-257 0 -394 -123t-137 -350q0 -209 131.5 -340t354.5 -131q108 0 223 16v457h243v-645q-237 -60 -446 -60q-173 0 -318 55t-243 150.5t-152.5 224t-54.5 273.5z" />
<glyph unicode="H" horiz-adv-x="1538" d="M188 0v1364h261v-557h638v557h263v-1364h-263v575h-638v-575h-261z" />
<glyph unicode="I" horiz-adv-x="659" d="M199 0v1364h262v-1364h-262z" />
<glyph unicode="J" horiz-adv-x="925" d="M113 -6v205h198q185 0 185 227v723h-351v215h613v-940q0 -202 -109.5 -316t-331.5 -114h-204z" />
<glyph unicode="K" horiz-adv-x="1409" d="M188 0v1364h263v-549l555 549h346l-690 -662l722 -702h-346l-587 582v-582h-263z" />
<glyph unicode="L" horiz-adv-x="1167" d="M188 0v1364h263v-1139h671v-225h-934z" />
<glyph unicode="M" horiz-adv-x="1765" d="M188 0v1364h252l443 -791l442 791h252v-1364h-252v901l-371 -668h-145l-369 670v-903h-252z" />
<glyph unicode="N" horiz-adv-x="1570" d="M188 0v1364h256l680 -950v950h258v-1364h-256l-682 950v-950h-256z" />
<glyph unicode="O" horiz-adv-x="1536" d="M86 680q0 191 89 352.5t246 256.5t347 95t347 -95t246 -256.5t89 -352.5t-89 -352.5t-246 -256t-347 -94.5t-347 94.5t-246 256t-89 352.5zM348 680q0 -207 113.5 -339t306.5 -132t307.5 132t114.5 339t-114.5 340t-307.5 133t-306.5 -133t-113.5 -340z" />
<glyph unicode="P" horiz-adv-x="1374" d="M188 0v1364h693q131 0 234.5 -60.5t158.5 -159t55 -214.5q0 -86 -32.5 -165.5t-90 -139.5t-142 -95.5t-183.5 -35.5h-432v-494h-261zM449 705h393q94 0 157.5 64.5t63.5 160.5q0 95 -65 159t-156 64h-393v-448z" />
<glyph unicode="Q" horiz-adv-x="1538" d="M86 682q0 191 89 352t246 255.5t347 94.5t347.5 -94.5t247 -255.5t89.5 -352q0 -258 -156.5 -453t-400.5 -239v-375h-254v375q-161 29 -287.5 128t-197 246.5t-70.5 317.5zM348 682q0 -207 113.5 -340t306.5 -133t307.5 133t114.5 340t-114.5 339t-307.5 132t-306.5 -132 t-113.5 -339z" />
<glyph unicode="R" horiz-adv-x="1525" d="M188 0v1364h711q192 0 316 -125t124 -301q0 -129 -71.5 -233.5t-194.5 -151.5l408 -553h-322l-375 516h-333v-516h-263zM451 721h401q95 0 157 60.5t62 156.5q0 94 -63.5 153.5t-155.5 59.5h-401v-430z" />
<glyph unicode="S" horiz-adv-x="1331" d="M113 90l57 203q274 -94 504 -94q146 0 225.5 42.5t79.5 123.5q0 67 -64 106t-284 121q-88 33 -149 59.5t-117 57.5t-90 61.5t-60.5 69t-37.5 84t-11 102.5q0 182 134 270t411 88q114 0 252.5 -18t238.5 -47l-39 -211q-227 51 -448 51q-160 0 -224.5 -28t-64.5 -99 t68 -113t308 -135q3 -1 5 -2q68 -27 109 -44t90 -39.5t76 -40t57.5 -41t46 -47t29.5 -54t19 -65.5t5 -78q0 -180 -155 -288t-406 -108q-138 0 -294 30.5t-271 82.5z" />
<glyph unicode="T" horiz-adv-x="1216" d="M25 1137v227h1167v-227h-453v-1137h-260v1137h-454z" />
<glyph unicode="U" horiz-adv-x="1525" d="M168 545v819h262v-821q0 -154 92.5 -243t241.5 -89q148 0 241 90t93 242v821h260v-819q0 -113 -42 -216t-117.5 -181t-188.5 -124.5t-246 -46.5t-246.5 46.5t-189 124.5t-118 181t-42.5 216z" />
<glyph unicode="V" horiz-adv-x="1282" d="M16 1364h263l362 -1047l363 1047h262l-494 -1364h-260z" />
<glyph unicode="W" horiz-adv-x="1771" d="M31 1364h258l221 -887l283 887h186l283 -887l221 887h258l-348 -1364h-209l-299 938l-297 -938h-209z" />
<glyph unicode="X" horiz-adv-x="1300" d="M14 0l490 688l-481 676h288l340 -475l338 475h291l-485 -676l491 -688h-291l-344 487l-348 -487h-289z" />
<glyph unicode="Y" horiz-adv-x="1243" d="M4 1364h264l355 -592l352 592h264l-485 -823v-541h-262v541z" />
<glyph unicode="Z" horiz-adv-x="1318" d="M106 0v233l795 906h-774v225h1085v-231l-790 -908h811v-225h-1127z" />
<glyph unicode="[" horiz-adv-x="700" d="M188 -258v1876h488v-201h-234v-1472h234v-203h-488z" />
<glyph unicode="\" horiz-adv-x="1019" d="M106 1384h216l591 -1624h-215z" />
<glyph unicode="]" horiz-adv-x="700" d="M25 -55h233v1472h-233v201h487v-1876h-487v203z" />
<glyph unicode="^" horiz-adv-x="966" d="M55 670l351 694h155l350 -694h-196l-232 493l-231 -493h-197z" />
<glyph unicode="_" horiz-adv-x="937" d="M0 -23h938v-88h-938v88z" />
<glyph unicode="`" horiz-adv-x="671" d="M96 1395h258l191 -267h-166z" />
<glyph unicode="a" horiz-adv-x="1046" d="M72 281q0 140 84 215t239 75h299v84q0 86 -52.5 125t-186.5 39q-137 0 -308 -22l-20 184q161 35 350 35q224 0 345.5 -92t121.5 -275v-649h-239v111q-102 -127 -297 -127q-150 0 -243 83t-93 214zM322 283q0 -121 155 -121q99 0 158 57.5t59 151.5v37h-217 q-77 0 -116 -29.5t-39 -95.5z" />
<glyph unicode="b" horiz-adv-x="1196" d="M143 0v1364h252v-508q114 160 301 160q104 0 188.5 -44t137 -117t80.5 -164.5t28 -190.5q0 -76 -17.5 -149.5t-53.5 -140t-86.5 -117t-122 -80t-154.5 -29.5q-89 0 -167 43t-134 118v-145h-252zM395 500q0 -141 66.5 -230.5t177.5 -89.5q115 0 177.5 91t62.5 229 t-62.5 228.5t-177.5 90.5q-112 0 -178 -88.5t-66 -230.5z" />
<glyph unicode="c" horiz-adv-x="978" d="M66 500q0 222 152.5 369t397.5 147q147 0 261 -43l-41 -180q-96 22 -199 22q-158 0 -240 -85.5t-82 -229.5q0 -145 82 -231.5t240 -86.5q81 0 199 31l41 -182q-53 -20 -126.5 -33.5t-134.5 -13.5q-245 0 -397.5 147t-152.5 369z" />
<glyph unicode="d" horiz-adv-x="1196" d="M66 500q0 99 28 190.5t80.5 164.5t137 117t188.5 44q187 0 301 -160v508h252v-1364h-252v145q-56 -75 -134 -118t-167 -43q-83 0 -154.5 29.5t-122 80t-86.5 117t-53.5 140t-17.5 149.5zM317 500q0 -138 62.5 -229t177.5 -91q111 0 177.5 89.5t66.5 230.5 q0 142 -66 230.5t-178 88.5q-115 0 -177.5 -90.5t-62.5 -228.5z" />
<glyph unicode="e" horiz-adv-x="1093" d="M66 500q0 139 57 255t169 188.5t259 72.5q214 0 339.5 -143.5t125.5 -378.5v-76h-707q3 -111 91.5 -174.5t228.5 -63.5q149 0 293 39l45 -180q-168 -55 -340 -55q-265 0 -413 140.5t-148 375.5zM311 594h467q-11 110 -68 169.5t-159 59.5q-99 0 -163 -58.5t-77 -170.5z " />
<glyph unicode="f" horiz-adv-x="733" d="M61 813v170h136v88q0 344 327 344q93 0 199 -29l-29 -178q-56 11 -116 11q-70 0 -101 -33t-31 -107v-96h193v-170h-193v-813h-249v813h-136z" />
<glyph unicode="g" horiz-adv-x="1185" d="M66 514q0 100 28 190t80.5 160t135.5 111t186 41q193 0 307 -160v141h250v-880q0 -225 -144.5 -348t-400.5 -123q-186 0 -338 45l33 172q155 -35 276 -35q175 0 249.5 64t74.5 192v80q-54 -71 -134 -109.5t-173 -38.5q-103 0 -186 42t-135.5 112t-80.5 158.5t-28 185.5z M317 514q0 -136 61.5 -219.5t178.5 -83.5q115 0 180.5 74.5t65.5 216.5q0 145 -66 231t-180 86q-117 0 -178.5 -84t-61.5 -221z" />
<glyph unicode="h" horiz-adv-x="1187" d="M143 0v1364h244v-524q50 75 142.5 125.5t197.5 50.5q164 0 246 -102.5t82 -280.5v-633h-250v596q0 197 -176 197q-89 0 -162.5 -69t-73.5 -169v-555h-250z" />
<glyph unicode="i" horiz-adv-x="536" d="M143 0v997h250v-997h-250zM143 1163v240h250v-240h-250z" />
<glyph unicode="j" horiz-adv-x="555" d="M-45 -344l4 197q65 -9 98 -9q67 0 91 35t24 121v997h250v-1024q0 -164 -87 -245.5t-233 -81.5q-89 0 -147 10zM172 1163v240h250v-240h-250z" />
<glyph unicode="k" horiz-adv-x="1110" d="M143 0v1364h250v-752l379 385h299l-483 -489l502 -508h-295l-402 406v-406h-250z" />
<glyph unicode="l" horiz-adv-x="667" d="M133 309v1055h250v-1028q0 -86 25 -119t92 -33q72 0 90 2v-194q-46 -8 -135 -8q-146 0 -234 81t-88 244z" />
<glyph unicode="m" horiz-adv-x="1824" d="M143 0v997h246v-157q51 76 137.5 126t190.5 50q214 0 289 -178q53 73 152 125.5t206 52.5q164 0 246 -102.5t82 -280.5v-633h-250v596q0 197 -176 197q-88 0 -156 -68.5t-68 -169.5v-555h-249v596q0 197 -179 197q-88 0 -154.5 -68.5t-66.5 -169.5v-555h-250z" />
<glyph unicode="n" horiz-adv-x="1189" d="M143 0v997h244v-157q50 75 142.5 125.5t197.5 50.5q164 0 247 -102.5t83 -280.5v-633h-250v596q0 197 -180 197q-89 0 -161.5 -69t-72.5 -169v-555h-250z" />
<glyph unicode="o" horiz-adv-x="1144" d="M66 500q0 137 62 254.5t179 189.5t264 72t264.5 -72t180.5 -189.5t63 -254.5t-63 -254.5t-180.5 -189.5t-264.5 -72t-264 72t-179 189.5t-62 254.5zM317 500q0 -146 67.5 -233t186.5 -87t188.5 87t69.5 233t-69.5 233.5t-188.5 87.5t-186.5 -87.5t-67.5 -233.5z" />
<glyph unicode="p" horiz-adv-x="1204" d="M152 -338v1335h251v-143q56 74 135 118t169 44q103 0 187 -45t136.5 -119.5t80.5 -165t28 -186.5q0 -99 -28 -190.5t-80 -165t-136 -117t-188 -43.5q-190 0 -304 159v-481h-251zM403 500q0 -142 66 -231t178 -89q115 0 177.5 91t62.5 229t-62.5 228.5t-177.5 90.5 q-111 0 -177.5 -89t-66.5 -230z" />
<glyph unicode="q" horiz-adv-x="1193" d="M66 500q0 96 28 186.5t80.5 165t136.5 119.5t187 45q90 0 168.5 -43.5t134.5 -118.5v143h250v-1335h-250v481q-114 -159 -303 -159q-104 0 -188 43.5t-136 117t-80 165t-28 190.5zM315 500q0 -138 63.5 -229t178.5 -91q112 0 178 89t66 231q0 141 -66.5 230t-177.5 89 q-115 0 -178.5 -91t-63.5 -228z" />
<glyph unicode="r" horiz-adv-x="772" d="M143 0v997h244v-180q35 74 134 136.5t206 62.5v-236q-162 0 -248 -91t-86 -245v-444h-250z" />
<glyph unicode="s" horiz-adv-x="983" d="M82 74l55 174q203 -72 350 -72q177 0 177 94q0 42 -34.5 65.5t-156.5 72.5q-89 36 -140.5 60.5t-98 53.5t-68.5 58.5t-34.5 67.5t-12.5 89q0 138 103 208.5t300 70.5q194 0 350 -53l-43 -183q-153 43 -303 43q-95 0 -131.5 -18.5t-36.5 -59.5q0 -44 34 -66.5t161 -72.5 q6 -3 9.5 -4.5t9 -3.5t10.5 -4q69 -27 111.5 -46t83 -41.5t62.5 -43t39 -48.5t23 -59.5t6 -74.5q0 -134 -114.5 -215.5t-303.5 -81.5q-95 0 -203.5 24.5t-203.5 65.5z" />
<glyph unicode="t" horiz-adv-x="720" d="M49 829v168h131v281h250v-281h180v-168h-180v-526q0 -73 30 -100t85 -27q25 0 71 8l23 -184q-70 -16 -143 -16q-146 0 -231 73.5t-85 229.5v542h-131z" />
<glyph unicode="u" horiz-adv-x="1185" d="M129 365v632h250v-594q0 -196 178 -196q89 0 161.5 67.5t72.5 167.5v555h251v-997h-245v160q-50 -75 -141.5 -125.5t-196.5 -50.5q-164 0 -247 101.5t-83 279.5z" />
<glyph unicode="v" horiz-adv-x="1026" d="M16 997h244l254 -739l254 739h242l-373 -997h-248z" />
<glyph unicode="w" horiz-adv-x="1449" d="M10 997h232l180 -712l192 712h220l190 -710l180 710h236l-287 -997h-242l-186 696l-190 -696h-242z" />
<glyph unicode="x" horiz-adv-x="1015" d="M31 0l348 508l-340 489h260l209 -311l211 311h260l-342 -489l348 -508h-258l-219 317l-217 -317h-260z" />
<glyph unicode="y" horiz-adv-x="1011" d="M4 997h244l256 -727l250 727h243l-497 -1335h-242l127 340z" />
<glyph unicode="z" horiz-adv-x="1105" d="M123 0v188l557 621h-514v188h817v-186l-565 -621h575v-190h-870z" />
<glyph unicode="{" horiz-adv-x="661" d="M55 573v181h33q59 0 84 34.5t25 112.5v481q0 103 55 169.5t172 66.5h229v-182h-114q-48 0 -68 -25.5t-20 -77.5v-401q0 -117 -66.5 -190.5t-198.5 -77.5q132 -4 198.5 -78t66.5 -191v-403q0 -51 20 -76t68 -25h114v-184h-229q-117 0 -172 67.5t-55 170.5v483 q0 77 -25 111t-84 34h-33z" />
<glyph unicode="|" horiz-adv-x="600" d="M209 -410v2048h182v-2048h-182z" />
<glyph unicode="}" horiz-adv-x="669" d="M14 -109h117q48 0 68 25t20 76v403q0 117 65 191t197 78q-132 4 -197 77.5t-65 190.5v401q0 52 -20 77.5t-68 25.5h-117v182h232q117 0 172 -66.5t55 -169.5v-481q0 -78 24 -112.5t83 -34.5h34l-2 -181h-32q-59 0 -83 -33.5t-24 -111.5v-483q0 -103 -55 -170.5 t-172 -67.5h-232v184z" />
<glyph unicode="~" horiz-adv-x="1003" d="M45 467q14 41 31 80t43.5 81t56.5 73t71 51t85 20q53 0 108 -25.5t92.5 -55.5t81.5 -55.5t78 -25.5q27 0 51.5 15.5t44 44t31.5 50.5t25 52l114 -57q-17 -53 -41 -101.5t-59 -97t-83 -77.5t-103 -29q-53 0 -108 25.5t-93 56t-82 56t-78 25.5q-27 0 -50.5 -15t-43 -44 t-30.5 -50t-25 -52z" />
<glyph unicode="&#xa1;" horiz-adv-x="655" d="M188 1077v287h279v-287h-279zM199 0v348l67 590h121l70 -590v-348h-258z" />
<glyph unicode="&#xa2;" horiz-adv-x="978" d="M66 500q0 212 142 357t372 157v129h49v-127q139 -3 248 -47l-41 -181q-97 27 -195 27h-12v-627q1 0 4.5 -3t5.5 -3q79 0 197 31l41 -182q-118 -44 -248 -47v-127h-49v129q-230 12 -372 157t-142 357zM315 500q0 -130 67.5 -213.5t197.5 -98.5v625q-130 -15 -197.5 -99 t-67.5 -214z" />
<glyph unicode="&#xa3;" horiz-adv-x="1421" d="M137 0v209h131q82 190 82 364v7h-190v139h170q-76 187 -76 295q0 370 539 370q286 0 481 -67l-39 -213q-202 55 -430 55q-158 0 -224.5 -31.5t-66.5 -107.5q0 -43 10.5 -93t23 -87.5t42.5 -120.5h416v-139h-394v-11q4 -204 -82 -360h695v-209h-1088z" />
<glyph unicode="&#xa4;" horiz-adv-x="1470" d="M45 492v116h176q-4 50 -4 74t4 70h-176v114h197q63 229 261.5 373.5t471.5 144.5q113 0 197 -12t182 -43l-37 -217q-165 41 -311 41q-189 0 -316 -76.5t-178 -210.5h367v-114h-396q-4 -46 -4 -70q0 -49 4 -74h396v-116h-365q52 -132 179 -207.5t313 -75.5q140 0 311 41 l35 -213q-186 -60 -377 -60q-271 0 -469 143.5t-262 371.5h-199z" />
<glyph unicode="&#xa5;" horiz-adv-x="1243" d="M4 1364h264l355 -592l352 592h264l-342 -578h193v-147h-277l-61 -98v-58h338v-147h-338v-336h-260v336h-338v147h338v58l-58 98h-280v147h194z" />
<glyph unicode="&#xa6;" horiz-adv-x="600" d="M209 -410v846h182v-846h-182zM209 793v845h182v-845h-182z" />
<glyph unicode="&#xa7;" horiz-adv-x="1167" d="M106 -256l50 182q236 -82 417 -82q256 0 256 138q0 52 -42 79t-197 85q-40 16 -62 24q-203 78 -288.5 161.5t-85.5 223.5q0 163 153 252q-82 50 -117.5 111t-35.5 153q0 313 462 313q240 0 408 -57l-33 -190q-169 47 -368 47q-129 0 -184.5 -25.5t-55.5 -85.5 q0 -56 54.5 -89.5t246.5 -109.5q64 -25 105.5 -42.5t85 -39t70 -40.5t51.5 -43t37.5 -50.5t20 -59t7.5 -71.5q0 -77 -43 -152t-123 -126q90 -47 128 -106t38 -160q0 -156 -133 -247t-350 -91q-239 0 -472 98zM385 561q0 -61 49 -100t191 -96l61 -25q62 23 102.5 72.5 t40.5 103.5q0 52 -45.5 80.5t-204.5 90.5q-22 8 -34 13l-51 19q-49 -24 -79 -66t-30 -92z" />
<glyph unicode="&#xa8;" horiz-adv-x="825" d="M127 1147v205h201v-205h-201zM496 1147v205h202v-205h-202z" />
<glyph unicode="&#xa9;" horiz-adv-x="1513" d="M70 682q0 143 52.5 272t143 223.5t219 150.5t273.5 56t273.5 -56t218.5 -150.5t142 -223.5t52 -272t-52 -272.5t-142 -224.5t-218.5 -151.5t-273.5 -56.5t-273.5 56.5t-219 151.5t-143 224.5t-52.5 272.5zM176 682q0 -117 42.5 -226.5t117.5 -193t185 -134t237 -50.5 q168 0 302.5 86t205.5 223.5t71 294.5t-71 294t-205.5 222.5t-302.5 85.5q-127 0 -237 -50t-185 -133.5t-117.5 -192.5t-42.5 -226zM424 682q0 150 108 252t273 102q97 0 192 -28l-20 -109q-97 23 -156 23q-126 0 -196 -66.5t-70 -173.5t70 -172.5t196 -65.5q65 0 156 21 l18 -107q-95 -30 -190 -30q-165 0 -273 102t-108 252z" />
<glyph unicode="&#xaa;" horiz-adv-x="792" d="M96 897q0 93 56 143t159 50h197v55q0 58 -34.5 83t-123.5 25q-102 0 -203 -14l-14 123q113 22 232 22q149 0 230 -61t81 -182v-430h-158v73q-67 -86 -199 -86q-99 0 -161 56t-62 143zM262 897q0 -80 105 -80q65 0 103 38.5t38 100.5v25h-141q-105 0 -105 -84z" />
<glyph unicode="&#xab;" horiz-adv-x="1259" d="M66 498l466 499l111 -102l-373 -395l373 -398l-111 -102zM514 498l467 499l111 -102l-373 -395l373 -398l-109 -102z" />
<glyph unicode="&#xac;" horiz-adv-x="1114" d="M113 401v177h813v-578h-189v401h-624z" />
<glyph unicode="&#xad;" horiz-adv-x="782" d="M117 467v209h549v-209h-549z" />
<glyph unicode="&#xae;" horiz-adv-x="1513" d="M70 682q0 143 52.5 272t143 223.5t219 150.5t273.5 56t273.5 -56t218.5 -150.5t142 -223.5t52 -272t-52 -272.5t-142 -224.5t-218.5 -151.5t-273.5 -56.5t-273.5 56.5t-219 151.5t-143 224.5t-52.5 272.5zM176 682q0 -117 42.5 -226.5t117.5 -193t185 -134t237 -50.5 t236.5 50.5t183 134t115.5 193t42 226.5t-42 226t-115.5 192.5t-183 133.5t-236.5 50t-237 -50t-185 -133.5t-117.5 -192.5t-42.5 -226zM481 338v690h361q96 0 158.5 -64t62.5 -153q0 -65 -36 -117.5t-99 -77.5l205 -278h-160l-191 260h-168v-260h-133zM614 702h203 q48 0 79.5 30t31.5 79q0 48 -32.5 78.5t-78.5 30.5h-203v-218z" />
<glyph unicode="&#xaf;" horiz-adv-x="792" d="M127 1231v112h539v-112h-539z" />
<glyph unicode="&#xb0;" horiz-adv-x="634" d="M96 1163q0 92 64.5 156.5t156.5 64.5t157 -64.5t65 -156.5t-65 -157.5t-157 -65.5t-156.5 65.5t-64.5 157.5zM162 1163q0 -64 45 -109.5t110 -45.5t109.5 45.5t44.5 109.5t-44.5 111t-109.5 47t-110 -47t-45 -111z" />
<glyph unicode="&#xb1;" horiz-adv-x="1206" d="M115 0v162h395v235h-395v181h395v399h186v-399h396v-181h-396v-235h396v-162h-977z" />
<glyph unicode="&#xb2;" horiz-adv-x="1363" d="M0 342v340h340v-340h342v-342h-342v342h-340zM0 1024v340h340v-340h342v-342h340v-340h342v-342h-342v342h-340v340h-342v342h-340zM682 1024v340h340v-340h342v-342h-342v342h-340z" />
<glyph unicode="&#xb3;" horiz-adv-x="1363" d="M0 342v340h340v-340h342v-342h-342v342h-340zM0 1024v340h340v-340h342v-342h340v-340h342v-342h-342v342h-340v340h-342v342h-340zM682 1024v340h340v-340h342v-342h-342v342h-340z" />
<glyph unicode="&#xb4;" horiz-adv-x="671" d="M127 1128l190 267h258l-282 -267h-166z" />
<glyph unicode="&#xb6;" horiz-adv-x="931" d="M45 1063q0 125 88.5 213t212.5 88h397v-1364h-127v1280h-143v-1280h-127v762q-124 0 -212.5 88t-88.5 213z" />
<glyph unicode="&#xb7;" horiz-adv-x="591" d="M158 457v288h276v-288h-276z" />
<glyph unicode="&#xb8;" horiz-adv-x="753" d="M127 -532l29 98q64 -19 151 -19q75 0 115.5 28.5t40.5 78.5q0 46 -36 70t-99 24q-16 0 -148 -8l58 260h135q-30 -110 -43 -145q27 2 61 2q109 0 172.5 -54.5t63.5 -150.5q0 -95 -84.5 -156t-216.5 -61q-107 0 -199 33z" />
<glyph unicode="&#xb9;" horiz-adv-x="1363" d="M0 342v340h340v-340h342v-342h-342v342h-340zM0 1024v340h340v-340h342v-342h340v-340h342v-342h-342v342h-340v340h-342v342h-340zM682 1024v340h340v-340h342v-342h-342v342h-340z" />
<glyph unicode="&#xba;" horiz-adv-x="823" d="M76 1040q0 141 94.5 242.5t241.5 101.5t241.5 -101.5t94.5 -242.5q0 -140 -94.5 -240t-241.5 -100t-241.5 100t-94.5 240zM242 1040q0 -96 46 -153.5t124 -57.5t124 57.5t46 153.5t-46 154.5t-124 58.5t-124 -58.5t-46 -154.5z" />
<glyph unicode="&#xbb;" horiz-adv-x="1259" d="M170 102l371 398l-371 395l109 102l466 -499l-469 -498zM616 102l373 398l-373 395l111 102l467 -499l-467 -498z" />
<glyph unicode="&#xbc;" horiz-adv-x="1363" d="M0 342v340h340v-340h342v-342h-342v342h-340zM0 1024v340h340v-340h342v-342h340v-340h342v-342h-342v342h-340v340h-342v342h-340zM682 1024v340h340v-340h342v-342h-342v342h-340z" />
<glyph unicode="&#xbd;" horiz-adv-x="1363" d="M0 342v340h340v-340h342v-342h-342v342h-340zM0 1024v340h340v-340h342v-342h340v-340h342v-342h-342v342h-340v340h-342v342h-340zM682 1024v340h340v-340h342v-342h-342v342h-340z" />
<glyph unicode="&#xbe;" horiz-adv-x="1363" d="M0 342v340h340v-340h342v-342h-342v342h-340zM0 1024v340h340v-340h342v-342h340v-340h342v-342h-342v342h-340v340h-342v342h-340zM682 1024v340h340v-340h342v-342h-342v342h-340z" />
<glyph unicode="&#xbf;" horiz-adv-x="1144" d="M106 354q0 142 108 285t341 313l111 -151q-25 -24 -77 -73t-71 -68t-54.5 -56.5t-48.5 -58.5t-30.5 -53t-23 -61.5t-5.5 -63.5q0 -88 65.5 -129t209.5 -41q187 0 377 51l41 -199q-106 -33 -230 -52.5t-219 -19.5q-241 0 -367.5 98t-126.5 279zM457 1077v287h276v-287 h-276z" />
<glyph unicode="&#xc0;" d="M25 0l530 1364h233l531 -1364h-258l-117 305h-545l-116 -305h-258zM297 1741h258l190 -266h-165zM465 504h414l-207 592z" />
<glyph unicode="&#xc1;" d="M25 0l530 1364h233l531 -1364h-258l-117 305h-545l-116 -305h-258zM465 504h414l-207 592zM594 1475l190 266h258l-280 -266h-168z" />
<glyph unicode="&#xc2;" d="M25 0l530 1364h233l531 -1364h-258l-117 305h-545l-116 -305h-258zM352 1464l226 269h182l231 -269h-194l-125 146l-125 -146h-195zM465 504h414l-207 592z" />
<glyph unicode="&#xc3;" d="M25 0l530 1364h233l531 -1364h-258l-117 305h-545l-116 -305h-258zM371 1495q12 37 28.5 70t40.5 66t57 53t70 20q45 0 92 -28t87 -55.5t69 -27.5q56 0 105 111l77 -39q-12 -37 -28.5 -70t-40.5 -66t-57 -53t-70 -20q-36 0 -73 17.5t-63 39t-56 39t-54 17.5t-46.5 -21.5 t-32.5 -40.5t-23 -49zM465 504h414l-207 592z" />
<glyph unicode="&#xc4;" d="M25 0l530 1364h233l531 -1364h-258l-117 305h-545l-116 -305h-258zM385 1477v204h203v-204h-203zM465 504h414l-207 592zM756 1477v204h202v-204h-202z" />
<glyph unicode="&#xc5;" d="M25 0l530 1364h233l531 -1364h-258l-117 305h-545l-116 -305h-258zM465 504h414l-207 592zM469 1622q0 83 59 143t142 60q84 0 144 -59.5t60 -143.5q0 -83 -59.5 -142t-142.5 -59q-85 0 -144 59t-59 142zM565 1622q0 -46 28.5 -79.5t76.5 -33.5q49 0 78.5 33.5t29.5 79.5 h2q0 46 -30 80.5t-78 34.5q-49 0 -78 -34t-29 -81z" />
<glyph unicode="&#xc6;" horiz-adv-x="1835" d="M25 0l530 1364h1153v-225h-807l88 -322h656v-225h-598l98 -367h563v-225h-770l-74 305h-463l-116 -305h-260zM467 504h352l-141 592z" />
<glyph unicode="&#xc7;" horiz-adv-x="1337" d="M86 682q0 203 96.5 363t269.5 249.5t392 89.5q220 0 377 -55l-52 -215q-144 39 -292 39q-253 0 -391 -128.5t-138 -342.5q0 -215 138.5 -344t390.5 -129q84 0 145 7.5t147 29.5l52 -209q-166 -60 -377 -60q-219 0 -392 90.5t-269.5 251t-96.5 363.5zM604 -532l29 98 q64 -19 151 -19q75 0 115.5 28.5t40.5 78.5q0 46 -36 70t-99 24q-16 0 -148 -8l58 260h135q-30 -110 -43 -145q27 2 61 2q109 0 172.5 -54.5t63.5 -150.5q0 -95 -84.5 -156t-216.5 -61q-107 0 -199 33z" />
<glyph unicode="&#xc8;" horiz-adv-x="1294" d="M188 0v1364h979v-225h-716v-322h673v-225h-673v-367h716v-225h-979zM334 1741h258l190 -266h-168z" />
<glyph unicode="&#xc9;" horiz-adv-x="1294" d="M188 0v1364h979v-225h-716v-322h673v-225h-673v-367h716v-225h-979zM563 1475l191 266h258l-281 -266h-168z" />
<glyph unicode="&#xca;" horiz-adv-x="1294" d="M188 0v1364h979v-225h-716v-322h673v-225h-673v-367h716v-225h-979zM350 1464l225 269h183l229 -269h-194l-125 146l-125 -146h-193z" />
<glyph unicode="&#xcb;" horiz-adv-x="1294" d="M188 0v1364h979v-225h-716v-322h673v-225h-673v-367h716v-225h-979zM401 1477v204h203v-204h-203zM772 1477v204h201v-204h-201z" />
<glyph unicode="&#xcc;" horiz-adv-x="659" d="M-35 1741h258l191 -266h-166zM199 0v1364h262v-1364h-262z" />
<glyph unicode="&#xcd;" horiz-adv-x="659" d="M199 0v1364h262v-1364h-262zM252 1475l190 266h258l-282 -266h-166z" />
<glyph unicode="&#xce;" horiz-adv-x="659" d="M12 1464l226 269h182l229 -269h-194l-125 146l-125 -146h-193zM199 0v1364h262v-1364h-262z" />
<glyph unicode="&#xcf;" horiz-adv-x="659" d="M43 1477v204h201v-204h-201zM197 0v1364h262v-1364h-262zM412 1477v204h202v-204h-202z" />
<glyph unicode="&#xd0;" horiz-adv-x="1472" d="M86 598v168h158v598h307q251 0 446.5 -87.5t302.5 -242.5t107 -352t-107 -352t-302.5 -242.5t-446.5 -87.5h-307v598h-158zM504 231h94q109 0 204.5 27.5t171.5 81.5t119.5 142t43.5 200t-43.5 200t-119.5 142t-171.5 81.5t-204.5 27.5h-94v-367h276v-168h-276v-367z" />
<glyph unicode="&#xd1;" horiz-adv-x="1570" d="M188 0v1364h256l680 -950v950h258v-1364h-256l-682 950v-950h-256zM475 1495q17 51 40.5 94t66 79t90.5 36q45 0 92 -28t87 -55.5t69 -27.5q55 0 104 111l78 -39q-17 -51 -40.5 -94t-66 -79t-90.5 -36q-37 0 -74.5 17.5t-62.5 39t-55 39t-54 17.5q-59 0 -102 -111z" />
<glyph unicode="&#xd2;" horiz-adv-x="1536" d="M86 680q0 191 89 352.5t246 256.5t347 95t347 -95t246 -256.5t89 -352.5t-89 -352.5t-246 -256t-347 -94.5t-347 94.5t-246 256t-89 352.5zM348 680q0 -207 113.5 -339t306.5 -132t307.5 132t114.5 339t-114.5 340t-307.5 133t-306.5 -133t-113.5 -340zM399 1741h258 l191 -266h-166z" />
<glyph unicode="&#xd3;" horiz-adv-x="1536" d="M86 680q0 191 89 352.5t246 256.5t347 95t347 -95t246 -256.5t89 -352.5t-89 -352.5t-246 -256t-347 -94.5t-347 94.5t-246 256t-89 352.5zM348 680q0 -207 113.5 -339t306.5 -132t307.5 132t114.5 339t-114.5 340t-307.5 133t-306.5 -133t-113.5 -340zM692 1475l191 266 h258l-281 -266h-168z" />
<glyph unicode="&#xd4;" horiz-adv-x="1536" d="M86 680q0 191 89 352.5t246 256.5t347 95t347 -95t246 -256.5t89 -352.5t-89 -352.5t-246 -256t-347 -94.5t-347 94.5t-246 256t-89 352.5zM348 680q0 -207 113.5 -339t306.5 -132t307.5 132t114.5 339t-114.5 340t-307.5 133t-306.5 -133t-113.5 -340zM453 1464l227 269 h180l230 -269h-195l-123 146l-125 -146h-194z" />
<glyph unicode="&#xd5;" horiz-adv-x="1536" d="M86 680q0 191 89 352.5t246 256.5t347 95t347 -95t246 -256.5t89 -352.5t-89 -352.5t-246 -256t-347 -94.5t-347 94.5t-246 256t-89 352.5zM348 680q0 -207 113.5 -339t306.5 -132t307.5 132t114.5 339t-114.5 340t-307.5 133t-306.5 -133t-113.5 -340zM455 1495 q12 37 28.5 70t40.5 66t57 53t70 20q45 0 92 -28t87 -55.5t69 -27.5q56 0 105 111l77 -39q-12 -37 -28.5 -70t-40.5 -66t-57 -53t-70 -20q-36 0 -73 17.5t-63 39t-56 39t-54 17.5t-46.5 -21.5t-32.5 -40.5t-23 -49z" />
<glyph unicode="&#xd6;" horiz-adv-x="1536" d="M86 680q0 191 89 352.5t246 256.5t347 95t347 -95t246 -256.5t89 -352.5t-89 -352.5t-246 -256t-347 -94.5t-347 94.5t-246 256t-89 352.5zM348 680q0 -207 113.5 -339t306.5 -132t307.5 132t114.5 339t-114.5 340t-307.5 133t-306.5 -133t-113.5 -340zM481 1477v204h203 v-204h-203zM852 1477v204h203v-204h-203z" />
<glyph unicode="&#xd7;" horiz-adv-x="1015" d="M96 201l279 278l-279 281l133 133l279 -279l280 279l132 -133l-279 -281l279 -278l-132 -131l-280 278l-279 -278z" />
<glyph unicode="&#xd8;" horiz-adv-x="1536" d="M86 49l164 170q-79 93 -121.5 212.5t-42.5 250.5q0 191 89 352t246 255.5t347 94.5q255 0 446 -167l162 167l74 -71l-164 -170q164 -198 164 -461q0 -191 -89 -353t-246 -257t-347 -95q-254 0 -446 168l-162 -168zM346 682q0 -168 76 -289l629 654q-112 106 -283 106 q-193 0 -307.5 -132t-114.5 -339zM487 315q109 -106 281 -106q193 0 307.5 133t114.5 340q0 164 -76 285z" />
<glyph unicode="&#xd9;" horiz-adv-x="1525" d="M168 545v819h262v-821q0 -154 92.5 -243t241.5 -89q148 0 241 90t93 242v821h260v-819q0 -113 -42 -216t-117.5 -181t-188.5 -124.5t-246 -46.5t-246.5 46.5t-189 124.5t-118 181t-42.5 216zM403 1741h259l190 -266h-168z" />
<glyph unicode="&#xda;" horiz-adv-x="1525" d="M168 545v819h262v-821q0 -154 92.5 -243t241.5 -89q148 0 241 90t93 242v821h260v-819q0 -113 -42 -216t-117.5 -181t-188.5 -124.5t-246 -46.5t-246.5 46.5t-189 124.5t-118 181t-42.5 216zM676 1475l190 266h258l-282 -266h-166z" />
<glyph unicode="&#xdb;" horiz-adv-x="1525" d="M168 545v819h262v-821q0 -154 92.5 -243t241.5 -89q148 0 241 90t93 242v821h260v-819q0 -113 -42 -216t-117.5 -181t-188.5 -124.5t-246 -46.5t-246.5 46.5t-189 124.5t-118 181t-42.5 216zM444 1464l226 269h182l229 -269h-194l-125 146l-125 -146h-193z" />
<glyph unicode="&#xdc;" horiz-adv-x="1525" d="M168 545v819h262v-821q0 -154 92.5 -243t241.5 -89q148 0 241 90t93 242v821h260v-819q0 -113 -42 -216t-117.5 -181t-188.5 -124.5t-246 -46.5t-246.5 46.5t-189 124.5t-118 181t-42.5 216zM477 1477v204h201v-204h-201zM846 1477v204h203v-204h-203z" />
<glyph unicode="&#xdd;" horiz-adv-x="1243" d="M4 1364h264l355 -592l352 592h264l-485 -823v-541h-262v541zM561 1475l191 266h258l-281 -266h-168z" />
<glyph unicode="&#xde;" horiz-adv-x="1372" d="M188 0v1364h261v-234h432q197 0 323.5 -127t126.5 -305t-126.5 -305t-323.5 -127h-432v-266h-261zM449 477h395q94 0 156.5 62.5t62.5 158.5q0 95 -64 157.5t-155 62.5h-395v-441z" />
<glyph unicode="&#xdf;" horiz-adv-x="1308" d="M86 813v168h135v61q0 173 112 273t300 100q198 0 314 -100.5t116 -241.5q0 -63 -21 -116t-51.5 -87.5t-60.5 -62.5t-51 -55.5t-21 -53.5q0 -35 20.5 -56.5t84.5 -53.5q73 -36 116.5 -63.5t79 -64t50 -80.5t14.5 -104q0 -135 -103.5 -215.5t-285.5 -80.5q-60 0 -135.5 16 t-133.5 43l47 172q109 -43 219 -43q72 0 111 28t39 70q0 44 -30.5 74t-121.5 76q-130 67 -176.5 128.5t-46.5 153.5q0 43 21.5 82t52 69.5t60.5 61.5t51.5 70t21.5 82q0 74 -46.5 115t-129.5 41q-75 0 -119.5 -43.5t-44.5 -120.5v-1055h-252v813h-135z" />
<glyph unicode="&#xe0;" horiz-adv-x="1046" d="M72 281q0 140 84 215t239 75h299v84q0 86 -52.5 125t-186.5 39q-137 0 -308 -22l-20 184q161 35 350 35q224 0 345.5 -92t121.5 -275v-649h-239v111q-102 -127 -297 -127q-150 0 -243 83t-93 214zM129 1395h258l191 -267h-166zM322 283q0 -121 155 -121q99 0 158 57.5 t59 151.5v37h-217q-77 0 -116 -29.5t-39 -95.5z" />
<glyph unicode="&#xe1;" horiz-adv-x="1046" d="M72 281q0 140 84 215t239 75h299v84q0 86 -52.5 125t-186.5 39q-137 0 -308 -22l-20 184q161 35 350 35q224 0 345.5 -92t121.5 -275v-649h-239v111q-102 -127 -297 -127q-150 0 -243 83t-93 214zM322 283q0 -121 155 -121q99 0 158 57.5t59 151.5v37h-217 q-77 0 -116 -29.5t-39 -95.5zM399 1128l191 267h258l-283 -267h-166z" />
<glyph unicode="&#xe2;" horiz-adv-x="1046" d="M72 281q0 140 84 215t239 75h299v84q0 86 -52.5 125t-186.5 39q-137 0 -308 -22l-20 184q161 35 350 35q224 0 345.5 -92t121.5 -275v-649h-239v111q-102 -127 -297 -127q-150 0 -243 83t-93 214zM201 1126l225 269h182l230 -269h-195l-125 144l-125 -144h-192zM322 283 q0 -121 155 -121q99 0 158 57.5t59 151.5v37h-217q-77 0 -116 -29.5t-39 -95.5z" />
<glyph unicode="&#xe3;" horiz-adv-x="1046" d="M72 281q0 140 84 215t239 75h299v84q0 86 -52.5 125t-186.5 39q-137 0 -308 -22l-20 184q161 35 350 35q224 0 345.5 -92t121.5 -275v-649h-239v111q-102 -127 -297 -127q-150 0 -243 83t-93 214zM221 1171q17 51 40.5 94t66 79t90.5 36q36 0 73.5 -17t63.5 -38t56.5 -38 t54.5 -17q56 0 104 110l78 -39q-12 -36 -29 -69.5t-41 -66.5t-57 -52.5t-70 -19.5q-45 0 -91 28t-85.5 56t-68.5 28q-55 0 -103 -110zM322 283q0 -121 155 -121q99 0 158 57.5t59 151.5v37h-217q-77 0 -116 -29.5t-39 -95.5z" />
<glyph unicode="&#xe4;" horiz-adv-x="1046" d="M72 281q0 140 84 215t239 75h299v84q0 86 -52.5 125t-186.5 39q-137 0 -308 -22l-20 184q161 35 350 35q224 0 345.5 -92t121.5 -275v-649h-239v111q-102 -127 -297 -127q-150 0 -243 83t-93 214zM240 1147v205h200v-205h-200zM322 283q0 -121 155 -121q99 0 158 57.5 t59 151.5v37h-217q-77 0 -116 -29.5t-39 -95.5zM608 1147v205h203v-205h-203z" />
<glyph unicode="&#xe5;" horiz-adv-x="1046" d="M72 281q0 140 84 215t239 75h299v84q0 86 -52.5 125t-186.5 39q-137 0 -308 -22l-20 184q161 35 350 35q224 0 345.5 -92t121.5 -275v-649h-239v111q-102 -127 -297 -127q-150 0 -243 83t-93 214zM307 1303q0 83 59 142.5t142 59.5t143 -59.5t60 -142.5t-60 -143 t-143 -60t-142 60t-59 143zM322 283q0 -121 155 -121q99 0 158 57.5t59 151.5v37h-217q-77 0 -116 -29.5t-39 -95.5zM403 1303q0 -46 28.5 -79.5t76.5 -33.5t78 33.5t30 79.5t-29.5 79t-78.5 33t-77 -32.5t-28 -79.5z" />
<glyph unicode="&#xe6;" horiz-adv-x="1720" d="M72 291q0 140 84.5 215.5t238.5 75.5h297v73q0 86 -52.5 125t-186.5 39q-135 0 -306 -22l-20 184q161 35 348 35q266 0 377 -129q129 129 326 129q214 0 339 -143.5t125 -378.5v-70h-704q3 -115 84 -179.5t235 -64.5q141 0 285 39l45 -180q-162 -55 -334 -55 q-278 0 -426 157q-122 -157 -358 -157q-181 0 -289 87t-108 220zM322 289q0 -62 39.5 -94.5t115.5 -32.5q101 0 158 57t57 152v47h-215q-155 0 -155 -129zM938 588h467q-11 110 -68 172.5t-159 62.5q-98 0 -162.5 -61.5t-77.5 -173.5z" />
<glyph unicode="&#xe7;" horiz-adv-x="995" d="M66 500q0 222 152.5 369t397.5 147q147 0 261 -43l-41 -180q-96 22 -199 22q-158 0 -240 -85.5t-82 -229.5q0 -145 82 -231.5t240 -86.5q81 0 199 31l41 -182q-53 -20 -126.5 -33.5t-134.5 -13.5q-245 0 -397.5 147t-152.5 369zM395 -532l29 98q64 -19 151 -19 q75 0 115.5 28.5t40.5 78.5q0 46 -36 70t-99 24q-15 0 -147 -8l57 260h135q-30 -110 -43 -145q27 2 61 2q109 0 172.5 -54.5t63.5 -150.5q0 -95 -84.5 -156t-216.5 -61q-107 0 -199 33z" />
<glyph unicode="&#xe8;" horiz-adv-x="1093" d="M66 500q0 139 57 255t169 188.5t259 72.5q214 0 339.5 -143.5t125.5 -378.5v-76h-707q3 -111 91.5 -174.5t228.5 -63.5q149 0 293 39l45 -180q-168 -55 -340 -55q-265 0 -413 140.5t-148 375.5zM174 1395h258l191 -267h-166zM311 594h467q-11 110 -68 169.5t-159 59.5 q-99 0 -163 -58.5t-77 -170.5z" />
<glyph unicode="&#xe9;" horiz-adv-x="1093" d="M66 500q0 139 57 255t169 188.5t259 72.5q214 0 339.5 -143.5t125.5 -378.5v-76h-707q3 -111 91.5 -174.5t228.5 -63.5q149 0 293 39l45 -180q-168 -55 -340 -55q-265 0 -413 140.5t-148 375.5zM311 594h467q-11 110 -68 169.5t-159 59.5q-99 0 -163 -58.5t-77 -170.5z M471 1128l191 267h258l-283 -267h-166z" />
<glyph unicode="&#xea;" horiz-adv-x="1093" d="M66 500q0 139 57 255t169 188.5t259 72.5q214 0 339.5 -143.5t125.5 -378.5v-76h-707q3 -111 91.5 -174.5t228.5 -63.5q149 0 293 39l45 -180q-168 -55 -340 -55q-265 0 -413 140.5t-148 375.5zM250 1126l225 269h182l230 -269h-195l-125 144l-125 -144h-192zM311 594 h467q-11 110 -68 169.5t-159 59.5q-99 0 -163 -58.5t-77 -170.5z" />
<glyph unicode="&#xeb;" horiz-adv-x="1093" d="M66 500q0 139 57 255t169 188.5t259 72.5q214 0 339.5 -143.5t125.5 -378.5v-76h-707q3 -111 91.5 -174.5t228.5 -63.5q149 0 293 39l45 -180q-168 -55 -340 -55q-265 0 -413 140.5t-148 375.5zM270 1147v205h201v-205h-201zM311 594h467q-11 110 -68 169.5t-159 59.5 q-99 0 -163 -58.5t-77 -170.5zM639 1147v205h203v-205h-203z" />
<glyph unicode="&#xec;" horiz-adv-x="550" d="M-88 1395h258l190 -267h-165zM145 0v997h250v-997h-250z" />
<glyph unicode="&#xed;" horiz-adv-x="550" d="M143 0v997h250v-997h-250zM176 1128l191 267h258l-283 -267h-166z" />
<glyph unicode="&#xee;" horiz-adv-x="550" d="M-43 1126l225 269h183l229 -269h-195l-125 144l-124 -144h-193zM143 0v997h250v-997h-250z" />
<glyph unicode="&#xef;" horiz-adv-x="550" d="M-8 1147v205h201v-205h-201zM143 0v997h250v-997h-250zM360 1147v205h203v-205h-203z" />
<glyph unicode="&#xf0;" horiz-adv-x="1132" d="M66 500q0 99 28 190.5t80 165t136 117t188 43.5q92 0 168.5 -44t124.5 -122q-21 135 -103 266l-88 -69l-37 45l92 73q-73 101 -192 199h239q52 -40 95 -86l92 72l37 -47l-90 -70q100 -125 157.5 -290.5t57.5 -346.5q0 -99 -18.5 -188t-58.5 -167t-99 -135t-145 -89.5 t-191 -32.5q-114 0 -206 45t-149 119.5t-87.5 165t-30.5 186.5zM313 500q0 -138 63.5 -229t178.5 -91q111 0 177.5 89.5t66.5 230.5q0 142 -66 230.5t-178 88.5q-115 0 -178.5 -91t-63.5 -228z" />
<glyph unicode="&#xf1;" horiz-adv-x="1189" d="M143 0v997h244v-157q50 75 142.5 125.5t197.5 50.5q164 0 247 -102.5t83 -280.5v-633h-250v596q0 197 -180 197q-89 0 -161.5 -69t-72.5 -169v-555h-250zM324 1171q12 37 28.5 70t40.5 66t57 53t70 20q36 0 73.5 -17t63.5 -38t56.5 -38t54.5 -17q56 0 104 110l78 -39 q-12 -37 -28.5 -69.5t-40.5 -66t-57 -53t-70 -19.5q-36 0 -73 17.5t-63 38.5t-56 38.5t-54 17.5q-19 0 -35.5 -10.5t-29.5 -30.5t-20 -33.5t-17 -35.5z" />
<glyph unicode="&#xf2;" horiz-adv-x="1144" d="M66 500q0 137 62 254.5t179 189.5t264 72t264.5 -72t180.5 -189.5t63 -254.5t-63 -254.5t-180.5 -189.5t-264.5 -72t-264 72t-179 189.5t-62 254.5zM172 1395h258l191 -267h-166zM317 500q0 -146 67.5 -233t186.5 -87t188.5 87t69.5 233t-69.5 233.5t-188.5 87.5 t-186.5 -87.5t-67.5 -233.5z" />
<glyph unicode="&#xf3;" horiz-adv-x="1144" d="M66 500q0 137 62 254.5t179 189.5t264 72t264.5 -72t180.5 -189.5t63 -254.5t-63 -254.5t-180.5 -189.5t-264.5 -72t-264 72t-179 189.5t-62 254.5zM317 500q0 -146 67.5 -233t186.5 -87t188.5 87t69.5 233t-69.5 233.5t-188.5 87.5t-186.5 -87.5t-67.5 -233.5zM494 1128 l190 267h258l-283 -267h-165z" />
<glyph unicode="&#xf4;" horiz-adv-x="1144" d="M66 500q0 137 62 254.5t179 189.5t264 72t264.5 -72t180.5 -189.5t63 -254.5t-63 -254.5t-180.5 -189.5t-264.5 -72t-264 72t-179 189.5t-62 254.5zM258 1126l225 269h183l229 -269h-195l-125 144l-124 -144h-193zM317 500q0 -146 67.5 -233t186.5 -87t188.5 87t69.5 233 t-69.5 233.5t-188.5 87.5t-186.5 -87.5t-67.5 -233.5z" />
<glyph unicode="&#xf5;" horiz-adv-x="1144" d="M66 500q0 137 62 254.5t179 189.5t264 72t264.5 -72t180.5 -189.5t63 -254.5t-63 -254.5t-180.5 -189.5t-264.5 -72t-264 72t-179 189.5t-62 254.5zM270 1171q17 51 40.5 94t66 79t90.5 36q36 0 73.5 -17t63.5 -38t56.5 -38t54.5 -17q56 0 104 110l78 -39 q-12 -36 -29 -69.5t-41 -66.5t-57 -52.5t-70 -19.5q-45 0 -91 28t-85.5 56t-68.5 28q-55 0 -103 -110zM317 500q0 -146 67.5 -233t186.5 -87t188.5 87t69.5 233t-69.5 233.5t-188.5 87.5t-186.5 -87.5t-67.5 -233.5z" />
<glyph unicode="&#xf6;" horiz-adv-x="1144" d="M66 500q0 137 62 254.5t179 189.5t264 72t264.5 -72t180.5 -189.5t63 -254.5t-63 -254.5t-180.5 -189.5t-264.5 -72t-264 72t-179 189.5t-62 254.5zM293 1147v205h201v-205h-201zM317 500q0 -146 67.5 -233t186.5 -87t188.5 87t69.5 233t-69.5 233.5t-188.5 87.5 t-186.5 -87.5t-67.5 -233.5zM662 1147v205h202v-205h-202z" />
<glyph unicode="&#xf7;" horiz-adv-x="1165" d="M106 385v170h953v-170h-953zM444 131q0 57 40.5 97t97.5 40t98 -40t41 -97t-41 -97t-98 -40t-97.5 40t-40.5 97zM444 811q0 57 40.5 97t97.5 40t98 -40t41 -97t-41 -98t-98 -41t-97.5 41t-40.5 98z" />
<glyph unicode="&#xf8;" horiz-adv-x="1142" d="M66 39l118 123q-118 143 -118 338q0 137 62 254.5t179 189.5t264 72q195 0 332 -121l119 121l55 -55l-119 -123q119 -144 119 -338q0 -137 -62.5 -254.5t-179.5 -189.5t-264 -72q-190 0 -329 120l-119 -120zM315 500q0 -100 35 -172l400 413q-68 78 -179 78 q-119 0 -187.5 -86.5t-68.5 -232.5zM393 258q68 -78 178 -78q119 0 187.5 87t68.5 233q0 103 -34 172z" />
<glyph unicode="&#xf9;" horiz-adv-x="1185" d="M129 365v632h250v-594q0 -196 178 -196q89 0 161.5 67.5t72.5 167.5v555h251v-997h-245v160q-50 -75 -141.5 -125.5t-196.5 -50.5q-164 0 -247 101.5t-83 279.5zM213 1395h258l191 -267h-166z" />
<glyph unicode="&#xfa;" horiz-adv-x="1185" d="M129 365v632h250v-594q0 -196 178 -196q89 0 161.5 67.5t72.5 167.5v555h251v-997h-245v160q-50 -75 -141.5 -125.5t-196.5 -50.5q-164 0 -247 101.5t-83 279.5zM496 1128l190 267h258l-282 -267h-166z" />
<glyph unicode="&#xfb;" horiz-adv-x="1185" d="M129 365v632h250v-594q0 -196 178 -196q89 0 161.5 67.5t72.5 167.5v555h251v-997h-245v160q-50 -75 -141.5 -125.5t-196.5 -50.5q-164 0 -247 101.5t-83 279.5zM283 1126l225 269h182l230 -269h-195l-125 144l-125 -144h-192z" />
<glyph unicode="&#xfc;" horiz-adv-x="1185" d="M129 365v632h250v-594q0 -196 178 -196q89 0 161.5 67.5t72.5 167.5v555h251v-997h-245v160q-50 -75 -141.5 -125.5t-196.5 -50.5q-164 0 -247 101.5t-83 279.5zM309 1147v205h201v-205h-201zM678 1147v205h203v-205h-203z" />
<glyph unicode="&#xfd;" horiz-adv-x="1011" d="M4 997h244l256 -727l250 727h243l-497 -1335h-242l127 340zM410 1128l190 267h258l-283 -267h-165z" />
<glyph unicode="&#xfe;" horiz-adv-x="1193" d="M143 -336v1700h250v-510q56 75 134.5 118.5t168.5 43.5q103 0 187 -45t136.5 -119.5t80.5 -165t28 -186.5q0 -99 -28 -190.5t-80 -165t-136 -117t-188 -43.5q-189 0 -303 159v-479h-250zM393 500q0 -142 67 -231t179 -89q114 0 177 91.5t63 228.5t-63 228t-177 91 q-111 0 -178.5 -89t-67.5 -230z" />
<glyph unicode="&#xff;" horiz-adv-x="1011" d="M4 997h244l256 -727l250 727h243l-497 -1335h-242l127 340zM225 1147v205h201v-205h-201zM594 1147v205h203v-205h-203z" />
<glyph unicode="&#x152;" horiz-adv-x="2080" d="M86 682q0 143 52.5 269.5t143 217t217 143t269.5 52.5h1186v-225h-717v-322h676v-225h-676v-367h717v-225h-1186q-143 0 -269.5 52.5t-217 143t-143 217t-52.5 269.5zM346 682q0 -204 113.5 -327.5t308.5 -123.5h207v902h-207q-195 0 -308.5 -123.5t-113.5 -327.5z" />
<glyph unicode="&#x153;" horiz-adv-x="1855" d="M66 500q0 137 62 254.5t179 189.5t264 72q116 0 213 -46.5t164 -127.5q137 174 365 174q214 0 339.5 -143.5t125.5 -378.5v-70h-707q3 -115 84.5 -179.5t235.5 -64.5q142 0 286 39l45 -180q-162 -55 -333 -55q-291 0 -441 174q-67 -81 -164 -127.5t-213 -46.5 q-147 0 -264 72t-179 189.5t-62 254.5zM315 500q0 -146 68.5 -233t187.5 -87t187.5 87t68.5 233t-68.5 233.5t-187.5 87.5t-187.5 -87.5t-68.5 -233.5zM1073 588h465q-11 111 -67.5 173t-157.5 62q-98 0 -162.5 -61.5t-77.5 -173.5z" />
<glyph unicode="&#x178;" horiz-adv-x="1243" d="M4 1364h264l355 -592l352 592h264l-485 -823v-541h-262v541zM328 1477v204h202v-204h-202zM698 1477v204h203v-204h-203z" />
<glyph unicode="&#x2c6;" horiz-adv-x="890" d="M127 1126l225 269h183l229 -269h-195l-125 144l-125 -144h-192z" />
<glyph unicode="&#x2dc;" horiz-adv-x="880" d="M127 1171q17 51 40.5 94t66 79t90.5 36q45 0 91.5 -27.5t86.5 -55t69 -27.5q57 0 105 110l78 -39q-12 -36 -29 -69.5t-41 -66.5t-57 -52.5t-70 -19.5q-36 0 -73 17.5t-63 38.5t-56 38.5t-54 17.5q-19 0 -35.5 -10.5t-29.5 -30.5t-20 -33.5t-17 -35.5z" />
<glyph unicode="&#x2000;" horiz-adv-x="912" />
<glyph unicode="&#x2001;" horiz-adv-x="1825" />
<glyph unicode="&#x2002;" horiz-adv-x="912" />
<glyph unicode="&#x2003;" horiz-adv-x="1825" />
<glyph unicode="&#x2004;" horiz-adv-x="608" />
<glyph unicode="&#x2005;" horiz-adv-x="456" />
<glyph unicode="&#x2006;" horiz-adv-x="304" />
<glyph unicode="&#x2007;" horiz-adv-x="304" />
<glyph unicode="&#x2008;" horiz-adv-x="228" />
<glyph unicode="&#x2009;" horiz-adv-x="365" />
<glyph unicode="&#x200a;" horiz-adv-x="101" />
<glyph unicode="&#x2010;" horiz-adv-x="782" d="M117 467v209h549v-209h-549z" />
<glyph unicode="&#x2011;" horiz-adv-x="782" d="M117 467v209h549v-209h-549z" />
<glyph unicode="&#x2012;" horiz-adv-x="782" d="M117 467v209h549v-209h-549z" />
<glyph unicode="&#x2013;" horiz-adv-x="1177" d="M117 467v209h944v-209h-944z" />
<glyph unicode="&#x2014;" horiz-adv-x="1638" d="M117 467v209h1405v-209h-1405z" />
<glyph unicode="&#x2018;" horiz-adv-x="569" d="M158 766v287l141 311h119l-121 -311h137v-287h-276z" />
<glyph unicode="&#x2019;" horiz-adv-x="571" d="M135 1077v287h279v-287l-144 -311h-118l122 311h-139z" />
<glyph unicode="&#x201a;" horiz-adv-x="573" d="M137 0v289h279v-289l-144 -311h-118l120 311h-137z" />
<glyph unicode="&#x201c;" horiz-adv-x="1013" d="M158 766v287l141 311h121l-121 -311h135v-287h-276zM598 766v287l143 311h119l-123 -311h140v-287h-279z" />
<glyph unicode="&#x201d;" horiz-adv-x="1013" d="M137 1077v287h279v-287l-144 -311h-118l120 311h-137zM578 1077v287h278v-287l-143 -311h-119l121 311h-137z" />
<glyph unicode="&#x201e;" horiz-adv-x="1011" d="M137 0v289h277v-289l-142 -311h-120l120 311h-135zM575 0v289h279v-289l-143 -311h-119l123 311h-140z" />
<glyph unicode="&#x2022;" horiz-adv-x="636" d="M96 729q0 92 64.5 157.5t156.5 65.5t158 -65.5t66 -157.5t-65.5 -156.5t-158.5 -64.5q-92 0 -156.5 64.5t-64.5 156.5z" />
<glyph unicode="&#x2026;" horiz-adv-x="1775" d="M158 0v289h276v-289h-276zM748 0v289h278v-289h-278zM1339 0v289h279v-289h-279z" />
<glyph unicode="&#x202f;" horiz-adv-x="365" />
<glyph unicode="&#x2039;" horiz-adv-x="811" d="M66 498l469 499l108 -102l-371 -395l371 -398l-108 -102z" />
<glyph unicode="&#x203a;" horiz-adv-x="808" d="M168 102l371 398l-371 395l108 102l467 -499l-467 -498z" />
<glyph unicode="&#x205f;" horiz-adv-x="456" />
<glyph unicode="&#x20ac;" horiz-adv-x="1470" d="M45 492v116h176q-4 50 -4 74t4 70h-176v114h197q63 229 261.5 373.5t471.5 144.5q113 0 197 -12t182 -43l-37 -217q-165 41 -311 41q-189 0 -316 -76.5t-178 -210.5h367v-114h-396q-4 -46 -4 -70q0 -49 4 -74h396v-116h-365q52 -132 179 -207.5t313 -75.5q140 0 311 41 l35 -213q-186 -60 -377 -60q-271 0 -469 143.5t-262 371.5h-199z" />
<glyph unicode="&#x2122;" horiz-adv-x="1439" d="M55 1260v104h535v-104h-207v-519h-121v519h-207zM719 741v623h110l207 -367l207 367h111v-623h-113v412l-170 -305h-65l-175 305v-412h-112z" />
<glyph unicode="&#xe000;" horiz-adv-x="993" d="M0 0v993h993v-993h-993z" />
<glyph unicode="&#xfb01;" horiz-adv-x="1257" d="M61 813v170h136v88q0 344 327 344q93 0 199 -29l-29 -178q-56 11 -116 11q-70 0 -101 -33t-31 -107v-96h193v-170h-193v-813h-249v813h-136zM864 0v997h250v-997h-250zM864 1163v240h250v-240h-250z" />
<glyph unicode="&#xfb02;" horiz-adv-x="1404" d="M61 813v170h136v88q0 344 327 344q93 0 199 -29l-29 -178q-56 11 -116 11q-70 0 -101 -33t-31 -107v-96h193v-170h-193v-813h-249v813h-136zM870 309v1055h250v-1028q0 -86 25 -119t92 -33q72 0 90 2v-194q-46 -8 -135 -8q-146 0 -234 81t-88 244z" />
</font>
</defs>
</svg>
