<?xml version="1.0" standalone="no"?>
<!DOCTYPE svg PUBLIC "-//W3C//DTD SVG 1.1//EN" "http://www.w3.org/Graphics/SVG/1.1/DTD/svg11.dtd" >
<svg xmlns="http://www.w3.org/2000/svg">
<metadata></metadata>
<defs>
<font id="relaycond-regularregular" horiz-adv-x="1073" >
<font-face units-per-em="2048" ascent="1638" descent="-410" />
<missing-glyph horiz-adv-x="430" />
<glyph horiz-adv-x="2048" />
<glyph horiz-adv-x="2048" />
<glyph unicode="&#xd;" horiz-adv-x="1024" />
<glyph unicode=" "  horiz-adv-x="430" />
<glyph unicode="&#x09;" horiz-adv-x="430" />
<glyph unicode="&#xa0;" horiz-adv-x="430" />
<glyph unicode="!" horiz-adv-x="604" d="M184 109q0 -53 34 -87t85 -34q49 0 84 33.5t35 87.5q0 47 -35 82.5t-84 35.5q-51 0 -85 -35.5t-34 -82.5zM223 397h162v1047h-162v-1047z" />
<glyph unicode="&#x22;" horiz-adv-x="759" d="M158 926h147v516h-147v-516zM457 926h147v516h-147v-516z" />
<glyph unicode="#" horiz-adv-x="954" d="M53 479h172l-61 -479h131l63 479h179l-64 -479h131l64 479h233v137h-217l27 201h190v137h-172l59 480h-131l-61 -480h-178l61 480h-131l-61 -480h-234v-137h215l-24 -201h-191v-137zM369 612l28 209h189l-29 -209h-188z" />
<glyph unicode="$" horiz-adv-x="903" d="M68 82q47 -29 133 -58.5t198 -33.5v-166h125v172q147 23 225 106.5t78 225.5q0 74 -26.5 137t-69.5 119.5t-97 106.5t-110 97v500q51 -4 100.5 -15t92.5 -28l49 144q-25 12 -87.5 30.5t-154.5 22.5v168h-125v-172q-125 -18 -204.5 -95t-79.5 -219q0 -72 24.5 -131 t64.5 -112.5t91 -101.5t104 -93v-543q-84 4 -157.5 29t-112.5 47zM274 1126q0 66 34 104t91 52v-379q-53 53 -89 108.5t-36 114.5zM524 152v423q59 -57 101.5 -119.5t42.5 -129.5q0 -139 -144 -174z" />
<glyph unicode="%" horiz-adv-x="1566" d="M70 983q0 -211 75.5 -334t210.5 -123t210 123t75 336q0 211 -74.5 335t-210.5 124q-135 0 -210.5 -124t-75.5 -337zM213 983q0 63 8 122.5t24.5 103.5t44 71t66.5 27t67 -27t44 -71t24.5 -103t8.5 -125q0 -63 -8.5 -120.5t-24.5 -101.5t-44 -69.5t-67 -25.5t-66.5 25.5 t-44 69.5t-24.5 102.5t-8 121.5zM424 0h133l586 1434h-135zM926 442q0 -211 75.5 -333.5t210.5 -122.5t210 123.5t75 336.5q0 104 -19.5 188.5t-55.5 144t-89 92t-121 32.5q-135 0 -210.5 -125t-75.5 -336zM1067 444q0 63 8 122t25.5 104t45.5 70.5t66 25.5q39 0 67 -26.5 t45 -70.5t25.5 -103.5t8.5 -125.5t-8.5 -123t-25.5 -100t-45 -68.5t-67 -25.5t-66.5 25.5t-45 70.5t-25.5 102.5t-8 122.5z" />
<glyph unicode="&#x26;" horiz-adv-x="1165" d="M76 367q0 -94 24.5 -166t68.5 -121t104.5 -73.5t129.5 -24.5q119 0 214.5 59t173.5 164l106 -205h182l-188 369q57 113 103 246t81 280l-143 33q-29 -111 -59.5 -210.5t-65.5 -187.5l-387 758h436v156h-682v-39l223 -438q-72 -49 -131 -116t-101 -144.5t-65.5 -164.5 t-23.5 -175zM238 375q0 125 60 251t167 212l254 -494q-59 -98 -132 -153.5t-165 -55.5q-82 0 -133 62.5t-51 177.5z" />
<glyph unicode="'" horiz-adv-x="471" d="M158 926h153v516h-153v-516z" />
<glyph unicode="(" horiz-adv-x="626" d="M121 723q0 -158 23.5 -294t61.5 -248.5t85 -201t94 -151.5l139 74q-45 57 -88 139t-77.5 184.5t-56 227.5t-21.5 268t21.5 268t56 228.5t77.5 185.5t88 139l-139 74q-47 -63 -94 -152.5t-85 -201t-61.5 -247.5t-23.5 -292z" />
<glyph unicode=")" horiz-adv-x="626" d="M104 -98l136 -74q49 63 96 152.5t85 201t61.5 246.5t23.5 293t-23.5 294t-61.5 248.5t-85 200.5t-96 152l-136 -74q43 -57 87.5 -139t78 -184.5t55 -227.5t21.5 -268t-21.5 -268t-55 -228.5t-78 -185.5t-87.5 -139z" />
<glyph unicode="*" horiz-adv-x="987" d="M47 1083l340 -110l-215 -293l109 -80l211 293l210 -293l109 80l-213 291l344 110l-43 129l-340 -112l2 362h-137l4 -360l-340 112z" />
<glyph unicode="+" horiz-adv-x="933" d="M135 629h254v-322h156v322h256v145h-256v322h-156v-322h-254v-145z" />
<glyph unicode="," horiz-adv-x="483" d="M96 -315h127l150 534h-189z" />
<glyph unicode="-" horiz-adv-x="833" d="M135 526h565v152h-565v-152z" />
<glyph unicode="." horiz-adv-x="491" d="M123 113q0 -55 37 -91t86 -36q53 0 87 35.5t34 91.5q0 51 -34 85.5t-87 34.5q-49 0 -86 -34.5t-37 -85.5z" />
<glyph unicode="/" horiz-adv-x="780" d="M55 0h154l518 1444h-156z" />
<glyph unicode="0" horiz-adv-x="1083" d="M102 713q0 -166 30 -300t86 -229.5t138.5 -146.5t186.5 -51t186 51t137.5 146.5t85 229.5t29.5 300t-29.5 301t-85 230t-137.5 147.5t-186 52.5t-186.5 -52.5t-138.5 -147.5t-86 -230t-30 -301zM266 713q0 117 16.5 221t50.5 182t86 124t124 46t123 -46t84.5 -126 t49 -184.5t15.5 -220.5q0 -115 -15.5 -218.5t-49 -181.5t-84.5 -123t-123 -45t-124 46t-86 124t-50.5 181.5t-16.5 220.5z" />
<glyph unicode="1" horiz-adv-x="575" d="M53 1280h185v-1280h161v1434h-346v-154z" />
<glyph unicode="2" horiz-adv-x="876" d="M41 0h778v150h-512l135 212q74 117 131.5 213.5t98.5 181.5t62.5 163.5t21.5 160.5q0 96 -31 165t-85 113t-130 64.5t-166 20.5q-43 0 -86 -5t-82 -14.5t-70.5 -19.5t-52.5 -19l41 -145q45 16 111.5 30.5t128.5 14.5q129 0 192.5 -49t63.5 -166q0 -57 -17.5 -121.5 t-53.5 -142.5t-91 -173t-129 -212l-258 -391v-31z" />
<glyph unicode="3" horiz-adv-x="862" d="M55 1280h422l-239 -399v-37q59 -10 124.5 -29.5t120 -57.5t89 -99.5t34.5 -153.5q0 -96 -38 -163t-108.5 -109t-171 -62t-225.5 -25l9 -155q156 6 284.5 35.5t221 90t142.5 156t50 232.5q0 113 -38 189.5t-90 126.5t-107.5 77t-92.5 39l275 459v39h-662v-154z" />
<glyph unicode="4" horiz-adv-x="1009" d="M35 317h573v-317h160v317h180v144h-180v983h-74l-659 -1059v-68zM242 461l366 581v-581h-366z" />
<glyph unicode="5" horiz-adv-x="884" d="M90 145l8 -155q156 6 285 35.5t221 90t143.5 155t51.5 231.5q0 121 -42 208t-115 145t-171 91t-211 47l14 287h457v154h-602l-25 -580q121 -4 218.5 -24.5t166 -62.5t105.5 -106.5t37 -156.5q0 -98 -38 -165t-108.5 -109t-170 -61t-224.5 -24z" />
<glyph unicode="6" horiz-adv-x="983" d="M86 532q0 -129 33 -229t89 -171t135 -107.5t171 -36.5q80 0 152.5 29.5t129 88t90.5 146.5t34 205q0 141 -37 230t-93.5 141.5t-124 72t-128.5 19.5q-72 0 -136.5 -21.5t-117.5 -50.5q41 147 128 266t222 240l-119 106q-217 -193 -322.5 -419t-105.5 -509zM246 535 q0 73 6 141q49 37 117.5 64.5t144.5 27.5q47 0 90 -15.5t77 -51t54.5 -96t20.5 -150.5q0 -80 -19.5 -139.5t-52.5 -98.5t-78 -58.5t-94 -19.5q-57 0 -105.5 28t-84 80t-56 124.5t-20.5 163.5z" />
<glyph unicode="7" horiz-adv-x="866" d="M53 1280h539l-402 -1280h164l441 1393v41h-742v-154z" />
<glyph unicode="8" horiz-adv-x="1015" d="M82 401q0 -94 30.5 -171.5t86 -133t134.5 -85t175 -29.5t175 30.5t134 86t86 133t31 174.5q0 150 -65.5 248t-161.5 137q68 33 120 115.5t52 197.5q0 74 -26 137.5t-73 110.5t-115.5 73.5t-156.5 26.5t-156.5 -26.5t-117 -74.5t-73 -112.5t-24.5 -138.5q0 -113 50.5 -194 t119.5 -118q-43 -16 -84 -49.5t-71.5 -84t-50 -114t-19.5 -139.5zM244 414q0 131 72.5 212t191.5 81q57 0 106.5 -21.5t83 -60.5t53 -94.5t19.5 -120.5q0 -135 -74.5 -209t-187.5 -74q-111 0 -187.5 76t-76.5 211zM299 1092q0 98 55.5 154.5t151.5 56.5q98 0 153.5 -58.5 t55.5 -157.5q0 -49 -14.5 -91t-41 -74.5t-65.5 -51t-86 -18.5t-86 19.5t-66.5 51t-42 75.5t-14.5 94z" />
<glyph unicode="9" horiz-adv-x="983" d="M61 975q0 -139 37 -229.5t94.5 -142.5t124 -71.5t127.5 -19.5q72 0 136.5 21.5t115.5 50.5q-41 -147 -126 -266t-220 -238l119 -109q219 195 324.5 420t105.5 508q0 129 -32.5 230.5t-90 171t-135.5 106.5t-170 37q-80 0 -153.5 -29t-131 -87t-91.5 -146t-34 -207z M225 975q0 80 19.5 139.5t53.5 98t79 58t94 19.5q115 0 189.5 -104.5t74.5 -288.5q0 -75 -6 -143q-49 -37 -116.5 -64.5t-141.5 -27.5q-47 0 -92 15t-79 51t-54.5 96.5t-20.5 150.5z" />
<glyph unicode=":" horiz-adv-x="526" d="M143 111q0 -55 35 -90t86 -35t85 34.5t34 90.5q0 49 -34 83.5t-85 34.5t-86 -34.5t-35 -83.5zM143 823q0 -53 35 -87t86 -34t85 34t34 87t-34 87t-85 34t-86 -33.5t-35 -87.5z" />
<glyph unicode=";" horiz-adv-x="526" d="M94 -311h123l150 526h-183zM143 823q0 -53 35 -87t86 -34t85 34t34 87t-34 87t-85 34t-86 -33.5t-35 -87.5z" />
<glyph unicode="&#x3c;" horiz-adv-x="774" d="M137 684l467 -481v203l-287 296l287 304v198l-467 -479v-41z" />
<glyph unicode="=" horiz-adv-x="915" d="M137 401h643v148h-643v-148zM137 799h643v145h-643v-145z" />
<glyph unicode="&#x3e;" horiz-adv-x="774" d="M172 203l465 483v39l-465 479v-200l287 -299l-287 -302v-200z" />
<glyph unicode="?" horiz-adv-x="972" d="M135 1444l15 -150q29 4 60.5 6.5t68.5 2.5q70 0 139 -15.5t124.5 -51.5t89.5 -96.5t34 -148.5q0 -145 -98.5 -226t-258.5 -103v-289h162v182q61 16 124.5 49t116 87t85 130t32.5 178q0 139 -53 228.5t-133 140.5t-175 70.5t-179 19.5q-47 0 -86 -5t-68 -9zM268 111 q0 -53 35 -87t84 -34t83 33.5t34 87.5q0 49 -34 83.5t-83 34.5t-84 -34.5t-35 -83.5z" />
<glyph unicode="@" horiz-adv-x="1376" d="M86 551q0 -172 37 -319.5t113.5 -255t194.5 -169t280 -61.5q117 0 225 29.5t174 70.5l-41 93q-66 -35 -161 -60.5t-197 -25.5q-135 0 -232.5 55t-160 150.5t-91 222.5t-28.5 270t30.5 269t92 221.5t152.5 150.5t212 55t213 -55t154.5 -150.5t94.5 -221.5t32 -269 q0 -94 -9.5 -158.5t-29 -104.5t-48 -57.5t-67.5 -17.5q-72 0 -90 47t-6 137l65 551h-114l-19 -49q-29 18 -70.5 33.5t-97.5 15.5q-86 0 -149.5 -42t-106.5 -114.5t-63.5 -168t-20.5 -199.5q0 -147 64.5 -234.5t195.5 -87.5q53 0 109.5 19.5t103.5 52.5q27 -33 70 -51.5 t109 -18.5t118 24t88.5 76t56 137t19.5 210q0 172 -40 319.5t-116.5 256t-189.5 170t-256 61.5t-255 -61.5t-188.5 -170t-116.5 -256t-40 -319.5zM504 440q0 63 10 130t33.5 119t62.5 86t99 34q37 0 65.5 -7t54.5 -18l-49 -399q-4 -62 6 -111q-35 -16 -67.5 -26t-65.5 -10 q-86 0 -117.5 58t-31.5 144z" />
<glyph unicode="A" d="M35 0h164l92 291h481l92 -291h174l-475 1456h-57zM338 436l194 611l195 -611h-389z" />
<glyph unicode="B" horiz-adv-x="1011" d="M143 0h205q150 0 259.5 29.5t182 83t107.5 128t35 167.5q0 74 -21.5 131t-58.5 100t-87 71.5t-108 45.5q96 31 159 114.5t63 200.5q0 201 -143.5 287t-409.5 86h-183v-1444zM307 154v520h88q180 0 274.5 -67.5t94.5 -192.5q0 -121 -90 -190.5t-289 -69.5h-78zM307 821 v467h72q152 0 243 -51t91 -176q0 -111 -75 -175.5t-241 -64.5h-90z" />
<glyph unicode="C" horiz-adv-x="937" d="M88 721q0 -201 54.5 -341t141.5 -227t194.5 -126t213.5 -39q47 0 93 9t77 21l-35 150q-18 -6 -55 -13.5t-78 -7.5q-92 0 -171 36t-138 109t-93 180.5t-34 248.5t34 247.5t92 178.5t137 107.5t171 35.5q29 0 68 -4t67 -14l33 155q-25 8 -71 17.5t-105 9.5 q-104 0 -210.5 -39t-191.5 -127t-139.5 -227t-54.5 -340z" />
<glyph unicode="D" horiz-adv-x="1087" d="M143 0h115q174 0 311.5 42t232.5 131t145 224t50 324q0 188 -50 324.5t-145 225.5t-232.5 131t-311.5 42h-115v-1444zM309 160v1120h31q254 0 371.5 -148.5t117.5 -414.5q0 -264 -118.5 -410.5t-372.5 -146.5h-29z" />
<glyph unicode="E" horiz-adv-x="913" d="M143 0h674v154h-508v491h387v158h-387v483h494v158h-660v-1444z" />
<glyph unicode="F" horiz-adv-x="866" d="M143 0h166v621h402v155h-402v510h494v158h-660v-1444z" />
<glyph unicode="G" horiz-adv-x="1050" d="M88 723q0 -203 54.5 -343t141.5 -227t196 -127t220 -40q51 0 112.5 10t109.5 29v669h-160v-536q-16 -4 -40 -6t-52 -2q-78 2 -152 36.5t-131 104t-93 177t-36 255.5q0 141 35 247.5t96.5 178.5t146.5 108.5t187 36.5q35 0 78 -7t76 -17l30 157q-31 10 -83 19.5t-105 9.5 q-115 0 -228.5 -39t-202.5 -126t-144.5 -227t-55.5 -341z" />
<glyph unicode="H" horiz-adv-x="1153" d="M143 0h166v649h533v-649h168v1444h-168v-635h-533v635h-166v-1444z" />
<glyph unicode="I" horiz-adv-x="473" d="M152 0h165v1444h-165v-1444z" />
<glyph unicode="J" horiz-adv-x="651" d="M61 8q29 -10 68 -15t80 -5q57 0 111.5 14t97.5 53t68.5 110t25.5 183v1096h-168v-1069q0 -133 -35 -180.5t-114 -47.5q-51 0 -111 15z" />
<glyph unicode="K" horiz-adv-x="1017" d="M143 0h166v596l101 135l378 -731h185l-453 881l414 563h-180l-445 -604v604h-166v-1444z" />
<glyph unicode="L" horiz-adv-x="866" d="M143 0h660v154h-494v1290h-166v-1444z" />
<glyph unicode="M" horiz-adv-x="1359" d="M106 0h156l53 907l340 -880h39l342 888l54 -915h163l-84 1460h-61l-428 -1089l-428 1089h-62z" />
<glyph unicode="N" horiz-adv-x="1146" d="M143 0h158v1010l651 -1020h49v1454h-155v-993l-643 1003h-60v-1454z" />
<glyph unicode="O" horiz-adv-x="1204" d="M98 721q0 -166 35 -302t100.5 -233.5t158.5 -150.5t210 -53t210 54t159.5 151.5t101.5 233.5t35 302t-35 301t-101.5 232.5t-159.5 150.5t-210 53t-210 -53t-158.5 -150.5t-100.5 -233.5t-35 -302zM266 721q0 121 21.5 226.5t64.5 183t105.5 122.5t144.5 45t144.5 -45 t105.5 -123.5t64.5 -184t21.5 -226.5t-21.5 -226.5t-64.5 -183.5t-105.5 -123t-144.5 -45t-144.5 45t-105.5 123t-64.5 184.5t-21.5 227.5z" />
<glyph unicode="P" horiz-adv-x="985" d="M143 0h166v461h56q260 0 406.5 130t146.5 361q0 244 -152 368t-455 124h-168v-1444zM309 616v668h56q197 0 292 -86t95 -246t-95.5 -248t-291.5 -88h-56z" />
<glyph unicode="Q" horiz-adv-x="1204" d="M98 721q0 -166 35 -300t100.5 -230.5t158.5 -148.5t210 -52q74 0 133 20l113 -258h178l-147 336q111 92 170 255t59 380q0 166 -35 301t-101.5 232.5t-159.5 150.5t-210 53t-210 -53t-158.5 -150.5t-100.5 -233.5t-35 -302zM266 721q0 121 21.5 226.5t64.5 183 t105.5 122.5t144.5 45t144.5 -45t105.5 -123.5t64.5 -184t21.5 -226.5q0 -150 -30.5 -279t-94.5 -207l-123 279h-176l160 -362q-37 -10 -72 -11q-82 0 -144.5 45t-105.5 124t-64.5 185.5t-21.5 227.5z" />
<glyph unicode="R" horiz-adv-x="1040" d="M143 0h166v492h51q86 0 160 12l268 -504h185l-297 555q113 57 171 160.5t58 251.5q0 240 -145.5 358.5t-446.5 118.5h-170v-1444zM309 643v641h60q193 0 281.5 -82t88.5 -237q0 -158 -87 -240t-283 -82h-60z" />
<glyph unicode="S" horiz-adv-x="944" d="M59 80q55 -31 155.5 -62.5t223.5 -31.5q207 0 314.5 97t107.5 263q0 80 -28.5 145.5t-74.5 120t-104.5 101.5t-115.5 90q-51 37 -98.5 73.5t-84.5 74.5t-58.5 80t-21.5 91q0 88 58.5 134.5t161.5 46.5q63 0 128.5 -13.5t122.5 -36.5l52 150q-31 16 -109 36.5t-192 20.5 q-82 0 -153 -20.5t-123 -63.5t-81.5 -106.5t-29.5 -149.5q0 -78 28.5 -141.5t74.5 -116.5t105.5 -100t118.5 -92q49 -37 96.5 -75t83 -77t57 -82t21.5 -92q0 -96 -62.5 -150.5t-185.5 -54.5q-98 0 -186 29t-135 53z" />
<glyph unicode="T" horiz-adv-x="968" d="M61 1286h338v-1286h168v1286h338v158h-844v-158z" />
<glyph unicode="U" horiz-adv-x="1136" d="M139 526q0 -283 104.5 -414.5t323.5 -131.5q217 0 323.5 133t106.5 413v918h-161v-912q0 -205 -63.5 -301t-203.5 -96q-139 0 -201.5 96.5t-62.5 300.5v912h-166v-918z" />
<glyph unicode="V" d="M35 1444l473 -1456h59l471 1456h-166l-329 -1032l-334 1032h-174z" />
<glyph unicode="W" horiz-adv-x="1542" d="M35 1444l424 -1460h43l268 977l270 -977h45l424 1460h-163l-283 -987l-266 962h-47l-265 -960l-280 985h-170z" />
<glyph unicode="X" horiz-adv-x="1046" d="M61 0h164l285 602l295 -602h178l-367 750l330 694h-164l-247 -526l-256 526h-181l330 -674z" />
<glyph unicode="Y" horiz-adv-x="1042" d="M35 1444l405 -909v-535h164v539l404 905h-168l-316 -699l-313 699h-176z" />
<glyph unicode="Z" horiz-adv-x="964" d="M72 0h805v154h-572l572 1251v39h-748v-158h510l-567 -1245v-41z" />
<glyph unicode="[" horiz-adv-x="632" d="M141 -154h389v144h-227v1462h227v147h-389v-1753z" />
<glyph unicode="\" horiz-adv-x="782" d="M55 1444l516 -1444h156l-518 1444h-154z" />
<glyph unicode="]" horiz-adv-x="632" d="M100 -10v-144h387v1753h-387v-147h228v-1462h-228z" />
<glyph unicode="^" horiz-adv-x="845" d="M135 629h576v141h-576v-141z" />
<glyph unicode="_" horiz-adv-x="837" d="M-29 -113v-141h893v141h-893z" />
<glyph unicode="`" horiz-adv-x="890" d="M252 1417l154 -354h120l-94 354h-180z" />
<glyph unicode="a" horiz-adv-x="802" d="M66 238q0 -61 19 -107.5t51 -77t75 -47t92 -16.5q76 0 133.5 24.5t104.5 53.5l10 -68h135v547q0 98 -12 173t-43 124t-83 73.5t-132 24.5q-82 0 -161 -17.5t-116 -33.5l37 -137q41 14 97.5 26.5t119.5 12.5q84 0 108.5 -49.5t28.5 -155.5q-100 -6 -185 -28.5 t-147.5 -64.5t-97 -105.5t-34.5 -151.5zM219 244q0 102 81 152t230 61v-267q-39 -23 -88 -41t-108 -18q-55 0 -85 31t-30 82z" />
<glyph unicode="b" horiz-adv-x="884" d="M125 0h127l10 41q35 -23 91.5 -37t109.5 -14q170 0 256 130t86 349q0 223 -85 348t-253 125q-45 0 -95 -15.5t-89 -35.5v569h-158v-1460zM283 166v582q37 18 77.5 30.5t75.5 12.5q57 0 97 -27t65 -72t35 -103.5t10 -121.5t-10 -122.5t-35 -104.5t-64.5 -73t-97.5 -28 q-41 0 -79 7.5t-74 19.5z" />
<glyph unicode="c" horiz-adv-x="702" d="M80 469q0 -115 28.5 -204t78 -150.5t117 -93t145.5 -31.5q55 0 106 12t82 29l-49 133q-25 -10 -59.5 -18.5t-75.5 -8.5q-98 0 -155.5 90t-57.5 240q0 152 57 242t156 90q41 0 74.5 -8.5t58.5 -20.5l49 139q-35 20 -82 32.5t-104 12.5q-78 0 -144.5 -32.5t-117 -95 t-79 -152.5t-28.5 -205z" />
<glyph unicode="d" horiz-adv-x="884" d="M80 465q0 -223 85 -349t255 -126q47 0 100 18.5t94 40.5l7 -49h139v1460h-158v-559q-37 18 -86 29.5t-96 11.5q-170 0 -255 -129t-85 -348zM242 463q0 63 10 122.5t34.5 104.5t64.5 73t100 28q41 0 77.5 -8.5t73.5 -20.5v-582q-37 -18 -78 -29.5t-73 -11.5 q-59 0 -99.5 27t-65 72t-34.5 103t-10 122z" />
<glyph unicode="e" horiz-adv-x="804" d="M80 469q0 -229 100.5 -354t272.5 -125q80 0 148.5 20.5t96.5 36.5l-45 131q-29 -10 -85 -25.5t-111 -15.5q-98 0 -152.5 75t-64.5 206h495q-2 154 -27.5 257t-67.5 164.5t-99.5 88t-122.5 26.5q-68 0 -129.5 -32.5t-107.5 -96t-73.5 -153.5t-27.5 -203zM242 557 q14 117 59 184.5t115 67.5q141 0 157 -252h-331z" />
<glyph unicode="f" horiz-adv-x="552" d="M33 797h139v-797h156v797h188v145h-188v176q0 59 10 96t28.5 58.5t43 30t53.5 8.5q18 0 38.5 -2t41.5 -6l20 143q-25 6 -55.5 10t-58.5 4q-55 0 -105.5 -15t-88.5 -52t-60.5 -98.5t-22.5 -153.5v-199h-139v-145z" />
<glyph unicode="g" horiz-adv-x="835" d="M43 -121q0 -129 97.5 -193.5t273.5 -64.5q86 0 160.5 19.5t130 57.5t87 93t31.5 129q0 82 -28.5 132t-77.5 79t-115.5 41t-142.5 18q-106 8 -162.5 20.5t-56.5 59.5q0 35 22 74q74 -35 158 -35q68 0 127 20.5t103 61.5t69.5 100.5t25.5 139.5q0 76 -22.5 134t-63.5 99 l134 164h-164l-78 -96q-58 22 -125 22h-6q-66 0 -124 -20.5t-101 -61.5t-69 -101t-26 -140q0 -135 74 -219q-35 -33 -58.5 -75t-23.5 -89q0 -102 74 -144q-49 -39 -86 -94t-37 -131zM195 -102q0 47 26.5 89.5t73.5 75.5q35 -4 74 -8t80 -8q49 -4 89 -11t69.5 -21.5t45 -39 t15.5 -63.5q0 -78 -69 -120t-183 -42q-94 0 -157.5 33t-63.5 115zM254 631q0 90 47 136t119 46q78 0 125 -46t47 -136t-47 -138.5t-125 -48.5q-72 0 -119 48.5t-47 138.5z" />
<glyph unicode="h" horiz-adv-x="894" d="M125 0h158v745q35 16 87 29.5t113 13.5q88 0 113 -66.5t25 -201.5v-520h157v575q0 193 -62.5 280t-195.5 87q-70 0 -132 -17.5t-105 -39.5v575h-158v-1460z" />
<glyph unicode="i" horiz-adv-x="421" d="M98 1231q0 -43 33 -77t78 -34t79 34t34 77q0 51 -34 85t-79 34t-78 -34t-33 -85zM131 0h158v942h-158v-942z" />
<glyph unicode="j" horiz-adv-x="421" d="M-80 -358q23 -6 51.5 -10.5t57.5 -4.5q53 0 100 15.5t83 52.5t56.5 98.5t20.5 153.5v995h-158v-993q0 -53 -7 -87t-22.5 -53.5t-37 -26.5t-48.5 -7q-18 0 -37.5 2t-37.5 6zM98 1231q0 -43 33 -77t78 -34t79 34t34 77q0 51 -34 85t-79 34t-78 -34t-33 -85z" />
<glyph unicode="k" horiz-adv-x="796" d="M125 0h158v375l75 92l246 -467h172l-315 594l282 348h-165l-295 -362v884h-158v-1464z" />
<glyph unicode="l" horiz-adv-x="421" d="M131 0h158v1460h-158v-1460z" />
<glyph unicode="m" horiz-adv-x="1357" d="M125 0h158v745q35 16 87 29.5t113 13.5q43 0 67.5 -16t37 -50t15.5 -84t3 -118v-520h158v586q0 86 -12 151q41 18 92 34.5t117 16.5q43 0 67.5 -16t36.5 -50t15 -84t3 -118v-520h160v575q0 193 -56.5 280t-189.5 87q-76 0 -148 -22.5t-142 -61.5q-57 84 -187 84 q-72 0 -138.5 -20.5t-109.5 -42.5l-8 63h-139v-942z" />
<glyph unicode="n" horiz-adv-x="894" d="M125 0h158v745q35 16 87 29.5t113 13.5q88 0 113 -66.5t25 -201.5v-520h157v575q0 193 -62.5 280t-195.5 87q-72 0 -138.5 -20t-109.5 -43l-8 63h-139v-942z" />
<glyph unicode="o" horiz-adv-x="886" d="M78 469q0 -121 28.5 -210t79 -149.5t116.5 -90t140 -29.5t140.5 29.5t117 90t79 149.5t28.5 210q0 119 -28.5 210t-79 152.5t-117 92t-140.5 30.5t-140 -30.5t-116.5 -92t-79 -152.5t-28.5 -210zM240 465q0 154 54 244t148 90q92 0 148.5 -90.5t56.5 -243.5 q0 -154 -56.5 -240t-148.5 -86q-94 0 -148 86t-54 240z" />
<glyph unicode="p" horiz-adv-x="884" d="M125 -369h158v400q37 -18 85 -29.5t95 -11.5q86 0 149.5 33.5t106.5 96t64.5 151.5t21.5 198q0 223 -85 348t-253 125q-47 0 -101.5 -17.5t-93.5 -37.5l-8 55h-139v-1311zM283 166v582q37 18 77.5 30.5t75.5 12.5q57 0 97 -27t65 -72t35 -103.5t10 -121.5t-10 -121.5 t-35 -104.5t-64.5 -74t-97.5 -28q-41 0 -78.5 7.5t-74.5 19.5z" />
<glyph unicode="q" horiz-adv-x="884" d="M80 465q0 -223 85 -349t255 -126q43 0 92 15.5t90 35.5v-410h158v1311h-135l-9 -47q-37 23 -90 35t-106 12q-170 0 -255 -129t-85 -348zM242 463q0 63 10 122.5t34.5 104.5t64.5 73t100 28q41 0 77.5 -8.5t73.5 -20.5v-582q-37 -18 -78 -29.5t-73 -11.5q-59 0 -99.5 27 t-65 72t-34.5 103t-10 122z" />
<glyph unicode="r" horiz-adv-x="585" d="M125 0h158v702q47 29 108.5 53.5t136.5 41.5v161q-72 -16 -140.5 -47.5t-113.5 -62.5l-10 94h-139v-942z" />
<glyph unicode="s" horiz-adv-x="720" d="M53 57q39 -23 114 -46t173 -23q143 0 228 65.5t85 190.5q0 61 -21.5 107t-56 81t-77.5 62.5t-86 52.5q-68 37 -120 73.5t-52 90.5q0 47 30.5 72.5t108.5 25.5q47 0 100 -12.5t88 -28.5l49 137q-43 18 -104 33.5t-135 15.5q-131 0 -211 -62.5t-80 -182.5 q0 -61 22.5 -106.5t57.5 -80.5t79 -61.5t87 -50.5q66 -35 116 -73t50 -97q0 -106 -160 -107q-59 0 -122.5 17.5t-106.5 37.5z" />
<glyph unicode="t" horiz-adv-x="589" d="M20 797h136v-545q0 -150 69.5 -207t184.5 -57q41 0 74.5 4t60.5 10l-19 137q-20 -4 -41.5 -6t-46.5 -2q-66 0 -95.5 26.5t-29.5 110.5v529h201v145h-201v309h-157v-309h-136v-145z" />
<glyph unicode="u" horiz-adv-x="892" d="M117 356q0 -190 62.5 -279t195.5 -89q72 0 137.5 20.5t110.5 42.5l6 -51h137v942h-156v-758q-35 -16 -86 -29.5t-112 -13.5q-88 0 -113 66.5t-25 202.5v532h-157v-586z" />
<glyph unicode="v" horiz-adv-x="774" d="M14 942l342 -954h62l342 954h-152l-217 -610l-215 610h-162z" />
<glyph unicode="w" horiz-adv-x="1146" d="M14 942l312 -954h41l208 600l205 -600h43l310 954h-146l-188 -584l-201 576h-37l-199 -578l-188 586h-160z" />
<glyph unicode="x" horiz-adv-x="739" d="M20 0h154l184 356l193 -356h166l-260 479l245 463h-153l-168 -324l-176 324h-166l242 -446z" />
<glyph unicode="y" horiz-adv-x="768" d="M14 942l291 -917l-129 -394h150l426 1311h-148l-219 -672l-211 672h-160z" />
<glyph unicode="z" horiz-adv-x="727" d="M51 0h629v141h-401l387 774v27h-570v-145h340l-385 -770v-27z" />
<glyph unicode="{" horiz-adv-x="710" d="M39 647h108q59 0 79 -36t12 -93l-35 -278q-27 -207 76.5 -301.5t298.5 -94.5h30v146q-74 0 -125 11t-79.5 40t-38 76t1.5 121l32 239q25 211 -135 244q82 23 115 82t20 164l-32 237q-10 74 -2 122t37.5 76t81 39t124.5 11v147h-30q-98 0 -174 -22.5t-126.5 -70.5 t-71 -122.5t-5.5 -177.5l37 -284q8 -55 -12.5 -92t-78.5 -37h-108v-146z" />
<glyph unicode="|" horiz-adv-x="487" d="M166 -154h156v1753h-156v-1753z" />
<glyph unicode="}" horiz-adv-x="710" d="M100 -10v-146h35q96 0 172 22.5t125 71t68.5 123t7.5 179.5l-37 280q-8 57 11.5 93t78.5 36h109v144h-109q-57 0 -77.5 37.5t-12.5 93.5l37 282q12 102 -7.5 177t-68.5 123t-125 70.5t-172 22.5h-35v-147q74 0 125 -11t80 -39t38 -75t-1 -121l-31 -239q-12 -104 21 -164 t112 -82q-158 -37 -133 -244l31 -239q10 -74 2 -121t-38 -76t-80 -40t-126 -11z" />
<glyph unicode="~" horiz-adv-x="890" d="M160 1075l127 -16q10 57 21 94t40 37q18 0 40 -20.5t48.5 -44t56 -44t64.5 -20.5q74 0 114 72.5t58 199.5l-125 17q-10 -59 -21.5 -98.5t-39.5 -39.5q-18 0 -40 20.5t-47.5 45.5t-56 45t-65.5 20q-70 0 -113 -71.5t-61 -196.5z" />
<glyph unicode="&#xa1;" horiz-adv-x="606" d="M184 944q0 -49 34 -83t85 -34q49 0 84 34t35 83q0 53 -35 87t-84 34q-51 0 -85 -34t-34 -87zM221 -389h162v1046h-162v-1046z" />
<glyph unicode="&#xa2;" horiz-adv-x="690" d="M80 469q0 -199 78.5 -318.5t201.5 -152.5v-178h119v170q47 4 89 14t69 25l-47 131q-23 -8 -50.5 -15.5t-60.5 -11.5v672q33 -2 59.5 -9.5t47.5 -17.5l49 135q-29 16 -69 27.5t-87 15.5v158h-119v-168q-123 -33 -201.5 -155.5t-78.5 -321.5zM238 469q0 111 32.5 192.5 t89.5 116.5v-620q-59 37 -90.5 117.5t-31.5 193.5z" />
<glyph unicode="&#xa3;" horiz-adv-x="878" d="M29 649h161q23 -94 23 -170q0 -57 -9 -108.5t-28.5 -103.5t-49.5 -109.5t-73 -126.5v-31h748v150h-510q35 66 60.5 145.5t25.5 179.5q0 41 -6.5 84t-16.5 90h291v139h-323q-18 76 -34 148t-16 131q0 115 59.5 168t184.5 53q59 0 120.5 -12t102.5 -29l47 144 q-41 18 -118.5 35.5t-159.5 17.5q-86 0 -159 -21.5t-126 -66.5t-82.5 -113.5t-29.5 -163.5q0 -70 14 -143.5t33 -147.5h-129v-139z" />
<glyph unicode="&#xa4;" horiz-adv-x="1017" d="M47 502h193q25 -137 81 -234.5t130.5 -159t161.5 -90t178 -28.5q47 0 88 9t69 21l-30 146q-20 -4 -52 -12.5t-73 -8.5q-141 0 -244 89.5t-143 267.5h382v129h-403q0 20 -1 41.5t-1 44.5q0 57 6 110h399v129h-378q45 164 144 246t237 82q29 0 62.5 -5t64.5 -15l28 151 q-23 8 -63.5 17.5t-100.5 9.5q-86 0 -170 -28t-156.5 -86t-128 -150.5t-83.5 -221.5h-197v-129h178q-2 -27 -3 -54.5t-1 -55.5v-43t2 -43h-176v-129z" />
<glyph unicode="&#xa5;" horiz-adv-x="1013" d="M45 1434l287 -646h-232v-141h293l35 -78v-123h-328v-139h328v-307h162v307h321v139h-321v136l28 65h293v141h-229l289 646h-158l-299 -676l-301 676h-168z" />
<glyph unicode="&#xa6;" horiz-adv-x="487" d="M166 -154h156v746h-156v-746zM166 854h156v745h-156v-745z" />
<glyph unicode="&#xa7;" horiz-adv-x="864" d="M88 899q0 -203 128 -345t374 -189q-45 -98 -148.5 -163t-281.5 -75v-141q150 6 265.5 51t194 117.5t118.5 169t40 206.5q0 203 -128 346.5t-374 188.5q45 98 152 161.5t287 73.5v144q-152 -6 -268.5 -51t-196.5 -118t-121 -169t-41 -207zM240 895v18q0 9 2 17 q190 -35 286.5 -141.5t96.5 -251.5v-19q0 -8 -2 -18q-190 37 -286.5 142.5t-96.5 252.5z" />
<glyph unicode="&#xa8;" horiz-adv-x="892" d="M188 1186q0 -45 32 -75t73 -30q43 0 73.5 30t30.5 75t-30.5 75.5t-73.5 30.5q-41 0 -73 -30.5t-32 -75.5zM496 1186q0 -45 31.5 -75t72.5 -30q43 0 72.5 30t29.5 75t-29.5 75.5t-72.5 30.5q-41 0 -72.5 -30.5t-31.5 -75.5z" />
<glyph unicode="&#xa9;" horiz-adv-x="1247" d="M88 723q0 -164 39 -300t109.5 -234.5t169 -153.5t217.5 -55q117 0 216 55t169.5 153.5t110.5 234.5t40 300q0 162 -40 298t-110.5 234.5t-170 153.5t-215.5 55q-119 0 -217.5 -55t-169 -153.5t-109.5 -234.5t-39 -298zM190 723q0 137 31 254t87.5 203t136 134t178.5 48 q98 0 177 -48t136 -134t88 -203t31 -254t-31 -254t-88 -203t-136 -135t-177 -49t-178 49t-136.5 135t-87.5 203t-31 254zM317 721q0 -123 29 -210t77 -142.5t109.5 -80t129.5 -24.5q47 0 89 11.5t72 27.5l-37 115q-27 -10 -58.5 -19.5t-65.5 -9.5q-94 0 -153.5 85t-59.5 247 q0 160 58 244t155 84q27 0 59.5 -6.5t64.5 -16.5l35 117q-25 12 -66.5 23.5t-95.5 11.5q-66 0 -128 -26t-109 -80t-76 -141t-29 -210z" />
<glyph unicode="&#xaa;" horiz-adv-x="708" d="M104 897q0 -96 56.5 -144t132.5 -48q53 0 96 16t76 39l6 -47h121v424q0 156 -43 230.5t-170 74.5q-61 0 -123.5 -15.5t-93.5 -29.5l31 -113q31 10 75.5 20.5t93.5 10.5q59 0 77 -36t20 -112q-80 -6 -144.5 -22.5t-111.5 -49t-73 -80.5t-26 -118zM129 489h463v127h-463 v-127zM238 905q0 74 57 110t164 42v-191q-29 -18 -65 -30.5t-77 -12.5q-39 0 -59 22.5t-20 59.5z" />
<glyph unicode="&#xab;" horiz-adv-x="964" d="M113 473l190 -473h160l-193 473l193 469h-160zM502 473l190 -473h158l-191 473l191 469h-158z" />
<glyph unicode="&#xac;" horiz-adv-x="1251" d="M20 942l377 -375l-143 -598l373 369l368 -369l-141 596l377 377h-467l-139 582l-140 -582h-465z" />
<glyph unicode="&#xad;" horiz-adv-x="833" d="M135 526h565v152h-565v-152z" />
<glyph unicode="&#xae;" horiz-adv-x="1247" d="M88 723q0 -164 39 -300t109.5 -234.5t169 -153.5t217.5 -55q117 0 216 55t169.5 153.5t110.5 234.5t40 300q0 162 -40 298t-110.5 234.5t-170 153.5t-215.5 55q-119 0 -217.5 -55t-169 -153.5t-109.5 -234.5t-39 -298zM190 723q0 137 31 254t87.5 203t136 134t178.5 48 q98 0 177 -48t136 -134t88 -203t31 -254t-31 -254t-88 -203t-136 -135t-177 -49t-178 49t-136.5 135t-87.5 203t-31 254zM391 313h119v273h27q43 0 84 6l151 -279h131l-170 316q127 68 127 231q0 141 -90 209t-256 68h-123v-824zM510 692v330h29q203 0 202 -164 q0 -84 -49 -124t-153 -42h-29z" />
<glyph unicode="&#xaf;" horiz-adv-x="890" d="M215 1075h463v142h-463v-142z" />
<glyph unicode="&#xb0;" horiz-adv-x="833" d="M94 989q0 -106 25.5 -191t69.5 -143.5t103.5 -89t127.5 -30.5q66 0 124 30.5t101 89t68.5 143.5t25.5 191t-25.5 191.5t-68.5 143.5t-101.5 89t-123.5 31q-68 0 -127.5 -31t-103.5 -89t-69.5 -143t-25.5 -192zM229 989q0 66 12.5 123t37 100t60.5 69t81 26q43 0 77.5 -26 t59.5 -69t37 -100t12 -123t-12 -123t-37 -100t-59.5 -68.5t-77.5 -25.5q-45 0 -81 25.5t-60.5 68.5t-37 100.5t-12.5 122.5z" />
<glyph unicode="&#xb1;" horiz-adv-x="1454" d="M33 797h139v-797h156v797h338v-797h159v797h195v145h-195v131q0 127 40 181.5t157 54.5q35 0 70.5 -4.5t70.5 -10.5v-1294h158v1436h-115q-41 10 -90 17t-108 7q-176 0 -259 -92t-83 -299v-127h-338v117q0 104 36.5 147t104.5 43q29 0 58.5 -5t56.5 -11l34 141 q-35 10 -74.5 17.5t-86.5 7.5q-63 0 -115.5 -18.5t-90.5 -58.5t-58.5 -103.5t-20.5 -155.5v-121h-139v-145z" />
<glyph unicode="&#xb2;" horiz-adv-x="720" d="M104 535h508v131h-288l49 75q92 147 147 256t55 205q0 127 -75.5 184.5t-194.5 57.5q-53 0 -106.5 -12.5t-89.5 -30.5l34 -129q80 33 158 33q63 0 97 -24t34 -83q0 -70 -46 -164t-134 -235l-148 -219v-45z" />
<glyph unicode="&#xb3;" horiz-adv-x="665" d="M98 1298h242l-129 -206v-45q39 -4 78 -16.5t69.5 -34t50 -55.5t19.5 -83q0 -109 -86 -150.5t-240 -45.5l7 -138q106 4 192 24.5t145.5 60.5t92 101.5t32.5 145.5q0 63 -19.5 110.5t-48 80t-61 53t-61.5 30.5l156 254v50h-439v-136z" />
<glyph unicode="&#xb4;" horiz-adv-x="890" d="M365 1063h120l154 354h-180z" />
<glyph unicode="&#xb6;" horiz-adv-x="913" d="M59 987q0 -129 56.5 -230.5t177.5 -160.5v-596h158v549q33 -4 67.5 -7t73.5 -3h31v-539h157v1434h-172q-145 0 -248.5 -33t-170 -92.5t-98.5 -141.5t-32 -180zM221 983q0 70 20.5 126t67.5 96t124 61.5t190 21.5v-604q-113 0 -190 21.5t-124 60.5t-67.5 94t-20.5 123z " />
<glyph unicode="&#xb7;" horiz-adv-x="468" d="M111 727q0 -55 35.5 -89t86.5 -34q53 0 89 34t36 89q0 53 -35.5 88t-89.5 35q-51 0 -86.5 -35t-35.5 -88z" />
<glyph unicode="&#xb8;" horiz-adv-x="890" d="M319 -313h170l99 374h-129z" />
<glyph unicode="&#xb9;" horiz-adv-x="550" d="M111 1296h112v-766h142v904h-254v-138z" />
<glyph unicode="&#xba;" horiz-adv-x="753" d="M96 1069q0 -92 22.5 -161.5t60.5 -117t89.5 -71t108.5 -23.5t109.5 23.5t90 71t60 117t22.5 161.5t-22.5 161.5t-61 118t-90 72t-108.5 23.5t-108.5 -23.5t-89.5 -72t-60.5 -118t-22.5 -161.5zM125 489h508v127h-508v-127zM233 1067q0 111 38 178.5t106 67.5t106.5 -67.5 t38.5 -178.5t-37.5 -175.5t-107.5 -64.5q-68 0 -106 64.5t-38 175.5z" />
<glyph unicode="&#xbb;" horiz-adv-x="964" d="M115 0h157l191 471l-191 471h-157l188 -471zM504 0h158l190 471l-190 471h-158l190 -471z" />
<glyph unicode="&#xbc;" horiz-adv-x="1439" d="M111 1296h112v-766h142v904h-254v-138zM322 0h133l585 1434h-135zM743 193h347v-193h137v193h108v126h-108v590h-78l-406 -651v-65zM920 319l170 267v-267h-170z" />
<glyph unicode="&#xbd;" horiz-adv-x="1519" d="M111 1296h112v-766h142v904h-254v-138zM313 0h133l586 1434h-135zM909 0h508v131h-289l50 76q92 147 146 255.5t54 207.5q0 127 -75.5 183t-192.5 56q-55 0 -107.5 -13t-89.5 -32l35 -125q41 16 81 24.5t77 8.5q63 0 98 -24.5t35 -83.5q0 -70 -47 -163t-135 -235 l-148 -221v-45z" />
<glyph unicode="&#xbe;" horiz-adv-x="1454" d="M98 1298h242l-129 -206v-45q39 -4 78 -16.5t69.5 -34t50 -55.5t19.5 -83q0 -109 -86 -150.5t-240 -45.5l7 -138q106 4 192 24.5t145.5 60.5t92 101.5t32.5 145.5q0 63 -19.5 110.5t-48 80t-61 53t-61.5 30.5l156 254v50h-439v-136zM391 0h133l586 1434h-135zM793 193h344 v-193h137v193h108v126h-108v590h-76l-405 -651v-65zM967 319l170 267v-267h-170z" />
<glyph unicode="&#xbf;" horiz-adv-x="972" d="M141 57q0 -139 53.5 -227t133.5 -140t175 -71.5t179 -19.5q47 0 86 4t68 10l-15 149q-29 -4 -59.5 -7t-67.5 -3q-70 0 -139.5 16.5t-124.5 53.5t-90 96t-35 150q0 145 99.5 226t259.5 103v287h-162v-182q-61 -16 -125 -49t-116 -86.5t-86 -130t-34 -179.5zM467 944 q0 -49 34 -83t85 -34q49 0 82.5 34t33.5 83q0 55 -33.5 88t-82.5 33q-51 0 -85 -33t-34 -88z" />
<glyph unicode="&#xc0;" d="M35 0h164l92 291h481l92 -291h174l-475 1456h-57zM338 436l194 611l195 -611h-389zM342 1882l154 -354h120l-94 354h-180z" />
<glyph unicode="&#xc1;" d="M35 0h164l92 291h481l92 -291h174l-475 1456h-57zM338 436l194 611l195 -611h-389zM455 1528h120l154 354h-180z" />
<glyph unicode="&#xc2;" d="M35 0h164l92 291h481l92 -291h174l-475 1456h-57zM276 1520h127l134 168l135 -168h123l-240 399h-37zM338 436l194 611l195 -611h-389z" />
<glyph unicode="&#xc3;" d="M35 0h164l92 291h481l92 -291h174l-475 1456h-57zM250 1540l127 -16q10 57 21.5 94t39.5 37q18 0 40 -20.5t48.5 -44t56 -44t64.5 -20.5q74 0 114 71.5t58 200.5l-125 17q-10 -59 -21 -98.5t-40 -39.5q-18 0 -40 20.5t-47.5 45t-56 45t-65.5 20.5q-70 0 -113 -69.5 t-61 -198.5zM338 436l194 611l195 -611h-389z" />
<glyph unicode="&#xc4;" d="M35 0h164l92 291h481l92 -291h174l-475 1456h-57zM131 1339q0 -43 29.5 -71.5t70.5 -28.5t71 28.5t30 71.5t-30 74t-71 31t-70.5 -31t-29.5 -74zM338 436l194 611l195 -611h-389zM743 1339q0 -43 31 -71.5t72 -28.5t69.5 28.5t28.5 71.5t-28.5 74t-69.5 31t-72 -31 t-31 -74z" />
<glyph unicode="&#xc5;" d="M35 0h164l92 291h481l92 -291h174l-450 1378q53 20 88 75.5t35 131.5q0 98 -50.5 159.5t-128.5 61.5q-76 0 -128 -61.5t-52 -159.5q0 -78 37 -133t90 -76zM338 436l194 611l195 -611h-389zM444 1585q0 63 27 97t61 34q37 0 64 -33.5t27 -97.5q0 -59 -27 -91t-64 -32 q-35 0 -61.5 32t-26.5 91z" />
<glyph unicode="&#xc6;" horiz-adv-x="1533" d="M20 0h164l176 369h406v-369h672v154h-510v491h389v158h-389v483h495v158h-714zM430 518l336 711v-711h-336z" />
<glyph unicode="&#xc7;" horiz-adv-x="937" d="M88 721q0 -152 32 -267.5t85 -200.5t123.5 -140t150.5 -86l-127 -340h170l80 307q45 -6 90 -6q47 0 93 9t77 21l-35 150q-18 -6 -55 -13.5t-78 -7.5q-92 0 -171 36t-138 109t-93 180.5t-34 248.5t34 247.5t92 178.5t137 107.5t171 35.5q29 0 68 -4t67 -14l33 155 q-25 8 -71 17.5t-105 9.5q-104 0 -210.5 -39t-191.5 -127t-139.5 -227t-54.5 -340z" />
<glyph unicode="&#xc8;" horiz-adv-x="913" d="M143 0h674v154h-508v491h387v158h-387v483h494v158h-660v-1444zM266 1882l154 -354h121l-95 354h-180z" />
<glyph unicode="&#xc9;" horiz-adv-x="913" d="M143 0h674v154h-508v491h387v158h-387v483h494v158h-660v-1444zM379 1528h121l153 354h-180z" />
<glyph unicode="&#xca;" horiz-adv-x="913" d="M143 0h674v154h-508v491h387v158h-387v483h494v158h-660v-1444zM201 1528h127l133 168l135 -168h123l-240 399h-37z" />
<glyph unicode="&#xcb;" horiz-adv-x="913" d="M143 0h674v154h-508v491h387v158h-387v483h494v158h-660v-1444zM203 1651q0 -45 31.5 -75t72.5 -30q43 0 74 30t31 75t-31 75.5t-74 30.5q-41 0 -72.5 -30.5t-31.5 -75.5zM510 1651q0 -45 31.5 -75t72.5 -30q43 0 73 30t30 75t-30 75.5t-73 30.5q-41 0 -72.5 -30.5 t-31.5 -75.5z" />
<glyph unicode="&#xcc;" horiz-adv-x="473" d="M29 1882l153 -354h121l-94 354h-180zM152 0h165v1444h-165v-1444z" />
<glyph unicode="&#xcd;" horiz-adv-x="473" d="M152 0h165v1444h-165v-1444zM168 1528h121l153 354h-180z" />
<glyph unicode="&#xce;" horiz-adv-x="473" d="M-25 1528h127l134 168l135 -168h123l-240 399h-37zM152 0h165v1444h-165v-1444z" />
<glyph unicode="&#xcf;" horiz-adv-x="473" d="M-23 1651q0 -45 32 -75t73 -30q43 0 73.5 30t30.5 75t-30.5 75.5t-73.5 30.5q-41 0 -73 -30.5t-32 -75.5zM152 0h165v1444h-165v-1444zM285 1651q0 -45 31.5 -75t72.5 -30q43 0 73 30t30 75t-30 75.5t-73 30.5q-41 0 -72.5 -30.5t-31.5 -75.5z" />
<glyph unicode="&#xd0;" horiz-adv-x="1087" d="M18 653h125v-653h115q174 0 311.5 42t232.5 131t145 224t50 324q0 188 -50 324.5t-145 225.5t-232.5 131t-311.5 42h-115v-643h-125v-148zM309 160v493h236v148h-236v479h31q254 0 371.5 -148.5t117.5 -414.5q0 -264 -118.5 -410.5t-372.5 -146.5h-29z" />
<glyph unicode="&#xd1;" horiz-adv-x="1146" d="M143 0h158v1010l651 -1020h49v1454h-155v-993l-643 1003h-60v-1454zM287 1540l127 -16q10 57 21 94t40 37q18 0 40 -20.5t48.5 -44t56 -44t64.5 -20.5q74 0 114 71.5t58 200.5l-125 17q-10 -59 -21.5 -98.5t-39.5 -39.5q-18 0 -40 20.5t-47.5 45t-56 45t-65.5 20.5 q-70 0 -113 -69.5t-61 -198.5z" />
<glyph unicode="&#xd2;" horiz-adv-x="1204" d="M98 721q0 -166 35 -302t100.5 -233.5t158.5 -150.5t210 -53t210 54t159.5 151.5t101.5 233.5t35 302t-35 301t-101.5 232.5t-159.5 150.5t-210 53t-210 -53t-158.5 -150.5t-100.5 -233.5t-35 -302zM266 721q0 121 21.5 226.5t64.5 183t105.5 122.5t144.5 45t144.5 -45 t105.5 -123.5t64.5 -184t21.5 -226.5t-21.5 -226.5t-64.5 -183.5t-105.5 -123t-144.5 -45t-144.5 45t-105.5 123t-64.5 184.5t-21.5 227.5zM418 1882l153 -354h121l-94 354h-180z" />
<glyph unicode="&#xd3;" horiz-adv-x="1204" d="M98 721q0 -166 35 -302t100.5 -233.5t158.5 -150.5t210 -53t210 54t159.5 151.5t101.5 233.5t35 302t-35 301t-101.5 232.5t-159.5 150.5t-210 53t-210 -53t-158.5 -150.5t-100.5 -233.5t-35 -302zM266 721q0 121 21.5 226.5t64.5 183t105.5 122.5t144.5 45t144.5 -45 t105.5 -123.5t64.5 -184t21.5 -226.5t-21.5 -226.5t-64.5 -183.5t-105.5 -123t-144.5 -45t-144.5 45t-105.5 123t-64.5 184.5t-21.5 227.5zM514 1528h121l153 354h-180z" />
<glyph unicode="&#xd4;" horiz-adv-x="1204" d="M98 721q0 -166 35 -302t100.5 -233.5t158.5 -150.5t210 -53t210 54t159.5 151.5t101.5 233.5t35 302t-35 301t-101.5 232.5t-159.5 150.5t-210 53t-210 -53t-158.5 -150.5t-100.5 -233.5t-35 -302zM266 721q0 121 21.5 226.5t64.5 183t105.5 122.5t144.5 45t144.5 -45 t105.5 -123.5t64.5 -184t21.5 -226.5t-21.5 -226.5t-64.5 -183.5t-105.5 -123t-144.5 -45t-144.5 45t-105.5 123t-64.5 184.5t-21.5 227.5zM344 1528h127l133 168l135 -168h123l-239 399h-37z" />
<glyph unicode="&#xd5;" horiz-adv-x="1204" d="M98 721q0 -166 35 -302t100.5 -233.5t158.5 -150.5t210 -53t210 54t159.5 151.5t101.5 233.5t35 302t-35 301t-101.5 232.5t-159.5 150.5t-210 53t-210 -53t-158.5 -150.5t-100.5 -233.5t-35 -302zM266 721q0 121 21.5 226.5t64.5 183t105.5 122.5t144.5 45t144.5 -45 t105.5 -123.5t64.5 -184t21.5 -226.5t-21.5 -226.5t-64.5 -183.5t-105.5 -123t-144.5 -45t-144.5 45t-105.5 123t-64.5 184.5t-21.5 227.5zM317 1540l127 -16q10 57 21.5 94t40.5 37q18 0 39.5 -20.5t48.5 -44t56.5 -44t64.5 -20.5q74 0 113.5 71.5t58.5 200.5l-125 17 q-10 -59 -21.5 -98.5t-40.5 -39.5q-18 0 -39.5 20.5t-47 45t-56.5 45t-65 20.5q-70 0 -113 -69.5t-62 -198.5z" />
<glyph unicode="&#xd6;" horiz-adv-x="1204" d="M98 721q0 -166 35 -302t100.5 -233.5t158.5 -150.5t210 -53t210 54t159.5 151.5t101.5 233.5t35 302t-35 301t-101.5 232.5t-159.5 150.5t-210 53t-210 -53t-158.5 -150.5t-100.5 -233.5t-35 -302zM266 721q0 121 21.5 226.5t64.5 183t105.5 122.5t144.5 45t144.5 -45 t105.5 -123.5t64.5 -184t21.5 -226.5t-21.5 -226.5t-64.5 -183.5t-105.5 -123t-144.5 -45t-144.5 45t-105.5 123t-64.5 184.5t-21.5 227.5zM346 1651q0 -45 32 -75t73 -30q43 0 73.5 30t30.5 75t-30.5 75.5t-73.5 30.5q-41 0 -73 -30.5t-32 -75.5zM653 1651q0 -45 32 -75 t73 -30q43 0 72.5 30t29.5 75t-29.5 75.5t-72.5 30.5q-41 0 -73 -30.5t-32 -75.5z" />
<glyph unicode="&#xd7;" horiz-adv-x="933" d="M131 465l100 -100l236 235l240 -238l98 101l-238 237l238 238l-100 100l-238 -237l-236 237l-100 -100l238 -238z" />
<glyph unicode="&#xd8;" horiz-adv-x="1204" d="M98 721q0 -182 42 -327.5t120 -243.5l-121 -259h127l82 175q109 -84 254 -84q117 0 210 54t159.5 151.5t101.5 233.5t35 302q0 190 -46 340t-132 248l114 243h-129l-75 -163q-53 35 -111.5 52t-126.5 17q-117 0 -210 -53t-158.5 -150.5t-100.5 -233.5t-35 -302zM264 721 q0 121 22.5 227.5t65.5 185t105.5 124t144.5 45.5q96 0 166 -64l-426 -913q-78 160 -78 395zM418 217l432 920q43 -78 65.5 -186.5t22.5 -231.5q0 -121 -21.5 -227.5t-64.5 -184.5t-105.5 -123t-144.5 -45q-53 0 -99 20.5t-85 57.5z" />
<glyph unicode="&#xd9;" horiz-adv-x="1136" d="M139 526q0 -283 104.5 -414.5t323.5 -131.5q217 0 323.5 133t106.5 413v918h-161v-912q0 -205 -63.5 -301t-203.5 -96q-139 0 -201.5 96.5t-62.5 300.5v912h-166v-918zM375 1882l153 -354h121l-94 354h-180z" />
<glyph unicode="&#xda;" horiz-adv-x="1136" d="M139 526q0 -283 104.5 -414.5t323.5 -131.5q217 0 323.5 133t106.5 413v918h-161v-912q0 -205 -63.5 -301t-203.5 -96q-139 0 -201.5 96.5t-62.5 300.5v912h-166v-918zM487 1528h121l154 354h-180z" />
<glyph unicode="&#xdb;" horiz-adv-x="1136" d="M139 526q0 -283 104.5 -414.5t323.5 -131.5q217 0 323.5 133t106.5 413v918h-161v-912q0 -205 -63.5 -301t-203.5 -96q-139 0 -201.5 96.5t-62.5 300.5v912h-166v-918zM309 1528h127l133 168l136 -168h122l-239 399h-37z" />
<glyph unicode="&#xdc;" horiz-adv-x="1136" d="M139 526q0 -283 104.5 -414.5t323.5 -131.5q217 0 323.5 133t106.5 413v918h-161v-912q0 -205 -63.5 -301t-203.5 -96q-139 0 -201.5 96.5t-62.5 300.5v912h-166v-918zM311 1651q0 -45 32 -75t73 -30q43 0 73.5 30t30.5 75t-30.5 75.5t-73.5 30.5q-41 0 -73 -30.5 t-32 -75.5zM618 1651q0 -45 32 -75t73 -30q43 0 72.5 30t29.5 75t-29.5 75.5t-72.5 30.5q-41 0 -73 -30.5t-32 -75.5z" />
<glyph unicode="&#xdd;" horiz-adv-x="1042" d="M35 1444l405 -909v-535h164v539l404 905h-168l-316 -699l-313 699h-176zM440 1528h121l154 354h-180z" />
<glyph unicode="&#xde;" horiz-adv-x="983" d="M143 0h166v258h56q262 4 407.5 129t145.5 365q0 242 -145.5 362.5t-426.5 124.5h-37v205h-166v-1444zM309 414v665h56q203 -2 295 -88t92 -243q0 -160 -91.5 -245t-295.5 -89h-56z" />
<glyph unicode="&#xdf;" horiz-adv-x="958" d="M125 0h158v797h366l-217 -383v-39q63 -14 119.5 -37t97.5 -57.5t64.5 -85t23.5 -119.5q0 -145 -101 -222t-284 -87l4 -150q115 8 214.5 39t172 86t113.5 137t41 193q0 90 -23.5 155.5t-63.5 111.5t-90 74.5t-104 47.5l250 442v39h-583v170q0 59 9 97t26.5 59.5t42 30 t55.5 8.5q18 0 38.5 -3.5t39.5 -5.5l22 144q-25 6 -55.5 10t-61.5 4q-55 0 -105 -15.5t-87 -53t-59.5 -99t-22.5 -153.5v-1135z" />
<glyph unicode="&#xe0;" horiz-adv-x="802" d="M66 238q0 -61 19 -107.5t51 -77t75 -47t92 -16.5q76 0 133.5 24.5t104.5 53.5l10 -68h135v547q0 98 -12 173t-43 124t-83 73.5t-132 24.5q-82 0 -161 -17.5t-116 -33.5l37 -137q41 14 97.5 26.5t119.5 12.5q84 0 108.5 -49.5t28.5 -155.5q-100 -6 -185 -28.5 t-147.5 -64.5t-97 -105.5t-34.5 -151.5zM215 1417l154 -354h120l-94 354h-180zM219 244q0 102 81 152t230 61v-267q-39 -23 -88 -41t-108 -18q-55 0 -85 31t-30 82z" />
<glyph unicode="&#xe1;" horiz-adv-x="802" d="M66 238q0 -61 19 -107.5t51 -77t75 -47t92 -16.5q76 0 133.5 24.5t104.5 53.5l10 -68h135v547q0 98 -12 173t-43 124t-83 73.5t-132 24.5q-82 0 -161 -17.5t-116 -33.5l37 -137q41 14 97.5 26.5t119.5 12.5q84 0 108.5 -49.5t28.5 -155.5q-100 -6 -185 -28.5 t-147.5 -64.5t-97 -105.5t-34.5 -151.5zM219 244q0 102 81 152t230 61v-267q-39 -23 -88 -41t-108 -18q-55 0 -85 31t-30 82zM311 1063h121l154 354h-180z" />
<glyph unicode="&#xe2;" horiz-adv-x="802" d="M66 238q0 -61 19 -107.5t51 -77t75 -47t92 -16.5q76 0 133.5 24.5t104.5 53.5l10 -68h135v547q0 98 -12 173t-43 124t-83 73.5t-132 24.5q-82 0 -161 -17.5t-116 -33.5l37 -137q41 14 97.5 26.5t119.5 12.5q84 0 108.5 -49.5t28.5 -155.5q-100 -6 -185 -28.5 t-147.5 -64.5t-97 -105.5t-34.5 -151.5zM141 1063h127l133 168l136 -168h122l-239 399h-37zM219 244q0 102 81 152t230 61v-267q-39 -23 -88 -41t-108 -18q-55 0 -85 31t-30 82z" />
<glyph unicode="&#xe3;" horiz-adv-x="802" d="M66 238q0 -61 19 -107.5t51 -77t75 -47t92 -16.5q76 0 133.5 24.5t104.5 53.5l10 -68h135v547q0 98 -12 173t-43 124t-83 73.5t-132 24.5q-82 0 -161 -17.5t-116 -33.5l37 -137q41 14 97.5 26.5t119.5 12.5q84 0 108.5 -49.5t28.5 -155.5q-100 -6 -185 -28.5 t-147.5 -64.5t-97 -105.5t-34.5 -151.5zM115 1075l127 -16q10 57 21 94t40 37q18 0 40 -20.5t48.5 -44t56 -44t64.5 -20.5q74 0 114 71.5t58 200.5l-125 17q-10 -59 -21.5 -98.5t-39.5 -39.5q-18 0 -40 20.5t-47.5 45.5t-56 45t-65.5 20q-70 0 -113 -69.5t-61 -198.5z M219 244q0 102 81 152t230 61v-267q-39 -23 -88 -41t-108 -18q-55 0 -85 31t-30 82z" />
<glyph unicode="&#xe4;" horiz-adv-x="802" d="M66 238q0 -61 19 -107.5t51 -77t75 -47t92 -16.5q76 0 133.5 24.5t104.5 53.5l10 -68h135v547q0 98 -12 173t-43 124t-83 73.5t-132 24.5q-82 0 -161 -17.5t-116 -33.5l37 -137q41 14 97.5 26.5t119.5 12.5q84 0 108.5 -49.5t28.5 -155.5q-100 -6 -185 -28.5 t-147.5 -64.5t-97 -105.5t-34.5 -151.5zM143 1186q0 -45 32 -75t73 -30q43 0 73.5 30t30.5 75t-30.5 75.5t-73.5 30.5q-41 0 -73 -30.5t-32 -75.5zM219 244q0 102 81 152t230 61v-267q-39 -23 -88 -41t-108 -18q-55 0 -85 31t-30 82zM451 1186q0 -45 31.5 -75t72.5 -30 q43 0 72.5 30t29.5 75t-29.5 75.5t-72.5 30.5q-41 0 -72.5 -30.5t-31.5 -75.5z" />
<glyph unicode="&#xe5;" horiz-adv-x="802" d="M66 238q0 -61 19 -107.5t51 -77t75 -47t92 -16.5q76 0 133.5 24.5t104.5 53.5l10 -68h135v547q0 98 -12 173t-43 124t-83 73.5t-132 24.5q-82 0 -161 -17.5t-116 -33.5l37 -137q41 14 97.5 26.5t119.5 12.5q84 0 108.5 -49.5t28.5 -155.5q-100 -6 -185 -28.5 t-147.5 -64.5t-97 -105.5t-34.5 -151.5zM219 244q0 102 81 152t230 61v-267q-39 -23 -88 -41t-108 -18q-55 0 -85 31t-30 82zM221 1276q0 -94 53 -155.5t127 -61.5q76 0 127.5 61.5t51.5 155.5q0 98 -50.5 159.5t-128.5 61.5q-76 0 -128 -61.5t-52 -159.5zM313 1276 q0 63 27 97t61 34q37 0 64 -34t27 -97q0 -59 -27 -91t-64 -32q-35 0 -61.5 32t-26.5 91z" />
<glyph unicode="&#xe6;" horiz-adv-x="1247" d="M66 238q0 -61 19 -107.5t52 -77t76 -47t90 -16.5q88 0 167 31.5t155 91.5q47 -61 115.5 -92t154.5 -31q82 0 149.5 20.5t98.5 36.5l-45 131q-29 -10 -85.5 -25.5t-113.5 -15.5q-98 0 -152.5 77t-62.5 208h494q-2 152 -28 254t-68 163.5t-99 88t-123 26.5t-125 -31.5 t-104 -91.5q-53 111 -215 111q-82 0 -161 -17.5t-116 -33.5l37 -137q41 14 96.5 26.5t120.5 12.5q84 0 109.5 -50.5t25.5 -158.5q-98 -6 -183 -27.5t-146.5 -62.5t-97 -104.5t-35.5 -151.5zM219 244q0 104 81 152t230 55q0 -68 10.5 -127.5t28.5 -108.5q-49 -35 -107 -59.5 t-128 -24.5q-57 0 -86 31t-29 82zM686 561q14 115 59.5 181.5t116.5 66.5q137 0 156 -248h-332z" />
<glyph unicode="&#xe7;" horiz-adv-x="702" d="M80 469q0 -190 72.5 -308t189.5 -155l-119 -319h170l80 305q49 2 92 13t72 26l-49 133q-25 -10 -59.5 -18.5t-75.5 -8.5q-98 0 -155.5 90t-57.5 240q0 152 57 242t156 90q41 0 74.5 -8.5t58.5 -20.5l49 139q-35 20 -82 32.5t-104 12.5q-78 0 -144.5 -32.5t-117 -95 t-79 -152.5t-28.5 -205z" />
<glyph unicode="&#xe8;" horiz-adv-x="804" d="M80 469q0 -229 100.5 -354t272.5 -125q80 0 148.5 20.5t96.5 36.5l-45 131q-29 -10 -85 -25.5t-111 -15.5q-98 0 -152.5 75t-64.5 206h495q-2 154 -27.5 257t-67.5 164.5t-99.5 88t-122.5 26.5q-68 0 -129.5 -32.5t-107.5 -96t-73.5 -153.5t-27.5 -203zM215 1417 l154 -354h120l-94 354h-180zM242 557q14 117 59 184.5t115 67.5q141 0 157 -252h-331z" />
<glyph unicode="&#xe9;" horiz-adv-x="804" d="M80 469q0 -229 100.5 -354t272.5 -125q80 0 148.5 20.5t96.5 36.5l-45 131q-29 -10 -85 -25.5t-111 -15.5q-98 0 -152.5 75t-64.5 206h495q-2 154 -27.5 257t-67.5 164.5t-99.5 88t-122.5 26.5q-68 0 -129.5 -32.5t-107.5 -96t-73.5 -153.5t-27.5 -203zM242 557 q14 117 59 184.5t115 67.5q141 0 157 -252h-331zM319 1063h121l154 354h-180z" />
<glyph unicode="&#xea;" horiz-adv-x="804" d="M80 469q0 -229 100.5 -354t272.5 -125q80 0 148.5 20.5t96.5 36.5l-45 131q-29 -10 -85 -25.5t-111 -15.5q-98 0 -152.5 75t-64.5 206h495q-2 154 -27.5 257t-67.5 164.5t-99.5 88t-122.5 26.5q-68 0 -129.5 -32.5t-107.5 -96t-73.5 -153.5t-27.5 -203zM141 1063h127 l133 168l136 -168h122l-239 399h-37zM242 557q14 117 59 184.5t115 67.5q141 0 157 -252h-331z" />
<glyph unicode="&#xeb;" horiz-adv-x="804" d="M80 469q0 -229 100.5 -354t272.5 -125q80 0 148.5 20.5t96.5 36.5l-45 131q-29 -10 -85 -25.5t-111 -15.5q-98 0 -152.5 75t-64.5 206h495q-2 154 -27.5 257t-67.5 164.5t-99.5 88t-122.5 26.5q-68 0 -129.5 -32.5t-107.5 -96t-73.5 -153.5t-27.5 -203zM143 1186 q0 -45 32 -75t73 -30q43 0 73.5 30t30.5 75t-30.5 75.5t-73.5 30.5q-41 0 -73 -30.5t-32 -75.5zM242 557q14 117 59 184.5t115 67.5q141 0 157 -252h-331zM451 1186q0 -45 31.5 -75t72.5 -30q43 0 72.5 30t29.5 75t-29.5 75.5t-72.5 30.5q-41 0 -72.5 -30.5t-31.5 -75.5z " />
<glyph unicode="&#xec;" horiz-adv-x="421" d="M4 1417l154 -354h121l-95 354h-180zM131 0h158v942h-158v-942z" />
<glyph unicode="&#xed;" horiz-adv-x="421" d="M131 0h158v942h-158v-942zM143 1063h121l154 354h-180z" />
<glyph unicode="&#xee;" horiz-adv-x="421" d="M-49 1063h127l133 168l135 -168h123l-240 399h-36zM131 0h158v942h-158v-942z" />
<glyph unicode="&#xef;" horiz-adv-x="421" d="M-47 1186q0 -45 31.5 -75t72.5 -30q43 0 74 30t31 75t-31 75.5t-74 30.5q-41 0 -72.5 -30.5t-31.5 -75.5zM131 0h158v942h-158v-942zM260 1186q0 -45 32 -75t73 -30q43 0 72.5 30t29.5 75t-29.5 75.5t-72.5 30.5q-41 0 -73 -30.5t-32 -75.5z" />
<glyph unicode="&#xf0;" horiz-adv-x="899" d="M80 467q0 -119 28.5 -208t79 -149.5t117 -90t139.5 -29.5q78 0 144.5 30.5t116 96t77 169t27.5 251.5q0 197 -25.5 348t-74.5 274l127 43v133l-183 -61q-59 104 -137 186l-121 -84q61 -66 113 -153l-113 -39v-135l170 59q31 -74 51.5 -149.5t26.5 -147.5q-27 47 -79 88 t-138 41q-72 0 -134.5 -29.5t-109.5 -89t-74.5 -147.5t-27.5 -207zM240 465q0 152 54 241t148 89q92 0 148.5 -89.5t56.5 -242.5q0 -154 -56.5 -239t-148.5 -85q-94 0 -148 88t-54 238z" />
<glyph unicode="&#xf1;" horiz-adv-x="894" d="M125 0h158v745q35 16 87 29.5t113 13.5q88 0 113 -66.5t25 -201.5v-520h157v575q0 193 -62.5 280t-195.5 87q-72 0 -138.5 -20t-109.5 -43l-8 63h-139v-942zM162 1075l127 -16q10 57 21.5 94t39.5 37q18 0 40 -20.5t48.5 -44t56 -44t64.5 -20.5q74 0 114 71.5t58 200.5 l-125 17q-10 -59 -21.5 -98.5t-39.5 -39.5q-18 0 -40 20.5t-47.5 45.5t-56 45t-65.5 20q-70 0 -113 -69.5t-61 -198.5z" />
<glyph unicode="&#xf2;" horiz-adv-x="886" d="M78 469q0 -121 28.5 -210t79 -149.5t116.5 -90t140 -29.5t140.5 29.5t117 90t79 149.5t28.5 210q0 119 -28.5 210t-79 152.5t-117 92t-140.5 30.5t-140 -30.5t-116.5 -92t-79 -152.5t-28.5 -210zM240 465q0 154 54 244t148 90q92 0 148.5 -90.5t56.5 -243.5 q0 -154 -56.5 -240t-148.5 -86q-94 0 -148 86t-54 240zM258 1417l154 -354h120l-94 354h-180z" />
<glyph unicode="&#xf3;" horiz-adv-x="886" d="M78 469q0 -121 28.5 -210t79 -149.5t116.5 -90t140 -29.5t140.5 29.5t117 90t79 149.5t28.5 210q0 119 -28.5 210t-79 152.5t-117 92t-140.5 30.5t-140 -30.5t-116.5 -92t-79 -152.5t-28.5 -210zM240 465q0 154 54 244t148 90q92 0 148.5 -90.5t56.5 -243.5 q0 -154 -56.5 -240t-148.5 -86q-94 0 -148 86t-54 240zM354 1063h121l154 354h-180z" />
<glyph unicode="&#xf4;" horiz-adv-x="886" d="M78 469q0 -121 28.5 -210t79 -149.5t116.5 -90t140 -29.5t140.5 29.5t117 90t79 149.5t28.5 210q0 119 -28.5 210t-79 152.5t-117 92t-140.5 30.5t-140 -30.5t-116.5 -92t-79 -152.5t-28.5 -210zM184 1063h127l133 168l136 -168h122l-239 399h-37zM240 465q0 154 54 244 t148 90q92 0 148.5 -90.5t56.5 -243.5q0 -154 -56.5 -240t-148.5 -86q-94 0 -148 86t-54 240z" />
<glyph unicode="&#xf5;" horiz-adv-x="886" d="M78 469q0 -121 28.5 -210t79 -149.5t116.5 -90t140 -29.5t140.5 29.5t117 90t79 149.5t28.5 210q0 119 -28.5 210t-79 152.5t-117 92t-140.5 30.5t-140 -30.5t-116.5 -92t-79 -152.5t-28.5 -210zM158 1075l127 -16q10 57 21 94t40 37q18 0 40 -20.5t48.5 -44t56 -44 t64.5 -20.5q74 0 114 71.5t58 200.5l-125 17q-10 -59 -21.5 -98.5t-39.5 -39.5q-18 0 -40 20.5t-47.5 45.5t-56 45t-65.5 20q-70 0 -113 -69.5t-61 -198.5zM240 465q0 154 54 244t148 90q92 0 148.5 -90.5t56.5 -243.5q0 -154 -56.5 -240t-148.5 -86q-94 0 -148 86t-54 240z " />
<glyph unicode="&#xf6;" horiz-adv-x="886" d="M78 469q0 -121 28.5 -210t79 -149.5t116.5 -90t140 -29.5t140.5 29.5t117 90t79 149.5t28.5 210q0 119 -28.5 210t-79 152.5t-117 92t-140.5 30.5t-140 -30.5t-116.5 -92t-79 -152.5t-28.5 -210zM186 1186q0 -45 32 -75t73 -30q43 0 73.5 30t30.5 75t-30.5 75.5 t-73.5 30.5q-41 0 -73 -30.5t-32 -75.5zM240 465q0 154 54 244t148 90q92 0 148.5 -90.5t56.5 -243.5q0 -154 -56.5 -240t-148.5 -86q-94 0 -148 86t-54 240zM494 1186q0 -45 31.5 -75t72.5 -30q43 0 72.5 30t29.5 75t-29.5 75.5t-72.5 30.5q-41 0 -72.5 -30.5t-31.5 -75.5z " />
<glyph unicode="&#xf7;" horiz-adv-x="933" d="M135 629h666v145h-666v-145zM358 379q0 -49 32 -80t77 -31q47 0 77.5 31t30.5 80q0 47 -30.5 78.5t-77.5 31.5q-45 0 -77 -31.5t-32 -78.5zM358 1022q0 -49 32 -81t77 -32q47 0 77.5 32t30.5 81q0 47 -30.5 77.5t-77.5 30.5q-45 0 -77 -30.5t-32 -77.5z" />
<glyph unicode="&#xf8;" horiz-adv-x="886" d="M78 469q0 -139 38 -236.5t99 -156.5l-82 -189h121l55 129q61 -27 133 -26q74 0 140.5 29.5t117 90t79 149.5t28.5 210q0 135 -36 231.5t-95 155.5l88 201h-121l-59 -135q-63 33 -142 32q-74 0 -140 -30.5t-116.5 -92t-79 -152.5t-28.5 -210zM236 465q0 158 56 248t150 90 q41 0 80 -23l-237 -547q-23 43 -36 101.5t-13 130.5zM369 152l235 538q47 -88 47 -225q0 -158 -58 -244t-151 -86q-37 0 -73 17z" />
<glyph unicode="&#xf9;" horiz-adv-x="892" d="M117 356q0 -190 62.5 -279t195.5 -89q72 0 137.5 20.5t110.5 42.5l6 -51h137v942h-156v-758q-35 -16 -86 -29.5t-112 -13.5q-88 0 -113 66.5t-25 202.5v532h-157v-586zM252 1417l154 -354h120l-94 354h-180z" />
<glyph unicode="&#xfa;" horiz-adv-x="892" d="M117 356q0 -190 62.5 -279t195.5 -89q72 0 137.5 20.5t110.5 42.5l6 -51h137v942h-156v-758q-35 -16 -86 -29.5t-112 -13.5q-88 0 -113 66.5t-25 202.5v532h-157v-586zM365 1063h120l154 354h-180z" />
<glyph unicode="&#xfb;" horiz-adv-x="892" d="M117 356q0 -190 62.5 -279t195.5 -89q72 0 137.5 20.5t110.5 42.5l6 -51h137v942h-156v-758q-35 -16 -86 -29.5t-112 -13.5q-88 0 -113 66.5t-25 202.5v532h-157v-586zM186 1063h127l133 168l136 -168h123l-240 399h-37z" />
<glyph unicode="&#xfc;" horiz-adv-x="892" d="M117 356q0 -190 62.5 -279t195.5 -89q72 0 137.5 20.5t110.5 42.5l6 -51h137v942h-156v-758q-35 -16 -86 -29.5t-112 -13.5q-88 0 -113 66.5t-25 202.5v532h-157v-586zM188 1186q0 -45 32 -75t73 -30q43 0 73.5 30t30.5 75t-30.5 75.5t-73.5 30.5q-41 0 -73 -30.5 t-32 -75.5zM496 1186q0 -45 31.5 -75t72.5 -30q43 0 72.5 30t29.5 75t-29.5 75.5t-72.5 30.5q-41 0 -72.5 -30.5t-31.5 -75.5z" />
<glyph unicode="&#xfd;" horiz-adv-x="768" d="M14 942l291 -917l-129 -394h150l426 1311h-148l-219 -672l-211 672h-160zM315 1063h121l154 354h-180z" />
<glyph unicode="&#xfe;" horiz-adv-x="884" d="M125 -369h158v400q37 -18 85 -29.5t95 -11.5q86 0 149.5 33.5t106.5 96t64.5 151.5t21.5 198q0 223 -85 348t-253 125q-45 0 -95 -15.5t-89 -35.5v563h-158v-1823zM283 166v582q37 18 77.5 30.5t75.5 12.5q57 0 97 -27t65 -72t35 -103.5t10 -121.5t-10 -121.5t-35 -104.5 t-64.5 -74t-97.5 -28q-41 0 -79 7.5t-74 19.5z" />
<glyph unicode="&#xff;" horiz-adv-x="768" d="M14 942l291 -917l-129 -394h150l426 1311h-148l-219 -672l-211 672h-160zM150 1186q0 -45 31.5 -75t72.5 -30q43 0 73.5 30t30.5 75t-30.5 75.5t-73.5 30.5q-41 0 -72.5 -30.5t-31.5 -75.5zM457 1186q0 -45 31.5 -75t72.5 -30q43 0 73 30t30 75t-30 75.5t-73 30.5 q-41 0 -72.5 -30.5t-31.5 -75.5z" />
<glyph unicode="&#x152;" horiz-adv-x="1550" d="M117 721q0 -188 48 -324.5t138 -224.5t222 -130t302 -42h627v154h-508v491h387v158h-387v483h492v158h-611q-170 0 -302 -42t-222 -130t-138 -224.5t-48 -326.5zM287 723q0 268 112.5 411.5t337.5 145.5h45v-1120h-45q-227 2 -338.5 148.5t-111.5 414.5z" />
<glyph unicode="&#x153;" horiz-adv-x="1370" d="M78 469q0 -121 28.5 -210t79 -149.5t117 -90t139.5 -29.5q90 0 163 43t120 131q45 -86 117.5 -130t175.5 -44q82 0 149.5 20.5t98.5 36.5l-45 131q-29 -10 -86.5 -25.5t-112.5 -15.5q-98 0 -151.5 75t-63.5 206h493q-2 154 -27.5 257t-67.5 164.5t-99 88t-123 26.5 q-80 0 -146.5 -46t-109.5 -134q-47 90 -119.5 135t-165.5 45q-74 0 -140 -30.5t-116.5 -92t-79 -152.5t-28.5 -210zM240 465q0 154 54 244t148 90q92 0 148.5 -90.5t56.5 -243.5q0 -154 -56.5 -240t-148.5 -86q-94 0 -148 86t-54 240zM809 557q12 117 57 184.5t117 67.5 q139 0 156 -252h-330z" />
<glyph unicode="&#x178;" horiz-adv-x="1042" d="M35 1444l405 -909v-535h164v539l404 905h-168l-316 -699l-313 699h-176zM264 1651q0 -45 32 -75t73 -30q43 0 73.5 30t30.5 75t-30.5 75.5t-73.5 30.5q-41 0 -73 -30.5t-32 -75.5zM571 1651q0 -45 32 -75t73 -30q43 0 72.5 30t29.5 75t-29.5 75.5t-72.5 30.5 q-41 0 -73 -30.5t-32 -75.5z" />
<glyph unicode="&#x2c6;" horiz-adv-x="892" d="M186 1063h127l133 168l136 -168h123l-240 399h-37z" />
<glyph unicode="&#x2dc;" horiz-adv-x="890" d="M160 1075l127 -16q10 57 21 94t40 37q18 0 40 -20.5t48.5 -44t56 -44t64.5 -20.5q74 0 114 71.5t58 200.5l-125 17q-10 -59 -21.5 -98.5t-39.5 -39.5q-18 0 -40 20.5t-47.5 45.5t-56 45t-65.5 20q-70 0 -113 -69.5t-61 -198.5z" />
<glyph unicode="&#x2000;" horiz-adv-x="963" />
<glyph unicode="&#x2001;" horiz-adv-x="1927" />
<glyph unicode="&#x2002;" horiz-adv-x="963" />
<glyph unicode="&#x2003;" horiz-adv-x="1927" />
<glyph unicode="&#x2004;" horiz-adv-x="642" />
<glyph unicode="&#x2005;" horiz-adv-x="481" />
<glyph unicode="&#x2006;" horiz-adv-x="321" />
<glyph unicode="&#x2007;" horiz-adv-x="321" />
<glyph unicode="&#x2008;" horiz-adv-x="240" />
<glyph unicode="&#x2009;" horiz-adv-x="385" />
<glyph unicode="&#x200a;" horiz-adv-x="107" />
<glyph unicode="&#x2010;" horiz-adv-x="833" d="M135 526h565v152h-565v-152z" />
<glyph unicode="&#x2011;" horiz-adv-x="833" d="M135 526h565v152h-565v-152z" />
<glyph unicode="&#x2012;" horiz-adv-x="833" d="M135 526h565v152h-565v-152z" />
<glyph unicode="&#x2013;" horiz-adv-x="1208" d="M143 530h924v142h-924v-142z" />
<glyph unicode="&#x2014;" horiz-adv-x="1529" d="M143 530h1246v142h-1246v-142z" />
<glyph unicode="&#x2018;" horiz-adv-x="493" d="M117 1444l139 -531h121l-82 531h-178z" />
<glyph unicode="&#x2019;" horiz-adv-x="493" d="M117 913h121l139 531h-176z" />
<glyph unicode="&#x201a;" horiz-adv-x="493" d="M117 -336h121l139 522h-176z" />
<glyph unicode="&#x201c;" horiz-adv-x="806" d="M117 1444l139 -531h117l-80 531h-176zM432 1444l141 -531h115l-82 531h-174z" />
<glyph unicode="&#x201d;" horiz-adv-x="806" d="M117 913h119l139 531h-174zM436 913h113l141 531h-174z" />
<glyph unicode="&#x201e;" horiz-adv-x="806" d="M117 -336h119l139 522h-174zM436 -336h113l141 522h-174z" />
<glyph unicode="&#x2022;" horiz-adv-x="735" d="M141 662q0 -162 67 -248t161 -86t159.5 86t65.5 252t-65.5 252t-159.5 86t-161 -87.5t-67 -254.5z" />
<glyph unicode="&#x2026;" horiz-adv-x="1245" d="M121 109q0 -55 35 -89t84 -34t83.5 33.5t34.5 89.5q0 51 -34.5 85.5t-83.5 34.5t-84 -34.5t-35 -85.5zM504 109q0 -55 35 -89t84 -34q51 0 84.5 33.5t33.5 89.5q0 51 -33.5 85.5t-84.5 34.5q-49 0 -84 -34.5t-35 -85.5zM887 109q0 -55 35 -89t84 -34q51 0 85.5 33.5 t34.5 89.5q0 51 -34.5 85.5t-85.5 34.5q-49 0 -84 -34.5t-35 -85.5z" />
<glyph unicode="&#x202f;" horiz-adv-x="385" />
<glyph unicode="&#x2039;" horiz-adv-x="575" d="M113 473l190 -473h160l-193 473l193 469h-160z" />
<glyph unicode="&#x203a;" horiz-adv-x="575" d="M113 0h157l191 471l-191 471h-157l188 -471z" />
<glyph unicode="&#x205f;" horiz-adv-x="481" />
<glyph unicode="&#x20ac;" horiz-adv-x="1017" d="M47 502h193q25 -137 81 -234.5t130.5 -159t161.5 -90t178 -28.5q47 0 88 9t69 21l-30 146q-20 -4 -52 -12.5t-73 -8.5q-141 0 -244 89.5t-143 267.5h382v129h-403q0 20 -1 41.5t-1 44.5q0 57 6 110h399v129h-378q45 164 144 246t237 82q29 0 62.5 -5t64.5 -15l28 151 q-23 8 -63.5 17.5t-100.5 9.5q-86 0 -170 -28t-156.5 -86t-128 -150.5t-83.5 -221.5h-197v-129h178q-2 -27 -3 -54.5t-1 -55.5v-43t2 -43h-176v-129z" />
<glyph unicode="&#x2122;" horiz-adv-x="1480" d="M59 1313h207v-781h140v781h202v131h-549v-131zM664 532h129l12 472l178 -459h39l182 461l15 -474h135l-31 920h-57l-258 -631l-256 631h-60z" />
<glyph unicode="&#x25fc;" horiz-adv-x="942" d="M0 0v942h942v-942h-942z" />
<glyph unicode="&#xfb01;" horiz-adv-x="958" d="M33 797h139v-797h156v797h338v-797h159v942h-497v127q0 127 42 181.5t158 54.5q53 0 110.5 -9.5t102.5 -19.5l31 147q-51 14 -116.5 25.5t-141.5 11.5q-180 0 -261 -92t-81 -299v-127h-139v-145z" />
<glyph unicode="&#xfb02;" horiz-adv-x="958" d="M33 797h139v-797h156v797h196v145h-196v131q0 127 42 181.5t158 54.5q35 0 69 -4.5t69 -10.5v-1294h159v1436h-114q-43 10 -91.5 17t-105.5 7q-180 0 -261 -92t-81 -299v-127h-139v-145z" />
</font>
</defs>
</svg>
